M48
; DRILL file {KiCad 8.0.6} date 2025-05-11T12:33:26+0900
; FORMAT={-:-/ absolute / inch / decimal}
; #@! TF.CreationDate,2025-05-11T12:33:26+09:00
; #@! TF.GenerationSoftware,Kicad,Pcbnew,8.0.6
; #@! TF.FileFunction,NonPlated,1,2,NPTH
FMAT,2
INCH
; #@! TA.AperFunction,NonPlated,NPTH,ComponentDrill
T1C0.0670
; #@! TA.AperFunction,NonPlated,NPTH,ComponentDrill
T2C0.0866
; #@! TA.AperFunction,NonPlated,NPTH,ComponentDrill
T3C0.1732
%
G90
G05
T2
X0.8661Y-1.5748
X1.2598Y-3.5827
X4.6654Y-0.748
X5.7874Y-4.3307
T3
X1.2972Y-0.375
X1.2972Y-1.125
X1.2972Y-4.125
X1.4847Y-1.875
X1.5785Y-2.625
X1.766Y-3.375
X2.0472Y-0.375
X2.0472Y-1.125
X2.141Y-4.125
X2.4222Y-1.875
X2.6097Y-2.625
X2.7972Y-0.375
X2.7972Y-1.125
X2.9847Y-3.375
X3.0785Y-4.125
X3.1722Y-1.875
X3.3597Y-2.625
X3.5472Y-0.375
X3.5472Y-1.125
X3.7347Y-3.375
X3.9222Y-1.875
X4.016Y-4.125
X4.1097Y-2.625
X4.2972Y-0.375
X4.2972Y-1.125
X4.4847Y-3.375
X4.6722Y-1.875
X4.8597Y-2.625
X5.0472Y-0.375
X5.0472Y-1.125
X5.2347Y-3.375
X5.2347Y-4.125
X5.4222Y-1.875
X5.6097Y-2.625
T1
G00X1.0972Y-0.375
M15
G01X1.0807Y-0.375
M16
G05
G00X1.0972Y-1.125
M15
G01X1.0807Y-1.125
M16
G05
G00X1.0972Y-4.125
M15
G01X1.0807Y-4.125
M16
G05
G00X1.2847Y-1.875
M15
G01X1.2682Y-1.875
M16
G05
G00X1.3785Y-2.625
M15
G01X1.3619Y-2.625
M16
G05
G00X1.5137Y-0.375
M15
G01X1.4972Y-0.375
M16
G05
G00X1.5137Y-1.125
M15
G01X1.4972Y-1.125
M16
G05
G00X1.5137Y-4.125
M15
G01X1.4972Y-4.125
M16
G05
G00X1.566Y-3.375
M15
G01X1.5494Y-3.375
M16
G05
G00X1.7012Y-1.875
M15
G01X1.6847Y-1.875
M16
G05
G00X1.795Y-2.625
M15
G01X1.7785Y-2.625
M16
G05
G00X1.8472Y-0.375
M15
G01X1.8307Y-0.375
M16
G05
G00X1.8472Y-1.125
M15
G01X1.8307Y-1.125
M16
G05
G00X1.941Y-4.125
M15
G01X1.9244Y-4.125
M16
G05
G00X1.9825Y-3.375
M15
G01X1.966Y-3.375
M16
G05
G00X2.2222Y-1.875
M15
G01X2.2057Y-1.875
M16
G05
G00X2.2637Y-0.375
M15
G01X2.2472Y-0.375
M16
G05
G00X2.2637Y-1.125
M15
G01X2.2472Y-1.125
M16
G05
G00X2.3575Y-4.125
M15
G01X2.341Y-4.125
M16
G05
G00X2.4097Y-2.625
M15
G01X2.3932Y-2.625
M16
G05
G00X2.5972Y-0.375
M15
G01X2.5807Y-0.375
M16
G05
G00X2.5972Y-1.125
M15
G01X2.5807Y-1.125
M16
G05
G00X2.6387Y-1.875
M15
G01X2.6222Y-1.875
M16
G05
G00X2.7847Y-3.375
M15
G01X2.7682Y-3.375
M16
G05
G00X2.8262Y-2.625
M15
G01X2.8097Y-2.625
M16
G05
G00X2.8785Y-4.125
M15
G01X2.8619Y-4.125
M16
G05
G00X2.9722Y-1.875
M15
G01X2.9557Y-1.875
M16
G05
G00X3.0137Y-0.375
M15
G01X2.9972Y-0.375
M16
G05
G00X3.0137Y-1.125
M15
G01X2.9972Y-1.125
M16
G05
G00X3.1597Y-2.625
M15
G01X3.1432Y-2.625
M16
G05
G00X3.2012Y-3.375
M15
G01X3.1847Y-3.375
M16
G05
G00X3.295Y-4.125
M15
G01X3.2785Y-4.125
M16
G05
G00X3.3472Y-0.375
M15
G01X3.3307Y-0.375
M16
G05
G00X3.3472Y-1.125
M15
G01X3.3307Y-1.125
M16
G05
G00X3.3887Y-1.875
M15
G01X3.3722Y-1.875
M16
G05
G00X3.5347Y-3.375
M15
G01X3.5182Y-3.375
M16
G05
G00X3.5762Y-2.625
M15
G01X3.5597Y-2.625
M16
G05
G00X3.7222Y-1.875
M15
G01X3.7057Y-1.875
M16
G05
G00X3.7637Y-0.375
M15
G01X3.7472Y-0.375
M16
G05
G00X3.7637Y-1.125
M15
G01X3.7472Y-1.125
M16
G05
G00X3.816Y-4.125
M15
G01X3.7994Y-4.125
M16
G05
G00X3.9097Y-2.625
M15
G01X3.8932Y-2.625
M16
G05
G00X3.9512Y-3.375
M15
G01X3.9347Y-3.375
M16
G05
G00X4.0972Y-0.375
M15
G01X4.0807Y-0.375
M16
G05
G00X4.0972Y-1.125
M15
G01X4.0807Y-1.125
M16
G05
G00X4.1387Y-1.875
M15
G01X4.1222Y-1.875
M16
G05
G00X4.2325Y-4.125
M15
G01X4.216Y-4.125
M16
G05
G00X4.2847Y-3.375
M15
G01X4.2682Y-3.375
M16
G05
G00X4.3262Y-2.625
M15
G01X4.3097Y-2.625
M16
G05
G00X4.4722Y-1.875
M15
G01X4.4557Y-1.875
M16
G05
G00X4.5137Y-0.375
M15
G01X4.4972Y-0.375
M16
G05
G00X4.5137Y-1.125
M15
G01X4.4972Y-1.125
M16
G05
G00X4.6597Y-2.625
M15
G01X4.6432Y-2.625
M16
G05
G00X4.7012Y-3.375
M15
G01X4.6847Y-3.375
M16
G05
G00X4.8472Y-0.375
M15
G01X4.8307Y-0.375
M16
G05
G00X4.8472Y-1.125
M15
G01X4.8307Y-1.125
M16
G05
G00X4.8887Y-1.875
M15
G01X4.8722Y-1.875
M16
G05
G00X5.0347Y-3.375
M15
G01X5.0182Y-3.375
M16
G05
G00X5.0347Y-4.125
M15
G01X5.0182Y-4.125
M16
G05
G00X5.0762Y-2.625
M15
G01X5.0597Y-2.625
M16
G05
G00X5.2222Y-1.875
M15
G01X5.2057Y-1.875
M16
G05
G00X5.2637Y-0.375
M15
G01X5.2472Y-0.375
M16
G05
G00X5.2637Y-1.125
M15
G01X5.2472Y-1.125
M16
G05
G00X5.4097Y-2.625
M15
G01X5.3932Y-2.625
M16
G05
G00X5.4512Y-3.375
M15
G01X5.4347Y-3.375
M16
G05
G00X5.4512Y-4.125
M15
G01X5.4347Y-4.125
M16
G05
G00X5.6387Y-1.875
M15
G01X5.6222Y-1.875
M16
G05
G00X5.8262Y-2.625
M15
G01X5.8097Y-2.625
M16
G05
M30
