%TF.GenerationSoftware,KiCad,Pcbnew,8.0.6*%
%TF.CreationDate,2025-05-11T12:33:18+09:00*%
%TF.ProjectId,65_split_left,36355f73-706c-4697-945f-6c6566742e6b,rev?*%
%TF.SameCoordinates,PX12f0318PYf8a778*%
%TF.FileFunction,Copper,L1,Top*%
%TF.FilePolarity,Positive*%
%FSLAX46Y46*%
G04 Gerber Fmt 4.6, Leading zero omitted, Abs format (unit mm)*
G04 Created by KiCad (PCBNEW 8.0.6) date 2025-05-11 12:33:18*
%MOMM*%
%LPD*%
G01*
G04 APERTURE LIST*
G04 Aperture macros list*
%AMRoundRect*
0 Rectangle with rounded corners*
0 $1 Rounding radius*
0 $2 $3 $4 $5 $6 $7 $8 $9 X,Y pos of 4 corners*
0 Add a 4 corners polygon primitive as box body*
4,1,4,$2,$3,$4,$5,$6,$7,$8,$9,$2,$3,0*
0 Add four circle primitives for the rounded corners*
1,1,$1+$1,$2,$3*
1,1,$1+$1,$4,$5*
1,1,$1+$1,$6,$7*
1,1,$1+$1,$8,$9*
0 Add four rect primitives between the rounded corners*
20,1,$1+$1,$2,$3,$4,$5,0*
20,1,$1+$1,$4,$5,$6,$7,0*
20,1,$1+$1,$6,$7,$8,$9,0*
20,1,$1+$1,$8,$9,$2,$3,0*%
G04 Aperture macros list end*
%TA.AperFunction,ComponentPad*%
%ADD10C,2.200000*%
%TD*%
%TA.AperFunction,SMDPad,CuDef*%
%ADD11RoundRect,0.041667X0.621050X0.110920X0.568595X0.273325X-0.621050X-0.110920X-0.568595X-0.273325X0*%
%TD*%
%TA.AperFunction,ComponentPad*%
%ADD12C,1.970000*%
%TD*%
%TA.AperFunction,ComponentPad*%
%ADD13C,1.900000*%
%TD*%
%TA.AperFunction,SMDPad,CuDef*%
%ADD14RoundRect,0.041667X0.568595X-0.273325X0.621050X-0.110920X-0.568595X0.273325X-0.621050X0.110920X0*%
%TD*%
%TA.AperFunction,ComponentPad*%
%ADD15R,1.600000X1.600000*%
%TD*%
%TA.AperFunction,SMDPad,CuDef*%
%ADD16RoundRect,0.041667X-0.625080X0.085333X-0.625080X-0.085333X0.625080X-0.085333X0.625080X0.085333X0*%
%TD*%
%TA.AperFunction,SMDPad,CuDef*%
%ADD17RoundRect,0.225000X-0.225000X-0.375000X0.225000X-0.375000X0.225000X0.375000X-0.225000X0.375000X0*%
%TD*%
%TA.AperFunction,ComponentPad*%
%ADD18C,1.400000*%
%TD*%
%TA.AperFunction,SMDPad,CuDef*%
%ADD19RoundRect,0.127000X0.253137X-0.253151X0.253151X-0.253137X-0.253137X0.253151X-0.253151X0.253137X0*%
%TD*%
%TA.AperFunction,SMDPad,CuDef*%
%ADD20RoundRect,0.127000X0.253151X0.253137X0.253137X0.253151X-0.253151X-0.253137X-0.253137X-0.253151X0*%
%TD*%
%TA.AperFunction,SMDPad,CuDef*%
%ADD21RoundRect,0.126999X-0.000010X-1.765555X0.000010X-1.765555X0.000010X1.765555X-0.000010X1.765555X0*%
%TD*%
%TA.AperFunction,SMDPad,CuDef*%
%ADD22RoundRect,0.041667X3.006331X-0.085333X3.006331X0.085333X-3.006331X0.085333X-3.006331X-0.085333X0*%
%TD*%
%TA.AperFunction,SMDPad,CuDef*%
%ADD23RoundRect,0.127000X-0.253151X-0.253137X-0.253137X-0.253151X0.253151X0.253137X0.253137X0.253151X0*%
%TD*%
%TA.AperFunction,SMDPad,CuDef*%
%ADD24RoundRect,0.127000X-0.253137X0.253151X-0.253151X0.253137X0.253137X-0.253151X0.253151X-0.253137X0*%
%TD*%
%TA.AperFunction,ComponentPad*%
%ADD25O,1.600000X1.600000*%
%TD*%
%TA.AperFunction,SMDPad,CuDef*%
%ADD26RoundRect,0.127000X0.702150X-0.702164X0.702164X-0.702150X-0.702150X0.702164X-0.702164X0.702150X0*%
%TD*%
%TA.AperFunction,SMDPad,CuDef*%
%ADD27RoundRect,0.127000X0.000010X1.223024X-0.000010X1.223024X-0.000010X-1.223024X0.000010X-1.223024X0*%
%TD*%
%TA.AperFunction,ComponentPad*%
%ADD28C,2.000000*%
%TD*%
%TA.AperFunction,ComponentPad*%
%ADD29C,1.600000*%
%TD*%
%TA.AperFunction,SMDPad,CuDef*%
%ADD30RoundRect,0.127000X-0.550136X-0.550122X-0.550122X-0.550136X0.550136X0.550122X0.550122X0.550136X0*%
%TD*%
%TA.AperFunction,SMDPad,CuDef*%
%ADD31RoundRect,0.127000X-6.144000X0.000010X-6.144000X-0.000010X6.144000X-0.000010X6.144000X0.000010X0*%
%TD*%
%TA.AperFunction,SMDPad,CuDef*%
%ADD32RoundRect,0.170000X-0.170000X-0.780000X0.170000X-0.780000X0.170000X0.780000X-0.170000X0.780000X0*%
%TD*%
%TA.AperFunction,ComponentPad*%
%ADD33C,0.700000*%
%TD*%
%TA.AperFunction,ViaPad*%
%ADD34C,0.800000*%
%TD*%
%TA.AperFunction,Conductor*%
%ADD35C,0.300000*%
%TD*%
G04 APERTURE END LIST*
D10*
%TO.P,SW32,1,1*%
%TO.N,/ROW 5*%
X75652750Y-99695000D03*
D11*
X76892750Y-99300000D03*
D12*
X78192750Y-98875000D03*
D13*
X78192750Y-111275000D03*
D14*
X79392750Y-99300000D03*
D10*
X80732750Y-99695000D03*
D15*
%TO.P,SW32,2,2*%
%TO.N,/COL 2*%
X74382750Y-96825000D03*
D16*
X75592750Y-96825000D03*
D17*
X76542750Y-96825000D03*
D18*
%TO.P,SW32,3,3*%
%TO.N,unconnected-(SW32-Pad3)_5*%
X72972750Y-108975000D03*
D12*
%TO.N,unconnected-(SW32-Pad3)_12*%
X73192750Y-100975000D03*
D10*
%TO.N,unconnected-(SW32-Pad3)_6*%
X74382750Y-102235000D03*
D13*
%TO.N,unconnected-(SW32-Pad3)_4*%
X74392750Y-108575000D03*
D19*
%TO.N,unconnected-(SW32-Pad3)_9*%
X74763750Y-103505000D03*
D20*
%TO.N,unconnected-(SW32-Pad3)_16*%
X74763750Y-107569000D03*
D21*
%TO.N,unconnected-(SW32-Pad3)_1*%
X75017751Y-105549445D03*
D22*
%TO.N,unconnected-(SW32-Pad3)_8*%
X78192748Y-108585000D03*
D17*
%TO.N,unconnected-(SW32-Pad3)_18*%
X79842750Y-96825000D03*
D16*
%TO.N,unconnected-(SW32-Pad3)_17*%
X80692750Y-96825000D03*
D21*
%TO.N,unconnected-(SW32-Pad3)_19*%
X81367749Y-105549445D03*
D23*
%TO.N,unconnected-(SW32-Pad3)_10*%
X81621750Y-103505000D03*
D24*
%TO.N,unconnected-(SW32-Pad3)_15*%
X81621750Y-107569000D03*
D13*
%TO.N,unconnected-(SW32-Pad3)_11*%
X81992750Y-108575000D03*
D25*
%TO.N,unconnected-(SW32-Pad3)_13*%
X82002750Y-96825000D03*
D10*
%TO.N,unconnected-(SW32-Pad3)_14*%
X82002750Y-102235000D03*
D26*
%TO.N,unconnected-(SW32-Pad3)_20*%
X82492750Y-97325000D03*
D12*
%TO.N,unconnected-(SW32-Pad3)_7*%
X83192750Y-100975000D03*
D27*
%TO.N,unconnected-(SW32-Pad3)_21*%
X83194250Y-99255025D03*
D18*
%TO.N,unconnected-(SW32-Pad3)_3*%
X83412750Y-108975000D03*
%TD*%
D10*
%TO.P,SW28,1,1*%
%TO.N,/ROW 4*%
X111371500Y-80645000D03*
D11*
X112611500Y-80250000D03*
D12*
X113911500Y-79825000D03*
D13*
X113911500Y-92225000D03*
D14*
X115111500Y-80250000D03*
D10*
X116451500Y-80645000D03*
D15*
%TO.P,SW28,2,2*%
%TO.N,/COL 3*%
X110101500Y-77775000D03*
D16*
X111311500Y-77775000D03*
D17*
X112261500Y-77775000D03*
D18*
%TO.P,SW28,3,3*%
%TO.N,unconnected-(SW28-Pad3)_5*%
X108691500Y-89925000D03*
D12*
%TO.N,unconnected-(SW28-Pad3)_4*%
X108911500Y-81925000D03*
D10*
%TO.N,unconnected-(SW28-Pad3)_12*%
X110101500Y-83185000D03*
D13*
%TO.N,unconnected-(SW28-Pad3)_18*%
X110111500Y-89525000D03*
D19*
%TO.N,unconnected-(SW28-Pad3)_7*%
X110482500Y-84455000D03*
D20*
%TO.N,unconnected-(SW28-Pad3)_8*%
X110482500Y-88519000D03*
D21*
%TO.N,unconnected-(SW28-Pad3)_10*%
X110736501Y-86499445D03*
D22*
%TO.N,unconnected-(SW28-Pad3)_17*%
X113911498Y-89535000D03*
D17*
%TO.N,unconnected-(SW28-Pad3)_3*%
X115561500Y-77775000D03*
D16*
%TO.N,unconnected-(SW28-Pad3)*%
X116411500Y-77775000D03*
D21*
%TO.N,unconnected-(SW28-Pad3)_15*%
X117086499Y-86499445D03*
D23*
%TO.N,unconnected-(SW28-Pad3)_21*%
X117340500Y-84455000D03*
D24*
%TO.N,unconnected-(SW28-Pad3)_9*%
X117340500Y-88519000D03*
D13*
%TO.N,unconnected-(SW28-Pad3)_11*%
X117711500Y-89525000D03*
D25*
%TO.N,unconnected-(SW28-Pad3)_2*%
X117721500Y-77775000D03*
D10*
%TO.N,unconnected-(SW28-Pad3)_1*%
X117721500Y-83185000D03*
D26*
%TO.N,unconnected-(SW28-Pad3)_14*%
X118211500Y-78275000D03*
D12*
%TO.N,unconnected-(SW28-Pad3)_13*%
X118911500Y-81925000D03*
D27*
%TO.N,unconnected-(SW28-Pad3)_19*%
X118913000Y-80205025D03*
D18*
%TO.N,unconnected-(SW28-Pad3)_16*%
X119131500Y-89925000D03*
%TD*%
D10*
%TO.P,SW11,1,1*%
%TO.N,/ROW 1*%
X106609000Y-23495000D03*
D11*
X107849000Y-23100000D03*
D12*
X109149000Y-22675000D03*
D13*
X109149000Y-35075000D03*
D14*
X110349000Y-23100000D03*
D10*
X111689000Y-23495000D03*
D15*
%TO.P,SW11,2,2*%
%TO.N,/COL 4*%
X105339000Y-20625000D03*
D16*
X106549000Y-20625000D03*
D17*
X107499000Y-20625000D03*
D18*
%TO.P,SW11,3,3*%
%TO.N,unconnected-(SW11-Pad3)_11*%
X103929000Y-32775000D03*
D12*
%TO.N,unconnected-(SW11-Pad3)_15*%
X104149000Y-24775000D03*
D10*
%TO.N,unconnected-(SW11-Pad3)_16*%
X105339000Y-26035000D03*
D13*
%TO.N,unconnected-(SW11-Pad3)_17*%
X105349000Y-32375000D03*
D19*
%TO.N,unconnected-(SW11-Pad3)_5*%
X105720000Y-27305000D03*
D20*
%TO.N,unconnected-(SW11-Pad3)_7*%
X105720000Y-31369000D03*
D21*
%TO.N,unconnected-(SW11-Pad3)_8*%
X105974001Y-29349445D03*
D22*
%TO.N,unconnected-(SW11-Pad3)_4*%
X109148998Y-32385000D03*
D17*
%TO.N,unconnected-(SW11-Pad3)_3*%
X110799000Y-20625000D03*
D16*
%TO.N,unconnected-(SW11-Pad3)_13*%
X111649000Y-20625000D03*
D21*
%TO.N,unconnected-(SW11-Pad3)_21*%
X112323999Y-29349445D03*
D23*
%TO.N,unconnected-(SW11-Pad3)_1*%
X112578000Y-27305000D03*
D24*
%TO.N,unconnected-(SW11-Pad3)_20*%
X112578000Y-31369000D03*
D13*
%TO.N,unconnected-(SW11-Pad3)_2*%
X112949000Y-32375000D03*
D25*
%TO.N,unconnected-(SW11-Pad3)_12*%
X112959000Y-20625000D03*
D10*
%TO.N,unconnected-(SW11-Pad3)_9*%
X112959000Y-26035000D03*
D26*
%TO.N,unconnected-(SW11-Pad3)_18*%
X113449000Y-21125000D03*
D12*
%TO.N,unconnected-(SW11-Pad3)_10*%
X114149000Y-24775000D03*
D27*
%TO.N,unconnected-(SW11-Pad3)*%
X114150500Y-23055025D03*
D18*
%TO.N,unconnected-(SW11-Pad3)_19*%
X114369000Y-32775000D03*
%TD*%
D10*
%TO.P,SW20,1,1*%
%TO.N,/ROW 3*%
X63746500Y-61595000D03*
D11*
X64986500Y-61200000D03*
D12*
X66286500Y-60775000D03*
D13*
X66286500Y-73175000D03*
D14*
X67486500Y-61200000D03*
D10*
X68826500Y-61595000D03*
D15*
%TO.P,SW20,2,2*%
%TO.N,/COL 1*%
X62476500Y-58725000D03*
D16*
X63686500Y-58725000D03*
D17*
X64636500Y-58725000D03*
D18*
%TO.P,SW20,3,3*%
%TO.N,unconnected-(SW20-Pad3)_3*%
X61066500Y-70875000D03*
D12*
%TO.N,unconnected-(SW20-Pad3)_13*%
X61286500Y-62875000D03*
D10*
%TO.N,unconnected-(SW20-Pad3)_12*%
X62476500Y-64135000D03*
D13*
%TO.N,unconnected-(SW20-Pad3)_19*%
X62486500Y-70475000D03*
D19*
%TO.N,unconnected-(SW20-Pad3)_14*%
X62857500Y-65405000D03*
D20*
%TO.N,unconnected-(SW20-Pad3)_9*%
X62857500Y-69469000D03*
D21*
%TO.N,unconnected-(SW20-Pad3)_8*%
X63111501Y-67449445D03*
D22*
%TO.N,unconnected-(SW20-Pad3)_21*%
X66286498Y-70485000D03*
D17*
%TO.N,unconnected-(SW20-Pad3)_18*%
X67936500Y-58725000D03*
D16*
%TO.N,unconnected-(SW20-Pad3)_6*%
X68786500Y-58725000D03*
D21*
%TO.N,unconnected-(SW20-Pad3)_16*%
X69461499Y-67449445D03*
D23*
%TO.N,unconnected-(SW20-Pad3)_5*%
X69715500Y-65405000D03*
D24*
%TO.N,unconnected-(SW20-Pad3)_4*%
X69715500Y-69469000D03*
D13*
%TO.N,unconnected-(SW20-Pad3)_2*%
X70086500Y-70475000D03*
D25*
%TO.N,unconnected-(SW20-Pad3)_7*%
X70096500Y-58725000D03*
D10*
%TO.N,unconnected-(SW20-Pad3)_17*%
X70096500Y-64135000D03*
D26*
%TO.N,unconnected-(SW20-Pad3)_11*%
X70586500Y-59225000D03*
D12*
%TO.N,unconnected-(SW20-Pad3)*%
X71286500Y-62875000D03*
D27*
%TO.N,unconnected-(SW20-Pad3)_20*%
X71288000Y-61155025D03*
D18*
%TO.N,unconnected-(SW20-Pad3)_15*%
X71506500Y-70875000D03*
%TD*%
D10*
%TO.P,SW9,1,1*%
%TO.N,/ROW 1*%
X68509000Y-23495000D03*
D11*
X69749000Y-23100000D03*
D12*
X71049000Y-22675000D03*
D13*
X71049000Y-35075000D03*
D14*
X72249000Y-23100000D03*
D10*
X73589000Y-23495000D03*
D15*
%TO.P,SW9,2,2*%
%TO.N,/COL 2*%
X67239000Y-20625000D03*
D16*
X68449000Y-20625000D03*
D17*
X69399000Y-20625000D03*
D18*
%TO.P,SW9,3,3*%
%TO.N,unconnected-(SW9-Pad3)_6*%
X65829000Y-32775000D03*
D12*
%TO.N,unconnected-(SW9-Pad3)*%
X66049000Y-24775000D03*
D10*
%TO.N,unconnected-(SW9-Pad3)_13*%
X67239000Y-26035000D03*
D13*
%TO.N,unconnected-(SW9-Pad3)_16*%
X67249000Y-32375000D03*
D19*
%TO.N,unconnected-(SW9-Pad3)_5*%
X67620000Y-27305000D03*
D20*
%TO.N,unconnected-(SW9-Pad3)_21*%
X67620000Y-31369000D03*
D21*
%TO.N,unconnected-(SW9-Pad3)_20*%
X67874001Y-29349445D03*
D22*
%TO.N,unconnected-(SW9-Pad3)_7*%
X71048998Y-32385000D03*
D17*
%TO.N,unconnected-(SW9-Pad3)_4*%
X72699000Y-20625000D03*
D16*
%TO.N,unconnected-(SW9-Pad3)_8*%
X73549000Y-20625000D03*
D21*
%TO.N,unconnected-(SW9-Pad3)_17*%
X74223999Y-29349445D03*
D23*
%TO.N,unconnected-(SW9-Pad3)_9*%
X74478000Y-27305000D03*
D24*
%TO.N,unconnected-(SW9-Pad3)_18*%
X74478000Y-31369000D03*
D13*
%TO.N,unconnected-(SW9-Pad3)_15*%
X74849000Y-32375000D03*
D25*
%TO.N,unconnected-(SW9-Pad3)_14*%
X74859000Y-20625000D03*
D10*
%TO.N,unconnected-(SW9-Pad3)_3*%
X74859000Y-26035000D03*
D26*
%TO.N,unconnected-(SW9-Pad3)_1*%
X75349000Y-21125000D03*
D12*
%TO.N,unconnected-(SW9-Pad3)_12*%
X76049000Y-24775000D03*
D27*
%TO.N,unconnected-(SW9-Pad3)_2*%
X76050500Y-23055025D03*
D18*
%TO.N,unconnected-(SW9-Pad3)_11*%
X76269000Y-32775000D03*
%TD*%
D10*
%TO.P,SW29,1,1*%
%TO.N,/ROW 4*%
X130421500Y-80645000D03*
D11*
X131661500Y-80250000D03*
D12*
X132961500Y-79825000D03*
D13*
X132961500Y-92225000D03*
D14*
X134161500Y-80250000D03*
D10*
X135501500Y-80645000D03*
D15*
%TO.P,SW29,2,2*%
%TO.N,/COL 4*%
X129151500Y-77775000D03*
D16*
X130361500Y-77775000D03*
D17*
X131311500Y-77775000D03*
D18*
%TO.P,SW29,3,3*%
%TO.N,unconnected-(SW29-Pad3)_2*%
X127741500Y-89925000D03*
D12*
%TO.N,unconnected-(SW29-Pad3)_16*%
X127961500Y-81925000D03*
D10*
%TO.N,unconnected-(SW29-Pad3)_21*%
X129151500Y-83185000D03*
D13*
%TO.N,unconnected-(SW29-Pad3)_11*%
X129161500Y-89525000D03*
D19*
%TO.N,unconnected-(SW29-Pad3)_14*%
X129532500Y-84455000D03*
D20*
%TO.N,unconnected-(SW29-Pad3)_17*%
X129532500Y-88519000D03*
D21*
%TO.N,unconnected-(SW29-Pad3)_9*%
X129786501Y-86499445D03*
D22*
%TO.N,unconnected-(SW29-Pad3)*%
X132961498Y-89535000D03*
D17*
%TO.N,unconnected-(SW29-Pad3)_15*%
X134611500Y-77775000D03*
D16*
%TO.N,unconnected-(SW29-Pad3)_1*%
X135461500Y-77775000D03*
D21*
%TO.N,unconnected-(SW29-Pad3)_10*%
X136136499Y-86499445D03*
D23*
%TO.N,unconnected-(SW29-Pad3)_6*%
X136390500Y-84455000D03*
D24*
%TO.N,unconnected-(SW29-Pad3)_18*%
X136390500Y-88519000D03*
D13*
%TO.N,unconnected-(SW29-Pad3)_20*%
X136761500Y-89525000D03*
D25*
%TO.N,unconnected-(SW29-Pad3)_3*%
X136771500Y-77775000D03*
D10*
%TO.N,unconnected-(SW29-Pad3)_7*%
X136771500Y-83185000D03*
D26*
%TO.N,unconnected-(SW29-Pad3)_5*%
X137261500Y-78275000D03*
D12*
%TO.N,unconnected-(SW29-Pad3)_12*%
X137961500Y-81925000D03*
D27*
%TO.N,unconnected-(SW29-Pad3)_19*%
X137963000Y-80205025D03*
D18*
%TO.N,unconnected-(SW29-Pad3)_8*%
X138181500Y-89925000D03*
%TD*%
D10*
%TO.P,SW18,1,1*%
%TO.N,/ROW 2*%
X135184000Y-42545000D03*
D11*
X136424000Y-42150000D03*
D12*
X137724000Y-41725000D03*
D13*
X137724000Y-54125000D03*
D14*
X138924000Y-42150000D03*
D10*
X140264000Y-42545000D03*
D15*
%TO.P,SW18,2,2*%
%TO.N,/COL 5*%
X133914000Y-39675000D03*
D16*
X135124000Y-39675000D03*
D17*
X136074000Y-39675000D03*
D18*
%TO.P,SW18,3,3*%
%TO.N,unconnected-(SW18-Pad3)_18*%
X132504000Y-51825000D03*
D12*
%TO.N,unconnected-(SW18-Pad3)*%
X132724000Y-43825000D03*
D10*
%TO.N,unconnected-(SW18-Pad3)_14*%
X133914000Y-45085000D03*
D13*
%TO.N,unconnected-(SW18-Pad3)_10*%
X133924000Y-51425000D03*
D19*
%TO.N,unconnected-(SW18-Pad3)_5*%
X134295000Y-46355000D03*
D20*
%TO.N,unconnected-(SW18-Pad3)_6*%
X134295000Y-50419000D03*
D21*
%TO.N,unconnected-(SW18-Pad3)_7*%
X134549001Y-48399445D03*
D22*
%TO.N,unconnected-(SW18-Pad3)_1*%
X137723998Y-51435000D03*
D17*
%TO.N,unconnected-(SW18-Pad3)_13*%
X139374000Y-39675000D03*
D16*
%TO.N,unconnected-(SW18-Pad3)_8*%
X140224000Y-39675000D03*
D21*
%TO.N,unconnected-(SW18-Pad3)_4*%
X140898999Y-48399445D03*
D23*
%TO.N,unconnected-(SW18-Pad3)_12*%
X141153000Y-46355000D03*
D24*
%TO.N,unconnected-(SW18-Pad3)_20*%
X141153000Y-50419000D03*
D13*
%TO.N,unconnected-(SW18-Pad3)_19*%
X141524000Y-51425000D03*
D25*
%TO.N,unconnected-(SW18-Pad3)_21*%
X141534000Y-39675000D03*
D10*
%TO.N,unconnected-(SW18-Pad3)_3*%
X141534000Y-45085000D03*
D26*
%TO.N,unconnected-(SW18-Pad3)_15*%
X142024000Y-40175000D03*
D12*
%TO.N,unconnected-(SW18-Pad3)_2*%
X142724000Y-43825000D03*
D27*
%TO.N,unconnected-(SW18-Pad3)_16*%
X142725500Y-42105025D03*
D18*
%TO.N,unconnected-(SW18-Pad3)_11*%
X142944000Y-51825000D03*
%TD*%
D10*
%TO.P,SW21,1,1*%
%TO.N,/ROW 3*%
X82796500Y-61595000D03*
D11*
X84036500Y-61200000D03*
D12*
X85336500Y-60775000D03*
D13*
X85336500Y-73175000D03*
D14*
X86536500Y-61200000D03*
D10*
X87876500Y-61595000D03*
D15*
%TO.P,SW21,2,2*%
%TO.N,/COL 2*%
X81526500Y-58725000D03*
D16*
X82736500Y-58725000D03*
D17*
X83686500Y-58725000D03*
D18*
%TO.P,SW21,3,3*%
%TO.N,unconnected-(SW21-Pad3)_1*%
X80116500Y-70875000D03*
D12*
%TO.N,unconnected-(SW21-Pad3)_14*%
X80336500Y-62875000D03*
D10*
%TO.N,unconnected-(SW21-Pad3)_19*%
X81526500Y-64135000D03*
D13*
%TO.N,unconnected-(SW21-Pad3)_15*%
X81536500Y-70475000D03*
D19*
%TO.N,unconnected-(SW21-Pad3)_3*%
X81907500Y-65405000D03*
D20*
%TO.N,unconnected-(SW21-Pad3)_12*%
X81907500Y-69469000D03*
D21*
%TO.N,unconnected-(SW21-Pad3)_16*%
X82161501Y-67449445D03*
D22*
%TO.N,unconnected-(SW21-Pad3)_5*%
X85336498Y-70485000D03*
D17*
%TO.N,unconnected-(SW21-Pad3)_8*%
X86986500Y-58725000D03*
D16*
%TO.N,unconnected-(SW21-Pad3)*%
X87836500Y-58725000D03*
D21*
%TO.N,unconnected-(SW21-Pad3)_7*%
X88511499Y-67449445D03*
D23*
%TO.N,unconnected-(SW21-Pad3)_17*%
X88765500Y-65405000D03*
D24*
%TO.N,unconnected-(SW21-Pad3)_6*%
X88765500Y-69469000D03*
D13*
%TO.N,unconnected-(SW21-Pad3)_21*%
X89136500Y-70475000D03*
D25*
%TO.N,unconnected-(SW21-Pad3)_20*%
X89146500Y-58725000D03*
D10*
%TO.N,unconnected-(SW21-Pad3)_10*%
X89146500Y-64135000D03*
D26*
%TO.N,unconnected-(SW21-Pad3)_2*%
X89636500Y-59225000D03*
D12*
%TO.N,unconnected-(SW21-Pad3)_11*%
X90336500Y-62875000D03*
D27*
%TO.N,unconnected-(SW21-Pad3)_9*%
X90338000Y-61155025D03*
D18*
%TO.N,unconnected-(SW21-Pad3)_18*%
X90556500Y-70875000D03*
%TD*%
D28*
%TO.P,J2,1,Pin_1*%
%TO.N,GND*%
X10500000Y-41500000D03*
%TD*%
D10*
%TO.P,SW3,1,1*%
%TO.N,/ROW 0*%
X68509000Y-4445000D03*
D11*
X69749000Y-4050000D03*
D12*
X71049000Y-3625000D03*
D13*
X71049000Y-16025000D03*
D14*
X72249000Y-4050000D03*
D10*
X73589000Y-4445000D03*
D15*
%TO.P,SW3,2,2*%
%TO.N,/COL 2*%
X67239000Y-1575000D03*
D16*
X68449000Y-1575000D03*
D17*
X69399000Y-1575000D03*
D18*
%TO.P,SW3,3,3*%
%TO.N,unconnected-(SW3-Pad3)_18*%
X65829000Y-13725000D03*
D12*
%TO.N,unconnected-(SW3-Pad3)_9*%
X66049000Y-5725000D03*
D10*
%TO.N,unconnected-(SW3-Pad3)*%
X67239000Y-6985000D03*
D13*
%TO.N,unconnected-(SW3-Pad3)_2*%
X67249000Y-13325000D03*
D19*
%TO.N,unconnected-(SW3-Pad3)_13*%
X67620000Y-8255000D03*
D20*
%TO.N,unconnected-(SW3-Pad3)_14*%
X67620000Y-12319000D03*
D21*
%TO.N,unconnected-(SW3-Pad3)_7*%
X67874001Y-10299445D03*
D22*
%TO.N,unconnected-(SW3-Pad3)_16*%
X71048998Y-13335000D03*
D17*
%TO.N,unconnected-(SW3-Pad3)_1*%
X72699000Y-1575000D03*
D16*
%TO.N,unconnected-(SW3-Pad3)_6*%
X73549000Y-1575000D03*
D21*
%TO.N,unconnected-(SW3-Pad3)_17*%
X74223999Y-10299445D03*
D23*
%TO.N,unconnected-(SW3-Pad3)_21*%
X74478000Y-8255000D03*
D24*
%TO.N,unconnected-(SW3-Pad3)_15*%
X74478000Y-12319000D03*
D13*
%TO.N,unconnected-(SW3-Pad3)_4*%
X74849000Y-13325000D03*
D25*
%TO.N,unconnected-(SW3-Pad3)_12*%
X74859000Y-1575000D03*
D10*
%TO.N,unconnected-(SW3-Pad3)_11*%
X74859000Y-6985000D03*
D26*
%TO.N,unconnected-(SW3-Pad3)_20*%
X75349000Y-2075000D03*
D12*
%TO.N,unconnected-(SW3-Pad3)_3*%
X76049000Y-5725000D03*
D27*
%TO.N,unconnected-(SW3-Pad3)_8*%
X76050500Y-4005025D03*
D18*
%TO.N,unconnected-(SW3-Pad3)_19*%
X76269000Y-13725000D03*
%TD*%
D10*
%TO.P,SW34,1,1*%
%TO.N,/ROW 5*%
X130421500Y-99695000D03*
D11*
X131661500Y-99300000D03*
D12*
X132961500Y-98875000D03*
D13*
X132961500Y-111275000D03*
D14*
X134161500Y-99300000D03*
D10*
X135501500Y-99695000D03*
D15*
%TO.P,SW34,2,2*%
%TO.N,/COL 4*%
X129151500Y-96825000D03*
D16*
X130361500Y-96825000D03*
D17*
X131311500Y-96825000D03*
D18*
%TO.P,SW34,3,3*%
%TO.N,unconnected-(SW34-Pad3)*%
X127741500Y-108975000D03*
D12*
%TO.N,unconnected-(SW34-Pad3)_15*%
X127961500Y-100975000D03*
D10*
%TO.N,unconnected-(SW34-Pad3)_21*%
X129151500Y-102235000D03*
D13*
%TO.N,unconnected-(SW34-Pad3)_8*%
X129161500Y-108575000D03*
D19*
%TO.N,unconnected-(SW34-Pad3)_20*%
X129532500Y-103505000D03*
D20*
%TO.N,unconnected-(SW34-Pad3)_11*%
X129532500Y-107569000D03*
D21*
%TO.N,unconnected-(SW34-Pad3)_19*%
X129786501Y-105549445D03*
D22*
%TO.N,unconnected-(SW34-Pad3)_3*%
X132961498Y-108585000D03*
D17*
%TO.N,unconnected-(SW34-Pad3)_10*%
X134611500Y-96825000D03*
D16*
%TO.N,unconnected-(SW34-Pad3)_9*%
X135461500Y-96825000D03*
D21*
%TO.N,unconnected-(SW34-Pad3)_1*%
X136136499Y-105549445D03*
D23*
%TO.N,unconnected-(SW34-Pad3)_2*%
X136390500Y-103505000D03*
D24*
%TO.N,unconnected-(SW34-Pad3)_5*%
X136390500Y-107569000D03*
D13*
%TO.N,unconnected-(SW34-Pad3)_4*%
X136761500Y-108575000D03*
D25*
%TO.N,unconnected-(SW34-Pad3)_14*%
X136771500Y-96825000D03*
D10*
%TO.N,unconnected-(SW34-Pad3)_6*%
X136771500Y-102235000D03*
D26*
%TO.N,unconnected-(SW34-Pad3)_17*%
X137261500Y-97325000D03*
D12*
%TO.N,unconnected-(SW34-Pad3)_18*%
X137961500Y-100975000D03*
D27*
%TO.N,unconnected-(SW34-Pad3)_7*%
X137963000Y-99255025D03*
D18*
%TO.N,unconnected-(SW34-Pad3)_16*%
X138181500Y-108975000D03*
%TD*%
D10*
%TO.P,SW14,1,1*%
%TO.N,/ROW 2*%
X58984000Y-42545000D03*
D11*
X60224000Y-42150000D03*
D12*
X61524000Y-41725000D03*
D13*
X61524000Y-54125000D03*
D14*
X62724000Y-42150000D03*
D10*
X64064000Y-42545000D03*
D15*
%TO.P,SW14,2,2*%
%TO.N,/COL 1*%
X57714000Y-39675000D03*
D16*
X58924000Y-39675000D03*
D17*
X59874000Y-39675000D03*
D18*
%TO.P,SW14,3,3*%
%TO.N,unconnected-(SW14-Pad3)_7*%
X56304000Y-51825000D03*
D12*
%TO.N,unconnected-(SW14-Pad3)_21*%
X56524000Y-43825000D03*
D10*
%TO.N,unconnected-(SW14-Pad3)_3*%
X57714000Y-45085000D03*
D13*
%TO.N,unconnected-(SW14-Pad3)_17*%
X57724000Y-51425000D03*
D19*
%TO.N,unconnected-(SW14-Pad3)_15*%
X58095000Y-46355000D03*
D20*
%TO.N,unconnected-(SW14-Pad3)_20*%
X58095000Y-50419000D03*
D21*
%TO.N,unconnected-(SW14-Pad3)_1*%
X58349001Y-48399445D03*
D22*
%TO.N,unconnected-(SW14-Pad3)_19*%
X61523998Y-51435000D03*
D17*
%TO.N,unconnected-(SW14-Pad3)_10*%
X63174000Y-39675000D03*
D16*
%TO.N,unconnected-(SW14-Pad3)_13*%
X64024000Y-39675000D03*
D21*
%TO.N,unconnected-(SW14-Pad3)_18*%
X64698999Y-48399445D03*
D23*
%TO.N,unconnected-(SW14-Pad3)_6*%
X64953000Y-46355000D03*
D24*
%TO.N,unconnected-(SW14-Pad3)_4*%
X64953000Y-50419000D03*
D13*
%TO.N,unconnected-(SW14-Pad3)_11*%
X65324000Y-51425000D03*
D25*
%TO.N,unconnected-(SW14-Pad3)_2*%
X65334000Y-39675000D03*
D10*
%TO.N,unconnected-(SW14-Pad3)_9*%
X65334000Y-45085000D03*
D26*
%TO.N,unconnected-(SW14-Pad3)_16*%
X65824000Y-40175000D03*
D12*
%TO.N,unconnected-(SW14-Pad3)_8*%
X66524000Y-43825000D03*
D27*
%TO.N,unconnected-(SW14-Pad3)_5*%
X66525500Y-42105025D03*
D18*
%TO.N,unconnected-(SW14-Pad3)*%
X66744000Y-51825000D03*
%TD*%
D10*
%TO.P,SW10,1,1*%
%TO.N,/ROW 1*%
X87559000Y-23495000D03*
D11*
X88799000Y-23100000D03*
D12*
X90099000Y-22675000D03*
D13*
X90099000Y-35075000D03*
D14*
X91299000Y-23100000D03*
D10*
X92639000Y-23495000D03*
D15*
%TO.P,SW10,2,2*%
%TO.N,/COL 3*%
X86289000Y-20625000D03*
D16*
X87499000Y-20625000D03*
D17*
X88449000Y-20625000D03*
D18*
%TO.P,SW10,3,3*%
%TO.N,unconnected-(SW10-Pad3)*%
X84879000Y-32775000D03*
D12*
%TO.N,unconnected-(SW10-Pad3)_17*%
X85099000Y-24775000D03*
D10*
%TO.N,unconnected-(SW10-Pad3)_16*%
X86289000Y-26035000D03*
D13*
%TO.N,unconnected-(SW10-Pad3)_19*%
X86299000Y-32375000D03*
D19*
%TO.N,unconnected-(SW10-Pad3)_2*%
X86670000Y-27305000D03*
D20*
%TO.N,unconnected-(SW10-Pad3)_18*%
X86670000Y-31369000D03*
D21*
%TO.N,unconnected-(SW10-Pad3)_20*%
X86924001Y-29349445D03*
D22*
%TO.N,unconnected-(SW10-Pad3)_8*%
X90098998Y-32385000D03*
D17*
%TO.N,unconnected-(SW10-Pad3)_3*%
X91749000Y-20625000D03*
D16*
%TO.N,unconnected-(SW10-Pad3)_7*%
X92599000Y-20625000D03*
D21*
%TO.N,unconnected-(SW10-Pad3)_1*%
X93273999Y-29349445D03*
D23*
%TO.N,unconnected-(SW10-Pad3)_12*%
X93528000Y-27305000D03*
D24*
%TO.N,unconnected-(SW10-Pad3)_15*%
X93528000Y-31369000D03*
D13*
%TO.N,unconnected-(SW10-Pad3)_9*%
X93899000Y-32375000D03*
D25*
%TO.N,unconnected-(SW10-Pad3)_13*%
X93909000Y-20625000D03*
D10*
%TO.N,unconnected-(SW10-Pad3)_14*%
X93909000Y-26035000D03*
D26*
%TO.N,unconnected-(SW10-Pad3)_4*%
X94399000Y-21125000D03*
D12*
%TO.N,unconnected-(SW10-Pad3)_11*%
X95099000Y-24775000D03*
D27*
%TO.N,unconnected-(SW10-Pad3)_10*%
X95100500Y-23055025D03*
D18*
%TO.N,unconnected-(SW10-Pad3)_21*%
X95319000Y-32775000D03*
%TD*%
D10*
%TO.P,SW15,1,1*%
%TO.N,/ROW 2*%
X78034000Y-42545000D03*
D11*
X79274000Y-42150000D03*
D12*
X80574000Y-41725000D03*
D13*
X80574000Y-54125000D03*
D14*
X81774000Y-42150000D03*
D10*
X83114000Y-42545000D03*
D15*
%TO.P,SW15,2,2*%
%TO.N,/COL 2*%
X76764000Y-39675000D03*
D16*
X77974000Y-39675000D03*
D17*
X78924000Y-39675000D03*
D18*
%TO.P,SW15,3,3*%
%TO.N,unconnected-(SW15-Pad3)_10*%
X75354000Y-51825000D03*
D12*
%TO.N,unconnected-(SW15-Pad3)_9*%
X75574000Y-43825000D03*
D10*
%TO.N,unconnected-(SW15-Pad3)_11*%
X76764000Y-45085000D03*
D13*
%TO.N,unconnected-(SW15-Pad3)_2*%
X76774000Y-51425000D03*
D19*
%TO.N,unconnected-(SW15-Pad3)_19*%
X77145000Y-46355000D03*
D20*
%TO.N,unconnected-(SW15-Pad3)_21*%
X77145000Y-50419000D03*
D21*
%TO.N,unconnected-(SW15-Pad3)*%
X77399001Y-48399445D03*
D22*
%TO.N,unconnected-(SW15-Pad3)_17*%
X80573998Y-51435000D03*
D17*
%TO.N,unconnected-(SW15-Pad3)_4*%
X82224000Y-39675000D03*
D16*
%TO.N,unconnected-(SW15-Pad3)_12*%
X83074000Y-39675000D03*
D21*
%TO.N,unconnected-(SW15-Pad3)_15*%
X83748999Y-48399445D03*
D23*
%TO.N,unconnected-(SW15-Pad3)_16*%
X84003000Y-46355000D03*
D24*
%TO.N,unconnected-(SW15-Pad3)_20*%
X84003000Y-50419000D03*
D13*
%TO.N,unconnected-(SW15-Pad3)_3*%
X84374000Y-51425000D03*
D25*
%TO.N,unconnected-(SW15-Pad3)_13*%
X84384000Y-39675000D03*
D10*
%TO.N,unconnected-(SW15-Pad3)_14*%
X84384000Y-45085000D03*
D26*
%TO.N,unconnected-(SW15-Pad3)_8*%
X84874000Y-40175000D03*
D12*
%TO.N,unconnected-(SW15-Pad3)_6*%
X85574000Y-43825000D03*
D27*
%TO.N,unconnected-(SW15-Pad3)_5*%
X85575500Y-42105025D03*
D18*
%TO.N,unconnected-(SW15-Pad3)_1*%
X85794000Y-51825000D03*
%TD*%
D10*
%TO.P,SW27,1,1*%
%TO.N,/ROW 4*%
X92321500Y-80645000D03*
D11*
X93561500Y-80250000D03*
D12*
X94861500Y-79825000D03*
D13*
X94861500Y-92225000D03*
D14*
X96061500Y-80250000D03*
D10*
X97401500Y-80645000D03*
D15*
%TO.P,SW27,2,2*%
%TO.N,/COL 2*%
X91051500Y-77775000D03*
D16*
X92261500Y-77775000D03*
D17*
X93211500Y-77775000D03*
D18*
%TO.P,SW27,3,3*%
%TO.N,unconnected-(SW27-Pad3)_17*%
X89641500Y-89925000D03*
D12*
%TO.N,unconnected-(SW27-Pad3)_4*%
X89861500Y-81925000D03*
D10*
%TO.N,unconnected-(SW27-Pad3)_3*%
X91051500Y-83185000D03*
D13*
%TO.N,unconnected-(SW27-Pad3)_20*%
X91061500Y-89525000D03*
D19*
%TO.N,unconnected-(SW27-Pad3)*%
X91432500Y-84455000D03*
D20*
%TO.N,unconnected-(SW27-Pad3)_9*%
X91432500Y-88519000D03*
D21*
%TO.N,unconnected-(SW27-Pad3)_19*%
X91686501Y-86499445D03*
D22*
%TO.N,unconnected-(SW27-Pad3)_10*%
X94861498Y-89535000D03*
D17*
%TO.N,unconnected-(SW27-Pad3)_1*%
X96511500Y-77775000D03*
D16*
%TO.N,unconnected-(SW27-Pad3)_14*%
X97361500Y-77775000D03*
D21*
%TO.N,unconnected-(SW27-Pad3)_7*%
X98036499Y-86499445D03*
D23*
%TO.N,unconnected-(SW27-Pad3)_5*%
X98290500Y-84455000D03*
D24*
%TO.N,unconnected-(SW27-Pad3)_13*%
X98290500Y-88519000D03*
D13*
%TO.N,unconnected-(SW27-Pad3)_15*%
X98661500Y-89525000D03*
D25*
%TO.N,unconnected-(SW27-Pad3)_2*%
X98671500Y-77775000D03*
D10*
%TO.N,unconnected-(SW27-Pad3)_11*%
X98671500Y-83185000D03*
D26*
%TO.N,unconnected-(SW27-Pad3)_16*%
X99161500Y-78275000D03*
D12*
%TO.N,unconnected-(SW27-Pad3)_12*%
X99861500Y-81925000D03*
D27*
%TO.N,unconnected-(SW27-Pad3)_21*%
X99863000Y-80205025D03*
D18*
%TO.N,unconnected-(SW27-Pad3)_6*%
X100081500Y-89925000D03*
%TD*%
D10*
%TO.P,SW8,1,1*%
%TO.N,/ROW 1*%
X49459000Y-23495000D03*
D11*
X50699000Y-23100000D03*
D12*
X51999000Y-22675000D03*
D13*
X51999000Y-35075000D03*
D14*
X53199000Y-23100000D03*
D10*
X54539000Y-23495000D03*
D15*
%TO.P,SW8,2,2*%
%TO.N,/COL 1*%
X48189000Y-20625000D03*
D16*
X49399000Y-20625000D03*
D17*
X50349000Y-20625000D03*
D18*
%TO.P,SW8,3,3*%
%TO.N,unconnected-(SW8-Pad3)_11*%
X46779000Y-32775000D03*
D12*
%TO.N,unconnected-(SW8-Pad3)_13*%
X46999000Y-24775000D03*
D10*
%TO.N,unconnected-(SW8-Pad3)*%
X48189000Y-26035000D03*
D13*
%TO.N,unconnected-(SW8-Pad3)_5*%
X48199000Y-32375000D03*
D19*
%TO.N,unconnected-(SW8-Pad3)_1*%
X48570000Y-27305000D03*
D20*
%TO.N,unconnected-(SW8-Pad3)_2*%
X48570000Y-31369000D03*
D21*
%TO.N,unconnected-(SW8-Pad3)_6*%
X48824001Y-29349445D03*
D22*
%TO.N,unconnected-(SW8-Pad3)_4*%
X51998998Y-32385000D03*
D17*
%TO.N,unconnected-(SW8-Pad3)_21*%
X53649000Y-20625000D03*
D16*
%TO.N,unconnected-(SW8-Pad3)_18*%
X54499000Y-20625000D03*
D21*
%TO.N,unconnected-(SW8-Pad3)_20*%
X55173999Y-29349445D03*
D23*
%TO.N,unconnected-(SW8-Pad3)_8*%
X55428000Y-27305000D03*
D24*
%TO.N,unconnected-(SW8-Pad3)_16*%
X55428000Y-31369000D03*
D13*
%TO.N,unconnected-(SW8-Pad3)_14*%
X55799000Y-32375000D03*
D25*
%TO.N,unconnected-(SW8-Pad3)_3*%
X55809000Y-20625000D03*
D10*
%TO.N,unconnected-(SW8-Pad3)_7*%
X55809000Y-26035000D03*
D26*
%TO.N,unconnected-(SW8-Pad3)_10*%
X56299000Y-21125000D03*
D12*
%TO.N,unconnected-(SW8-Pad3)_15*%
X56999000Y-24775000D03*
D27*
%TO.N,unconnected-(SW8-Pad3)_9*%
X57000500Y-23055025D03*
D18*
%TO.N,unconnected-(SW8-Pad3)_19*%
X57219000Y-32775000D03*
%TD*%
D10*
%TO.P,SW33,1,1*%
%TO.N,/ROW 5*%
X99465250Y-99695000D03*
D11*
X100705250Y-99300000D03*
D12*
X102005250Y-98875000D03*
D13*
X102005250Y-111275000D03*
D14*
X103205250Y-99300000D03*
D10*
X104545250Y-99695000D03*
D15*
%TO.P,SW33,2,2*%
%TO.N,/COL 3*%
X98195250Y-96825000D03*
D16*
X99405250Y-96825000D03*
D17*
X100355250Y-96825000D03*
D18*
%TO.P,SW33,3,3*%
%TO.N,unconnected-(SW33-Pad3)_21*%
X96785250Y-108975000D03*
D12*
%TO.N,unconnected-(SW33-Pad3)_3*%
X97005250Y-100975000D03*
D10*
%TO.N,unconnected-(SW33-Pad3)_2*%
X98195250Y-102235000D03*
D13*
%TO.N,unconnected-(SW33-Pad3)_12*%
X98205250Y-108575000D03*
D19*
%TO.N,unconnected-(SW33-Pad3)_11*%
X98576250Y-103505000D03*
D20*
%TO.N,unconnected-(SW33-Pad3)_5*%
X98576250Y-107569000D03*
D21*
%TO.N,unconnected-(SW33-Pad3)_13*%
X98830251Y-105549445D03*
D22*
%TO.N,unconnected-(SW33-Pad3)_10*%
X102005248Y-108585000D03*
D17*
%TO.N,unconnected-(SW33-Pad3)_9*%
X103655250Y-96825000D03*
D16*
%TO.N,unconnected-(SW33-Pad3)_15*%
X104505250Y-96825000D03*
D21*
%TO.N,unconnected-(SW33-Pad3)_6*%
X105180249Y-105549445D03*
D23*
%TO.N,unconnected-(SW33-Pad3)_17*%
X105434250Y-103505000D03*
D24*
%TO.N,unconnected-(SW33-Pad3)_16*%
X105434250Y-107569000D03*
D13*
%TO.N,unconnected-(SW33-Pad3)_20*%
X105805250Y-108575000D03*
D25*
%TO.N,unconnected-(SW33-Pad3)_8*%
X105815250Y-96825000D03*
D10*
%TO.N,unconnected-(SW33-Pad3)_7*%
X105815250Y-102235000D03*
D26*
%TO.N,unconnected-(SW33-Pad3)_4*%
X106305250Y-97325000D03*
D12*
%TO.N,unconnected-(SW33-Pad3)_1*%
X107005250Y-100975000D03*
D27*
%TO.N,unconnected-(SW33-Pad3)_14*%
X107006750Y-99255025D03*
D18*
%TO.N,unconnected-(SW33-Pad3)*%
X107225250Y-108975000D03*
%TD*%
D10*
%TO.P,SW30,1,1*%
%TO.N,/ROW 5*%
X30409000Y-99695000D03*
D11*
X31649000Y-99300000D03*
D12*
X32949000Y-98875000D03*
D13*
X32949000Y-111275000D03*
D14*
X34149000Y-99300000D03*
D10*
X35489000Y-99695000D03*
D15*
%TO.P,SW30,2,2*%
%TO.N,/COL 0*%
X29139000Y-96825000D03*
D16*
X30349000Y-96825000D03*
D17*
X31299000Y-96825000D03*
D18*
%TO.P,SW30,3,3*%
%TO.N,unconnected-(SW30-Pad3)_15*%
X27729000Y-108975000D03*
D12*
%TO.N,unconnected-(SW30-Pad3)*%
X27949000Y-100975000D03*
D10*
%TO.N,unconnected-(SW30-Pad3)_19*%
X29139000Y-102235000D03*
D13*
%TO.N,unconnected-(SW30-Pad3)_8*%
X29149000Y-108575000D03*
D19*
%TO.N,unconnected-(SW30-Pad3)_17*%
X29520000Y-103505000D03*
D20*
%TO.N,unconnected-(SW30-Pad3)_2*%
X29520000Y-107569000D03*
D21*
%TO.N,unconnected-(SW30-Pad3)_6*%
X29774001Y-105549445D03*
D22*
%TO.N,unconnected-(SW30-Pad3)_1*%
X32948998Y-108585000D03*
D17*
%TO.N,unconnected-(SW30-Pad3)_16*%
X34599000Y-96825000D03*
D16*
%TO.N,unconnected-(SW30-Pad3)_3*%
X35449000Y-96825000D03*
D21*
%TO.N,unconnected-(SW30-Pad3)_13*%
X36123999Y-105549445D03*
D23*
%TO.N,unconnected-(SW30-Pad3)_20*%
X36378000Y-103505000D03*
D24*
%TO.N,unconnected-(SW30-Pad3)_9*%
X36378000Y-107569000D03*
D13*
%TO.N,unconnected-(SW30-Pad3)_18*%
X36749000Y-108575000D03*
D25*
%TO.N,unconnected-(SW30-Pad3)_4*%
X36759000Y-96825000D03*
D10*
%TO.N,unconnected-(SW30-Pad3)_12*%
X36759000Y-102235000D03*
D26*
%TO.N,unconnected-(SW30-Pad3)_5*%
X37249000Y-97325000D03*
D12*
%TO.N,unconnected-(SW30-Pad3)_14*%
X37949000Y-100975000D03*
D27*
%TO.N,unconnected-(SW30-Pad3)_10*%
X37950500Y-99255025D03*
D18*
%TO.N,unconnected-(SW30-Pad3)_21*%
X38169000Y-108975000D03*
%TD*%
D10*
%TO.P,SW4,1,1*%
%TO.N,/ROW 0*%
X87559000Y-4445000D03*
D11*
X88799000Y-4050000D03*
D12*
X90099000Y-3625000D03*
D13*
X90099000Y-16025000D03*
D14*
X91299000Y-4050000D03*
D10*
X92639000Y-4445000D03*
D15*
%TO.P,SW4,2,2*%
%TO.N,/COL 3*%
X86289000Y-1575000D03*
D16*
X87499000Y-1575000D03*
D17*
X88449000Y-1575000D03*
D18*
%TO.P,SW4,3,3*%
%TO.N,unconnected-(SW4-Pad3)*%
X84879000Y-13725000D03*
D12*
%TO.N,unconnected-(SW4-Pad3)_15*%
X85099000Y-5725000D03*
D10*
%TO.N,unconnected-(SW4-Pad3)_4*%
X86289000Y-6985000D03*
D13*
%TO.N,unconnected-(SW4-Pad3)_13*%
X86299000Y-13325000D03*
D19*
%TO.N,unconnected-(SW4-Pad3)_2*%
X86670000Y-8255000D03*
D20*
%TO.N,unconnected-(SW4-Pad3)_16*%
X86670000Y-12319000D03*
D21*
%TO.N,unconnected-(SW4-Pad3)_10*%
X86924001Y-10299445D03*
D22*
%TO.N,unconnected-(SW4-Pad3)_12*%
X90098998Y-13335000D03*
D17*
%TO.N,unconnected-(SW4-Pad3)_9*%
X91749000Y-1575000D03*
D16*
%TO.N,unconnected-(SW4-Pad3)_6*%
X92599000Y-1575000D03*
D21*
%TO.N,unconnected-(SW4-Pad3)_11*%
X93273999Y-10299445D03*
D23*
%TO.N,unconnected-(SW4-Pad3)_19*%
X93528000Y-8255000D03*
D24*
%TO.N,unconnected-(SW4-Pad3)_20*%
X93528000Y-12319000D03*
D13*
%TO.N,unconnected-(SW4-Pad3)_17*%
X93899000Y-13325000D03*
D25*
%TO.N,unconnected-(SW4-Pad3)_8*%
X93909000Y-1575000D03*
D10*
%TO.N,unconnected-(SW4-Pad3)_1*%
X93909000Y-6985000D03*
D26*
%TO.N,unconnected-(SW4-Pad3)_5*%
X94399000Y-2075000D03*
D12*
%TO.N,unconnected-(SW4-Pad3)_21*%
X95099000Y-5725000D03*
D27*
%TO.N,unconnected-(SW4-Pad3)_3*%
X95100500Y-4005025D03*
D18*
%TO.N,unconnected-(SW4-Pad3)_18*%
X95319000Y-13725000D03*
%TD*%
D10*
%TO.P,SW25,1,1*%
%TO.N,/ROW 4*%
X42315250Y-80645000D03*
D11*
X43555250Y-80250000D03*
D12*
X44855250Y-79825000D03*
D13*
X44855250Y-92225000D03*
D14*
X46055250Y-80250000D03*
D10*
X47395250Y-80645000D03*
D15*
%TO.P,SW25,2,2*%
%TO.N,/COL 0*%
X41045250Y-77775000D03*
D16*
X42255250Y-77775000D03*
D17*
X43205250Y-77775000D03*
D18*
%TO.P,SW25,3,3*%
%TO.N,unconnected-(SW25-Pad3)_19*%
X39635250Y-89925000D03*
D12*
%TO.N,unconnected-(SW25-Pad3)_10*%
X39855250Y-81925000D03*
D10*
%TO.N,unconnected-(SW25-Pad3)_14*%
X41045250Y-83185000D03*
D13*
%TO.N,unconnected-(SW25-Pad3)_8*%
X41055250Y-89525000D03*
D19*
%TO.N,unconnected-(SW25-Pad3)_11*%
X41426250Y-84455000D03*
D20*
%TO.N,unconnected-(SW25-Pad3)_1*%
X41426250Y-88519000D03*
D21*
%TO.N,unconnected-(SW25-Pad3)_18*%
X41680251Y-86499445D03*
D22*
%TO.N,unconnected-(SW25-Pad3)_17*%
X44855248Y-89535000D03*
D17*
%TO.N,unconnected-(SW25-Pad3)_9*%
X46505250Y-77775000D03*
D16*
%TO.N,unconnected-(SW25-Pad3)_13*%
X47355250Y-77775000D03*
D21*
%TO.N,unconnected-(SW25-Pad3)*%
X48030249Y-86499445D03*
D23*
%TO.N,unconnected-(SW25-Pad3)_20*%
X48284250Y-84455000D03*
D24*
%TO.N,unconnected-(SW25-Pad3)_16*%
X48284250Y-88519000D03*
D13*
%TO.N,unconnected-(SW25-Pad3)_15*%
X48655250Y-89525000D03*
D25*
%TO.N,unconnected-(SW25-Pad3)_6*%
X48665250Y-77775000D03*
D10*
%TO.N,unconnected-(SW25-Pad3)_7*%
X48665250Y-83185000D03*
D26*
%TO.N,unconnected-(SW25-Pad3)_12*%
X49155250Y-78275000D03*
D12*
%TO.N,unconnected-(SW25-Pad3)_4*%
X49855250Y-81925000D03*
D27*
%TO.N,unconnected-(SW25-Pad3)_21*%
X49856750Y-80205025D03*
D18*
%TO.N,unconnected-(SW25-Pad3)_2*%
X50075250Y-89925000D03*
%TD*%
D10*
%TO.P,SW17,1,1*%
%TO.N,/ROW 2*%
X116134000Y-42545000D03*
D11*
X117374000Y-42150000D03*
D12*
X118674000Y-41725000D03*
D13*
X118674000Y-54125000D03*
D14*
X119874000Y-42150000D03*
D10*
X121214000Y-42545000D03*
D15*
%TO.P,SW17,2,2*%
%TO.N,/COL 4*%
X114864000Y-39675000D03*
D16*
X116074000Y-39675000D03*
D17*
X117024000Y-39675000D03*
D18*
%TO.P,SW17,3,3*%
%TO.N,unconnected-(SW17-Pad3)_7*%
X113454000Y-51825000D03*
D12*
%TO.N,unconnected-(SW17-Pad3)_3*%
X113674000Y-43825000D03*
D10*
%TO.N,unconnected-(SW17-Pad3)_8*%
X114864000Y-45085000D03*
D13*
%TO.N,unconnected-(SW17-Pad3)*%
X114874000Y-51425000D03*
D19*
%TO.N,unconnected-(SW17-Pad3)_15*%
X115245000Y-46355000D03*
D20*
%TO.N,unconnected-(SW17-Pad3)_18*%
X115245000Y-50419000D03*
D21*
%TO.N,unconnected-(SW17-Pad3)_11*%
X115499001Y-48399445D03*
D22*
%TO.N,unconnected-(SW17-Pad3)_19*%
X118673998Y-51435000D03*
D17*
%TO.N,unconnected-(SW17-Pad3)_17*%
X120324000Y-39675000D03*
D16*
%TO.N,unconnected-(SW17-Pad3)_12*%
X121174000Y-39675000D03*
D21*
%TO.N,unconnected-(SW17-Pad3)_5*%
X121848999Y-48399445D03*
D23*
%TO.N,unconnected-(SW17-Pad3)_1*%
X122103000Y-46355000D03*
D24*
%TO.N,unconnected-(SW17-Pad3)_14*%
X122103000Y-50419000D03*
D13*
%TO.N,unconnected-(SW17-Pad3)_6*%
X122474000Y-51425000D03*
D25*
%TO.N,unconnected-(SW17-Pad3)_4*%
X122484000Y-39675000D03*
D10*
%TO.N,unconnected-(SW17-Pad3)_10*%
X122484000Y-45085000D03*
D26*
%TO.N,unconnected-(SW17-Pad3)_16*%
X122974000Y-40175000D03*
D12*
%TO.N,unconnected-(SW17-Pad3)_13*%
X123674000Y-43825000D03*
D27*
%TO.N,unconnected-(SW17-Pad3)_20*%
X123675500Y-42105025D03*
D18*
%TO.N,unconnected-(SW17-Pad3)_2*%
X123894000Y-51825000D03*
%TD*%
D10*
%TO.P,SW26,1,1*%
%TO.N,/ROW 4*%
X73271500Y-80645000D03*
D11*
X74511500Y-80250000D03*
D12*
X75811500Y-79825000D03*
D13*
X75811500Y-92225000D03*
D14*
X77011500Y-80250000D03*
D10*
X78351500Y-80645000D03*
D15*
%TO.P,SW26,2,2*%
%TO.N,/COL 1*%
X72001500Y-77775000D03*
D16*
X73211500Y-77775000D03*
D17*
X74161500Y-77775000D03*
D18*
%TO.P,SW26,3,3*%
%TO.N,unconnected-(SW26-Pad3)*%
X70591500Y-89925000D03*
D12*
%TO.N,unconnected-(SW26-Pad3)_11*%
X70811500Y-81925000D03*
D10*
%TO.N,unconnected-(SW26-Pad3)_16*%
X72001500Y-83185000D03*
D13*
%TO.N,unconnected-(SW26-Pad3)_10*%
X72011500Y-89525000D03*
D19*
%TO.N,unconnected-(SW26-Pad3)_20*%
X72382500Y-84455000D03*
D20*
%TO.N,unconnected-(SW26-Pad3)_8*%
X72382500Y-88519000D03*
D21*
%TO.N,unconnected-(SW26-Pad3)_5*%
X72636501Y-86499445D03*
D22*
%TO.N,unconnected-(SW26-Pad3)_3*%
X75811498Y-89535000D03*
D17*
%TO.N,unconnected-(SW26-Pad3)_9*%
X77461500Y-77775000D03*
D16*
%TO.N,unconnected-(SW26-Pad3)_1*%
X78311500Y-77775000D03*
D21*
%TO.N,unconnected-(SW26-Pad3)_12*%
X78986499Y-86499445D03*
D23*
%TO.N,unconnected-(SW26-Pad3)_2*%
X79240500Y-84455000D03*
D24*
%TO.N,unconnected-(SW26-Pad3)_19*%
X79240500Y-88519000D03*
D13*
%TO.N,unconnected-(SW26-Pad3)_6*%
X79611500Y-89525000D03*
D25*
%TO.N,unconnected-(SW26-Pad3)_17*%
X79621500Y-77775000D03*
D10*
%TO.N,unconnected-(SW26-Pad3)_4*%
X79621500Y-83185000D03*
D26*
%TO.N,unconnected-(SW26-Pad3)_21*%
X80111500Y-78275000D03*
D12*
%TO.N,unconnected-(SW26-Pad3)_7*%
X80811500Y-81925000D03*
D27*
%TO.N,unconnected-(SW26-Pad3)_18*%
X80813000Y-80205025D03*
D18*
%TO.N,unconnected-(SW26-Pad3)_13*%
X81031500Y-89925000D03*
%TD*%
D10*
%TO.P,SW12,1,1*%
%TO.N,/ROW 1*%
X125659000Y-23495000D03*
D11*
X126899000Y-23100000D03*
D12*
X128199000Y-22675000D03*
D13*
X128199000Y-35075000D03*
D14*
X129399000Y-23100000D03*
D10*
X130739000Y-23495000D03*
D15*
%TO.P,SW12,2,2*%
%TO.N,/COL 5*%
X124389000Y-20625000D03*
D16*
X125599000Y-20625000D03*
D17*
X126549000Y-20625000D03*
D18*
%TO.P,SW12,3,3*%
%TO.N,unconnected-(SW12-Pad3)_4*%
X122979000Y-32775000D03*
D12*
%TO.N,unconnected-(SW12-Pad3)_3*%
X123199000Y-24775000D03*
D10*
%TO.N,unconnected-(SW12-Pad3)_20*%
X124389000Y-26035000D03*
D13*
%TO.N,unconnected-(SW12-Pad3)_19*%
X124399000Y-32375000D03*
D19*
%TO.N,unconnected-(SW12-Pad3)_14*%
X124770000Y-27305000D03*
D20*
%TO.N,unconnected-(SW12-Pad3)_5*%
X124770000Y-31369000D03*
D21*
%TO.N,unconnected-(SW12-Pad3)_16*%
X125024001Y-29349445D03*
D22*
%TO.N,unconnected-(SW12-Pad3)_18*%
X128198998Y-32385000D03*
D17*
%TO.N,unconnected-(SW12-Pad3)_2*%
X129849000Y-20625000D03*
D16*
%TO.N,unconnected-(SW12-Pad3)_15*%
X130699000Y-20625000D03*
D21*
%TO.N,unconnected-(SW12-Pad3)_21*%
X131373999Y-29349445D03*
D23*
%TO.N,unconnected-(SW12-Pad3)_6*%
X131628000Y-27305000D03*
D24*
%TO.N,unconnected-(SW12-Pad3)_9*%
X131628000Y-31369000D03*
D13*
%TO.N,unconnected-(SW12-Pad3)*%
X131999000Y-32375000D03*
D25*
%TO.N,unconnected-(SW12-Pad3)_11*%
X132009000Y-20625000D03*
D10*
%TO.N,unconnected-(SW12-Pad3)_8*%
X132009000Y-26035000D03*
D26*
%TO.N,unconnected-(SW12-Pad3)_17*%
X132499000Y-21125000D03*
D12*
%TO.N,unconnected-(SW12-Pad3)_7*%
X133199000Y-24775000D03*
D27*
%TO.N,unconnected-(SW12-Pad3)_1*%
X133200500Y-23055025D03*
D18*
%TO.N,unconnected-(SW12-Pad3)_12*%
X133419000Y-32775000D03*
%TD*%
D10*
%TO.P,SW2,1,1*%
%TO.N,/ROW 0*%
X49459000Y-4445000D03*
D11*
X50699000Y-4050000D03*
D12*
X51999000Y-3625000D03*
D13*
X51999000Y-16025000D03*
D14*
X53199000Y-4050000D03*
D10*
X54539000Y-4445000D03*
D15*
%TO.P,SW2,2,2*%
%TO.N,/COL 1*%
X48189000Y-1575000D03*
D16*
X49399000Y-1575000D03*
D17*
X50349000Y-1575000D03*
D18*
%TO.P,SW2,3,3*%
%TO.N,unconnected-(SW2-Pad3)_21*%
X46779000Y-13725000D03*
D12*
%TO.N,unconnected-(SW2-Pad3)_13*%
X46999000Y-5725000D03*
D10*
%TO.N,unconnected-(SW2-Pad3)_6*%
X48189000Y-6985000D03*
D13*
%TO.N,unconnected-(SW2-Pad3)_2*%
X48199000Y-13325000D03*
D19*
%TO.N,unconnected-(SW2-Pad3)*%
X48570000Y-8255000D03*
D20*
%TO.N,unconnected-(SW2-Pad3)_10*%
X48570000Y-12319000D03*
D21*
%TO.N,unconnected-(SW2-Pad3)_9*%
X48824001Y-10299445D03*
D22*
%TO.N,unconnected-(SW2-Pad3)_15*%
X51998998Y-13335000D03*
D17*
%TO.N,unconnected-(SW2-Pad3)_11*%
X53649000Y-1575000D03*
D16*
%TO.N,unconnected-(SW2-Pad3)_3*%
X54499000Y-1575000D03*
D21*
%TO.N,unconnected-(SW2-Pad3)_1*%
X55173999Y-10299445D03*
D23*
%TO.N,unconnected-(SW2-Pad3)_5*%
X55428000Y-8255000D03*
D24*
%TO.N,unconnected-(SW2-Pad3)_20*%
X55428000Y-12319000D03*
D13*
%TO.N,unconnected-(SW2-Pad3)_17*%
X55799000Y-13325000D03*
D25*
%TO.N,unconnected-(SW2-Pad3)_7*%
X55809000Y-1575000D03*
D10*
%TO.N,unconnected-(SW2-Pad3)_8*%
X55809000Y-6985000D03*
D26*
%TO.N,unconnected-(SW2-Pad3)_18*%
X56299000Y-2075000D03*
D12*
%TO.N,unconnected-(SW2-Pad3)_16*%
X56999000Y-5725000D03*
D27*
%TO.N,unconnected-(SW2-Pad3)_12*%
X57000500Y-4005025D03*
D18*
%TO.N,unconnected-(SW2-Pad3)_4*%
X57219000Y-13725000D03*
%TD*%
D10*
%TO.P,SW6,1,1*%
%TO.N,/ROW 0*%
X125659000Y-4445000D03*
D11*
X126899000Y-4050000D03*
D12*
X128199000Y-3625000D03*
D13*
X128199000Y-16025000D03*
D14*
X129399000Y-4050000D03*
D10*
X130739000Y-4445000D03*
D15*
%TO.P,SW6,2,2*%
%TO.N,/COL 5*%
X124389000Y-1575000D03*
D16*
X125599000Y-1575000D03*
D17*
X126549000Y-1575000D03*
D18*
%TO.P,SW6,3,3*%
%TO.N,unconnected-(SW6-Pad3)_11*%
X122979000Y-13725000D03*
D12*
%TO.N,unconnected-(SW6-Pad3)_3*%
X123199000Y-5725000D03*
D10*
%TO.N,unconnected-(SW6-Pad3)_9*%
X124389000Y-6985000D03*
D13*
%TO.N,unconnected-(SW6-Pad3)_14*%
X124399000Y-13325000D03*
D19*
%TO.N,unconnected-(SW6-Pad3)_8*%
X124770000Y-8255000D03*
D20*
%TO.N,unconnected-(SW6-Pad3)_13*%
X124770000Y-12319000D03*
D21*
%TO.N,unconnected-(SW6-Pad3)_2*%
X125024001Y-10299445D03*
D22*
%TO.N,unconnected-(SW6-Pad3)_1*%
X128198998Y-13335000D03*
D17*
%TO.N,unconnected-(SW6-Pad3)_19*%
X129849000Y-1575000D03*
D16*
%TO.N,unconnected-(SW6-Pad3)_6*%
X130699000Y-1575000D03*
D21*
%TO.N,unconnected-(SW6-Pad3)_15*%
X131373999Y-10299445D03*
D23*
%TO.N,unconnected-(SW6-Pad3)_17*%
X131628000Y-8255000D03*
D24*
%TO.N,unconnected-(SW6-Pad3)*%
X131628000Y-12319000D03*
D13*
%TO.N,unconnected-(SW6-Pad3)_4*%
X131999000Y-13325000D03*
D25*
%TO.N,unconnected-(SW6-Pad3)_5*%
X132009000Y-1575000D03*
D10*
%TO.N,unconnected-(SW6-Pad3)_20*%
X132009000Y-6985000D03*
D26*
%TO.N,unconnected-(SW6-Pad3)_12*%
X132499000Y-2075000D03*
D12*
%TO.N,unconnected-(SW6-Pad3)_10*%
X133199000Y-5725000D03*
D27*
%TO.N,unconnected-(SW6-Pad3)_16*%
X133200500Y-4005025D03*
D18*
%TO.N,unconnected-(SW6-Pad3)_18*%
X133419000Y-13725000D03*
%TD*%
D10*
%TO.P,SW5,1,1*%
%TO.N,/ROW 0*%
X106609000Y-4445000D03*
D11*
X107849000Y-4050000D03*
D12*
X109149000Y-3625000D03*
D13*
X109149000Y-16025000D03*
D14*
X110349000Y-4050000D03*
D10*
X111689000Y-4445000D03*
D15*
%TO.P,SW5,2,2*%
%TO.N,/COL 4*%
X105339000Y-1575000D03*
D16*
X106549000Y-1575000D03*
D17*
X107499000Y-1575000D03*
D18*
%TO.P,SW5,3,3*%
%TO.N,unconnected-(SW5-Pad3)_7*%
X103929000Y-13725000D03*
D12*
%TO.N,unconnected-(SW5-Pad3)_3*%
X104149000Y-5725000D03*
D10*
%TO.N,unconnected-(SW5-Pad3)_19*%
X105339000Y-6985000D03*
D13*
%TO.N,unconnected-(SW5-Pad3)_20*%
X105349000Y-13325000D03*
D19*
%TO.N,unconnected-(SW5-Pad3)_6*%
X105720000Y-8255000D03*
D20*
%TO.N,unconnected-(SW5-Pad3)_1*%
X105720000Y-12319000D03*
D21*
%TO.N,unconnected-(SW5-Pad3)_11*%
X105974001Y-10299445D03*
D22*
%TO.N,unconnected-(SW5-Pad3)_21*%
X109148998Y-13335000D03*
D17*
%TO.N,unconnected-(SW5-Pad3)*%
X110799000Y-1575000D03*
D16*
%TO.N,unconnected-(SW5-Pad3)_9*%
X111649000Y-1575000D03*
D21*
%TO.N,unconnected-(SW5-Pad3)_4*%
X112323999Y-10299445D03*
D23*
%TO.N,unconnected-(SW5-Pad3)_13*%
X112578000Y-8255000D03*
D24*
%TO.N,unconnected-(SW5-Pad3)_18*%
X112578000Y-12319000D03*
D13*
%TO.N,unconnected-(SW5-Pad3)_5*%
X112949000Y-13325000D03*
D25*
%TO.N,unconnected-(SW5-Pad3)_8*%
X112959000Y-1575000D03*
D10*
%TO.N,unconnected-(SW5-Pad3)_16*%
X112959000Y-6985000D03*
D26*
%TO.N,unconnected-(SW5-Pad3)_14*%
X113449000Y-2075000D03*
D12*
%TO.N,unconnected-(SW5-Pad3)_17*%
X114149000Y-5725000D03*
D27*
%TO.N,unconnected-(SW5-Pad3)_10*%
X114150500Y-4005025D03*
D18*
%TO.N,unconnected-(SW5-Pad3)_12*%
X114369000Y-13725000D03*
%TD*%
D10*
%TO.P,SW24,1,1*%
%TO.N,/ROW 3*%
X139946500Y-61595000D03*
D11*
X141186500Y-61200000D03*
D12*
X142486500Y-60775000D03*
D13*
X142486500Y-73175000D03*
D14*
X143686500Y-61200000D03*
D10*
X145026500Y-61595000D03*
D15*
%TO.P,SW24,2,2*%
%TO.N,/COL 5*%
X138676500Y-58725000D03*
D16*
X139886500Y-58725000D03*
D17*
X140836500Y-58725000D03*
D18*
%TO.P,SW24,3,3*%
%TO.N,unconnected-(SW24-Pad3)_8*%
X137266500Y-70875000D03*
D12*
%TO.N,unconnected-(SW24-Pad3)_9*%
X137486500Y-62875000D03*
D10*
%TO.N,unconnected-(SW24-Pad3)_6*%
X138676500Y-64135000D03*
D13*
%TO.N,unconnected-(SW24-Pad3)_18*%
X138686500Y-70475000D03*
D19*
%TO.N,unconnected-(SW24-Pad3)_12*%
X139057500Y-65405000D03*
D20*
%TO.N,unconnected-(SW24-Pad3)_15*%
X139057500Y-69469000D03*
D21*
%TO.N,unconnected-(SW24-Pad3)_3*%
X139311501Y-67449445D03*
D22*
%TO.N,unconnected-(SW24-Pad3)*%
X142486498Y-70485000D03*
D17*
%TO.N,unconnected-(SW24-Pad3)_20*%
X144136500Y-58725000D03*
D16*
%TO.N,unconnected-(SW24-Pad3)_14*%
X144986500Y-58725000D03*
D21*
%TO.N,unconnected-(SW24-Pad3)_5*%
X145661499Y-67449445D03*
D23*
%TO.N,unconnected-(SW24-Pad3)_1*%
X145915500Y-65405000D03*
D24*
%TO.N,unconnected-(SW24-Pad3)_10*%
X145915500Y-69469000D03*
D13*
%TO.N,unconnected-(SW24-Pad3)_7*%
X146286500Y-70475000D03*
D25*
%TO.N,unconnected-(SW24-Pad3)_13*%
X146296500Y-58725000D03*
D10*
%TO.N,unconnected-(SW24-Pad3)_16*%
X146296500Y-64135000D03*
D26*
%TO.N,unconnected-(SW24-Pad3)_21*%
X146786500Y-59225000D03*
D12*
%TO.N,unconnected-(SW24-Pad3)_4*%
X147486500Y-62875000D03*
D27*
%TO.N,unconnected-(SW24-Pad3)_11*%
X147488000Y-61155025D03*
D18*
%TO.N,unconnected-(SW24-Pad3)_19*%
X147706500Y-70875000D03*
%TD*%
D29*
%TO.P,U1,1,TX0/D3*%
%TO.N,/ROW 1*%
X4120000Y-5080000D03*
X20884000Y-6349996D03*
%TO.P,U1,2,RX1/D2*%
%TO.N,/ROW 0*%
X4120000Y-7620000D03*
X20884000Y-8889996D03*
%TO.P,U1,3,GND*%
%TO.N,GND*%
X4120000Y-10160000D03*
X20884000Y-11429996D03*
%TO.P,U1,4,GND*%
X4120000Y-12700000D03*
X20884000Y-13969996D03*
%TO.P,U1,5,2/D1/SDA*%
%TO.N,/ROW 2*%
X4120000Y-15240000D03*
X20884000Y-16509996D03*
%TO.P,U1,6,3/D0/SCL*%
%TO.N,/ROW 3*%
X4120000Y-17780000D03*
X20884000Y-19049996D03*
%TO.P,U1,7,4/D4*%
%TO.N,/ROW 4*%
X4120000Y-20320000D03*
X20884000Y-21589996D03*
%TO.P,U1,8,5/C6*%
%TO.N,/ROW 5*%
X4120000Y-22860000D03*
X20884000Y-24129996D03*
%TO.P,U1,9,6/D7*%
%TO.N,/COL 0*%
X4120000Y-25400000D03*
X20884000Y-26669996D03*
%TO.P,U1,10,7/E6*%
%TO.N,/COL 1*%
X4120000Y-27940000D03*
X20884000Y-29209996D03*
%TO.P,U1,11,8/B4*%
%TO.N,/COL 2*%
X4120000Y-30480000D03*
X20884000Y-31749996D03*
%TO.P,U1,12,9/B5*%
%TO.N,/COL 3*%
X4120000Y-33020000D03*
X20884000Y-34289996D03*
%TO.P,U1,13,B6/10*%
%TO.N,/COL 4*%
X19360000Y-33020000D03*
D30*
X18612000Y-33740000D03*
D29*
X5644000Y-34289996D03*
D31*
X11917801Y-34290000D03*
D29*
%TO.P,U1,14,B2/16*%
%TO.N,/COL 5*%
X19360000Y-30480000D03*
D30*
X18612000Y-31200000D03*
D29*
X5644000Y-31749996D03*
D31*
X11917801Y-31750000D03*
D29*
%TO.P,U1,15,B3/14*%
%TO.N,unconnected-(U1-B3{slash}14-Pad15)_2*%
X19360000Y-27940000D03*
D30*
%TO.N,unconnected-(U1-B3{slash}14-Pad15)*%
X18612000Y-28660000D03*
D29*
%TO.N,unconnected-(U1-B3{slash}14-Pad15)_3*%
X5644000Y-29209996D03*
D31*
%TO.N,unconnected-(U1-B3{slash}14-Pad15)_1*%
X11917801Y-29210000D03*
D29*
%TO.P,U1,16,B1/15*%
%TO.N,unconnected-(U1-B1{slash}15-Pad16)_2*%
X19360000Y-25400000D03*
D30*
%TO.N,unconnected-(U1-B1{slash}15-Pad16)*%
X18612000Y-26120000D03*
D29*
%TO.N,unconnected-(U1-B1{slash}15-Pad16)_3*%
X5644000Y-26669996D03*
D31*
%TO.N,unconnected-(U1-B1{slash}15-Pad16)_1*%
X11917801Y-26670000D03*
D29*
%TO.P,U1,17,F7/A0*%
%TO.N,unconnected-(U1-F7{slash}A0-Pad17)_3*%
X19360000Y-22860000D03*
D30*
%TO.N,unconnected-(U1-F7{slash}A0-Pad17)_2*%
X18612000Y-23580000D03*
D29*
%TO.N,unconnected-(U1-F7{slash}A0-Pad17)*%
X5644000Y-24129996D03*
D31*
%TO.N,unconnected-(U1-F7{slash}A0-Pad17)_1*%
X11917801Y-24130000D03*
D29*
%TO.P,U1,18,F6/A1*%
%TO.N,unconnected-(U1-F6{slash}A1-Pad18)_2*%
X19360000Y-20320000D03*
D30*
%TO.N,unconnected-(U1-F6{slash}A1-Pad18)_3*%
X18612000Y-21040000D03*
D29*
%TO.N,unconnected-(U1-F6{slash}A1-Pad18)_1*%
X5644000Y-21589996D03*
D31*
%TO.N,unconnected-(U1-F6{slash}A1-Pad18)*%
X11917801Y-21590000D03*
D29*
%TO.P,U1,19,F5/A2*%
%TO.N,unconnected-(U1-F5{slash}A2-Pad19)_1*%
X19360000Y-17780000D03*
D30*
%TO.N,unconnected-(U1-F5{slash}A2-Pad19)*%
X18612000Y-18500000D03*
D29*
%TO.N,unconnected-(U1-F5{slash}A2-Pad19)_2*%
X5644000Y-19049996D03*
D31*
%TO.N,unconnected-(U1-F5{slash}A2-Pad19)_3*%
X11917801Y-19050000D03*
D29*
%TO.P,U1,20,F4/A3*%
%TO.N,unconnected-(U1-F4{slash}A3-Pad20)*%
X19360000Y-15240000D03*
D30*
%TO.N,unconnected-(U1-F4{slash}A3-Pad20)_1*%
X18612000Y-15960000D03*
D29*
%TO.N,unconnected-(U1-F4{slash}A3-Pad20)_3*%
X5644000Y-16509996D03*
D31*
%TO.N,unconnected-(U1-F4{slash}A3-Pad20)_2*%
X11917801Y-16510000D03*
D29*
%TO.P,U1,21,VCC*%
%TO.N,VCC*%
X19360000Y-12700000D03*
D30*
X18612000Y-13420000D03*
D29*
X5644000Y-13969996D03*
D31*
X11917801Y-13970000D03*
D29*
%TO.P,U1,22,RST*%
%TO.N,Net-(U1-RST)*%
X19360000Y-10160000D03*
D30*
X18612000Y-10880000D03*
D29*
X5644000Y-11429996D03*
D31*
X11917801Y-11430000D03*
D29*
%TO.P,U1,23,GND*%
%TO.N,GND*%
X19360000Y-7620000D03*
D30*
X18612000Y-8340000D03*
D29*
X5644000Y-8889996D03*
D31*
X11917801Y-8890000D03*
D29*
%TO.P,U1,24,RAW*%
%TO.N,unconnected-(U1-RAW-Pad24)_3*%
X19360000Y-5080000D03*
D30*
%TO.N,unconnected-(U1-RAW-Pad24)_2*%
X18612000Y-5800000D03*
D29*
%TO.N,unconnected-(U1-RAW-Pad24)_1*%
X5644000Y-6349996D03*
D31*
%TO.N,unconnected-(U1-RAW-Pad24)*%
X11917801Y-6350000D03*
D29*
%TO.P,U1,25,BAT+*%
%TO.N,+BATT*%
X19360000Y-2540000D03*
D30*
X18612000Y-3260000D03*
D29*
X5644000Y-3809996D03*
D31*
X11917801Y-3810000D03*
D29*
%TO.P,U1,26,GND*%
%TO.N,GND*%
X4120000Y-2540000D03*
X20884000Y-3810000D03*
%TD*%
D10*
%TO.P,SW31,1,1*%
%TO.N,/ROW 5*%
X51840250Y-99695000D03*
D11*
X53080250Y-99300000D03*
D12*
X54380250Y-98875000D03*
D13*
X54380250Y-111275000D03*
D14*
X55580250Y-99300000D03*
D10*
X56920250Y-99695000D03*
D15*
%TO.P,SW31,2,2*%
%TO.N,/COL 1*%
X50570250Y-96825000D03*
D16*
X51780250Y-96825000D03*
D17*
X52730250Y-96825000D03*
D18*
%TO.P,SW31,3,3*%
%TO.N,unconnected-(SW31-Pad3)_16*%
X49160250Y-108975000D03*
D12*
%TO.N,unconnected-(SW31-Pad3)_13*%
X49380250Y-100975000D03*
D10*
%TO.N,unconnected-(SW31-Pad3)_15*%
X50570250Y-102235000D03*
D13*
%TO.N,unconnected-(SW31-Pad3)*%
X50580250Y-108575000D03*
D19*
%TO.N,unconnected-(SW31-Pad3)_14*%
X50951250Y-103505000D03*
D20*
%TO.N,unconnected-(SW31-Pad3)_17*%
X50951250Y-107569000D03*
D21*
%TO.N,unconnected-(SW31-Pad3)_2*%
X51205251Y-105549445D03*
D22*
%TO.N,unconnected-(SW31-Pad3)_4*%
X54380248Y-108585000D03*
D17*
%TO.N,unconnected-(SW31-Pad3)_11*%
X56030250Y-96825000D03*
D16*
%TO.N,unconnected-(SW31-Pad3)_7*%
X56880250Y-96825000D03*
D21*
%TO.N,unconnected-(SW31-Pad3)_20*%
X57555249Y-105549445D03*
D23*
%TO.N,unconnected-(SW31-Pad3)_10*%
X57809250Y-103505000D03*
D24*
%TO.N,unconnected-(SW31-Pad3)_6*%
X57809250Y-107569000D03*
D13*
%TO.N,unconnected-(SW31-Pad3)_12*%
X58180250Y-108575000D03*
D25*
%TO.N,unconnected-(SW31-Pad3)_8*%
X58190250Y-96825000D03*
D10*
%TO.N,unconnected-(SW31-Pad3)_9*%
X58190250Y-102235000D03*
D26*
%TO.N,unconnected-(SW31-Pad3)_18*%
X58680250Y-97325000D03*
D12*
%TO.N,unconnected-(SW31-Pad3)_19*%
X59380250Y-100975000D03*
D27*
%TO.N,unconnected-(SW31-Pad3)_1*%
X59381750Y-99255025D03*
D18*
%TO.N,unconnected-(SW31-Pad3)_21*%
X59600250Y-108975000D03*
%TD*%
D10*
%TO.P,SW22,1,1*%
%TO.N,/ROW 3*%
X101846500Y-61595000D03*
D11*
X103086500Y-61200000D03*
D12*
X104386500Y-60775000D03*
D13*
X104386500Y-73175000D03*
D14*
X105586500Y-61200000D03*
D10*
X106926500Y-61595000D03*
D15*
%TO.P,SW22,2,2*%
%TO.N,/COL 3*%
X100576500Y-58725000D03*
D16*
X101786500Y-58725000D03*
D17*
X102736500Y-58725000D03*
D18*
%TO.P,SW22,3,3*%
%TO.N,unconnected-(SW22-Pad3)_13*%
X99166500Y-70875000D03*
D12*
%TO.N,unconnected-(SW22-Pad3)_9*%
X99386500Y-62875000D03*
D10*
%TO.N,unconnected-(SW22-Pad3)_11*%
X100576500Y-64135000D03*
D13*
%TO.N,unconnected-(SW22-Pad3)_18*%
X100586500Y-70475000D03*
D19*
%TO.N,unconnected-(SW22-Pad3)_6*%
X100957500Y-65405000D03*
D20*
%TO.N,unconnected-(SW22-Pad3)_15*%
X100957500Y-69469000D03*
D21*
%TO.N,unconnected-(SW22-Pad3)_8*%
X101211501Y-67449445D03*
D22*
%TO.N,unconnected-(SW22-Pad3)_10*%
X104386498Y-70485000D03*
D17*
%TO.N,unconnected-(SW22-Pad3)_2*%
X106036500Y-58725000D03*
D16*
%TO.N,unconnected-(SW22-Pad3)_4*%
X106886500Y-58725000D03*
D21*
%TO.N,unconnected-(SW22-Pad3)_14*%
X107561499Y-67449445D03*
D23*
%TO.N,unconnected-(SW22-Pad3)_1*%
X107815500Y-65405000D03*
D24*
%TO.N,unconnected-(SW22-Pad3)_5*%
X107815500Y-69469000D03*
D13*
%TO.N,unconnected-(SW22-Pad3)*%
X108186500Y-70475000D03*
D25*
%TO.N,unconnected-(SW22-Pad3)_7*%
X108196500Y-58725000D03*
D10*
%TO.N,unconnected-(SW22-Pad3)_19*%
X108196500Y-64135000D03*
D26*
%TO.N,unconnected-(SW22-Pad3)_12*%
X108686500Y-59225000D03*
D12*
%TO.N,unconnected-(SW22-Pad3)_20*%
X109386500Y-62875000D03*
D27*
%TO.N,unconnected-(SW22-Pad3)_17*%
X109388000Y-61155025D03*
D18*
%TO.N,unconnected-(SW22-Pad3)_3*%
X109606500Y-70875000D03*
%TD*%
D10*
%TO.P,SW1,1,1*%
%TO.N,/ROW 0*%
X30409000Y-4445000D03*
D11*
X31649000Y-4050000D03*
D12*
X32949000Y-3625000D03*
D13*
X32949000Y-16025000D03*
D14*
X34149000Y-4050000D03*
D10*
X35489000Y-4445000D03*
D15*
%TO.P,SW1,2,2*%
%TO.N,/COL 0*%
X29139000Y-1575000D03*
D16*
X30349000Y-1575000D03*
D17*
X31299000Y-1575000D03*
D18*
%TO.P,SW1,3,3*%
%TO.N,unconnected-(SW1-Pad3)_8*%
X27729000Y-13725000D03*
D12*
%TO.N,unconnected-(SW1-Pad3)_20*%
X27949000Y-5725000D03*
D10*
%TO.N,unconnected-(SW1-Pad3)_5*%
X29139000Y-6985000D03*
D13*
%TO.N,unconnected-(SW1-Pad3)_14*%
X29149000Y-13325000D03*
D19*
%TO.N,unconnected-(SW1-Pad3)_18*%
X29520000Y-8255000D03*
D20*
%TO.N,unconnected-(SW1-Pad3)*%
X29520000Y-12319000D03*
D21*
%TO.N,unconnected-(SW1-Pad3)_4*%
X29774001Y-10299445D03*
D22*
%TO.N,unconnected-(SW1-Pad3)_10*%
X32948998Y-13335000D03*
D17*
%TO.N,unconnected-(SW1-Pad3)_2*%
X34599000Y-1575000D03*
D16*
%TO.N,unconnected-(SW1-Pad3)_13*%
X35449000Y-1575000D03*
D21*
%TO.N,unconnected-(SW1-Pad3)_21*%
X36123999Y-10299445D03*
D23*
%TO.N,unconnected-(SW1-Pad3)_12*%
X36378000Y-8255000D03*
D24*
%TO.N,unconnected-(SW1-Pad3)_9*%
X36378000Y-12319000D03*
D13*
%TO.N,unconnected-(SW1-Pad3)_11*%
X36749000Y-13325000D03*
D25*
%TO.N,unconnected-(SW1-Pad3)_3*%
X36759000Y-1575000D03*
D10*
%TO.N,unconnected-(SW1-Pad3)_16*%
X36759000Y-6985000D03*
D26*
%TO.N,unconnected-(SW1-Pad3)_19*%
X37249000Y-2075000D03*
D12*
%TO.N,unconnected-(SW1-Pad3)_17*%
X37949000Y-5725000D03*
D27*
%TO.N,unconnected-(SW1-Pad3)_6*%
X37950500Y-4005025D03*
D18*
%TO.N,unconnected-(SW1-Pad3)_7*%
X38169000Y-13725000D03*
%TD*%
D10*
%TO.P,SW13,1,1*%
%TO.N,/ROW 2*%
X35171500Y-42545000D03*
D11*
X36411500Y-42150000D03*
D12*
X37711500Y-41725000D03*
D13*
X37711500Y-54125000D03*
D14*
X38911500Y-42150000D03*
D10*
X40251500Y-42545000D03*
D15*
%TO.P,SW13,2,2*%
%TO.N,/COL 0*%
X33901500Y-39675000D03*
D16*
X35111500Y-39675000D03*
D17*
X36061500Y-39675000D03*
D18*
%TO.P,SW13,3,3*%
%TO.N,unconnected-(SW13-Pad3)_12*%
X32491500Y-51825000D03*
D12*
%TO.N,unconnected-(SW13-Pad3)_3*%
X32711500Y-43825000D03*
D10*
%TO.N,unconnected-(SW13-Pad3)_15*%
X33901500Y-45085000D03*
D13*
%TO.N,unconnected-(SW13-Pad3)_4*%
X33911500Y-51425000D03*
D19*
%TO.N,unconnected-(SW13-Pad3)*%
X34282500Y-46355000D03*
D20*
%TO.N,unconnected-(SW13-Pad3)_20*%
X34282500Y-50419000D03*
D21*
%TO.N,unconnected-(SW13-Pad3)_9*%
X34536501Y-48399445D03*
D22*
%TO.N,unconnected-(SW13-Pad3)_16*%
X37711498Y-51435000D03*
D17*
%TO.N,unconnected-(SW13-Pad3)_17*%
X39361500Y-39675000D03*
D16*
%TO.N,unconnected-(SW13-Pad3)_18*%
X40211500Y-39675000D03*
D21*
%TO.N,unconnected-(SW13-Pad3)_8*%
X40886499Y-48399445D03*
D23*
%TO.N,unconnected-(SW13-Pad3)_10*%
X41140500Y-46355000D03*
D24*
%TO.N,unconnected-(SW13-Pad3)_11*%
X41140500Y-50419000D03*
D13*
%TO.N,unconnected-(SW13-Pad3)_2*%
X41511500Y-51425000D03*
D25*
%TO.N,unconnected-(SW13-Pad3)_19*%
X41521500Y-39675000D03*
D10*
%TO.N,unconnected-(SW13-Pad3)_6*%
X41521500Y-45085000D03*
D26*
%TO.N,unconnected-(SW13-Pad3)_5*%
X42011500Y-40175000D03*
D12*
%TO.N,unconnected-(SW13-Pad3)_21*%
X42711500Y-43825000D03*
D27*
%TO.N,unconnected-(SW13-Pad3)_13*%
X42713000Y-42105025D03*
D18*
%TO.N,unconnected-(SW13-Pad3)_14*%
X42931500Y-51825000D03*
%TD*%
D28*
%TO.P,J1,1,Pin_1*%
%TO.N,+BATT*%
X17000000Y-41500000D03*
%TD*%
D10*
%TO.P,SW16,1,1*%
%TO.N,/ROW 2*%
X97084000Y-42545000D03*
D11*
X98324000Y-42150000D03*
D12*
X99624000Y-41725000D03*
D13*
X99624000Y-54125000D03*
D14*
X100824000Y-42150000D03*
D10*
X102164000Y-42545000D03*
D15*
%TO.P,SW16,2,2*%
%TO.N,/COL 3*%
X95814000Y-39675000D03*
D16*
X97024000Y-39675000D03*
D17*
X97974000Y-39675000D03*
D18*
%TO.P,SW16,3,3*%
%TO.N,unconnected-(SW16-Pad3)_19*%
X94404000Y-51825000D03*
D12*
%TO.N,unconnected-(SW16-Pad3)*%
X94624000Y-43825000D03*
D10*
%TO.N,unconnected-(SW16-Pad3)_15*%
X95814000Y-45085000D03*
D13*
%TO.N,unconnected-(SW16-Pad3)_17*%
X95824000Y-51425000D03*
D19*
%TO.N,unconnected-(SW16-Pad3)_18*%
X96195000Y-46355000D03*
D20*
%TO.N,unconnected-(SW16-Pad3)_16*%
X96195000Y-50419000D03*
D21*
%TO.N,unconnected-(SW16-Pad3)_20*%
X96449001Y-48399445D03*
D22*
%TO.N,unconnected-(SW16-Pad3)_21*%
X99623998Y-51435000D03*
D17*
%TO.N,unconnected-(SW16-Pad3)_6*%
X101274000Y-39675000D03*
D16*
%TO.N,unconnected-(SW16-Pad3)_2*%
X102124000Y-39675000D03*
D21*
%TO.N,unconnected-(SW16-Pad3)_1*%
X102798999Y-48399445D03*
D23*
%TO.N,unconnected-(SW16-Pad3)_5*%
X103053000Y-46355000D03*
D24*
%TO.N,unconnected-(SW16-Pad3)_3*%
X103053000Y-50419000D03*
D13*
%TO.N,unconnected-(SW16-Pad3)_9*%
X103424000Y-51425000D03*
D25*
%TO.N,unconnected-(SW16-Pad3)_7*%
X103434000Y-39675000D03*
D10*
%TO.N,unconnected-(SW16-Pad3)_8*%
X103434000Y-45085000D03*
D26*
%TO.N,unconnected-(SW16-Pad3)_10*%
X103924000Y-40175000D03*
D12*
%TO.N,unconnected-(SW16-Pad3)_11*%
X104624000Y-43825000D03*
D27*
%TO.N,unconnected-(SW16-Pad3)_13*%
X104625500Y-42105025D03*
D18*
%TO.N,unconnected-(SW16-Pad3)_12*%
X104844000Y-51825000D03*
%TD*%
D10*
%TO.P,SW23,1,1*%
%TO.N,/ROW 3*%
X120896500Y-61595000D03*
D11*
X122136500Y-61200000D03*
D12*
X123436500Y-60775000D03*
D13*
X123436500Y-73175000D03*
D14*
X124636500Y-61200000D03*
D10*
X125976500Y-61595000D03*
D15*
%TO.P,SW23,2,2*%
%TO.N,/COL 4*%
X119626500Y-58725000D03*
D16*
X120836500Y-58725000D03*
D17*
X121786500Y-58725000D03*
D18*
%TO.P,SW23,3,3*%
%TO.N,unconnected-(SW23-Pad3)_10*%
X118216500Y-70875000D03*
D12*
%TO.N,unconnected-(SW23-Pad3)_5*%
X118436500Y-62875000D03*
D10*
%TO.N,unconnected-(SW23-Pad3)_11*%
X119626500Y-64135000D03*
D13*
%TO.N,unconnected-(SW23-Pad3)_9*%
X119636500Y-70475000D03*
D19*
%TO.N,unconnected-(SW23-Pad3)_16*%
X120007500Y-65405000D03*
D20*
%TO.N,unconnected-(SW23-Pad3)_2*%
X120007500Y-69469000D03*
D21*
%TO.N,unconnected-(SW23-Pad3)_17*%
X120261501Y-67449445D03*
D22*
%TO.N,unconnected-(SW23-Pad3)_8*%
X123436498Y-70485000D03*
D17*
%TO.N,unconnected-(SW23-Pad3)_3*%
X125086500Y-58725000D03*
D16*
%TO.N,unconnected-(SW23-Pad3)_4*%
X125936500Y-58725000D03*
D21*
%TO.N,unconnected-(SW23-Pad3)_20*%
X126611499Y-67449445D03*
D23*
%TO.N,unconnected-(SW23-Pad3)_14*%
X126865500Y-65405000D03*
D24*
%TO.N,unconnected-(SW23-Pad3)_18*%
X126865500Y-69469000D03*
D13*
%TO.N,unconnected-(SW23-Pad3)_12*%
X127236500Y-70475000D03*
D25*
%TO.N,unconnected-(SW23-Pad3)_6*%
X127246500Y-58725000D03*
D10*
%TO.N,unconnected-(SW23-Pad3)_13*%
X127246500Y-64135000D03*
D26*
%TO.N,unconnected-(SW23-Pad3)_1*%
X127736500Y-59225000D03*
D12*
%TO.N,unconnected-(SW23-Pad3)_15*%
X128436500Y-62875000D03*
D27*
%TO.N,unconnected-(SW23-Pad3)_19*%
X128438000Y-61155025D03*
D18*
%TO.N,unconnected-(SW23-Pad3)_7*%
X128656500Y-70875000D03*
%TD*%
D10*
%TO.P,SW19,1,1*%
%TO.N,/ROW 3*%
X37552750Y-61595000D03*
D11*
X38792750Y-61200000D03*
D12*
X40092750Y-60775000D03*
D13*
X40092750Y-73175000D03*
D14*
X41292750Y-61200000D03*
D10*
X42632750Y-61595000D03*
D15*
%TO.P,SW19,2,2*%
%TO.N,/COL 0*%
X36282750Y-58725000D03*
D16*
X37492750Y-58725000D03*
D17*
X38442750Y-58725000D03*
D18*
%TO.P,SW19,3,3*%
%TO.N,unconnected-(SW19-Pad3)_6*%
X34872750Y-70875000D03*
D12*
%TO.N,unconnected-(SW19-Pad3)_15*%
X35092750Y-62875000D03*
D10*
%TO.N,unconnected-(SW19-Pad3)_2*%
X36282750Y-64135000D03*
D13*
%TO.N,unconnected-(SW19-Pad3)_21*%
X36292750Y-70475000D03*
D19*
%TO.N,unconnected-(SW19-Pad3)*%
X36663750Y-65405000D03*
D20*
%TO.N,unconnected-(SW19-Pad3)_10*%
X36663750Y-69469000D03*
D21*
%TO.N,unconnected-(SW19-Pad3)_19*%
X36917751Y-67449445D03*
D22*
%TO.N,unconnected-(SW19-Pad3)_18*%
X40092748Y-70485000D03*
D17*
%TO.N,unconnected-(SW19-Pad3)_20*%
X41742750Y-58725000D03*
D16*
%TO.N,unconnected-(SW19-Pad3)_3*%
X42592750Y-58725000D03*
D21*
%TO.N,unconnected-(SW19-Pad3)_17*%
X43267749Y-67449445D03*
D23*
%TO.N,unconnected-(SW19-Pad3)_7*%
X43521750Y-65405000D03*
D24*
%TO.N,unconnected-(SW19-Pad3)_16*%
X43521750Y-69469000D03*
D13*
%TO.N,unconnected-(SW19-Pad3)_4*%
X43892750Y-70475000D03*
D25*
%TO.N,unconnected-(SW19-Pad3)_14*%
X43902750Y-58725000D03*
D10*
%TO.N,unconnected-(SW19-Pad3)_9*%
X43902750Y-64135000D03*
D26*
%TO.N,unconnected-(SW19-Pad3)_13*%
X44392750Y-59225000D03*
D12*
%TO.N,unconnected-(SW19-Pad3)_8*%
X45092750Y-62875000D03*
D27*
%TO.N,unconnected-(SW19-Pad3)_12*%
X45094250Y-61155025D03*
D18*
%TO.N,unconnected-(SW19-Pad3)_11*%
X45312750Y-70875000D03*
%TD*%
D10*
%TO.P,SW7,1,1*%
%TO.N,/ROW 1*%
X30409000Y-23495000D03*
D11*
X31649000Y-23100000D03*
D12*
X32949000Y-22675000D03*
D13*
X32949000Y-35075000D03*
D14*
X34149000Y-23100000D03*
D10*
X35489000Y-23495000D03*
D15*
%TO.P,SW7,2,2*%
%TO.N,/COL 0*%
X29139000Y-20625000D03*
D16*
X30349000Y-20625000D03*
D17*
X31299000Y-20625000D03*
D18*
%TO.P,SW7,3,3*%
%TO.N,unconnected-(SW7-Pad3)_10*%
X27729000Y-32775000D03*
D12*
%TO.N,unconnected-(SW7-Pad3)_18*%
X27949000Y-24775000D03*
D10*
%TO.N,unconnected-(SW7-Pad3)_13*%
X29139000Y-26035000D03*
D13*
%TO.N,unconnected-(SW7-Pad3)_11*%
X29149000Y-32375000D03*
D19*
%TO.N,unconnected-(SW7-Pad3)_1*%
X29520000Y-27305000D03*
D20*
%TO.N,unconnected-(SW7-Pad3)_17*%
X29520000Y-31369000D03*
D21*
%TO.N,unconnected-(SW7-Pad3)*%
X29774001Y-29349445D03*
D22*
%TO.N,unconnected-(SW7-Pad3)_14*%
X32948998Y-32385000D03*
D17*
%TO.N,unconnected-(SW7-Pad3)_19*%
X34599000Y-20625000D03*
D16*
%TO.N,unconnected-(SW7-Pad3)_3*%
X35449000Y-20625000D03*
D21*
%TO.N,unconnected-(SW7-Pad3)_12*%
X36123999Y-29349445D03*
D23*
%TO.N,unconnected-(SW7-Pad3)_20*%
X36378000Y-27305000D03*
D24*
%TO.N,unconnected-(SW7-Pad3)_9*%
X36378000Y-31369000D03*
D13*
%TO.N,unconnected-(SW7-Pad3)_6*%
X36749000Y-32375000D03*
D25*
%TO.N,unconnected-(SW7-Pad3)_15*%
X36759000Y-20625000D03*
D10*
%TO.N,unconnected-(SW7-Pad3)_2*%
X36759000Y-26035000D03*
D26*
%TO.N,unconnected-(SW7-Pad3)_4*%
X37249000Y-21125000D03*
D12*
%TO.N,unconnected-(SW7-Pad3)_21*%
X37949000Y-24775000D03*
D27*
%TO.N,unconnected-(SW7-Pad3)_8*%
X37950500Y-23055025D03*
D18*
%TO.N,unconnected-(SW7-Pad3)_16*%
X38169000Y-32775000D03*
%TD*%
D32*
%TO.P,SW37,1,1*%
%TO.N,Net-(U1-RST)*%
X8135000Y-38305000D03*
D33*
X8135000Y-38305000D03*
D32*
%TO.P,SW37,2,2*%
%TO.N,GND*%
X11535000Y-38305000D03*
D33*
X11535000Y-38305000D03*
%TD*%
D34*
%TO.N,/COL 5*%
X42742000Y-18288000D03*
X28574104Y-36279000D03*
%TO.N,/COL 4*%
X42728000Y-20828000D03*
X40732268Y-37454673D03*
%TO.N,/COL 3*%
X55533666Y-55775817D03*
X46726607Y-40034463D03*
%TO.N,/COL 2*%
X49191000Y-39991000D03*
X52888000Y-43688000D03*
%TO.N,/ROW 1*%
X23964000Y-10541000D03*
%TO.N,/ROW 4*%
X35108000Y-76708000D03*
%TO.N,/ROW 3*%
X32841046Y-58658954D03*
%TD*%
D35*
%TO.N,/COL 5*%
X130723100Y-40373900D02*
X131422000Y-39675000D01*
X30602225Y-38307121D02*
X41282879Y-38307121D01*
X122532000Y-1575000D02*
X124389000Y-1575000D01*
X124389000Y-18232000D02*
X120218200Y-14061200D01*
X44444100Y-35145900D02*
X44444100Y-20731100D01*
X42742000Y-19029000D02*
X42742000Y-18288000D01*
X137576500Y-58725000D02*
X130723100Y-51871600D01*
X120218200Y-3888800D02*
X122532000Y-1575000D01*
X44444100Y-20731100D02*
X42742000Y-19029000D01*
X120218200Y-22938800D02*
X122532000Y-20625000D01*
X130723100Y-51871600D02*
X130723100Y-40373900D01*
X120218200Y-14061200D02*
X120218200Y-3888800D01*
X28574104Y-36279000D02*
X30602225Y-38307121D01*
X120218200Y-32585800D02*
X120218200Y-22938800D01*
X124389000Y-20625000D02*
X124389000Y-18232000D01*
X122532000Y-20625000D02*
X124389000Y-20625000D01*
X41282879Y-38307121D02*
X44444100Y-35145900D01*
X138676500Y-58725000D02*
X137576500Y-58725000D01*
X133914000Y-39675000D02*
X127307400Y-39675000D01*
X127307400Y-39675000D02*
X120218200Y-32585800D01*
X131422000Y-39675000D02*
X133914000Y-39675000D01*
%TO.N,/COL 4*%
X102148100Y-21958900D02*
X102148100Y-32555392D01*
X111673100Y-52946100D02*
X117452000Y-58725000D01*
X117452000Y-58725000D02*
X116435600Y-59741400D01*
X109267708Y-39675000D02*
X114864000Y-39675000D01*
X125960600Y-79011400D02*
X125960600Y-93634100D01*
X112372000Y-39675000D02*
X111673100Y-40373900D01*
X119626500Y-58725000D02*
X117452000Y-58725000D01*
X105339000Y-20625000D02*
X103482000Y-20625000D01*
X105339000Y-1575000D02*
X103482000Y-1575000D01*
X41472000Y-36714941D02*
X41472000Y-22084000D01*
X102148100Y-32555392D02*
X109267708Y-39675000D01*
X103482000Y-1575000D02*
X102148100Y-2908900D01*
X40732268Y-37454673D02*
X41472000Y-36714941D01*
X41472000Y-22084000D02*
X42728000Y-20828000D01*
X103482000Y-20625000D02*
X102148100Y-21958900D01*
X116435600Y-59741400D02*
X116435600Y-71873600D01*
X102148100Y-2908900D02*
X102148100Y-19291100D01*
X125960600Y-93634100D02*
X129151500Y-96825000D01*
X116435600Y-71873600D02*
X122337000Y-77775000D01*
X122337000Y-77775000D02*
X129151500Y-77775000D01*
X127197000Y-77775000D02*
X125960600Y-79011400D01*
X114864000Y-39675000D02*
X112372000Y-39675000D01*
X102148100Y-19291100D02*
X103482000Y-20625000D01*
X129151500Y-77775000D02*
X127197000Y-77775000D01*
X111673100Y-40373900D02*
X111673100Y-52946100D01*
%TO.N,/COL 3*%
X85067000Y-1575000D02*
X86289000Y-1575000D01*
X92623100Y-52311100D02*
X92623100Y-40373900D01*
X106657000Y-77775000D02*
X110101500Y-77775000D01*
X110101500Y-77775000D02*
X103896104Y-77775000D01*
X92623100Y-40373900D02*
X93322000Y-39675000D01*
X98195250Y-95126750D02*
X104978200Y-88343800D01*
X99037000Y-58725000D02*
X92623100Y-52311100D01*
X86667400Y-39675000D02*
X82118200Y-35125800D01*
X97358200Y-71237096D02*
X97358200Y-60403800D01*
X47808000Y-41115856D02*
X47808000Y-48050151D01*
X82118200Y-22938800D02*
X84432000Y-20625000D01*
X103896104Y-77775000D02*
X97358200Y-71237096D01*
X93322000Y-39675000D02*
X95814000Y-39675000D01*
X104978200Y-88343800D02*
X104978200Y-79453800D01*
X84432000Y-20625000D02*
X83098100Y-19291100D01*
X95814000Y-39675000D02*
X86667400Y-39675000D01*
X84432000Y-20625000D02*
X86289000Y-20625000D01*
X46726607Y-40034463D02*
X47808000Y-41115856D01*
X98195250Y-96825000D02*
X98195250Y-95126750D01*
X47808000Y-48050151D02*
X55533666Y-55775817D01*
X82118200Y-35125800D02*
X82118200Y-22938800D01*
X104978200Y-79453800D02*
X106657000Y-77775000D01*
X83098100Y-3543900D02*
X85067000Y-1575000D01*
X97358200Y-60403800D02*
X99037000Y-58725000D01*
X99037000Y-58725000D02*
X100576500Y-58725000D01*
X83098100Y-19291100D02*
X83098100Y-3543900D01*
%TO.N,/COL 2*%
X64048100Y-32555392D02*
X71167708Y-39675000D01*
X84658200Y-78572008D02*
X84658200Y-89613800D01*
X71167708Y-39675000D02*
X76764000Y-39675000D01*
X74272000Y-39675000D02*
X73573100Y-40373900D01*
X77038200Y-61038800D02*
X77038200Y-69967096D01*
X73573100Y-52946100D02*
X79352000Y-58725000D01*
X64048100Y-21323900D02*
X64048100Y-32555392D01*
X67239000Y-1575000D02*
X65382000Y-1575000D01*
X85455208Y-77775000D02*
X84658200Y-78572008D01*
X49191000Y-39991000D02*
X52888000Y-43688000D01*
X67239000Y-20625000D02*
X64747000Y-20625000D01*
X84658200Y-89613800D02*
X77447000Y-96825000D01*
X77038200Y-69967096D02*
X84846104Y-77775000D01*
X81526500Y-58725000D02*
X79352000Y-58725000D01*
X65382000Y-1575000D02*
X64048100Y-2908900D01*
X79352000Y-58725000D02*
X77038200Y-61038800D01*
X84846104Y-77775000D02*
X85455208Y-77775000D01*
X85455208Y-77775000D02*
X91051500Y-77775000D01*
X64048100Y-19926100D02*
X64747000Y-20625000D01*
X64048100Y-2908900D02*
X64048100Y-19926100D01*
X77447000Y-96825000D02*
X76542750Y-96825000D01*
X76764000Y-39675000D02*
X74272000Y-39675000D01*
X73573100Y-40373900D02*
X73573100Y-52946100D01*
X64747000Y-20625000D02*
X64048100Y-21323900D01*
%TO.N,/COL 1*%
X46332000Y-1575000D02*
X48189000Y-1575000D01*
X44998100Y-2908900D02*
X46332000Y-1575000D01*
X54178200Y-40718800D02*
X55222000Y-39675000D01*
X60302000Y-58725000D02*
X54178200Y-52601200D01*
X52117708Y-39675000D02*
X44998100Y-32555392D01*
X59258200Y-71237096D02*
X59258200Y-59768800D01*
X44998100Y-19291100D02*
X44998100Y-2908900D01*
X46332000Y-20625000D02*
X44998100Y-19291100D01*
X59258200Y-59768800D02*
X60302000Y-58725000D01*
X44998100Y-32555392D02*
X44998100Y-21958900D01*
X65796104Y-77775000D02*
X59258200Y-71237096D01*
X46332000Y-20625000D02*
X48189000Y-20625000D01*
X60302000Y-58725000D02*
X62476500Y-58725000D01*
X69620250Y-77775000D02*
X72001500Y-77775000D01*
X57714000Y-39675000D02*
X52117708Y-39675000D01*
X54178200Y-52601200D02*
X54178200Y-40718800D01*
X44998100Y-21958900D02*
X46332000Y-20625000D01*
X72001500Y-77775000D02*
X65796104Y-77775000D01*
X50570250Y-96825000D02*
X69620250Y-77775000D01*
X55222000Y-39675000D02*
X57714000Y-39675000D01*
%TO.N,/COL 0*%
X36282750Y-58725000D02*
X33091850Y-61915900D01*
X31387500Y-51367708D02*
X31387500Y-53829750D01*
X29139000Y-1575000D02*
X27282000Y-1575000D01*
X30833076Y-39675000D02*
X33901500Y-39675000D01*
X30710600Y-41765900D02*
X30710600Y-50690808D01*
X27770104Y-36612028D02*
X30833076Y-39675000D01*
X38407400Y-77775000D02*
X41045250Y-77775000D01*
X25948100Y-2908900D02*
X25948100Y-17434100D01*
X29139000Y-20625000D02*
X25948100Y-23815900D01*
X27770104Y-36582463D02*
X27770104Y-36612028D01*
X33901500Y-39675000D02*
X32801500Y-39675000D01*
X32801500Y-39675000D02*
X30710600Y-41765900D01*
X27282000Y-1575000D02*
X25948100Y-2908900D01*
X35108000Y-81074400D02*
X35108000Y-93016000D01*
X38407400Y-77775000D02*
X35108000Y-81074400D01*
X33091850Y-61915900D02*
X33091850Y-72459450D01*
X31387500Y-53829750D02*
X36282750Y-58725000D01*
X25948100Y-23815900D02*
X25948100Y-34760459D01*
X33091850Y-72459450D02*
X38407400Y-77775000D01*
X25948100Y-17434100D02*
X29139000Y-20625000D01*
X25948100Y-34760459D02*
X27770104Y-36582463D01*
X30710600Y-50690808D02*
X31387500Y-51367708D01*
X35108000Y-93016000D02*
X31299000Y-96825000D01*
%TO.N,/ROW 1*%
X23964000Y-10541000D02*
X23964000Y-8298626D01*
X22015370Y-6349996D02*
X20884000Y-6349996D01*
X23964000Y-8298626D02*
X22015370Y-6349996D01*
%TO.N,/ROW 4*%
X29602600Y-71202600D02*
X35108000Y-76708000D01*
X24739071Y-35147943D02*
X29602600Y-40011472D01*
X20884000Y-21589996D02*
X24739071Y-25445067D01*
X29602600Y-40011472D02*
X29602600Y-71202600D01*
X24739071Y-25445067D02*
X24739071Y-35147943D01*
%TO.N,/ROW 5*%
X24185071Y-35377417D02*
X29048600Y-40240946D01*
X27255352Y-91164648D02*
X27255352Y-98069406D01*
X29048600Y-89371400D02*
X27255352Y-91164648D01*
X24185071Y-27431067D02*
X24185071Y-35377417D01*
X27255352Y-98069406D02*
X28880946Y-99695000D01*
X29048600Y-40240946D02*
X29048600Y-89371400D01*
X28880946Y-99695000D02*
X30409000Y-99695000D01*
X20884000Y-24129996D02*
X24185071Y-27431067D01*
%TO.N,GND*%
X2850000Y-34188857D02*
X2850000Y-13829000D01*
X11535000Y-40465000D02*
X10500000Y-41500000D01*
X11535000Y-38305000D02*
X11535000Y-40465000D01*
X21870000Y-7620000D02*
X19360000Y-7620000D01*
X11535000Y-38305000D02*
X11535000Y-37035000D01*
X10695000Y-36195000D02*
X4856143Y-36195000D01*
X5644000Y-8889996D02*
X3389996Y-8889996D01*
X22500000Y-9813996D02*
X22500000Y-8540000D01*
X2960000Y-2540000D02*
X4120000Y-2540000D01*
X22500000Y-8540000D02*
X22500000Y-8250000D01*
X2500000Y-3000000D02*
X2960000Y-2540000D01*
X20884000Y-11429996D02*
X22500000Y-9813996D01*
X3979000Y-12700000D02*
X4120000Y-12700000D01*
X22500000Y-8250000D02*
X21870000Y-7620000D01*
X20884000Y-13969996D02*
X22500000Y-12353996D01*
X4856143Y-36195000D02*
X2850000Y-34188857D01*
X2850000Y-13829000D02*
X3979000Y-12700000D01*
X2500000Y-8000000D02*
X2500000Y-3000000D01*
X22500000Y-12353996D02*
X22500000Y-8540000D01*
X3389996Y-8889996D02*
X2500000Y-8000000D01*
X11535000Y-37035000D02*
X10695000Y-36195000D01*
%TO.N,Net-(U1-RST)*%
X2296000Y-34418331D02*
X6182669Y-38305000D01*
X2296000Y-12619000D02*
X2296000Y-34418331D01*
X3485004Y-11429996D02*
X2296000Y-12619000D01*
X5644000Y-11429996D02*
X3485004Y-11429996D01*
X6182669Y-38305000D02*
X8135000Y-38305000D01*
%TO.N,/ROW 3*%
X25293071Y-23459067D02*
X20884000Y-19049996D01*
X32841046Y-58658954D02*
X30156600Y-55974508D01*
X30156600Y-55974508D02*
X30156600Y-39781998D01*
X25293071Y-34918469D02*
X25293071Y-23459067D01*
X30156600Y-39781998D02*
X25293071Y-34918469D01*
%TD*%
M02*
