M48
; DRILL file {KiCad 8.0.6} date 2025-05-11T12:33:26+0900
; FORMAT={-:-/ absolute / inch / decimal}
; #@! TF.CreationDate,2025-05-11T12:33:26+09:00
; #@! TF.GenerationSoftware,Kicad,Pcbnew,8.0.6
; #@! TF.FileFunction,Plated,1,2,PTH
FMAT,2
INCH
; #@! TA.AperFunction,Plated,PTH,ComponentDrill
T1C0.0138
; #@! TA.AperFunction,Plated,PTH,ViaDrill
T2C0.0157
; #@! TA.AperFunction,Plated,PTH,ComponentDrill
T3C0.0315
; #@! TA.AperFunction,Plated,PTH,ComponentDrill
T4C0.0390
; #@! TA.AperFunction,Plated,PTH,ComponentDrill
T5C0.0394
; #@! TA.AperFunction,Plated,PTH,ComponentDrill
T6C0.0433
; #@! TA.AperFunction,Plated,PTH,ComponentDrill
T7C0.0472
; #@! TA.AperFunction,Plated,PTH,ComponentDrill
T8C0.0500
; #@! TA.AperFunction,Plated,PTH,ComponentDrill
T9C0.0591
%
G90
G05
T1
X0.3203Y-1.5081
X0.4541Y-1.5081
T2
X0.9435Y-0.415
X1.125Y-1.4283
X1.293Y-2.3094
X1.3822Y-3.02
X1.6036Y-1.4746
X1.6822Y-0.82
X1.6828Y-0.72
X1.8396Y-1.5762
X1.9367Y-1.5744
X2.0822Y-1.72
X2.1864Y-2.1959
T3
X1.1472Y-0.062
X1.1472Y-0.812
X1.1472Y-3.812
X1.3347Y-1.562
X1.4285Y-2.312
X1.4472Y-0.062
X1.4472Y-0.812
X1.4472Y-3.812
X1.616Y-3.062
X1.6347Y-1.562
X1.7285Y-2.312
X1.8972Y-0.062
X1.8972Y-0.812
X1.916Y-3.062
X1.991Y-3.812
X2.1972Y-0.062
X2.1972Y-0.812
X2.2722Y-1.562
X2.291Y-3.812
X2.4597Y-2.312
X2.5722Y-1.562
X2.6472Y-0.062
X2.6472Y-0.812
X2.7597Y-2.312
X2.8347Y-3.062
X2.9285Y-3.812
X2.9472Y-0.062
X2.9472Y-0.812
X3.0222Y-1.562
X3.1347Y-3.062
X3.2097Y-2.312
X3.2285Y-3.812
X3.3222Y-1.562
X3.3972Y-0.062
X3.3972Y-0.812
X3.5097Y-2.312
X3.5847Y-3.062
X3.6972Y-0.062
X3.6972Y-0.812
X3.7722Y-1.562
X3.866Y-3.812
X3.8847Y-3.062
X3.9597Y-2.312
X4.0722Y-1.562
X4.1472Y-0.062
X4.1472Y-0.812
X4.166Y-3.812
X4.2597Y-2.312
X4.3347Y-3.062
X4.4472Y-0.062
X4.4472Y-0.812
X4.5222Y-1.562
X4.6347Y-3.062
X4.7097Y-2.312
X4.8222Y-1.562
X4.8972Y-0.062
X4.8972Y-0.812
X5.0097Y-2.312
X5.0847Y-3.062
X5.0847Y-3.812
X5.1972Y-0.062
X5.1972Y-0.812
X5.2722Y-1.562
X5.3847Y-3.062
X5.3847Y-3.812
X5.4597Y-2.312
X5.5722Y-1.562
X5.7597Y-2.312
T4
X1.0917Y-0.5404
X1.0917Y-1.2904
X1.0917Y-4.2904
X1.2792Y-2.0404
X1.3729Y-2.7904
X1.5027Y-0.5404
X1.5027Y-1.2904
X1.5027Y-4.2904
X1.5604Y-3.5404
X1.6902Y-2.0404
X1.784Y-2.7904
X1.8417Y-0.5404
X1.8417Y-1.2904
X1.9354Y-4.2904
X1.9715Y-3.5404
X2.2167Y-2.0404
X2.2527Y-0.5404
X2.2527Y-1.2904
X2.3465Y-4.2904
X2.4042Y-2.7904
X2.5917Y-0.5404
X2.5917Y-1.2904
X2.6277Y-2.0404
X2.7792Y-3.5404
X2.8152Y-2.7904
X2.8729Y-4.2904
X2.9667Y-2.0404
X3.0027Y-0.5404
X3.0027Y-1.2904
X3.1542Y-2.7904
X3.1902Y-3.5404
X3.284Y-4.2904
X3.3417Y-0.5404
X3.3417Y-1.2904
X3.3777Y-2.0404
X3.5292Y-3.5404
X3.5652Y-2.7904
X3.7167Y-2.0404
X3.7527Y-0.5404
X3.7527Y-1.2904
X3.8104Y-4.2904
X3.9042Y-2.7904
X3.9402Y-3.5404
X4.0917Y-0.5404
X4.0917Y-1.2904
X4.1277Y-2.0404
X4.2215Y-4.2904
X4.2792Y-3.5404
X4.3152Y-2.7904
X4.4667Y-2.0404
X4.5027Y-0.5404
X4.5027Y-1.2904
X4.6542Y-2.7904
X4.6902Y-3.5404
X4.8417Y-0.5404
X4.8417Y-1.2904
X4.8777Y-2.0404
X5.0292Y-3.5404
X5.0292Y-4.2904
X5.0652Y-2.7904
X5.2167Y-2.0404
X5.2527Y-0.5404
X5.2527Y-1.2904
X5.4042Y-2.7904
X5.4402Y-3.5404
X5.4402Y-4.2904
X5.6277Y-2.0404
X5.8152Y-2.7904
T5
X0.4134Y-1.6339
X0.6693Y-1.6339
T6
X0.1622Y-0.1
X0.1622Y-0.2
X0.1622Y-0.3
X0.1622Y-0.4
X0.1622Y-0.5
X0.1622Y-0.6
X0.1622Y-0.7
X0.1622Y-0.8
X0.1622Y-0.9
X0.1622Y-1.0
X0.1622Y-1.1
X0.1622Y-1.2
X0.1622Y-1.3
X0.2222Y-0.15
X0.2222Y-0.25
X0.2222Y-0.35
X0.2222Y-0.45
X0.2222Y-0.55
X0.2222Y-0.65
X0.2222Y-0.75
X0.2222Y-0.85
X0.2222Y-0.95
X0.2222Y-1.05
X0.2222Y-1.15
X0.2222Y-1.25
X0.2222Y-1.35
X0.7622Y-0.1
X0.7622Y-0.2
X0.7622Y-0.3
X0.7622Y-0.4
X0.7622Y-0.5
X0.7622Y-0.6
X0.7622Y-0.7
X0.7622Y-0.8
X0.7622Y-0.9
X0.7622Y-1.0
X0.7622Y-1.1
X0.7622Y-1.2
X0.7622Y-1.3
X0.8222Y-0.15
X0.8222Y-0.25
X0.8222Y-0.35
X0.8222Y-0.45
X0.8222Y-0.55
X0.8222Y-0.65
X0.8222Y-0.75
X0.8222Y-0.85
X0.8222Y-0.95
X0.8222Y-1.05
X0.8222Y-1.15
X0.8222Y-1.25
X0.8222Y-1.35
T7
X1.1476Y-0.5246
X1.1476Y-1.2746
X1.1476Y-4.2746
X1.2972Y-0.6309
X1.2972Y-1.3809
X1.2972Y-4.3809
X1.3351Y-2.0246
X1.4288Y-2.7746
X1.4468Y-0.5246
X1.4468Y-1.2746
X1.4468Y-4.2746
X1.4847Y-2.1309
X1.5785Y-2.8809
X1.6163Y-3.5246
X1.6343Y-2.0246
X1.7281Y-2.7746
X1.766Y-3.6309
X1.8976Y-0.5246
X1.8976Y-1.2746
X1.9156Y-3.5246
X1.9913Y-4.2746
X2.0472Y-0.6309
X2.0472Y-1.3809
X2.141Y-4.3809
X2.1968Y-0.5246
X2.1968Y-1.2746
X2.2726Y-2.0246
X2.2906Y-4.2746
X2.4222Y-2.1309
X2.4601Y-2.7746
X2.5718Y-2.0246
X2.6097Y-2.8809
X2.6476Y-0.5246
X2.6476Y-1.2746
X2.7593Y-2.7746
X2.7972Y-0.6309
X2.7972Y-1.3809
X2.8351Y-3.5246
X2.9288Y-4.2746
X2.9468Y-0.5246
X2.9468Y-1.2746
X2.9847Y-3.6309
X3.0226Y-2.0246
X3.0785Y-4.3809
X3.1343Y-3.5246
X3.1722Y-2.1309
X3.2101Y-2.7746
X3.2281Y-4.2746
X3.3218Y-2.0246
X3.3597Y-2.8809
X3.3976Y-0.5246
X3.3976Y-1.2746
X3.5093Y-2.7746
X3.5472Y-0.6309
X3.5472Y-1.3809
X3.5851Y-3.5246
X3.6968Y-0.5246
X3.6968Y-1.2746
X3.7347Y-3.6309
X3.7726Y-2.0246
X3.8663Y-4.2746
X3.8843Y-3.5246
X3.9222Y-2.1309
X3.9601Y-2.7746
X4.016Y-4.3809
X4.0718Y-2.0246
X4.1097Y-2.8809
X4.1476Y-0.5246
X4.1476Y-1.2746
X4.1656Y-4.2746
X4.2593Y-2.7746
X4.2972Y-0.6309
X4.2972Y-1.3809
X4.3351Y-3.5246
X4.4468Y-0.5246
X4.4468Y-1.2746
X4.4847Y-3.6309
X4.5226Y-2.0246
X4.6343Y-3.5246
X4.6722Y-2.1309
X4.7101Y-2.7746
X4.8218Y-2.0246
X4.8597Y-2.8809
X4.8976Y-0.5246
X4.8976Y-1.2746
X5.0093Y-2.7746
X5.0472Y-0.6309
X5.0472Y-1.3809
X5.0851Y-3.5246
X5.0851Y-4.2746
X5.1968Y-0.5246
X5.1968Y-1.2746
X5.2347Y-3.6309
X5.2347Y-4.3809
X5.2726Y-2.0246
X5.3843Y-3.5246
X5.3843Y-4.2746
X5.4222Y-2.1309
X5.4601Y-2.7746
X5.5718Y-2.0246
X5.6097Y-2.8809
X5.7593Y-2.7746
T8
X1.1004Y-0.2254
X1.1004Y-0.9754
X1.1004Y-3.9754
X1.2879Y-1.7254
X1.2972Y-0.1427
X1.2972Y-0.8927
X1.2972Y-3.8927
X1.3816Y-2.4754
X1.4847Y-1.6427
X1.4941Y-0.2254
X1.4941Y-0.9754
X1.4941Y-3.9754
X1.5691Y-3.2254
X1.5785Y-2.3927
X1.6816Y-1.7254
X1.766Y-3.1427
X1.7753Y-2.4754
X1.8504Y-0.2254
X1.8504Y-0.9754
X1.9441Y-3.9754
X1.9628Y-3.2254
X2.0472Y-0.1427
X2.0472Y-0.8927
X2.141Y-3.8927
X2.2254Y-1.7254
X2.2441Y-0.2254
X2.2441Y-0.9754
X2.3378Y-3.9754
X2.4129Y-2.4754
X2.4222Y-1.6427
X2.6004Y-0.2254
X2.6004Y-0.9754
X2.6097Y-2.3927
X2.6191Y-1.7254
X2.7879Y-3.2254
X2.7972Y-0.1427
X2.7972Y-0.8927
X2.8066Y-2.4754
X2.8816Y-3.9754
X2.9754Y-1.7254
X2.9847Y-3.1427
X2.9941Y-0.2254
X2.9941Y-0.9754
X3.0785Y-3.8927
X3.1629Y-2.4754
X3.1722Y-1.6427
X3.1816Y-3.2254
X3.2753Y-3.9754
X3.3504Y-0.2254
X3.3504Y-0.9754
X3.3597Y-2.3927
X3.3691Y-1.7254
X3.5379Y-3.2254
X3.5472Y-0.1427
X3.5472Y-0.8927
X3.5566Y-2.4754
X3.7254Y-1.7254
X3.7347Y-3.1427
X3.7441Y-0.2254
X3.7441Y-0.9754
X3.8191Y-3.9754
X3.9129Y-2.4754
X3.9222Y-1.6427
X3.9316Y-3.2254
X4.016Y-3.8927
X4.1004Y-0.2254
X4.1004Y-0.9754
X4.1097Y-2.3927
X4.1191Y-1.7254
X4.2128Y-3.9754
X4.2879Y-3.2254
X4.2972Y-0.1427
X4.2972Y-0.8927
X4.3066Y-2.4754
X4.4754Y-1.7254
X4.4847Y-3.1427
X4.4941Y-0.2254
X4.4941Y-0.9754
X4.6629Y-2.4754
X4.6722Y-1.6427
X4.6816Y-3.2254
X4.8504Y-0.2254
X4.8504Y-0.9754
X4.8597Y-2.3927
X4.8691Y-1.7254
X5.0379Y-3.2254
X5.0379Y-3.9754
X5.0472Y-0.1427
X5.0472Y-0.8927
X5.0566Y-2.4754
X5.2254Y-1.7254
X5.2347Y-3.1427
X5.2347Y-3.8927
X5.2441Y-0.2254
X5.2441Y-0.9754
X5.4129Y-2.4754
X5.4222Y-1.6427
X5.4316Y-3.2254
X5.4316Y-3.9754
X5.6097Y-2.3927
X5.6191Y-1.7254
X5.8066Y-2.4754
T9
X1.1472Y-0.275
X1.1472Y-1.025
X1.1472Y-4.025
X1.1972Y-0.175
X1.1972Y-0.925
X1.1972Y-3.925
X1.3347Y-1.775
X1.3847Y-1.675
X1.3972Y-0.175
X1.3972Y-0.925
X1.3972Y-3.925
X1.4285Y-2.525
X1.4472Y-0.275
X1.4472Y-1.025
X1.4472Y-4.025
X1.4785Y-2.425
X1.5847Y-1.675
X1.616Y-3.275
X1.6347Y-1.775
X1.666Y-3.175
X1.6785Y-2.425
X1.7285Y-2.525
X1.866Y-3.175
X1.8972Y-0.275
X1.8972Y-1.025
X1.916Y-3.275
X1.9472Y-0.175
X1.9472Y-0.925
X1.991Y-4.025
X2.041Y-3.925
X2.1472Y-0.175
X2.1472Y-0.925
X2.1972Y-0.275
X2.1972Y-1.025
X2.241Y-3.925
X2.2722Y-1.775
X2.291Y-4.025
X2.3222Y-1.675
X2.4597Y-2.525
X2.5097Y-2.425
X2.5222Y-1.675
X2.5722Y-1.775
X2.6472Y-0.275
X2.6472Y-1.025
X2.6972Y-0.175
X2.6972Y-0.925
X2.7097Y-2.425
X2.7597Y-2.525
X2.8347Y-3.275
X2.8847Y-3.175
X2.8972Y-0.175
X2.8972Y-0.925
X2.9285Y-4.025
X2.9472Y-0.275
X2.9472Y-1.025
X2.9785Y-3.925
X3.0222Y-1.775
X3.0722Y-1.675
X3.0847Y-3.175
X3.1347Y-3.275
X3.1785Y-3.925
X3.2097Y-2.525
X3.2285Y-4.025
X3.2597Y-2.425
X3.2722Y-1.675
X3.3222Y-1.775
X3.3972Y-0.275
X3.3972Y-1.025
X3.4472Y-0.175
X3.4472Y-0.925
X3.4597Y-2.425
X3.5097Y-2.525
X3.5847Y-3.275
X3.6347Y-3.175
X3.6472Y-0.175
X3.6472Y-0.925
X3.6972Y-0.275
X3.6972Y-1.025
X3.7722Y-1.775
X3.8222Y-1.675
X3.8347Y-3.175
X3.866Y-4.025
X3.8847Y-3.275
X3.916Y-3.925
X3.9597Y-2.525
X4.0097Y-2.425
X4.0222Y-1.675
X4.0722Y-1.775
X4.116Y-3.925
X4.1472Y-0.275
X4.1472Y-1.025
X4.166Y-4.025
X4.1972Y-0.175
X4.1972Y-0.925
X4.2097Y-2.425
X4.2597Y-2.525
X4.3347Y-3.275
X4.3847Y-3.175
X4.3972Y-0.175
X4.3972Y-0.925
X4.4472Y-0.275
X4.4472Y-1.025
X4.5222Y-1.775
X4.5722Y-1.675
X4.5847Y-3.175
X4.6347Y-3.275
X4.7097Y-2.525
X4.7597Y-2.425
X4.7722Y-1.675
X4.8222Y-1.775
X4.8972Y-0.275
X4.8972Y-1.025
X4.9472Y-0.175
X4.9472Y-0.925
X4.9597Y-2.425
X5.0097Y-2.525
X5.0847Y-3.275
X5.0847Y-4.025
X5.1347Y-3.175
X5.1347Y-3.925
X5.1472Y-0.175
X5.1472Y-0.925
X5.1972Y-0.275
X5.1972Y-1.025
X5.2722Y-1.775
X5.3222Y-1.675
X5.3347Y-3.175
X5.3347Y-3.925
X5.3847Y-3.275
X5.3847Y-4.025
X5.4597Y-2.525
X5.5097Y-2.425
X5.5222Y-1.675
X5.5722Y-1.775
X5.7097Y-2.425
X5.7597Y-2.525
M30
