%TF.GenerationSoftware,KiCad,Pcbnew,8.0.6*%
%TF.CreationDate,2025-05-11T12:33:19+09:00*%
%TF.ProjectId,65_split_left,36355f73-706c-4697-945f-6c6566742e6b,rev?*%
%TF.SameCoordinates,PX12f0318PYf8a778*%
%TF.FileFunction,Legend,Top*%
%TF.FilePolarity,Positive*%
%FSLAX46Y46*%
G04 Gerber Fmt 4.6, Leading zero omitted, Abs format (unit mm)*
G04 Created by KiCad (PCBNEW 8.0.6) date 2025-05-11 12:33:19*
%MOMM*%
%LPD*%
G01*
G04 APERTURE LIST*
%ADD10C,0.150000*%
%ADD11C,0.200000*%
%ADD12C,0.120000*%
%ADD13C,0.500000*%
G04 APERTURE END LIST*
D10*
X6738095Y-42002438D02*
X6642857Y-41954819D01*
X6642857Y-41954819D02*
X6500000Y-41954819D01*
X6500000Y-41954819D02*
X6357143Y-42002438D01*
X6357143Y-42002438D02*
X6261905Y-42097676D01*
X6261905Y-42097676D02*
X6214286Y-42192914D01*
X6214286Y-42192914D02*
X6166667Y-42383390D01*
X6166667Y-42383390D02*
X6166667Y-42526247D01*
X6166667Y-42526247D02*
X6214286Y-42716723D01*
X6214286Y-42716723D02*
X6261905Y-42811961D01*
X6261905Y-42811961D02*
X6357143Y-42907200D01*
X6357143Y-42907200D02*
X6500000Y-42954819D01*
X6500000Y-42954819D02*
X6595238Y-42954819D01*
X6595238Y-42954819D02*
X6738095Y-42907200D01*
X6738095Y-42907200D02*
X6785714Y-42859580D01*
X6785714Y-42859580D02*
X6785714Y-42526247D01*
X6785714Y-42526247D02*
X6595238Y-42526247D01*
X7214286Y-42954819D02*
X7214286Y-41954819D01*
X7214286Y-41954819D02*
X7785714Y-42954819D01*
X7785714Y-42954819D02*
X7785714Y-41954819D01*
X8261905Y-42954819D02*
X8261905Y-41954819D01*
X8261905Y-41954819D02*
X8500000Y-41954819D01*
X8500000Y-41954819D02*
X8642857Y-42002438D01*
X8642857Y-42002438D02*
X8738095Y-42097676D01*
X8738095Y-42097676D02*
X8785714Y-42192914D01*
X8785714Y-42192914D02*
X8833333Y-42383390D01*
X8833333Y-42383390D02*
X8833333Y-42526247D01*
X8833333Y-42526247D02*
X8785714Y-42716723D01*
X8785714Y-42716723D02*
X8738095Y-42811961D01*
X8738095Y-42811961D02*
X8642857Y-42907200D01*
X8642857Y-42907200D02*
X8500000Y-42954819D01*
X8500000Y-42954819D02*
X8261905Y-42954819D01*
X15261904Y-39431009D02*
X15404761Y-39478628D01*
X15404761Y-39478628D02*
X15452380Y-39526247D01*
X15452380Y-39526247D02*
X15499999Y-39621485D01*
X15499999Y-39621485D02*
X15499999Y-39764342D01*
X15499999Y-39764342D02*
X15452380Y-39859580D01*
X15452380Y-39859580D02*
X15404761Y-39907200D01*
X15404761Y-39907200D02*
X15309523Y-39954819D01*
X15309523Y-39954819D02*
X14928571Y-39954819D01*
X14928571Y-39954819D02*
X14928571Y-38954819D01*
X14928571Y-38954819D02*
X15261904Y-38954819D01*
X15261904Y-38954819D02*
X15357142Y-39002438D01*
X15357142Y-39002438D02*
X15404761Y-39050057D01*
X15404761Y-39050057D02*
X15452380Y-39145295D01*
X15452380Y-39145295D02*
X15452380Y-39240533D01*
X15452380Y-39240533D02*
X15404761Y-39335771D01*
X15404761Y-39335771D02*
X15357142Y-39383390D01*
X15357142Y-39383390D02*
X15261904Y-39431009D01*
X15261904Y-39431009D02*
X14928571Y-39431009D01*
X15880952Y-39669104D02*
X16357142Y-39669104D01*
X15785714Y-39954819D02*
X16119047Y-38954819D01*
X16119047Y-38954819D02*
X16452380Y-39954819D01*
X16642857Y-38954819D02*
X17214285Y-38954819D01*
X16928571Y-39954819D02*
X16928571Y-38954819D01*
X17404762Y-38954819D02*
X17976190Y-38954819D01*
X17690476Y-39954819D02*
X17690476Y-38954819D01*
X18309524Y-39573866D02*
X19071429Y-39573866D01*
X18690476Y-39954819D02*
X18690476Y-39192914D01*
X80513226Y-113192200D02*
X80656083Y-113239819D01*
X80656083Y-113239819D02*
X80894178Y-113239819D01*
X80894178Y-113239819D02*
X80989416Y-113192200D01*
X80989416Y-113192200D02*
X81037035Y-113144580D01*
X81037035Y-113144580D02*
X81084654Y-113049342D01*
X81084654Y-113049342D02*
X81084654Y-112954104D01*
X81084654Y-112954104D02*
X81037035Y-112858866D01*
X81037035Y-112858866D02*
X80989416Y-112811247D01*
X80989416Y-112811247D02*
X80894178Y-112763628D01*
X80894178Y-112763628D02*
X80703702Y-112716009D01*
X80703702Y-112716009D02*
X80608464Y-112668390D01*
X80608464Y-112668390D02*
X80560845Y-112620771D01*
X80560845Y-112620771D02*
X80513226Y-112525533D01*
X80513226Y-112525533D02*
X80513226Y-112430295D01*
X80513226Y-112430295D02*
X80560845Y-112335057D01*
X80560845Y-112335057D02*
X80608464Y-112287438D01*
X80608464Y-112287438D02*
X80703702Y-112239819D01*
X80703702Y-112239819D02*
X80941797Y-112239819D01*
X80941797Y-112239819D02*
X81084654Y-112287438D01*
X81417988Y-112239819D02*
X81656083Y-113239819D01*
X81656083Y-113239819D02*
X81846559Y-112525533D01*
X81846559Y-112525533D02*
X82037035Y-113239819D01*
X82037035Y-113239819D02*
X82275131Y-112239819D01*
X82560845Y-112239819D02*
X83179892Y-112239819D01*
X83179892Y-112239819D02*
X82846559Y-112620771D01*
X82846559Y-112620771D02*
X82989416Y-112620771D01*
X82989416Y-112620771D02*
X83084654Y-112668390D01*
X83084654Y-112668390D02*
X83132273Y-112716009D01*
X83132273Y-112716009D02*
X83179892Y-112811247D01*
X83179892Y-112811247D02*
X83179892Y-113049342D01*
X83179892Y-113049342D02*
X83132273Y-113144580D01*
X83132273Y-113144580D02*
X83084654Y-113192200D01*
X83084654Y-113192200D02*
X82989416Y-113239819D01*
X82989416Y-113239819D02*
X82703702Y-113239819D01*
X82703702Y-113239819D02*
X82608464Y-113192200D01*
X82608464Y-113192200D02*
X82560845Y-113144580D01*
X83560845Y-112335057D02*
X83608464Y-112287438D01*
X83608464Y-112287438D02*
X83703702Y-112239819D01*
X83703702Y-112239819D02*
X83941797Y-112239819D01*
X83941797Y-112239819D02*
X84037035Y-112287438D01*
X84037035Y-112287438D02*
X84084654Y-112335057D01*
X84084654Y-112335057D02*
X84132273Y-112430295D01*
X84132273Y-112430295D02*
X84132273Y-112525533D01*
X84132273Y-112525533D02*
X84084654Y-112668390D01*
X84084654Y-112668390D02*
X83513226Y-113239819D01*
X83513226Y-113239819D02*
X84132273Y-113239819D01*
X116231976Y-94142200D02*
X116374833Y-94189819D01*
X116374833Y-94189819D02*
X116612928Y-94189819D01*
X116612928Y-94189819D02*
X116708166Y-94142200D01*
X116708166Y-94142200D02*
X116755785Y-94094580D01*
X116755785Y-94094580D02*
X116803404Y-93999342D01*
X116803404Y-93999342D02*
X116803404Y-93904104D01*
X116803404Y-93904104D02*
X116755785Y-93808866D01*
X116755785Y-93808866D02*
X116708166Y-93761247D01*
X116708166Y-93761247D02*
X116612928Y-93713628D01*
X116612928Y-93713628D02*
X116422452Y-93666009D01*
X116422452Y-93666009D02*
X116327214Y-93618390D01*
X116327214Y-93618390D02*
X116279595Y-93570771D01*
X116279595Y-93570771D02*
X116231976Y-93475533D01*
X116231976Y-93475533D02*
X116231976Y-93380295D01*
X116231976Y-93380295D02*
X116279595Y-93285057D01*
X116279595Y-93285057D02*
X116327214Y-93237438D01*
X116327214Y-93237438D02*
X116422452Y-93189819D01*
X116422452Y-93189819D02*
X116660547Y-93189819D01*
X116660547Y-93189819D02*
X116803404Y-93237438D01*
X117136738Y-93189819D02*
X117374833Y-94189819D01*
X117374833Y-94189819D02*
X117565309Y-93475533D01*
X117565309Y-93475533D02*
X117755785Y-94189819D01*
X117755785Y-94189819D02*
X117993881Y-93189819D01*
X118327214Y-93285057D02*
X118374833Y-93237438D01*
X118374833Y-93237438D02*
X118470071Y-93189819D01*
X118470071Y-93189819D02*
X118708166Y-93189819D01*
X118708166Y-93189819D02*
X118803404Y-93237438D01*
X118803404Y-93237438D02*
X118851023Y-93285057D01*
X118851023Y-93285057D02*
X118898642Y-93380295D01*
X118898642Y-93380295D02*
X118898642Y-93475533D01*
X118898642Y-93475533D02*
X118851023Y-93618390D01*
X118851023Y-93618390D02*
X118279595Y-94189819D01*
X118279595Y-94189819D02*
X118898642Y-94189819D01*
X119470071Y-93618390D02*
X119374833Y-93570771D01*
X119374833Y-93570771D02*
X119327214Y-93523152D01*
X119327214Y-93523152D02*
X119279595Y-93427914D01*
X119279595Y-93427914D02*
X119279595Y-93380295D01*
X119279595Y-93380295D02*
X119327214Y-93285057D01*
X119327214Y-93285057D02*
X119374833Y-93237438D01*
X119374833Y-93237438D02*
X119470071Y-93189819D01*
X119470071Y-93189819D02*
X119660547Y-93189819D01*
X119660547Y-93189819D02*
X119755785Y-93237438D01*
X119755785Y-93237438D02*
X119803404Y-93285057D01*
X119803404Y-93285057D02*
X119851023Y-93380295D01*
X119851023Y-93380295D02*
X119851023Y-93427914D01*
X119851023Y-93427914D02*
X119803404Y-93523152D01*
X119803404Y-93523152D02*
X119755785Y-93570771D01*
X119755785Y-93570771D02*
X119660547Y-93618390D01*
X119660547Y-93618390D02*
X119470071Y-93618390D01*
X119470071Y-93618390D02*
X119374833Y-93666009D01*
X119374833Y-93666009D02*
X119327214Y-93713628D01*
X119327214Y-93713628D02*
X119279595Y-93808866D01*
X119279595Y-93808866D02*
X119279595Y-93999342D01*
X119279595Y-93999342D02*
X119327214Y-94094580D01*
X119327214Y-94094580D02*
X119374833Y-94142200D01*
X119374833Y-94142200D02*
X119470071Y-94189819D01*
X119470071Y-94189819D02*
X119660547Y-94189819D01*
X119660547Y-94189819D02*
X119755785Y-94142200D01*
X119755785Y-94142200D02*
X119803404Y-94094580D01*
X119803404Y-94094580D02*
X119851023Y-93999342D01*
X119851023Y-93999342D02*
X119851023Y-93808866D01*
X119851023Y-93808866D02*
X119803404Y-93713628D01*
X119803404Y-93713628D02*
X119755785Y-93666009D01*
X119755785Y-93666009D02*
X119660547Y-93618390D01*
X111469476Y-36992200D02*
X111612333Y-37039819D01*
X111612333Y-37039819D02*
X111850428Y-37039819D01*
X111850428Y-37039819D02*
X111945666Y-36992200D01*
X111945666Y-36992200D02*
X111993285Y-36944580D01*
X111993285Y-36944580D02*
X112040904Y-36849342D01*
X112040904Y-36849342D02*
X112040904Y-36754104D01*
X112040904Y-36754104D02*
X111993285Y-36658866D01*
X111993285Y-36658866D02*
X111945666Y-36611247D01*
X111945666Y-36611247D02*
X111850428Y-36563628D01*
X111850428Y-36563628D02*
X111659952Y-36516009D01*
X111659952Y-36516009D02*
X111564714Y-36468390D01*
X111564714Y-36468390D02*
X111517095Y-36420771D01*
X111517095Y-36420771D02*
X111469476Y-36325533D01*
X111469476Y-36325533D02*
X111469476Y-36230295D01*
X111469476Y-36230295D02*
X111517095Y-36135057D01*
X111517095Y-36135057D02*
X111564714Y-36087438D01*
X111564714Y-36087438D02*
X111659952Y-36039819D01*
X111659952Y-36039819D02*
X111898047Y-36039819D01*
X111898047Y-36039819D02*
X112040904Y-36087438D01*
X112374238Y-36039819D02*
X112612333Y-37039819D01*
X112612333Y-37039819D02*
X112802809Y-36325533D01*
X112802809Y-36325533D02*
X112993285Y-37039819D01*
X112993285Y-37039819D02*
X113231381Y-36039819D01*
X114136142Y-37039819D02*
X113564714Y-37039819D01*
X113850428Y-37039819D02*
X113850428Y-36039819D01*
X113850428Y-36039819D02*
X113755190Y-36182676D01*
X113755190Y-36182676D02*
X113659952Y-36277914D01*
X113659952Y-36277914D02*
X113564714Y-36325533D01*
X115088523Y-37039819D02*
X114517095Y-37039819D01*
X114802809Y-37039819D02*
X114802809Y-36039819D01*
X114802809Y-36039819D02*
X114707571Y-36182676D01*
X114707571Y-36182676D02*
X114612333Y-36277914D01*
X114612333Y-36277914D02*
X114517095Y-36325533D01*
X68606976Y-75092200D02*
X68749833Y-75139819D01*
X68749833Y-75139819D02*
X68987928Y-75139819D01*
X68987928Y-75139819D02*
X69083166Y-75092200D01*
X69083166Y-75092200D02*
X69130785Y-75044580D01*
X69130785Y-75044580D02*
X69178404Y-74949342D01*
X69178404Y-74949342D02*
X69178404Y-74854104D01*
X69178404Y-74854104D02*
X69130785Y-74758866D01*
X69130785Y-74758866D02*
X69083166Y-74711247D01*
X69083166Y-74711247D02*
X68987928Y-74663628D01*
X68987928Y-74663628D02*
X68797452Y-74616009D01*
X68797452Y-74616009D02*
X68702214Y-74568390D01*
X68702214Y-74568390D02*
X68654595Y-74520771D01*
X68654595Y-74520771D02*
X68606976Y-74425533D01*
X68606976Y-74425533D02*
X68606976Y-74330295D01*
X68606976Y-74330295D02*
X68654595Y-74235057D01*
X68654595Y-74235057D02*
X68702214Y-74187438D01*
X68702214Y-74187438D02*
X68797452Y-74139819D01*
X68797452Y-74139819D02*
X69035547Y-74139819D01*
X69035547Y-74139819D02*
X69178404Y-74187438D01*
X69511738Y-74139819D02*
X69749833Y-75139819D01*
X69749833Y-75139819D02*
X69940309Y-74425533D01*
X69940309Y-74425533D02*
X70130785Y-75139819D01*
X70130785Y-75139819D02*
X70368881Y-74139819D01*
X70702214Y-74235057D02*
X70749833Y-74187438D01*
X70749833Y-74187438D02*
X70845071Y-74139819D01*
X70845071Y-74139819D02*
X71083166Y-74139819D01*
X71083166Y-74139819D02*
X71178404Y-74187438D01*
X71178404Y-74187438D02*
X71226023Y-74235057D01*
X71226023Y-74235057D02*
X71273642Y-74330295D01*
X71273642Y-74330295D02*
X71273642Y-74425533D01*
X71273642Y-74425533D02*
X71226023Y-74568390D01*
X71226023Y-74568390D02*
X70654595Y-75139819D01*
X70654595Y-75139819D02*
X71273642Y-75139819D01*
X71892690Y-74139819D02*
X71987928Y-74139819D01*
X71987928Y-74139819D02*
X72083166Y-74187438D01*
X72083166Y-74187438D02*
X72130785Y-74235057D01*
X72130785Y-74235057D02*
X72178404Y-74330295D01*
X72178404Y-74330295D02*
X72226023Y-74520771D01*
X72226023Y-74520771D02*
X72226023Y-74758866D01*
X72226023Y-74758866D02*
X72178404Y-74949342D01*
X72178404Y-74949342D02*
X72130785Y-75044580D01*
X72130785Y-75044580D02*
X72083166Y-75092200D01*
X72083166Y-75092200D02*
X71987928Y-75139819D01*
X71987928Y-75139819D02*
X71892690Y-75139819D01*
X71892690Y-75139819D02*
X71797452Y-75092200D01*
X71797452Y-75092200D02*
X71749833Y-75044580D01*
X71749833Y-75044580D02*
X71702214Y-74949342D01*
X71702214Y-74949342D02*
X71654595Y-74758866D01*
X71654595Y-74758866D02*
X71654595Y-74520771D01*
X71654595Y-74520771D02*
X71702214Y-74330295D01*
X71702214Y-74330295D02*
X71749833Y-74235057D01*
X71749833Y-74235057D02*
X71797452Y-74187438D01*
X71797452Y-74187438D02*
X71892690Y-74139819D01*
X73845667Y-36992200D02*
X73988524Y-37039819D01*
X73988524Y-37039819D02*
X74226619Y-37039819D01*
X74226619Y-37039819D02*
X74321857Y-36992200D01*
X74321857Y-36992200D02*
X74369476Y-36944580D01*
X74369476Y-36944580D02*
X74417095Y-36849342D01*
X74417095Y-36849342D02*
X74417095Y-36754104D01*
X74417095Y-36754104D02*
X74369476Y-36658866D01*
X74369476Y-36658866D02*
X74321857Y-36611247D01*
X74321857Y-36611247D02*
X74226619Y-36563628D01*
X74226619Y-36563628D02*
X74036143Y-36516009D01*
X74036143Y-36516009D02*
X73940905Y-36468390D01*
X73940905Y-36468390D02*
X73893286Y-36420771D01*
X73893286Y-36420771D02*
X73845667Y-36325533D01*
X73845667Y-36325533D02*
X73845667Y-36230295D01*
X73845667Y-36230295D02*
X73893286Y-36135057D01*
X73893286Y-36135057D02*
X73940905Y-36087438D01*
X73940905Y-36087438D02*
X74036143Y-36039819D01*
X74036143Y-36039819D02*
X74274238Y-36039819D01*
X74274238Y-36039819D02*
X74417095Y-36087438D01*
X74750429Y-36039819D02*
X74988524Y-37039819D01*
X74988524Y-37039819D02*
X75179000Y-36325533D01*
X75179000Y-36325533D02*
X75369476Y-37039819D01*
X75369476Y-37039819D02*
X75607572Y-36039819D01*
X76036143Y-37039819D02*
X76226619Y-37039819D01*
X76226619Y-37039819D02*
X76321857Y-36992200D01*
X76321857Y-36992200D02*
X76369476Y-36944580D01*
X76369476Y-36944580D02*
X76464714Y-36801723D01*
X76464714Y-36801723D02*
X76512333Y-36611247D01*
X76512333Y-36611247D02*
X76512333Y-36230295D01*
X76512333Y-36230295D02*
X76464714Y-36135057D01*
X76464714Y-36135057D02*
X76417095Y-36087438D01*
X76417095Y-36087438D02*
X76321857Y-36039819D01*
X76321857Y-36039819D02*
X76131381Y-36039819D01*
X76131381Y-36039819D02*
X76036143Y-36087438D01*
X76036143Y-36087438D02*
X75988524Y-36135057D01*
X75988524Y-36135057D02*
X75940905Y-36230295D01*
X75940905Y-36230295D02*
X75940905Y-36468390D01*
X75940905Y-36468390D02*
X75988524Y-36563628D01*
X75988524Y-36563628D02*
X76036143Y-36611247D01*
X76036143Y-36611247D02*
X76131381Y-36658866D01*
X76131381Y-36658866D02*
X76321857Y-36658866D01*
X76321857Y-36658866D02*
X76417095Y-36611247D01*
X76417095Y-36611247D02*
X76464714Y-36563628D01*
X76464714Y-36563628D02*
X76512333Y-36468390D01*
X135281976Y-94142200D02*
X135424833Y-94189819D01*
X135424833Y-94189819D02*
X135662928Y-94189819D01*
X135662928Y-94189819D02*
X135758166Y-94142200D01*
X135758166Y-94142200D02*
X135805785Y-94094580D01*
X135805785Y-94094580D02*
X135853404Y-93999342D01*
X135853404Y-93999342D02*
X135853404Y-93904104D01*
X135853404Y-93904104D02*
X135805785Y-93808866D01*
X135805785Y-93808866D02*
X135758166Y-93761247D01*
X135758166Y-93761247D02*
X135662928Y-93713628D01*
X135662928Y-93713628D02*
X135472452Y-93666009D01*
X135472452Y-93666009D02*
X135377214Y-93618390D01*
X135377214Y-93618390D02*
X135329595Y-93570771D01*
X135329595Y-93570771D02*
X135281976Y-93475533D01*
X135281976Y-93475533D02*
X135281976Y-93380295D01*
X135281976Y-93380295D02*
X135329595Y-93285057D01*
X135329595Y-93285057D02*
X135377214Y-93237438D01*
X135377214Y-93237438D02*
X135472452Y-93189819D01*
X135472452Y-93189819D02*
X135710547Y-93189819D01*
X135710547Y-93189819D02*
X135853404Y-93237438D01*
X136186738Y-93189819D02*
X136424833Y-94189819D01*
X136424833Y-94189819D02*
X136615309Y-93475533D01*
X136615309Y-93475533D02*
X136805785Y-94189819D01*
X136805785Y-94189819D02*
X137043881Y-93189819D01*
X137377214Y-93285057D02*
X137424833Y-93237438D01*
X137424833Y-93237438D02*
X137520071Y-93189819D01*
X137520071Y-93189819D02*
X137758166Y-93189819D01*
X137758166Y-93189819D02*
X137853404Y-93237438D01*
X137853404Y-93237438D02*
X137901023Y-93285057D01*
X137901023Y-93285057D02*
X137948642Y-93380295D01*
X137948642Y-93380295D02*
X137948642Y-93475533D01*
X137948642Y-93475533D02*
X137901023Y-93618390D01*
X137901023Y-93618390D02*
X137329595Y-94189819D01*
X137329595Y-94189819D02*
X137948642Y-94189819D01*
X138424833Y-94189819D02*
X138615309Y-94189819D01*
X138615309Y-94189819D02*
X138710547Y-94142200D01*
X138710547Y-94142200D02*
X138758166Y-94094580D01*
X138758166Y-94094580D02*
X138853404Y-93951723D01*
X138853404Y-93951723D02*
X138901023Y-93761247D01*
X138901023Y-93761247D02*
X138901023Y-93380295D01*
X138901023Y-93380295D02*
X138853404Y-93285057D01*
X138853404Y-93285057D02*
X138805785Y-93237438D01*
X138805785Y-93237438D02*
X138710547Y-93189819D01*
X138710547Y-93189819D02*
X138520071Y-93189819D01*
X138520071Y-93189819D02*
X138424833Y-93237438D01*
X138424833Y-93237438D02*
X138377214Y-93285057D01*
X138377214Y-93285057D02*
X138329595Y-93380295D01*
X138329595Y-93380295D02*
X138329595Y-93618390D01*
X138329595Y-93618390D02*
X138377214Y-93713628D01*
X138377214Y-93713628D02*
X138424833Y-93761247D01*
X138424833Y-93761247D02*
X138520071Y-93808866D01*
X138520071Y-93808866D02*
X138710547Y-93808866D01*
X138710547Y-93808866D02*
X138805785Y-93761247D01*
X138805785Y-93761247D02*
X138853404Y-93713628D01*
X138853404Y-93713628D02*
X138901023Y-93618390D01*
X140044476Y-56042200D02*
X140187333Y-56089819D01*
X140187333Y-56089819D02*
X140425428Y-56089819D01*
X140425428Y-56089819D02*
X140520666Y-56042200D01*
X140520666Y-56042200D02*
X140568285Y-55994580D01*
X140568285Y-55994580D02*
X140615904Y-55899342D01*
X140615904Y-55899342D02*
X140615904Y-55804104D01*
X140615904Y-55804104D02*
X140568285Y-55708866D01*
X140568285Y-55708866D02*
X140520666Y-55661247D01*
X140520666Y-55661247D02*
X140425428Y-55613628D01*
X140425428Y-55613628D02*
X140234952Y-55566009D01*
X140234952Y-55566009D02*
X140139714Y-55518390D01*
X140139714Y-55518390D02*
X140092095Y-55470771D01*
X140092095Y-55470771D02*
X140044476Y-55375533D01*
X140044476Y-55375533D02*
X140044476Y-55280295D01*
X140044476Y-55280295D02*
X140092095Y-55185057D01*
X140092095Y-55185057D02*
X140139714Y-55137438D01*
X140139714Y-55137438D02*
X140234952Y-55089819D01*
X140234952Y-55089819D02*
X140473047Y-55089819D01*
X140473047Y-55089819D02*
X140615904Y-55137438D01*
X140949238Y-55089819D02*
X141187333Y-56089819D01*
X141187333Y-56089819D02*
X141377809Y-55375533D01*
X141377809Y-55375533D02*
X141568285Y-56089819D01*
X141568285Y-56089819D02*
X141806381Y-55089819D01*
X142711142Y-56089819D02*
X142139714Y-56089819D01*
X142425428Y-56089819D02*
X142425428Y-55089819D01*
X142425428Y-55089819D02*
X142330190Y-55232676D01*
X142330190Y-55232676D02*
X142234952Y-55327914D01*
X142234952Y-55327914D02*
X142139714Y-55375533D01*
X143282571Y-55518390D02*
X143187333Y-55470771D01*
X143187333Y-55470771D02*
X143139714Y-55423152D01*
X143139714Y-55423152D02*
X143092095Y-55327914D01*
X143092095Y-55327914D02*
X143092095Y-55280295D01*
X143092095Y-55280295D02*
X143139714Y-55185057D01*
X143139714Y-55185057D02*
X143187333Y-55137438D01*
X143187333Y-55137438D02*
X143282571Y-55089819D01*
X143282571Y-55089819D02*
X143473047Y-55089819D01*
X143473047Y-55089819D02*
X143568285Y-55137438D01*
X143568285Y-55137438D02*
X143615904Y-55185057D01*
X143615904Y-55185057D02*
X143663523Y-55280295D01*
X143663523Y-55280295D02*
X143663523Y-55327914D01*
X143663523Y-55327914D02*
X143615904Y-55423152D01*
X143615904Y-55423152D02*
X143568285Y-55470771D01*
X143568285Y-55470771D02*
X143473047Y-55518390D01*
X143473047Y-55518390D02*
X143282571Y-55518390D01*
X143282571Y-55518390D02*
X143187333Y-55566009D01*
X143187333Y-55566009D02*
X143139714Y-55613628D01*
X143139714Y-55613628D02*
X143092095Y-55708866D01*
X143092095Y-55708866D02*
X143092095Y-55899342D01*
X143092095Y-55899342D02*
X143139714Y-55994580D01*
X143139714Y-55994580D02*
X143187333Y-56042200D01*
X143187333Y-56042200D02*
X143282571Y-56089819D01*
X143282571Y-56089819D02*
X143473047Y-56089819D01*
X143473047Y-56089819D02*
X143568285Y-56042200D01*
X143568285Y-56042200D02*
X143615904Y-55994580D01*
X143615904Y-55994580D02*
X143663523Y-55899342D01*
X143663523Y-55899342D02*
X143663523Y-55708866D01*
X143663523Y-55708866D02*
X143615904Y-55613628D01*
X143615904Y-55613628D02*
X143568285Y-55566009D01*
X143568285Y-55566009D02*
X143473047Y-55518390D01*
X87656976Y-75092200D02*
X87799833Y-75139819D01*
X87799833Y-75139819D02*
X88037928Y-75139819D01*
X88037928Y-75139819D02*
X88133166Y-75092200D01*
X88133166Y-75092200D02*
X88180785Y-75044580D01*
X88180785Y-75044580D02*
X88228404Y-74949342D01*
X88228404Y-74949342D02*
X88228404Y-74854104D01*
X88228404Y-74854104D02*
X88180785Y-74758866D01*
X88180785Y-74758866D02*
X88133166Y-74711247D01*
X88133166Y-74711247D02*
X88037928Y-74663628D01*
X88037928Y-74663628D02*
X87847452Y-74616009D01*
X87847452Y-74616009D02*
X87752214Y-74568390D01*
X87752214Y-74568390D02*
X87704595Y-74520771D01*
X87704595Y-74520771D02*
X87656976Y-74425533D01*
X87656976Y-74425533D02*
X87656976Y-74330295D01*
X87656976Y-74330295D02*
X87704595Y-74235057D01*
X87704595Y-74235057D02*
X87752214Y-74187438D01*
X87752214Y-74187438D02*
X87847452Y-74139819D01*
X87847452Y-74139819D02*
X88085547Y-74139819D01*
X88085547Y-74139819D02*
X88228404Y-74187438D01*
X88561738Y-74139819D02*
X88799833Y-75139819D01*
X88799833Y-75139819D02*
X88990309Y-74425533D01*
X88990309Y-74425533D02*
X89180785Y-75139819D01*
X89180785Y-75139819D02*
X89418881Y-74139819D01*
X89752214Y-74235057D02*
X89799833Y-74187438D01*
X89799833Y-74187438D02*
X89895071Y-74139819D01*
X89895071Y-74139819D02*
X90133166Y-74139819D01*
X90133166Y-74139819D02*
X90228404Y-74187438D01*
X90228404Y-74187438D02*
X90276023Y-74235057D01*
X90276023Y-74235057D02*
X90323642Y-74330295D01*
X90323642Y-74330295D02*
X90323642Y-74425533D01*
X90323642Y-74425533D02*
X90276023Y-74568390D01*
X90276023Y-74568390D02*
X89704595Y-75139819D01*
X89704595Y-75139819D02*
X90323642Y-75139819D01*
X91276023Y-75139819D02*
X90704595Y-75139819D01*
X90990309Y-75139819D02*
X90990309Y-74139819D01*
X90990309Y-74139819D02*
X90895071Y-74282676D01*
X90895071Y-74282676D02*
X90799833Y-74377914D01*
X90799833Y-74377914D02*
X90704595Y-74425533D01*
X12666666Y-41954819D02*
X12666666Y-42669104D01*
X12666666Y-42669104D02*
X12619047Y-42811961D01*
X12619047Y-42811961D02*
X12523809Y-42907200D01*
X12523809Y-42907200D02*
X12380952Y-42954819D01*
X12380952Y-42954819D02*
X12285714Y-42954819D01*
X13095238Y-42050057D02*
X13142857Y-42002438D01*
X13142857Y-42002438D02*
X13238095Y-41954819D01*
X13238095Y-41954819D02*
X13476190Y-41954819D01*
X13476190Y-41954819D02*
X13571428Y-42002438D01*
X13571428Y-42002438D02*
X13619047Y-42050057D01*
X13619047Y-42050057D02*
X13666666Y-42145295D01*
X13666666Y-42145295D02*
X13666666Y-42240533D01*
X13666666Y-42240533D02*
X13619047Y-42383390D01*
X13619047Y-42383390D02*
X13047619Y-42954819D01*
X13047619Y-42954819D02*
X13666666Y-42954819D01*
X73845667Y-17942200D02*
X73988524Y-17989819D01*
X73988524Y-17989819D02*
X74226619Y-17989819D01*
X74226619Y-17989819D02*
X74321857Y-17942200D01*
X74321857Y-17942200D02*
X74369476Y-17894580D01*
X74369476Y-17894580D02*
X74417095Y-17799342D01*
X74417095Y-17799342D02*
X74417095Y-17704104D01*
X74417095Y-17704104D02*
X74369476Y-17608866D01*
X74369476Y-17608866D02*
X74321857Y-17561247D01*
X74321857Y-17561247D02*
X74226619Y-17513628D01*
X74226619Y-17513628D02*
X74036143Y-17466009D01*
X74036143Y-17466009D02*
X73940905Y-17418390D01*
X73940905Y-17418390D02*
X73893286Y-17370771D01*
X73893286Y-17370771D02*
X73845667Y-17275533D01*
X73845667Y-17275533D02*
X73845667Y-17180295D01*
X73845667Y-17180295D02*
X73893286Y-17085057D01*
X73893286Y-17085057D02*
X73940905Y-17037438D01*
X73940905Y-17037438D02*
X74036143Y-16989819D01*
X74036143Y-16989819D02*
X74274238Y-16989819D01*
X74274238Y-16989819D02*
X74417095Y-17037438D01*
X74750429Y-16989819D02*
X74988524Y-17989819D01*
X74988524Y-17989819D02*
X75179000Y-17275533D01*
X75179000Y-17275533D02*
X75369476Y-17989819D01*
X75369476Y-17989819D02*
X75607572Y-16989819D01*
X75893286Y-16989819D02*
X76512333Y-16989819D01*
X76512333Y-16989819D02*
X76179000Y-17370771D01*
X76179000Y-17370771D02*
X76321857Y-17370771D01*
X76321857Y-17370771D02*
X76417095Y-17418390D01*
X76417095Y-17418390D02*
X76464714Y-17466009D01*
X76464714Y-17466009D02*
X76512333Y-17561247D01*
X76512333Y-17561247D02*
X76512333Y-17799342D01*
X76512333Y-17799342D02*
X76464714Y-17894580D01*
X76464714Y-17894580D02*
X76417095Y-17942200D01*
X76417095Y-17942200D02*
X76321857Y-17989819D01*
X76321857Y-17989819D02*
X76036143Y-17989819D01*
X76036143Y-17989819D02*
X75940905Y-17942200D01*
X75940905Y-17942200D02*
X75893286Y-17894580D01*
X135281976Y-113192200D02*
X135424833Y-113239819D01*
X135424833Y-113239819D02*
X135662928Y-113239819D01*
X135662928Y-113239819D02*
X135758166Y-113192200D01*
X135758166Y-113192200D02*
X135805785Y-113144580D01*
X135805785Y-113144580D02*
X135853404Y-113049342D01*
X135853404Y-113049342D02*
X135853404Y-112954104D01*
X135853404Y-112954104D02*
X135805785Y-112858866D01*
X135805785Y-112858866D02*
X135758166Y-112811247D01*
X135758166Y-112811247D02*
X135662928Y-112763628D01*
X135662928Y-112763628D02*
X135472452Y-112716009D01*
X135472452Y-112716009D02*
X135377214Y-112668390D01*
X135377214Y-112668390D02*
X135329595Y-112620771D01*
X135329595Y-112620771D02*
X135281976Y-112525533D01*
X135281976Y-112525533D02*
X135281976Y-112430295D01*
X135281976Y-112430295D02*
X135329595Y-112335057D01*
X135329595Y-112335057D02*
X135377214Y-112287438D01*
X135377214Y-112287438D02*
X135472452Y-112239819D01*
X135472452Y-112239819D02*
X135710547Y-112239819D01*
X135710547Y-112239819D02*
X135853404Y-112287438D01*
X136186738Y-112239819D02*
X136424833Y-113239819D01*
X136424833Y-113239819D02*
X136615309Y-112525533D01*
X136615309Y-112525533D02*
X136805785Y-113239819D01*
X136805785Y-113239819D02*
X137043881Y-112239819D01*
X137329595Y-112239819D02*
X137948642Y-112239819D01*
X137948642Y-112239819D02*
X137615309Y-112620771D01*
X137615309Y-112620771D02*
X137758166Y-112620771D01*
X137758166Y-112620771D02*
X137853404Y-112668390D01*
X137853404Y-112668390D02*
X137901023Y-112716009D01*
X137901023Y-112716009D02*
X137948642Y-112811247D01*
X137948642Y-112811247D02*
X137948642Y-113049342D01*
X137948642Y-113049342D02*
X137901023Y-113144580D01*
X137901023Y-113144580D02*
X137853404Y-113192200D01*
X137853404Y-113192200D02*
X137758166Y-113239819D01*
X137758166Y-113239819D02*
X137472452Y-113239819D01*
X137472452Y-113239819D02*
X137377214Y-113192200D01*
X137377214Y-113192200D02*
X137329595Y-113144580D01*
X138805785Y-112573152D02*
X138805785Y-113239819D01*
X138567690Y-112192200D02*
X138329595Y-112906485D01*
X138329595Y-112906485D02*
X138948642Y-112906485D01*
X63844476Y-56042200D02*
X63987333Y-56089819D01*
X63987333Y-56089819D02*
X64225428Y-56089819D01*
X64225428Y-56089819D02*
X64320666Y-56042200D01*
X64320666Y-56042200D02*
X64368285Y-55994580D01*
X64368285Y-55994580D02*
X64415904Y-55899342D01*
X64415904Y-55899342D02*
X64415904Y-55804104D01*
X64415904Y-55804104D02*
X64368285Y-55708866D01*
X64368285Y-55708866D02*
X64320666Y-55661247D01*
X64320666Y-55661247D02*
X64225428Y-55613628D01*
X64225428Y-55613628D02*
X64034952Y-55566009D01*
X64034952Y-55566009D02*
X63939714Y-55518390D01*
X63939714Y-55518390D02*
X63892095Y-55470771D01*
X63892095Y-55470771D02*
X63844476Y-55375533D01*
X63844476Y-55375533D02*
X63844476Y-55280295D01*
X63844476Y-55280295D02*
X63892095Y-55185057D01*
X63892095Y-55185057D02*
X63939714Y-55137438D01*
X63939714Y-55137438D02*
X64034952Y-55089819D01*
X64034952Y-55089819D02*
X64273047Y-55089819D01*
X64273047Y-55089819D02*
X64415904Y-55137438D01*
X64749238Y-55089819D02*
X64987333Y-56089819D01*
X64987333Y-56089819D02*
X65177809Y-55375533D01*
X65177809Y-55375533D02*
X65368285Y-56089819D01*
X65368285Y-56089819D02*
X65606381Y-55089819D01*
X66511142Y-56089819D02*
X65939714Y-56089819D01*
X66225428Y-56089819D02*
X66225428Y-55089819D01*
X66225428Y-55089819D02*
X66130190Y-55232676D01*
X66130190Y-55232676D02*
X66034952Y-55327914D01*
X66034952Y-55327914D02*
X65939714Y-55375533D01*
X67368285Y-55423152D02*
X67368285Y-56089819D01*
X67130190Y-55042200D02*
X66892095Y-55756485D01*
X66892095Y-55756485D02*
X67511142Y-55756485D01*
X92419476Y-36992200D02*
X92562333Y-37039819D01*
X92562333Y-37039819D02*
X92800428Y-37039819D01*
X92800428Y-37039819D02*
X92895666Y-36992200D01*
X92895666Y-36992200D02*
X92943285Y-36944580D01*
X92943285Y-36944580D02*
X92990904Y-36849342D01*
X92990904Y-36849342D02*
X92990904Y-36754104D01*
X92990904Y-36754104D02*
X92943285Y-36658866D01*
X92943285Y-36658866D02*
X92895666Y-36611247D01*
X92895666Y-36611247D02*
X92800428Y-36563628D01*
X92800428Y-36563628D02*
X92609952Y-36516009D01*
X92609952Y-36516009D02*
X92514714Y-36468390D01*
X92514714Y-36468390D02*
X92467095Y-36420771D01*
X92467095Y-36420771D02*
X92419476Y-36325533D01*
X92419476Y-36325533D02*
X92419476Y-36230295D01*
X92419476Y-36230295D02*
X92467095Y-36135057D01*
X92467095Y-36135057D02*
X92514714Y-36087438D01*
X92514714Y-36087438D02*
X92609952Y-36039819D01*
X92609952Y-36039819D02*
X92848047Y-36039819D01*
X92848047Y-36039819D02*
X92990904Y-36087438D01*
X93324238Y-36039819D02*
X93562333Y-37039819D01*
X93562333Y-37039819D02*
X93752809Y-36325533D01*
X93752809Y-36325533D02*
X93943285Y-37039819D01*
X93943285Y-37039819D02*
X94181381Y-36039819D01*
X95086142Y-37039819D02*
X94514714Y-37039819D01*
X94800428Y-37039819D02*
X94800428Y-36039819D01*
X94800428Y-36039819D02*
X94705190Y-36182676D01*
X94705190Y-36182676D02*
X94609952Y-36277914D01*
X94609952Y-36277914D02*
X94514714Y-36325533D01*
X95705190Y-36039819D02*
X95800428Y-36039819D01*
X95800428Y-36039819D02*
X95895666Y-36087438D01*
X95895666Y-36087438D02*
X95943285Y-36135057D01*
X95943285Y-36135057D02*
X95990904Y-36230295D01*
X95990904Y-36230295D02*
X96038523Y-36420771D01*
X96038523Y-36420771D02*
X96038523Y-36658866D01*
X96038523Y-36658866D02*
X95990904Y-36849342D01*
X95990904Y-36849342D02*
X95943285Y-36944580D01*
X95943285Y-36944580D02*
X95895666Y-36992200D01*
X95895666Y-36992200D02*
X95800428Y-37039819D01*
X95800428Y-37039819D02*
X95705190Y-37039819D01*
X95705190Y-37039819D02*
X95609952Y-36992200D01*
X95609952Y-36992200D02*
X95562333Y-36944580D01*
X95562333Y-36944580D02*
X95514714Y-36849342D01*
X95514714Y-36849342D02*
X95467095Y-36658866D01*
X95467095Y-36658866D02*
X95467095Y-36420771D01*
X95467095Y-36420771D02*
X95514714Y-36230295D01*
X95514714Y-36230295D02*
X95562333Y-36135057D01*
X95562333Y-36135057D02*
X95609952Y-36087438D01*
X95609952Y-36087438D02*
X95705190Y-36039819D01*
X82894476Y-56042200D02*
X83037333Y-56089819D01*
X83037333Y-56089819D02*
X83275428Y-56089819D01*
X83275428Y-56089819D02*
X83370666Y-56042200D01*
X83370666Y-56042200D02*
X83418285Y-55994580D01*
X83418285Y-55994580D02*
X83465904Y-55899342D01*
X83465904Y-55899342D02*
X83465904Y-55804104D01*
X83465904Y-55804104D02*
X83418285Y-55708866D01*
X83418285Y-55708866D02*
X83370666Y-55661247D01*
X83370666Y-55661247D02*
X83275428Y-55613628D01*
X83275428Y-55613628D02*
X83084952Y-55566009D01*
X83084952Y-55566009D02*
X82989714Y-55518390D01*
X82989714Y-55518390D02*
X82942095Y-55470771D01*
X82942095Y-55470771D02*
X82894476Y-55375533D01*
X82894476Y-55375533D02*
X82894476Y-55280295D01*
X82894476Y-55280295D02*
X82942095Y-55185057D01*
X82942095Y-55185057D02*
X82989714Y-55137438D01*
X82989714Y-55137438D02*
X83084952Y-55089819D01*
X83084952Y-55089819D02*
X83323047Y-55089819D01*
X83323047Y-55089819D02*
X83465904Y-55137438D01*
X83799238Y-55089819D02*
X84037333Y-56089819D01*
X84037333Y-56089819D02*
X84227809Y-55375533D01*
X84227809Y-55375533D02*
X84418285Y-56089819D01*
X84418285Y-56089819D02*
X84656381Y-55089819D01*
X85561142Y-56089819D02*
X84989714Y-56089819D01*
X85275428Y-56089819D02*
X85275428Y-55089819D01*
X85275428Y-55089819D02*
X85180190Y-55232676D01*
X85180190Y-55232676D02*
X85084952Y-55327914D01*
X85084952Y-55327914D02*
X84989714Y-55375533D01*
X86465904Y-55089819D02*
X85989714Y-55089819D01*
X85989714Y-55089819D02*
X85942095Y-55566009D01*
X85942095Y-55566009D02*
X85989714Y-55518390D01*
X85989714Y-55518390D02*
X86084952Y-55470771D01*
X86084952Y-55470771D02*
X86323047Y-55470771D01*
X86323047Y-55470771D02*
X86418285Y-55518390D01*
X86418285Y-55518390D02*
X86465904Y-55566009D01*
X86465904Y-55566009D02*
X86513523Y-55661247D01*
X86513523Y-55661247D02*
X86513523Y-55899342D01*
X86513523Y-55899342D02*
X86465904Y-55994580D01*
X86465904Y-55994580D02*
X86418285Y-56042200D01*
X86418285Y-56042200D02*
X86323047Y-56089819D01*
X86323047Y-56089819D02*
X86084952Y-56089819D01*
X86084952Y-56089819D02*
X85989714Y-56042200D01*
X85989714Y-56042200D02*
X85942095Y-55994580D01*
X97181976Y-94142200D02*
X97324833Y-94189819D01*
X97324833Y-94189819D02*
X97562928Y-94189819D01*
X97562928Y-94189819D02*
X97658166Y-94142200D01*
X97658166Y-94142200D02*
X97705785Y-94094580D01*
X97705785Y-94094580D02*
X97753404Y-93999342D01*
X97753404Y-93999342D02*
X97753404Y-93904104D01*
X97753404Y-93904104D02*
X97705785Y-93808866D01*
X97705785Y-93808866D02*
X97658166Y-93761247D01*
X97658166Y-93761247D02*
X97562928Y-93713628D01*
X97562928Y-93713628D02*
X97372452Y-93666009D01*
X97372452Y-93666009D02*
X97277214Y-93618390D01*
X97277214Y-93618390D02*
X97229595Y-93570771D01*
X97229595Y-93570771D02*
X97181976Y-93475533D01*
X97181976Y-93475533D02*
X97181976Y-93380295D01*
X97181976Y-93380295D02*
X97229595Y-93285057D01*
X97229595Y-93285057D02*
X97277214Y-93237438D01*
X97277214Y-93237438D02*
X97372452Y-93189819D01*
X97372452Y-93189819D02*
X97610547Y-93189819D01*
X97610547Y-93189819D02*
X97753404Y-93237438D01*
X98086738Y-93189819D02*
X98324833Y-94189819D01*
X98324833Y-94189819D02*
X98515309Y-93475533D01*
X98515309Y-93475533D02*
X98705785Y-94189819D01*
X98705785Y-94189819D02*
X98943881Y-93189819D01*
X99277214Y-93285057D02*
X99324833Y-93237438D01*
X99324833Y-93237438D02*
X99420071Y-93189819D01*
X99420071Y-93189819D02*
X99658166Y-93189819D01*
X99658166Y-93189819D02*
X99753404Y-93237438D01*
X99753404Y-93237438D02*
X99801023Y-93285057D01*
X99801023Y-93285057D02*
X99848642Y-93380295D01*
X99848642Y-93380295D02*
X99848642Y-93475533D01*
X99848642Y-93475533D02*
X99801023Y-93618390D01*
X99801023Y-93618390D02*
X99229595Y-94189819D01*
X99229595Y-94189819D02*
X99848642Y-94189819D01*
X100181976Y-93189819D02*
X100848642Y-93189819D01*
X100848642Y-93189819D02*
X100420071Y-94189819D01*
X54795667Y-36992200D02*
X54938524Y-37039819D01*
X54938524Y-37039819D02*
X55176619Y-37039819D01*
X55176619Y-37039819D02*
X55271857Y-36992200D01*
X55271857Y-36992200D02*
X55319476Y-36944580D01*
X55319476Y-36944580D02*
X55367095Y-36849342D01*
X55367095Y-36849342D02*
X55367095Y-36754104D01*
X55367095Y-36754104D02*
X55319476Y-36658866D01*
X55319476Y-36658866D02*
X55271857Y-36611247D01*
X55271857Y-36611247D02*
X55176619Y-36563628D01*
X55176619Y-36563628D02*
X54986143Y-36516009D01*
X54986143Y-36516009D02*
X54890905Y-36468390D01*
X54890905Y-36468390D02*
X54843286Y-36420771D01*
X54843286Y-36420771D02*
X54795667Y-36325533D01*
X54795667Y-36325533D02*
X54795667Y-36230295D01*
X54795667Y-36230295D02*
X54843286Y-36135057D01*
X54843286Y-36135057D02*
X54890905Y-36087438D01*
X54890905Y-36087438D02*
X54986143Y-36039819D01*
X54986143Y-36039819D02*
X55224238Y-36039819D01*
X55224238Y-36039819D02*
X55367095Y-36087438D01*
X55700429Y-36039819D02*
X55938524Y-37039819D01*
X55938524Y-37039819D02*
X56129000Y-36325533D01*
X56129000Y-36325533D02*
X56319476Y-37039819D01*
X56319476Y-37039819D02*
X56557572Y-36039819D01*
X57081381Y-36468390D02*
X56986143Y-36420771D01*
X56986143Y-36420771D02*
X56938524Y-36373152D01*
X56938524Y-36373152D02*
X56890905Y-36277914D01*
X56890905Y-36277914D02*
X56890905Y-36230295D01*
X56890905Y-36230295D02*
X56938524Y-36135057D01*
X56938524Y-36135057D02*
X56986143Y-36087438D01*
X56986143Y-36087438D02*
X57081381Y-36039819D01*
X57081381Y-36039819D02*
X57271857Y-36039819D01*
X57271857Y-36039819D02*
X57367095Y-36087438D01*
X57367095Y-36087438D02*
X57414714Y-36135057D01*
X57414714Y-36135057D02*
X57462333Y-36230295D01*
X57462333Y-36230295D02*
X57462333Y-36277914D01*
X57462333Y-36277914D02*
X57414714Y-36373152D01*
X57414714Y-36373152D02*
X57367095Y-36420771D01*
X57367095Y-36420771D02*
X57271857Y-36468390D01*
X57271857Y-36468390D02*
X57081381Y-36468390D01*
X57081381Y-36468390D02*
X56986143Y-36516009D01*
X56986143Y-36516009D02*
X56938524Y-36563628D01*
X56938524Y-36563628D02*
X56890905Y-36658866D01*
X56890905Y-36658866D02*
X56890905Y-36849342D01*
X56890905Y-36849342D02*
X56938524Y-36944580D01*
X56938524Y-36944580D02*
X56986143Y-36992200D01*
X56986143Y-36992200D02*
X57081381Y-37039819D01*
X57081381Y-37039819D02*
X57271857Y-37039819D01*
X57271857Y-37039819D02*
X57367095Y-36992200D01*
X57367095Y-36992200D02*
X57414714Y-36944580D01*
X57414714Y-36944580D02*
X57462333Y-36849342D01*
X57462333Y-36849342D02*
X57462333Y-36658866D01*
X57462333Y-36658866D02*
X57414714Y-36563628D01*
X57414714Y-36563628D02*
X57367095Y-36516009D01*
X57367095Y-36516009D02*
X57271857Y-36468390D01*
X104325726Y-113192200D02*
X104468583Y-113239819D01*
X104468583Y-113239819D02*
X104706678Y-113239819D01*
X104706678Y-113239819D02*
X104801916Y-113192200D01*
X104801916Y-113192200D02*
X104849535Y-113144580D01*
X104849535Y-113144580D02*
X104897154Y-113049342D01*
X104897154Y-113049342D02*
X104897154Y-112954104D01*
X104897154Y-112954104D02*
X104849535Y-112858866D01*
X104849535Y-112858866D02*
X104801916Y-112811247D01*
X104801916Y-112811247D02*
X104706678Y-112763628D01*
X104706678Y-112763628D02*
X104516202Y-112716009D01*
X104516202Y-112716009D02*
X104420964Y-112668390D01*
X104420964Y-112668390D02*
X104373345Y-112620771D01*
X104373345Y-112620771D02*
X104325726Y-112525533D01*
X104325726Y-112525533D02*
X104325726Y-112430295D01*
X104325726Y-112430295D02*
X104373345Y-112335057D01*
X104373345Y-112335057D02*
X104420964Y-112287438D01*
X104420964Y-112287438D02*
X104516202Y-112239819D01*
X104516202Y-112239819D02*
X104754297Y-112239819D01*
X104754297Y-112239819D02*
X104897154Y-112287438D01*
X105230488Y-112239819D02*
X105468583Y-113239819D01*
X105468583Y-113239819D02*
X105659059Y-112525533D01*
X105659059Y-112525533D02*
X105849535Y-113239819D01*
X105849535Y-113239819D02*
X106087631Y-112239819D01*
X106373345Y-112239819D02*
X106992392Y-112239819D01*
X106992392Y-112239819D02*
X106659059Y-112620771D01*
X106659059Y-112620771D02*
X106801916Y-112620771D01*
X106801916Y-112620771D02*
X106897154Y-112668390D01*
X106897154Y-112668390D02*
X106944773Y-112716009D01*
X106944773Y-112716009D02*
X106992392Y-112811247D01*
X106992392Y-112811247D02*
X106992392Y-113049342D01*
X106992392Y-113049342D02*
X106944773Y-113144580D01*
X106944773Y-113144580D02*
X106897154Y-113192200D01*
X106897154Y-113192200D02*
X106801916Y-113239819D01*
X106801916Y-113239819D02*
X106516202Y-113239819D01*
X106516202Y-113239819D02*
X106420964Y-113192200D01*
X106420964Y-113192200D02*
X106373345Y-113144580D01*
X107325726Y-112239819D02*
X107944773Y-112239819D01*
X107944773Y-112239819D02*
X107611440Y-112620771D01*
X107611440Y-112620771D02*
X107754297Y-112620771D01*
X107754297Y-112620771D02*
X107849535Y-112668390D01*
X107849535Y-112668390D02*
X107897154Y-112716009D01*
X107897154Y-112716009D02*
X107944773Y-112811247D01*
X107944773Y-112811247D02*
X107944773Y-113049342D01*
X107944773Y-113049342D02*
X107897154Y-113144580D01*
X107897154Y-113144580D02*
X107849535Y-113192200D01*
X107849535Y-113192200D02*
X107754297Y-113239819D01*
X107754297Y-113239819D02*
X107468583Y-113239819D01*
X107468583Y-113239819D02*
X107373345Y-113192200D01*
X107373345Y-113192200D02*
X107325726Y-113144580D01*
X35269476Y-113192200D02*
X35412333Y-113239819D01*
X35412333Y-113239819D02*
X35650428Y-113239819D01*
X35650428Y-113239819D02*
X35745666Y-113192200D01*
X35745666Y-113192200D02*
X35793285Y-113144580D01*
X35793285Y-113144580D02*
X35840904Y-113049342D01*
X35840904Y-113049342D02*
X35840904Y-112954104D01*
X35840904Y-112954104D02*
X35793285Y-112858866D01*
X35793285Y-112858866D02*
X35745666Y-112811247D01*
X35745666Y-112811247D02*
X35650428Y-112763628D01*
X35650428Y-112763628D02*
X35459952Y-112716009D01*
X35459952Y-112716009D02*
X35364714Y-112668390D01*
X35364714Y-112668390D02*
X35317095Y-112620771D01*
X35317095Y-112620771D02*
X35269476Y-112525533D01*
X35269476Y-112525533D02*
X35269476Y-112430295D01*
X35269476Y-112430295D02*
X35317095Y-112335057D01*
X35317095Y-112335057D02*
X35364714Y-112287438D01*
X35364714Y-112287438D02*
X35459952Y-112239819D01*
X35459952Y-112239819D02*
X35698047Y-112239819D01*
X35698047Y-112239819D02*
X35840904Y-112287438D01*
X36174238Y-112239819D02*
X36412333Y-113239819D01*
X36412333Y-113239819D02*
X36602809Y-112525533D01*
X36602809Y-112525533D02*
X36793285Y-113239819D01*
X36793285Y-113239819D02*
X37031381Y-112239819D01*
X37317095Y-112239819D02*
X37936142Y-112239819D01*
X37936142Y-112239819D02*
X37602809Y-112620771D01*
X37602809Y-112620771D02*
X37745666Y-112620771D01*
X37745666Y-112620771D02*
X37840904Y-112668390D01*
X37840904Y-112668390D02*
X37888523Y-112716009D01*
X37888523Y-112716009D02*
X37936142Y-112811247D01*
X37936142Y-112811247D02*
X37936142Y-113049342D01*
X37936142Y-113049342D02*
X37888523Y-113144580D01*
X37888523Y-113144580D02*
X37840904Y-113192200D01*
X37840904Y-113192200D02*
X37745666Y-113239819D01*
X37745666Y-113239819D02*
X37459952Y-113239819D01*
X37459952Y-113239819D02*
X37364714Y-113192200D01*
X37364714Y-113192200D02*
X37317095Y-113144580D01*
X38555190Y-112239819D02*
X38650428Y-112239819D01*
X38650428Y-112239819D02*
X38745666Y-112287438D01*
X38745666Y-112287438D02*
X38793285Y-112335057D01*
X38793285Y-112335057D02*
X38840904Y-112430295D01*
X38840904Y-112430295D02*
X38888523Y-112620771D01*
X38888523Y-112620771D02*
X38888523Y-112858866D01*
X38888523Y-112858866D02*
X38840904Y-113049342D01*
X38840904Y-113049342D02*
X38793285Y-113144580D01*
X38793285Y-113144580D02*
X38745666Y-113192200D01*
X38745666Y-113192200D02*
X38650428Y-113239819D01*
X38650428Y-113239819D02*
X38555190Y-113239819D01*
X38555190Y-113239819D02*
X38459952Y-113192200D01*
X38459952Y-113192200D02*
X38412333Y-113144580D01*
X38412333Y-113144580D02*
X38364714Y-113049342D01*
X38364714Y-113049342D02*
X38317095Y-112858866D01*
X38317095Y-112858866D02*
X38317095Y-112620771D01*
X38317095Y-112620771D02*
X38364714Y-112430295D01*
X38364714Y-112430295D02*
X38412333Y-112335057D01*
X38412333Y-112335057D02*
X38459952Y-112287438D01*
X38459952Y-112287438D02*
X38555190Y-112239819D01*
X92895667Y-17942200D02*
X93038524Y-17989819D01*
X93038524Y-17989819D02*
X93276619Y-17989819D01*
X93276619Y-17989819D02*
X93371857Y-17942200D01*
X93371857Y-17942200D02*
X93419476Y-17894580D01*
X93419476Y-17894580D02*
X93467095Y-17799342D01*
X93467095Y-17799342D02*
X93467095Y-17704104D01*
X93467095Y-17704104D02*
X93419476Y-17608866D01*
X93419476Y-17608866D02*
X93371857Y-17561247D01*
X93371857Y-17561247D02*
X93276619Y-17513628D01*
X93276619Y-17513628D02*
X93086143Y-17466009D01*
X93086143Y-17466009D02*
X92990905Y-17418390D01*
X92990905Y-17418390D02*
X92943286Y-17370771D01*
X92943286Y-17370771D02*
X92895667Y-17275533D01*
X92895667Y-17275533D02*
X92895667Y-17180295D01*
X92895667Y-17180295D02*
X92943286Y-17085057D01*
X92943286Y-17085057D02*
X92990905Y-17037438D01*
X92990905Y-17037438D02*
X93086143Y-16989819D01*
X93086143Y-16989819D02*
X93324238Y-16989819D01*
X93324238Y-16989819D02*
X93467095Y-17037438D01*
X93800429Y-16989819D02*
X94038524Y-17989819D01*
X94038524Y-17989819D02*
X94229000Y-17275533D01*
X94229000Y-17275533D02*
X94419476Y-17989819D01*
X94419476Y-17989819D02*
X94657572Y-16989819D01*
X95467095Y-17323152D02*
X95467095Y-17989819D01*
X95229000Y-16942200D02*
X94990905Y-17656485D01*
X94990905Y-17656485D02*
X95609952Y-17656485D01*
X47175726Y-94142200D02*
X47318583Y-94189819D01*
X47318583Y-94189819D02*
X47556678Y-94189819D01*
X47556678Y-94189819D02*
X47651916Y-94142200D01*
X47651916Y-94142200D02*
X47699535Y-94094580D01*
X47699535Y-94094580D02*
X47747154Y-93999342D01*
X47747154Y-93999342D02*
X47747154Y-93904104D01*
X47747154Y-93904104D02*
X47699535Y-93808866D01*
X47699535Y-93808866D02*
X47651916Y-93761247D01*
X47651916Y-93761247D02*
X47556678Y-93713628D01*
X47556678Y-93713628D02*
X47366202Y-93666009D01*
X47366202Y-93666009D02*
X47270964Y-93618390D01*
X47270964Y-93618390D02*
X47223345Y-93570771D01*
X47223345Y-93570771D02*
X47175726Y-93475533D01*
X47175726Y-93475533D02*
X47175726Y-93380295D01*
X47175726Y-93380295D02*
X47223345Y-93285057D01*
X47223345Y-93285057D02*
X47270964Y-93237438D01*
X47270964Y-93237438D02*
X47366202Y-93189819D01*
X47366202Y-93189819D02*
X47604297Y-93189819D01*
X47604297Y-93189819D02*
X47747154Y-93237438D01*
X48080488Y-93189819D02*
X48318583Y-94189819D01*
X48318583Y-94189819D02*
X48509059Y-93475533D01*
X48509059Y-93475533D02*
X48699535Y-94189819D01*
X48699535Y-94189819D02*
X48937631Y-93189819D01*
X49270964Y-93285057D02*
X49318583Y-93237438D01*
X49318583Y-93237438D02*
X49413821Y-93189819D01*
X49413821Y-93189819D02*
X49651916Y-93189819D01*
X49651916Y-93189819D02*
X49747154Y-93237438D01*
X49747154Y-93237438D02*
X49794773Y-93285057D01*
X49794773Y-93285057D02*
X49842392Y-93380295D01*
X49842392Y-93380295D02*
X49842392Y-93475533D01*
X49842392Y-93475533D02*
X49794773Y-93618390D01*
X49794773Y-93618390D02*
X49223345Y-94189819D01*
X49223345Y-94189819D02*
X49842392Y-94189819D01*
X50747154Y-93189819D02*
X50270964Y-93189819D01*
X50270964Y-93189819D02*
X50223345Y-93666009D01*
X50223345Y-93666009D02*
X50270964Y-93618390D01*
X50270964Y-93618390D02*
X50366202Y-93570771D01*
X50366202Y-93570771D02*
X50604297Y-93570771D01*
X50604297Y-93570771D02*
X50699535Y-93618390D01*
X50699535Y-93618390D02*
X50747154Y-93666009D01*
X50747154Y-93666009D02*
X50794773Y-93761247D01*
X50794773Y-93761247D02*
X50794773Y-93999342D01*
X50794773Y-93999342D02*
X50747154Y-94094580D01*
X50747154Y-94094580D02*
X50699535Y-94142200D01*
X50699535Y-94142200D02*
X50604297Y-94189819D01*
X50604297Y-94189819D02*
X50366202Y-94189819D01*
X50366202Y-94189819D02*
X50270964Y-94142200D01*
X50270964Y-94142200D02*
X50223345Y-94094580D01*
X120994476Y-56042200D02*
X121137333Y-56089819D01*
X121137333Y-56089819D02*
X121375428Y-56089819D01*
X121375428Y-56089819D02*
X121470666Y-56042200D01*
X121470666Y-56042200D02*
X121518285Y-55994580D01*
X121518285Y-55994580D02*
X121565904Y-55899342D01*
X121565904Y-55899342D02*
X121565904Y-55804104D01*
X121565904Y-55804104D02*
X121518285Y-55708866D01*
X121518285Y-55708866D02*
X121470666Y-55661247D01*
X121470666Y-55661247D02*
X121375428Y-55613628D01*
X121375428Y-55613628D02*
X121184952Y-55566009D01*
X121184952Y-55566009D02*
X121089714Y-55518390D01*
X121089714Y-55518390D02*
X121042095Y-55470771D01*
X121042095Y-55470771D02*
X120994476Y-55375533D01*
X120994476Y-55375533D02*
X120994476Y-55280295D01*
X120994476Y-55280295D02*
X121042095Y-55185057D01*
X121042095Y-55185057D02*
X121089714Y-55137438D01*
X121089714Y-55137438D02*
X121184952Y-55089819D01*
X121184952Y-55089819D02*
X121423047Y-55089819D01*
X121423047Y-55089819D02*
X121565904Y-55137438D01*
X121899238Y-55089819D02*
X122137333Y-56089819D01*
X122137333Y-56089819D02*
X122327809Y-55375533D01*
X122327809Y-55375533D02*
X122518285Y-56089819D01*
X122518285Y-56089819D02*
X122756381Y-55089819D01*
X123661142Y-56089819D02*
X123089714Y-56089819D01*
X123375428Y-56089819D02*
X123375428Y-55089819D01*
X123375428Y-55089819D02*
X123280190Y-55232676D01*
X123280190Y-55232676D02*
X123184952Y-55327914D01*
X123184952Y-55327914D02*
X123089714Y-55375533D01*
X123994476Y-55089819D02*
X124661142Y-55089819D01*
X124661142Y-55089819D02*
X124232571Y-56089819D01*
X78131976Y-94142200D02*
X78274833Y-94189819D01*
X78274833Y-94189819D02*
X78512928Y-94189819D01*
X78512928Y-94189819D02*
X78608166Y-94142200D01*
X78608166Y-94142200D02*
X78655785Y-94094580D01*
X78655785Y-94094580D02*
X78703404Y-93999342D01*
X78703404Y-93999342D02*
X78703404Y-93904104D01*
X78703404Y-93904104D02*
X78655785Y-93808866D01*
X78655785Y-93808866D02*
X78608166Y-93761247D01*
X78608166Y-93761247D02*
X78512928Y-93713628D01*
X78512928Y-93713628D02*
X78322452Y-93666009D01*
X78322452Y-93666009D02*
X78227214Y-93618390D01*
X78227214Y-93618390D02*
X78179595Y-93570771D01*
X78179595Y-93570771D02*
X78131976Y-93475533D01*
X78131976Y-93475533D02*
X78131976Y-93380295D01*
X78131976Y-93380295D02*
X78179595Y-93285057D01*
X78179595Y-93285057D02*
X78227214Y-93237438D01*
X78227214Y-93237438D02*
X78322452Y-93189819D01*
X78322452Y-93189819D02*
X78560547Y-93189819D01*
X78560547Y-93189819D02*
X78703404Y-93237438D01*
X79036738Y-93189819D02*
X79274833Y-94189819D01*
X79274833Y-94189819D02*
X79465309Y-93475533D01*
X79465309Y-93475533D02*
X79655785Y-94189819D01*
X79655785Y-94189819D02*
X79893881Y-93189819D01*
X80227214Y-93285057D02*
X80274833Y-93237438D01*
X80274833Y-93237438D02*
X80370071Y-93189819D01*
X80370071Y-93189819D02*
X80608166Y-93189819D01*
X80608166Y-93189819D02*
X80703404Y-93237438D01*
X80703404Y-93237438D02*
X80751023Y-93285057D01*
X80751023Y-93285057D02*
X80798642Y-93380295D01*
X80798642Y-93380295D02*
X80798642Y-93475533D01*
X80798642Y-93475533D02*
X80751023Y-93618390D01*
X80751023Y-93618390D02*
X80179595Y-94189819D01*
X80179595Y-94189819D02*
X80798642Y-94189819D01*
X81655785Y-93189819D02*
X81465309Y-93189819D01*
X81465309Y-93189819D02*
X81370071Y-93237438D01*
X81370071Y-93237438D02*
X81322452Y-93285057D01*
X81322452Y-93285057D02*
X81227214Y-93427914D01*
X81227214Y-93427914D02*
X81179595Y-93618390D01*
X81179595Y-93618390D02*
X81179595Y-93999342D01*
X81179595Y-93999342D02*
X81227214Y-94094580D01*
X81227214Y-94094580D02*
X81274833Y-94142200D01*
X81274833Y-94142200D02*
X81370071Y-94189819D01*
X81370071Y-94189819D02*
X81560547Y-94189819D01*
X81560547Y-94189819D02*
X81655785Y-94142200D01*
X81655785Y-94142200D02*
X81703404Y-94094580D01*
X81703404Y-94094580D02*
X81751023Y-93999342D01*
X81751023Y-93999342D02*
X81751023Y-93761247D01*
X81751023Y-93761247D02*
X81703404Y-93666009D01*
X81703404Y-93666009D02*
X81655785Y-93618390D01*
X81655785Y-93618390D02*
X81560547Y-93570771D01*
X81560547Y-93570771D02*
X81370071Y-93570771D01*
X81370071Y-93570771D02*
X81274833Y-93618390D01*
X81274833Y-93618390D02*
X81227214Y-93666009D01*
X81227214Y-93666009D02*
X81179595Y-93761247D01*
X31238095Y-88554819D02*
X31238095Y-87554819D01*
X31238095Y-88031009D02*
X31809523Y-88031009D01*
X31809523Y-88554819D02*
X31809523Y-87554819D01*
X32714285Y-87888152D02*
X32714285Y-88554819D01*
X32476190Y-87507200D02*
X32238095Y-88221485D01*
X32238095Y-88221485D02*
X32857142Y-88221485D01*
X146238095Y-107554819D02*
X146238095Y-106554819D01*
X146238095Y-107031009D02*
X146809523Y-107031009D01*
X146809523Y-107554819D02*
X146809523Y-106554819D01*
X147190476Y-106554819D02*
X147809523Y-106554819D01*
X147809523Y-106554819D02*
X147476190Y-106935771D01*
X147476190Y-106935771D02*
X147619047Y-106935771D01*
X147619047Y-106935771D02*
X147714285Y-106983390D01*
X147714285Y-106983390D02*
X147761904Y-107031009D01*
X147761904Y-107031009D02*
X147809523Y-107126247D01*
X147809523Y-107126247D02*
X147809523Y-107364342D01*
X147809523Y-107364342D02*
X147761904Y-107459580D01*
X147761904Y-107459580D02*
X147714285Y-107507200D01*
X147714285Y-107507200D02*
X147619047Y-107554819D01*
X147619047Y-107554819D02*
X147333333Y-107554819D01*
X147333333Y-107554819D02*
X147238095Y-107507200D01*
X147238095Y-107507200D02*
X147190476Y-107459580D01*
X130519476Y-36992200D02*
X130662333Y-37039819D01*
X130662333Y-37039819D02*
X130900428Y-37039819D01*
X130900428Y-37039819D02*
X130995666Y-36992200D01*
X130995666Y-36992200D02*
X131043285Y-36944580D01*
X131043285Y-36944580D02*
X131090904Y-36849342D01*
X131090904Y-36849342D02*
X131090904Y-36754104D01*
X131090904Y-36754104D02*
X131043285Y-36658866D01*
X131043285Y-36658866D02*
X130995666Y-36611247D01*
X130995666Y-36611247D02*
X130900428Y-36563628D01*
X130900428Y-36563628D02*
X130709952Y-36516009D01*
X130709952Y-36516009D02*
X130614714Y-36468390D01*
X130614714Y-36468390D02*
X130567095Y-36420771D01*
X130567095Y-36420771D02*
X130519476Y-36325533D01*
X130519476Y-36325533D02*
X130519476Y-36230295D01*
X130519476Y-36230295D02*
X130567095Y-36135057D01*
X130567095Y-36135057D02*
X130614714Y-36087438D01*
X130614714Y-36087438D02*
X130709952Y-36039819D01*
X130709952Y-36039819D02*
X130948047Y-36039819D01*
X130948047Y-36039819D02*
X131090904Y-36087438D01*
X131424238Y-36039819D02*
X131662333Y-37039819D01*
X131662333Y-37039819D02*
X131852809Y-36325533D01*
X131852809Y-36325533D02*
X132043285Y-37039819D01*
X132043285Y-37039819D02*
X132281381Y-36039819D01*
X133186142Y-37039819D02*
X132614714Y-37039819D01*
X132900428Y-37039819D02*
X132900428Y-36039819D01*
X132900428Y-36039819D02*
X132805190Y-36182676D01*
X132805190Y-36182676D02*
X132709952Y-36277914D01*
X132709952Y-36277914D02*
X132614714Y-36325533D01*
X133567095Y-36135057D02*
X133614714Y-36087438D01*
X133614714Y-36087438D02*
X133709952Y-36039819D01*
X133709952Y-36039819D02*
X133948047Y-36039819D01*
X133948047Y-36039819D02*
X134043285Y-36087438D01*
X134043285Y-36087438D02*
X134090904Y-36135057D01*
X134090904Y-36135057D02*
X134138523Y-36230295D01*
X134138523Y-36230295D02*
X134138523Y-36325533D01*
X134138523Y-36325533D02*
X134090904Y-36468390D01*
X134090904Y-36468390D02*
X133519476Y-37039819D01*
X133519476Y-37039819D02*
X134138523Y-37039819D01*
X24738095Y-41954819D02*
X24738095Y-40954819D01*
X24738095Y-41431009D02*
X25309523Y-41431009D01*
X25309523Y-41954819D02*
X25309523Y-40954819D01*
X26309523Y-41954819D02*
X25738095Y-41954819D01*
X26023809Y-41954819D02*
X26023809Y-40954819D01*
X26023809Y-40954819D02*
X25928571Y-41097676D01*
X25928571Y-41097676D02*
X25833333Y-41192914D01*
X25833333Y-41192914D02*
X25738095Y-41240533D01*
X54795667Y-17942200D02*
X54938524Y-17989819D01*
X54938524Y-17989819D02*
X55176619Y-17989819D01*
X55176619Y-17989819D02*
X55271857Y-17942200D01*
X55271857Y-17942200D02*
X55319476Y-17894580D01*
X55319476Y-17894580D02*
X55367095Y-17799342D01*
X55367095Y-17799342D02*
X55367095Y-17704104D01*
X55367095Y-17704104D02*
X55319476Y-17608866D01*
X55319476Y-17608866D02*
X55271857Y-17561247D01*
X55271857Y-17561247D02*
X55176619Y-17513628D01*
X55176619Y-17513628D02*
X54986143Y-17466009D01*
X54986143Y-17466009D02*
X54890905Y-17418390D01*
X54890905Y-17418390D02*
X54843286Y-17370771D01*
X54843286Y-17370771D02*
X54795667Y-17275533D01*
X54795667Y-17275533D02*
X54795667Y-17180295D01*
X54795667Y-17180295D02*
X54843286Y-17085057D01*
X54843286Y-17085057D02*
X54890905Y-17037438D01*
X54890905Y-17037438D02*
X54986143Y-16989819D01*
X54986143Y-16989819D02*
X55224238Y-16989819D01*
X55224238Y-16989819D02*
X55367095Y-17037438D01*
X55700429Y-16989819D02*
X55938524Y-17989819D01*
X55938524Y-17989819D02*
X56129000Y-17275533D01*
X56129000Y-17275533D02*
X56319476Y-17989819D01*
X56319476Y-17989819D02*
X56557572Y-16989819D01*
X56890905Y-17085057D02*
X56938524Y-17037438D01*
X56938524Y-17037438D02*
X57033762Y-16989819D01*
X57033762Y-16989819D02*
X57271857Y-16989819D01*
X57271857Y-16989819D02*
X57367095Y-17037438D01*
X57367095Y-17037438D02*
X57414714Y-17085057D01*
X57414714Y-17085057D02*
X57462333Y-17180295D01*
X57462333Y-17180295D02*
X57462333Y-17275533D01*
X57462333Y-17275533D02*
X57414714Y-17418390D01*
X57414714Y-17418390D02*
X56843286Y-17989819D01*
X56843286Y-17989819D02*
X57462333Y-17989819D01*
X5041009Y-48785714D02*
X5088628Y-48642857D01*
X5088628Y-48642857D02*
X5136247Y-48595238D01*
X5136247Y-48595238D02*
X5231485Y-48547619D01*
X5231485Y-48547619D02*
X5374342Y-48547619D01*
X5374342Y-48547619D02*
X5469580Y-48595238D01*
X5469580Y-48595238D02*
X5517200Y-48642857D01*
X5517200Y-48642857D02*
X5564819Y-48738095D01*
X5564819Y-48738095D02*
X5564819Y-49119047D01*
X5564819Y-49119047D02*
X4564819Y-49119047D01*
X4564819Y-49119047D02*
X4564819Y-48785714D01*
X4564819Y-48785714D02*
X4612438Y-48690476D01*
X4612438Y-48690476D02*
X4660057Y-48642857D01*
X4660057Y-48642857D02*
X4755295Y-48595238D01*
X4755295Y-48595238D02*
X4850533Y-48595238D01*
X4850533Y-48595238D02*
X4945771Y-48642857D01*
X4945771Y-48642857D02*
X4993390Y-48690476D01*
X4993390Y-48690476D02*
X5041009Y-48785714D01*
X5041009Y-48785714D02*
X5041009Y-49119047D01*
X4564819Y-48261904D02*
X4564819Y-47690476D01*
X5564819Y-47976190D02*
X4564819Y-47976190D01*
X5564819Y-46833333D02*
X5564819Y-47404761D01*
X5564819Y-47119047D02*
X4564819Y-47119047D01*
X4564819Y-47119047D02*
X4707676Y-47214285D01*
X4707676Y-47214285D02*
X4802914Y-47309523D01*
X4802914Y-47309523D02*
X4850533Y-47404761D01*
X130995667Y-17942200D02*
X131138524Y-17989819D01*
X131138524Y-17989819D02*
X131376619Y-17989819D01*
X131376619Y-17989819D02*
X131471857Y-17942200D01*
X131471857Y-17942200D02*
X131519476Y-17894580D01*
X131519476Y-17894580D02*
X131567095Y-17799342D01*
X131567095Y-17799342D02*
X131567095Y-17704104D01*
X131567095Y-17704104D02*
X131519476Y-17608866D01*
X131519476Y-17608866D02*
X131471857Y-17561247D01*
X131471857Y-17561247D02*
X131376619Y-17513628D01*
X131376619Y-17513628D02*
X131186143Y-17466009D01*
X131186143Y-17466009D02*
X131090905Y-17418390D01*
X131090905Y-17418390D02*
X131043286Y-17370771D01*
X131043286Y-17370771D02*
X130995667Y-17275533D01*
X130995667Y-17275533D02*
X130995667Y-17180295D01*
X130995667Y-17180295D02*
X131043286Y-17085057D01*
X131043286Y-17085057D02*
X131090905Y-17037438D01*
X131090905Y-17037438D02*
X131186143Y-16989819D01*
X131186143Y-16989819D02*
X131424238Y-16989819D01*
X131424238Y-16989819D02*
X131567095Y-17037438D01*
X131900429Y-16989819D02*
X132138524Y-17989819D01*
X132138524Y-17989819D02*
X132329000Y-17275533D01*
X132329000Y-17275533D02*
X132519476Y-17989819D01*
X132519476Y-17989819D02*
X132757572Y-16989819D01*
X133567095Y-16989819D02*
X133376619Y-16989819D01*
X133376619Y-16989819D02*
X133281381Y-17037438D01*
X133281381Y-17037438D02*
X133233762Y-17085057D01*
X133233762Y-17085057D02*
X133138524Y-17227914D01*
X133138524Y-17227914D02*
X133090905Y-17418390D01*
X133090905Y-17418390D02*
X133090905Y-17799342D01*
X133090905Y-17799342D02*
X133138524Y-17894580D01*
X133138524Y-17894580D02*
X133186143Y-17942200D01*
X133186143Y-17942200D02*
X133281381Y-17989819D01*
X133281381Y-17989819D02*
X133471857Y-17989819D01*
X133471857Y-17989819D02*
X133567095Y-17942200D01*
X133567095Y-17942200D02*
X133614714Y-17894580D01*
X133614714Y-17894580D02*
X133662333Y-17799342D01*
X133662333Y-17799342D02*
X133662333Y-17561247D01*
X133662333Y-17561247D02*
X133614714Y-17466009D01*
X133614714Y-17466009D02*
X133567095Y-17418390D01*
X133567095Y-17418390D02*
X133471857Y-17370771D01*
X133471857Y-17370771D02*
X133281381Y-17370771D01*
X133281381Y-17370771D02*
X133186143Y-17418390D01*
X133186143Y-17418390D02*
X133138524Y-17466009D01*
X133138524Y-17466009D02*
X133090905Y-17561247D01*
X111945667Y-17942200D02*
X112088524Y-17989819D01*
X112088524Y-17989819D02*
X112326619Y-17989819D01*
X112326619Y-17989819D02*
X112421857Y-17942200D01*
X112421857Y-17942200D02*
X112469476Y-17894580D01*
X112469476Y-17894580D02*
X112517095Y-17799342D01*
X112517095Y-17799342D02*
X112517095Y-17704104D01*
X112517095Y-17704104D02*
X112469476Y-17608866D01*
X112469476Y-17608866D02*
X112421857Y-17561247D01*
X112421857Y-17561247D02*
X112326619Y-17513628D01*
X112326619Y-17513628D02*
X112136143Y-17466009D01*
X112136143Y-17466009D02*
X112040905Y-17418390D01*
X112040905Y-17418390D02*
X111993286Y-17370771D01*
X111993286Y-17370771D02*
X111945667Y-17275533D01*
X111945667Y-17275533D02*
X111945667Y-17180295D01*
X111945667Y-17180295D02*
X111993286Y-17085057D01*
X111993286Y-17085057D02*
X112040905Y-17037438D01*
X112040905Y-17037438D02*
X112136143Y-16989819D01*
X112136143Y-16989819D02*
X112374238Y-16989819D01*
X112374238Y-16989819D02*
X112517095Y-17037438D01*
X112850429Y-16989819D02*
X113088524Y-17989819D01*
X113088524Y-17989819D02*
X113279000Y-17275533D01*
X113279000Y-17275533D02*
X113469476Y-17989819D01*
X113469476Y-17989819D02*
X113707572Y-16989819D01*
X114564714Y-16989819D02*
X114088524Y-16989819D01*
X114088524Y-16989819D02*
X114040905Y-17466009D01*
X114040905Y-17466009D02*
X114088524Y-17418390D01*
X114088524Y-17418390D02*
X114183762Y-17370771D01*
X114183762Y-17370771D02*
X114421857Y-17370771D01*
X114421857Y-17370771D02*
X114517095Y-17418390D01*
X114517095Y-17418390D02*
X114564714Y-17466009D01*
X114564714Y-17466009D02*
X114612333Y-17561247D01*
X114612333Y-17561247D02*
X114612333Y-17799342D01*
X114612333Y-17799342D02*
X114564714Y-17894580D01*
X114564714Y-17894580D02*
X114517095Y-17942200D01*
X114517095Y-17942200D02*
X114421857Y-17989819D01*
X114421857Y-17989819D02*
X114183762Y-17989819D01*
X114183762Y-17989819D02*
X114088524Y-17942200D01*
X114088524Y-17942200D02*
X114040905Y-17894580D01*
X144806976Y-75092200D02*
X144949833Y-75139819D01*
X144949833Y-75139819D02*
X145187928Y-75139819D01*
X145187928Y-75139819D02*
X145283166Y-75092200D01*
X145283166Y-75092200D02*
X145330785Y-75044580D01*
X145330785Y-75044580D02*
X145378404Y-74949342D01*
X145378404Y-74949342D02*
X145378404Y-74854104D01*
X145378404Y-74854104D02*
X145330785Y-74758866D01*
X145330785Y-74758866D02*
X145283166Y-74711247D01*
X145283166Y-74711247D02*
X145187928Y-74663628D01*
X145187928Y-74663628D02*
X144997452Y-74616009D01*
X144997452Y-74616009D02*
X144902214Y-74568390D01*
X144902214Y-74568390D02*
X144854595Y-74520771D01*
X144854595Y-74520771D02*
X144806976Y-74425533D01*
X144806976Y-74425533D02*
X144806976Y-74330295D01*
X144806976Y-74330295D02*
X144854595Y-74235057D01*
X144854595Y-74235057D02*
X144902214Y-74187438D01*
X144902214Y-74187438D02*
X144997452Y-74139819D01*
X144997452Y-74139819D02*
X145235547Y-74139819D01*
X145235547Y-74139819D02*
X145378404Y-74187438D01*
X145711738Y-74139819D02*
X145949833Y-75139819D01*
X145949833Y-75139819D02*
X146140309Y-74425533D01*
X146140309Y-74425533D02*
X146330785Y-75139819D01*
X146330785Y-75139819D02*
X146568881Y-74139819D01*
X146902214Y-74235057D02*
X146949833Y-74187438D01*
X146949833Y-74187438D02*
X147045071Y-74139819D01*
X147045071Y-74139819D02*
X147283166Y-74139819D01*
X147283166Y-74139819D02*
X147378404Y-74187438D01*
X147378404Y-74187438D02*
X147426023Y-74235057D01*
X147426023Y-74235057D02*
X147473642Y-74330295D01*
X147473642Y-74330295D02*
X147473642Y-74425533D01*
X147473642Y-74425533D02*
X147426023Y-74568390D01*
X147426023Y-74568390D02*
X146854595Y-75139819D01*
X146854595Y-75139819D02*
X147473642Y-75139819D01*
X148330785Y-74473152D02*
X148330785Y-75139819D01*
X148092690Y-74092200D02*
X147854595Y-74806485D01*
X147854595Y-74806485D02*
X148473642Y-74806485D01*
D11*
X9823428Y-3072814D02*
X9323428Y-3072814D01*
X9323428Y-3858528D02*
X9323428Y-2358528D01*
X9323428Y-2358528D02*
X10037714Y-2358528D01*
X11466285Y-3858528D02*
X10966285Y-3144242D01*
X10609142Y-3858528D02*
X10609142Y-2358528D01*
X10609142Y-2358528D02*
X11180571Y-2358528D01*
X11180571Y-2358528D02*
X11323428Y-2429957D01*
X11323428Y-2429957D02*
X11394857Y-2501385D01*
X11394857Y-2501385D02*
X11466285Y-2644242D01*
X11466285Y-2644242D02*
X11466285Y-2858528D01*
X11466285Y-2858528D02*
X11394857Y-3001385D01*
X11394857Y-3001385D02*
X11323428Y-3072814D01*
X11323428Y-3072814D02*
X11180571Y-3144242D01*
X11180571Y-3144242D02*
X10609142Y-3144242D01*
X12394857Y-2358528D02*
X12680571Y-2358528D01*
X12680571Y-2358528D02*
X12823428Y-2429957D01*
X12823428Y-2429957D02*
X12966285Y-2572814D01*
X12966285Y-2572814D02*
X13037714Y-2858528D01*
X13037714Y-2858528D02*
X13037714Y-3358528D01*
X13037714Y-3358528D02*
X12966285Y-3644242D01*
X12966285Y-3644242D02*
X12823428Y-3787100D01*
X12823428Y-3787100D02*
X12680571Y-3858528D01*
X12680571Y-3858528D02*
X12394857Y-3858528D01*
X12394857Y-3858528D02*
X12252000Y-3787100D01*
X12252000Y-3787100D02*
X12109142Y-3644242D01*
X12109142Y-3644242D02*
X12037714Y-3358528D01*
X12037714Y-3358528D02*
X12037714Y-2858528D01*
X12037714Y-2858528D02*
X12109142Y-2572814D01*
X12109142Y-2572814D02*
X12252000Y-2429957D01*
X12252000Y-2429957D02*
X12394857Y-2358528D01*
X13680571Y-3858528D02*
X13680571Y-2358528D01*
X13680571Y-2358528D02*
X14537714Y-3858528D01*
X14537714Y-3858528D02*
X14537714Y-2358528D01*
X15037715Y-2358528D02*
X15894858Y-2358528D01*
X15466286Y-3858528D02*
X15466286Y-2358528D01*
D10*
X20826466Y-2235238D02*
X20826466Y-2844762D01*
X20521704Y-2540000D02*
X21131228Y-2540000D01*
X5586466Y-2235238D02*
X5586466Y-2844762D01*
X56700726Y-113192200D02*
X56843583Y-113239819D01*
X56843583Y-113239819D02*
X57081678Y-113239819D01*
X57081678Y-113239819D02*
X57176916Y-113192200D01*
X57176916Y-113192200D02*
X57224535Y-113144580D01*
X57224535Y-113144580D02*
X57272154Y-113049342D01*
X57272154Y-113049342D02*
X57272154Y-112954104D01*
X57272154Y-112954104D02*
X57224535Y-112858866D01*
X57224535Y-112858866D02*
X57176916Y-112811247D01*
X57176916Y-112811247D02*
X57081678Y-112763628D01*
X57081678Y-112763628D02*
X56891202Y-112716009D01*
X56891202Y-112716009D02*
X56795964Y-112668390D01*
X56795964Y-112668390D02*
X56748345Y-112620771D01*
X56748345Y-112620771D02*
X56700726Y-112525533D01*
X56700726Y-112525533D02*
X56700726Y-112430295D01*
X56700726Y-112430295D02*
X56748345Y-112335057D01*
X56748345Y-112335057D02*
X56795964Y-112287438D01*
X56795964Y-112287438D02*
X56891202Y-112239819D01*
X56891202Y-112239819D02*
X57129297Y-112239819D01*
X57129297Y-112239819D02*
X57272154Y-112287438D01*
X57605488Y-112239819D02*
X57843583Y-113239819D01*
X57843583Y-113239819D02*
X58034059Y-112525533D01*
X58034059Y-112525533D02*
X58224535Y-113239819D01*
X58224535Y-113239819D02*
X58462631Y-112239819D01*
X58748345Y-112239819D02*
X59367392Y-112239819D01*
X59367392Y-112239819D02*
X59034059Y-112620771D01*
X59034059Y-112620771D02*
X59176916Y-112620771D01*
X59176916Y-112620771D02*
X59272154Y-112668390D01*
X59272154Y-112668390D02*
X59319773Y-112716009D01*
X59319773Y-112716009D02*
X59367392Y-112811247D01*
X59367392Y-112811247D02*
X59367392Y-113049342D01*
X59367392Y-113049342D02*
X59319773Y-113144580D01*
X59319773Y-113144580D02*
X59272154Y-113192200D01*
X59272154Y-113192200D02*
X59176916Y-113239819D01*
X59176916Y-113239819D02*
X58891202Y-113239819D01*
X58891202Y-113239819D02*
X58795964Y-113192200D01*
X58795964Y-113192200D02*
X58748345Y-113144580D01*
X60319773Y-113239819D02*
X59748345Y-113239819D01*
X60034059Y-113239819D02*
X60034059Y-112239819D01*
X60034059Y-112239819D02*
X59938821Y-112382676D01*
X59938821Y-112382676D02*
X59843583Y-112477914D01*
X59843583Y-112477914D02*
X59748345Y-112525533D01*
X106706976Y-75092200D02*
X106849833Y-75139819D01*
X106849833Y-75139819D02*
X107087928Y-75139819D01*
X107087928Y-75139819D02*
X107183166Y-75092200D01*
X107183166Y-75092200D02*
X107230785Y-75044580D01*
X107230785Y-75044580D02*
X107278404Y-74949342D01*
X107278404Y-74949342D02*
X107278404Y-74854104D01*
X107278404Y-74854104D02*
X107230785Y-74758866D01*
X107230785Y-74758866D02*
X107183166Y-74711247D01*
X107183166Y-74711247D02*
X107087928Y-74663628D01*
X107087928Y-74663628D02*
X106897452Y-74616009D01*
X106897452Y-74616009D02*
X106802214Y-74568390D01*
X106802214Y-74568390D02*
X106754595Y-74520771D01*
X106754595Y-74520771D02*
X106706976Y-74425533D01*
X106706976Y-74425533D02*
X106706976Y-74330295D01*
X106706976Y-74330295D02*
X106754595Y-74235057D01*
X106754595Y-74235057D02*
X106802214Y-74187438D01*
X106802214Y-74187438D02*
X106897452Y-74139819D01*
X106897452Y-74139819D02*
X107135547Y-74139819D01*
X107135547Y-74139819D02*
X107278404Y-74187438D01*
X107611738Y-74139819D02*
X107849833Y-75139819D01*
X107849833Y-75139819D02*
X108040309Y-74425533D01*
X108040309Y-74425533D02*
X108230785Y-75139819D01*
X108230785Y-75139819D02*
X108468881Y-74139819D01*
X108802214Y-74235057D02*
X108849833Y-74187438D01*
X108849833Y-74187438D02*
X108945071Y-74139819D01*
X108945071Y-74139819D02*
X109183166Y-74139819D01*
X109183166Y-74139819D02*
X109278404Y-74187438D01*
X109278404Y-74187438D02*
X109326023Y-74235057D01*
X109326023Y-74235057D02*
X109373642Y-74330295D01*
X109373642Y-74330295D02*
X109373642Y-74425533D01*
X109373642Y-74425533D02*
X109326023Y-74568390D01*
X109326023Y-74568390D02*
X108754595Y-75139819D01*
X108754595Y-75139819D02*
X109373642Y-75139819D01*
X109754595Y-74235057D02*
X109802214Y-74187438D01*
X109802214Y-74187438D02*
X109897452Y-74139819D01*
X109897452Y-74139819D02*
X110135547Y-74139819D01*
X110135547Y-74139819D02*
X110230785Y-74187438D01*
X110230785Y-74187438D02*
X110278404Y-74235057D01*
X110278404Y-74235057D02*
X110326023Y-74330295D01*
X110326023Y-74330295D02*
X110326023Y-74425533D01*
X110326023Y-74425533D02*
X110278404Y-74568390D01*
X110278404Y-74568390D02*
X109706976Y-75139819D01*
X109706976Y-75139819D02*
X110326023Y-75139819D01*
X35745667Y-17942200D02*
X35888524Y-17989819D01*
X35888524Y-17989819D02*
X36126619Y-17989819D01*
X36126619Y-17989819D02*
X36221857Y-17942200D01*
X36221857Y-17942200D02*
X36269476Y-17894580D01*
X36269476Y-17894580D02*
X36317095Y-17799342D01*
X36317095Y-17799342D02*
X36317095Y-17704104D01*
X36317095Y-17704104D02*
X36269476Y-17608866D01*
X36269476Y-17608866D02*
X36221857Y-17561247D01*
X36221857Y-17561247D02*
X36126619Y-17513628D01*
X36126619Y-17513628D02*
X35936143Y-17466009D01*
X35936143Y-17466009D02*
X35840905Y-17418390D01*
X35840905Y-17418390D02*
X35793286Y-17370771D01*
X35793286Y-17370771D02*
X35745667Y-17275533D01*
X35745667Y-17275533D02*
X35745667Y-17180295D01*
X35745667Y-17180295D02*
X35793286Y-17085057D01*
X35793286Y-17085057D02*
X35840905Y-17037438D01*
X35840905Y-17037438D02*
X35936143Y-16989819D01*
X35936143Y-16989819D02*
X36174238Y-16989819D01*
X36174238Y-16989819D02*
X36317095Y-17037438D01*
X36650429Y-16989819D02*
X36888524Y-17989819D01*
X36888524Y-17989819D02*
X37079000Y-17275533D01*
X37079000Y-17275533D02*
X37269476Y-17989819D01*
X37269476Y-17989819D02*
X37507572Y-16989819D01*
X38412333Y-17989819D02*
X37840905Y-17989819D01*
X38126619Y-17989819D02*
X38126619Y-16989819D01*
X38126619Y-16989819D02*
X38031381Y-17132676D01*
X38031381Y-17132676D02*
X37936143Y-17227914D01*
X37936143Y-17227914D02*
X37840905Y-17275533D01*
X40031976Y-56042200D02*
X40174833Y-56089819D01*
X40174833Y-56089819D02*
X40412928Y-56089819D01*
X40412928Y-56089819D02*
X40508166Y-56042200D01*
X40508166Y-56042200D02*
X40555785Y-55994580D01*
X40555785Y-55994580D02*
X40603404Y-55899342D01*
X40603404Y-55899342D02*
X40603404Y-55804104D01*
X40603404Y-55804104D02*
X40555785Y-55708866D01*
X40555785Y-55708866D02*
X40508166Y-55661247D01*
X40508166Y-55661247D02*
X40412928Y-55613628D01*
X40412928Y-55613628D02*
X40222452Y-55566009D01*
X40222452Y-55566009D02*
X40127214Y-55518390D01*
X40127214Y-55518390D02*
X40079595Y-55470771D01*
X40079595Y-55470771D02*
X40031976Y-55375533D01*
X40031976Y-55375533D02*
X40031976Y-55280295D01*
X40031976Y-55280295D02*
X40079595Y-55185057D01*
X40079595Y-55185057D02*
X40127214Y-55137438D01*
X40127214Y-55137438D02*
X40222452Y-55089819D01*
X40222452Y-55089819D02*
X40460547Y-55089819D01*
X40460547Y-55089819D02*
X40603404Y-55137438D01*
X40936738Y-55089819D02*
X41174833Y-56089819D01*
X41174833Y-56089819D02*
X41365309Y-55375533D01*
X41365309Y-55375533D02*
X41555785Y-56089819D01*
X41555785Y-56089819D02*
X41793881Y-55089819D01*
X42698642Y-56089819D02*
X42127214Y-56089819D01*
X42412928Y-56089819D02*
X42412928Y-55089819D01*
X42412928Y-55089819D02*
X42317690Y-55232676D01*
X42317690Y-55232676D02*
X42222452Y-55327914D01*
X42222452Y-55327914D02*
X42127214Y-55375533D01*
X43031976Y-55089819D02*
X43651023Y-55089819D01*
X43651023Y-55089819D02*
X43317690Y-55470771D01*
X43317690Y-55470771D02*
X43460547Y-55470771D01*
X43460547Y-55470771D02*
X43555785Y-55518390D01*
X43555785Y-55518390D02*
X43603404Y-55566009D01*
X43603404Y-55566009D02*
X43651023Y-55661247D01*
X43651023Y-55661247D02*
X43651023Y-55899342D01*
X43651023Y-55899342D02*
X43603404Y-55994580D01*
X43603404Y-55994580D02*
X43555785Y-56042200D01*
X43555785Y-56042200D02*
X43460547Y-56089819D01*
X43460547Y-56089819D02*
X43174833Y-56089819D01*
X43174833Y-56089819D02*
X43079595Y-56042200D01*
X43079595Y-56042200D02*
X43031976Y-55994580D01*
X18666666Y-41954819D02*
X18666666Y-42669104D01*
X18666666Y-42669104D02*
X18619047Y-42811961D01*
X18619047Y-42811961D02*
X18523809Y-42907200D01*
X18523809Y-42907200D02*
X18380952Y-42954819D01*
X18380952Y-42954819D02*
X18285714Y-42954819D01*
X19666666Y-42954819D02*
X19095238Y-42954819D01*
X19380952Y-42954819D02*
X19380952Y-41954819D01*
X19380952Y-41954819D02*
X19285714Y-42097676D01*
X19285714Y-42097676D02*
X19190476Y-42192914D01*
X19190476Y-42192914D02*
X19095238Y-42240533D01*
X101944476Y-56042200D02*
X102087333Y-56089819D01*
X102087333Y-56089819D02*
X102325428Y-56089819D01*
X102325428Y-56089819D02*
X102420666Y-56042200D01*
X102420666Y-56042200D02*
X102468285Y-55994580D01*
X102468285Y-55994580D02*
X102515904Y-55899342D01*
X102515904Y-55899342D02*
X102515904Y-55804104D01*
X102515904Y-55804104D02*
X102468285Y-55708866D01*
X102468285Y-55708866D02*
X102420666Y-55661247D01*
X102420666Y-55661247D02*
X102325428Y-55613628D01*
X102325428Y-55613628D02*
X102134952Y-55566009D01*
X102134952Y-55566009D02*
X102039714Y-55518390D01*
X102039714Y-55518390D02*
X101992095Y-55470771D01*
X101992095Y-55470771D02*
X101944476Y-55375533D01*
X101944476Y-55375533D02*
X101944476Y-55280295D01*
X101944476Y-55280295D02*
X101992095Y-55185057D01*
X101992095Y-55185057D02*
X102039714Y-55137438D01*
X102039714Y-55137438D02*
X102134952Y-55089819D01*
X102134952Y-55089819D02*
X102373047Y-55089819D01*
X102373047Y-55089819D02*
X102515904Y-55137438D01*
X102849238Y-55089819D02*
X103087333Y-56089819D01*
X103087333Y-56089819D02*
X103277809Y-55375533D01*
X103277809Y-55375533D02*
X103468285Y-56089819D01*
X103468285Y-56089819D02*
X103706381Y-55089819D01*
X104611142Y-56089819D02*
X104039714Y-56089819D01*
X104325428Y-56089819D02*
X104325428Y-55089819D01*
X104325428Y-55089819D02*
X104230190Y-55232676D01*
X104230190Y-55232676D02*
X104134952Y-55327914D01*
X104134952Y-55327914D02*
X104039714Y-55375533D01*
X105468285Y-55089819D02*
X105277809Y-55089819D01*
X105277809Y-55089819D02*
X105182571Y-55137438D01*
X105182571Y-55137438D02*
X105134952Y-55185057D01*
X105134952Y-55185057D02*
X105039714Y-55327914D01*
X105039714Y-55327914D02*
X104992095Y-55518390D01*
X104992095Y-55518390D02*
X104992095Y-55899342D01*
X104992095Y-55899342D02*
X105039714Y-55994580D01*
X105039714Y-55994580D02*
X105087333Y-56042200D01*
X105087333Y-56042200D02*
X105182571Y-56089819D01*
X105182571Y-56089819D02*
X105373047Y-56089819D01*
X105373047Y-56089819D02*
X105468285Y-56042200D01*
X105468285Y-56042200D02*
X105515904Y-55994580D01*
X105515904Y-55994580D02*
X105563523Y-55899342D01*
X105563523Y-55899342D02*
X105563523Y-55661247D01*
X105563523Y-55661247D02*
X105515904Y-55566009D01*
X105515904Y-55566009D02*
X105468285Y-55518390D01*
X105468285Y-55518390D02*
X105373047Y-55470771D01*
X105373047Y-55470771D02*
X105182571Y-55470771D01*
X105182571Y-55470771D02*
X105087333Y-55518390D01*
X105087333Y-55518390D02*
X105039714Y-55566009D01*
X105039714Y-55566009D02*
X104992095Y-55661247D01*
X125756976Y-75092200D02*
X125899833Y-75139819D01*
X125899833Y-75139819D02*
X126137928Y-75139819D01*
X126137928Y-75139819D02*
X126233166Y-75092200D01*
X126233166Y-75092200D02*
X126280785Y-75044580D01*
X126280785Y-75044580D02*
X126328404Y-74949342D01*
X126328404Y-74949342D02*
X126328404Y-74854104D01*
X126328404Y-74854104D02*
X126280785Y-74758866D01*
X126280785Y-74758866D02*
X126233166Y-74711247D01*
X126233166Y-74711247D02*
X126137928Y-74663628D01*
X126137928Y-74663628D02*
X125947452Y-74616009D01*
X125947452Y-74616009D02*
X125852214Y-74568390D01*
X125852214Y-74568390D02*
X125804595Y-74520771D01*
X125804595Y-74520771D02*
X125756976Y-74425533D01*
X125756976Y-74425533D02*
X125756976Y-74330295D01*
X125756976Y-74330295D02*
X125804595Y-74235057D01*
X125804595Y-74235057D02*
X125852214Y-74187438D01*
X125852214Y-74187438D02*
X125947452Y-74139819D01*
X125947452Y-74139819D02*
X126185547Y-74139819D01*
X126185547Y-74139819D02*
X126328404Y-74187438D01*
X126661738Y-74139819D02*
X126899833Y-75139819D01*
X126899833Y-75139819D02*
X127090309Y-74425533D01*
X127090309Y-74425533D02*
X127280785Y-75139819D01*
X127280785Y-75139819D02*
X127518881Y-74139819D01*
X127852214Y-74235057D02*
X127899833Y-74187438D01*
X127899833Y-74187438D02*
X127995071Y-74139819D01*
X127995071Y-74139819D02*
X128233166Y-74139819D01*
X128233166Y-74139819D02*
X128328404Y-74187438D01*
X128328404Y-74187438D02*
X128376023Y-74235057D01*
X128376023Y-74235057D02*
X128423642Y-74330295D01*
X128423642Y-74330295D02*
X128423642Y-74425533D01*
X128423642Y-74425533D02*
X128376023Y-74568390D01*
X128376023Y-74568390D02*
X127804595Y-75139819D01*
X127804595Y-75139819D02*
X128423642Y-75139819D01*
X128756976Y-74139819D02*
X129376023Y-74139819D01*
X129376023Y-74139819D02*
X129042690Y-74520771D01*
X129042690Y-74520771D02*
X129185547Y-74520771D01*
X129185547Y-74520771D02*
X129280785Y-74568390D01*
X129280785Y-74568390D02*
X129328404Y-74616009D01*
X129328404Y-74616009D02*
X129376023Y-74711247D01*
X129376023Y-74711247D02*
X129376023Y-74949342D01*
X129376023Y-74949342D02*
X129328404Y-75044580D01*
X129328404Y-75044580D02*
X129280785Y-75092200D01*
X129280785Y-75092200D02*
X129185547Y-75139819D01*
X129185547Y-75139819D02*
X128899833Y-75139819D01*
X128899833Y-75139819D02*
X128804595Y-75092200D01*
X128804595Y-75092200D02*
X128756976Y-75044580D01*
X117738095Y-16554819D02*
X117738095Y-15554819D01*
X117738095Y-16031009D02*
X118309523Y-16031009D01*
X118309523Y-16554819D02*
X118309523Y-15554819D01*
X118738095Y-15650057D02*
X118785714Y-15602438D01*
X118785714Y-15602438D02*
X118880952Y-15554819D01*
X118880952Y-15554819D02*
X119119047Y-15554819D01*
X119119047Y-15554819D02*
X119214285Y-15602438D01*
X119214285Y-15602438D02*
X119261904Y-15650057D01*
X119261904Y-15650057D02*
X119309523Y-15745295D01*
X119309523Y-15745295D02*
X119309523Y-15840533D01*
X119309523Y-15840533D02*
X119261904Y-15983390D01*
X119261904Y-15983390D02*
X118690476Y-16554819D01*
X118690476Y-16554819D02*
X119309523Y-16554819D01*
X42413226Y-75092200D02*
X42556083Y-75139819D01*
X42556083Y-75139819D02*
X42794178Y-75139819D01*
X42794178Y-75139819D02*
X42889416Y-75092200D01*
X42889416Y-75092200D02*
X42937035Y-75044580D01*
X42937035Y-75044580D02*
X42984654Y-74949342D01*
X42984654Y-74949342D02*
X42984654Y-74854104D01*
X42984654Y-74854104D02*
X42937035Y-74758866D01*
X42937035Y-74758866D02*
X42889416Y-74711247D01*
X42889416Y-74711247D02*
X42794178Y-74663628D01*
X42794178Y-74663628D02*
X42603702Y-74616009D01*
X42603702Y-74616009D02*
X42508464Y-74568390D01*
X42508464Y-74568390D02*
X42460845Y-74520771D01*
X42460845Y-74520771D02*
X42413226Y-74425533D01*
X42413226Y-74425533D02*
X42413226Y-74330295D01*
X42413226Y-74330295D02*
X42460845Y-74235057D01*
X42460845Y-74235057D02*
X42508464Y-74187438D01*
X42508464Y-74187438D02*
X42603702Y-74139819D01*
X42603702Y-74139819D02*
X42841797Y-74139819D01*
X42841797Y-74139819D02*
X42984654Y-74187438D01*
X43317988Y-74139819D02*
X43556083Y-75139819D01*
X43556083Y-75139819D02*
X43746559Y-74425533D01*
X43746559Y-74425533D02*
X43937035Y-75139819D01*
X43937035Y-75139819D02*
X44175131Y-74139819D01*
X45079892Y-75139819D02*
X44508464Y-75139819D01*
X44794178Y-75139819D02*
X44794178Y-74139819D01*
X44794178Y-74139819D02*
X44698940Y-74282676D01*
X44698940Y-74282676D02*
X44603702Y-74377914D01*
X44603702Y-74377914D02*
X44508464Y-74425533D01*
X45556083Y-75139819D02*
X45746559Y-75139819D01*
X45746559Y-75139819D02*
X45841797Y-75092200D01*
X45841797Y-75092200D02*
X45889416Y-75044580D01*
X45889416Y-75044580D02*
X45984654Y-74901723D01*
X45984654Y-74901723D02*
X46032273Y-74711247D01*
X46032273Y-74711247D02*
X46032273Y-74330295D01*
X46032273Y-74330295D02*
X45984654Y-74235057D01*
X45984654Y-74235057D02*
X45937035Y-74187438D01*
X45937035Y-74187438D02*
X45841797Y-74139819D01*
X45841797Y-74139819D02*
X45651321Y-74139819D01*
X45651321Y-74139819D02*
X45556083Y-74187438D01*
X45556083Y-74187438D02*
X45508464Y-74235057D01*
X45508464Y-74235057D02*
X45460845Y-74330295D01*
X45460845Y-74330295D02*
X45460845Y-74568390D01*
X45460845Y-74568390D02*
X45508464Y-74663628D01*
X45508464Y-74663628D02*
X45556083Y-74711247D01*
X45556083Y-74711247D02*
X45651321Y-74758866D01*
X45651321Y-74758866D02*
X45841797Y-74758866D01*
X45841797Y-74758866D02*
X45937035Y-74711247D01*
X45937035Y-74711247D02*
X45984654Y-74663628D01*
X45984654Y-74663628D02*
X46032273Y-74568390D01*
X35745667Y-36992200D02*
X35888524Y-37039819D01*
X35888524Y-37039819D02*
X36126619Y-37039819D01*
X36126619Y-37039819D02*
X36221857Y-36992200D01*
X36221857Y-36992200D02*
X36269476Y-36944580D01*
X36269476Y-36944580D02*
X36317095Y-36849342D01*
X36317095Y-36849342D02*
X36317095Y-36754104D01*
X36317095Y-36754104D02*
X36269476Y-36658866D01*
X36269476Y-36658866D02*
X36221857Y-36611247D01*
X36221857Y-36611247D02*
X36126619Y-36563628D01*
X36126619Y-36563628D02*
X35936143Y-36516009D01*
X35936143Y-36516009D02*
X35840905Y-36468390D01*
X35840905Y-36468390D02*
X35793286Y-36420771D01*
X35793286Y-36420771D02*
X35745667Y-36325533D01*
X35745667Y-36325533D02*
X35745667Y-36230295D01*
X35745667Y-36230295D02*
X35793286Y-36135057D01*
X35793286Y-36135057D02*
X35840905Y-36087438D01*
X35840905Y-36087438D02*
X35936143Y-36039819D01*
X35936143Y-36039819D02*
X36174238Y-36039819D01*
X36174238Y-36039819D02*
X36317095Y-36087438D01*
X36650429Y-36039819D02*
X36888524Y-37039819D01*
X36888524Y-37039819D02*
X37079000Y-36325533D01*
X37079000Y-36325533D02*
X37269476Y-37039819D01*
X37269476Y-37039819D02*
X37507572Y-36039819D01*
X37793286Y-36039819D02*
X38459952Y-36039819D01*
X38459952Y-36039819D02*
X38031381Y-37039819D01*
D12*
%TO.C,SW32*%
X70392750Y-96975000D02*
X70392750Y-97975000D01*
X70392750Y-96975000D02*
X71392750Y-96975000D01*
X70392750Y-112575000D02*
X70392750Y-111575000D01*
X70392750Y-112575000D02*
X71392750Y-112575000D01*
X70692750Y-97275000D02*
X70692750Y-98275000D01*
X70692750Y-97275000D02*
X71692750Y-97275000D01*
X70692750Y-112350000D02*
X70692750Y-111350000D01*
X70692750Y-112350000D02*
X71692750Y-112350000D01*
X71207750Y-97790000D02*
X85177750Y-97790000D01*
X71207750Y-111760000D02*
X71207750Y-97790000D01*
X73332750Y-95775000D02*
X78192750Y-95775000D01*
X73332750Y-97775000D02*
X73332750Y-95775000D01*
X77292750Y-111760000D02*
X71207750Y-111760000D01*
X85177750Y-97790000D02*
X85177750Y-111760000D01*
X85177750Y-111760000D02*
X79092750Y-111760000D01*
X85692750Y-97275000D02*
X84692750Y-97275000D01*
X85692750Y-97275000D02*
X85692750Y-98275000D01*
X85692750Y-112350000D02*
X84692750Y-112350000D01*
X85692750Y-112350000D02*
X85692750Y-111350000D01*
X85992750Y-96975000D02*
X84992750Y-96975000D01*
X85992750Y-96975000D02*
X85992750Y-97975000D01*
X85992750Y-112575000D02*
X84992750Y-112575000D01*
X85992750Y-112575000D02*
X85992750Y-111575000D01*
%TO.C,SW28*%
X106111500Y-77925000D02*
X106111500Y-78925000D01*
X106111500Y-77925000D02*
X107111500Y-77925000D01*
X106111500Y-93525000D02*
X106111500Y-92525000D01*
X106111500Y-93525000D02*
X107111500Y-93525000D01*
X106411500Y-78225000D02*
X106411500Y-79225000D01*
X106411500Y-78225000D02*
X107411500Y-78225000D01*
X106411500Y-93300000D02*
X106411500Y-92300000D01*
X106411500Y-93300000D02*
X107411500Y-93300000D01*
X106926500Y-78740000D02*
X120896500Y-78740000D01*
X106926500Y-92710000D02*
X106926500Y-78740000D01*
X109051500Y-76725000D02*
X113911500Y-76725000D01*
X109051500Y-78725000D02*
X109051500Y-76725000D01*
X113011500Y-92710000D02*
X106926500Y-92710000D01*
X120896500Y-78740000D02*
X120896500Y-92710000D01*
X120896500Y-92710000D02*
X114811500Y-92710000D01*
X121411500Y-78225000D02*
X120411500Y-78225000D01*
X121411500Y-78225000D02*
X121411500Y-79225000D01*
X121411500Y-93300000D02*
X120411500Y-93300000D01*
X121411500Y-93300000D02*
X121411500Y-92300000D01*
X121711500Y-77925000D02*
X120711500Y-77925000D01*
X121711500Y-77925000D02*
X121711500Y-78925000D01*
X121711500Y-93525000D02*
X120711500Y-93525000D01*
X121711500Y-93525000D02*
X121711500Y-92525000D01*
%TO.C,SW11*%
X101349000Y-20775000D02*
X101349000Y-21775000D01*
X101349000Y-20775000D02*
X102349000Y-20775000D01*
X101349000Y-36375000D02*
X101349000Y-35375000D01*
X101349000Y-36375000D02*
X102349000Y-36375000D01*
X101649000Y-21075000D02*
X101649000Y-22075000D01*
X101649000Y-21075000D02*
X102649000Y-21075000D01*
X101649000Y-36150000D02*
X101649000Y-35150000D01*
X101649000Y-36150000D02*
X102649000Y-36150000D01*
X102164000Y-21590000D02*
X116134000Y-21590000D01*
X102164000Y-35560000D02*
X102164000Y-21590000D01*
X104289000Y-19575000D02*
X109149000Y-19575000D01*
X104289000Y-21575000D02*
X104289000Y-19575000D01*
X108249000Y-35560000D02*
X102164000Y-35560000D01*
X116134000Y-21590000D02*
X116134000Y-35560000D01*
X116134000Y-35560000D02*
X110049000Y-35560000D01*
X116649000Y-21075000D02*
X115649000Y-21075000D01*
X116649000Y-21075000D02*
X116649000Y-22075000D01*
X116649000Y-36150000D02*
X115649000Y-36150000D01*
X116649000Y-36150000D02*
X116649000Y-35150000D01*
X116949000Y-20775000D02*
X115949000Y-20775000D01*
X116949000Y-20775000D02*
X116949000Y-21775000D01*
X116949000Y-36375000D02*
X115949000Y-36375000D01*
X116949000Y-36375000D02*
X116949000Y-35375000D01*
%TO.C,SW20*%
X58486500Y-58875000D02*
X58486500Y-59875000D01*
X58486500Y-58875000D02*
X59486500Y-58875000D01*
X58486500Y-74475000D02*
X58486500Y-73475000D01*
X58486500Y-74475000D02*
X59486500Y-74475000D01*
X58786500Y-59175000D02*
X58786500Y-60175000D01*
X58786500Y-59175000D02*
X59786500Y-59175000D01*
X58786500Y-74250000D02*
X58786500Y-73250000D01*
X58786500Y-74250000D02*
X59786500Y-74250000D01*
X59301500Y-59690000D02*
X73271500Y-59690000D01*
X59301500Y-73660000D02*
X59301500Y-59690000D01*
X61426500Y-57675000D02*
X66286500Y-57675000D01*
X61426500Y-59675000D02*
X61426500Y-57675000D01*
X65386500Y-73660000D02*
X59301500Y-73660000D01*
X73271500Y-59690000D02*
X73271500Y-73660000D01*
X73271500Y-73660000D02*
X67186500Y-73660000D01*
X73786500Y-59175000D02*
X72786500Y-59175000D01*
X73786500Y-59175000D02*
X73786500Y-60175000D01*
X73786500Y-74250000D02*
X72786500Y-74250000D01*
X73786500Y-74250000D02*
X73786500Y-73250000D01*
X74086500Y-58875000D02*
X73086500Y-58875000D01*
X74086500Y-58875000D02*
X74086500Y-59875000D01*
X74086500Y-74475000D02*
X73086500Y-74475000D01*
X74086500Y-74475000D02*
X74086500Y-73475000D01*
%TO.C,SW9*%
X63249000Y-20775000D02*
X63249000Y-21775000D01*
X63249000Y-20775000D02*
X64249000Y-20775000D01*
X63249000Y-36375000D02*
X63249000Y-35375000D01*
X63249000Y-36375000D02*
X64249000Y-36375000D01*
X63549000Y-21075000D02*
X63549000Y-22075000D01*
X63549000Y-21075000D02*
X64549000Y-21075000D01*
X63549000Y-36150000D02*
X63549000Y-35150000D01*
X63549000Y-36150000D02*
X64549000Y-36150000D01*
X64064000Y-21590000D02*
X78034000Y-21590000D01*
X64064000Y-35560000D02*
X64064000Y-21590000D01*
X66189000Y-19575000D02*
X71049000Y-19575000D01*
X66189000Y-21575000D02*
X66189000Y-19575000D01*
X70149000Y-35560000D02*
X64064000Y-35560000D01*
X78034000Y-21590000D02*
X78034000Y-35560000D01*
X78034000Y-35560000D02*
X71949000Y-35560000D01*
X78549000Y-21075000D02*
X77549000Y-21075000D01*
X78549000Y-21075000D02*
X78549000Y-22075000D01*
X78549000Y-36150000D02*
X77549000Y-36150000D01*
X78549000Y-36150000D02*
X78549000Y-35150000D01*
X78849000Y-20775000D02*
X77849000Y-20775000D01*
X78849000Y-20775000D02*
X78849000Y-21775000D01*
X78849000Y-36375000D02*
X77849000Y-36375000D01*
X78849000Y-36375000D02*
X78849000Y-35375000D01*
%TO.C,SW29*%
X125161500Y-77925000D02*
X125161500Y-78925000D01*
X125161500Y-77925000D02*
X126161500Y-77925000D01*
X125161500Y-93525000D02*
X125161500Y-92525000D01*
X125161500Y-93525000D02*
X126161500Y-93525000D01*
X125461500Y-78225000D02*
X125461500Y-79225000D01*
X125461500Y-78225000D02*
X126461500Y-78225000D01*
X125461500Y-93300000D02*
X125461500Y-92300000D01*
X125461500Y-93300000D02*
X126461500Y-93300000D01*
X125976500Y-78740000D02*
X139946500Y-78740000D01*
X125976500Y-92710000D02*
X125976500Y-78740000D01*
X128101500Y-76725000D02*
X132961500Y-76725000D01*
X128101500Y-78725000D02*
X128101500Y-76725000D01*
X132061500Y-92710000D02*
X125976500Y-92710000D01*
X139946500Y-78740000D02*
X139946500Y-92710000D01*
X139946500Y-92710000D02*
X133861500Y-92710000D01*
X140461500Y-78225000D02*
X139461500Y-78225000D01*
X140461500Y-78225000D02*
X140461500Y-79225000D01*
X140461500Y-93300000D02*
X139461500Y-93300000D01*
X140461500Y-93300000D02*
X140461500Y-92300000D01*
X140761500Y-77925000D02*
X139761500Y-77925000D01*
X140761500Y-77925000D02*
X140761500Y-78925000D01*
X140761500Y-93525000D02*
X139761500Y-93525000D01*
X140761500Y-93525000D02*
X140761500Y-92525000D01*
%TO.C,SW18*%
X129924000Y-39825000D02*
X129924000Y-40825000D01*
X129924000Y-39825000D02*
X130924000Y-39825000D01*
X129924000Y-55425000D02*
X129924000Y-54425000D01*
X129924000Y-55425000D02*
X130924000Y-55425000D01*
X130224000Y-40125000D02*
X130224000Y-41125000D01*
X130224000Y-40125000D02*
X131224000Y-40125000D01*
X130224000Y-55200000D02*
X130224000Y-54200000D01*
X130224000Y-55200000D02*
X131224000Y-55200000D01*
X130739000Y-40640000D02*
X144709000Y-40640000D01*
X130739000Y-54610000D02*
X130739000Y-40640000D01*
X132864000Y-38625000D02*
X137724000Y-38625000D01*
X132864000Y-40625000D02*
X132864000Y-38625000D01*
X136824000Y-54610000D02*
X130739000Y-54610000D01*
X144709000Y-40640000D02*
X144709000Y-54610000D01*
X144709000Y-54610000D02*
X138624000Y-54610000D01*
X145224000Y-40125000D02*
X144224000Y-40125000D01*
X145224000Y-40125000D02*
X145224000Y-41125000D01*
X145224000Y-55200000D02*
X144224000Y-55200000D01*
X145224000Y-55200000D02*
X145224000Y-54200000D01*
X145524000Y-39825000D02*
X144524000Y-39825000D01*
X145524000Y-39825000D02*
X145524000Y-40825000D01*
X145524000Y-55425000D02*
X144524000Y-55425000D01*
X145524000Y-55425000D02*
X145524000Y-54425000D01*
%TO.C,SW21*%
X77536500Y-58875000D02*
X77536500Y-59875000D01*
X77536500Y-58875000D02*
X78536500Y-58875000D01*
X77536500Y-74475000D02*
X77536500Y-73475000D01*
X77536500Y-74475000D02*
X78536500Y-74475000D01*
X77836500Y-59175000D02*
X77836500Y-60175000D01*
X77836500Y-59175000D02*
X78836500Y-59175000D01*
X77836500Y-74250000D02*
X77836500Y-73250000D01*
X77836500Y-74250000D02*
X78836500Y-74250000D01*
X78351500Y-59690000D02*
X92321500Y-59690000D01*
X78351500Y-73660000D02*
X78351500Y-59690000D01*
X80476500Y-57675000D02*
X85336500Y-57675000D01*
X80476500Y-59675000D02*
X80476500Y-57675000D01*
X84436500Y-73660000D02*
X78351500Y-73660000D01*
X92321500Y-59690000D02*
X92321500Y-73660000D01*
X92321500Y-73660000D02*
X86236500Y-73660000D01*
X92836500Y-59175000D02*
X91836500Y-59175000D01*
X92836500Y-59175000D02*
X92836500Y-60175000D01*
X92836500Y-74250000D02*
X91836500Y-74250000D01*
X92836500Y-74250000D02*
X92836500Y-73250000D01*
X93136500Y-58875000D02*
X92136500Y-58875000D01*
X93136500Y-58875000D02*
X93136500Y-59875000D01*
X93136500Y-74475000D02*
X92136500Y-74475000D01*
X93136500Y-74475000D02*
X93136500Y-73475000D01*
%TO.C,J2*%
X11751000Y-41500000D02*
G75*
G02*
X9249000Y-41500000I-1251000J0D01*
G01*
X9249000Y-41500000D02*
G75*
G02*
X11751000Y-41500000I1251000J0D01*
G01*
%TO.C,SW3*%
X63249000Y-1725000D02*
X63249000Y-2725000D01*
X63249000Y-1725000D02*
X64249000Y-1725000D01*
X63249000Y-17325000D02*
X63249000Y-16325000D01*
X63249000Y-17325000D02*
X64249000Y-17325000D01*
X63549000Y-2025000D02*
X63549000Y-3025000D01*
X63549000Y-2025000D02*
X64549000Y-2025000D01*
X63549000Y-17100000D02*
X63549000Y-16100000D01*
X63549000Y-17100000D02*
X64549000Y-17100000D01*
X64064000Y-2540000D02*
X78034000Y-2540000D01*
X64064000Y-16510000D02*
X64064000Y-2540000D01*
X66189000Y-525000D02*
X71049000Y-525000D01*
X66189000Y-2525000D02*
X66189000Y-525000D01*
X70149000Y-16510000D02*
X64064000Y-16510000D01*
X78034000Y-2540000D02*
X78034000Y-16510000D01*
X78034000Y-16510000D02*
X71949000Y-16510000D01*
X78549000Y-2025000D02*
X77549000Y-2025000D01*
X78549000Y-2025000D02*
X78549000Y-3025000D01*
X78549000Y-17100000D02*
X77549000Y-17100000D01*
X78549000Y-17100000D02*
X78549000Y-16100000D01*
X78849000Y-1725000D02*
X77849000Y-1725000D01*
X78849000Y-1725000D02*
X78849000Y-2725000D01*
X78849000Y-17325000D02*
X77849000Y-17325000D01*
X78849000Y-17325000D02*
X78849000Y-16325000D01*
%TO.C,SW34*%
X125161500Y-96975000D02*
X125161500Y-97975000D01*
X125161500Y-96975000D02*
X126161500Y-96975000D01*
X125161500Y-112575000D02*
X125161500Y-111575000D01*
X125161500Y-112575000D02*
X126161500Y-112575000D01*
X125461500Y-97275000D02*
X125461500Y-98275000D01*
X125461500Y-97275000D02*
X126461500Y-97275000D01*
X125461500Y-112350000D02*
X125461500Y-111350000D01*
X125461500Y-112350000D02*
X126461500Y-112350000D01*
X125976500Y-97790000D02*
X139946500Y-97790000D01*
X125976500Y-111760000D02*
X125976500Y-97790000D01*
X128101500Y-95775000D02*
X132961500Y-95775000D01*
X128101500Y-97775000D02*
X128101500Y-95775000D01*
X132061500Y-111760000D02*
X125976500Y-111760000D01*
X139946500Y-97790000D02*
X139946500Y-111760000D01*
X139946500Y-111760000D02*
X133861500Y-111760000D01*
X140461500Y-97275000D02*
X139461500Y-97275000D01*
X140461500Y-97275000D02*
X140461500Y-98275000D01*
X140461500Y-112350000D02*
X139461500Y-112350000D01*
X140461500Y-112350000D02*
X140461500Y-111350000D01*
X140761500Y-96975000D02*
X139761500Y-96975000D01*
X140761500Y-96975000D02*
X140761500Y-97975000D01*
X140761500Y-112575000D02*
X139761500Y-112575000D01*
X140761500Y-112575000D02*
X140761500Y-111575000D01*
%TO.C,SW14*%
X53724000Y-39825000D02*
X53724000Y-40825000D01*
X53724000Y-39825000D02*
X54724000Y-39825000D01*
X53724000Y-55425000D02*
X53724000Y-54425000D01*
X53724000Y-55425000D02*
X54724000Y-55425000D01*
X54024000Y-40125000D02*
X54024000Y-41125000D01*
X54024000Y-40125000D02*
X55024000Y-40125000D01*
X54024000Y-55200000D02*
X54024000Y-54200000D01*
X54024000Y-55200000D02*
X55024000Y-55200000D01*
X54539000Y-40640000D02*
X68509000Y-40640000D01*
X54539000Y-54610000D02*
X54539000Y-40640000D01*
X56664000Y-38625000D02*
X61524000Y-38625000D01*
X56664000Y-40625000D02*
X56664000Y-38625000D01*
X60624000Y-54610000D02*
X54539000Y-54610000D01*
X68509000Y-40640000D02*
X68509000Y-54610000D01*
X68509000Y-54610000D02*
X62424000Y-54610000D01*
X69024000Y-40125000D02*
X68024000Y-40125000D01*
X69024000Y-40125000D02*
X69024000Y-41125000D01*
X69024000Y-55200000D02*
X68024000Y-55200000D01*
X69024000Y-55200000D02*
X69024000Y-54200000D01*
X69324000Y-39825000D02*
X68324000Y-39825000D01*
X69324000Y-39825000D02*
X69324000Y-40825000D01*
X69324000Y-55425000D02*
X68324000Y-55425000D01*
X69324000Y-55425000D02*
X69324000Y-54425000D01*
%TO.C,SW10*%
X82299000Y-20775000D02*
X82299000Y-21775000D01*
X82299000Y-20775000D02*
X83299000Y-20775000D01*
X82299000Y-36375000D02*
X82299000Y-35375000D01*
X82299000Y-36375000D02*
X83299000Y-36375000D01*
X82599000Y-21075000D02*
X82599000Y-22075000D01*
X82599000Y-21075000D02*
X83599000Y-21075000D01*
X82599000Y-36150000D02*
X82599000Y-35150000D01*
X82599000Y-36150000D02*
X83599000Y-36150000D01*
X83114000Y-21590000D02*
X97084000Y-21590000D01*
X83114000Y-35560000D02*
X83114000Y-21590000D01*
X85239000Y-19575000D02*
X90099000Y-19575000D01*
X85239000Y-21575000D02*
X85239000Y-19575000D01*
X89199000Y-35560000D02*
X83114000Y-35560000D01*
X97084000Y-21590000D02*
X97084000Y-35560000D01*
X97084000Y-35560000D02*
X90999000Y-35560000D01*
X97599000Y-21075000D02*
X96599000Y-21075000D01*
X97599000Y-21075000D02*
X97599000Y-22075000D01*
X97599000Y-36150000D02*
X96599000Y-36150000D01*
X97599000Y-36150000D02*
X97599000Y-35150000D01*
X97899000Y-20775000D02*
X96899000Y-20775000D01*
X97899000Y-20775000D02*
X97899000Y-21775000D01*
X97899000Y-36375000D02*
X96899000Y-36375000D01*
X97899000Y-36375000D02*
X97899000Y-35375000D01*
%TO.C,SW15*%
X72774000Y-39825000D02*
X72774000Y-40825000D01*
X72774000Y-39825000D02*
X73774000Y-39825000D01*
X72774000Y-55425000D02*
X72774000Y-54425000D01*
X72774000Y-55425000D02*
X73774000Y-55425000D01*
X73074000Y-40125000D02*
X73074000Y-41125000D01*
X73074000Y-40125000D02*
X74074000Y-40125000D01*
X73074000Y-55200000D02*
X73074000Y-54200000D01*
X73074000Y-55200000D02*
X74074000Y-55200000D01*
X73589000Y-40640000D02*
X87559000Y-40640000D01*
X73589000Y-54610000D02*
X73589000Y-40640000D01*
X75714000Y-38625000D02*
X80574000Y-38625000D01*
X75714000Y-40625000D02*
X75714000Y-38625000D01*
X79674000Y-54610000D02*
X73589000Y-54610000D01*
X87559000Y-40640000D02*
X87559000Y-54610000D01*
X87559000Y-54610000D02*
X81474000Y-54610000D01*
X88074000Y-40125000D02*
X87074000Y-40125000D01*
X88074000Y-40125000D02*
X88074000Y-41125000D01*
X88074000Y-55200000D02*
X87074000Y-55200000D01*
X88074000Y-55200000D02*
X88074000Y-54200000D01*
X88374000Y-39825000D02*
X87374000Y-39825000D01*
X88374000Y-39825000D02*
X88374000Y-40825000D01*
X88374000Y-55425000D02*
X87374000Y-55425000D01*
X88374000Y-55425000D02*
X88374000Y-54425000D01*
%TO.C,SW27*%
X87061500Y-77925000D02*
X87061500Y-78925000D01*
X87061500Y-77925000D02*
X88061500Y-77925000D01*
X87061500Y-93525000D02*
X87061500Y-92525000D01*
X87061500Y-93525000D02*
X88061500Y-93525000D01*
X87361500Y-78225000D02*
X87361500Y-79225000D01*
X87361500Y-78225000D02*
X88361500Y-78225000D01*
X87361500Y-93300000D02*
X87361500Y-92300000D01*
X87361500Y-93300000D02*
X88361500Y-93300000D01*
X87876500Y-78740000D02*
X101846500Y-78740000D01*
X87876500Y-92710000D02*
X87876500Y-78740000D01*
X90001500Y-76725000D02*
X94861500Y-76725000D01*
X90001500Y-78725000D02*
X90001500Y-76725000D01*
X93961500Y-92710000D02*
X87876500Y-92710000D01*
X101846500Y-78740000D02*
X101846500Y-92710000D01*
X101846500Y-92710000D02*
X95761500Y-92710000D01*
X102361500Y-78225000D02*
X101361500Y-78225000D01*
X102361500Y-78225000D02*
X102361500Y-79225000D01*
X102361500Y-93300000D02*
X101361500Y-93300000D01*
X102361500Y-93300000D02*
X102361500Y-92300000D01*
X102661500Y-77925000D02*
X101661500Y-77925000D01*
X102661500Y-77925000D02*
X102661500Y-78925000D01*
X102661500Y-93525000D02*
X101661500Y-93525000D01*
X102661500Y-93525000D02*
X102661500Y-92525000D01*
%TO.C,SW8*%
X44199000Y-20775000D02*
X44199000Y-21775000D01*
X44199000Y-20775000D02*
X45199000Y-20775000D01*
X44199000Y-36375000D02*
X44199000Y-35375000D01*
X44199000Y-36375000D02*
X45199000Y-36375000D01*
X44499000Y-21075000D02*
X44499000Y-22075000D01*
X44499000Y-21075000D02*
X45499000Y-21075000D01*
X44499000Y-36150000D02*
X44499000Y-35150000D01*
X44499000Y-36150000D02*
X45499000Y-36150000D01*
X45014000Y-21590000D02*
X58984000Y-21590000D01*
X45014000Y-35560000D02*
X45014000Y-21590000D01*
X47139000Y-19575000D02*
X51999000Y-19575000D01*
X47139000Y-21575000D02*
X47139000Y-19575000D01*
X51099000Y-35560000D02*
X45014000Y-35560000D01*
X58984000Y-21590000D02*
X58984000Y-35560000D01*
X58984000Y-35560000D02*
X52899000Y-35560000D01*
X59499000Y-21075000D02*
X58499000Y-21075000D01*
X59499000Y-21075000D02*
X59499000Y-22075000D01*
X59499000Y-36150000D02*
X58499000Y-36150000D01*
X59499000Y-36150000D02*
X59499000Y-35150000D01*
X59799000Y-20775000D02*
X58799000Y-20775000D01*
X59799000Y-20775000D02*
X59799000Y-21775000D01*
X59799000Y-36375000D02*
X58799000Y-36375000D01*
X59799000Y-36375000D02*
X59799000Y-35375000D01*
%TO.C,SW33*%
X94205250Y-96975000D02*
X94205250Y-97975000D01*
X94205250Y-96975000D02*
X95205250Y-96975000D01*
X94205250Y-112575000D02*
X94205250Y-111575000D01*
X94205250Y-112575000D02*
X95205250Y-112575000D01*
X94505250Y-97275000D02*
X94505250Y-98275000D01*
X94505250Y-97275000D02*
X95505250Y-97275000D01*
X94505250Y-112350000D02*
X94505250Y-111350000D01*
X94505250Y-112350000D02*
X95505250Y-112350000D01*
X95020250Y-97790000D02*
X108990250Y-97790000D01*
X95020250Y-111760000D02*
X95020250Y-97790000D01*
X97145250Y-95775000D02*
X102005250Y-95775000D01*
X97145250Y-97775000D02*
X97145250Y-95775000D01*
X101105250Y-111760000D02*
X95020250Y-111760000D01*
X108990250Y-97790000D02*
X108990250Y-111760000D01*
X108990250Y-111760000D02*
X102905250Y-111760000D01*
X109505250Y-97275000D02*
X108505250Y-97275000D01*
X109505250Y-97275000D02*
X109505250Y-98275000D01*
X109505250Y-112350000D02*
X108505250Y-112350000D01*
X109505250Y-112350000D02*
X109505250Y-111350000D01*
X109805250Y-96975000D02*
X108805250Y-96975000D01*
X109805250Y-96975000D02*
X109805250Y-97975000D01*
X109805250Y-112575000D02*
X108805250Y-112575000D01*
X109805250Y-112575000D02*
X109805250Y-111575000D01*
%TO.C,SW30*%
X25149000Y-96975000D02*
X25149000Y-97975000D01*
X25149000Y-96975000D02*
X26149000Y-96975000D01*
X25149000Y-112575000D02*
X25149000Y-111575000D01*
X25149000Y-112575000D02*
X26149000Y-112575000D01*
X25449000Y-97275000D02*
X25449000Y-98275000D01*
X25449000Y-97275000D02*
X26449000Y-97275000D01*
X25449000Y-112350000D02*
X25449000Y-111350000D01*
X25449000Y-112350000D02*
X26449000Y-112350000D01*
X25964000Y-97790000D02*
X39934000Y-97790000D01*
X25964000Y-111760000D02*
X25964000Y-97790000D01*
X28089000Y-95775000D02*
X32949000Y-95775000D01*
X28089000Y-97775000D02*
X28089000Y-95775000D01*
X32049000Y-111760000D02*
X25964000Y-111760000D01*
X39934000Y-97790000D02*
X39934000Y-111760000D01*
X39934000Y-111760000D02*
X33849000Y-111760000D01*
X40449000Y-97275000D02*
X39449000Y-97275000D01*
X40449000Y-97275000D02*
X40449000Y-98275000D01*
X40449000Y-112350000D02*
X39449000Y-112350000D01*
X40449000Y-112350000D02*
X40449000Y-111350000D01*
X40749000Y-96975000D02*
X39749000Y-96975000D01*
X40749000Y-96975000D02*
X40749000Y-97975000D01*
X40749000Y-112575000D02*
X39749000Y-112575000D01*
X40749000Y-112575000D02*
X40749000Y-111575000D01*
%TO.C,SW4*%
X82299000Y-1725000D02*
X82299000Y-2725000D01*
X82299000Y-1725000D02*
X83299000Y-1725000D01*
X82299000Y-17325000D02*
X82299000Y-16325000D01*
X82299000Y-17325000D02*
X83299000Y-17325000D01*
X82599000Y-2025000D02*
X82599000Y-3025000D01*
X82599000Y-2025000D02*
X83599000Y-2025000D01*
X82599000Y-17100000D02*
X82599000Y-16100000D01*
X82599000Y-17100000D02*
X83599000Y-17100000D01*
X83114000Y-2540000D02*
X97084000Y-2540000D01*
X83114000Y-16510000D02*
X83114000Y-2540000D01*
X85239000Y-525000D02*
X90099000Y-525000D01*
X85239000Y-2525000D02*
X85239000Y-525000D01*
X89199000Y-16510000D02*
X83114000Y-16510000D01*
X97084000Y-2540000D02*
X97084000Y-16510000D01*
X97084000Y-16510000D02*
X90999000Y-16510000D01*
X97599000Y-2025000D02*
X96599000Y-2025000D01*
X97599000Y-2025000D02*
X97599000Y-3025000D01*
X97599000Y-17100000D02*
X96599000Y-17100000D01*
X97599000Y-17100000D02*
X97599000Y-16100000D01*
X97899000Y-1725000D02*
X96899000Y-1725000D01*
X97899000Y-1725000D02*
X97899000Y-2725000D01*
X97899000Y-17325000D02*
X96899000Y-17325000D01*
X97899000Y-17325000D02*
X97899000Y-16325000D01*
%TO.C,SW25*%
X37055250Y-77925000D02*
X37055250Y-78925000D01*
X37055250Y-77925000D02*
X38055250Y-77925000D01*
X37055250Y-93525000D02*
X37055250Y-92525000D01*
X37055250Y-93525000D02*
X38055250Y-93525000D01*
X37355250Y-78225000D02*
X37355250Y-79225000D01*
X37355250Y-78225000D02*
X38355250Y-78225000D01*
X37355250Y-93300000D02*
X37355250Y-92300000D01*
X37355250Y-93300000D02*
X38355250Y-93300000D01*
X37870250Y-78740000D02*
X51840250Y-78740000D01*
X37870250Y-92710000D02*
X37870250Y-78740000D01*
X39995250Y-76725000D02*
X44855250Y-76725000D01*
X39995250Y-78725000D02*
X39995250Y-76725000D01*
X43955250Y-92710000D02*
X37870250Y-92710000D01*
X51840250Y-78740000D02*
X51840250Y-92710000D01*
X51840250Y-92710000D02*
X45755250Y-92710000D01*
X52355250Y-78225000D02*
X51355250Y-78225000D01*
X52355250Y-78225000D02*
X52355250Y-79225000D01*
X52355250Y-93300000D02*
X51355250Y-93300000D01*
X52355250Y-93300000D02*
X52355250Y-92300000D01*
X52655250Y-77925000D02*
X51655250Y-77925000D01*
X52655250Y-77925000D02*
X52655250Y-78925000D01*
X52655250Y-93525000D02*
X51655250Y-93525000D01*
X52655250Y-93525000D02*
X52655250Y-92525000D01*
%TO.C,SW17*%
X110874000Y-39825000D02*
X110874000Y-40825000D01*
X110874000Y-39825000D02*
X111874000Y-39825000D01*
X110874000Y-55425000D02*
X110874000Y-54425000D01*
X110874000Y-55425000D02*
X111874000Y-55425000D01*
X111174000Y-40125000D02*
X111174000Y-41125000D01*
X111174000Y-40125000D02*
X112174000Y-40125000D01*
X111174000Y-55200000D02*
X111174000Y-54200000D01*
X111174000Y-55200000D02*
X112174000Y-55200000D01*
X111689000Y-40640000D02*
X125659000Y-40640000D01*
X111689000Y-54610000D02*
X111689000Y-40640000D01*
X113814000Y-38625000D02*
X118674000Y-38625000D01*
X113814000Y-40625000D02*
X113814000Y-38625000D01*
X117774000Y-54610000D02*
X111689000Y-54610000D01*
X125659000Y-40640000D02*
X125659000Y-54610000D01*
X125659000Y-54610000D02*
X119574000Y-54610000D01*
X126174000Y-40125000D02*
X125174000Y-40125000D01*
X126174000Y-40125000D02*
X126174000Y-41125000D01*
X126174000Y-55200000D02*
X125174000Y-55200000D01*
X126174000Y-55200000D02*
X126174000Y-54200000D01*
X126474000Y-39825000D02*
X125474000Y-39825000D01*
X126474000Y-39825000D02*
X126474000Y-40825000D01*
X126474000Y-55425000D02*
X125474000Y-55425000D01*
X126474000Y-55425000D02*
X126474000Y-54425000D01*
%TO.C,SW26*%
X68011500Y-77925000D02*
X68011500Y-78925000D01*
X68011500Y-77925000D02*
X69011500Y-77925000D01*
X68011500Y-93525000D02*
X68011500Y-92525000D01*
X68011500Y-93525000D02*
X69011500Y-93525000D01*
X68311500Y-78225000D02*
X68311500Y-79225000D01*
X68311500Y-78225000D02*
X69311500Y-78225000D01*
X68311500Y-93300000D02*
X68311500Y-92300000D01*
X68311500Y-93300000D02*
X69311500Y-93300000D01*
X68826500Y-78740000D02*
X82796500Y-78740000D01*
X68826500Y-92710000D02*
X68826500Y-78740000D01*
X70951500Y-76725000D02*
X75811500Y-76725000D01*
X70951500Y-78725000D02*
X70951500Y-76725000D01*
X74911500Y-92710000D02*
X68826500Y-92710000D01*
X82796500Y-78740000D02*
X82796500Y-92710000D01*
X82796500Y-92710000D02*
X76711500Y-92710000D01*
X83311500Y-78225000D02*
X82311500Y-78225000D01*
X83311500Y-78225000D02*
X83311500Y-79225000D01*
X83311500Y-93300000D02*
X82311500Y-93300000D01*
X83311500Y-93300000D02*
X83311500Y-92300000D01*
X83611500Y-77925000D02*
X82611500Y-77925000D01*
X83611500Y-77925000D02*
X83611500Y-78925000D01*
X83611500Y-93525000D02*
X82611500Y-93525000D01*
X83611500Y-93525000D02*
X83611500Y-92525000D01*
%TO.C,SW12*%
X120399000Y-20775000D02*
X120399000Y-21775000D01*
X120399000Y-20775000D02*
X121399000Y-20775000D01*
X120399000Y-36375000D02*
X120399000Y-35375000D01*
X120399000Y-36375000D02*
X121399000Y-36375000D01*
X120699000Y-21075000D02*
X120699000Y-22075000D01*
X120699000Y-21075000D02*
X121699000Y-21075000D01*
X120699000Y-36150000D02*
X120699000Y-35150000D01*
X120699000Y-36150000D02*
X121699000Y-36150000D01*
X121214000Y-21590000D02*
X135184000Y-21590000D01*
X121214000Y-35560000D02*
X121214000Y-21590000D01*
X123339000Y-19575000D02*
X128199000Y-19575000D01*
X123339000Y-21575000D02*
X123339000Y-19575000D01*
X127299000Y-35560000D02*
X121214000Y-35560000D01*
X135184000Y-21590000D02*
X135184000Y-35560000D01*
X135184000Y-35560000D02*
X129099000Y-35560000D01*
X135699000Y-21075000D02*
X134699000Y-21075000D01*
X135699000Y-21075000D02*
X135699000Y-22075000D01*
X135699000Y-36150000D02*
X134699000Y-36150000D01*
X135699000Y-36150000D02*
X135699000Y-35150000D01*
X135999000Y-20775000D02*
X134999000Y-20775000D01*
X135999000Y-20775000D02*
X135999000Y-21775000D01*
X135999000Y-36375000D02*
X134999000Y-36375000D01*
X135999000Y-36375000D02*
X135999000Y-35375000D01*
%TO.C,SW2*%
X44199000Y-1725000D02*
X44199000Y-2725000D01*
X44199000Y-1725000D02*
X45199000Y-1725000D01*
X44199000Y-17325000D02*
X44199000Y-16325000D01*
X44199000Y-17325000D02*
X45199000Y-17325000D01*
X44499000Y-2025000D02*
X44499000Y-3025000D01*
X44499000Y-2025000D02*
X45499000Y-2025000D01*
X44499000Y-17100000D02*
X44499000Y-16100000D01*
X44499000Y-17100000D02*
X45499000Y-17100000D01*
X45014000Y-2540000D02*
X58984000Y-2540000D01*
X45014000Y-16510000D02*
X45014000Y-2540000D01*
X47139000Y-525000D02*
X51999000Y-525000D01*
X47139000Y-2525000D02*
X47139000Y-525000D01*
X51099000Y-16510000D02*
X45014000Y-16510000D01*
X58984000Y-2540000D02*
X58984000Y-16510000D01*
X58984000Y-16510000D02*
X52899000Y-16510000D01*
X59499000Y-2025000D02*
X58499000Y-2025000D01*
X59499000Y-2025000D02*
X59499000Y-3025000D01*
X59499000Y-17100000D02*
X58499000Y-17100000D01*
X59499000Y-17100000D02*
X59499000Y-16100000D01*
X59799000Y-1725000D02*
X58799000Y-1725000D01*
X59799000Y-1725000D02*
X59799000Y-2725000D01*
X59799000Y-17325000D02*
X58799000Y-17325000D01*
X59799000Y-17325000D02*
X59799000Y-16325000D01*
%TO.C,SW6*%
X120399000Y-1725000D02*
X120399000Y-2725000D01*
X120399000Y-1725000D02*
X121399000Y-1725000D01*
X120399000Y-17325000D02*
X120399000Y-16325000D01*
X120399000Y-17325000D02*
X121399000Y-17325000D01*
X120699000Y-2025000D02*
X120699000Y-3025000D01*
X120699000Y-2025000D02*
X121699000Y-2025000D01*
X120699000Y-17100000D02*
X120699000Y-16100000D01*
X120699000Y-17100000D02*
X121699000Y-17100000D01*
X121214000Y-2540000D02*
X135184000Y-2540000D01*
X121214000Y-16510000D02*
X121214000Y-2540000D01*
X123339000Y-525000D02*
X128199000Y-525000D01*
X123339000Y-2525000D02*
X123339000Y-525000D01*
X127299000Y-16510000D02*
X121214000Y-16510000D01*
X135184000Y-2540000D02*
X135184000Y-16510000D01*
X135184000Y-16510000D02*
X129099000Y-16510000D01*
X135699000Y-2025000D02*
X134699000Y-2025000D01*
X135699000Y-2025000D02*
X135699000Y-3025000D01*
X135699000Y-17100000D02*
X134699000Y-17100000D01*
X135699000Y-17100000D02*
X135699000Y-16100000D01*
X135999000Y-1725000D02*
X134999000Y-1725000D01*
X135999000Y-1725000D02*
X135999000Y-2725000D01*
X135999000Y-17325000D02*
X134999000Y-17325000D01*
X135999000Y-17325000D02*
X135999000Y-16325000D01*
%TO.C,SW5*%
X101349000Y-1725000D02*
X101349000Y-2725000D01*
X101349000Y-1725000D02*
X102349000Y-1725000D01*
X101349000Y-17325000D02*
X101349000Y-16325000D01*
X101349000Y-17325000D02*
X102349000Y-17325000D01*
X101649000Y-2025000D02*
X101649000Y-3025000D01*
X101649000Y-2025000D02*
X102649000Y-2025000D01*
X101649000Y-17100000D02*
X101649000Y-16100000D01*
X101649000Y-17100000D02*
X102649000Y-17100000D01*
X102164000Y-2540000D02*
X116134000Y-2540000D01*
X102164000Y-16510000D02*
X102164000Y-2540000D01*
X104289000Y-525000D02*
X109149000Y-525000D01*
X104289000Y-2525000D02*
X104289000Y-525000D01*
X108249000Y-16510000D02*
X102164000Y-16510000D01*
X116134000Y-2540000D02*
X116134000Y-16510000D01*
X116134000Y-16510000D02*
X110049000Y-16510000D01*
X116649000Y-2025000D02*
X115649000Y-2025000D01*
X116649000Y-2025000D02*
X116649000Y-3025000D01*
X116649000Y-17100000D02*
X115649000Y-17100000D01*
X116649000Y-17100000D02*
X116649000Y-16100000D01*
X116949000Y-1725000D02*
X115949000Y-1725000D01*
X116949000Y-1725000D02*
X116949000Y-2725000D01*
X116949000Y-17325000D02*
X115949000Y-17325000D01*
X116949000Y-17325000D02*
X116949000Y-16325000D01*
%TO.C,SW24*%
X134686500Y-58875000D02*
X134686500Y-59875000D01*
X134686500Y-58875000D02*
X135686500Y-58875000D01*
X134686500Y-74475000D02*
X134686500Y-73475000D01*
X134686500Y-74475000D02*
X135686500Y-74475000D01*
X134986500Y-59175000D02*
X134986500Y-60175000D01*
X134986500Y-59175000D02*
X135986500Y-59175000D01*
X134986500Y-74250000D02*
X134986500Y-73250000D01*
X134986500Y-74250000D02*
X135986500Y-74250000D01*
X135501500Y-59690000D02*
X149471500Y-59690000D01*
X135501500Y-73660000D02*
X135501500Y-59690000D01*
X137626500Y-57675000D02*
X142486500Y-57675000D01*
X137626500Y-59675000D02*
X137626500Y-57675000D01*
X141586500Y-73660000D02*
X135501500Y-73660000D01*
X149471500Y-59690000D02*
X149471500Y-73660000D01*
X149471500Y-73660000D02*
X143386500Y-73660000D01*
X149986500Y-59175000D02*
X148986500Y-59175000D01*
X149986500Y-59175000D02*
X149986500Y-60175000D01*
X149986500Y-74250000D02*
X148986500Y-74250000D01*
X149986500Y-74250000D02*
X149986500Y-73250000D01*
X150286500Y-58875000D02*
X149286500Y-58875000D01*
X150286500Y-58875000D02*
X150286500Y-59875000D01*
X150286500Y-74475000D02*
X149286500Y-74475000D01*
X150286500Y-74475000D02*
X150286500Y-73475000D01*
D10*
%TO.C,U1*%
X2850000Y-1270000D02*
X2850000Y-35560000D01*
D13*
X4120000Y-2794000D02*
X4120000Y-33020000D01*
D10*
X7930000Y-3810000D02*
X7930000Y-1270000D01*
X17074000Y-3810000D02*
X17074000Y-1270000D01*
D13*
X19360000Y-2540000D02*
X19360000Y-33020000D01*
D10*
X22154000Y-1270000D02*
X2850000Y-1270000D01*
X22154000Y-35560000D02*
X2850000Y-35560000D01*
X22154000Y-35560000D02*
X22154000Y-1270000D01*
D12*
%TO.C,SW31*%
X46580250Y-96975000D02*
X46580250Y-97975000D01*
X46580250Y-96975000D02*
X47580250Y-96975000D01*
X46580250Y-112575000D02*
X46580250Y-111575000D01*
X46580250Y-112575000D02*
X47580250Y-112575000D01*
X46880250Y-97275000D02*
X46880250Y-98275000D01*
X46880250Y-97275000D02*
X47880250Y-97275000D01*
X46880250Y-112350000D02*
X46880250Y-111350000D01*
X46880250Y-112350000D02*
X47880250Y-112350000D01*
X47395250Y-97790000D02*
X61365250Y-97790000D01*
X47395250Y-111760000D02*
X47395250Y-97790000D01*
X49520250Y-95775000D02*
X54380250Y-95775000D01*
X49520250Y-97775000D02*
X49520250Y-95775000D01*
X53480250Y-111760000D02*
X47395250Y-111760000D01*
X61365250Y-97790000D02*
X61365250Y-111760000D01*
X61365250Y-111760000D02*
X55280250Y-111760000D01*
X61880250Y-97275000D02*
X60880250Y-97275000D01*
X61880250Y-97275000D02*
X61880250Y-98275000D01*
X61880250Y-112350000D02*
X60880250Y-112350000D01*
X61880250Y-112350000D02*
X61880250Y-111350000D01*
X62180250Y-96975000D02*
X61180250Y-96975000D01*
X62180250Y-96975000D02*
X62180250Y-97975000D01*
X62180250Y-112575000D02*
X61180250Y-112575000D01*
X62180250Y-112575000D02*
X62180250Y-111575000D01*
%TO.C,SW22*%
X96586500Y-58875000D02*
X96586500Y-59875000D01*
X96586500Y-58875000D02*
X97586500Y-58875000D01*
X96586500Y-74475000D02*
X96586500Y-73475000D01*
X96586500Y-74475000D02*
X97586500Y-74475000D01*
X96886500Y-59175000D02*
X96886500Y-60175000D01*
X96886500Y-59175000D02*
X97886500Y-59175000D01*
X96886500Y-74250000D02*
X96886500Y-73250000D01*
X96886500Y-74250000D02*
X97886500Y-74250000D01*
X97401500Y-59690000D02*
X111371500Y-59690000D01*
X97401500Y-73660000D02*
X97401500Y-59690000D01*
X99526500Y-57675000D02*
X104386500Y-57675000D01*
X99526500Y-59675000D02*
X99526500Y-57675000D01*
X103486500Y-73660000D02*
X97401500Y-73660000D01*
X111371500Y-59690000D02*
X111371500Y-73660000D01*
X111371500Y-73660000D02*
X105286500Y-73660000D01*
X111886500Y-59175000D02*
X110886500Y-59175000D01*
X111886500Y-59175000D02*
X111886500Y-60175000D01*
X111886500Y-74250000D02*
X110886500Y-74250000D01*
X111886500Y-74250000D02*
X111886500Y-73250000D01*
X112186500Y-58875000D02*
X111186500Y-58875000D01*
X112186500Y-58875000D02*
X112186500Y-59875000D01*
X112186500Y-74475000D02*
X111186500Y-74475000D01*
X112186500Y-74475000D02*
X112186500Y-73475000D01*
%TO.C,SW1*%
X25149000Y-1725000D02*
X25149000Y-2725000D01*
X25149000Y-1725000D02*
X26149000Y-1725000D01*
X25149000Y-17325000D02*
X25149000Y-16325000D01*
X25149000Y-17325000D02*
X26149000Y-17325000D01*
X25449000Y-2025000D02*
X25449000Y-3025000D01*
X25449000Y-2025000D02*
X26449000Y-2025000D01*
X25449000Y-17100000D02*
X25449000Y-16100000D01*
X25449000Y-17100000D02*
X26449000Y-17100000D01*
X25964000Y-2540000D02*
X39934000Y-2540000D01*
X25964000Y-16510000D02*
X25964000Y-2540000D01*
X28089000Y-525000D02*
X32949000Y-525000D01*
X28089000Y-2525000D02*
X28089000Y-525000D01*
X32049000Y-16510000D02*
X25964000Y-16510000D01*
X39934000Y-2540000D02*
X39934000Y-16510000D01*
X39934000Y-16510000D02*
X33849000Y-16510000D01*
X40449000Y-2025000D02*
X39449000Y-2025000D01*
X40449000Y-2025000D02*
X40449000Y-3025000D01*
X40449000Y-17100000D02*
X39449000Y-17100000D01*
X40449000Y-17100000D02*
X40449000Y-16100000D01*
X40749000Y-1725000D02*
X39749000Y-1725000D01*
X40749000Y-1725000D02*
X40749000Y-2725000D01*
X40749000Y-17325000D02*
X39749000Y-17325000D01*
X40749000Y-17325000D02*
X40749000Y-16325000D01*
%TO.C,SW13*%
X29911500Y-39825000D02*
X29911500Y-40825000D01*
X29911500Y-39825000D02*
X30911500Y-39825000D01*
X29911500Y-55425000D02*
X29911500Y-54425000D01*
X29911500Y-55425000D02*
X30911500Y-55425000D01*
X30211500Y-40125000D02*
X30211500Y-41125000D01*
X30211500Y-40125000D02*
X31211500Y-40125000D01*
X30211500Y-55200000D02*
X30211500Y-54200000D01*
X30211500Y-55200000D02*
X31211500Y-55200000D01*
X30726500Y-40640000D02*
X44696500Y-40640000D01*
X30726500Y-54610000D02*
X30726500Y-40640000D01*
X32851500Y-38625000D02*
X37711500Y-38625000D01*
X32851500Y-40625000D02*
X32851500Y-38625000D01*
X36811500Y-54610000D02*
X30726500Y-54610000D01*
X44696500Y-40640000D02*
X44696500Y-54610000D01*
X44696500Y-54610000D02*
X38611500Y-54610000D01*
X45211500Y-40125000D02*
X44211500Y-40125000D01*
X45211500Y-40125000D02*
X45211500Y-41125000D01*
X45211500Y-55200000D02*
X44211500Y-55200000D01*
X45211500Y-55200000D02*
X45211500Y-54200000D01*
X45511500Y-39825000D02*
X44511500Y-39825000D01*
X45511500Y-39825000D02*
X45511500Y-40825000D01*
X45511500Y-55425000D02*
X44511500Y-55425000D01*
X45511500Y-55425000D02*
X45511500Y-54425000D01*
%TO.C,J1*%
X18251000Y-41500000D02*
G75*
G02*
X15749000Y-41500000I-1251000J0D01*
G01*
X15749000Y-41500000D02*
G75*
G02*
X18251000Y-41500000I1251000J0D01*
G01*
%TO.C,SW16*%
X91824000Y-39825000D02*
X91824000Y-40825000D01*
X91824000Y-39825000D02*
X92824000Y-39825000D01*
X91824000Y-55425000D02*
X91824000Y-54425000D01*
X91824000Y-55425000D02*
X92824000Y-55425000D01*
X92124000Y-40125000D02*
X92124000Y-41125000D01*
X92124000Y-40125000D02*
X93124000Y-40125000D01*
X92124000Y-55200000D02*
X92124000Y-54200000D01*
X92124000Y-55200000D02*
X93124000Y-55200000D01*
X92639000Y-40640000D02*
X106609000Y-40640000D01*
X92639000Y-54610000D02*
X92639000Y-40640000D01*
X94764000Y-38625000D02*
X99624000Y-38625000D01*
X94764000Y-40625000D02*
X94764000Y-38625000D01*
X98724000Y-54610000D02*
X92639000Y-54610000D01*
X106609000Y-40640000D02*
X106609000Y-54610000D01*
X106609000Y-54610000D02*
X100524000Y-54610000D01*
X107124000Y-40125000D02*
X106124000Y-40125000D01*
X107124000Y-40125000D02*
X107124000Y-41125000D01*
X107124000Y-55200000D02*
X106124000Y-55200000D01*
X107124000Y-55200000D02*
X107124000Y-54200000D01*
X107424000Y-39825000D02*
X106424000Y-39825000D01*
X107424000Y-39825000D02*
X107424000Y-40825000D01*
X107424000Y-55425000D02*
X106424000Y-55425000D01*
X107424000Y-55425000D02*
X107424000Y-54425000D01*
%TO.C,SW23*%
X115636500Y-58875000D02*
X115636500Y-59875000D01*
X115636500Y-58875000D02*
X116636500Y-58875000D01*
X115636500Y-74475000D02*
X115636500Y-73475000D01*
X115636500Y-74475000D02*
X116636500Y-74475000D01*
X115936500Y-59175000D02*
X115936500Y-60175000D01*
X115936500Y-59175000D02*
X116936500Y-59175000D01*
X115936500Y-74250000D02*
X115936500Y-73250000D01*
X115936500Y-74250000D02*
X116936500Y-74250000D01*
X116451500Y-59690000D02*
X130421500Y-59690000D01*
X116451500Y-73660000D02*
X116451500Y-59690000D01*
X118576500Y-57675000D02*
X123436500Y-57675000D01*
X118576500Y-59675000D02*
X118576500Y-57675000D01*
X122536500Y-73660000D02*
X116451500Y-73660000D01*
X130421500Y-59690000D02*
X130421500Y-73660000D01*
X130421500Y-73660000D02*
X124336500Y-73660000D01*
X130936500Y-59175000D02*
X129936500Y-59175000D01*
X130936500Y-59175000D02*
X130936500Y-60175000D01*
X130936500Y-74250000D02*
X129936500Y-74250000D01*
X130936500Y-74250000D02*
X130936500Y-73250000D01*
X131236500Y-58875000D02*
X130236500Y-58875000D01*
X131236500Y-58875000D02*
X131236500Y-59875000D01*
X131236500Y-74475000D02*
X130236500Y-74475000D01*
X131236500Y-74475000D02*
X131236500Y-73475000D01*
%TO.C,SW19*%
X32292750Y-58875000D02*
X32292750Y-59875000D01*
X32292750Y-58875000D02*
X33292750Y-58875000D01*
X32292750Y-74475000D02*
X32292750Y-73475000D01*
X32292750Y-74475000D02*
X33292750Y-74475000D01*
X32592750Y-59175000D02*
X32592750Y-60175000D01*
X32592750Y-59175000D02*
X33592750Y-59175000D01*
X32592750Y-74250000D02*
X32592750Y-73250000D01*
X32592750Y-74250000D02*
X33592750Y-74250000D01*
X33107750Y-59690000D02*
X47077750Y-59690000D01*
X33107750Y-73660000D02*
X33107750Y-59690000D01*
X35232750Y-57675000D02*
X40092750Y-57675000D01*
X35232750Y-59675000D02*
X35232750Y-57675000D01*
X39192750Y-73660000D02*
X33107750Y-73660000D01*
X47077750Y-59690000D02*
X47077750Y-73660000D01*
X47077750Y-73660000D02*
X40992750Y-73660000D01*
X47592750Y-59175000D02*
X46592750Y-59175000D01*
X47592750Y-59175000D02*
X47592750Y-60175000D01*
X47592750Y-74250000D02*
X46592750Y-74250000D01*
X47592750Y-74250000D02*
X47592750Y-73250000D01*
X47892750Y-58875000D02*
X46892750Y-58875000D01*
X47892750Y-58875000D02*
X47892750Y-59875000D01*
X47892750Y-74475000D02*
X46892750Y-74475000D01*
X47892750Y-74475000D02*
X47892750Y-73475000D01*
%TO.C,SW7*%
X25149000Y-20775000D02*
X25149000Y-21775000D01*
X25149000Y-20775000D02*
X26149000Y-20775000D01*
X25149000Y-36375000D02*
X25149000Y-35375000D01*
X25149000Y-36375000D02*
X26149000Y-36375000D01*
X25449000Y-21075000D02*
X25449000Y-22075000D01*
X25449000Y-21075000D02*
X26449000Y-21075000D01*
X25449000Y-36150000D02*
X25449000Y-35150000D01*
X25449000Y-36150000D02*
X26449000Y-36150000D01*
X25964000Y-21590000D02*
X39934000Y-21590000D01*
X25964000Y-35560000D02*
X25964000Y-21590000D01*
X28089000Y-19575000D02*
X32949000Y-19575000D01*
X28089000Y-21575000D02*
X28089000Y-19575000D01*
X32049000Y-35560000D02*
X25964000Y-35560000D01*
X39934000Y-21590000D02*
X39934000Y-35560000D01*
X39934000Y-35560000D02*
X33849000Y-35560000D01*
X40449000Y-21075000D02*
X39449000Y-21075000D01*
X40449000Y-21075000D02*
X40449000Y-22075000D01*
X40449000Y-36150000D02*
X39449000Y-36150000D01*
X40449000Y-36150000D02*
X40449000Y-35150000D01*
X40749000Y-20775000D02*
X39749000Y-20775000D01*
X40749000Y-20775000D02*
X40749000Y-21775000D01*
X40749000Y-36375000D02*
X39749000Y-36375000D01*
X40749000Y-36375000D02*
X40749000Y-35375000D01*
%TD*%
M02*
