%TF.GenerationSoftware,KiCad,Pcbnew,8.0.6*%
%TF.CreationDate,2025-05-11T12:33:19+09:00*%
%TF.ProjectId,65_split_left,36355f73-706c-4697-945f-6c6566742e6b,rev?*%
%TF.SameCoordinates,PX12f0318PYf8a778*%
%TF.FileFunction,Soldermask,Bot*%
%TF.FilePolarity,Negative*%
%FSLAX46Y46*%
G04 Gerber Fmt 4.6, Leading zero omitted, Abs format (unit mm)*
G04 Created by KiCad (PCBNEW 8.0.6) date 2025-05-11 12:33:19*
%MOMM*%
%LPD*%
G01*
G04 APERTURE LIST*
G04 Aperture macros list*
%AMRoundRect*
0 Rectangle with rounded corners*
0 $1 Rounding radius*
0 $2 $3 $4 $5 $6 $7 $8 $9 X,Y pos of 4 corners*
0 Add a 4 corners polygon primitive as box body*
4,1,4,$2,$3,$4,$5,$6,$7,$8,$9,$2,$3,0*
0 Add four circle primitives for the rounded corners*
1,1,$1+$1,$2,$3*
1,1,$1+$1,$4,$5*
1,1,$1+$1,$6,$7*
1,1,$1+$1,$8,$9*
0 Add four rect primitives between the rounded corners*
20,1,$1+$1,$2,$3,$4,$5,0*
20,1,$1+$1,$4,$5,$6,$7,0*
20,1,$1+$1,$6,$7,$8,$9,0*
20,1,$1+$1,$8,$9,$2,$3,0*%
G04 Aperture macros list end*
%ADD10O,2.121800X1.701800*%
%ADD11C,4.400000*%
%ADD12C,2.200000*%
%ADD13C,1.970000*%
%ADD14C,1.900000*%
%ADD15R,1.600000X1.600000*%
%ADD16RoundRect,0.225000X0.225000X0.375000X-0.225000X0.375000X-0.225000X-0.375000X0.225000X-0.375000X0*%
%ADD17C,1.400000*%
%ADD18O,1.600000X1.600000*%
%ADD19C,2.000000*%
%ADD20C,1.600000*%
%ADD21RoundRect,0.170000X-0.170000X-0.780000X0.170000X-0.780000X0.170000X0.780000X-0.170000X0.780000X0*%
%ADD22C,0.700000*%
G04 APERTURE END LIST*
D10*
%TO.C,SW32*%
X72902750Y-104775000D03*
D11*
X78192750Y-104775000D03*
D10*
X83482750Y-104775000D03*
D12*
X75652750Y-99695000D03*
D13*
X78192750Y-98875000D03*
D14*
X78192750Y-111275000D03*
D12*
X80732750Y-99695000D03*
D15*
X74382750Y-96825000D03*
D16*
X76542750Y-96825000D03*
D17*
X72972750Y-108975000D03*
D13*
X73192750Y-100975000D03*
D12*
X74382750Y-102235000D03*
D14*
X74392750Y-108575000D03*
D16*
X79843750Y-96825000D03*
D14*
X81992750Y-108575000D03*
D18*
X82002750Y-96825000D03*
D12*
X82002750Y-102235000D03*
D13*
X83192750Y-100975000D03*
D17*
X83412750Y-108975000D03*
%TD*%
D10*
%TO.C,SW28*%
X108621500Y-85725000D03*
D11*
X113911500Y-85725000D03*
D10*
X119201500Y-85725000D03*
D12*
X111371500Y-80645000D03*
D13*
X113911500Y-79825000D03*
D14*
X113911500Y-92225000D03*
D12*
X116451500Y-80645000D03*
D15*
X110101500Y-77775000D03*
D16*
X112261500Y-77775000D03*
D17*
X108691500Y-89925000D03*
D13*
X108911500Y-81925000D03*
D12*
X110101500Y-83185000D03*
D14*
X110111500Y-89525000D03*
D16*
X115562500Y-77775000D03*
D14*
X117711500Y-89525000D03*
D18*
X117721500Y-77775000D03*
D12*
X117721500Y-83185000D03*
D13*
X118911500Y-81925000D03*
D17*
X119131500Y-89925000D03*
%TD*%
D10*
%TO.C,SW11*%
X103859000Y-28575000D03*
D11*
X109149000Y-28575000D03*
D10*
X114439000Y-28575000D03*
D12*
X106609000Y-23495000D03*
D13*
X109149000Y-22675000D03*
D14*
X109149000Y-35075000D03*
D12*
X111689000Y-23495000D03*
D15*
X105339000Y-20625000D03*
D16*
X107499000Y-20625000D03*
D17*
X103929000Y-32775000D03*
D13*
X104149000Y-24775000D03*
D12*
X105339000Y-26035000D03*
D14*
X105349000Y-32375000D03*
D16*
X110800000Y-20625000D03*
D14*
X112949000Y-32375000D03*
D18*
X112959000Y-20625000D03*
D12*
X112959000Y-26035000D03*
D13*
X114149000Y-24775000D03*
D17*
X114369000Y-32775000D03*
%TD*%
D10*
%TO.C,SW20*%
X60996500Y-66675000D03*
D11*
X66286500Y-66675000D03*
D10*
X71576500Y-66675000D03*
D12*
X63746500Y-61595000D03*
D13*
X66286500Y-60775000D03*
D14*
X66286500Y-73175000D03*
D12*
X68826500Y-61595000D03*
D15*
X62476500Y-58725000D03*
D16*
X64636500Y-58725000D03*
D17*
X61066500Y-70875000D03*
D13*
X61286500Y-62875000D03*
D12*
X62476500Y-64135000D03*
D14*
X62486500Y-70475000D03*
D16*
X67937500Y-58725000D03*
D14*
X70086500Y-70475000D03*
D18*
X70096500Y-58725000D03*
D12*
X70096500Y-64135000D03*
D13*
X71286500Y-62875000D03*
D17*
X71506500Y-70875000D03*
%TD*%
D10*
%TO.C,SW9*%
X65759000Y-28575000D03*
D11*
X71049000Y-28575000D03*
D10*
X76339000Y-28575000D03*
D12*
X68509000Y-23495000D03*
D13*
X71049000Y-22675000D03*
D14*
X71049000Y-35075000D03*
D12*
X73589000Y-23495000D03*
D15*
X67239000Y-20625000D03*
D16*
X69399000Y-20625000D03*
D17*
X65829000Y-32775000D03*
D13*
X66049000Y-24775000D03*
D12*
X67239000Y-26035000D03*
D14*
X67249000Y-32375000D03*
D16*
X72700000Y-20625000D03*
D14*
X74849000Y-32375000D03*
D18*
X74859000Y-20625000D03*
D12*
X74859000Y-26035000D03*
D13*
X76049000Y-24775000D03*
D17*
X76269000Y-32775000D03*
%TD*%
D10*
%TO.C,SW29*%
X127671500Y-85725000D03*
D11*
X132961500Y-85725000D03*
D10*
X138251500Y-85725000D03*
D12*
X130421500Y-80645000D03*
D13*
X132961500Y-79825000D03*
D14*
X132961500Y-92225000D03*
D12*
X135501500Y-80645000D03*
D15*
X129151500Y-77775000D03*
D16*
X131311500Y-77775000D03*
D17*
X127741500Y-89925000D03*
D13*
X127961500Y-81925000D03*
D12*
X129151500Y-83185000D03*
D14*
X129161500Y-89525000D03*
D16*
X134612500Y-77775000D03*
D14*
X136761500Y-89525000D03*
D18*
X136771500Y-77775000D03*
D12*
X136771500Y-83185000D03*
D13*
X137961500Y-81925000D03*
D17*
X138181500Y-89925000D03*
%TD*%
D10*
%TO.C,SW18*%
X132434000Y-47625000D03*
D11*
X137724000Y-47625000D03*
D10*
X143014000Y-47625000D03*
D12*
X135184000Y-42545000D03*
D13*
X137724000Y-41725000D03*
D14*
X137724000Y-54125000D03*
D12*
X140264000Y-42545000D03*
D15*
X133914000Y-39675000D03*
D16*
X136074000Y-39675000D03*
D17*
X132504000Y-51825000D03*
D13*
X132724000Y-43825000D03*
D12*
X133914000Y-45085000D03*
D14*
X133924000Y-51425000D03*
D16*
X139375000Y-39675000D03*
D14*
X141524000Y-51425000D03*
D18*
X141534000Y-39675000D03*
D12*
X141534000Y-45085000D03*
D13*
X142724000Y-43825000D03*
D17*
X142944000Y-51825000D03*
%TD*%
D10*
%TO.C,SW21*%
X80046500Y-66675000D03*
D11*
X85336500Y-66675000D03*
D10*
X90626500Y-66675000D03*
D12*
X82796500Y-61595000D03*
D13*
X85336500Y-60775000D03*
D14*
X85336500Y-73175000D03*
D12*
X87876500Y-61595000D03*
D15*
X81526500Y-58725000D03*
D16*
X83686500Y-58725000D03*
D17*
X80116500Y-70875000D03*
D13*
X80336500Y-62875000D03*
D12*
X81526500Y-64135000D03*
D14*
X81536500Y-70475000D03*
D16*
X86987500Y-58725000D03*
D14*
X89136500Y-70475000D03*
D18*
X89146500Y-58725000D03*
D12*
X89146500Y-64135000D03*
D13*
X90336500Y-62875000D03*
D17*
X90556500Y-70875000D03*
%TD*%
D19*
%TO.C,J2*%
X10500000Y-41500000D03*
%TD*%
D10*
%TO.C,SW3*%
X65759000Y-9525000D03*
D11*
X71049000Y-9525000D03*
D10*
X76339000Y-9525000D03*
D12*
X68509000Y-4445000D03*
D13*
X71049000Y-3625000D03*
D14*
X71049000Y-16025000D03*
D12*
X73589000Y-4445000D03*
D15*
X67239000Y-1575000D03*
D16*
X69399000Y-1575000D03*
D17*
X65829000Y-13725000D03*
D13*
X66049000Y-5725000D03*
D12*
X67239000Y-6985000D03*
D14*
X67249000Y-13325000D03*
D16*
X72700000Y-1575000D03*
D14*
X74849000Y-13325000D03*
D18*
X74859000Y-1575000D03*
D12*
X74859000Y-6985000D03*
D13*
X76049000Y-5725000D03*
D17*
X76269000Y-13725000D03*
%TD*%
D10*
%TO.C,SW34*%
X127671500Y-104775000D03*
D11*
X132961500Y-104775000D03*
D10*
X138251500Y-104775000D03*
D12*
X130421500Y-99695000D03*
D13*
X132961500Y-98875000D03*
D14*
X132961500Y-111275000D03*
D12*
X135501500Y-99695000D03*
D15*
X129151500Y-96825000D03*
D16*
X131311500Y-96825000D03*
D17*
X127741500Y-108975000D03*
D13*
X127961500Y-100975000D03*
D12*
X129151500Y-102235000D03*
D14*
X129161500Y-108575000D03*
D16*
X134612500Y-96825000D03*
D14*
X136761500Y-108575000D03*
D18*
X136771500Y-96825000D03*
D12*
X136771500Y-102235000D03*
D13*
X137961500Y-100975000D03*
D17*
X138181500Y-108975000D03*
%TD*%
D10*
%TO.C,SW14*%
X56234000Y-47625000D03*
D11*
X61524000Y-47625000D03*
D10*
X66814000Y-47625000D03*
D12*
X58984000Y-42545000D03*
D13*
X61524000Y-41725000D03*
D14*
X61524000Y-54125000D03*
D12*
X64064000Y-42545000D03*
D15*
X57714000Y-39675000D03*
D16*
X59874000Y-39675000D03*
D17*
X56304000Y-51825000D03*
D13*
X56524000Y-43825000D03*
D12*
X57714000Y-45085000D03*
D14*
X57724000Y-51425000D03*
D16*
X63175000Y-39675000D03*
D14*
X65324000Y-51425000D03*
D18*
X65334000Y-39675000D03*
D12*
X65334000Y-45085000D03*
D13*
X66524000Y-43825000D03*
D17*
X66744000Y-51825000D03*
%TD*%
D10*
%TO.C,SW10*%
X84809000Y-28575000D03*
D11*
X90099000Y-28575000D03*
D10*
X95389000Y-28575000D03*
D12*
X87559000Y-23495000D03*
D13*
X90099000Y-22675000D03*
D14*
X90099000Y-35075000D03*
D12*
X92639000Y-23495000D03*
D15*
X86289000Y-20625000D03*
D16*
X88449000Y-20625000D03*
D17*
X84879000Y-32775000D03*
D13*
X85099000Y-24775000D03*
D12*
X86289000Y-26035000D03*
D14*
X86299000Y-32375000D03*
D16*
X91750000Y-20625000D03*
D14*
X93899000Y-32375000D03*
D18*
X93909000Y-20625000D03*
D12*
X93909000Y-26035000D03*
D13*
X95099000Y-24775000D03*
D17*
X95319000Y-32775000D03*
%TD*%
D10*
%TO.C,SW15*%
X75284000Y-47625000D03*
D11*
X80574000Y-47625000D03*
D10*
X85864000Y-47625000D03*
D12*
X78034000Y-42545000D03*
D13*
X80574000Y-41725000D03*
D14*
X80574000Y-54125000D03*
D12*
X83114000Y-42545000D03*
D15*
X76764000Y-39675000D03*
D16*
X78924000Y-39675000D03*
D17*
X75354000Y-51825000D03*
D13*
X75574000Y-43825000D03*
D12*
X76764000Y-45085000D03*
D14*
X76774000Y-51425000D03*
D16*
X82225000Y-39675000D03*
D14*
X84374000Y-51425000D03*
D18*
X84384000Y-39675000D03*
D12*
X84384000Y-45085000D03*
D13*
X85574000Y-43825000D03*
D17*
X85794000Y-51825000D03*
%TD*%
D10*
%TO.C,SW27*%
X89571500Y-85725000D03*
D11*
X94861500Y-85725000D03*
D10*
X100151500Y-85725000D03*
D12*
X92321500Y-80645000D03*
D13*
X94861500Y-79825000D03*
D14*
X94861500Y-92225000D03*
D12*
X97401500Y-80645000D03*
D15*
X91051500Y-77775000D03*
D16*
X93211500Y-77775000D03*
D17*
X89641500Y-89925000D03*
D13*
X89861500Y-81925000D03*
D12*
X91051500Y-83185000D03*
D14*
X91061500Y-89525000D03*
D16*
X96512500Y-77775000D03*
D14*
X98661500Y-89525000D03*
D18*
X98671500Y-77775000D03*
D12*
X98671500Y-83185000D03*
D13*
X99861500Y-81925000D03*
D17*
X100081500Y-89925000D03*
%TD*%
D10*
%TO.C,SW8*%
X46709000Y-28575000D03*
D11*
X51999000Y-28575000D03*
D10*
X57289000Y-28575000D03*
D12*
X49459000Y-23495000D03*
D13*
X51999000Y-22675000D03*
D14*
X51999000Y-35075000D03*
D12*
X54539000Y-23495000D03*
D15*
X48189000Y-20625000D03*
D16*
X50349000Y-20625000D03*
D17*
X46779000Y-32775000D03*
D13*
X46999000Y-24775000D03*
D12*
X48189000Y-26035000D03*
D14*
X48199000Y-32375000D03*
D16*
X53650000Y-20625000D03*
D14*
X55799000Y-32375000D03*
D18*
X55809000Y-20625000D03*
D12*
X55809000Y-26035000D03*
D13*
X56999000Y-24775000D03*
D17*
X57219000Y-32775000D03*
%TD*%
D10*
%TO.C,SW33*%
X96715250Y-104775000D03*
D11*
X102005250Y-104775000D03*
D10*
X107295250Y-104775000D03*
D12*
X99465250Y-99695000D03*
D13*
X102005250Y-98875000D03*
D14*
X102005250Y-111275000D03*
D12*
X104545250Y-99695000D03*
D15*
X98195250Y-96825000D03*
D16*
X100355250Y-96825000D03*
D17*
X96785250Y-108975000D03*
D13*
X97005250Y-100975000D03*
D12*
X98195250Y-102235000D03*
D14*
X98205250Y-108575000D03*
D16*
X103656250Y-96825000D03*
D14*
X105805250Y-108575000D03*
D18*
X105815250Y-96825000D03*
D12*
X105815250Y-102235000D03*
D13*
X107005250Y-100975000D03*
D17*
X107225250Y-108975000D03*
%TD*%
D10*
%TO.C,SW30*%
X27659000Y-104775000D03*
D11*
X32949000Y-104775000D03*
D10*
X38239000Y-104775000D03*
D12*
X30409000Y-99695000D03*
D13*
X32949000Y-98875000D03*
D14*
X32949000Y-111275000D03*
D12*
X35489000Y-99695000D03*
D15*
X29139000Y-96825000D03*
D16*
X31299000Y-96825000D03*
D17*
X27729000Y-108975000D03*
D13*
X27949000Y-100975000D03*
D12*
X29139000Y-102235000D03*
D14*
X29149000Y-108575000D03*
D16*
X34600000Y-96825000D03*
D14*
X36749000Y-108575000D03*
D18*
X36759000Y-96825000D03*
D12*
X36759000Y-102235000D03*
D13*
X37949000Y-100975000D03*
D17*
X38169000Y-108975000D03*
%TD*%
D10*
%TO.C,SW4*%
X84809000Y-9525000D03*
D11*
X90099000Y-9525000D03*
D10*
X95389000Y-9525000D03*
D12*
X87559000Y-4445000D03*
D13*
X90099000Y-3625000D03*
D14*
X90099000Y-16025000D03*
D12*
X92639000Y-4445000D03*
D15*
X86289000Y-1575000D03*
D16*
X88449000Y-1575000D03*
D17*
X84879000Y-13725000D03*
D13*
X85099000Y-5725000D03*
D12*
X86289000Y-6985000D03*
D14*
X86299000Y-13325000D03*
D16*
X91750000Y-1575000D03*
D14*
X93899000Y-13325000D03*
D18*
X93909000Y-1575000D03*
D12*
X93909000Y-6985000D03*
D13*
X95099000Y-5725000D03*
D17*
X95319000Y-13725000D03*
%TD*%
D10*
%TO.C,SW25*%
X39565250Y-85725000D03*
D11*
X44855250Y-85725000D03*
D10*
X50145250Y-85725000D03*
D12*
X42315250Y-80645000D03*
D13*
X44855250Y-79825000D03*
D14*
X44855250Y-92225000D03*
D12*
X47395250Y-80645000D03*
D15*
X41045250Y-77775000D03*
D16*
X43205250Y-77775000D03*
D17*
X39635250Y-89925000D03*
D13*
X39855250Y-81925000D03*
D12*
X41045250Y-83185000D03*
D14*
X41055250Y-89525000D03*
D16*
X46506250Y-77775000D03*
D14*
X48655250Y-89525000D03*
D18*
X48665250Y-77775000D03*
D12*
X48665250Y-83185000D03*
D13*
X49855250Y-81925000D03*
D17*
X50075250Y-89925000D03*
%TD*%
D10*
%TO.C,SW17*%
X113384000Y-47625000D03*
D11*
X118674000Y-47625000D03*
D10*
X123964000Y-47625000D03*
D12*
X116134000Y-42545000D03*
D13*
X118674000Y-41725000D03*
D14*
X118674000Y-54125000D03*
D12*
X121214000Y-42545000D03*
D15*
X114864000Y-39675000D03*
D16*
X117024000Y-39675000D03*
D17*
X113454000Y-51825000D03*
D13*
X113674000Y-43825000D03*
D12*
X114864000Y-45085000D03*
D14*
X114874000Y-51425000D03*
D16*
X120325000Y-39675000D03*
D14*
X122474000Y-51425000D03*
D18*
X122484000Y-39675000D03*
D12*
X122484000Y-45085000D03*
D13*
X123674000Y-43825000D03*
D17*
X123894000Y-51825000D03*
%TD*%
D10*
%TO.C,SW26*%
X70521500Y-85725000D03*
D11*
X75811500Y-85725000D03*
D10*
X81101500Y-85725000D03*
D12*
X73271500Y-80645000D03*
D13*
X75811500Y-79825000D03*
D14*
X75811500Y-92225000D03*
D12*
X78351500Y-80645000D03*
D15*
X72001500Y-77775000D03*
D16*
X74161500Y-77775000D03*
D17*
X70591500Y-89925000D03*
D13*
X70811500Y-81925000D03*
D12*
X72001500Y-83185000D03*
D14*
X72011500Y-89525000D03*
D16*
X77462500Y-77775000D03*
D14*
X79611500Y-89525000D03*
D18*
X79621500Y-77775000D03*
D12*
X79621500Y-83185000D03*
D13*
X80811500Y-81925000D03*
D17*
X81031500Y-89925000D03*
%TD*%
D12*
%TO.C,H4*%
X32000000Y-91000000D03*
%TD*%
%TO.C,H3*%
X147000000Y-110000000D03*
%TD*%
D10*
%TO.C,SW12*%
X122909000Y-28575000D03*
D11*
X128199000Y-28575000D03*
D10*
X133489000Y-28575000D03*
D12*
X125659000Y-23495000D03*
D13*
X128199000Y-22675000D03*
D14*
X128199000Y-35075000D03*
D12*
X130739000Y-23495000D03*
D15*
X124389000Y-20625000D03*
D16*
X126549000Y-20625000D03*
D17*
X122979000Y-32775000D03*
D13*
X123199000Y-24775000D03*
D12*
X124389000Y-26035000D03*
D14*
X124399000Y-32375000D03*
D16*
X129850000Y-20625000D03*
D14*
X131999000Y-32375000D03*
D18*
X132009000Y-20625000D03*
D12*
X132009000Y-26035000D03*
D13*
X133199000Y-24775000D03*
D17*
X133419000Y-32775000D03*
%TD*%
D12*
%TO.C,H1*%
X22000000Y-40000000D03*
%TD*%
D10*
%TO.C,SW2*%
X46709000Y-9525000D03*
D11*
X51999000Y-9525000D03*
D10*
X57289000Y-9525000D03*
D12*
X49459000Y-4445000D03*
D13*
X51999000Y-3625000D03*
D14*
X51999000Y-16025000D03*
D12*
X54539000Y-4445000D03*
D15*
X48189000Y-1575000D03*
D16*
X50349000Y-1575000D03*
D17*
X46779000Y-13725000D03*
D13*
X46999000Y-5725000D03*
D12*
X48189000Y-6985000D03*
D14*
X48199000Y-13325000D03*
D16*
X53650000Y-1575000D03*
D14*
X55799000Y-13325000D03*
D18*
X55809000Y-1575000D03*
D12*
X55809000Y-6985000D03*
D13*
X56999000Y-5725000D03*
D17*
X57219000Y-13725000D03*
%TD*%
D10*
%TO.C,SW6*%
X122909000Y-9525000D03*
D11*
X128199000Y-9525000D03*
D10*
X133489000Y-9525000D03*
D12*
X125659000Y-4445000D03*
D13*
X128199000Y-3625000D03*
D14*
X128199000Y-16025000D03*
D12*
X130739000Y-4445000D03*
D15*
X124389000Y-1575000D03*
D16*
X126549000Y-1575000D03*
D17*
X122979000Y-13725000D03*
D13*
X123199000Y-5725000D03*
D12*
X124389000Y-6985000D03*
D14*
X124399000Y-13325000D03*
D16*
X129850000Y-1575000D03*
D14*
X131999000Y-13325000D03*
D18*
X132009000Y-1575000D03*
D12*
X132009000Y-6985000D03*
D13*
X133199000Y-5725000D03*
D17*
X133419000Y-13725000D03*
%TD*%
D10*
%TO.C,SW5*%
X103859000Y-9525000D03*
D11*
X109149000Y-9525000D03*
D10*
X114439000Y-9525000D03*
D12*
X106609000Y-4445000D03*
D13*
X109149000Y-3625000D03*
D14*
X109149000Y-16025000D03*
D12*
X111689000Y-4445000D03*
D15*
X105339000Y-1575000D03*
D16*
X107499000Y-1575000D03*
D17*
X103929000Y-13725000D03*
D13*
X104149000Y-5725000D03*
D12*
X105339000Y-6985000D03*
D14*
X105349000Y-13325000D03*
D16*
X110800000Y-1575000D03*
D14*
X112949000Y-13325000D03*
D18*
X112959000Y-1575000D03*
D12*
X112959000Y-6985000D03*
D13*
X114149000Y-5725000D03*
D17*
X114369000Y-13725000D03*
%TD*%
D10*
%TO.C,SW24*%
X137196500Y-66675000D03*
D11*
X142486500Y-66675000D03*
D10*
X147776500Y-66675000D03*
D12*
X139946500Y-61595000D03*
D13*
X142486500Y-60775000D03*
D14*
X142486500Y-73175000D03*
D12*
X145026500Y-61595000D03*
D15*
X138676500Y-58725000D03*
D16*
X140836500Y-58725000D03*
D17*
X137266500Y-70875000D03*
D13*
X137486500Y-62875000D03*
D12*
X138676500Y-64135000D03*
D14*
X138686500Y-70475000D03*
D16*
X144137500Y-58725000D03*
D14*
X146286500Y-70475000D03*
D18*
X146296500Y-58725000D03*
D12*
X146296500Y-64135000D03*
D13*
X147486500Y-62875000D03*
D17*
X147706500Y-70875000D03*
%TD*%
D20*
%TO.C,U1*%
X4120000Y-5080000D03*
X20884000Y-6349996D03*
X4120000Y-7620000D03*
X20884000Y-8889996D03*
X4120000Y-10160000D03*
X20884000Y-11429996D03*
X4120000Y-12700000D03*
X20884000Y-13969996D03*
X4120000Y-15240000D03*
X20884000Y-16509996D03*
X4120000Y-17780000D03*
X20884000Y-19049996D03*
X4120000Y-20320000D03*
X20884000Y-21589996D03*
X4120000Y-22860000D03*
X20884000Y-24129996D03*
X4120000Y-25400000D03*
X20884000Y-26669996D03*
X4120000Y-27940000D03*
X20884000Y-29209996D03*
X4120000Y-30480000D03*
X20884000Y-31749996D03*
X4120000Y-33020000D03*
X20884000Y-34289996D03*
X19360000Y-33020000D03*
X5644000Y-34289996D03*
X19360000Y-30480000D03*
X5644000Y-31749996D03*
X19360000Y-27940000D03*
X5644000Y-29209996D03*
X19360000Y-25400000D03*
X5644000Y-26669996D03*
X19360000Y-22860000D03*
X5644000Y-24129996D03*
X19360000Y-20320000D03*
X5644000Y-21589996D03*
X19360000Y-17780000D03*
X5644000Y-19049996D03*
X19360000Y-15240000D03*
X5644000Y-16509996D03*
X19360000Y-12700000D03*
X5644000Y-13969996D03*
X19360000Y-10160000D03*
X5644000Y-11429996D03*
X19360000Y-7620000D03*
X5644000Y-8889996D03*
X19360000Y-5080000D03*
X5644000Y-6349996D03*
X19360000Y-2540000D03*
X5644000Y-3809996D03*
X4120000Y-2540000D03*
X20884000Y-3810000D03*
%TD*%
D10*
%TO.C,SW31*%
X49090250Y-104775000D03*
D11*
X54380250Y-104775000D03*
D10*
X59670250Y-104775000D03*
D12*
X51840250Y-99695000D03*
D13*
X54380250Y-98875000D03*
D14*
X54380250Y-111275000D03*
D12*
X56920250Y-99695000D03*
D15*
X50570250Y-96825000D03*
D16*
X52730250Y-96825000D03*
D17*
X49160250Y-108975000D03*
D13*
X49380250Y-100975000D03*
D12*
X50570250Y-102235000D03*
D14*
X50580250Y-108575000D03*
D16*
X56031250Y-96825000D03*
D14*
X58180250Y-108575000D03*
D18*
X58190250Y-96825000D03*
D12*
X58190250Y-102235000D03*
D13*
X59380250Y-100975000D03*
D17*
X59600250Y-108975000D03*
%TD*%
D10*
%TO.C,SW22*%
X99096500Y-66675000D03*
D11*
X104386500Y-66675000D03*
D10*
X109676500Y-66675000D03*
D12*
X101846500Y-61595000D03*
D13*
X104386500Y-60775000D03*
D14*
X104386500Y-73175000D03*
D12*
X106926500Y-61595000D03*
D15*
X100576500Y-58725000D03*
D16*
X102736500Y-58725000D03*
D17*
X99166500Y-70875000D03*
D13*
X99386500Y-62875000D03*
D12*
X100576500Y-64135000D03*
D14*
X100586500Y-70475000D03*
D16*
X106037500Y-58725000D03*
D14*
X108186500Y-70475000D03*
D18*
X108196500Y-58725000D03*
D12*
X108196500Y-64135000D03*
D13*
X109386500Y-62875000D03*
D17*
X109606500Y-70875000D03*
%TD*%
D10*
%TO.C,SW1*%
X27659000Y-9525000D03*
D11*
X32949000Y-9525000D03*
D10*
X38239000Y-9525000D03*
D12*
X30409000Y-4445000D03*
D13*
X32949000Y-3625000D03*
D14*
X32949000Y-16025000D03*
D12*
X35489000Y-4445000D03*
D15*
X29139000Y-1575000D03*
D16*
X31299000Y-1575000D03*
D17*
X27729000Y-13725000D03*
D13*
X27949000Y-5725000D03*
D12*
X29139000Y-6985000D03*
D14*
X29149000Y-13325000D03*
D16*
X34600000Y-1575000D03*
D14*
X36749000Y-13325000D03*
D18*
X36759000Y-1575000D03*
D12*
X36759000Y-6985000D03*
D13*
X37949000Y-5725000D03*
D17*
X38169000Y-13725000D03*
%TD*%
D10*
%TO.C,SW13*%
X32421500Y-47625000D03*
D11*
X37711500Y-47625000D03*
D10*
X43001500Y-47625000D03*
D12*
X35171500Y-42545000D03*
D13*
X37711500Y-41725000D03*
D14*
X37711500Y-54125000D03*
D12*
X40251500Y-42545000D03*
D15*
X33901500Y-39675000D03*
D16*
X36061500Y-39675000D03*
D17*
X32491500Y-51825000D03*
D13*
X32711500Y-43825000D03*
D12*
X33901500Y-45085000D03*
D14*
X33911500Y-51425000D03*
D16*
X39362500Y-39675000D03*
D14*
X41511500Y-51425000D03*
D18*
X41521500Y-39675000D03*
D12*
X41521500Y-45085000D03*
D13*
X42711500Y-43825000D03*
D17*
X42931500Y-51825000D03*
%TD*%
D19*
%TO.C,J1*%
X17000000Y-41500000D03*
%TD*%
D10*
%TO.C,SW16*%
X94334000Y-47625000D03*
D11*
X99624000Y-47625000D03*
D10*
X104914000Y-47625000D03*
D12*
X97084000Y-42545000D03*
D13*
X99624000Y-41725000D03*
D14*
X99624000Y-54125000D03*
D12*
X102164000Y-42545000D03*
D15*
X95814000Y-39675000D03*
D16*
X97974000Y-39675000D03*
D17*
X94404000Y-51825000D03*
D13*
X94624000Y-43825000D03*
D12*
X95814000Y-45085000D03*
D14*
X95824000Y-51425000D03*
D16*
X101275000Y-39675000D03*
D14*
X103424000Y-51425000D03*
D18*
X103434000Y-39675000D03*
D12*
X103434000Y-45085000D03*
D13*
X104624000Y-43825000D03*
D17*
X104844000Y-51825000D03*
%TD*%
D10*
%TO.C,SW23*%
X118146500Y-66675000D03*
D11*
X123436500Y-66675000D03*
D10*
X128726500Y-66675000D03*
D12*
X120896500Y-61595000D03*
D13*
X123436500Y-60775000D03*
D14*
X123436500Y-73175000D03*
D12*
X125976500Y-61595000D03*
D15*
X119626500Y-58725000D03*
D16*
X121786500Y-58725000D03*
D17*
X118216500Y-70875000D03*
D13*
X118436500Y-62875000D03*
D12*
X119626500Y-64135000D03*
D14*
X119636500Y-70475000D03*
D16*
X125087500Y-58725000D03*
D14*
X127236500Y-70475000D03*
D18*
X127246500Y-58725000D03*
D12*
X127246500Y-64135000D03*
D13*
X128436500Y-62875000D03*
D17*
X128656500Y-70875000D03*
%TD*%
D12*
%TO.C,H2*%
X118500000Y-19000000D03*
%TD*%
D10*
%TO.C,SW19*%
X34802750Y-66675000D03*
D11*
X40092750Y-66675000D03*
D10*
X45382750Y-66675000D03*
D12*
X37552750Y-61595000D03*
D13*
X40092750Y-60775000D03*
D14*
X40092750Y-73175000D03*
D12*
X42632750Y-61595000D03*
D15*
X36282750Y-58725000D03*
D16*
X38442750Y-58725000D03*
D17*
X34872750Y-70875000D03*
D13*
X35092750Y-62875000D03*
D12*
X36282750Y-64135000D03*
D14*
X36292750Y-70475000D03*
D16*
X41743750Y-58725000D03*
D14*
X43892750Y-70475000D03*
D18*
X43902750Y-58725000D03*
D12*
X43902750Y-64135000D03*
D13*
X45092750Y-62875000D03*
D17*
X45312750Y-70875000D03*
%TD*%
D10*
%TO.C,SW7*%
X27659000Y-28575000D03*
D11*
X32949000Y-28575000D03*
D10*
X38239000Y-28575000D03*
D12*
X30409000Y-23495000D03*
D13*
X32949000Y-22675000D03*
D14*
X32949000Y-35075000D03*
D12*
X35489000Y-23495000D03*
D15*
X29139000Y-20625000D03*
D16*
X31299000Y-20625000D03*
D17*
X27729000Y-32775000D03*
D13*
X27949000Y-24775000D03*
D12*
X29139000Y-26035000D03*
D14*
X29149000Y-32375000D03*
D16*
X34600000Y-20625000D03*
D14*
X36749000Y-32375000D03*
D18*
X36759000Y-20625000D03*
D12*
X36759000Y-26035000D03*
D13*
X37949000Y-24775000D03*
D17*
X38169000Y-32775000D03*
%TD*%
D21*
%TO.C,SW37*%
X8135000Y-38305000D03*
D22*
X8135000Y-38305000D03*
D21*
X11535000Y-38305000D03*
D22*
X11535000Y-38305000D03*
%TD*%
M02*
