%TF.GenerationSoftware,KiCad,Pcbnew,8.0.6*%
%TF.CreationDate,2025-05-11T12:33:19+09:00*%
%TF.ProjectId,65_split_left,36355f73-706c-4697-945f-6c6566742e6b,rev?*%
%TF.SameCoordinates,PX12f0318PYf8a778*%
%TF.FileFunction,Legend,Bot*%
%TF.FilePolarity,Positive*%
%FSLAX46Y46*%
G04 Gerber Fmt 4.6, Leading zero omitted, Abs format (unit mm)*
G04 Created by KiCad (PCBNEW 8.0.6) date 2025-05-11 12:33:19*
%MOMM*%
%LPD*%
G01*
G04 APERTURE LIST*
%ADD10C,0.200000*%
%ADD11C,0.150000*%
%ADD12C,0.120000*%
%ADD13C,0.500000*%
G04 APERTURE END LIST*
D10*
X14537714Y-3072814D02*
X14323428Y-3144242D01*
X14323428Y-3144242D02*
X14251999Y-3215671D01*
X14251999Y-3215671D02*
X14180571Y-3358528D01*
X14180571Y-3358528D02*
X14180571Y-3572814D01*
X14180571Y-3572814D02*
X14251999Y-3715671D01*
X14251999Y-3715671D02*
X14323428Y-3787100D01*
X14323428Y-3787100D02*
X14466285Y-3858528D01*
X14466285Y-3858528D02*
X15037714Y-3858528D01*
X15037714Y-3858528D02*
X15037714Y-2358528D01*
X15037714Y-2358528D02*
X14537714Y-2358528D01*
X14537714Y-2358528D02*
X14394857Y-2429957D01*
X14394857Y-2429957D02*
X14323428Y-2501385D01*
X14323428Y-2501385D02*
X14251999Y-2644242D01*
X14251999Y-2644242D02*
X14251999Y-2787100D01*
X14251999Y-2787100D02*
X14323428Y-2929957D01*
X14323428Y-2929957D02*
X14394857Y-3001385D01*
X14394857Y-3001385D02*
X14537714Y-3072814D01*
X14537714Y-3072814D02*
X15037714Y-3072814D01*
X13609142Y-3429957D02*
X12894857Y-3429957D01*
X13751999Y-3858528D02*
X13251999Y-2358528D01*
X13251999Y-2358528D02*
X12751999Y-3858528D01*
X11394857Y-3715671D02*
X11466285Y-3787100D01*
X11466285Y-3787100D02*
X11680571Y-3858528D01*
X11680571Y-3858528D02*
X11823428Y-3858528D01*
X11823428Y-3858528D02*
X12037714Y-3787100D01*
X12037714Y-3787100D02*
X12180571Y-3644242D01*
X12180571Y-3644242D02*
X12252000Y-3501385D01*
X12252000Y-3501385D02*
X12323428Y-3215671D01*
X12323428Y-3215671D02*
X12323428Y-3001385D01*
X12323428Y-3001385D02*
X12252000Y-2715671D01*
X12252000Y-2715671D02*
X12180571Y-2572814D01*
X12180571Y-2572814D02*
X12037714Y-2429957D01*
X12037714Y-2429957D02*
X11823428Y-2358528D01*
X11823428Y-2358528D02*
X11680571Y-2358528D01*
X11680571Y-2358528D02*
X11466285Y-2429957D01*
X11466285Y-2429957D02*
X11394857Y-2501385D01*
X10752000Y-3858528D02*
X10752000Y-2358528D01*
X9894857Y-3858528D02*
X10537714Y-3001385D01*
X9894857Y-2358528D02*
X10752000Y-3215671D01*
D11*
X3808466Y-4114761D02*
X3808466Y-3505238D01*
X3503704Y-3809999D02*
X4113228Y-3809999D01*
X19048466Y-4114761D02*
X19048466Y-3505238D01*
X5190476Y-40092800D02*
X5333333Y-40045180D01*
X5333333Y-40045180D02*
X5571428Y-40045180D01*
X5571428Y-40045180D02*
X5666666Y-40092800D01*
X5666666Y-40092800D02*
X5714285Y-40140419D01*
X5714285Y-40140419D02*
X5761904Y-40235657D01*
X5761904Y-40235657D02*
X5761904Y-40330895D01*
X5761904Y-40330895D02*
X5714285Y-40426133D01*
X5714285Y-40426133D02*
X5666666Y-40473752D01*
X5666666Y-40473752D02*
X5571428Y-40521371D01*
X5571428Y-40521371D02*
X5380952Y-40568990D01*
X5380952Y-40568990D02*
X5285714Y-40616609D01*
X5285714Y-40616609D02*
X5238095Y-40664228D01*
X5238095Y-40664228D02*
X5190476Y-40759466D01*
X5190476Y-40759466D02*
X5190476Y-40854704D01*
X5190476Y-40854704D02*
X5238095Y-40949942D01*
X5238095Y-40949942D02*
X5285714Y-40997561D01*
X5285714Y-40997561D02*
X5380952Y-41045180D01*
X5380952Y-41045180D02*
X5619047Y-41045180D01*
X5619047Y-41045180D02*
X5761904Y-40997561D01*
X6095238Y-41045180D02*
X6333333Y-40045180D01*
X6333333Y-40045180D02*
X6523809Y-40759466D01*
X6523809Y-40759466D02*
X6714285Y-40045180D01*
X6714285Y-40045180D02*
X6952381Y-41045180D01*
X7238095Y-41045180D02*
X7857142Y-41045180D01*
X7857142Y-41045180D02*
X7523809Y-40664228D01*
X7523809Y-40664228D02*
X7666666Y-40664228D01*
X7666666Y-40664228D02*
X7761904Y-40616609D01*
X7761904Y-40616609D02*
X7809523Y-40568990D01*
X7809523Y-40568990D02*
X7857142Y-40473752D01*
X7857142Y-40473752D02*
X7857142Y-40235657D01*
X7857142Y-40235657D02*
X7809523Y-40140419D01*
X7809523Y-40140419D02*
X7761904Y-40092800D01*
X7761904Y-40092800D02*
X7666666Y-40045180D01*
X7666666Y-40045180D02*
X7380952Y-40045180D01*
X7380952Y-40045180D02*
X7285714Y-40092800D01*
X7285714Y-40092800D02*
X7238095Y-40140419D01*
X8190476Y-41045180D02*
X8857142Y-41045180D01*
X8857142Y-41045180D02*
X8428571Y-40045180D01*
D12*
%TO.C,SW32*%
X70392750Y-97975000D02*
X70392750Y-96975000D01*
X70392750Y-111575000D02*
X70392750Y-112575000D01*
X70692750Y-98275000D02*
X70692750Y-97275000D01*
X70692750Y-111350000D02*
X70692750Y-112350000D01*
X71207750Y-97790000D02*
X85177750Y-97790000D01*
X71207750Y-111760000D02*
X71207750Y-97790000D01*
X71392750Y-96975000D02*
X70392750Y-96975000D01*
X71392750Y-112575000D02*
X70392750Y-112575000D01*
X71692750Y-97275000D02*
X70692750Y-97275000D01*
X71692750Y-112350000D02*
X70692750Y-112350000D01*
X73332750Y-97775000D02*
X73332750Y-95775000D01*
X77292750Y-111760000D02*
X71207750Y-111760000D01*
X78192750Y-95775000D02*
X73332750Y-95775000D01*
X84692750Y-97275000D02*
X85692750Y-97275000D01*
X84692750Y-112350000D02*
X85692750Y-112350000D01*
X84992750Y-96975000D02*
X85992750Y-96975000D01*
X84992750Y-112575000D02*
X85992750Y-112575000D01*
X85177750Y-97790000D02*
X85177750Y-111760000D01*
X85177750Y-111760000D02*
X79092750Y-111760000D01*
X85692750Y-98275000D02*
X85692750Y-97275000D01*
X85692750Y-111350000D02*
X85692750Y-112350000D01*
X85992750Y-97975000D02*
X85992750Y-96975000D01*
X85992750Y-111575000D02*
X85992750Y-112575000D01*
%TO.C,SW28*%
X106111500Y-78925000D02*
X106111500Y-77925000D01*
X106111500Y-92525000D02*
X106111500Y-93525000D01*
X106411500Y-79225000D02*
X106411500Y-78225000D01*
X106411500Y-92300000D02*
X106411500Y-93300000D01*
X106926500Y-78740000D02*
X120896500Y-78740000D01*
X106926500Y-92710000D02*
X106926500Y-78740000D01*
X107111500Y-77925000D02*
X106111500Y-77925000D01*
X107111500Y-93525000D02*
X106111500Y-93525000D01*
X107411500Y-78225000D02*
X106411500Y-78225000D01*
X107411500Y-93300000D02*
X106411500Y-93300000D01*
X109051500Y-78725000D02*
X109051500Y-76725000D01*
X113011500Y-92710000D02*
X106926500Y-92710000D01*
X113911500Y-76725000D02*
X109051500Y-76725000D01*
X120411500Y-78225000D02*
X121411500Y-78225000D01*
X120411500Y-93300000D02*
X121411500Y-93300000D01*
X120711500Y-77925000D02*
X121711500Y-77925000D01*
X120711500Y-93525000D02*
X121711500Y-93525000D01*
X120896500Y-78740000D02*
X120896500Y-92710000D01*
X120896500Y-92710000D02*
X114811500Y-92710000D01*
X121411500Y-79225000D02*
X121411500Y-78225000D01*
X121411500Y-92300000D02*
X121411500Y-93300000D01*
X121711500Y-78925000D02*
X121711500Y-77925000D01*
X121711500Y-92525000D02*
X121711500Y-93525000D01*
%TO.C,SW11*%
X101349000Y-21775000D02*
X101349000Y-20775000D01*
X101349000Y-35375000D02*
X101349000Y-36375000D01*
X101649000Y-22075000D02*
X101649000Y-21075000D01*
X101649000Y-35150000D02*
X101649000Y-36150000D01*
X102164000Y-21590000D02*
X116134000Y-21590000D01*
X102164000Y-35560000D02*
X102164000Y-21590000D01*
X102349000Y-20775000D02*
X101349000Y-20775000D01*
X102349000Y-36375000D02*
X101349000Y-36375000D01*
X102649000Y-21075000D02*
X101649000Y-21075000D01*
X102649000Y-36150000D02*
X101649000Y-36150000D01*
X104289000Y-21575000D02*
X104289000Y-19575000D01*
X108249000Y-35560000D02*
X102164000Y-35560000D01*
X109149000Y-19575000D02*
X104289000Y-19575000D01*
X115649000Y-21075000D02*
X116649000Y-21075000D01*
X115649000Y-36150000D02*
X116649000Y-36150000D01*
X115949000Y-20775000D02*
X116949000Y-20775000D01*
X115949000Y-36375000D02*
X116949000Y-36375000D01*
X116134000Y-21590000D02*
X116134000Y-35560000D01*
X116134000Y-35560000D02*
X110049000Y-35560000D01*
X116649000Y-22075000D02*
X116649000Y-21075000D01*
X116649000Y-35150000D02*
X116649000Y-36150000D01*
X116949000Y-21775000D02*
X116949000Y-20775000D01*
X116949000Y-35375000D02*
X116949000Y-36375000D01*
%TO.C,SW20*%
X58486500Y-59875000D02*
X58486500Y-58875000D01*
X58486500Y-73475000D02*
X58486500Y-74475000D01*
X58786500Y-60175000D02*
X58786500Y-59175000D01*
X58786500Y-73250000D02*
X58786500Y-74250000D01*
X59301500Y-59690000D02*
X73271500Y-59690000D01*
X59301500Y-73660000D02*
X59301500Y-59690000D01*
X59486500Y-58875000D02*
X58486500Y-58875000D01*
X59486500Y-74475000D02*
X58486500Y-74475000D01*
X59786500Y-59175000D02*
X58786500Y-59175000D01*
X59786500Y-74250000D02*
X58786500Y-74250000D01*
X61426500Y-59675000D02*
X61426500Y-57675000D01*
X65386500Y-73660000D02*
X59301500Y-73660000D01*
X66286500Y-57675000D02*
X61426500Y-57675000D01*
X72786500Y-59175000D02*
X73786500Y-59175000D01*
X72786500Y-74250000D02*
X73786500Y-74250000D01*
X73086500Y-58875000D02*
X74086500Y-58875000D01*
X73086500Y-74475000D02*
X74086500Y-74475000D01*
X73271500Y-59690000D02*
X73271500Y-73660000D01*
X73271500Y-73660000D02*
X67186500Y-73660000D01*
X73786500Y-60175000D02*
X73786500Y-59175000D01*
X73786500Y-73250000D02*
X73786500Y-74250000D01*
X74086500Y-59875000D02*
X74086500Y-58875000D01*
X74086500Y-73475000D02*
X74086500Y-74475000D01*
%TO.C,SW9*%
X63249000Y-21775000D02*
X63249000Y-20775000D01*
X63249000Y-35375000D02*
X63249000Y-36375000D01*
X63549000Y-22075000D02*
X63549000Y-21075000D01*
X63549000Y-35150000D02*
X63549000Y-36150000D01*
X64064000Y-21590000D02*
X78034000Y-21590000D01*
X64064000Y-35560000D02*
X64064000Y-21590000D01*
X64249000Y-20775000D02*
X63249000Y-20775000D01*
X64249000Y-36375000D02*
X63249000Y-36375000D01*
X64549000Y-21075000D02*
X63549000Y-21075000D01*
X64549000Y-36150000D02*
X63549000Y-36150000D01*
X66189000Y-21575000D02*
X66189000Y-19575000D01*
X70149000Y-35560000D02*
X64064000Y-35560000D01*
X71049000Y-19575000D02*
X66189000Y-19575000D01*
X77549000Y-21075000D02*
X78549000Y-21075000D01*
X77549000Y-36150000D02*
X78549000Y-36150000D01*
X77849000Y-20775000D02*
X78849000Y-20775000D01*
X77849000Y-36375000D02*
X78849000Y-36375000D01*
X78034000Y-21590000D02*
X78034000Y-35560000D01*
X78034000Y-35560000D02*
X71949000Y-35560000D01*
X78549000Y-22075000D02*
X78549000Y-21075000D01*
X78549000Y-35150000D02*
X78549000Y-36150000D01*
X78849000Y-21775000D02*
X78849000Y-20775000D01*
X78849000Y-35375000D02*
X78849000Y-36375000D01*
%TO.C,SW29*%
X125161500Y-78925000D02*
X125161500Y-77925000D01*
X125161500Y-92525000D02*
X125161500Y-93525000D01*
X125461500Y-79225000D02*
X125461500Y-78225000D01*
X125461500Y-92300000D02*
X125461500Y-93300000D01*
X125976500Y-78740000D02*
X139946500Y-78740000D01*
X125976500Y-92710000D02*
X125976500Y-78740000D01*
X126161500Y-77925000D02*
X125161500Y-77925000D01*
X126161500Y-93525000D02*
X125161500Y-93525000D01*
X126461500Y-78225000D02*
X125461500Y-78225000D01*
X126461500Y-93300000D02*
X125461500Y-93300000D01*
X128101500Y-78725000D02*
X128101500Y-76725000D01*
X132061500Y-92710000D02*
X125976500Y-92710000D01*
X132961500Y-76725000D02*
X128101500Y-76725000D01*
X139461500Y-78225000D02*
X140461500Y-78225000D01*
X139461500Y-93300000D02*
X140461500Y-93300000D01*
X139761500Y-77925000D02*
X140761500Y-77925000D01*
X139761500Y-93525000D02*
X140761500Y-93525000D01*
X139946500Y-78740000D02*
X139946500Y-92710000D01*
X139946500Y-92710000D02*
X133861500Y-92710000D01*
X140461500Y-79225000D02*
X140461500Y-78225000D01*
X140461500Y-92300000D02*
X140461500Y-93300000D01*
X140761500Y-78925000D02*
X140761500Y-77925000D01*
X140761500Y-92525000D02*
X140761500Y-93525000D01*
%TO.C,SW18*%
X129924000Y-40825000D02*
X129924000Y-39825000D01*
X129924000Y-54425000D02*
X129924000Y-55425000D01*
X130224000Y-41125000D02*
X130224000Y-40125000D01*
X130224000Y-54200000D02*
X130224000Y-55200000D01*
X130739000Y-40640000D02*
X144709000Y-40640000D01*
X130739000Y-54610000D02*
X130739000Y-40640000D01*
X130924000Y-39825000D02*
X129924000Y-39825000D01*
X130924000Y-55425000D02*
X129924000Y-55425000D01*
X131224000Y-40125000D02*
X130224000Y-40125000D01*
X131224000Y-55200000D02*
X130224000Y-55200000D01*
X132864000Y-40625000D02*
X132864000Y-38625000D01*
X136824000Y-54610000D02*
X130739000Y-54610000D01*
X137724000Y-38625000D02*
X132864000Y-38625000D01*
X144224000Y-40125000D02*
X145224000Y-40125000D01*
X144224000Y-55200000D02*
X145224000Y-55200000D01*
X144524000Y-39825000D02*
X145524000Y-39825000D01*
X144524000Y-55425000D02*
X145524000Y-55425000D01*
X144709000Y-40640000D02*
X144709000Y-54610000D01*
X144709000Y-54610000D02*
X138624000Y-54610000D01*
X145224000Y-41125000D02*
X145224000Y-40125000D01*
X145224000Y-54200000D02*
X145224000Y-55200000D01*
X145524000Y-40825000D02*
X145524000Y-39825000D01*
X145524000Y-54425000D02*
X145524000Y-55425000D01*
%TO.C,SW21*%
X77536500Y-59875000D02*
X77536500Y-58875000D01*
X77536500Y-73475000D02*
X77536500Y-74475000D01*
X77836500Y-60175000D02*
X77836500Y-59175000D01*
X77836500Y-73250000D02*
X77836500Y-74250000D01*
X78351500Y-59690000D02*
X92321500Y-59690000D01*
X78351500Y-73660000D02*
X78351500Y-59690000D01*
X78536500Y-58875000D02*
X77536500Y-58875000D01*
X78536500Y-74475000D02*
X77536500Y-74475000D01*
X78836500Y-59175000D02*
X77836500Y-59175000D01*
X78836500Y-74250000D02*
X77836500Y-74250000D01*
X80476500Y-59675000D02*
X80476500Y-57675000D01*
X84436500Y-73660000D02*
X78351500Y-73660000D01*
X85336500Y-57675000D02*
X80476500Y-57675000D01*
X91836500Y-59175000D02*
X92836500Y-59175000D01*
X91836500Y-74250000D02*
X92836500Y-74250000D01*
X92136500Y-58875000D02*
X93136500Y-58875000D01*
X92136500Y-74475000D02*
X93136500Y-74475000D01*
X92321500Y-59690000D02*
X92321500Y-73660000D01*
X92321500Y-73660000D02*
X86236500Y-73660000D01*
X92836500Y-60175000D02*
X92836500Y-59175000D01*
X92836500Y-73250000D02*
X92836500Y-74250000D01*
X93136500Y-59875000D02*
X93136500Y-58875000D01*
X93136500Y-73475000D02*
X93136500Y-74475000D01*
%TO.C,SW3*%
X63249000Y-2725000D02*
X63249000Y-1725000D01*
X63249000Y-16325000D02*
X63249000Y-17325000D01*
X63549000Y-3025000D02*
X63549000Y-2025000D01*
X63549000Y-16100000D02*
X63549000Y-17100000D01*
X64064000Y-2540000D02*
X78034000Y-2540000D01*
X64064000Y-16510000D02*
X64064000Y-2540000D01*
X64249000Y-1725000D02*
X63249000Y-1725000D01*
X64249000Y-17325000D02*
X63249000Y-17325000D01*
X64549000Y-2025000D02*
X63549000Y-2025000D01*
X64549000Y-17100000D02*
X63549000Y-17100000D01*
X66189000Y-2525000D02*
X66189000Y-525000D01*
X70149000Y-16510000D02*
X64064000Y-16510000D01*
X71049000Y-525000D02*
X66189000Y-525000D01*
X77549000Y-2025000D02*
X78549000Y-2025000D01*
X77549000Y-17100000D02*
X78549000Y-17100000D01*
X77849000Y-1725000D02*
X78849000Y-1725000D01*
X77849000Y-17325000D02*
X78849000Y-17325000D01*
X78034000Y-2540000D02*
X78034000Y-16510000D01*
X78034000Y-16510000D02*
X71949000Y-16510000D01*
X78549000Y-3025000D02*
X78549000Y-2025000D01*
X78549000Y-16100000D02*
X78549000Y-17100000D01*
X78849000Y-2725000D02*
X78849000Y-1725000D01*
X78849000Y-16325000D02*
X78849000Y-17325000D01*
%TO.C,SW34*%
X125161500Y-97975000D02*
X125161500Y-96975000D01*
X125161500Y-111575000D02*
X125161500Y-112575000D01*
X125461500Y-98275000D02*
X125461500Y-97275000D01*
X125461500Y-111350000D02*
X125461500Y-112350000D01*
X125976500Y-97790000D02*
X139946500Y-97790000D01*
X125976500Y-111760000D02*
X125976500Y-97790000D01*
X126161500Y-96975000D02*
X125161500Y-96975000D01*
X126161500Y-112575000D02*
X125161500Y-112575000D01*
X126461500Y-97275000D02*
X125461500Y-97275000D01*
X126461500Y-112350000D02*
X125461500Y-112350000D01*
X128101500Y-97775000D02*
X128101500Y-95775000D01*
X132061500Y-111760000D02*
X125976500Y-111760000D01*
X132961500Y-95775000D02*
X128101500Y-95775000D01*
X139461500Y-97275000D02*
X140461500Y-97275000D01*
X139461500Y-112350000D02*
X140461500Y-112350000D01*
X139761500Y-96975000D02*
X140761500Y-96975000D01*
X139761500Y-112575000D02*
X140761500Y-112575000D01*
X139946500Y-97790000D02*
X139946500Y-111760000D01*
X139946500Y-111760000D02*
X133861500Y-111760000D01*
X140461500Y-98275000D02*
X140461500Y-97275000D01*
X140461500Y-111350000D02*
X140461500Y-112350000D01*
X140761500Y-97975000D02*
X140761500Y-96975000D01*
X140761500Y-111575000D02*
X140761500Y-112575000D01*
%TO.C,SW14*%
X53724000Y-40825000D02*
X53724000Y-39825000D01*
X53724000Y-54425000D02*
X53724000Y-55425000D01*
X54024000Y-41125000D02*
X54024000Y-40125000D01*
X54024000Y-54200000D02*
X54024000Y-55200000D01*
X54539000Y-40640000D02*
X68509000Y-40640000D01*
X54539000Y-54610000D02*
X54539000Y-40640000D01*
X54724000Y-39825000D02*
X53724000Y-39825000D01*
X54724000Y-55425000D02*
X53724000Y-55425000D01*
X55024000Y-40125000D02*
X54024000Y-40125000D01*
X55024000Y-55200000D02*
X54024000Y-55200000D01*
X56664000Y-40625000D02*
X56664000Y-38625000D01*
X60624000Y-54610000D02*
X54539000Y-54610000D01*
X61524000Y-38625000D02*
X56664000Y-38625000D01*
X68024000Y-40125000D02*
X69024000Y-40125000D01*
X68024000Y-55200000D02*
X69024000Y-55200000D01*
X68324000Y-39825000D02*
X69324000Y-39825000D01*
X68324000Y-55425000D02*
X69324000Y-55425000D01*
X68509000Y-40640000D02*
X68509000Y-54610000D01*
X68509000Y-54610000D02*
X62424000Y-54610000D01*
X69024000Y-41125000D02*
X69024000Y-40125000D01*
X69024000Y-54200000D02*
X69024000Y-55200000D01*
X69324000Y-40825000D02*
X69324000Y-39825000D01*
X69324000Y-54425000D02*
X69324000Y-55425000D01*
%TO.C,SW10*%
X82299000Y-21775000D02*
X82299000Y-20775000D01*
X82299000Y-35375000D02*
X82299000Y-36375000D01*
X82599000Y-22075000D02*
X82599000Y-21075000D01*
X82599000Y-35150000D02*
X82599000Y-36150000D01*
X83114000Y-21590000D02*
X97084000Y-21590000D01*
X83114000Y-35560000D02*
X83114000Y-21590000D01*
X83299000Y-20775000D02*
X82299000Y-20775000D01*
X83299000Y-36375000D02*
X82299000Y-36375000D01*
X83599000Y-21075000D02*
X82599000Y-21075000D01*
X83599000Y-36150000D02*
X82599000Y-36150000D01*
X85239000Y-21575000D02*
X85239000Y-19575000D01*
X89199000Y-35560000D02*
X83114000Y-35560000D01*
X90099000Y-19575000D02*
X85239000Y-19575000D01*
X96599000Y-21075000D02*
X97599000Y-21075000D01*
X96599000Y-36150000D02*
X97599000Y-36150000D01*
X96899000Y-20775000D02*
X97899000Y-20775000D01*
X96899000Y-36375000D02*
X97899000Y-36375000D01*
X97084000Y-21590000D02*
X97084000Y-35560000D01*
X97084000Y-35560000D02*
X90999000Y-35560000D01*
X97599000Y-22075000D02*
X97599000Y-21075000D01*
X97599000Y-35150000D02*
X97599000Y-36150000D01*
X97899000Y-21775000D02*
X97899000Y-20775000D01*
X97899000Y-35375000D02*
X97899000Y-36375000D01*
%TO.C,SW15*%
X72774000Y-40825000D02*
X72774000Y-39825000D01*
X72774000Y-54425000D02*
X72774000Y-55425000D01*
X73074000Y-41125000D02*
X73074000Y-40125000D01*
X73074000Y-54200000D02*
X73074000Y-55200000D01*
X73589000Y-40640000D02*
X87559000Y-40640000D01*
X73589000Y-54610000D02*
X73589000Y-40640000D01*
X73774000Y-39825000D02*
X72774000Y-39825000D01*
X73774000Y-55425000D02*
X72774000Y-55425000D01*
X74074000Y-40125000D02*
X73074000Y-40125000D01*
X74074000Y-55200000D02*
X73074000Y-55200000D01*
X75714000Y-40625000D02*
X75714000Y-38625000D01*
X79674000Y-54610000D02*
X73589000Y-54610000D01*
X80574000Y-38625000D02*
X75714000Y-38625000D01*
X87074000Y-40125000D02*
X88074000Y-40125000D01*
X87074000Y-55200000D02*
X88074000Y-55200000D01*
X87374000Y-39825000D02*
X88374000Y-39825000D01*
X87374000Y-55425000D02*
X88374000Y-55425000D01*
X87559000Y-40640000D02*
X87559000Y-54610000D01*
X87559000Y-54610000D02*
X81474000Y-54610000D01*
X88074000Y-41125000D02*
X88074000Y-40125000D01*
X88074000Y-54200000D02*
X88074000Y-55200000D01*
X88374000Y-40825000D02*
X88374000Y-39825000D01*
X88374000Y-54425000D02*
X88374000Y-55425000D01*
%TO.C,SW27*%
X87061500Y-78925000D02*
X87061500Y-77925000D01*
X87061500Y-92525000D02*
X87061500Y-93525000D01*
X87361500Y-79225000D02*
X87361500Y-78225000D01*
X87361500Y-92300000D02*
X87361500Y-93300000D01*
X87876500Y-78740000D02*
X101846500Y-78740000D01*
X87876500Y-92710000D02*
X87876500Y-78740000D01*
X88061500Y-77925000D02*
X87061500Y-77925000D01*
X88061500Y-93525000D02*
X87061500Y-93525000D01*
X88361500Y-78225000D02*
X87361500Y-78225000D01*
X88361500Y-93300000D02*
X87361500Y-93300000D01*
X90001500Y-78725000D02*
X90001500Y-76725000D01*
X93961500Y-92710000D02*
X87876500Y-92710000D01*
X94861500Y-76725000D02*
X90001500Y-76725000D01*
X101361500Y-78225000D02*
X102361500Y-78225000D01*
X101361500Y-93300000D02*
X102361500Y-93300000D01*
X101661500Y-77925000D02*
X102661500Y-77925000D01*
X101661500Y-93525000D02*
X102661500Y-93525000D01*
X101846500Y-78740000D02*
X101846500Y-92710000D01*
X101846500Y-92710000D02*
X95761500Y-92710000D01*
X102361500Y-79225000D02*
X102361500Y-78225000D01*
X102361500Y-92300000D02*
X102361500Y-93300000D01*
X102661500Y-78925000D02*
X102661500Y-77925000D01*
X102661500Y-92525000D02*
X102661500Y-93525000D01*
%TO.C,SW8*%
X44199000Y-21775000D02*
X44199000Y-20775000D01*
X44199000Y-35375000D02*
X44199000Y-36375000D01*
X44499000Y-22075000D02*
X44499000Y-21075000D01*
X44499000Y-35150000D02*
X44499000Y-36150000D01*
X45014000Y-21590000D02*
X58984000Y-21590000D01*
X45014000Y-35560000D02*
X45014000Y-21590000D01*
X45199000Y-20775000D02*
X44199000Y-20775000D01*
X45199000Y-36375000D02*
X44199000Y-36375000D01*
X45499000Y-21075000D02*
X44499000Y-21075000D01*
X45499000Y-36150000D02*
X44499000Y-36150000D01*
X47139000Y-21575000D02*
X47139000Y-19575000D01*
X51099000Y-35560000D02*
X45014000Y-35560000D01*
X51999000Y-19575000D02*
X47139000Y-19575000D01*
X58499000Y-21075000D02*
X59499000Y-21075000D01*
X58499000Y-36150000D02*
X59499000Y-36150000D01*
X58799000Y-20775000D02*
X59799000Y-20775000D01*
X58799000Y-36375000D02*
X59799000Y-36375000D01*
X58984000Y-21590000D02*
X58984000Y-35560000D01*
X58984000Y-35560000D02*
X52899000Y-35560000D01*
X59499000Y-22075000D02*
X59499000Y-21075000D01*
X59499000Y-35150000D02*
X59499000Y-36150000D01*
X59799000Y-21775000D02*
X59799000Y-20775000D01*
X59799000Y-35375000D02*
X59799000Y-36375000D01*
%TO.C,SW33*%
X94205250Y-97975000D02*
X94205250Y-96975000D01*
X94205250Y-111575000D02*
X94205250Y-112575000D01*
X94505250Y-98275000D02*
X94505250Y-97275000D01*
X94505250Y-111350000D02*
X94505250Y-112350000D01*
X95020250Y-97790000D02*
X108990250Y-97790000D01*
X95020250Y-111760000D02*
X95020250Y-97790000D01*
X95205250Y-96975000D02*
X94205250Y-96975000D01*
X95205250Y-112575000D02*
X94205250Y-112575000D01*
X95505250Y-97275000D02*
X94505250Y-97275000D01*
X95505250Y-112350000D02*
X94505250Y-112350000D01*
X97145250Y-97775000D02*
X97145250Y-95775000D01*
X101105250Y-111760000D02*
X95020250Y-111760000D01*
X102005250Y-95775000D02*
X97145250Y-95775000D01*
X108505250Y-97275000D02*
X109505250Y-97275000D01*
X108505250Y-112350000D02*
X109505250Y-112350000D01*
X108805250Y-96975000D02*
X109805250Y-96975000D01*
X108805250Y-112575000D02*
X109805250Y-112575000D01*
X108990250Y-97790000D02*
X108990250Y-111760000D01*
X108990250Y-111760000D02*
X102905250Y-111760000D01*
X109505250Y-98275000D02*
X109505250Y-97275000D01*
X109505250Y-111350000D02*
X109505250Y-112350000D01*
X109805250Y-97975000D02*
X109805250Y-96975000D01*
X109805250Y-111575000D02*
X109805250Y-112575000D01*
%TO.C,SW30*%
X25149000Y-97975000D02*
X25149000Y-96975000D01*
X25149000Y-111575000D02*
X25149000Y-112575000D01*
X25449000Y-98275000D02*
X25449000Y-97275000D01*
X25449000Y-111350000D02*
X25449000Y-112350000D01*
X25964000Y-97790000D02*
X39934000Y-97790000D01*
X25964000Y-111760000D02*
X25964000Y-97790000D01*
X26149000Y-96975000D02*
X25149000Y-96975000D01*
X26149000Y-112575000D02*
X25149000Y-112575000D01*
X26449000Y-97275000D02*
X25449000Y-97275000D01*
X26449000Y-112350000D02*
X25449000Y-112350000D01*
X28089000Y-97775000D02*
X28089000Y-95775000D01*
X32049000Y-111760000D02*
X25964000Y-111760000D01*
X32949000Y-95775000D02*
X28089000Y-95775000D01*
X39449000Y-97275000D02*
X40449000Y-97275000D01*
X39449000Y-112350000D02*
X40449000Y-112350000D01*
X39749000Y-96975000D02*
X40749000Y-96975000D01*
X39749000Y-112575000D02*
X40749000Y-112575000D01*
X39934000Y-97790000D02*
X39934000Y-111760000D01*
X39934000Y-111760000D02*
X33849000Y-111760000D01*
X40449000Y-98275000D02*
X40449000Y-97275000D01*
X40449000Y-111350000D02*
X40449000Y-112350000D01*
X40749000Y-97975000D02*
X40749000Y-96975000D01*
X40749000Y-111575000D02*
X40749000Y-112575000D01*
%TO.C,SW4*%
X82299000Y-2725000D02*
X82299000Y-1725000D01*
X82299000Y-16325000D02*
X82299000Y-17325000D01*
X82599000Y-3025000D02*
X82599000Y-2025000D01*
X82599000Y-16100000D02*
X82599000Y-17100000D01*
X83114000Y-2540000D02*
X97084000Y-2540000D01*
X83114000Y-16510000D02*
X83114000Y-2540000D01*
X83299000Y-1725000D02*
X82299000Y-1725000D01*
X83299000Y-17325000D02*
X82299000Y-17325000D01*
X83599000Y-2025000D02*
X82599000Y-2025000D01*
X83599000Y-17100000D02*
X82599000Y-17100000D01*
X85239000Y-2525000D02*
X85239000Y-525000D01*
X89199000Y-16510000D02*
X83114000Y-16510000D01*
X90099000Y-525000D02*
X85239000Y-525000D01*
X96599000Y-2025000D02*
X97599000Y-2025000D01*
X96599000Y-17100000D02*
X97599000Y-17100000D01*
X96899000Y-1725000D02*
X97899000Y-1725000D01*
X96899000Y-17325000D02*
X97899000Y-17325000D01*
X97084000Y-2540000D02*
X97084000Y-16510000D01*
X97084000Y-16510000D02*
X90999000Y-16510000D01*
X97599000Y-3025000D02*
X97599000Y-2025000D01*
X97599000Y-16100000D02*
X97599000Y-17100000D01*
X97899000Y-2725000D02*
X97899000Y-1725000D01*
X97899000Y-16325000D02*
X97899000Y-17325000D01*
%TO.C,SW25*%
X37055250Y-78925000D02*
X37055250Y-77925000D01*
X37055250Y-92525000D02*
X37055250Y-93525000D01*
X37355250Y-79225000D02*
X37355250Y-78225000D01*
X37355250Y-92300000D02*
X37355250Y-93300000D01*
X37870250Y-78740000D02*
X51840250Y-78740000D01*
X37870250Y-92710000D02*
X37870250Y-78740000D01*
X38055250Y-77925000D02*
X37055250Y-77925000D01*
X38055250Y-93525000D02*
X37055250Y-93525000D01*
X38355250Y-78225000D02*
X37355250Y-78225000D01*
X38355250Y-93300000D02*
X37355250Y-93300000D01*
X39995250Y-78725000D02*
X39995250Y-76725000D01*
X43955250Y-92710000D02*
X37870250Y-92710000D01*
X44855250Y-76725000D02*
X39995250Y-76725000D01*
X51355250Y-78225000D02*
X52355250Y-78225000D01*
X51355250Y-93300000D02*
X52355250Y-93300000D01*
X51655250Y-77925000D02*
X52655250Y-77925000D01*
X51655250Y-93525000D02*
X52655250Y-93525000D01*
X51840250Y-78740000D02*
X51840250Y-92710000D01*
X51840250Y-92710000D02*
X45755250Y-92710000D01*
X52355250Y-79225000D02*
X52355250Y-78225000D01*
X52355250Y-92300000D02*
X52355250Y-93300000D01*
X52655250Y-78925000D02*
X52655250Y-77925000D01*
X52655250Y-92525000D02*
X52655250Y-93525000D01*
%TO.C,SW17*%
X110874000Y-40825000D02*
X110874000Y-39825000D01*
X110874000Y-54425000D02*
X110874000Y-55425000D01*
X111174000Y-41125000D02*
X111174000Y-40125000D01*
X111174000Y-54200000D02*
X111174000Y-55200000D01*
X111689000Y-40640000D02*
X125659000Y-40640000D01*
X111689000Y-54610000D02*
X111689000Y-40640000D01*
X111874000Y-39825000D02*
X110874000Y-39825000D01*
X111874000Y-55425000D02*
X110874000Y-55425000D01*
X112174000Y-40125000D02*
X111174000Y-40125000D01*
X112174000Y-55200000D02*
X111174000Y-55200000D01*
X113814000Y-40625000D02*
X113814000Y-38625000D01*
X117774000Y-54610000D02*
X111689000Y-54610000D01*
X118674000Y-38625000D02*
X113814000Y-38625000D01*
X125174000Y-40125000D02*
X126174000Y-40125000D01*
X125174000Y-55200000D02*
X126174000Y-55200000D01*
X125474000Y-39825000D02*
X126474000Y-39825000D01*
X125474000Y-55425000D02*
X126474000Y-55425000D01*
X125659000Y-40640000D02*
X125659000Y-54610000D01*
X125659000Y-54610000D02*
X119574000Y-54610000D01*
X126174000Y-41125000D02*
X126174000Y-40125000D01*
X126174000Y-54200000D02*
X126174000Y-55200000D01*
X126474000Y-40825000D02*
X126474000Y-39825000D01*
X126474000Y-54425000D02*
X126474000Y-55425000D01*
%TO.C,SW26*%
X68011500Y-78925000D02*
X68011500Y-77925000D01*
X68011500Y-92525000D02*
X68011500Y-93525000D01*
X68311500Y-79225000D02*
X68311500Y-78225000D01*
X68311500Y-92300000D02*
X68311500Y-93300000D01*
X68826500Y-78740000D02*
X82796500Y-78740000D01*
X68826500Y-92710000D02*
X68826500Y-78740000D01*
X69011500Y-77925000D02*
X68011500Y-77925000D01*
X69011500Y-93525000D02*
X68011500Y-93525000D01*
X69311500Y-78225000D02*
X68311500Y-78225000D01*
X69311500Y-93300000D02*
X68311500Y-93300000D01*
X70951500Y-78725000D02*
X70951500Y-76725000D01*
X74911500Y-92710000D02*
X68826500Y-92710000D01*
X75811500Y-76725000D02*
X70951500Y-76725000D01*
X82311500Y-78225000D02*
X83311500Y-78225000D01*
X82311500Y-93300000D02*
X83311500Y-93300000D01*
X82611500Y-77925000D02*
X83611500Y-77925000D01*
X82611500Y-93525000D02*
X83611500Y-93525000D01*
X82796500Y-78740000D02*
X82796500Y-92710000D01*
X82796500Y-92710000D02*
X76711500Y-92710000D01*
X83311500Y-79225000D02*
X83311500Y-78225000D01*
X83311500Y-92300000D02*
X83311500Y-93300000D01*
X83611500Y-78925000D02*
X83611500Y-77925000D01*
X83611500Y-92525000D02*
X83611500Y-93525000D01*
%TO.C,SW12*%
X120399000Y-21775000D02*
X120399000Y-20775000D01*
X120399000Y-35375000D02*
X120399000Y-36375000D01*
X120699000Y-22075000D02*
X120699000Y-21075000D01*
X120699000Y-35150000D02*
X120699000Y-36150000D01*
X121214000Y-21590000D02*
X135184000Y-21590000D01*
X121214000Y-35560000D02*
X121214000Y-21590000D01*
X121399000Y-20775000D02*
X120399000Y-20775000D01*
X121399000Y-36375000D02*
X120399000Y-36375000D01*
X121699000Y-21075000D02*
X120699000Y-21075000D01*
X121699000Y-36150000D02*
X120699000Y-36150000D01*
X123339000Y-21575000D02*
X123339000Y-19575000D01*
X127299000Y-35560000D02*
X121214000Y-35560000D01*
X128199000Y-19575000D02*
X123339000Y-19575000D01*
X134699000Y-21075000D02*
X135699000Y-21075000D01*
X134699000Y-36150000D02*
X135699000Y-36150000D01*
X134999000Y-20775000D02*
X135999000Y-20775000D01*
X134999000Y-36375000D02*
X135999000Y-36375000D01*
X135184000Y-21590000D02*
X135184000Y-35560000D01*
X135184000Y-35560000D02*
X129099000Y-35560000D01*
X135699000Y-22075000D02*
X135699000Y-21075000D01*
X135699000Y-35150000D02*
X135699000Y-36150000D01*
X135999000Y-21775000D02*
X135999000Y-20775000D01*
X135999000Y-35375000D02*
X135999000Y-36375000D01*
%TO.C,SW2*%
X44199000Y-2725000D02*
X44199000Y-1725000D01*
X44199000Y-16325000D02*
X44199000Y-17325000D01*
X44499000Y-3025000D02*
X44499000Y-2025000D01*
X44499000Y-16100000D02*
X44499000Y-17100000D01*
X45014000Y-2540000D02*
X58984000Y-2540000D01*
X45014000Y-16510000D02*
X45014000Y-2540000D01*
X45199000Y-1725000D02*
X44199000Y-1725000D01*
X45199000Y-17325000D02*
X44199000Y-17325000D01*
X45499000Y-2025000D02*
X44499000Y-2025000D01*
X45499000Y-17100000D02*
X44499000Y-17100000D01*
X47139000Y-2525000D02*
X47139000Y-525000D01*
X51099000Y-16510000D02*
X45014000Y-16510000D01*
X51999000Y-525000D02*
X47139000Y-525000D01*
X58499000Y-2025000D02*
X59499000Y-2025000D01*
X58499000Y-17100000D02*
X59499000Y-17100000D01*
X58799000Y-1725000D02*
X59799000Y-1725000D01*
X58799000Y-17325000D02*
X59799000Y-17325000D01*
X58984000Y-2540000D02*
X58984000Y-16510000D01*
X58984000Y-16510000D02*
X52899000Y-16510000D01*
X59499000Y-3025000D02*
X59499000Y-2025000D01*
X59499000Y-16100000D02*
X59499000Y-17100000D01*
X59799000Y-2725000D02*
X59799000Y-1725000D01*
X59799000Y-16325000D02*
X59799000Y-17325000D01*
%TO.C,SW6*%
X120399000Y-2725000D02*
X120399000Y-1725000D01*
X120399000Y-16325000D02*
X120399000Y-17325000D01*
X120699000Y-3025000D02*
X120699000Y-2025000D01*
X120699000Y-16100000D02*
X120699000Y-17100000D01*
X121214000Y-2540000D02*
X135184000Y-2540000D01*
X121214000Y-16510000D02*
X121214000Y-2540000D01*
X121399000Y-1725000D02*
X120399000Y-1725000D01*
X121399000Y-17325000D02*
X120399000Y-17325000D01*
X121699000Y-2025000D02*
X120699000Y-2025000D01*
X121699000Y-17100000D02*
X120699000Y-17100000D01*
X123339000Y-2525000D02*
X123339000Y-525000D01*
X127299000Y-16510000D02*
X121214000Y-16510000D01*
X128199000Y-525000D02*
X123339000Y-525000D01*
X134699000Y-2025000D02*
X135699000Y-2025000D01*
X134699000Y-17100000D02*
X135699000Y-17100000D01*
X134999000Y-1725000D02*
X135999000Y-1725000D01*
X134999000Y-17325000D02*
X135999000Y-17325000D01*
X135184000Y-2540000D02*
X135184000Y-16510000D01*
X135184000Y-16510000D02*
X129099000Y-16510000D01*
X135699000Y-3025000D02*
X135699000Y-2025000D01*
X135699000Y-16100000D02*
X135699000Y-17100000D01*
X135999000Y-2725000D02*
X135999000Y-1725000D01*
X135999000Y-16325000D02*
X135999000Y-17325000D01*
%TO.C,SW5*%
X101349000Y-2725000D02*
X101349000Y-1725000D01*
X101349000Y-16325000D02*
X101349000Y-17325000D01*
X101649000Y-3025000D02*
X101649000Y-2025000D01*
X101649000Y-16100000D02*
X101649000Y-17100000D01*
X102164000Y-2540000D02*
X116134000Y-2540000D01*
X102164000Y-16510000D02*
X102164000Y-2540000D01*
X102349000Y-1725000D02*
X101349000Y-1725000D01*
X102349000Y-17325000D02*
X101349000Y-17325000D01*
X102649000Y-2025000D02*
X101649000Y-2025000D01*
X102649000Y-17100000D02*
X101649000Y-17100000D01*
X104289000Y-2525000D02*
X104289000Y-525000D01*
X108249000Y-16510000D02*
X102164000Y-16510000D01*
X109149000Y-525000D02*
X104289000Y-525000D01*
X115649000Y-2025000D02*
X116649000Y-2025000D01*
X115649000Y-17100000D02*
X116649000Y-17100000D01*
X115949000Y-1725000D02*
X116949000Y-1725000D01*
X115949000Y-17325000D02*
X116949000Y-17325000D01*
X116134000Y-2540000D02*
X116134000Y-16510000D01*
X116134000Y-16510000D02*
X110049000Y-16510000D01*
X116649000Y-3025000D02*
X116649000Y-2025000D01*
X116649000Y-16100000D02*
X116649000Y-17100000D01*
X116949000Y-2725000D02*
X116949000Y-1725000D01*
X116949000Y-16325000D02*
X116949000Y-17325000D01*
%TO.C,SW24*%
X134686500Y-59875000D02*
X134686500Y-58875000D01*
X134686500Y-73475000D02*
X134686500Y-74475000D01*
X134986500Y-60175000D02*
X134986500Y-59175000D01*
X134986500Y-73250000D02*
X134986500Y-74250000D01*
X135501500Y-59690000D02*
X149471500Y-59690000D01*
X135501500Y-73660000D02*
X135501500Y-59690000D01*
X135686500Y-58875000D02*
X134686500Y-58875000D01*
X135686500Y-74475000D02*
X134686500Y-74475000D01*
X135986500Y-59175000D02*
X134986500Y-59175000D01*
X135986500Y-74250000D02*
X134986500Y-74250000D01*
X137626500Y-59675000D02*
X137626500Y-57675000D01*
X141586500Y-73660000D02*
X135501500Y-73660000D01*
X142486500Y-57675000D02*
X137626500Y-57675000D01*
X148986500Y-59175000D02*
X149986500Y-59175000D01*
X148986500Y-74250000D02*
X149986500Y-74250000D01*
X149286500Y-58875000D02*
X150286500Y-58875000D01*
X149286500Y-74475000D02*
X150286500Y-74475000D01*
X149471500Y-59690000D02*
X149471500Y-73660000D01*
X149471500Y-73660000D02*
X143386500Y-73660000D01*
X149986500Y-60175000D02*
X149986500Y-59175000D01*
X149986500Y-73250000D02*
X149986500Y-74250000D01*
X150286500Y-59875000D02*
X150286500Y-58875000D01*
X150286500Y-73475000D02*
X150286500Y-74475000D01*
D11*
%TO.C,U1*%
X2850000Y-1270000D02*
X22154000Y-1270000D01*
X2850000Y-35560000D02*
X2850000Y-1270000D01*
D13*
X5644000Y-3809996D02*
X5644000Y-34289996D01*
D11*
X7930000Y-3810000D02*
X7930000Y-1270000D01*
X17074000Y-3810000D02*
X17074000Y-1270000D01*
D13*
X20884000Y-34289996D02*
X20884000Y-3809996D01*
D11*
X22154000Y-35560000D02*
X2850000Y-35560000D01*
X22154000Y-35560000D02*
X22154000Y-1270000D01*
D12*
%TO.C,SW31*%
X46580250Y-97975000D02*
X46580250Y-96975000D01*
X46580250Y-111575000D02*
X46580250Y-112575000D01*
X46880250Y-98275000D02*
X46880250Y-97275000D01*
X46880250Y-111350000D02*
X46880250Y-112350000D01*
X47395250Y-97790000D02*
X61365250Y-97790000D01*
X47395250Y-111760000D02*
X47395250Y-97790000D01*
X47580250Y-96975000D02*
X46580250Y-96975000D01*
X47580250Y-112575000D02*
X46580250Y-112575000D01*
X47880250Y-97275000D02*
X46880250Y-97275000D01*
X47880250Y-112350000D02*
X46880250Y-112350000D01*
X49520250Y-97775000D02*
X49520250Y-95775000D01*
X53480250Y-111760000D02*
X47395250Y-111760000D01*
X54380250Y-95775000D02*
X49520250Y-95775000D01*
X60880250Y-97275000D02*
X61880250Y-97275000D01*
X60880250Y-112350000D02*
X61880250Y-112350000D01*
X61180250Y-96975000D02*
X62180250Y-96975000D01*
X61180250Y-112575000D02*
X62180250Y-112575000D01*
X61365250Y-97790000D02*
X61365250Y-111760000D01*
X61365250Y-111760000D02*
X55280250Y-111760000D01*
X61880250Y-98275000D02*
X61880250Y-97275000D01*
X61880250Y-111350000D02*
X61880250Y-112350000D01*
X62180250Y-97975000D02*
X62180250Y-96975000D01*
X62180250Y-111575000D02*
X62180250Y-112575000D01*
%TO.C,SW22*%
X96586500Y-59875000D02*
X96586500Y-58875000D01*
X96586500Y-73475000D02*
X96586500Y-74475000D01*
X96886500Y-60175000D02*
X96886500Y-59175000D01*
X96886500Y-73250000D02*
X96886500Y-74250000D01*
X97401500Y-59690000D02*
X111371500Y-59690000D01*
X97401500Y-73660000D02*
X97401500Y-59690000D01*
X97586500Y-58875000D02*
X96586500Y-58875000D01*
X97586500Y-74475000D02*
X96586500Y-74475000D01*
X97886500Y-59175000D02*
X96886500Y-59175000D01*
X97886500Y-74250000D02*
X96886500Y-74250000D01*
X99526500Y-59675000D02*
X99526500Y-57675000D01*
X103486500Y-73660000D02*
X97401500Y-73660000D01*
X104386500Y-57675000D02*
X99526500Y-57675000D01*
X110886500Y-59175000D02*
X111886500Y-59175000D01*
X110886500Y-74250000D02*
X111886500Y-74250000D01*
X111186500Y-58875000D02*
X112186500Y-58875000D01*
X111186500Y-74475000D02*
X112186500Y-74475000D01*
X111371500Y-59690000D02*
X111371500Y-73660000D01*
X111371500Y-73660000D02*
X105286500Y-73660000D01*
X111886500Y-60175000D02*
X111886500Y-59175000D01*
X111886500Y-73250000D02*
X111886500Y-74250000D01*
X112186500Y-59875000D02*
X112186500Y-58875000D01*
X112186500Y-73475000D02*
X112186500Y-74475000D01*
%TO.C,SW1*%
X25149000Y-2725000D02*
X25149000Y-1725000D01*
X25149000Y-16325000D02*
X25149000Y-17325000D01*
X25449000Y-3025000D02*
X25449000Y-2025000D01*
X25449000Y-16100000D02*
X25449000Y-17100000D01*
X25964000Y-2540000D02*
X39934000Y-2540000D01*
X25964000Y-16510000D02*
X25964000Y-2540000D01*
X26149000Y-1725000D02*
X25149000Y-1725000D01*
X26149000Y-17325000D02*
X25149000Y-17325000D01*
X26449000Y-2025000D02*
X25449000Y-2025000D01*
X26449000Y-17100000D02*
X25449000Y-17100000D01*
X28089000Y-2525000D02*
X28089000Y-525000D01*
X32049000Y-16510000D02*
X25964000Y-16510000D01*
X32949000Y-525000D02*
X28089000Y-525000D01*
X39449000Y-2025000D02*
X40449000Y-2025000D01*
X39449000Y-17100000D02*
X40449000Y-17100000D01*
X39749000Y-1725000D02*
X40749000Y-1725000D01*
X39749000Y-17325000D02*
X40749000Y-17325000D01*
X39934000Y-2540000D02*
X39934000Y-16510000D01*
X39934000Y-16510000D02*
X33849000Y-16510000D01*
X40449000Y-3025000D02*
X40449000Y-2025000D01*
X40449000Y-16100000D02*
X40449000Y-17100000D01*
X40749000Y-2725000D02*
X40749000Y-1725000D01*
X40749000Y-16325000D02*
X40749000Y-17325000D01*
%TO.C,SW13*%
X29911500Y-40825000D02*
X29911500Y-39825000D01*
X29911500Y-54425000D02*
X29911500Y-55425000D01*
X30211500Y-41125000D02*
X30211500Y-40125000D01*
X30211500Y-54200000D02*
X30211500Y-55200000D01*
X30726500Y-40640000D02*
X44696500Y-40640000D01*
X30726500Y-54610000D02*
X30726500Y-40640000D01*
X30911500Y-39825000D02*
X29911500Y-39825000D01*
X30911500Y-55425000D02*
X29911500Y-55425000D01*
X31211500Y-40125000D02*
X30211500Y-40125000D01*
X31211500Y-55200000D02*
X30211500Y-55200000D01*
X32851500Y-40625000D02*
X32851500Y-38625000D01*
X36811500Y-54610000D02*
X30726500Y-54610000D01*
X37711500Y-38625000D02*
X32851500Y-38625000D01*
X44211500Y-40125000D02*
X45211500Y-40125000D01*
X44211500Y-55200000D02*
X45211500Y-55200000D01*
X44511500Y-39825000D02*
X45511500Y-39825000D01*
X44511500Y-55425000D02*
X45511500Y-55425000D01*
X44696500Y-40640000D02*
X44696500Y-54610000D01*
X44696500Y-54610000D02*
X38611500Y-54610000D01*
X45211500Y-41125000D02*
X45211500Y-40125000D01*
X45211500Y-54200000D02*
X45211500Y-55200000D01*
X45511500Y-40825000D02*
X45511500Y-39825000D01*
X45511500Y-54425000D02*
X45511500Y-55425000D01*
%TO.C,SW16*%
X91824000Y-40825000D02*
X91824000Y-39825000D01*
X91824000Y-54425000D02*
X91824000Y-55425000D01*
X92124000Y-41125000D02*
X92124000Y-40125000D01*
X92124000Y-54200000D02*
X92124000Y-55200000D01*
X92639000Y-40640000D02*
X106609000Y-40640000D01*
X92639000Y-54610000D02*
X92639000Y-40640000D01*
X92824000Y-39825000D02*
X91824000Y-39825000D01*
X92824000Y-55425000D02*
X91824000Y-55425000D01*
X93124000Y-40125000D02*
X92124000Y-40125000D01*
X93124000Y-55200000D02*
X92124000Y-55200000D01*
X94764000Y-40625000D02*
X94764000Y-38625000D01*
X98724000Y-54610000D02*
X92639000Y-54610000D01*
X99624000Y-38625000D02*
X94764000Y-38625000D01*
X106124000Y-40125000D02*
X107124000Y-40125000D01*
X106124000Y-55200000D02*
X107124000Y-55200000D01*
X106424000Y-39825000D02*
X107424000Y-39825000D01*
X106424000Y-55425000D02*
X107424000Y-55425000D01*
X106609000Y-40640000D02*
X106609000Y-54610000D01*
X106609000Y-54610000D02*
X100524000Y-54610000D01*
X107124000Y-41125000D02*
X107124000Y-40125000D01*
X107124000Y-54200000D02*
X107124000Y-55200000D01*
X107424000Y-40825000D02*
X107424000Y-39825000D01*
X107424000Y-54425000D02*
X107424000Y-55425000D01*
%TO.C,SW23*%
X115636500Y-59875000D02*
X115636500Y-58875000D01*
X115636500Y-73475000D02*
X115636500Y-74475000D01*
X115936500Y-60175000D02*
X115936500Y-59175000D01*
X115936500Y-73250000D02*
X115936500Y-74250000D01*
X116451500Y-59690000D02*
X130421500Y-59690000D01*
X116451500Y-73660000D02*
X116451500Y-59690000D01*
X116636500Y-58875000D02*
X115636500Y-58875000D01*
X116636500Y-74475000D02*
X115636500Y-74475000D01*
X116936500Y-59175000D02*
X115936500Y-59175000D01*
X116936500Y-74250000D02*
X115936500Y-74250000D01*
X118576500Y-59675000D02*
X118576500Y-57675000D01*
X122536500Y-73660000D02*
X116451500Y-73660000D01*
X123436500Y-57675000D02*
X118576500Y-57675000D01*
X129936500Y-59175000D02*
X130936500Y-59175000D01*
X129936500Y-74250000D02*
X130936500Y-74250000D01*
X130236500Y-58875000D02*
X131236500Y-58875000D01*
X130236500Y-74475000D02*
X131236500Y-74475000D01*
X130421500Y-59690000D02*
X130421500Y-73660000D01*
X130421500Y-73660000D02*
X124336500Y-73660000D01*
X130936500Y-60175000D02*
X130936500Y-59175000D01*
X130936500Y-73250000D02*
X130936500Y-74250000D01*
X131236500Y-59875000D02*
X131236500Y-58875000D01*
X131236500Y-73475000D02*
X131236500Y-74475000D01*
%TO.C,SW19*%
X32292750Y-59875000D02*
X32292750Y-58875000D01*
X32292750Y-73475000D02*
X32292750Y-74475000D01*
X32592750Y-60175000D02*
X32592750Y-59175000D01*
X32592750Y-73250000D02*
X32592750Y-74250000D01*
X33107750Y-59690000D02*
X47077750Y-59690000D01*
X33107750Y-73660000D02*
X33107750Y-59690000D01*
X33292750Y-58875000D02*
X32292750Y-58875000D01*
X33292750Y-74475000D02*
X32292750Y-74475000D01*
X33592750Y-59175000D02*
X32592750Y-59175000D01*
X33592750Y-74250000D02*
X32592750Y-74250000D01*
X35232750Y-59675000D02*
X35232750Y-57675000D01*
X39192750Y-73660000D02*
X33107750Y-73660000D01*
X40092750Y-57675000D02*
X35232750Y-57675000D01*
X46592750Y-59175000D02*
X47592750Y-59175000D01*
X46592750Y-74250000D02*
X47592750Y-74250000D01*
X46892750Y-58875000D02*
X47892750Y-58875000D01*
X46892750Y-74475000D02*
X47892750Y-74475000D01*
X47077750Y-59690000D02*
X47077750Y-73660000D01*
X47077750Y-73660000D02*
X40992750Y-73660000D01*
X47592750Y-60175000D02*
X47592750Y-59175000D01*
X47592750Y-73250000D02*
X47592750Y-74250000D01*
X47892750Y-59875000D02*
X47892750Y-58875000D01*
X47892750Y-73475000D02*
X47892750Y-74475000D01*
%TO.C,SW7*%
X25149000Y-21775000D02*
X25149000Y-20775000D01*
X25149000Y-35375000D02*
X25149000Y-36375000D01*
X25449000Y-22075000D02*
X25449000Y-21075000D01*
X25449000Y-35150000D02*
X25449000Y-36150000D01*
X25964000Y-21590000D02*
X39934000Y-21590000D01*
X25964000Y-35560000D02*
X25964000Y-21590000D01*
X26149000Y-20775000D02*
X25149000Y-20775000D01*
X26149000Y-36375000D02*
X25149000Y-36375000D01*
X26449000Y-21075000D02*
X25449000Y-21075000D01*
X26449000Y-36150000D02*
X25449000Y-36150000D01*
X28089000Y-21575000D02*
X28089000Y-19575000D01*
X32049000Y-35560000D02*
X25964000Y-35560000D01*
X32949000Y-19575000D02*
X28089000Y-19575000D01*
X39449000Y-21075000D02*
X40449000Y-21075000D01*
X39449000Y-36150000D02*
X40449000Y-36150000D01*
X39749000Y-20775000D02*
X40749000Y-20775000D01*
X39749000Y-36375000D02*
X40749000Y-36375000D01*
X39934000Y-21590000D02*
X39934000Y-35560000D01*
X39934000Y-35560000D02*
X33849000Y-35560000D01*
X40449000Y-22075000D02*
X40449000Y-21075000D01*
X40449000Y-35150000D02*
X40449000Y-36150000D01*
X40749000Y-21775000D02*
X40749000Y-20775000D01*
X40749000Y-35375000D02*
X40749000Y-36375000D01*
%TD*%
M02*
