  0
SECTION
  2
HEADER
  9
$ANGBASE
  50
0.0
  9
$ANGDIR
  70
1
  9
$MEASUREMENT
  70
0
  0
ENDSEC
  0
SECTION
  2
TABLES
  0
TABLE
  2
LTYPE
  70
4
  0
LTYPE
  5
40F
  2
CONTINUOUS
  70
0
  3
Solid line
  72
65
  73
0
  40
0.0
  0
LTYPE
  5
410
  2
DASHDOT
 70
0
  3
Dash Dot ____ _ ____ _
 72
65
 73
4
 40
2.0
 49
1.25
 49
-0.25
 49
0.25
 49
-0.25
  0
LTYPE
  5
411
  2
DASHED
 70
0
  3
Dashed __ __ __ __ __
 72
65
 73
2
 40
0.75
 49
0.5
 49
-0.25
  0
LTYPE
  5
43B
  2
DOTTED
 70
0
  3
Dotted .  .  .  .
 72
65
 73
2
 40
0.2
 49
0.0
 49
-0.2
  0
ENDTAB
  0
TABLE
  2
STYLE
  70
4
  0
STYLE
  2
KICAD
  70
0
  40
0
  41
1
  42
1
  50
0
  71
0
  3
isocp.shx
  0
STYLE
  2
KICADB
  70
0
  40
0
  41
1
  42
1
  50
0
  71
0
  3
isocp.shx
  0
STYLE
  2
KICADI
  70
0
  40
0
  41
1
  42
1
  50
15
  71
0
  3
isocp.shx
  0
STYLE
  2
KICADBI
  70
0
  40
0
  41
1
  42
1
  50
15
  71
0
  3
isocp.shx
  0
ENDTAB
  0
TABLE
  2
LAYER
  70
1
  0
LAYER
  2
BLACK
  70
0
  62
7
  6
CONTINUOUS
  0
ENDTAB
  0
ENDSEC
  0
SECTION
  2
ENTITIES
0
LINE
8
BLACK
6
CONTINUOUS
10
5.6097047244094487
20
-3.0787401574803148
11
5.6097047244094487
21
-3.6712598425196847
0
LINE
8
BLACK
6
CONTINUOUS
10
5.9059645669291339
20
-2.25
11
5.8759448818897635
21
-2.25
0
ARC
8
BLACK
10
5.3434645669291339
20
-0.078740157480315
40
0.078740157480315
50
0.00000000
51
90.00000000
0
LINE
8
BLACK
6
CONTINUOUS
10
1.0009448818897637
20
-4.5
11
5.9059645669291339
21
-4.5
0
ARC
8
BLACK
10
5.9059645669291339
20
-4.4212598425196852
40
0.078740157480315
50
-90.00000000
51
-0.00000000
0
ARC
8
BLACK
10
0.8434645669291339
20
-3.188976377952756
40
0.078740157480315
50
0.00000000
51
90.00000000
0
LINE
8
BLACK
6
CONTINUOUS
10
0.9222047244094488
20
-4.4212598425196852
11
0.9222047244094488
21
-3.188976377952756
0
ARC
8
BLACK
10
5.8759448818897635
20
-2.1712598425196852
40
0.078740157480315
50
-180.00000000
51
-90.00000000
0
ARC
8
BLACK
10
5.6884448818897635
20
-3.0787401574803148
40
0.078740157480315
50
90.00000000
51
180.00000000
0
ARC
8
BLACK
10
5.9059645669291339
20
-2.3287401574803148
40
0.078740157480315
50
0.00000000
51
90.00000000
0
LINE
8
BLACK
6
CONTINUOUS
10
0.078740157480315
20
-3.1102362204724407
11
0.8434645669291339
21
-3.1102362204724407
0
ARC
8
BLACK
10
5.6884448818897635
20
-3.6712598425196847
40
0.078740157480315
50
-180.00000000
51
-90.00000000
0
LINE
8
BLACK
6
CONTINUOUS
10
5.9847047244094487
20
-3.8287401574803148
11
5.9847047244094487
21
-4.4212598425196852
0
LINE
8
BLACK
6
CONTINUOUS
10
5.4222047244094487
20
-0.078740157480315
11
5.4222047244094487
21
-1.421259842519685
0
LINE
8
BLACK
6
CONTINUOUS
10
5.9059645669291339
20
-3.
11
5.6884448818897635
21
-3.
0
ARC
8
BLACK
10
0.078740157480315
20
-0.078740157480315
40
0.078740157480315
50
90.00000000
51
180.00000000
0
ARC
8
BLACK
10
1.0009448818897637
20
-4.4212598425196852
40
0.078740157480315
50
-180.00000000
51
-90.00000000
0
LINE
8
BLACK
6
CONTINUOUS
10
5.7972047244094487
20
-1.5787401574803148
11
5.7972047244094487
21
-2.1712598425196852
0
LINE
8
BLACK
6
CONTINUOUS
10
5.5009448818897635
20
-1.5
11
5.7184645669291339
21
-1.5
0
LINE
8
BLACK
6
CONTINUOUS
10
0.
20
-0.078740157480315
11
0.
21
-3.0314960629921259
0
LINE
8
BLACK
6
CONTINUOUS
10
5.9847047244094487
20
-2.3287401574803148
11
5.9847047244094487
21
-2.9212598425196852
0
ARC
8
BLACK
10
5.9059645669291339
20
-3.8287401574803148
40
0.078740157480315
50
0.00000000
51
90.00000000
0
ARC
8
BLACK
10
0.078740157480315
20
-3.0314960629921259
40
0.078740157480315
50
-180.00000000
51
-90.00000000
0
ARC
8
BLACK
10
5.5009448818897635
20
-1.421259842519685
40
0.078740157480315
50
-180.00000000
51
-90.00000000
0
LINE
8
BLACK
6
CONTINUOUS
10
5.3434645669291339
20
0.
11
0.078740157480315
21
0.
0
LINE
8
BLACK
6
CONTINUOUS
10
5.6884448818897635
20
-3.75
11
5.9059645669291339
21
-3.75
0
ARC
8
BLACK
10
5.7184645669291339
20
-1.5787401574803148
40
0.078740157480315
50
0.00000000
51
90.00000000
0
ARC
8
BLACK
10
5.9059645669291339
20
-2.9212598425196852
40
0.078740157480315
50
-90.00000000
51
-0.00000000
0
LINE
8
BLACK
6
CONTINUOUS
10
0.2362204724409449
20
-2.9921259842519685
11
0.2362204724409449
21
-1.7322834645669292
0
LINE
8
BLACK
6
CONTINUOUS
10
0.2559055118110236
20
-1.7125984251968505
11
1.0629921259842519
21
-1.7125984251968505
0
LINE
8
BLACK
6
CONTINUOUS
10
1.0629921259842519
20
-3.0118110236220472
11
0.2559055118110236
21
-3.0118110236220472
0
LINE
8
BLACK
6
CONTINUOUS
10
1.0826771653543308
20
-1.7322834645669292
11
1.0826771653543308
21
-2.9921259842519685
0
ARC
8
BLACK
10
0.2559055118110236
20
-1.7322834645669292
40
0.0196850393700787
50
90.00000000
51
180.00000000
0
ARC
8
BLACK
10
0.2559055118110236
20
-2.9921259842519685
40
0.0196850393700787
50
-180.00000000
51
-90.00000000
0
ARC
8
BLACK
10
1.0629921259842519
20
-1.7322834645669292
40
0.0196850393700787
50
0.00000000
51
90.00000000
0
ARC
8
BLACK
10
1.0629921259842519
20
-2.9921259842519685
40
0.0196850393700787
50
-90.00000000
51
-0.00000000
  0
ENDSEC
  0
EOF
