  0
SECTION
  2
HEADER
  9
$ANGBASE
  50
0.0
  9
$ANGDIR
  70
1
  9
$MEASUREMENT
  70
0
  0
ENDSEC
  0
SECTION
  2
TABLES
  0
TABLE
  2
LTYPE
  70
4
  0
LTYPE
  5
40F
  2
CONTINUOUS
  70
0
  3
Solid line
  72
65
  73
0
  40
0.0
  0
LTYPE
  5
410
  2
DASHDOT
 70
0
  3
Dash Dot ____ _ ____ _
 72
65
 73
4
 40
2.0
 49
1.25
 49
-0.25
 49
0.25
 49
-0.25
  0
LTYPE
  5
411
  2
DASHED
 70
0
  3
Dashed __ __ __ __ __
 72
65
 73
2
 40
0.75
 49
0.5
 49
-0.25
  0
LTYPE
  5
43B
  2
DOTTED
 70
0
  3
Dotted .  .  .  .
 72
65
 73
2
 40
0.2
 49
0.0
 49
-0.2
  0
ENDTAB
  0
TABLE
  2
STYLE
  70
4
  0
STYLE
  2
KICAD
  70
0
  40
0
  41
1
  42
1
  50
0
  71
0
  3
isocp.shx
  0
STYLE
  2
KICADB
  70
0
  40
0
  41
1
  42
1
  50
0
  71
0
  3
isocp.shx
  0
STYLE
  2
KICADI
  70
0
  40
0
  41
1
  42
1
  50
15
  71
0
  3
isocp.shx
  0
STYLE
  2
KICADBI
  70
0
  40
0
  41
1
  42
1
  50
15
  71
0
  3
isocp.shx
  0
ENDTAB
  0
TABLE
  2
LAYER
  70
1
  0
LAYER
  2
BLACK
  70
0
  62
7
  6
CONTINUOUS
  0
ENDTAB
  0
ENDSEC
  0
SECTION
  2
ENTITIES
0
LINE
8
BLACK
6
CONTINUOUS
10
2.7438090551181102
20
-3.9675196850393699
11
2.7438090551181102
21
-3.7903543307086611
0
LINE
8
BLACK
6
CONTINUOUS
10
2.7438090551181102
20
-4.2824803149606296
11
2.7438090551181102
21
-4.4596456692913389
0
LINE
8
BLACK
6
CONTINUOUS
10
2.8028641732283464
20
-3.8494094488188977
11
2.8028641732283464
21
-3.9675196850393699
0
LINE
8
BLACK
6
CONTINUOUS
10
2.8028641732283464
20
-3.8494094488188977
11
2.8816043307086612
21
-3.8494094488188977
0
LINE
8
BLACK
6
CONTINUOUS
10
2.8028641732283464
20
-3.9675196850393699
11
2.7438090551181102
21
-3.9675196850393699
0
LINE
8
BLACK
6
CONTINUOUS
10
2.8028641732283464
20
-4.2824803149606296
11
2.7438090551181102
21
-4.2824803149606296
0
LINE
8
BLACK
6
CONTINUOUS
10
2.8028641732283464
20
-4.4005905511811019
11
2.8028641732283464
21
-4.2824803149606296
0
LINE
8
BLACK
6
CONTINUOUS
10
2.8028641732283464
20
-4.4005905511811019
11
2.920974409448819
21
-4.4005905511811019
0
LINE
8
BLACK
6
CONTINUOUS
10
2.8816043307086612
20
-3.7903543307086611
11
2.7438090551181102
21
-3.7903543307086611
0
LINE
8
BLACK
6
CONTINUOUS
10
2.8816043307086612
20
-3.8494094488188977
11
2.8816043307086612
21
-3.7903543307086611
0
LINE
8
BLACK
6
CONTINUOUS
10
2.920974409448819
20
-4.4005905511811019
11
2.920974409448819
21
-4.4596456692913389
0
LINE
8
BLACK
6
CONTINUOUS
10
2.920974409448819
20
-4.4596456692913389
11
2.7438090551181102
21
-4.4596456692913389
0
LINE
8
BLACK
6
CONTINUOUS
10
3.2359350393700788
20
-4.4005905511811019
11
3.2359350393700788
21
-4.4596456692913389
0
LINE
8
BLACK
6
CONTINUOUS
10
3.2359350393700788
20
-4.4596456692913389
11
3.4131003937007871
21
-4.4596456692913389
0
LINE
8
BLACK
6
CONTINUOUS
10
3.2753051181102362
20
-3.7903543307086611
11
3.4131003937007871
21
-3.7903543307086611
0
LINE
8
BLACK
6
CONTINUOUS
10
3.2753051181102362
20
-3.8494094488188977
11
3.2753051181102362
21
-3.7903543307086611
0
LINE
8
BLACK
6
CONTINUOUS
10
3.354045275590551
20
-3.8494094488188977
11
3.2753051181102362
21
-3.8494094488188977
0
LINE
8
BLACK
6
CONTINUOUS
10
3.354045275590551
20
-3.8494094488188977
11
3.354045275590551
21
-3.9675196850393699
0
LINE
8
BLACK
6
CONTINUOUS
10
3.354045275590551
20
-3.9675196850393699
11
3.4131003937007871
21
-3.9675196850393699
0
LINE
8
BLACK
6
CONTINUOUS
10
3.354045275590551
20
-4.2824803149606296
11
3.4131003937007871
21
-4.2824803149606296
0
LINE
8
BLACK
6
CONTINUOUS
10
3.354045275590551
20
-4.4005905511811019
11
3.2359350393700788
21
-4.4005905511811019
0
LINE
8
BLACK
6
CONTINUOUS
10
3.354045275590551
20
-4.4005905511811019
11
3.354045275590551
21
-4.2824803149606296
0
LINE
8
BLACK
6
CONTINUOUS
10
3.4131003937007871
20
-3.9675196850393699
11
3.4131003937007871
21
-3.7903543307086611
0
LINE
8
BLACK
6
CONTINUOUS
10
3.4131003937007871
20
-4.2824803149606296
11
3.4131003937007871
21
-4.4596456692913389
0
LINE
8
BLACK
6
CONTINUOUS
10
4.1500590551181098
20
-3.2175196850393699
11
4.1500590551181098
21
-3.0403543307086616
0
LINE
8
BLACK
6
CONTINUOUS
10
4.1500590551181098
20
-3.5324803149606296
11
4.1500590551181098
21
-3.7096456692913384
0
LINE
8
BLACK
6
CONTINUOUS
10
4.2091141732283468
20
-3.0994094488188977
11
4.2091141732283468
21
-3.2175196850393699
0
LINE
8
BLACK
6
CONTINUOUS
10
4.2091141732283468
20
-3.0994094488188977
11
4.2878543307086616
21
-3.0994094488188977
0
LINE
8
BLACK
6
CONTINUOUS
10
4.2091141732283468
20
-3.2175196850393699
11
4.1500590551181098
21
-3.2175196850393699
0
LINE
8
BLACK
6
CONTINUOUS
10
4.2091141732283468
20
-3.5324803149606296
11
4.1500590551181098
21
-3.5324803149606296
0
LINE
8
BLACK
6
CONTINUOUS
10
4.2091141732283468
20
-3.6505905511811023
11
4.2091141732283468
21
-3.5324803149606296
0
LINE
8
BLACK
6
CONTINUOUS
10
4.2091141732283468
20
-3.6505905511811023
11
4.327224409448819
21
-3.6505905511811023
0
LINE
8
BLACK
6
CONTINUOUS
10
4.2878543307086616
20
-3.0403543307086616
11
4.1500590551181098
21
-3.0403543307086616
0
LINE
8
BLACK
6
CONTINUOUS
10
4.2878543307086616
20
-3.0994094488188977
11
4.2878543307086616
21
-3.0403543307086616
0
LINE
8
BLACK
6
CONTINUOUS
10
4.327224409448819
20
-3.6505905511811023
11
4.327224409448819
21
-3.7096456692913384
0
LINE
8
BLACK
6
CONTINUOUS
10
4.327224409448819
20
-3.7096456692913384
11
4.1500590551181098
21
-3.7096456692913384
0
LINE
8
BLACK
6
CONTINUOUS
10
4.6421850393700783
20
-3.6505905511811023
11
4.6421850393700783
21
-3.7096456692913384
0
LINE
8
BLACK
6
CONTINUOUS
10
4.6421850393700783
20
-3.7096456692913384
11
4.8193503937007875
21
-3.7096456692913384
0
LINE
8
BLACK
6
CONTINUOUS
10
4.6815551181102357
20
-3.0403543307086616
11
4.8193503937007875
21
-3.0403543307086616
0
LINE
8
BLACK
6
CONTINUOUS
10
4.6815551181102357
20
-3.0994094488188977
11
4.6815551181102357
21
-3.0403543307086616
0
LINE
8
BLACK
6
CONTINUOUS
10
4.7602952755905514
20
-3.0994094488188977
11
4.6815551181102357
21
-3.0994094488188977
0
LINE
8
BLACK
6
CONTINUOUS
10
4.7602952755905514
20
-3.0994094488188977
11
4.7602952755905514
21
-3.2175196850393699
0
LINE
8
BLACK
6
CONTINUOUS
10
4.7602952755905514
20
-3.2175196850393699
11
4.8193503937007875
21
-3.2175196850393699
0
LINE
8
BLACK
6
CONTINUOUS
10
4.7602952755905514
20
-3.5324803149606296
11
4.8193503937007875
21
-3.5324803149606296
0
LINE
8
BLACK
6
CONTINUOUS
10
4.7602952755905514
20
-3.6505905511811023
11
4.6421850393700783
21
-3.6505905511811023
0
LINE
8
BLACK
6
CONTINUOUS
10
4.7602952755905514
20
-3.6505905511811023
11
4.7602952755905514
21
-3.5324803149606296
0
LINE
8
BLACK
6
CONTINUOUS
10
4.8193503937007875
20
-3.2175196850393699
11
4.8193503937007875
21
-3.0403543307086616
0
LINE
8
BLACK
6
CONTINUOUS
10
4.8193503937007875
20
-3.5324803149606296
11
4.8193503937007875
21
-3.7096456692913384
0
LINE
8
BLACK
6
CONTINUOUS
10
3.9625590551181102
20
-0.96751968503937
11
3.9625590551181102
21
-0.7903543307086613
0
LINE
8
BLACK
6
CONTINUOUS
10
3.9625590551181102
20
-1.2824803149606299
11
3.9625590551181102
21
-1.4596456692913387
0
LINE
8
BLACK
6
CONTINUOUS
10
4.0216141732283468
20
-0.8494094488188976
11
4.0216141732283468
21
-0.96751968503937
0
LINE
8
BLACK
6
CONTINUOUS
10
4.0216141732283468
20
-0.8494094488188976
11
4.1003543307086616
21
-0.8494094488188976
0
LINE
8
BLACK
6
CONTINUOUS
10
4.0216141732283468
20
-0.96751968503937
11
3.9625590551181102
21
-0.96751968503937
0
LINE
8
BLACK
6
CONTINUOUS
10
4.0216141732283468
20
-1.2824803149606299
11
3.9625590551181102
21
-1.2824803149606299
0
LINE
8
BLACK
6
CONTINUOUS
10
4.0216141732283468
20
-1.4005905511811023
11
4.0216141732283468
21
-1.2824803149606299
0
LINE
8
BLACK
6
CONTINUOUS
10
4.0216141732283468
20
-1.4005905511811023
11
4.139724409448819
21
-1.4005905511811023
0
LINE
8
BLACK
6
CONTINUOUS
10
4.1003543307086616
20
-0.7903543307086613
11
3.9625590551181102
21
-0.7903543307086613
0
LINE
8
BLACK
6
CONTINUOUS
10
4.1003543307086616
20
-0.8494094488188976
11
4.1003543307086616
21
-0.7903543307086613
0
LINE
8
BLACK
6
CONTINUOUS
10
4.139724409448819
20
-1.4005905511811023
11
4.139724409448819
21
-1.4596456692913387
0
LINE
8
BLACK
6
CONTINUOUS
10
4.139724409448819
20
-1.4596456692913387
11
3.9625590551181102
21
-1.4596456692913387
0
LINE
8
BLACK
6
CONTINUOUS
10
4.4546850393700783
20
-1.4005905511811023
11
4.4546850393700783
21
-1.4596456692913387
0
LINE
8
BLACK
6
CONTINUOUS
10
4.4546850393700783
20
-1.4596456692913387
11
4.6318503937007875
21
-1.4596456692913387
0
LINE
8
BLACK
6
CONTINUOUS
10
4.4940551181102357
20
-0.7903543307086613
11
4.6318503937007875
21
-0.7903543307086613
0
LINE
8
BLACK
6
CONTINUOUS
10
4.4940551181102357
20
-0.8494094488188976
11
4.4940551181102357
21
-0.7903543307086613
0
LINE
8
BLACK
6
CONTINUOUS
10
4.5727952755905514
20
-0.8494094488188976
11
4.4940551181102357
21
-0.8494094488188976
0
LINE
8
BLACK
6
CONTINUOUS
10
4.5727952755905514
20
-0.8494094488188976
11
4.5727952755905514
21
-0.96751968503937
0
LINE
8
BLACK
6
CONTINUOUS
10
4.5727952755905514
20
-0.96751968503937
11
4.6318503937007875
21
-0.96751968503937
0
LINE
8
BLACK
6
CONTINUOUS
10
4.5727952755905514
20
-1.2824803149606299
11
4.6318503937007875
21
-1.2824803149606299
0
LINE
8
BLACK
6
CONTINUOUS
10
4.5727952755905514
20
-1.4005905511811023
11
4.4546850393700783
21
-1.4005905511811023
0
LINE
8
BLACK
6
CONTINUOUS
10
4.5727952755905514
20
-1.4005905511811023
11
4.5727952755905514
21
-1.2824803149606299
0
LINE
8
BLACK
6
CONTINUOUS
10
4.6318503937007875
20
-0.96751968503937
11
4.6318503937007875
21
-0.7903543307086613
0
LINE
8
BLACK
6
CONTINUOUS
10
4.6318503937007875
20
-1.2824803149606299
11
4.6318503937007875
21
-1.4596456692913387
0
LINE
8
BLACK
6
CONTINUOUS
10
2.2750590551181102
20
-2.4675196850393699
11
2.2750590551181102
21
-2.2903543307086616
0
LINE
8
BLACK
6
CONTINUOUS
10
2.2750590551181102
20
-2.7824803149606296
11
2.2750590551181102
21
-2.9596456692913384
0
LINE
8
BLACK
6
CONTINUOUS
10
2.3341141732283464
20
-2.3494094488188977
11
2.3341141732283464
21
-2.4675196850393699
0
LINE
8
BLACK
6
CONTINUOUS
10
2.3341141732283464
20
-2.3494094488188977
11
2.4128543307086612
21
-2.3494094488188977
0
LINE
8
BLACK
6
CONTINUOUS
10
2.3341141732283464
20
-2.4675196850393699
11
2.2750590551181102
21
-2.4675196850393699
0
LINE
8
BLACK
6
CONTINUOUS
10
2.3341141732283464
20
-2.7824803149606296
11
2.2750590551181102
21
-2.7824803149606296
0
LINE
8
BLACK
6
CONTINUOUS
10
2.3341141732283464
20
-2.9005905511811023
11
2.3341141732283464
21
-2.7824803149606296
0
LINE
8
BLACK
6
CONTINUOUS
10
2.3341141732283464
20
-2.9005905511811023
11
2.452224409448819
21
-2.9005905511811023
0
LINE
8
BLACK
6
CONTINUOUS
10
2.4128543307086612
20
-2.2903543307086616
11
2.2750590551181102
21
-2.2903543307086616
0
LINE
8
BLACK
6
CONTINUOUS
10
2.4128543307086612
20
-2.3494094488188977
11
2.4128543307086612
21
-2.2903543307086616
0
LINE
8
BLACK
6
CONTINUOUS
10
2.452224409448819
20
-2.9005905511811023
11
2.452224409448819
21
-2.9596456692913384
0
LINE
8
BLACK
6
CONTINUOUS
10
2.452224409448819
20
-2.9596456692913384
11
2.2750590551181102
21
-2.9596456692913384
0
LINE
8
BLACK
6
CONTINUOUS
10
2.7671850393700788
20
-2.9005905511811023
11
2.7671850393700788
21
-2.9596456692913384
0
LINE
8
BLACK
6
CONTINUOUS
10
2.7671850393700788
20
-2.9596456692913384
11
2.9443503937007875
21
-2.9596456692913384
0
LINE
8
BLACK
6
CONTINUOUS
10
2.8065551181102362
20
-2.2903543307086616
11
2.9443503937007875
21
-2.2903543307086616
0
LINE
8
BLACK
6
CONTINUOUS
10
2.8065551181102362
20
-2.3494094488188977
11
2.8065551181102362
21
-2.2903543307086616
0
LINE
8
BLACK
6
CONTINUOUS
10
2.885295275590551
20
-2.3494094488188977
11
2.8065551181102362
21
-2.3494094488188977
0
LINE
8
BLACK
6
CONTINUOUS
10
2.885295275590551
20
-2.3494094488188977
11
2.885295275590551
21
-2.4675196850393699
0
LINE
8
BLACK
6
CONTINUOUS
10
2.885295275590551
20
-2.4675196850393699
11
2.9443503937007875
21
-2.4675196850393699
0
LINE
8
BLACK
6
CONTINUOUS
10
2.885295275590551
20
-2.7824803149606296
11
2.9443503937007875
21
-2.7824803149606296
0
LINE
8
BLACK
6
CONTINUOUS
10
2.885295275590551
20
-2.9005905511811023
11
2.7671850393700788
21
-2.9005905511811023
0
LINE
8
BLACK
6
CONTINUOUS
10
2.885295275590551
20
-2.9005905511811023
11
2.885295275590551
21
-2.7824803149606296
0
LINE
8
BLACK
6
CONTINUOUS
10
2.9443503937007875
20
-2.4675196850393699
11
2.9443503937007875
21
-2.2903543307086616
0
LINE
8
BLACK
6
CONTINUOUS
10
2.9443503937007875
20
-2.7824803149606296
11
2.9443503937007875
21
-2.9596456692913384
0
LINE
8
BLACK
6
CONTINUOUS
10
2.4625590551181102
20
-0.96751968503937
11
2.4625590551181102
21
-0.7903543307086613
0
LINE
8
BLACK
6
CONTINUOUS
10
2.4625590551181102
20
-1.2824803149606299
11
2.4625590551181102
21
-1.4596456692913387
0
LINE
8
BLACK
6
CONTINUOUS
10
2.5216141732283464
20
-0.8494094488188976
11
2.5216141732283464
21
-0.96751968503937
0
LINE
8
BLACK
6
CONTINUOUS
10
2.5216141732283464
20
-0.8494094488188976
11
2.6003543307086612
21
-0.8494094488188976
0
LINE
8
BLACK
6
CONTINUOUS
10
2.5216141732283464
20
-0.96751968503937
11
2.4625590551181102
21
-0.96751968503937
0
LINE
8
BLACK
6
CONTINUOUS
10
2.5216141732283464
20
-1.2824803149606299
11
2.4625590551181102
21
-1.2824803149606299
0
LINE
8
BLACK
6
CONTINUOUS
10
2.5216141732283464
20
-1.4005905511811023
11
2.5216141732283464
21
-1.2824803149606299
0
LINE
8
BLACK
6
CONTINUOUS
10
2.5216141732283464
20
-1.4005905511811023
11
2.639724409448819
21
-1.4005905511811023
0
LINE
8
BLACK
6
CONTINUOUS
10
2.6003543307086612
20
-0.7903543307086613
11
2.4625590551181102
21
-0.7903543307086613
0
LINE
8
BLACK
6
CONTINUOUS
10
2.6003543307086612
20
-0.8494094488188976
11
2.6003543307086612
21
-0.7903543307086613
0
LINE
8
BLACK
6
CONTINUOUS
10
2.639724409448819
20
-1.4005905511811023
11
2.639724409448819
21
-1.4596456692913387
0
LINE
8
BLACK
6
CONTINUOUS
10
2.639724409448819
20
-1.4596456692913387
11
2.4625590551181102
21
-1.4596456692913387
0
LINE
8
BLACK
6
CONTINUOUS
10
2.9546850393700788
20
-1.4005905511811023
11
2.9546850393700788
21
-1.4596456692913387
0
LINE
8
BLACK
6
CONTINUOUS
10
2.9546850393700788
20
-1.4596456692913387
11
3.1318503937007875
21
-1.4596456692913387
0
LINE
8
BLACK
6
CONTINUOUS
10
2.9940551181102362
20
-0.7903543307086613
11
3.1318503937007875
21
-0.7903543307086613
0
LINE
8
BLACK
6
CONTINUOUS
10
2.9940551181102362
20
-0.8494094488188976
11
2.9940551181102362
21
-0.7903543307086613
0
LINE
8
BLACK
6
CONTINUOUS
10
3.072795275590551
20
-0.8494094488188976
11
2.9940551181102362
21
-0.8494094488188976
0
LINE
8
BLACK
6
CONTINUOUS
10
3.072795275590551
20
-0.8494094488188976
11
3.072795275590551
21
-0.96751968503937
0
LINE
8
BLACK
6
CONTINUOUS
10
3.072795275590551
20
-0.96751968503937
11
3.1318503937007875
21
-0.96751968503937
0
LINE
8
BLACK
6
CONTINUOUS
10
3.072795275590551
20
-1.2824803149606299
11
3.1318503937007875
21
-1.2824803149606299
0
LINE
8
BLACK
6
CONTINUOUS
10
3.072795275590551
20
-1.4005905511811023
11
2.9546850393700788
21
-1.4005905511811023
0
LINE
8
BLACK
6
CONTINUOUS
10
3.072795275590551
20
-1.4005905511811023
11
3.072795275590551
21
-1.2824803149606299
0
LINE
8
BLACK
6
CONTINUOUS
10
3.1318503937007875
20
-0.96751968503937
11
3.1318503937007875
21
-0.7903543307086613
0
LINE
8
BLACK
6
CONTINUOUS
10
3.1318503937007875
20
-1.2824803149606299
11
3.1318503937007875
21
-1.4596456692913387
0
LINE
8
BLACK
6
CONTINUOUS
10
4.9000590551181098
20
-3.2175196850393699
11
4.9000590551181098
21
-3.0403543307086616
0
LINE
8
BLACK
6
CONTINUOUS
10
4.9000590551181098
20
-3.5324803149606296
11
4.9000590551181098
21
-3.7096456692913384
0
LINE
8
BLACK
6
CONTINUOUS
10
4.9591141732283459
20
-3.0994094488188977
11
4.9591141732283459
21
-3.2175196850393699
0
LINE
8
BLACK
6
CONTINUOUS
10
4.9591141732283459
20
-3.0994094488188977
11
5.0378543307086616
21
-3.0994094488188977
0
LINE
8
BLACK
6
CONTINUOUS
10
4.9591141732283459
20
-3.2175196850393699
11
4.9000590551181098
21
-3.2175196850393699
0
LINE
8
BLACK
6
CONTINUOUS
10
4.9591141732283459
20
-3.5324803149606296
11
4.9000590551181098
21
-3.5324803149606296
0
LINE
8
BLACK
6
CONTINUOUS
10
4.9591141732283459
20
-3.6505905511811023
11
4.9591141732283459
21
-3.5324803149606296
0
LINE
8
BLACK
6
CONTINUOUS
10
4.9591141732283459
20
-3.6505905511811023
11
5.077224409448819
21
-3.6505905511811023
0
LINE
8
BLACK
6
CONTINUOUS
10
5.0378543307086616
20
-3.0403543307086616
11
4.9000590551181098
21
-3.0403543307086616
0
LINE
8
BLACK
6
CONTINUOUS
10
5.0378543307086616
20
-3.0994094488188977
11
5.0378543307086616
21
-3.0403543307086616
0
LINE
8
BLACK
6
CONTINUOUS
10
5.077224409448819
20
-3.6505905511811023
11
5.077224409448819
21
-3.7096456692913384
0
LINE
8
BLACK
6
CONTINUOUS
10
5.077224409448819
20
-3.7096456692913384
11
4.9000590551181098
21
-3.7096456692913384
0
LINE
8
BLACK
6
CONTINUOUS
10
5.3921850393700783
20
-3.6505905511811023
11
5.3921850393700783
21
-3.7096456692913384
0
LINE
8
BLACK
6
CONTINUOUS
10
5.3921850393700783
20
-3.7096456692913384
11
5.5693503937007875
21
-3.7096456692913384
0
LINE
8
BLACK
6
CONTINUOUS
10
5.4315551181102357
20
-3.0403543307086616
11
5.5693503937007875
21
-3.0403543307086616
0
LINE
8
BLACK
6
CONTINUOUS
10
5.4315551181102357
20
-3.0994094488188977
11
5.4315551181102357
21
-3.0403543307086616
0
LINE
8
BLACK
6
CONTINUOUS
10
5.5102952755905514
20
-3.0994094488188977
11
5.4315551181102357
21
-3.0994094488188977
0
LINE
8
BLACK
6
CONTINUOUS
10
5.5102952755905514
20
-3.0994094488188977
11
5.5102952755905514
21
-3.2175196850393699
0
LINE
8
BLACK
6
CONTINUOUS
10
5.5102952755905514
20
-3.2175196850393699
11
5.5693503937007875
21
-3.2175196850393699
0
LINE
8
BLACK
6
CONTINUOUS
10
5.5102952755905514
20
-3.5324803149606296
11
5.5693503937007875
21
-3.5324803149606296
0
LINE
8
BLACK
6
CONTINUOUS
10
5.5102952755905514
20
-3.6505905511811023
11
5.3921850393700783
21
-3.6505905511811023
0
LINE
8
BLACK
6
CONTINUOUS
10
5.5102952755905514
20
-3.6505905511811023
11
5.5102952755905514
21
-3.5324803149606296
0
LINE
8
BLACK
6
CONTINUOUS
10
5.5693503937007875
20
-3.2175196850393699
11
5.5693503937007875
21
-3.0403543307086616
0
LINE
8
BLACK
6
CONTINUOUS
10
5.5693503937007875
20
-3.5324803149606296
11
5.5693503937007875
21
-3.7096456692913384
0
LINE
8
BLACK
6
CONTINUOUS
10
5.0875590551181098
20
-1.7175196850393701
11
5.0875590551181098
21
-1.5403543307086613
0
LINE
8
BLACK
6
CONTINUOUS
10
5.0875590551181098
20
-2.0324803149606301
11
5.0875590551181098
21
-2.2096456692913384
0
LINE
8
BLACK
6
CONTINUOUS
10
5.1466141732283459
20
-1.5994094488188977
11
5.1466141732283459
21
-1.7175196850393701
0
LINE
8
BLACK
6
CONTINUOUS
10
5.1466141732283459
20
-1.5994094488188977
11
5.2253543307086616
21
-1.5994094488188977
0
LINE
8
BLACK
6
CONTINUOUS
10
5.1466141732283459
20
-1.7175196850393701
11
5.0875590551181098
21
-1.7175196850393701
0
LINE
8
BLACK
6
CONTINUOUS
10
5.1466141732283459
20
-2.0324803149606301
11
5.0875590551181098
21
-2.0324803149606301
0
LINE
8
BLACK
6
CONTINUOUS
10
5.1466141732283459
20
-2.1505905511811023
11
5.1466141732283459
21
-2.0324803149606301
0
LINE
8
BLACK
6
CONTINUOUS
10
5.1466141732283459
20
-2.1505905511811023
11
5.264724409448819
21
-2.1505905511811023
0
LINE
8
BLACK
6
CONTINUOUS
10
5.2253543307086616
20
-1.5403543307086613
11
5.0875590551181098
21
-1.5403543307086613
0
LINE
8
BLACK
6
CONTINUOUS
10
5.2253543307086616
20
-1.5994094488188977
11
5.2253543307086616
21
-1.5403543307086613
0
LINE
8
BLACK
6
CONTINUOUS
10
5.264724409448819
20
-2.1505905511811023
11
5.264724409448819
21
-2.2096456692913384
0
LINE
8
BLACK
6
CONTINUOUS
10
5.264724409448819
20
-2.2096456692913384
11
5.0875590551181098
21
-2.2096456692913384
0
LINE
8
BLACK
6
CONTINUOUS
10
5.5796850393700783
20
-2.1505905511811023
11
5.5796850393700783
21
-2.2096456692913384
0
LINE
8
BLACK
6
CONTINUOUS
10
5.5796850393700783
20
-2.2096456692913384
11
5.7568503937007875
21
-2.2096456692913384
0
LINE
8
BLACK
6
CONTINUOUS
10
5.6190551181102357
20
-1.5403543307086613
11
5.7568503937007875
21
-1.5403543307086613
0
LINE
8
BLACK
6
CONTINUOUS
10
5.6190551181102357
20
-1.5994094488188977
11
5.6190551181102357
21
-1.5403543307086613
0
LINE
8
BLACK
6
CONTINUOUS
10
5.6977952755905514
20
-1.5994094488188977
11
5.6190551181102357
21
-1.5994094488188977
0
LINE
8
BLACK
6
CONTINUOUS
10
5.6977952755905514
20
-1.5994094488188977
11
5.6977952755905514
21
-1.7175196850393701
0
LINE
8
BLACK
6
CONTINUOUS
10
5.6977952755905514
20
-1.7175196850393701
11
5.7568503937007875
21
-1.7175196850393701
0
LINE
8
BLACK
6
CONTINUOUS
10
5.6977952755905514
20
-2.0324803149606301
11
5.7568503937007875
21
-2.0324803149606301
0
LINE
8
BLACK
6
CONTINUOUS
10
5.6977952755905514
20
-2.1505905511811023
11
5.5796850393700783
21
-2.1505905511811023
0
LINE
8
BLACK
6
CONTINUOUS
10
5.6977952755905514
20
-2.1505905511811023
11
5.6977952755905514
21
-2.0324803149606301
0
LINE
8
BLACK
6
CONTINUOUS
10
5.7568503937007875
20
-1.7175196850393701
11
5.7568503937007875
21
-1.5403543307086613
0
LINE
8
BLACK
6
CONTINUOUS
10
5.7568503937007875
20
-2.0324803149606301
11
5.7568503937007875
21
-2.2096456692913384
0
LINE
8
BLACK
6
CONTINUOUS
10
3.0250590551181102
20
-2.4675196850393699
11
3.0250590551181102
21
-2.2903543307086616
0
LINE
8
BLACK
6
CONTINUOUS
10
3.0250590551181102
20
-2.7824803149606296
11
3.0250590551181102
21
-2.9596456692913384
0
LINE
8
BLACK
6
CONTINUOUS
10
3.0841141732283464
20
-2.3494094488188977
11
3.0841141732283464
21
-2.4675196850393699
0
LINE
8
BLACK
6
CONTINUOUS
10
3.0841141732283464
20
-2.3494094488188977
11
3.1628543307086612
21
-2.3494094488188977
0
LINE
8
BLACK
6
CONTINUOUS
10
3.0841141732283464
20
-2.4675196850393699
11
3.0250590551181102
21
-2.4675196850393699
0
LINE
8
BLACK
6
CONTINUOUS
10
3.0841141732283464
20
-2.7824803149606296
11
3.0250590551181102
21
-2.7824803149606296
0
LINE
8
BLACK
6
CONTINUOUS
10
3.0841141732283464
20
-2.9005905511811023
11
3.0841141732283464
21
-2.7824803149606296
0
LINE
8
BLACK
6
CONTINUOUS
10
3.0841141732283464
20
-2.9005905511811023
11
3.202224409448819
21
-2.9005905511811023
0
LINE
8
BLACK
6
CONTINUOUS
10
3.1628543307086612
20
-2.2903543307086616
11
3.0250590551181102
21
-2.2903543307086616
0
LINE
8
BLACK
6
CONTINUOUS
10
3.1628543307086612
20
-2.3494094488188977
11
3.1628543307086612
21
-2.2903543307086616
0
LINE
8
BLACK
6
CONTINUOUS
10
3.202224409448819
20
-2.9005905511811023
11
3.202224409448819
21
-2.9596456692913384
0
LINE
8
BLACK
6
CONTINUOUS
10
3.202224409448819
20
-2.9596456692913384
11
3.0250590551181102
21
-2.9596456692913384
0
LINE
8
BLACK
6
CONTINUOUS
10
3.5171850393700788
20
-2.9005905511811023
11
3.5171850393700788
21
-2.9596456692913384
0
LINE
8
BLACK
6
CONTINUOUS
10
3.5171850393700788
20
-2.9596456692913384
11
3.6943503937007871
21
-2.9596456692913384
0
LINE
8
BLACK
6
CONTINUOUS
10
3.5565551181102362
20
-2.2903543307086616
11
3.6943503937007871
21
-2.2903543307086616
0
LINE
8
BLACK
6
CONTINUOUS
10
3.5565551181102362
20
-2.3494094488188977
11
3.5565551181102362
21
-2.2903543307086616
0
LINE
8
BLACK
6
CONTINUOUS
10
3.635295275590551
20
-2.3494094488188977
11
3.5565551181102362
21
-2.3494094488188977
0
LINE
8
BLACK
6
CONTINUOUS
10
3.635295275590551
20
-2.3494094488188977
11
3.635295275590551
21
-2.4675196850393699
0
LINE
8
BLACK
6
CONTINUOUS
10
3.635295275590551
20
-2.4675196850393699
11
3.6943503937007871
21
-2.4675196850393699
0
LINE
8
BLACK
6
CONTINUOUS
10
3.635295275590551
20
-2.7824803149606296
11
3.6943503937007871
21
-2.7824803149606296
0
LINE
8
BLACK
6
CONTINUOUS
10
3.635295275590551
20
-2.9005905511811023
11
3.5171850393700788
21
-2.9005905511811023
0
LINE
8
BLACK
6
CONTINUOUS
10
3.635295275590551
20
-2.9005905511811023
11
3.635295275590551
21
-2.7824803149606296
0
LINE
8
BLACK
6
CONTINUOUS
10
3.6943503937007871
20
-2.4675196850393699
11
3.6943503937007871
21
-2.2903543307086616
0
LINE
8
BLACK
6
CONTINUOUS
10
3.6943503937007871
20
-2.7824803149606296
11
3.6943503937007871
21
-2.9596456692913384
0
LINE
8
BLACK
6
CONTINUOUS
10
2.4625590551181102
20
-0.2175196850393701
11
2.4625590551181102
21
-0.0403543307086614
0
LINE
8
BLACK
6
CONTINUOUS
10
2.4625590551181102
20
-0.5324803149606299
11
2.4625590551181102
21
-0.7096456692913385
0
LINE
8
BLACK
6
CONTINUOUS
10
2.5216141732283464
20
-0.0994094488188976
11
2.5216141732283464
21
-0.2175196850393701
0
LINE
8
BLACK
6
CONTINUOUS
10
2.5216141732283464
20
-0.0994094488188976
11
2.6003543307086612
21
-0.0994094488188976
0
LINE
8
BLACK
6
CONTINUOUS
10
2.5216141732283464
20
-0.2175196850393701
11
2.4625590551181102
21
-0.2175196850393701
0
LINE
8
BLACK
6
CONTINUOUS
10
2.5216141732283464
20
-0.5324803149606299
11
2.4625590551181102
21
-0.5324803149606299
0
LINE
8
BLACK
6
CONTINUOUS
10
2.5216141732283464
20
-0.6505905511811023
11
2.5216141732283464
21
-0.5324803149606299
0
LINE
8
BLACK
6
CONTINUOUS
10
2.5216141732283464
20
-0.6505905511811023
11
2.639724409448819
21
-0.6505905511811023
0
LINE
8
BLACK
6
CONTINUOUS
10
2.6003543307086612
20
-0.0403543307086614
11
2.4625590551181102
21
-0.0403543307086614
0
LINE
8
BLACK
6
CONTINUOUS
10
2.6003543307086612
20
-0.0994094488188976
11
2.6003543307086612
21
-0.0403543307086614
0
LINE
8
BLACK
6
CONTINUOUS
10
2.639724409448819
20
-0.6505905511811023
11
2.639724409448819
21
-0.7096456692913385
0
LINE
8
BLACK
6
CONTINUOUS
10
2.639724409448819
20
-0.7096456692913385
11
2.4625590551181102
21
-0.7096456692913385
0
LINE
8
BLACK
6
CONTINUOUS
10
2.9546850393700788
20
-0.6505905511811023
11
2.9546850393700788
21
-0.7096456692913385
0
LINE
8
BLACK
6
CONTINUOUS
10
2.9546850393700788
20
-0.7096456692913385
11
3.1318503937007875
21
-0.7096456692913385
0
LINE
8
BLACK
6
CONTINUOUS
10
2.9940551181102362
20
-0.0403543307086614
11
3.1318503937007875
21
-0.0403543307086614
0
LINE
8
BLACK
6
CONTINUOUS
10
2.9940551181102362
20
-0.0994094488188976
11
2.9940551181102362
21
-0.0403543307086614
0
LINE
8
BLACK
6
CONTINUOUS
10
3.072795275590551
20
-0.0994094488188976
11
2.9940551181102362
21
-0.0994094488188976
0
LINE
8
BLACK
6
CONTINUOUS
10
3.072795275590551
20
-0.0994094488188976
11
3.072795275590551
21
-0.2175196850393701
0
LINE
8
BLACK
6
CONTINUOUS
10
3.072795275590551
20
-0.2175196850393701
11
3.1318503937007875
21
-0.2175196850393701
0
LINE
8
BLACK
6
CONTINUOUS
10
3.072795275590551
20
-0.5324803149606299
11
3.1318503937007875
21
-0.5324803149606299
0
LINE
8
BLACK
6
CONTINUOUS
10
3.072795275590551
20
-0.6505905511811023
11
2.9546850393700788
21
-0.6505905511811023
0
LINE
8
BLACK
6
CONTINUOUS
10
3.072795275590551
20
-0.6505905511811023
11
3.072795275590551
21
-0.5324803149606299
0
LINE
8
BLACK
6
CONTINUOUS
10
3.1318503937007875
20
-0.2175196850393701
11
3.1318503937007875
21
-0.0403543307086614
0
LINE
8
BLACK
6
CONTINUOUS
10
3.1318503937007875
20
-0.5324803149606299
11
3.1318503937007875
21
-0.7096456692913385
0
LINE
8
BLACK
6
CONTINUOUS
10
4.9000590551181098
20
-3.9675196850393699
11
4.9000590551181098
21
-3.7903543307086611
0
LINE
8
BLACK
6
CONTINUOUS
10
4.9000590551181098
20
-4.2824803149606296
11
4.9000590551181098
21
-4.4596456692913389
0
LINE
8
BLACK
6
CONTINUOUS
10
4.9591141732283459
20
-3.8494094488188977
11
4.9591141732283459
21
-3.9675196850393699
0
LINE
8
BLACK
6
CONTINUOUS
10
4.9591141732283459
20
-3.8494094488188977
11
5.0378543307086616
21
-3.8494094488188977
0
LINE
8
BLACK
6
CONTINUOUS
10
4.9591141732283459
20
-3.9675196850393699
11
4.9000590551181098
21
-3.9675196850393699
0
LINE
8
BLACK
6
CONTINUOUS
10
4.9591141732283459
20
-4.2824803149606296
11
4.9000590551181098
21
-4.2824803149606296
0
LINE
8
BLACK
6
CONTINUOUS
10
4.9591141732283459
20
-4.4005905511811019
11
4.9591141732283459
21
-4.2824803149606296
0
LINE
8
BLACK
6
CONTINUOUS
10
4.9591141732283459
20
-4.4005905511811019
11
5.077224409448819
21
-4.4005905511811019
0
LINE
8
BLACK
6
CONTINUOUS
10
5.0378543307086616
20
-3.7903543307086611
11
4.9000590551181098
21
-3.7903543307086611
0
LINE
8
BLACK
6
CONTINUOUS
10
5.0378543307086616
20
-3.8494094488188977
11
5.0378543307086616
21
-3.7903543307086611
0
LINE
8
BLACK
6
CONTINUOUS
10
5.077224409448819
20
-4.4005905511811019
11
5.077224409448819
21
-4.4596456692913389
0
LINE
8
BLACK
6
CONTINUOUS
10
5.077224409448819
20
-4.4596456692913389
11
4.9000590551181098
21
-4.4596456692913389
0
LINE
8
BLACK
6
CONTINUOUS
10
5.3921850393700783
20
-4.4005905511811019
11
5.3921850393700783
21
-4.4596456692913389
0
LINE
8
BLACK
6
CONTINUOUS
10
5.3921850393700783
20
-4.4596456692913389
11
5.5693503937007875
21
-4.4596456692913389
0
LINE
8
BLACK
6
CONTINUOUS
10
5.4315551181102357
20
-3.7903543307086611
11
5.5693503937007875
21
-3.7903543307086611
0
LINE
8
BLACK
6
CONTINUOUS
10
5.4315551181102357
20
-3.8494094488188977
11
5.4315551181102357
21
-3.7903543307086611
0
LINE
8
BLACK
6
CONTINUOUS
10
5.5102952755905514
20
-3.8494094488188977
11
5.4315551181102357
21
-3.8494094488188977
0
LINE
8
BLACK
6
CONTINUOUS
10
5.5102952755905514
20
-3.8494094488188977
11
5.5102952755905514
21
-3.9675196850393699
0
LINE
8
BLACK
6
CONTINUOUS
10
5.5102952755905514
20
-3.9675196850393699
11
5.5693503937007875
21
-3.9675196850393699
0
LINE
8
BLACK
6
CONTINUOUS
10
5.5102952755905514
20
-4.2824803149606296
11
5.5693503937007875
21
-4.2824803149606296
0
LINE
8
BLACK
6
CONTINUOUS
10
5.5102952755905514
20
-4.4005905511811019
11
5.3921850393700783
21
-4.4005905511811019
0
LINE
8
BLACK
6
CONTINUOUS
10
5.5102952755905514
20
-4.4005905511811019
11
5.5102952755905514
21
-4.2824803149606296
0
LINE
8
BLACK
6
CONTINUOUS
10
5.5693503937007875
20
-3.9675196850393699
11
5.5693503937007875
21
-3.7903543307086611
0
LINE
8
BLACK
6
CONTINUOUS
10
5.5693503937007875
20
-4.2824803149606296
11
5.5693503937007875
21
-4.4596456692913389
0
LINE
8
BLACK
6
CONTINUOUS
10
2.0875590551181102
20
-1.7175196850393701
11
2.0875590551181102
21
-1.5403543307086613
0
LINE
8
BLACK
6
CONTINUOUS
10
2.0875590551181102
20
-2.0324803149606301
11
2.0875590551181102
21
-2.2096456692913384
0
LINE
8
BLACK
6
CONTINUOUS
10
2.1466141732283464
20
-1.5994094488188977
11
2.1466141732283464
21
-1.7175196850393701
0
LINE
8
BLACK
6
CONTINUOUS
10
2.1466141732283464
20
-1.5994094488188977
11
2.2253543307086612
21
-1.5994094488188977
0
LINE
8
BLACK
6
CONTINUOUS
10
2.1466141732283464
20
-1.7175196850393701
11
2.0875590551181102
21
-1.7175196850393701
0
LINE
8
BLACK
6
CONTINUOUS
10
2.1466141732283464
20
-2.0324803149606301
11
2.0875590551181102
21
-2.0324803149606301
0
LINE
8
BLACK
6
CONTINUOUS
10
2.1466141732283464
20
-2.1505905511811023
11
2.1466141732283464
21
-2.0324803149606301
0
LINE
8
BLACK
6
CONTINUOUS
10
2.1466141732283464
20
-2.1505905511811023
11
2.264724409448819
21
-2.1505905511811023
0
LINE
8
BLACK
6
CONTINUOUS
10
2.2253543307086612
20
-1.5403543307086613
11
2.0875590551181102
21
-1.5403543307086613
0
LINE
8
BLACK
6
CONTINUOUS
10
2.2253543307086612
20
-1.5994094488188977
11
2.2253543307086612
21
-1.5403543307086613
0
LINE
8
BLACK
6
CONTINUOUS
10
2.264724409448819
20
-2.1505905511811023
11
2.264724409448819
21
-2.2096456692913384
0
LINE
8
BLACK
6
CONTINUOUS
10
2.264724409448819
20
-2.2096456692913384
11
2.0875590551181102
21
-2.2096456692913384
0
LINE
8
BLACK
6
CONTINUOUS
10
2.5796850393700788
20
-2.1505905511811023
11
2.5796850393700788
21
-2.2096456692913384
0
LINE
8
BLACK
6
CONTINUOUS
10
2.5796850393700788
20
-2.2096456692913384
11
2.7568503937007875
21
-2.2096456692913384
0
LINE
8
BLACK
6
CONTINUOUS
10
2.6190551181102362
20
-1.5403543307086613
11
2.7568503937007875
21
-1.5403543307086613
0
LINE
8
BLACK
6
CONTINUOUS
10
2.6190551181102362
20
-1.5994094488188977
11
2.6190551181102362
21
-1.5403543307086613
0
LINE
8
BLACK
6
CONTINUOUS
10
2.697795275590551
20
-1.5994094488188977
11
2.6190551181102362
21
-1.5994094488188977
0
LINE
8
BLACK
6
CONTINUOUS
10
2.697795275590551
20
-1.5994094488188977
11
2.697795275590551
21
-1.7175196850393701
0
LINE
8
BLACK
6
CONTINUOUS
10
2.697795275590551
20
-1.7175196850393701
11
2.7568503937007875
21
-1.7175196850393701
0
LINE
8
BLACK
6
CONTINUOUS
10
2.697795275590551
20
-2.0324803149606301
11
2.7568503937007875
21
-2.0324803149606301
0
LINE
8
BLACK
6
CONTINUOUS
10
2.697795275590551
20
-2.1505905511811023
11
2.5796850393700788
21
-2.1505905511811023
0
LINE
8
BLACK
6
CONTINUOUS
10
2.697795275590551
20
-2.1505905511811023
11
2.697795275590551
21
-2.0324803149606301
0
LINE
8
BLACK
6
CONTINUOUS
10
2.7568503937007875
20
-1.7175196850393701
11
2.7568503937007875
21
-1.5403543307086613
0
LINE
8
BLACK
6
CONTINUOUS
10
2.7568503937007875
20
-2.0324803149606301
11
2.7568503937007875
21
-2.2096456692913384
0
LINE
8
BLACK
6
CONTINUOUS
10
3.2125590551181102
20
-0.96751968503937
11
3.2125590551181102
21
-0.7903543307086613
0
LINE
8
BLACK
6
CONTINUOUS
10
3.2125590551181102
20
-1.2824803149606299
11
3.2125590551181102
21
-1.4596456692913387
0
LINE
8
BLACK
6
CONTINUOUS
10
3.2716141732283464
20
-0.8494094488188976
11
3.2716141732283464
21
-0.96751968503937
0
LINE
8
BLACK
6
CONTINUOUS
10
3.2716141732283464
20
-0.8494094488188976
11
3.3503543307086612
21
-0.8494094488188976
0
LINE
8
BLACK
6
CONTINUOUS
10
3.2716141732283464
20
-0.96751968503937
11
3.2125590551181102
21
-0.96751968503937
0
LINE
8
BLACK
6
CONTINUOUS
10
3.2716141732283464
20
-1.2824803149606299
11
3.2125590551181102
21
-1.2824803149606299
0
LINE
8
BLACK
6
CONTINUOUS
10
3.2716141732283464
20
-1.4005905511811023
11
3.2716141732283464
21
-1.2824803149606299
0
LINE
8
BLACK
6
CONTINUOUS
10
3.2716141732283464
20
-1.4005905511811023
11
3.389724409448819
21
-1.4005905511811023
0
LINE
8
BLACK
6
CONTINUOUS
10
3.3503543307086612
20
-0.7903543307086613
11
3.2125590551181102
21
-0.7903543307086613
0
LINE
8
BLACK
6
CONTINUOUS
10
3.3503543307086612
20
-0.8494094488188976
11
3.3503543307086612
21
-0.7903543307086613
0
LINE
8
BLACK
6
CONTINUOUS
10
3.389724409448819
20
-1.4005905511811023
11
3.389724409448819
21
-1.4596456692913387
0
LINE
8
BLACK
6
CONTINUOUS
10
3.389724409448819
20
-1.4596456692913387
11
3.2125590551181102
21
-1.4596456692913387
0
LINE
8
BLACK
6
CONTINUOUS
10
3.7046850393700788
20
-1.4005905511811023
11
3.7046850393700788
21
-1.4596456692913387
0
LINE
8
BLACK
6
CONTINUOUS
10
3.7046850393700788
20
-1.4596456692913387
11
3.8818503937007871
21
-1.4596456692913387
0
LINE
8
BLACK
6
CONTINUOUS
10
3.7440551181102362
20
-0.7903543307086613
11
3.8818503937007871
21
-0.7903543307086613
0
LINE
8
BLACK
6
CONTINUOUS
10
3.7440551181102362
20
-0.8494094488188976
11
3.7440551181102362
21
-0.7903543307086613
0
LINE
8
BLACK
6
CONTINUOUS
10
3.822795275590551
20
-0.8494094488188976
11
3.7440551181102362
21
-0.8494094488188976
0
LINE
8
BLACK
6
CONTINUOUS
10
3.822795275590551
20
-0.8494094488188976
11
3.822795275590551
21
-0.96751968503937
0
LINE
8
BLACK
6
CONTINUOUS
10
3.822795275590551
20
-0.96751968503937
11
3.8818503937007871
21
-0.96751968503937
0
LINE
8
BLACK
6
CONTINUOUS
10
3.822795275590551
20
-1.2824803149606299
11
3.8818503937007871
21
-1.2824803149606299
0
LINE
8
BLACK
6
CONTINUOUS
10
3.822795275590551
20
-1.4005905511811023
11
3.7046850393700788
21
-1.4005905511811023
0
LINE
8
BLACK
6
CONTINUOUS
10
3.822795275590551
20
-1.4005905511811023
11
3.822795275590551
21
-1.2824803149606299
0
LINE
8
BLACK
6
CONTINUOUS
10
3.8818503937007871
20
-0.96751968503937
11
3.8818503937007871
21
-0.7903543307086613
0
LINE
8
BLACK
6
CONTINUOUS
10
3.8818503937007871
20
-1.2824803149606299
11
3.8818503937007871
21
-1.4596456692913387
0
LINE
8
BLACK
6
CONTINUOUS
10
2.8375590551181102
20
-1.7175196850393701
11
2.8375590551181102
21
-1.5403543307086613
0
LINE
8
BLACK
6
CONTINUOUS
10
2.8375590551181102
20
-2.0324803149606301
11
2.8375590551181102
21
-2.2096456692913384
0
LINE
8
BLACK
6
CONTINUOUS
10
2.8966141732283464
20
-1.5994094488188977
11
2.8966141732283464
21
-1.7175196850393701
0
LINE
8
BLACK
6
CONTINUOUS
10
2.8966141732283464
20
-1.5994094488188977
11
2.9753543307086612
21
-1.5994094488188977
0
LINE
8
BLACK
6
CONTINUOUS
10
2.8966141732283464
20
-1.7175196850393701
11
2.8375590551181102
21
-1.7175196850393701
0
LINE
8
BLACK
6
CONTINUOUS
10
2.8966141732283464
20
-2.0324803149606301
11
2.8375590551181102
21
-2.0324803149606301
0
LINE
8
BLACK
6
CONTINUOUS
10
2.8966141732283464
20
-2.1505905511811023
11
2.8966141732283464
21
-2.0324803149606301
0
LINE
8
BLACK
6
CONTINUOUS
10
2.8966141732283464
20
-2.1505905511811023
11
3.014724409448819
21
-2.1505905511811023
0
LINE
8
BLACK
6
CONTINUOUS
10
2.9753543307086612
20
-1.5403543307086613
11
2.8375590551181102
21
-1.5403543307086613
0
LINE
8
BLACK
6
CONTINUOUS
10
2.9753543307086612
20
-1.5994094488188977
11
2.9753543307086612
21
-1.5403543307086613
0
LINE
8
BLACK
6
CONTINUOUS
10
3.014724409448819
20
-2.1505905511811023
11
3.014724409448819
21
-2.2096456692913384
0
LINE
8
BLACK
6
CONTINUOUS
10
3.014724409448819
20
-2.2096456692913384
11
2.8375590551181102
21
-2.2096456692913384
0
LINE
8
BLACK
6
CONTINUOUS
10
3.3296850393700788
20
-2.1505905511811023
11
3.3296850393700788
21
-2.2096456692913384
0
LINE
8
BLACK
6
CONTINUOUS
10
3.3296850393700788
20
-2.2096456692913384
11
3.5068503937007871
21
-2.2096456692913384
0
LINE
8
BLACK
6
CONTINUOUS
10
3.3690551181102362
20
-1.5403543307086613
11
3.5068503937007871
21
-1.5403543307086613
0
LINE
8
BLACK
6
CONTINUOUS
10
3.3690551181102362
20
-1.5994094488188977
11
3.3690551181102362
21
-1.5403543307086613
0
LINE
8
BLACK
6
CONTINUOUS
10
3.447795275590551
20
-1.5994094488188977
11
3.3690551181102362
21
-1.5994094488188977
0
LINE
8
BLACK
6
CONTINUOUS
10
3.447795275590551
20
-1.5994094488188977
11
3.447795275590551
21
-1.7175196850393701
0
LINE
8
BLACK
6
CONTINUOUS
10
3.447795275590551
20
-1.7175196850393701
11
3.5068503937007871
21
-1.7175196850393701
0
LINE
8
BLACK
6
CONTINUOUS
10
3.447795275590551
20
-2.0324803149606301
11
3.5068503937007871
21
-2.0324803149606301
0
LINE
8
BLACK
6
CONTINUOUS
10
3.447795275590551
20
-2.1505905511811023
11
3.3296850393700788
21
-2.1505905511811023
0
LINE
8
BLACK
6
CONTINUOUS
10
3.447795275590551
20
-2.1505905511811023
11
3.447795275590551
21
-2.0324803149606301
0
LINE
8
BLACK
6
CONTINUOUS
10
3.5068503937007871
20
-1.7175196850393701
11
3.5068503937007871
21
-1.5403543307086613
0
LINE
8
BLACK
6
CONTINUOUS
10
3.5068503937007871
20
-2.0324803149606301
11
3.5068503937007871
21
-2.2096456692913384
0
LINE
8
BLACK
6
CONTINUOUS
10
3.4000590551181102
20
-3.2175196850393699
11
3.4000590551181102
21
-3.0403543307086616
0
LINE
8
BLACK
6
CONTINUOUS
10
3.4000590551181102
20
-3.5324803149606296
11
3.4000590551181102
21
-3.7096456692913384
0
LINE
8
BLACK
6
CONTINUOUS
10
3.4591141732283464
20
-3.0994094488188977
11
3.4591141732283464
21
-3.2175196850393699
0
LINE
8
BLACK
6
CONTINUOUS
10
3.4591141732283464
20
-3.0994094488188977
11
3.5378543307086612
21
-3.0994094488188977
0
LINE
8
BLACK
6
CONTINUOUS
10
3.4591141732283464
20
-3.2175196850393699
11
3.4000590551181102
21
-3.2175196850393699
0
LINE
8
BLACK
6
CONTINUOUS
10
3.4591141732283464
20
-3.5324803149606296
11
3.4000590551181102
21
-3.5324803149606296
0
LINE
8
BLACK
6
CONTINUOUS
10
3.4591141732283464
20
-3.6505905511811023
11
3.4591141732283464
21
-3.5324803149606296
0
LINE
8
BLACK
6
CONTINUOUS
10
3.4591141732283464
20
-3.6505905511811023
11
3.577224409448819
21
-3.6505905511811023
0
LINE
8
BLACK
6
CONTINUOUS
10
3.5378543307086612
20
-3.0403543307086616
11
3.4000590551181102
21
-3.0403543307086616
0
LINE
8
BLACK
6
CONTINUOUS
10
3.5378543307086612
20
-3.0994094488188977
11
3.5378543307086612
21
-3.0403543307086616
0
LINE
8
BLACK
6
CONTINUOUS
10
3.577224409448819
20
-3.6505905511811023
11
3.577224409448819
21
-3.7096456692913384
0
LINE
8
BLACK
6
CONTINUOUS
10
3.577224409448819
20
-3.7096456692913384
11
3.4000590551181102
21
-3.7096456692913384
0
LINE
8
BLACK
6
CONTINUOUS
10
3.8921850393700788
20
-3.6505905511811023
11
3.8921850393700788
21
-3.7096456692913384
0
LINE
8
BLACK
6
CONTINUOUS
10
3.8921850393700788
20
-3.7096456692913384
11
4.0693503937007875
21
-3.7096456692913384
0
LINE
8
BLACK
6
CONTINUOUS
10
3.9315551181102362
20
-3.0403543307086616
11
4.0693503937007875
21
-3.0403543307086616
0
LINE
8
BLACK
6
CONTINUOUS
10
3.9315551181102362
20
-3.0994094488188977
11
3.9315551181102362
21
-3.0403543307086616
0
LINE
8
BLACK
6
CONTINUOUS
10
4.0102952755905514
20
-3.0994094488188977
11
3.9315551181102362
21
-3.0994094488188977
0
LINE
8
BLACK
6
CONTINUOUS
10
4.0102952755905514
20
-3.0994094488188977
11
4.0102952755905514
21
-3.2175196850393699
0
LINE
8
BLACK
6
CONTINUOUS
10
4.0102952755905514
20
-3.2175196850393699
11
4.0693503937007875
21
-3.2175196850393699
0
LINE
8
BLACK
6
CONTINUOUS
10
4.0102952755905514
20
-3.5324803149606296
11
4.0693503937007875
21
-3.5324803149606296
0
LINE
8
BLACK
6
CONTINUOUS
10
4.0102952755905514
20
-3.6505905511811023
11
3.8921850393700788
21
-3.6505905511811023
0
LINE
8
BLACK
6
CONTINUOUS
10
4.0102952755905514
20
-3.6505905511811023
11
4.0102952755905514
21
-3.5324803149606296
0
LINE
8
BLACK
6
CONTINUOUS
10
4.0693503937007875
20
-3.2175196850393699
11
4.0693503937007875
21
-3.0403543307086616
0
LINE
8
BLACK
6
CONTINUOUS
10
4.0693503937007875
20
-3.5324803149606296
11
4.0693503937007875
21
-3.7096456692913384
0
LINE
8
BLACK
6
CONTINUOUS
10
1.7125590551181102
20
-0.96751968503937
11
1.7125590551181102
21
-0.7903543307086613
0
LINE
8
BLACK
6
CONTINUOUS
10
1.7125590551181102
20
-1.2824803149606299
11
1.7125590551181102
21
-1.4596456692913387
0
LINE
8
BLACK
6
CONTINUOUS
10
1.7716141732283464
20
-0.8494094488188976
11
1.7716141732283464
21
-0.96751968503937
0
LINE
8
BLACK
6
CONTINUOUS
10
1.7716141732283464
20
-0.8494094488188976
11
1.8503543307086614
21
-0.8494094488188976
0
LINE
8
BLACK
6
CONTINUOUS
10
1.7716141732283464
20
-0.96751968503937
11
1.7125590551181102
21
-0.96751968503937
0
LINE
8
BLACK
6
CONTINUOUS
10
1.7716141732283464
20
-1.2824803149606299
11
1.7125590551181102
21
-1.2824803149606299
0
LINE
8
BLACK
6
CONTINUOUS
10
1.7716141732283464
20
-1.4005905511811023
11
1.7716141732283464
21
-1.2824803149606299
0
LINE
8
BLACK
6
CONTINUOUS
10
1.7716141732283464
20
-1.4005905511811023
11
1.8897244094488188
21
-1.4005905511811023
0
LINE
8
BLACK
6
CONTINUOUS
10
1.8503543307086614
20
-0.7903543307086613
11
1.7125590551181102
21
-0.7903543307086613
0
LINE
8
BLACK
6
CONTINUOUS
10
1.8503543307086614
20
-0.8494094488188976
11
1.8503543307086614
21
-0.7903543307086613
0
LINE
8
BLACK
6
CONTINUOUS
10
1.8897244094488188
20
-1.4005905511811023
11
1.8897244094488188
21
-1.4596456692913387
0
LINE
8
BLACK
6
CONTINUOUS
10
1.8897244094488188
20
-1.4596456692913387
11
1.7125590551181102
21
-1.4596456692913387
0
LINE
8
BLACK
6
CONTINUOUS
10
2.2046850393700788
20
-1.4005905511811023
11
2.2046850393700788
21
-1.4596456692913387
0
LINE
8
BLACK
6
CONTINUOUS
10
2.2046850393700788
20
-1.4596456692913387
11
2.3818503937007875
21
-1.4596456692913387
0
LINE
8
BLACK
6
CONTINUOUS
10
2.2440551181102362
20
-0.7903543307086613
11
2.3818503937007875
21
-0.7903543307086613
0
LINE
8
BLACK
6
CONTINUOUS
10
2.2440551181102362
20
-0.8494094488188976
11
2.2440551181102362
21
-0.7903543307086613
0
LINE
8
BLACK
6
CONTINUOUS
10
2.322795275590551
20
-0.8494094488188976
11
2.2440551181102362
21
-0.8494094488188976
0
LINE
8
BLACK
6
CONTINUOUS
10
2.322795275590551
20
-0.8494094488188976
11
2.322795275590551
21
-0.96751968503937
0
LINE
8
BLACK
6
CONTINUOUS
10
2.322795275590551
20
-0.96751968503937
11
2.3818503937007875
21
-0.96751968503937
0
LINE
8
BLACK
6
CONTINUOUS
10
2.322795275590551
20
-1.2824803149606299
11
2.3818503937007875
21
-1.2824803149606299
0
LINE
8
BLACK
6
CONTINUOUS
10
2.322795275590551
20
-1.4005905511811023
11
2.2046850393700788
21
-1.4005905511811023
0
LINE
8
BLACK
6
CONTINUOUS
10
2.322795275590551
20
-1.4005905511811023
11
2.322795275590551
21
-1.2824803149606299
0
LINE
8
BLACK
6
CONTINUOUS
10
2.3818503937007875
20
-0.96751968503937
11
2.3818503937007875
21
-0.7903543307086613
0
LINE
8
BLACK
6
CONTINUOUS
10
2.3818503937007875
20
-1.2824803149606299
11
2.3818503937007875
21
-1.4596456692913387
0
LINE
8
BLACK
6
CONTINUOUS
10
3.6813090551181102
20
-3.9675196850393699
11
3.6813090551181102
21
-3.7903543307086611
0
LINE
8
BLACK
6
CONTINUOUS
10
3.6813090551181102
20
-4.2824803149606296
11
3.6813090551181102
21
-4.4596456692913389
0
LINE
8
BLACK
6
CONTINUOUS
10
3.7403641732283464
20
-3.8494094488188977
11
3.7403641732283464
21
-3.9675196850393699
0
LINE
8
BLACK
6
CONTINUOUS
10
3.7403641732283464
20
-3.8494094488188977
11
3.8191043307086612
21
-3.8494094488188977
0
LINE
8
BLACK
6
CONTINUOUS
10
3.7403641732283464
20
-3.9675196850393699
11
3.6813090551181102
21
-3.9675196850393699
0
LINE
8
BLACK
6
CONTINUOUS
10
3.7403641732283464
20
-4.2824803149606296
11
3.6813090551181102
21
-4.2824803149606296
0
LINE
8
BLACK
6
CONTINUOUS
10
3.7403641732283464
20
-4.4005905511811019
11
3.7403641732283464
21
-4.2824803149606296
0
LINE
8
BLACK
6
CONTINUOUS
10
3.7403641732283464
20
-4.4005905511811019
11
3.858474409448819
21
-4.4005905511811019
0
LINE
8
BLACK
6
CONTINUOUS
10
3.8191043307086612
20
-3.7903543307086611
11
3.6813090551181102
21
-3.7903543307086611
0
LINE
8
BLACK
6
CONTINUOUS
10
3.8191043307086612
20
-3.8494094488188977
11
3.8191043307086612
21
-3.7903543307086611
0
LINE
8
BLACK
6
CONTINUOUS
10
3.858474409448819
20
-4.4005905511811019
11
3.858474409448819
21
-4.4596456692913389
0
LINE
8
BLACK
6
CONTINUOUS
10
3.858474409448819
20
-4.4596456692913389
11
3.6813090551181102
21
-4.4596456692913389
0
LINE
8
BLACK
6
CONTINUOUS
10
4.1734350393700783
20
-4.4005905511811019
11
4.1734350393700783
21
-4.4596456692913389
0
LINE
8
BLACK
6
CONTINUOUS
10
4.1734350393700783
20
-4.4596456692913389
11
4.3506003937007875
21
-4.4596456692913389
0
LINE
8
BLACK
6
CONTINUOUS
10
4.2128051181102357
20
-3.7903543307086611
11
4.3506003937007875
21
-3.7903543307086611
0
LINE
8
BLACK
6
CONTINUOUS
10
4.2128051181102357
20
-3.8494094488188977
11
4.2128051181102357
21
-3.7903543307086611
0
LINE
8
BLACK
6
CONTINUOUS
10
4.2915452755905514
20
-3.8494094488188977
11
4.2128051181102357
21
-3.8494094488188977
0
LINE
8
BLACK
6
CONTINUOUS
10
4.2915452755905514
20
-3.8494094488188977
11
4.2915452755905514
21
-3.9675196850393699
0
LINE
8
BLACK
6
CONTINUOUS
10
4.2915452755905514
20
-3.9675196850393699
11
4.3506003937007875
21
-3.9675196850393699
0
LINE
8
BLACK
6
CONTINUOUS
10
4.2915452755905514
20
-4.2824803149606296
11
4.3506003937007875
21
-4.2824803149606296
0
LINE
8
BLACK
6
CONTINUOUS
10
4.2915452755905514
20
-4.4005905511811019
11
4.1734350393700783
21
-4.4005905511811019
0
LINE
8
BLACK
6
CONTINUOUS
10
4.2915452755905514
20
-4.4005905511811019
11
4.2915452755905514
21
-4.2824803149606296
0
LINE
8
BLACK
6
CONTINUOUS
10
4.3506003937007875
20
-3.9675196850393699
11
4.3506003937007875
21
-3.7903543307086611
0
LINE
8
BLACK
6
CONTINUOUS
10
4.3506003937007875
20
-4.2824803149606296
11
4.3506003937007875
21
-4.4596456692913389
0
LINE
8
BLACK
6
CONTINUOUS
10
0.9625590551181102
20
-3.9675196850393699
11
0.9625590551181102
21
-3.7903543307086611
0
LINE
8
BLACK
6
CONTINUOUS
10
0.9625590551181102
20
-4.2824803149606296
11
0.9625590551181102
21
-4.4596456692913389
0
LINE
8
BLACK
6
CONTINUOUS
10
1.0216141732283464
20
-3.8494094488188977
11
1.0216141732283464
21
-3.9675196850393699
0
LINE
8
BLACK
6
CONTINUOUS
10
1.0216141732283464
20
-3.8494094488188977
11
1.1003543307086614
21
-3.8494094488188977
0
LINE
8
BLACK
6
CONTINUOUS
10
1.0216141732283464
20
-3.9675196850393699
11
0.9625590551181102
21
-3.9675196850393699
0
LINE
8
BLACK
6
CONTINUOUS
10
1.0216141732283464
20
-4.2824803149606296
11
0.9625590551181102
21
-4.2824803149606296
0
LINE
8
BLACK
6
CONTINUOUS
10
1.0216141732283464
20
-4.4005905511811019
11
1.0216141732283464
21
-4.2824803149606296
0
LINE
8
BLACK
6
CONTINUOUS
10
1.0216141732283464
20
-4.4005905511811019
11
1.1397244094488188
21
-4.4005905511811019
0
LINE
8
BLACK
6
CONTINUOUS
10
1.1003543307086614
20
-3.7903543307086611
11
0.9625590551181102
21
-3.7903543307086611
0
LINE
8
BLACK
6
CONTINUOUS
10
1.1003543307086614
20
-3.8494094488188977
11
1.1003543307086614
21
-3.7903543307086611
0
LINE
8
BLACK
6
CONTINUOUS
10
1.1397244094488188
20
-4.4005905511811019
11
1.1397244094488188
21
-4.4596456692913389
0
LINE
8
BLACK
6
CONTINUOUS
10
1.1397244094488188
20
-4.4596456692913389
11
0.9625590551181102
21
-4.4596456692913389
0
LINE
8
BLACK
6
CONTINUOUS
10
1.4546850393700788
20
-4.4005905511811019
11
1.4546850393700788
21
-4.4596456692913389
0
LINE
8
BLACK
6
CONTINUOUS
10
1.4546850393700788
20
-4.4596456692913389
11
1.6318503937007873
21
-4.4596456692913389
0
LINE
8
BLACK
6
CONTINUOUS
10
1.4940551181102362
20
-3.7903543307086611
11
1.6318503937007873
21
-3.7903543307086611
0
LINE
8
BLACK
6
CONTINUOUS
10
1.4940551181102362
20
-3.8494094488188977
11
1.4940551181102362
21
-3.7903543307086611
0
LINE
8
BLACK
6
CONTINUOUS
10
1.5727952755905512
20
-3.8494094488188977
11
1.4940551181102362
21
-3.8494094488188977
0
LINE
8
BLACK
6
CONTINUOUS
10
1.5727952755905512
20
-3.8494094488188977
11
1.5727952755905512
21
-3.9675196850393699
0
LINE
8
BLACK
6
CONTINUOUS
10
1.5727952755905512
20
-3.9675196850393699
11
1.6318503937007873
21
-3.9675196850393699
0
LINE
8
BLACK
6
CONTINUOUS
10
1.5727952755905512
20
-4.2824803149606296
11
1.6318503937007873
21
-4.2824803149606296
0
LINE
8
BLACK
6
CONTINUOUS
10
1.5727952755905512
20
-4.4005905511811019
11
1.4546850393700788
21
-4.4005905511811019
0
LINE
8
BLACK
6
CONTINUOUS
10
1.5727952755905512
20
-4.4005905511811019
11
1.5727952755905512
21
-4.2824803149606296
0
LINE
8
BLACK
6
CONTINUOUS
10
1.6318503937007873
20
-3.9675196850393699
11
1.6318503937007873
21
-3.7903543307086611
0
LINE
8
BLACK
6
CONTINUOUS
10
1.6318503937007873
20
-4.2824803149606296
11
1.6318503937007873
21
-4.4596456692913389
0
LINE
8
BLACK
6
CONTINUOUS
10
3.2125590551181102
20
-0.2175196850393701
11
3.2125590551181102
21
-0.0403543307086614
0
LINE
8
BLACK
6
CONTINUOUS
10
3.2125590551181102
20
-0.5324803149606299
11
3.2125590551181102
21
-0.7096456692913385
0
LINE
8
BLACK
6
CONTINUOUS
10
3.2716141732283464
20
-0.0994094488188976
11
3.2716141732283464
21
-0.2175196850393701
0
LINE
8
BLACK
6
CONTINUOUS
10
3.2716141732283464
20
-0.0994094488188976
11
3.3503543307086612
21
-0.0994094488188976
0
LINE
8
BLACK
6
CONTINUOUS
10
3.2716141732283464
20
-0.2175196850393701
11
3.2125590551181102
21
-0.2175196850393701
0
LINE
8
BLACK
6
CONTINUOUS
10
3.2716141732283464
20
-0.5324803149606299
11
3.2125590551181102
21
-0.5324803149606299
0
LINE
8
BLACK
6
CONTINUOUS
10
3.2716141732283464
20
-0.6505905511811023
11
3.2716141732283464
21
-0.5324803149606299
0
LINE
8
BLACK
6
CONTINUOUS
10
3.2716141732283464
20
-0.6505905511811023
11
3.389724409448819
21
-0.6505905511811023
0
LINE
8
BLACK
6
CONTINUOUS
10
3.3503543307086612
20
-0.0403543307086614
11
3.2125590551181102
21
-0.0403543307086614
0
LINE
8
BLACK
6
CONTINUOUS
10
3.3503543307086612
20
-0.0994094488188976
11
3.3503543307086612
21
-0.0403543307086614
0
LINE
8
BLACK
6
CONTINUOUS
10
3.389724409448819
20
-0.6505905511811023
11
3.389724409448819
21
-0.7096456692913385
0
LINE
8
BLACK
6
CONTINUOUS
10
3.389724409448819
20
-0.7096456692913385
11
3.2125590551181102
21
-0.7096456692913385
0
LINE
8
BLACK
6
CONTINUOUS
10
3.7046850393700788
20
-0.6505905511811023
11
3.7046850393700788
21
-0.7096456692913385
0
LINE
8
BLACK
6
CONTINUOUS
10
3.7046850393700788
20
-0.7096456692913385
11
3.8818503937007871
21
-0.7096456692913385
0
LINE
8
BLACK
6
CONTINUOUS
10
3.7440551181102362
20
-0.0403543307086614
11
3.8818503937007871
21
-0.0403543307086614
0
LINE
8
BLACK
6
CONTINUOUS
10
3.7440551181102362
20
-0.0994094488188976
11
3.7440551181102362
21
-0.0403543307086614
0
LINE
8
BLACK
6
CONTINUOUS
10
3.822795275590551
20
-0.0994094488188976
11
3.7440551181102362
21
-0.0994094488188976
0
LINE
8
BLACK
6
CONTINUOUS
10
3.822795275590551
20
-0.0994094488188976
11
3.822795275590551
21
-0.2175196850393701
0
LINE
8
BLACK
6
CONTINUOUS
10
3.822795275590551
20
-0.2175196850393701
11
3.8818503937007871
21
-0.2175196850393701
0
LINE
8
BLACK
6
CONTINUOUS
10
3.822795275590551
20
-0.5324803149606299
11
3.8818503937007871
21
-0.5324803149606299
0
LINE
8
BLACK
6
CONTINUOUS
10
3.822795275590551
20
-0.6505905511811023
11
3.7046850393700788
21
-0.6505905511811023
0
LINE
8
BLACK
6
CONTINUOUS
10
3.822795275590551
20
-0.6505905511811023
11
3.822795275590551
21
-0.5324803149606299
0
LINE
8
BLACK
6
CONTINUOUS
10
3.8818503937007871
20
-0.2175196850393701
11
3.8818503937007871
21
-0.0403543307086614
0
LINE
8
BLACK
6
CONTINUOUS
10
3.8818503937007871
20
-0.5324803149606299
11
3.8818503937007871
21
-0.7096456692913385
0
LINE
8
BLACK
6
CONTINUOUS
10
1.4313090551181102
20
-3.2175196850393699
11
1.4313090551181102
21
-3.0403543307086616
0
LINE
8
BLACK
6
CONTINUOUS
10
1.4313090551181102
20
-3.5324803149606296
11
1.4313090551181102
21
-3.7096456692913384
0
LINE
8
BLACK
6
CONTINUOUS
10
1.4903641732283464
20
-3.0994094488188977
11
1.4903641732283464
21
-3.2175196850393699
0
LINE
8
BLACK
6
CONTINUOUS
10
1.4903641732283464
20
-3.0994094488188977
11
1.5691043307086614
21
-3.0994094488188977
0
LINE
8
BLACK
6
CONTINUOUS
10
1.4903641732283464
20
-3.2175196850393699
11
1.4313090551181102
21
-3.2175196850393699
0
LINE
8
BLACK
6
CONTINUOUS
10
1.4903641732283464
20
-3.5324803149606296
11
1.4313090551181102
21
-3.5324803149606296
0
LINE
8
BLACK
6
CONTINUOUS
10
1.4903641732283464
20
-3.6505905511811023
11
1.4903641732283464
21
-3.5324803149606296
0
LINE
8
BLACK
6
CONTINUOUS
10
1.4903641732283464
20
-3.6505905511811023
11
1.6084744094488188
21
-3.6505905511811023
0
LINE
8
BLACK
6
CONTINUOUS
10
1.5691043307086614
20
-3.0403543307086616
11
1.4313090551181102
21
-3.0403543307086616
0
LINE
8
BLACK
6
CONTINUOUS
10
1.5691043307086614
20
-3.0994094488188977
11
1.5691043307086614
21
-3.0403543307086616
0
LINE
8
BLACK
6
CONTINUOUS
10
1.6084744094488188
20
-3.6505905511811023
11
1.6084744094488188
21
-3.7096456692913384
0
LINE
8
BLACK
6
CONTINUOUS
10
1.6084744094488188
20
-3.7096456692913384
11
1.4313090551181102
21
-3.7096456692913384
0
LINE
8
BLACK
6
CONTINUOUS
10
1.9234350393700788
20
-3.6505905511811023
11
1.9234350393700788
21
-3.7096456692913384
0
LINE
8
BLACK
6
CONTINUOUS
10
1.9234350393700788
20
-3.7096456692913384
11
2.1006003937007875
21
-3.7096456692913384
0
LINE
8
BLACK
6
CONTINUOUS
10
1.9628051181102362
20
-3.0403543307086616
11
2.1006003937007875
21
-3.0403543307086616
0
LINE
8
BLACK
6
CONTINUOUS
10
1.9628051181102362
20
-3.0994094488188977
11
1.9628051181102362
21
-3.0403543307086616
0
LINE
8
BLACK
6
CONTINUOUS
10
2.041545275590551
20
-3.0994094488188977
11
1.9628051181102362
21
-3.0994094488188977
0
LINE
8
BLACK
6
CONTINUOUS
10
2.041545275590551
20
-3.0994094488188977
11
2.041545275590551
21
-3.2175196850393699
0
LINE
8
BLACK
6
CONTINUOUS
10
2.041545275590551
20
-3.2175196850393699
11
2.1006003937007875
21
-3.2175196850393699
0
LINE
8
BLACK
6
CONTINUOUS
10
2.041545275590551
20
-3.5324803149606296
11
2.1006003937007875
21
-3.5324803149606296
0
LINE
8
BLACK
6
CONTINUOUS
10
2.041545275590551
20
-3.6505905511811023
11
1.9234350393700788
21
-3.6505905511811023
0
LINE
8
BLACK
6
CONTINUOUS
10
2.041545275590551
20
-3.6505905511811023
11
2.041545275590551
21
-3.5324803149606296
0
LINE
8
BLACK
6
CONTINUOUS
10
2.1006003937007875
20
-3.2175196850393699
11
2.1006003937007875
21
-3.0403543307086616
0
LINE
8
BLACK
6
CONTINUOUS
10
2.1006003937007875
20
-3.5324803149606296
11
2.1006003937007875
21
-3.7096456692913384
0
LINE
8
BLACK
6
CONTINUOUS
10
4.3375590551181098
20
-1.7175196850393701
11
4.3375590551181098
21
-1.5403543307086613
0
LINE
8
BLACK
6
CONTINUOUS
10
4.3375590551181098
20
-2.0324803149606301
11
4.3375590551181098
21
-2.2096456692913384
0
LINE
8
BLACK
6
CONTINUOUS
10
4.3966141732283468
20
-1.5994094488188977
11
4.3966141732283468
21
-1.7175196850393701
0
LINE
8
BLACK
6
CONTINUOUS
10
4.3966141732283468
20
-1.5994094488188977
11
4.4753543307086616
21
-1.5994094488188977
0
LINE
8
BLACK
6
CONTINUOUS
10
4.3966141732283468
20
-1.7175196850393701
11
4.3375590551181098
21
-1.7175196850393701
0
LINE
8
BLACK
6
CONTINUOUS
10
4.3966141732283468
20
-2.0324803149606301
11
4.3375590551181098
21
-2.0324803149606301
0
LINE
8
BLACK
6
CONTINUOUS
10
4.3966141732283468
20
-2.1505905511811023
11
4.3966141732283468
21
-2.0324803149606301
0
LINE
8
BLACK
6
CONTINUOUS
10
4.3966141732283468
20
-2.1505905511811023
11
4.514724409448819
21
-2.1505905511811023
0
LINE
8
BLACK
6
CONTINUOUS
10
4.4753543307086616
20
-1.5403543307086613
11
4.3375590551181098
21
-1.5403543307086613
0
LINE
8
BLACK
6
CONTINUOUS
10
4.4753543307086616
20
-1.5994094488188977
11
4.4753543307086616
21
-1.5403543307086613
0
LINE
8
BLACK
6
CONTINUOUS
10
4.514724409448819
20
-2.1505905511811023
11
4.514724409448819
21
-2.2096456692913384
0
LINE
8
BLACK
6
CONTINUOUS
10
4.514724409448819
20
-2.2096456692913384
11
4.3375590551181098
21
-2.2096456692913384
0
LINE
8
BLACK
6
CONTINUOUS
10
4.8296850393700783
20
-2.1505905511811023
11
4.8296850393700783
21
-2.2096456692913384
0
LINE
8
BLACK
6
CONTINUOUS
10
4.8296850393700783
20
-2.2096456692913384
11
5.0068503937007875
21
-2.2096456692913384
0
LINE
8
BLACK
6
CONTINUOUS
10
4.8690551181102357
20
-1.5403543307086613
11
5.0068503937007875
21
-1.5403543307086613
0
LINE
8
BLACK
6
CONTINUOUS
10
4.8690551181102357
20
-1.5994094488188977
11
4.8690551181102357
21
-1.5403543307086613
0
LINE
8
BLACK
6
CONTINUOUS
10
4.9477952755905514
20
-1.5994094488188977
11
4.8690551181102357
21
-1.5994094488188977
0
LINE
8
BLACK
6
CONTINUOUS
10
4.9477952755905514
20
-1.5994094488188977
11
4.9477952755905514
21
-1.7175196850393701
0
LINE
8
BLACK
6
CONTINUOUS
10
4.9477952755905514
20
-1.7175196850393701
11
5.0068503937007875
21
-1.7175196850393701
0
LINE
8
BLACK
6
CONTINUOUS
10
4.9477952755905514
20
-2.0324803149606301
11
5.0068503937007875
21
-2.0324803149606301
0
LINE
8
BLACK
6
CONTINUOUS
10
4.9477952755905514
20
-2.1505905511811023
11
4.8296850393700783
21
-2.1505905511811023
0
LINE
8
BLACK
6
CONTINUOUS
10
4.9477952755905514
20
-2.1505905511811023
11
4.9477952755905514
21
-2.0324803149606301
0
LINE
8
BLACK
6
CONTINUOUS
10
5.0068503937007875
20
-1.7175196850393701
11
5.0068503937007875
21
-1.5403543307086613
0
LINE
8
BLACK
6
CONTINUOUS
10
5.0068503937007875
20
-2.0324803149606301
11
5.0068503937007875
21
-2.2096456692913384
0
LINE
8
BLACK
6
CONTINUOUS
10
2.6500590551181102
20
-3.2175196850393699
11
2.6500590551181102
21
-3.0403543307086616
0
LINE
8
BLACK
6
CONTINUOUS
10
2.6500590551181102
20
-3.5324803149606296
11
2.6500590551181102
21
-3.7096456692913384
0
LINE
8
BLACK
6
CONTINUOUS
10
2.7091141732283464
20
-3.0994094488188977
11
2.7091141732283464
21
-3.2175196850393699
0
LINE
8
BLACK
6
CONTINUOUS
10
2.7091141732283464
20
-3.0994094488188977
11
2.7878543307086612
21
-3.0994094488188977
0
LINE
8
BLACK
6
CONTINUOUS
10
2.7091141732283464
20
-3.2175196850393699
11
2.6500590551181102
21
-3.2175196850393699
0
LINE
8
BLACK
6
CONTINUOUS
10
2.7091141732283464
20
-3.5324803149606296
11
2.6500590551181102
21
-3.5324803149606296
0
LINE
8
BLACK
6
CONTINUOUS
10
2.7091141732283464
20
-3.6505905511811023
11
2.7091141732283464
21
-3.5324803149606296
0
LINE
8
BLACK
6
CONTINUOUS
10
2.7091141732283464
20
-3.6505905511811023
11
2.827224409448819
21
-3.6505905511811023
0
LINE
8
BLACK
6
CONTINUOUS
10
2.7878543307086612
20
-3.0403543307086616
11
2.6500590551181102
21
-3.0403543307086616
0
LINE
8
BLACK
6
CONTINUOUS
10
2.7878543307086612
20
-3.0994094488188977
11
2.7878543307086612
21
-3.0403543307086616
0
LINE
8
BLACK
6
CONTINUOUS
10
2.827224409448819
20
-3.6505905511811023
11
2.827224409448819
21
-3.7096456692913384
0
LINE
8
BLACK
6
CONTINUOUS
10
2.827224409448819
20
-3.7096456692913384
11
2.6500590551181102
21
-3.7096456692913384
0
LINE
8
BLACK
6
CONTINUOUS
10
3.1421850393700788
20
-3.6505905511811023
11
3.1421850393700788
21
-3.7096456692913384
0
LINE
8
BLACK
6
CONTINUOUS
10
3.1421850393700788
20
-3.7096456692913384
11
3.3193503937007871
21
-3.7096456692913384
0
LINE
8
BLACK
6
CONTINUOUS
10
3.1815551181102362
20
-3.0403543307086616
11
3.3193503937007871
21
-3.0403543307086616
0
LINE
8
BLACK
6
CONTINUOUS
10
3.1815551181102362
20
-3.0994094488188977
11
3.1815551181102362
21
-3.0403543307086616
0
LINE
8
BLACK
6
CONTINUOUS
10
3.260295275590551
20
-3.0994094488188977
11
3.1815551181102362
21
-3.0994094488188977
0
LINE
8
BLACK
6
CONTINUOUS
10
3.260295275590551
20
-3.0994094488188977
11
3.260295275590551
21
-3.2175196850393699
0
LINE
8
BLACK
6
CONTINUOUS
10
3.260295275590551
20
-3.2175196850393699
11
3.3193503937007871
21
-3.2175196850393699
0
LINE
8
BLACK
6
CONTINUOUS
10
3.260295275590551
20
-3.5324803149606296
11
3.3193503937007871
21
-3.5324803149606296
0
LINE
8
BLACK
6
CONTINUOUS
10
3.260295275590551
20
-3.6505905511811023
11
3.1421850393700788
21
-3.6505905511811023
0
LINE
8
BLACK
6
CONTINUOUS
10
3.260295275590551
20
-3.6505905511811023
11
3.260295275590551
21
-3.5324803149606296
0
LINE
8
BLACK
6
CONTINUOUS
10
3.3193503937007871
20
-3.2175196850393699
11
3.3193503937007871
21
-3.0403543307086616
0
LINE
8
BLACK
6
CONTINUOUS
10
3.3193503937007871
20
-3.5324803149606296
11
3.3193503937007871
21
-3.7096456692913384
0
LINE
8
BLACK
6
CONTINUOUS
10
4.7125590551181098
20
-0.96751968503937
11
4.7125590551181098
21
-0.7903543307086613
0
LINE
8
BLACK
6
CONTINUOUS
10
4.7125590551181098
20
-1.2824803149606299
11
4.7125590551181098
21
-1.4596456692913387
0
LINE
8
BLACK
6
CONTINUOUS
10
4.7716141732283459
20
-0.8494094488188976
11
4.7716141732283459
21
-0.96751968503937
0
LINE
8
BLACK
6
CONTINUOUS
10
4.7716141732283459
20
-0.8494094488188976
11
4.8503543307086616
21
-0.8494094488188976
0
LINE
8
BLACK
6
CONTINUOUS
10
4.7716141732283459
20
-0.96751968503937
11
4.7125590551181098
21
-0.96751968503937
0
LINE
8
BLACK
6
CONTINUOUS
10
4.7716141732283459
20
-1.2824803149606299
11
4.7125590551181098
21
-1.2824803149606299
0
LINE
8
BLACK
6
CONTINUOUS
10
4.7716141732283459
20
-1.4005905511811023
11
4.7716141732283459
21
-1.2824803149606299
0
LINE
8
BLACK
6
CONTINUOUS
10
4.7716141732283459
20
-1.4005905511811023
11
4.889724409448819
21
-1.4005905511811023
0
LINE
8
BLACK
6
CONTINUOUS
10
4.8503543307086616
20
-0.7903543307086613
11
4.7125590551181098
21
-0.7903543307086613
0
LINE
8
BLACK
6
CONTINUOUS
10
4.8503543307086616
20
-0.8494094488188976
11
4.8503543307086616
21
-0.7903543307086613
0
LINE
8
BLACK
6
CONTINUOUS
10
4.889724409448819
20
-1.4005905511811023
11
4.889724409448819
21
-1.4596456692913387
0
LINE
8
BLACK
6
CONTINUOUS
10
4.889724409448819
20
-1.4596456692913387
11
4.7125590551181098
21
-1.4596456692913387
0
LINE
8
BLACK
6
CONTINUOUS
10
5.2046850393700783
20
-1.4005905511811023
11
5.2046850393700783
21
-1.4596456692913387
0
LINE
8
BLACK
6
CONTINUOUS
10
5.2046850393700783
20
-1.4596456692913387
11
5.3818503937007875
21
-1.4596456692913387
0
LINE
8
BLACK
6
CONTINUOUS
10
5.2440551181102357
20
-0.7903543307086613
11
5.3818503937007875
21
-0.7903543307086613
0
LINE
8
BLACK
6
CONTINUOUS
10
5.2440551181102357
20
-0.8494094488188976
11
5.2440551181102357
21
-0.7903543307086613
0
LINE
8
BLACK
6
CONTINUOUS
10
5.3227952755905514
20
-0.8494094488188976
11
5.2440551181102357
21
-0.8494094488188976
0
LINE
8
BLACK
6
CONTINUOUS
10
5.3227952755905514
20
-0.8494094488188976
11
5.3227952755905514
21
-0.96751968503937
0
LINE
8
BLACK
6
CONTINUOUS
10
5.3227952755905514
20
-0.96751968503937
11
5.3818503937007875
21
-0.96751968503937
0
LINE
8
BLACK
6
CONTINUOUS
10
5.3227952755905514
20
-1.2824803149606299
11
5.3818503937007875
21
-1.2824803149606299
0
LINE
8
BLACK
6
CONTINUOUS
10
5.3227952755905514
20
-1.4005905511811023
11
5.2046850393700783
21
-1.4005905511811023
0
LINE
8
BLACK
6
CONTINUOUS
10
5.3227952755905514
20
-1.4005905511811023
11
5.3227952755905514
21
-1.2824803149606299
0
LINE
8
BLACK
6
CONTINUOUS
10
5.3818503937007875
20
-0.96751968503937
11
5.3818503937007875
21
-0.7903543307086613
0
LINE
8
BLACK
6
CONTINUOUS
10
5.3818503937007875
20
-1.2824803149606299
11
5.3818503937007875
21
-1.4596456692913387
0
LINE
8
BLACK
6
CONTINUOUS
10
1.7125590551181102
20
-0.2175196850393701
11
1.7125590551181102
21
-0.0403543307086614
0
LINE
8
BLACK
6
CONTINUOUS
10
1.7125590551181102
20
-0.5324803149606299
11
1.7125590551181102
21
-0.7096456692913385
0
LINE
8
BLACK
6
CONTINUOUS
10
1.7716141732283464
20
-0.0994094488188976
11
1.7716141732283464
21
-0.2175196850393701
0
LINE
8
BLACK
6
CONTINUOUS
10
1.7716141732283464
20
-0.0994094488188976
11
1.8503543307086614
21
-0.0994094488188976
0
LINE
8
BLACK
6
CONTINUOUS
10
1.7716141732283464
20
-0.2175196850393701
11
1.7125590551181102
21
-0.2175196850393701
0
LINE
8
BLACK
6
CONTINUOUS
10
1.7716141732283464
20
-0.5324803149606299
11
1.7125590551181102
21
-0.5324803149606299
0
LINE
8
BLACK
6
CONTINUOUS
10
1.7716141732283464
20
-0.6505905511811023
11
1.7716141732283464
21
-0.5324803149606299
0
LINE
8
BLACK
6
CONTINUOUS
10
1.7716141732283464
20
-0.6505905511811023
11
1.8897244094488188
21
-0.6505905511811023
0
LINE
8
BLACK
6
CONTINUOUS
10
1.8503543307086614
20
-0.0403543307086614
11
1.7125590551181102
21
-0.0403543307086614
0
LINE
8
BLACK
6
CONTINUOUS
10
1.8503543307086614
20
-0.0994094488188976
11
1.8503543307086614
21
-0.0403543307086614
0
LINE
8
BLACK
6
CONTINUOUS
10
1.8897244094488188
20
-0.6505905511811023
11
1.8897244094488188
21
-0.7096456692913385
0
LINE
8
BLACK
6
CONTINUOUS
10
1.8897244094488188
20
-0.7096456692913385
11
1.7125590551181102
21
-0.7096456692913385
0
LINE
8
BLACK
6
CONTINUOUS
10
2.2046850393700788
20
-0.6505905511811023
11
2.2046850393700788
21
-0.7096456692913385
0
LINE
8
BLACK
6
CONTINUOUS
10
2.2046850393700788
20
-0.7096456692913385
11
2.3818503937007875
21
-0.7096456692913385
0
LINE
8
BLACK
6
CONTINUOUS
10
2.2440551181102362
20
-0.0403543307086614
11
2.3818503937007875
21
-0.0403543307086614
0
LINE
8
BLACK
6
CONTINUOUS
10
2.2440551181102362
20
-0.0994094488188976
11
2.2440551181102362
21
-0.0403543307086614
0
LINE
8
BLACK
6
CONTINUOUS
10
2.322795275590551
20
-0.0994094488188976
11
2.2440551181102362
21
-0.0994094488188976
0
LINE
8
BLACK
6
CONTINUOUS
10
2.322795275590551
20
-0.0994094488188976
11
2.322795275590551
21
-0.2175196850393701
0
LINE
8
BLACK
6
CONTINUOUS
10
2.322795275590551
20
-0.2175196850393701
11
2.3818503937007875
21
-0.2175196850393701
0
LINE
8
BLACK
6
CONTINUOUS
10
2.322795275590551
20
-0.5324803149606299
11
2.3818503937007875
21
-0.5324803149606299
0
LINE
8
BLACK
6
CONTINUOUS
10
2.322795275590551
20
-0.6505905511811023
11
2.2046850393700788
21
-0.6505905511811023
0
LINE
8
BLACK
6
CONTINUOUS
10
2.322795275590551
20
-0.6505905511811023
11
2.322795275590551
21
-0.5324803149606299
0
LINE
8
BLACK
6
CONTINUOUS
10
2.3818503937007875
20
-0.2175196850393701
11
2.3818503937007875
21
-0.0403543307086614
0
LINE
8
BLACK
6
CONTINUOUS
10
2.3818503937007875
20
-0.5324803149606299
11
2.3818503937007875
21
-0.7096456692913385
0
LINE
8
BLACK
6
CONTINUOUS
10
4.7125590551181098
20
-0.2175196850393701
11
4.7125590551181098
21
-0.0403543307086614
0
LINE
8
BLACK
6
CONTINUOUS
10
4.7125590551181098
20
-0.5324803149606299
11
4.7125590551181098
21
-0.7096456692913385
0
LINE
8
BLACK
6
CONTINUOUS
10
4.7716141732283459
20
-0.0994094488188976
11
4.7716141732283459
21
-0.2175196850393701
0
LINE
8
BLACK
6
CONTINUOUS
10
4.7716141732283459
20
-0.0994094488188976
11
4.8503543307086616
21
-0.0994094488188976
0
LINE
8
BLACK
6
CONTINUOUS
10
4.7716141732283459
20
-0.2175196850393701
11
4.7125590551181098
21
-0.2175196850393701
0
LINE
8
BLACK
6
CONTINUOUS
10
4.7716141732283459
20
-0.5324803149606299
11
4.7125590551181098
21
-0.5324803149606299
0
LINE
8
BLACK
6
CONTINUOUS
10
4.7716141732283459
20
-0.6505905511811023
11
4.7716141732283459
21
-0.5324803149606299
0
LINE
8
BLACK
6
CONTINUOUS
10
4.7716141732283459
20
-0.6505905511811023
11
4.889724409448819
21
-0.6505905511811023
0
LINE
8
BLACK
6
CONTINUOUS
10
4.8503543307086616
20
-0.0403543307086614
11
4.7125590551181098
21
-0.0403543307086614
0
LINE
8
BLACK
6
CONTINUOUS
10
4.8503543307086616
20
-0.0994094488188976
11
4.8503543307086616
21
-0.0403543307086614
0
LINE
8
BLACK
6
CONTINUOUS
10
4.889724409448819
20
-0.6505905511811023
11
4.889724409448819
21
-0.7096456692913385
0
LINE
8
BLACK
6
CONTINUOUS
10
4.889724409448819
20
-0.7096456692913385
11
4.7125590551181098
21
-0.7096456692913385
0
LINE
8
BLACK
6
CONTINUOUS
10
5.2046850393700783
20
-0.6505905511811023
11
5.2046850393700783
21
-0.7096456692913385
0
LINE
8
BLACK
6
CONTINUOUS
10
5.2046850393700783
20
-0.7096456692913385
11
5.3818503937007875
21
-0.7096456692913385
0
LINE
8
BLACK
6
CONTINUOUS
10
5.2440551181102357
20
-0.0403543307086614
11
5.3818503937007875
21
-0.0403543307086614
0
LINE
8
BLACK
6
CONTINUOUS
10
5.2440551181102357
20
-0.0994094488188976
11
5.2440551181102357
21
-0.0403543307086614
0
LINE
8
BLACK
6
CONTINUOUS
10
5.3227952755905514
20
-0.0994094488188976
11
5.2440551181102357
21
-0.0994094488188976
0
LINE
8
BLACK
6
CONTINUOUS
10
5.3227952755905514
20
-0.0994094488188976
11
5.3227952755905514
21
-0.2175196850393701
0
LINE
8
BLACK
6
CONTINUOUS
10
5.3227952755905514
20
-0.2175196850393701
11
5.3818503937007875
21
-0.2175196850393701
0
LINE
8
BLACK
6
CONTINUOUS
10
5.3227952755905514
20
-0.5324803149606299
11
5.3818503937007875
21
-0.5324803149606299
0
LINE
8
BLACK
6
CONTINUOUS
10
5.3227952755905514
20
-0.6505905511811023
11
5.2046850393700783
21
-0.6505905511811023
0
LINE
8
BLACK
6
CONTINUOUS
10
5.3227952755905514
20
-0.6505905511811023
11
5.3227952755905514
21
-0.5324803149606299
0
LINE
8
BLACK
6
CONTINUOUS
10
5.3818503937007875
20
-0.2175196850393701
11
5.3818503937007875
21
-0.0403543307086614
0
LINE
8
BLACK
6
CONTINUOUS
10
5.3818503937007875
20
-0.5324803149606299
11
5.3818503937007875
21
-0.7096456692913385
0
LINE
8
BLACK
6
CONTINUOUS
10
3.9625590551181102
20
-0.2175196850393701
11
3.9625590551181102
21
-0.0403543307086614
0
LINE
8
BLACK
6
CONTINUOUS
10
3.9625590551181102
20
-0.5324803149606299
11
3.9625590551181102
21
-0.7096456692913385
0
LINE
8
BLACK
6
CONTINUOUS
10
4.0216141732283468
20
-0.0994094488188976
11
4.0216141732283468
21
-0.2175196850393701
0
LINE
8
BLACK
6
CONTINUOUS
10
4.0216141732283468
20
-0.0994094488188976
11
4.1003543307086616
21
-0.0994094488188976
0
LINE
8
BLACK
6
CONTINUOUS
10
4.0216141732283468
20
-0.2175196850393701
11
3.9625590551181102
21
-0.2175196850393701
0
LINE
8
BLACK
6
CONTINUOUS
10
4.0216141732283468
20
-0.5324803149606299
11
3.9625590551181102
21
-0.5324803149606299
0
LINE
8
BLACK
6
CONTINUOUS
10
4.0216141732283468
20
-0.6505905511811023
11
4.0216141732283468
21
-0.5324803149606299
0
LINE
8
BLACK
6
CONTINUOUS
10
4.0216141732283468
20
-0.6505905511811023
11
4.139724409448819
21
-0.6505905511811023
0
LINE
8
BLACK
6
CONTINUOUS
10
4.1003543307086616
20
-0.0403543307086614
11
3.9625590551181102
21
-0.0403543307086614
0
LINE
8
BLACK
6
CONTINUOUS
10
4.1003543307086616
20
-0.0994094488188976
11
4.1003543307086616
21
-0.0403543307086614
0
LINE
8
BLACK
6
CONTINUOUS
10
4.139724409448819
20
-0.6505905511811023
11
4.139724409448819
21
-0.7096456692913385
0
LINE
8
BLACK
6
CONTINUOUS
10
4.139724409448819
20
-0.7096456692913385
11
3.9625590551181102
21
-0.7096456692913385
0
LINE
8
BLACK
6
CONTINUOUS
10
4.4546850393700783
20
-0.6505905511811023
11
4.4546850393700783
21
-0.7096456692913385
0
LINE
8
BLACK
6
CONTINUOUS
10
4.4546850393700783
20
-0.7096456692913385
11
4.6318503937007875
21
-0.7096456692913385
0
LINE
8
BLACK
6
CONTINUOUS
10
4.4940551181102357
20
-0.0403543307086614
11
4.6318503937007875
21
-0.0403543307086614
0
LINE
8
BLACK
6
CONTINUOUS
10
4.4940551181102357
20
-0.0994094488188976
11
4.4940551181102357
21
-0.0403543307086614
0
LINE
8
BLACK
6
CONTINUOUS
10
4.5727952755905514
20
-0.0994094488188976
11
4.4940551181102357
21
-0.0994094488188976
0
LINE
8
BLACK
6
CONTINUOUS
10
4.5727952755905514
20
-0.0994094488188976
11
4.5727952755905514
21
-0.2175196850393701
0
LINE
8
BLACK
6
CONTINUOUS
10
4.5727952755905514
20
-0.2175196850393701
11
4.6318503937007875
21
-0.2175196850393701
0
LINE
8
BLACK
6
CONTINUOUS
10
4.5727952755905514
20
-0.5324803149606299
11
4.6318503937007875
21
-0.5324803149606299
0
LINE
8
BLACK
6
CONTINUOUS
10
4.5727952755905514
20
-0.6505905511811023
11
4.4546850393700783
21
-0.6505905511811023
0
LINE
8
BLACK
6
CONTINUOUS
10
4.5727952755905514
20
-0.6505905511811023
11
4.5727952755905514
21
-0.5324803149606299
0
LINE
8
BLACK
6
CONTINUOUS
10
4.6318503937007875
20
-0.2175196850393701
11
4.6318503937007875
21
-0.0403543307086614
0
LINE
8
BLACK
6
CONTINUOUS
10
4.6318503937007875
20
-0.5324803149606299
11
4.6318503937007875
21
-0.7096456692913385
0
LINE
8
BLACK
6
CONTINUOUS
10
5.2750590551181098
20
-2.4675196850393699
11
5.2750590551181098
21
-2.2903543307086616
0
LINE
8
BLACK
6
CONTINUOUS
10
5.2750590551181098
20
-2.7824803149606296
11
5.2750590551181098
21
-2.9596456692913384
0
LINE
8
BLACK
6
CONTINUOUS
10
5.3341141732283459
20
-2.3494094488188977
11
5.3341141732283459
21
-2.4675196850393699
0
LINE
8
BLACK
6
CONTINUOUS
10
5.3341141732283459
20
-2.3494094488188977
11
5.4128543307086616
21
-2.3494094488188977
0
LINE
8
BLACK
6
CONTINUOUS
10
5.3341141732283459
20
-2.4675196850393699
11
5.2750590551181098
21
-2.4675196850393699
0
LINE
8
BLACK
6
CONTINUOUS
10
5.3341141732283459
20
-2.7824803149606296
11
5.2750590551181098
21
-2.7824803149606296
0
LINE
8
BLACK
6
CONTINUOUS
10
5.3341141732283459
20
-2.9005905511811023
11
5.3341141732283459
21
-2.7824803149606296
0
LINE
8
BLACK
6
CONTINUOUS
10
5.3341141732283459
20
-2.9005905511811023
11
5.452224409448819
21
-2.9005905511811023
0
LINE
8
BLACK
6
CONTINUOUS
10
5.4128543307086616
20
-2.2903543307086616
11
5.2750590551181098
21
-2.2903543307086616
0
LINE
8
BLACK
6
CONTINUOUS
10
5.4128543307086616
20
-2.3494094488188977
11
5.4128543307086616
21
-2.2903543307086616
0
LINE
8
BLACK
6
CONTINUOUS
10
5.452224409448819
20
-2.9005905511811023
11
5.452224409448819
21
-2.9596456692913384
0
LINE
8
BLACK
6
CONTINUOUS
10
5.452224409448819
20
-2.9596456692913384
11
5.2750590551181098
21
-2.9596456692913384
0
LINE
8
BLACK
6
CONTINUOUS
10
5.7671850393700783
20
-2.9005905511811023
11
5.7671850393700783
21
-2.9596456692913384
0
LINE
8
BLACK
6
CONTINUOUS
10
5.7671850393700783
20
-2.9596456692913384
11
5.9443503937007875
21
-2.9596456692913384
0
LINE
8
BLACK
6
CONTINUOUS
10
5.8065551181102357
20
-2.2903543307086616
11
5.9443503937007875
21
-2.2903543307086616
0
LINE
8
BLACK
6
CONTINUOUS
10
5.8065551181102357
20
-2.3494094488188977
11
5.8065551181102357
21
-2.2903543307086616
0
LINE
8
BLACK
6
CONTINUOUS
10
5.8852952755905514
20
-2.3494094488188977
11
5.8065551181102357
21
-2.3494094488188977
0
LINE
8
BLACK
6
CONTINUOUS
10
5.8852952755905514
20
-2.3494094488188977
11
5.8852952755905514
21
-2.4675196850393699
0
LINE
8
BLACK
6
CONTINUOUS
10
5.8852952755905514
20
-2.4675196850393699
11
5.9443503937007875
21
-2.4675196850393699
0
LINE
8
BLACK
6
CONTINUOUS
10
5.8852952755905514
20
-2.7824803149606296
11
5.9443503937007875
21
-2.7824803149606296
0
LINE
8
BLACK
6
CONTINUOUS
10
5.8852952755905514
20
-2.9005905511811023
11
5.7671850393700783
21
-2.9005905511811023
0
LINE
8
BLACK
6
CONTINUOUS
10
5.8852952755905514
20
-2.9005905511811023
11
5.8852952755905514
21
-2.7824803149606296
0
LINE
8
BLACK
6
CONTINUOUS
10
5.9443503937007875
20
-2.4675196850393699
11
5.9443503937007875
21
-2.2903543307086616
0
LINE
8
BLACK
6
CONTINUOUS
10
5.9443503937007875
20
-2.7824803149606296
11
5.9443503937007875
21
-2.9596456692913384
0
LINE
8
BLACK
6
CONTINUOUS
10
1.8063090551181102
20
-3.9675196850393699
11
1.8063090551181102
21
-3.7903543307086611
0
LINE
8
BLACK
6
CONTINUOUS
10
1.8063090551181102
20
-4.2824803149606296
11
1.8063090551181102
21
-4.4596456692913389
0
LINE
8
BLACK
6
CONTINUOUS
10
1.8653641732283464
20
-3.8494094488188977
11
1.8653641732283464
21
-3.9675196850393699
0
LINE
8
BLACK
6
CONTINUOUS
10
1.8653641732283464
20
-3.8494094488188977
11
1.9441043307086614
21
-3.8494094488188977
0
LINE
8
BLACK
6
CONTINUOUS
10
1.8653641732283464
20
-3.9675196850393699
11
1.8063090551181102
21
-3.9675196850393699
0
LINE
8
BLACK
6
CONTINUOUS
10
1.8653641732283464
20
-4.2824803149606296
11
1.8063090551181102
21
-4.2824803149606296
0
LINE
8
BLACK
6
CONTINUOUS
10
1.8653641732283464
20
-4.4005905511811019
11
1.8653641732283464
21
-4.2824803149606296
0
LINE
8
BLACK
6
CONTINUOUS
10
1.8653641732283464
20
-4.4005905511811019
11
1.9834744094488188
21
-4.4005905511811019
0
LINE
8
BLACK
6
CONTINUOUS
10
1.9441043307086614
20
-3.7903543307086611
11
1.8063090551181102
21
-3.7903543307086611
0
LINE
8
BLACK
6
CONTINUOUS
10
1.9441043307086614
20
-3.8494094488188977
11
1.9441043307086614
21
-3.7903543307086611
0
LINE
8
BLACK
6
CONTINUOUS
10
1.9834744094488188
20
-4.4005905511811019
11
1.9834744094488188
21
-4.4596456692913389
0
LINE
8
BLACK
6
CONTINUOUS
10
1.9834744094488188
20
-4.4596456692913389
11
1.8063090551181102
21
-4.4596456692913389
0
LINE
8
BLACK
6
CONTINUOUS
10
2.2984350393700788
20
-4.4005905511811019
11
2.2984350393700788
21
-4.4596456692913389
0
LINE
8
BLACK
6
CONTINUOUS
10
2.2984350393700788
20
-4.4596456692913389
11
2.4756003937007875
21
-4.4596456692913389
0
LINE
8
BLACK
6
CONTINUOUS
10
2.3378051181102362
20
-3.7903543307086611
11
2.4756003937007875
21
-3.7903543307086611
0
LINE
8
BLACK
6
CONTINUOUS
10
2.3378051181102362
20
-3.8494094488188977
11
2.3378051181102362
21
-3.7903543307086611
0
LINE
8
BLACK
6
CONTINUOUS
10
2.416545275590551
20
-3.8494094488188977
11
2.3378051181102362
21
-3.8494094488188977
0
LINE
8
BLACK
6
CONTINUOUS
10
2.416545275590551
20
-3.8494094488188977
11
2.416545275590551
21
-3.9675196850393699
0
LINE
8
BLACK
6
CONTINUOUS
10
2.416545275590551
20
-3.9675196850393699
11
2.4756003937007875
21
-3.9675196850393699
0
LINE
8
BLACK
6
CONTINUOUS
10
2.416545275590551
20
-4.2824803149606296
11
2.4756003937007875
21
-4.2824803149606296
0
LINE
8
BLACK
6
CONTINUOUS
10
2.416545275590551
20
-4.4005905511811019
11
2.2984350393700788
21
-4.4005905511811019
0
LINE
8
BLACK
6
CONTINUOUS
10
2.416545275590551
20
-4.4005905511811019
11
2.416545275590551
21
-4.2824803149606296
0
LINE
8
BLACK
6
CONTINUOUS
10
2.4756003937007875
20
-3.9675196850393699
11
2.4756003937007875
21
-3.7903543307086611
0
LINE
8
BLACK
6
CONTINUOUS
10
2.4756003937007875
20
-4.2824803149606296
11
2.4756003937007875
21
-4.4596456692913389
0
LINE
8
BLACK
6
CONTINUOUS
10
3.7750590551181102
20
-2.4675196850393699
11
3.7750590551181102
21
-2.2903543307086616
0
LINE
8
BLACK
6
CONTINUOUS
10
3.7750590551181102
20
-2.7824803149606296
11
3.7750590551181102
21
-2.9596456692913384
0
LINE
8
BLACK
6
CONTINUOUS
10
3.8341141732283464
20
-2.3494094488188977
11
3.8341141732283464
21
-2.4675196850393699
0
LINE
8
BLACK
6
CONTINUOUS
10
3.8341141732283464
20
-2.3494094488188977
11
3.9128543307086612
21
-2.3494094488188977
0
LINE
8
BLACK
6
CONTINUOUS
10
3.8341141732283464
20
-2.4675196850393699
11
3.7750590551181102
21
-2.4675196850393699
0
LINE
8
BLACK
6
CONTINUOUS
10
3.8341141732283464
20
-2.7824803149606296
11
3.7750590551181102
21
-2.7824803149606296
0
LINE
8
BLACK
6
CONTINUOUS
10
3.8341141732283464
20
-2.9005905511811023
11
3.8341141732283464
21
-2.7824803149606296
0
LINE
8
BLACK
6
CONTINUOUS
10
3.8341141732283464
20
-2.9005905511811023
11
3.9522244094488186
21
-2.9005905511811023
0
LINE
8
BLACK
6
CONTINUOUS
10
3.9128543307086612
20
-2.2903543307086616
11
3.7750590551181102
21
-2.2903543307086616
0
LINE
8
BLACK
6
CONTINUOUS
10
3.9128543307086612
20
-2.3494094488188977
11
3.9128543307086612
21
-2.2903543307086616
0
LINE
8
BLACK
6
CONTINUOUS
10
3.9522244094488186
20
-2.9005905511811023
11
3.9522244094488186
21
-2.9596456692913384
0
LINE
8
BLACK
6
CONTINUOUS
10
3.9522244094488186
20
-2.9596456692913384
11
3.7750590551181102
21
-2.9596456692913384
0
LINE
8
BLACK
6
CONTINUOUS
10
4.2671850393700783
20
-2.9005905511811023
11
4.2671850393700783
21
-2.9596456692913384
0
LINE
8
BLACK
6
CONTINUOUS
10
4.2671850393700783
20
-2.9596456692913384
11
4.4443503937007875
21
-2.9596456692913384
0
LINE
8
BLACK
6
CONTINUOUS
10
4.3065551181102357
20
-2.2903543307086616
11
4.4443503937007875
21
-2.2903543307086616
0
LINE
8
BLACK
6
CONTINUOUS
10
4.3065551181102357
20
-2.3494094488188977
11
4.3065551181102357
21
-2.2903543307086616
0
LINE
8
BLACK
6
CONTINUOUS
10
4.3852952755905514
20
-2.3494094488188977
11
4.3065551181102357
21
-2.3494094488188977
0
LINE
8
BLACK
6
CONTINUOUS
10
4.3852952755905514
20
-2.3494094488188977
11
4.3852952755905514
21
-2.4675196850393699
0
LINE
8
BLACK
6
CONTINUOUS
10
4.3852952755905514
20
-2.4675196850393699
11
4.4443503937007875
21
-2.4675196850393699
0
LINE
8
BLACK
6
CONTINUOUS
10
4.3852952755905514
20
-2.7824803149606296
11
4.4443503937007875
21
-2.7824803149606296
0
LINE
8
BLACK
6
CONTINUOUS
10
4.3852952755905514
20
-2.9005905511811023
11
4.2671850393700783
21
-2.9005905511811023
0
LINE
8
BLACK
6
CONTINUOUS
10
4.3852952755905514
20
-2.9005905511811023
11
4.3852952755905514
21
-2.7824803149606296
0
LINE
8
BLACK
6
CONTINUOUS
10
4.4443503937007875
20
-2.4675196850393699
11
4.4443503937007875
21
-2.2903543307086616
0
LINE
8
BLACK
6
CONTINUOUS
10
4.4443503937007875
20
-2.7824803149606296
11
4.4443503937007875
21
-2.9596456692913384
0
LINE
8
BLACK
6
CONTINUOUS
10
0.9625590551181102
20
-0.2175196850393701
11
0.9625590551181102
21
-0.0403543307086614
0
LINE
8
BLACK
6
CONTINUOUS
10
0.9625590551181102
20
-0.5324803149606299
11
0.9625590551181102
21
-0.7096456692913385
0
LINE
8
BLACK
6
CONTINUOUS
10
1.0216141732283464
20
-0.0994094488188976
11
1.0216141732283464
21
-0.2175196850393701
0
LINE
8
BLACK
6
CONTINUOUS
10
1.0216141732283464
20
-0.0994094488188976
11
1.1003543307086614
21
-0.0994094488188976
0
LINE
8
BLACK
6
CONTINUOUS
10
1.0216141732283464
20
-0.2175196850393701
11
0.9625590551181102
21
-0.2175196850393701
0
LINE
8
BLACK
6
CONTINUOUS
10
1.0216141732283464
20
-0.5324803149606299
11
0.9625590551181102
21
-0.5324803149606299
0
LINE
8
BLACK
6
CONTINUOUS
10
1.0216141732283464
20
-0.6505905511811023
11
1.0216141732283464
21
-0.5324803149606299
0
LINE
8
BLACK
6
CONTINUOUS
10
1.0216141732283464
20
-0.6505905511811023
11
1.1397244094488188
21
-0.6505905511811023
0
LINE
8
BLACK
6
CONTINUOUS
10
1.1003543307086614
20
-0.0403543307086614
11
0.9625590551181102
21
-0.0403543307086614
0
LINE
8
BLACK
6
CONTINUOUS
10
1.1003543307086614
20
-0.0994094488188976
11
1.1003543307086614
21
-0.0403543307086614
0
LINE
8
BLACK
6
CONTINUOUS
10
1.1397244094488188
20
-0.6505905511811023
11
1.1397244094488188
21
-0.7096456692913385
0
LINE
8
BLACK
6
CONTINUOUS
10
1.1397244094488188
20
-0.7096456692913385
11
0.9625590551181102
21
-0.7096456692913385
0
LINE
8
BLACK
6
CONTINUOUS
10
1.4546850393700788
20
-0.6505905511811023
11
1.4546850393700788
21
-0.7096456692913385
0
LINE
8
BLACK
6
CONTINUOUS
10
1.4546850393700788
20
-0.7096456692913385
11
1.6318503937007873
21
-0.7096456692913385
0
LINE
8
BLACK
6
CONTINUOUS
10
1.4940551181102362
20
-0.0403543307086614
11
1.6318503937007873
21
-0.0403543307086614
0
LINE
8
BLACK
6
CONTINUOUS
10
1.4940551181102362
20
-0.0994094488188976
11
1.4940551181102362
21
-0.0403543307086614
0
LINE
8
BLACK
6
CONTINUOUS
10
1.5727952755905512
20
-0.0994094488188976
11
1.4940551181102362
21
-0.0994094488188976
0
LINE
8
BLACK
6
CONTINUOUS
10
1.5727952755905512
20
-0.0994094488188976
11
1.5727952755905512
21
-0.2175196850393701
0
LINE
8
BLACK
6
CONTINUOUS
10
1.5727952755905512
20
-0.2175196850393701
11
1.6318503937007873
21
-0.2175196850393701
0
LINE
8
BLACK
6
CONTINUOUS
10
1.5727952755905512
20
-0.5324803149606299
11
1.6318503937007873
21
-0.5324803149606299
0
LINE
8
BLACK
6
CONTINUOUS
10
1.5727952755905512
20
-0.6505905511811023
11
1.4546850393700788
21
-0.6505905511811023
0
LINE
8
BLACK
6
CONTINUOUS
10
1.5727952755905512
20
-0.6505905511811023
11
1.5727952755905512
21
-0.5324803149606299
0
LINE
8
BLACK
6
CONTINUOUS
10
1.6318503937007873
20
-0.2175196850393701
11
1.6318503937007873
21
-0.0403543307086614
0
LINE
8
BLACK
6
CONTINUOUS
10
1.6318503937007873
20
-0.5324803149606299
11
1.6318503937007873
21
-0.7096456692913385
0
LINE
8
BLACK
6
CONTINUOUS
10
1.1500590551181102
20
-1.7175196850393701
11
1.1500590551181102
21
-1.5403543307086613
0
LINE
8
BLACK
6
CONTINUOUS
10
1.1500590551181102
20
-2.0324803149606301
11
1.1500590551181102
21
-2.2096456692913384
0
LINE
8
BLACK
6
CONTINUOUS
10
1.2091141732283464
20
-1.5994094488188977
11
1.2091141732283464
21
-1.7175196850393701
0
LINE
8
BLACK
6
CONTINUOUS
10
1.2091141732283464
20
-1.5994094488188977
11
1.2878543307086614
21
-1.5994094488188977
0
LINE
8
BLACK
6
CONTINUOUS
10
1.2091141732283464
20
-1.7175196850393701
11
1.1500590551181102
21
-1.7175196850393701
0
LINE
8
BLACK
6
CONTINUOUS
10
1.2091141732283464
20
-2.0324803149606301
11
1.1500590551181102
21
-2.0324803149606301
0
LINE
8
BLACK
6
CONTINUOUS
10
1.2091141732283464
20
-2.1505905511811023
11
1.2091141732283464
21
-2.0324803149606301
0
LINE
8
BLACK
6
CONTINUOUS
10
1.2091141732283464
20
-2.1505905511811023
11
1.3272244094488188
21
-2.1505905511811023
0
LINE
8
BLACK
6
CONTINUOUS
10
1.2878543307086614
20
-1.5403543307086613
11
1.1500590551181102
21
-1.5403543307086613
0
LINE
8
BLACK
6
CONTINUOUS
10
1.2878543307086614
20
-1.5994094488188977
11
1.2878543307086614
21
-1.5403543307086613
0
LINE
8
BLACK
6
CONTINUOUS
10
1.3272244094488188
20
-2.1505905511811023
11
1.3272244094488188
21
-2.2096456692913384
0
LINE
8
BLACK
6
CONTINUOUS
10
1.3272244094488188
20
-2.2096456692913384
11
1.1500590551181102
21
-2.2096456692913384
0
LINE
8
BLACK
6
CONTINUOUS
10
1.6421850393700788
20
-2.1505905511811023
11
1.6421850393700788
21
-2.2096456692913384
0
LINE
8
BLACK
6
CONTINUOUS
10
1.6421850393700788
20
-2.2096456692913384
11
1.8193503937007873
21
-2.2096456692913384
0
LINE
8
BLACK
6
CONTINUOUS
10
1.6815551181102362
20
-1.5403543307086613
11
1.8193503937007873
21
-1.5403543307086613
0
LINE
8
BLACK
6
CONTINUOUS
10
1.6815551181102362
20
-1.5994094488188977
11
1.6815551181102362
21
-1.5403543307086613
0
LINE
8
BLACK
6
CONTINUOUS
10
1.7602952755905512
20
-1.5994094488188977
11
1.6815551181102362
21
-1.5994094488188977
0
LINE
8
BLACK
6
CONTINUOUS
10
1.7602952755905512
20
-1.5994094488188977
11
1.7602952755905512
21
-1.7175196850393701
0
LINE
8
BLACK
6
CONTINUOUS
10
1.7602952755905512
20
-1.7175196850393701
11
1.8193503937007873
21
-1.7175196850393701
0
LINE
8
BLACK
6
CONTINUOUS
10
1.7602952755905512
20
-2.0324803149606301
11
1.8193503937007873
21
-2.0324803149606301
0
LINE
8
BLACK
6
CONTINUOUS
10
1.7602952755905512
20
-2.1505905511811023
11
1.6421850393700788
21
-2.1505905511811023
0
LINE
8
BLACK
6
CONTINUOUS
10
1.7602952755905512
20
-2.1505905511811023
11
1.7602952755905512
21
-2.0324803149606301
0
LINE
8
BLACK
6
CONTINUOUS
10
1.8193503937007873
20
-1.7175196850393701
11
1.8193503937007873
21
-1.5403543307086613
0
LINE
8
BLACK
6
CONTINUOUS
10
1.8193503937007873
20
-2.0324803149606301
11
1.8193503937007873
21
-2.2096456692913384
0
LINE
8
BLACK
6
CONTINUOUS
10
3.5875590551181102
20
-1.7175196850393701
11
3.5875590551181102
21
-1.5403543307086613
0
LINE
8
BLACK
6
CONTINUOUS
10
3.5875590551181102
20
-2.0324803149606301
11
3.5875590551181102
21
-2.2096456692913384
0
LINE
8
BLACK
6
CONTINUOUS
10
3.6466141732283464
20
-1.5994094488188977
11
3.6466141732283464
21
-1.7175196850393701
0
LINE
8
BLACK
6
CONTINUOUS
10
3.6466141732283464
20
-1.5994094488188977
11
3.7253543307086612
21
-1.5994094488188977
0
LINE
8
BLACK
6
CONTINUOUS
10
3.6466141732283464
20
-1.7175196850393701
11
3.5875590551181102
21
-1.7175196850393701
0
LINE
8
BLACK
6
CONTINUOUS
10
3.6466141732283464
20
-2.0324803149606301
11
3.5875590551181102
21
-2.0324803149606301
0
LINE
8
BLACK
6
CONTINUOUS
10
3.6466141732283464
20
-2.1505905511811023
11
3.6466141732283464
21
-2.0324803149606301
0
LINE
8
BLACK
6
CONTINUOUS
10
3.6466141732283464
20
-2.1505905511811023
11
3.764724409448819
21
-2.1505905511811023
0
LINE
8
BLACK
6
CONTINUOUS
10
3.7253543307086612
20
-1.5403543307086613
11
3.5875590551181102
21
-1.5403543307086613
0
LINE
8
BLACK
6
CONTINUOUS
10
3.7253543307086612
20
-1.5994094488188977
11
3.7253543307086612
21
-1.5403543307086613
0
LINE
8
BLACK
6
CONTINUOUS
10
3.764724409448819
20
-2.1505905511811023
11
3.764724409448819
21
-2.2096456692913384
0
LINE
8
BLACK
6
CONTINUOUS
10
3.764724409448819
20
-2.2096456692913384
11
3.5875590551181102
21
-2.2096456692913384
0
LINE
8
BLACK
6
CONTINUOUS
10
4.0796850393700783
20
-2.1505905511811023
11
4.0796850393700783
21
-2.2096456692913384
0
LINE
8
BLACK
6
CONTINUOUS
10
4.0796850393700783
20
-2.2096456692913384
11
4.2568503937007875
21
-2.2096456692913384
0
LINE
8
BLACK
6
CONTINUOUS
10
4.1190551181102357
20
-1.5403543307086613
11
4.2568503937007875
21
-1.5403543307086613
0
LINE
8
BLACK
6
CONTINUOUS
10
4.1190551181102357
20
-1.5994094488188977
11
4.1190551181102357
21
-1.5403543307086613
0
LINE
8
BLACK
6
CONTINUOUS
10
4.1977952755905514
20
-1.5994094488188977
11
4.1190551181102357
21
-1.5994094488188977
0
LINE
8
BLACK
6
CONTINUOUS
10
4.1977952755905514
20
-1.5994094488188977
11
4.1977952755905514
21
-1.7175196850393701
0
LINE
8
BLACK
6
CONTINUOUS
10
4.1977952755905514
20
-1.7175196850393701
11
4.2568503937007875
21
-1.7175196850393701
0
LINE
8
BLACK
6
CONTINUOUS
10
4.1977952755905514
20
-2.0324803149606301
11
4.2568503937007875
21
-2.0324803149606301
0
LINE
8
BLACK
6
CONTINUOUS
10
4.1977952755905514
20
-2.1505905511811023
11
4.0796850393700783
21
-2.1505905511811023
0
LINE
8
BLACK
6
CONTINUOUS
10
4.1977952755905514
20
-2.1505905511811023
11
4.1977952755905514
21
-2.0324803149606301
0
LINE
8
BLACK
6
CONTINUOUS
10
4.2568503937007875
20
-1.7175196850393701
11
4.2568503937007875
21
-1.5403543307086613
0
LINE
8
BLACK
6
CONTINUOUS
10
4.2568503937007875
20
-2.0324803149606301
11
4.2568503937007875
21
-2.2096456692913384
0
LINE
8
BLACK
6
CONTINUOUS
10
4.5250590551181098
20
-2.4675196850393699
11
4.5250590551181098
21
-2.2903543307086616
0
LINE
8
BLACK
6
CONTINUOUS
10
4.5250590551181098
20
-2.7824803149606296
11
4.5250590551181098
21
-2.9596456692913384
0
LINE
8
BLACK
6
CONTINUOUS
10
4.5841141732283459
20
-2.3494094488188977
11
4.5841141732283459
21
-2.4675196850393699
0
LINE
8
BLACK
6
CONTINUOUS
10
4.5841141732283459
20
-2.3494094488188977
11
4.6628543307086616
21
-2.3494094488188977
0
LINE
8
BLACK
6
CONTINUOUS
10
4.5841141732283459
20
-2.4675196850393699
11
4.5250590551181098
21
-2.4675196850393699
0
LINE
8
BLACK
6
CONTINUOUS
10
4.5841141732283459
20
-2.7824803149606296
11
4.5250590551181098
21
-2.7824803149606296
0
LINE
8
BLACK
6
CONTINUOUS
10
4.5841141732283459
20
-2.9005905511811023
11
4.5841141732283459
21
-2.7824803149606296
0
LINE
8
BLACK
6
CONTINUOUS
10
4.5841141732283459
20
-2.9005905511811023
11
4.702224409448819
21
-2.9005905511811023
0
LINE
8
BLACK
6
CONTINUOUS
10
4.6628543307086616
20
-2.2903543307086616
11
4.5250590551181098
21
-2.2903543307086616
0
LINE
8
BLACK
6
CONTINUOUS
10
4.6628543307086616
20
-2.3494094488188977
11
4.6628543307086616
21
-2.2903543307086616
0
LINE
8
BLACK
6
CONTINUOUS
10
4.702224409448819
20
-2.9005905511811023
11
4.702224409448819
21
-2.9596456692913384
0
LINE
8
BLACK
6
CONTINUOUS
10
4.702224409448819
20
-2.9596456692913384
11
4.5250590551181098
21
-2.9596456692913384
0
LINE
8
BLACK
6
CONTINUOUS
10
5.0171850393700783
20
-2.9005905511811023
11
5.0171850393700783
21
-2.9596456692913384
0
LINE
8
BLACK
6
CONTINUOUS
10
5.0171850393700783
20
-2.9596456692913384
11
5.1943503937007875
21
-2.9596456692913384
0
LINE
8
BLACK
6
CONTINUOUS
10
5.0565551181102357
20
-2.2903543307086616
11
5.1943503937007875
21
-2.2903543307086616
0
LINE
8
BLACK
6
CONTINUOUS
10
5.0565551181102357
20
-2.3494094488188977
11
5.0565551181102357
21
-2.2903543307086616
0
LINE
8
BLACK
6
CONTINUOUS
10
5.1352952755905514
20
-2.3494094488188977
11
5.0565551181102357
21
-2.3494094488188977
0
LINE
8
BLACK
6
CONTINUOUS
10
5.1352952755905514
20
-2.3494094488188977
11
5.1352952755905514
21
-2.4675196850393699
0
LINE
8
BLACK
6
CONTINUOUS
10
5.1352952755905514
20
-2.4675196850393699
11
5.1943503937007875
21
-2.4675196850393699
0
LINE
8
BLACK
6
CONTINUOUS
10
5.1352952755905514
20
-2.7824803149606296
11
5.1943503937007875
21
-2.7824803149606296
0
LINE
8
BLACK
6
CONTINUOUS
10
5.1352952755905514
20
-2.9005905511811023
11
5.0171850393700783
21
-2.9005905511811023
0
LINE
8
BLACK
6
CONTINUOUS
10
5.1352952755905514
20
-2.9005905511811023
11
5.1352952755905514
21
-2.7824803149606296
0
LINE
8
BLACK
6
CONTINUOUS
10
5.1943503937007875
20
-2.4675196850393699
11
5.1943503937007875
21
-2.2903543307086616
0
LINE
8
BLACK
6
CONTINUOUS
10
5.1943503937007875
20
-2.7824803149606296
11
5.1943503937007875
21
-2.9596456692913384
0
LINE
8
BLACK
6
CONTINUOUS
10
1.2438090551181102
20
-2.4675196850393699
11
1.2438090551181102
21
-2.2903543307086616
0
LINE
8
BLACK
6
CONTINUOUS
10
1.2438090551181102
20
-2.7824803149606296
11
1.2438090551181102
21
-2.9596456692913384
0
LINE
8
BLACK
6
CONTINUOUS
10
1.3028641732283464
20
-2.3494094488188977
11
1.3028641732283464
21
-2.4675196850393699
0
LINE
8
BLACK
6
CONTINUOUS
10
1.3028641732283464
20
-2.3494094488188977
11
1.3816043307086614
21
-2.3494094488188977
0
LINE
8
BLACK
6
CONTINUOUS
10
1.3028641732283464
20
-2.4675196850393699
11
1.2438090551181102
21
-2.4675196850393699
0
LINE
8
BLACK
6
CONTINUOUS
10
1.3028641732283464
20
-2.7824803149606296
11
1.2438090551181102
21
-2.7824803149606296
0
LINE
8
BLACK
6
CONTINUOUS
10
1.3028641732283464
20
-2.9005905511811023
11
1.3028641732283464
21
-2.7824803149606296
0
LINE
8
BLACK
6
CONTINUOUS
10
1.3028641732283464
20
-2.9005905511811023
11
1.4209744094488188
21
-2.9005905511811023
0
LINE
8
BLACK
6
CONTINUOUS
10
1.3816043307086614
20
-2.2903543307086616
11
1.2438090551181102
21
-2.2903543307086616
0
LINE
8
BLACK
6
CONTINUOUS
10
1.3816043307086614
20
-2.3494094488188977
11
1.3816043307086614
21
-2.2903543307086616
0
LINE
8
BLACK
6
CONTINUOUS
10
1.4209744094488188
20
-2.9005905511811023
11
1.4209744094488188
21
-2.9596456692913384
0
LINE
8
BLACK
6
CONTINUOUS
10
1.4209744094488188
20
-2.9596456692913384
11
1.2438090551181102
21
-2.9596456692913384
0
LINE
8
BLACK
6
CONTINUOUS
10
1.7359350393700788
20
-2.9005905511811023
11
1.7359350393700788
21
-2.9596456692913384
0
LINE
8
BLACK
6
CONTINUOUS
10
1.7359350393700788
20
-2.9596456692913384
11
1.9131003937007873
21
-2.9596456692913384
0
LINE
8
BLACK
6
CONTINUOUS
10
1.7753051181102362
20
-2.2903543307086616
11
1.9131003937007873
21
-2.2903543307086616
0
LINE
8
BLACK
6
CONTINUOUS
10
1.7753051181102362
20
-2.3494094488188977
11
1.7753051181102362
21
-2.2903543307086616
0
LINE
8
BLACK
6
CONTINUOUS
10
1.8540452755905512
20
-2.3494094488188977
11
1.7753051181102362
21
-2.3494094488188977
0
LINE
8
BLACK
6
CONTINUOUS
10
1.8540452755905512
20
-2.3494094488188977
11
1.8540452755905512
21
-2.4675196850393699
0
LINE
8
BLACK
6
CONTINUOUS
10
1.8540452755905512
20
-2.4675196850393699
11
1.9131003937007873
21
-2.4675196850393699
0
LINE
8
BLACK
6
CONTINUOUS
10
1.8540452755905512
20
-2.7824803149606296
11
1.9131003937007873
21
-2.7824803149606296
0
LINE
8
BLACK
6
CONTINUOUS
10
1.8540452755905512
20
-2.9005905511811023
11
1.7359350393700788
21
-2.9005905511811023
0
LINE
8
BLACK
6
CONTINUOUS
10
1.8540452755905512
20
-2.9005905511811023
11
1.8540452755905512
21
-2.7824803149606296
0
LINE
8
BLACK
6
CONTINUOUS
10
1.9131003937007873
20
-2.4675196850393699
11
1.9131003937007873
21
-2.2903543307086616
0
LINE
8
BLACK
6
CONTINUOUS
10
1.9131003937007873
20
-2.7824803149606296
11
1.9131003937007873
21
-2.9596456692913384
0
LINE
8
BLACK
6
CONTINUOUS
10
0.9625590551181102
20
-0.96751968503937
11
0.9625590551181102
21
-0.7903543307086613
0
LINE
8
BLACK
6
CONTINUOUS
10
0.9625590551181102
20
-1.2824803149606299
11
0.9625590551181102
21
-1.4596456692913387
0
LINE
8
BLACK
6
CONTINUOUS
10
1.0216141732283464
20
-0.8494094488188976
11
1.0216141732283464
21
-0.96751968503937
0
LINE
8
BLACK
6
CONTINUOUS
10
1.0216141732283464
20
-0.8494094488188976
11
1.1003543307086614
21
-0.8494094488188976
0
LINE
8
BLACK
6
CONTINUOUS
10
1.0216141732283464
20
-0.96751968503937
11
0.9625590551181102
21
-0.96751968503937
0
LINE
8
BLACK
6
CONTINUOUS
10
1.0216141732283464
20
-1.2824803149606299
11
0.9625590551181102
21
-1.2824803149606299
0
LINE
8
BLACK
6
CONTINUOUS
10
1.0216141732283464
20
-1.4005905511811023
11
1.0216141732283464
21
-1.2824803149606299
0
LINE
8
BLACK
6
CONTINUOUS
10
1.0216141732283464
20
-1.4005905511811023
11
1.1397244094488188
21
-1.4005905511811023
0
LINE
8
BLACK
6
CONTINUOUS
10
1.1003543307086614
20
-0.7903543307086613
11
0.9625590551181102
21
-0.7903543307086613
0
LINE
8
BLACK
6
CONTINUOUS
10
1.1003543307086614
20
-0.8494094488188976
11
1.1003543307086614
21
-0.7903543307086613
0
LINE
8
BLACK
6
CONTINUOUS
10
1.1397244094488188
20
-1.4005905511811023
11
1.1397244094488188
21
-1.4596456692913387
0
LINE
8
BLACK
6
CONTINUOUS
10
1.1397244094488188
20
-1.4596456692913387
11
0.9625590551181102
21
-1.4596456692913387
0
LINE
8
BLACK
6
CONTINUOUS
10
1.4546850393700788
20
-1.4005905511811023
11
1.4546850393700788
21
-1.4596456692913387
0
LINE
8
BLACK
6
CONTINUOUS
10
1.4546850393700788
20
-1.4596456692913387
11
1.6318503937007873
21
-1.4596456692913387
0
LINE
8
BLACK
6
CONTINUOUS
10
1.4940551181102362
20
-0.7903543307086613
11
1.6318503937007873
21
-0.7903543307086613
0
LINE
8
BLACK
6
CONTINUOUS
10
1.4940551181102362
20
-0.8494094488188976
11
1.4940551181102362
21
-0.7903543307086613
0
LINE
8
BLACK
6
CONTINUOUS
10
1.5727952755905512
20
-0.8494094488188976
11
1.4940551181102362
21
-0.8494094488188976
0
LINE
8
BLACK
6
CONTINUOUS
10
1.5727952755905512
20
-0.8494094488188976
11
1.5727952755905512
21
-0.96751968503937
0
LINE
8
BLACK
6
CONTINUOUS
10
1.5727952755905512
20
-0.96751968503937
11
1.6318503937007873
21
-0.96751968503937
0
LINE
8
BLACK
6
CONTINUOUS
10
1.5727952755905512
20
-1.2824803149606299
11
1.6318503937007873
21
-1.2824803149606299
0
LINE
8
BLACK
6
CONTINUOUS
10
1.5727952755905512
20
-1.4005905511811023
11
1.4546850393700788
21
-1.4005905511811023
0
LINE
8
BLACK
6
CONTINUOUS
10
1.5727952755905512
20
-1.4005905511811023
11
1.5727952755905512
21
-1.2824803149606299
0
LINE
8
BLACK
6
CONTINUOUS
10
1.6318503937007873
20
-0.96751968503937
11
1.6318503937007873
21
-0.7903543307086613
0
LINE
8
BLACK
6
CONTINUOUS
10
1.6318503937007873
20
-1.2824803149606299
11
1.6318503937007873
21
-1.4596456692913387
  0
ENDSEC
  0
EOF
