  0
SECTION
  2
HEADER
  9
$ANGBASE
  50
0.0
  9
$ANGDIR
  70
1
  9
$MEASUREMENT
  70
0
  0
ENDSEC
  0
SECTION
  2
TABLES
  0
TABLE
  2
LTYPE
  70
4
  0
LTYPE
  5
40F
  2
CONTINUOUS
  70
0
  3
Solid line
  72
65
  73
0
  40
0.0
  0
LTYPE
  5
410
  2
DASHDOT
 70
0
  3
Dash Dot ____ _ ____ _
 72
65
 73
4
 40
2.0
 49
1.25
 49
-0.25
 49
0.25
 49
-0.25
  0
LTYPE
  5
411
  2
DASHED
 70
0
  3
Dashed __ __ __ __ __
 72
65
 73
2
 40
0.75
 49
0.5
 49
-0.25
  0
LTYPE
  5
43B
  2
DOTTED
 70
0
  3
Dotted .  .  .  .
 72
65
 73
2
 40
0.2
 49
0.0
 49
-0.2
  0
ENDTAB
  0
TABLE
  2
STYLE
  70
4
  0
STYLE
  2
KICAD
  70
0
  40
0
  41
1
  42
1
  50
0
  71
0
  3
isocp.shx
  0
STYLE
  2
KICADB
  70
0
  40
0
  41
1
  42
1
  50
0
  71
0
  3
isocp.shx
  0
STYLE
  2
KICADI
  70
0
  40
0
  41
1
  42
1
  50
15
  71
0
  3
isocp.shx
  0
STYLE
  2
KICADBI
  70
0
  40
0
  41
1
  42
1
  50
15
  71
0
  3
isocp.shx
  0
ENDTAB
  0
TABLE
  2
LAYER
  70
1
  0
LAYER
  2
BLACK
  70
0
  62
7
  6
CONTINUOUS
  0
ENDTAB
  0
ENDSEC
  0
SECTION
  2
ENTITIES
0
LINE
8
BLACK
6
CONTINUOUS
10
0.7677165354330708
20
-1.6929133858267715
11
0.7677165354330708
21
-1.5551181102362204
0
LINE
8
BLACK
6
CONTINUOUS
10
0.2755905511811024
20
-1.4566929133858268
11
0.2755905511811024
21
-1.6929133858267715
0
LINE
8
BLACK
6
CONTINUOUS
10
0.4921259842519685
20
-1.5551181102362204
11
0.4921259842519685
21
-1.4566929133858268
0
LINE
8
BLACK
6
CONTINUOUS
10
0.4921259842519685
20
-1.4566929133858268
11
0.2755905511811024
21
-1.4566929133858268
0
LINE
8
BLACK
6
CONTINUOUS
10
0.7677165354330708
20
-1.5551181102362204
11
0.4921259842519685
21
-1.5551181102362204
0
LINE
8
BLACK
6
CONTINUOUS
10
0.2755905511811024
20
-1.6929133858267715
11
0.7677165354330708
21
-1.6929133858267715
0
LINE
8
BLACK
6
CONTINUOUS
10
2.8028641732283464
20
-3.7706692913385824
11
3.354045275590551
21
-3.7706692913385824
0
LINE
8
BLACK
6
CONTINUOUS
10
3.354045275590551
20
-3.7706692913385824
11
3.354045275590551
21
-4.4005905511811019
0
LINE
8
BLACK
6
CONTINUOUS
10
3.354045275590551
20
-4.4005905511811019
11
2.8028641732283464
21
-4.4005905511811019
0
LINE
8
BLACK
6
CONTINUOUS
10
2.8028641732283464
20
-4.4005905511811019
11
2.8028641732283464
21
-3.7706692913385824
0
LINE
8
BLACK
6
CONTINUOUS
10
4.2091141732283468
20
-3.0206692913385824
11
4.7602952755905514
21
-3.0206692913385824
0
LINE
8
BLACK
6
CONTINUOUS
10
4.7602952755905514
20
-3.0206692913385824
11
4.7602952755905514
21
-3.6505905511811023
0
LINE
8
BLACK
6
CONTINUOUS
10
4.7602952755905514
20
-3.6505905511811023
11
4.2091141732283468
21
-3.6505905511811023
0
LINE
8
BLACK
6
CONTINUOUS
10
4.2091141732283468
20
-3.6505905511811023
11
4.2091141732283468
21
-3.0206692913385824
0
LINE
8
BLACK
6
CONTINUOUS
10
4.0216141732283468
20
-0.7706692913385826
11
4.5727952755905514
21
-0.7706692913385826
0
LINE
8
BLACK
6
CONTINUOUS
10
4.5727952755905514
20
-0.7706692913385826
11
4.5727952755905514
21
-1.4005905511811023
0
LINE
8
BLACK
6
CONTINUOUS
10
4.5727952755905514
20
-1.4005905511811023
11
4.0216141732283468
21
-1.4005905511811023
0
LINE
8
BLACK
6
CONTINUOUS
10
4.0216141732283468
20
-1.4005905511811023
11
4.0216141732283468
21
-0.7706692913385826
0
LINE
8
BLACK
6
CONTINUOUS
10
2.3341141732283464
20
-2.2706692913385824
11
2.885295275590551
21
-2.2706692913385824
0
LINE
8
BLACK
6
CONTINUOUS
10
2.885295275590551
20
-2.2706692913385824
11
2.885295275590551
21
-2.9005905511811023
0
LINE
8
BLACK
6
CONTINUOUS
10
2.885295275590551
20
-2.9005905511811023
11
2.3341141732283464
21
-2.9005905511811023
0
LINE
8
BLACK
6
CONTINUOUS
10
2.3341141732283464
20
-2.9005905511811023
11
2.3341141732283464
21
-2.2706692913385824
0
LINE
8
BLACK
6
CONTINUOUS
10
2.5216141732283464
20
-0.7706692913385826
11
3.072795275590551
21
-0.7706692913385826
0
LINE
8
BLACK
6
CONTINUOUS
10
3.072795275590551
20
-0.7706692913385826
11
3.072795275590551
21
-1.4005905511811023
0
LINE
8
BLACK
6
CONTINUOUS
10
3.072795275590551
20
-1.4005905511811023
11
2.5216141732283464
21
-1.4005905511811023
0
LINE
8
BLACK
6
CONTINUOUS
10
2.5216141732283464
20
-1.4005905511811023
11
2.5216141732283464
21
-0.7706692913385826
0
LINE
8
BLACK
6
CONTINUOUS
10
4.9591141732283459
20
-3.0206692913385824
11
5.5102952755905514
21
-3.0206692913385824
0
LINE
8
BLACK
6
CONTINUOUS
10
5.5102952755905514
20
-3.0206692913385824
11
5.5102952755905514
21
-3.6505905511811023
0
LINE
8
BLACK
6
CONTINUOUS
10
5.5102952755905514
20
-3.6505905511811023
11
4.9591141732283459
21
-3.6505905511811023
0
LINE
8
BLACK
6
CONTINUOUS
10
4.9591141732283459
20
-3.6505905511811023
11
4.9591141732283459
21
-3.0206692913385824
0
LINE
8
BLACK
6
CONTINUOUS
10
5.1466141732283459
20
-1.5206692913385826
11
5.6977952755905514
21
-1.5206692913385826
0
LINE
8
BLACK
6
CONTINUOUS
10
5.6977952755905514
20
-1.5206692913385826
11
5.6977952755905514
21
-2.1505905511811023
0
LINE
8
BLACK
6
CONTINUOUS
10
5.6977952755905514
20
-2.1505905511811023
11
5.1466141732283459
21
-2.1505905511811023
0
LINE
8
BLACK
6
CONTINUOUS
10
5.1466141732283459
20
-2.1505905511811023
11
5.1466141732283459
21
-1.5206692913385826
0
LINE
8
BLACK
6
CONTINUOUS
10
3.0841141732283464
20
-2.2706692913385824
11
3.635295275590551
21
-2.2706692913385824
0
LINE
8
BLACK
6
CONTINUOUS
10
3.635295275590551
20
-2.2706692913385824
11
3.635295275590551
21
-2.9005905511811023
0
LINE
8
BLACK
6
CONTINUOUS
10
3.635295275590551
20
-2.9005905511811023
11
3.0841141732283464
21
-2.9005905511811023
0
LINE
8
BLACK
6
CONTINUOUS
10
3.0841141732283464
20
-2.9005905511811023
11
3.0841141732283464
21
-2.2706692913385824
0
LINE
8
BLACK
6
CONTINUOUS
10
2.5216141732283464
20
-0.0206692913385827
11
3.072795275590551
21
-0.0206692913385827
0
LINE
8
BLACK
6
CONTINUOUS
10
3.072795275590551
20
-0.0206692913385827
11
3.072795275590551
21
-0.6505905511811023
0
LINE
8
BLACK
6
CONTINUOUS
10
3.072795275590551
20
-0.6505905511811023
11
2.5216141732283464
21
-0.6505905511811023
0
LINE
8
BLACK
6
CONTINUOUS
10
2.5216141732283464
20
-0.6505905511811023
11
2.5216141732283464
21
-0.0206692913385827
0
LINE
8
BLACK
6
CONTINUOUS
10
4.9591141732283459
20
-3.7706692913385824
11
5.5102952755905514
21
-3.7706692913385824
0
LINE
8
BLACK
6
CONTINUOUS
10
5.5102952755905514
20
-3.7706692913385824
11
5.5102952755905514
21
-4.4005905511811019
0
LINE
8
BLACK
6
CONTINUOUS
10
5.5102952755905514
20
-4.4005905511811019
11
4.9591141732283459
21
-4.4005905511811019
0
LINE
8
BLACK
6
CONTINUOUS
10
4.9591141732283459
20
-4.4005905511811019
11
4.9591141732283459
21
-3.7706692913385824
0
LINE
8
BLACK
6
CONTINUOUS
10
2.1466141732283464
20
-1.5206692913385826
11
2.697795275590551
21
-1.5206692913385826
0
LINE
8
BLACK
6
CONTINUOUS
10
2.697795275590551
20
-1.5206692913385826
11
2.697795275590551
21
-2.1505905511811023
0
LINE
8
BLACK
6
CONTINUOUS
10
2.697795275590551
20
-2.1505905511811023
11
2.1466141732283464
21
-2.1505905511811023
0
LINE
8
BLACK
6
CONTINUOUS
10
2.1466141732283464
20
-2.1505905511811023
11
2.1466141732283464
21
-1.5206692913385826
0
LINE
8
BLACK
6
CONTINUOUS
10
3.2716141732283464
20
-0.7706692913385826
11
3.822795275590551
21
-0.7706692913385826
0
LINE
8
BLACK
6
CONTINUOUS
10
3.822795275590551
20
-0.7706692913385826
11
3.822795275590551
21
-1.4005905511811023
0
LINE
8
BLACK
6
CONTINUOUS
10
3.822795275590551
20
-1.4005905511811023
11
3.2716141732283464
21
-1.4005905511811023
0
LINE
8
BLACK
6
CONTINUOUS
10
3.2716141732283464
20
-1.4005905511811023
11
3.2716141732283464
21
-0.7706692913385826
0
LINE
8
BLACK
6
CONTINUOUS
10
2.8966141732283464
20
-1.5206692913385826
11
3.447795275590551
21
-1.5206692913385826
0
LINE
8
BLACK
6
CONTINUOUS
10
3.447795275590551
20
-1.5206692913385826
11
3.447795275590551
21
-2.1505905511811023
0
LINE
8
BLACK
6
CONTINUOUS
10
3.447795275590551
20
-2.1505905511811023
11
2.8966141732283464
21
-2.1505905511811023
0
LINE
8
BLACK
6
CONTINUOUS
10
2.8966141732283464
20
-2.1505905511811023
11
2.8966141732283464
21
-1.5206692913385826
0
LINE
8
BLACK
6
CONTINUOUS
10
3.4591141732283464
20
-3.0206692913385824
11
4.0102952755905514
21
-3.0206692913385824
0
LINE
8
BLACK
6
CONTINUOUS
10
4.0102952755905514
20
-3.0206692913385824
11
4.0102952755905514
21
-3.6505905511811023
0
LINE
8
BLACK
6
CONTINUOUS
10
4.0102952755905514
20
-3.6505905511811023
11
3.4591141732283464
21
-3.6505905511811023
0
LINE
8
BLACK
6
CONTINUOUS
10
3.4591141732283464
20
-3.6505905511811023
11
3.4591141732283464
21
-3.0206692913385824
0
LINE
8
BLACK
6
CONTINUOUS
10
1.7716141732283464
20
-0.7706692913385826
11
2.322795275590551
21
-0.7706692913385826
0
LINE
8
BLACK
6
CONTINUOUS
10
2.322795275590551
20
-0.7706692913385826
11
2.322795275590551
21
-1.4005905511811023
0
LINE
8
BLACK
6
CONTINUOUS
10
2.322795275590551
20
-1.4005905511811023
11
1.7716141732283464
21
-1.4005905511811023
0
LINE
8
BLACK
6
CONTINUOUS
10
1.7716141732283464
20
-1.4005905511811023
11
1.7716141732283464
21
-0.7706692913385826
0
LINE
8
BLACK
6
CONTINUOUS
10
3.7403641732283464
20
-3.7706692913385824
11
4.2915452755905514
21
-3.7706692913385824
0
LINE
8
BLACK
6
CONTINUOUS
10
4.2915452755905514
20
-3.7706692913385824
11
4.2915452755905514
21
-4.4005905511811019
0
LINE
8
BLACK
6
CONTINUOUS
10
4.2915452755905514
20
-4.4005905511811019
11
3.7403641732283464
21
-4.4005905511811019
0
LINE
8
BLACK
6
CONTINUOUS
10
3.7403641732283464
20
-4.4005905511811019
11
3.7403641732283464
21
-3.7706692913385824
0
LINE
8
BLACK
6
CONTINUOUS
10
1.0216141732283464
20
-3.7706692913385824
11
1.5727952755905512
21
-3.7706692913385824
0
LINE
8
BLACK
6
CONTINUOUS
10
1.5727952755905512
20
-3.7706692913385824
11
1.5727952755905512
21
-4.4005905511811019
0
LINE
8
BLACK
6
CONTINUOUS
10
1.5727952755905512
20
-4.4005905511811019
11
1.0216141732283464
21
-4.4005905511811019
0
LINE
8
BLACK
6
CONTINUOUS
10
1.0216141732283464
20
-4.4005905511811019
11
1.0216141732283464
21
-3.7706692913385824
0
LINE
8
BLACK
6
CONTINUOUS
10
3.2716141732283464
20
-0.0206692913385827
11
3.822795275590551
21
-0.0206692913385827
0
LINE
8
BLACK
6
CONTINUOUS
10
3.822795275590551
20
-0.0206692913385827
11
3.822795275590551
21
-0.6505905511811023
0
LINE
8
BLACK
6
CONTINUOUS
10
3.822795275590551
20
-0.6505905511811023
11
3.2716141732283464
21
-0.6505905511811023
0
LINE
8
BLACK
6
CONTINUOUS
10
3.2716141732283464
20
-0.6505905511811023
11
3.2716141732283464
21
-0.0206692913385827
0
LINE
8
BLACK
6
CONTINUOUS
10
1.4903641732283464
20
-3.0206692913385824
11
2.041545275590551
21
-3.0206692913385824
0
LINE
8
BLACK
6
CONTINUOUS
10
2.041545275590551
20
-3.0206692913385824
11
2.041545275590551
21
-3.6505905511811023
0
LINE
8
BLACK
6
CONTINUOUS
10
2.041545275590551
20
-3.6505905511811023
11
1.4903641732283464
21
-3.6505905511811023
0
LINE
8
BLACK
6
CONTINUOUS
10
1.4903641732283464
20
-3.6505905511811023
11
1.4903641732283464
21
-3.0206692913385824
0
LINE
8
BLACK
6
CONTINUOUS
10
4.3966141732283468
20
-1.5206692913385826
11
4.9477952755905514
21
-1.5206692913385826
0
LINE
8
BLACK
6
CONTINUOUS
10
4.9477952755905514
20
-1.5206692913385826
11
4.9477952755905514
21
-2.1505905511811023
0
LINE
8
BLACK
6
CONTINUOUS
10
4.9477952755905514
20
-2.1505905511811023
11
4.3966141732283468
21
-2.1505905511811023
0
LINE
8
BLACK
6
CONTINUOUS
10
4.3966141732283468
20
-2.1505905511811023
11
4.3966141732283468
21
-1.5206692913385826
0
LINE
8
BLACK
6
CONTINUOUS
10
2.7091141732283464
20
-3.0206692913385824
11
3.260295275590551
21
-3.0206692913385824
0
LINE
8
BLACK
6
CONTINUOUS
10
3.260295275590551
20
-3.0206692913385824
11
3.260295275590551
21
-3.6505905511811023
0
LINE
8
BLACK
6
CONTINUOUS
10
3.260295275590551
20
-3.6505905511811023
11
2.7091141732283464
21
-3.6505905511811023
0
LINE
8
BLACK
6
CONTINUOUS
10
2.7091141732283464
20
-3.6505905511811023
11
2.7091141732283464
21
-3.0206692913385824
0
LINE
8
BLACK
6
CONTINUOUS
10
4.7716141732283459
20
-0.7706692913385826
11
5.3227952755905514
21
-0.7706692913385826
0
LINE
8
BLACK
6
CONTINUOUS
10
5.3227952755905514
20
-0.7706692913385826
11
5.3227952755905514
21
-1.4005905511811023
0
LINE
8
BLACK
6
CONTINUOUS
10
5.3227952755905514
20
-1.4005905511811023
11
4.7716141732283459
21
-1.4005905511811023
0
LINE
8
BLACK
6
CONTINUOUS
10
4.7716141732283459
20
-1.4005905511811023
11
4.7716141732283459
21
-0.7706692913385826
0
LINE
8
BLACK
6
CONTINUOUS
10
1.7716141732283464
20
-0.0206692913385827
11
2.322795275590551
21
-0.0206692913385827
0
LINE
8
BLACK
6
CONTINUOUS
10
2.322795275590551
20
-0.0206692913385827
11
2.322795275590551
21
-0.6505905511811023
0
LINE
8
BLACK
6
CONTINUOUS
10
2.322795275590551
20
-0.6505905511811023
11
1.7716141732283464
21
-0.6505905511811023
0
LINE
8
BLACK
6
CONTINUOUS
10
1.7716141732283464
20
-0.6505905511811023
11
1.7716141732283464
21
-0.0206692913385827
0
LINE
8
BLACK
6
CONTINUOUS
10
4.7716141732283459
20
-0.0206692913385827
11
5.3227952755905514
21
-0.0206692913385827
0
LINE
8
BLACK
6
CONTINUOUS
10
5.3227952755905514
20
-0.0206692913385827
11
5.3227952755905514
21
-0.6505905511811023
0
LINE
8
BLACK
6
CONTINUOUS
10
5.3227952755905514
20
-0.6505905511811023
11
4.7716141732283459
21
-0.6505905511811023
0
LINE
8
BLACK
6
CONTINUOUS
10
4.7716141732283459
20
-0.6505905511811023
11
4.7716141732283459
21
-0.0206692913385827
0
LINE
8
BLACK
6
CONTINUOUS
10
4.0216141732283468
20
-0.0206692913385827
11
4.5727952755905514
21
-0.0206692913385827
0
LINE
8
BLACK
6
CONTINUOUS
10
4.5727952755905514
20
-0.0206692913385827
11
4.5727952755905514
21
-0.6505905511811023
0
LINE
8
BLACK
6
CONTINUOUS
10
4.5727952755905514
20
-0.6505905511811023
11
4.0216141732283468
21
-0.6505905511811023
0
LINE
8
BLACK
6
CONTINUOUS
10
4.0216141732283468
20
-0.6505905511811023
11
4.0216141732283468
21
-0.0206692913385827
0
LINE
8
BLACK
6
CONTINUOUS
10
5.3341141732283459
20
-2.2706692913385824
11
5.8852952755905514
21
-2.2706692913385824
0
LINE
8
BLACK
6
CONTINUOUS
10
5.8852952755905514
20
-2.2706692913385824
11
5.8852952755905514
21
-2.9005905511811023
0
LINE
8
BLACK
6
CONTINUOUS
10
5.8852952755905514
20
-2.9005905511811023
11
5.3341141732283459
21
-2.9005905511811023
0
LINE
8
BLACK
6
CONTINUOUS
10
5.3341141732283459
20
-2.9005905511811023
11
5.3341141732283459
21
-2.2706692913385824
0
LINE
8
BLACK
6
CONTINUOUS
10
1.8653641732283464
20
-3.7706692913385824
11
2.416545275590551
21
-3.7706692913385824
0
LINE
8
BLACK
6
CONTINUOUS
10
2.416545275590551
20
-3.7706692913385824
11
2.416545275590551
21
-4.4005905511811019
0
LINE
8
BLACK
6
CONTINUOUS
10
2.416545275590551
20
-4.4005905511811019
11
1.8653641732283464
21
-4.4005905511811019
0
LINE
8
BLACK
6
CONTINUOUS
10
1.8653641732283464
20
-4.4005905511811019
11
1.8653641732283464
21
-3.7706692913385824
0
LINE
8
BLACK
6
CONTINUOUS
10
3.8341141732283464
20
-2.2706692913385824
11
4.3852952755905514
21
-2.2706692913385824
0
LINE
8
BLACK
6
CONTINUOUS
10
4.3852952755905514
20
-2.2706692913385824
11
4.3852952755905514
21
-2.9005905511811023
0
LINE
8
BLACK
6
CONTINUOUS
10
4.3852952755905514
20
-2.9005905511811023
11
3.8341141732283464
21
-2.9005905511811023
0
LINE
8
BLACK
6
CONTINUOUS
10
3.8341141732283464
20
-2.9005905511811023
11
3.8341141732283464
21
-2.2706692913385824
0
LINE
8
BLACK
6
CONTINUOUS
10
1.0216141732283464
20
-0.0206692913385827
11
1.5727952755905512
21
-0.0206692913385827
0
LINE
8
BLACK
6
CONTINUOUS
10
1.5727952755905512
20
-0.0206692913385827
11
1.5727952755905512
21
-0.6505905511811023
0
LINE
8
BLACK
6
CONTINUOUS
10
1.5727952755905512
20
-0.6505905511811023
11
1.0216141732283464
21
-0.6505905511811023
0
LINE
8
BLACK
6
CONTINUOUS
10
1.0216141732283464
20
-0.6505905511811023
11
1.0216141732283464
21
-0.0206692913385827
0
LINE
8
BLACK
6
CONTINUOUS
10
1.2091141732283464
20
-1.5206692913385826
11
1.7602952755905512
21
-1.5206692913385826
0
LINE
8
BLACK
6
CONTINUOUS
10
1.7602952755905512
20
-1.5206692913385826
11
1.7602952755905512
21
-2.1505905511811023
0
LINE
8
BLACK
6
CONTINUOUS
10
1.7602952755905512
20
-2.1505905511811023
11
1.2091141732283464
21
-2.1505905511811023
0
LINE
8
BLACK
6
CONTINUOUS
10
1.2091141732283464
20
-2.1505905511811023
11
1.2091141732283464
21
-1.5206692913385826
0
LINE
8
BLACK
6
CONTINUOUS
10
3.6466141732283464
20
-1.5206692913385826
11
4.1977952755905514
21
-1.5206692913385826
0
LINE
8
BLACK
6
CONTINUOUS
10
4.1977952755905514
20
-1.5206692913385826
11
4.1977952755905514
21
-2.1505905511811023
0
LINE
8
BLACK
6
CONTINUOUS
10
4.1977952755905514
20
-2.1505905511811023
11
3.6466141732283464
21
-2.1505905511811023
0
LINE
8
BLACK
6
CONTINUOUS
10
3.6466141732283464
20
-2.1505905511811023
11
3.6466141732283464
21
-1.5206692913385826
0
LINE
8
BLACK
6
CONTINUOUS
10
4.5841141732283459
20
-2.2706692913385824
11
5.1352952755905514
21
-2.2706692913385824
0
LINE
8
BLACK
6
CONTINUOUS
10
5.1352952755905514
20
-2.2706692913385824
11
5.1352952755905514
21
-2.9005905511811023
0
LINE
8
BLACK
6
CONTINUOUS
10
5.1352952755905514
20
-2.9005905511811023
11
4.5841141732283459
21
-2.9005905511811023
0
LINE
8
BLACK
6
CONTINUOUS
10
4.5841141732283459
20
-2.9005905511811023
11
4.5841141732283459
21
-2.2706692913385824
0
LINE
8
BLACK
6
CONTINUOUS
10
1.3028641732283464
20
-2.2706692913385824
11
1.8540452755905512
21
-2.2706692913385824
0
LINE
8
BLACK
6
CONTINUOUS
10
1.8540452755905512
20
-2.2706692913385824
11
1.8540452755905512
21
-2.9005905511811023
0
LINE
8
BLACK
6
CONTINUOUS
10
1.8540452755905512
20
-2.9005905511811023
11
1.3028641732283464
21
-2.9005905511811023
0
LINE
8
BLACK
6
CONTINUOUS
10
1.3028641732283464
20
-2.9005905511811023
11
1.3028641732283464
21
-2.2706692913385824
0
LINE
8
BLACK
6
CONTINUOUS
10
1.0216141732283464
20
-0.7706692913385826
11
1.5727952755905512
21
-0.7706692913385826
0
LINE
8
BLACK
6
CONTINUOUS
10
1.5727952755905512
20
-0.7706692913385826
11
1.5727952755905512
21
-1.4005905511811023
0
LINE
8
BLACK
6
CONTINUOUS
10
1.5727952755905512
20
-1.4005905511811023
11
1.0216141732283464
21
-1.4005905511811023
0
LINE
8
BLACK
6
CONTINUOUS
10
1.0216141732283464
20
-1.4005905511811023
11
1.0216141732283464
21
-0.7706692913385826
  0
ENDSEC
  0
EOF
