  0
SECTION
  2
HEADER
  9
$ANGBASE
  50
0.0
  9
$ANGDIR
  70
1
  9
$MEASUREMENT
  70
0
  0
ENDSEC
  0
SECTION
  2
TABLES
  0
TABLE
  2
LTYPE
  70
4
  0
LTYPE
  5
40F
  2
CONTINUOUS
  70
0
  3
Solid line
  72
65
  73
0
  40
0.0
  0
LTYPE
  5
410
  2
DASHDOT
 70
0
  3
Dash Dot ____ _ ____ _
 72
65
 73
4
 40
2.0
 49
1.25
 49
-0.25
 49
0.25
 49
-0.25
  0
LTYPE
  5
411
  2
DASHED
 70
0
  3
Dashed __ __ __ __ __
 72
65
 73
2
 40
0.75
 49
0.5
 49
-0.25
  0
LTYPE
  5
43B
  2
DOTTED
 70
0
  3
Dotted .  .  .  .
 72
65
 73
2
 40
0.2
 49
0.0
 49
-0.2
  0
ENDTAB
  0
TABLE
  2
STYLE
  70
4
  0
STYLE
  2
KICAD
  70
0
  40
0
  41
1
  42
1
  50
0
  71
0
  3
isocp.shx
  0
STYLE
  2
KICADB
  70
0
  40
0
  41
1
  42
1
  50
0
  71
0
  3
isocp.shx
  0
STYLE
  2
KICADI
  70
0
  40
0
  41
1
  42
1
  50
15
  71
0
  3
isocp.shx
  0
STYLE
  2
KICADBI
  70
0
  40
0
  41
1
  42
1
  50
15
  71
0
  3
isocp.shx
  0
ENDTAB
  0
TABLE
  2
LAYER
  70
1
  0
LAYER
  2
BLACK
  70
0
  62
7
  6
CONTINUOUS
  0
ENDTAB
  0
ENDSEC
  0
SECTION
  2
ENTITIES
0
LINE
8
BLACK
6
CONTINUOUS
10
-3.2577362204724407
20
-5.1645826771653542
11
0.9942322834645669
21
-5.1645826771653542
0
LINE
8
BLACK
6
CONTINUOUS
10
0.9942322834645669
20
-5.1645826771653542
11
0.9942322834645669
21
-6.4244251968503931
0
LINE
8
BLACK
6
CONTINUOUS
10
0.9942322834645669
20
-6.4244251968503931
11
-3.2577362204724407
21
-6.4244251968503931
0
LINE
8
BLACK
6
CONTINUOUS
10
-3.2577362204724407
20
-6.4244251968503931
11
-3.2577362204724407
21
-5.1645826771653542
0
LINE
8
BLACK
6
CONTINUOUS
10
-9.832625984251969
20
0.9774330708661417
11
1.0729724409448818
21
0.9774330708661417
0
LINE
8
BLACK
6
CONTINUOUS
10
1.0729724409448818
20
0.9774330708661417
11
1.0729724409448818
21
-6.5031653543307089
0
LINE
8
BLACK
6
CONTINUOUS
10
1.0729724409448818
20
-6.5031653543307089
11
-9.832625984251969
21
-6.5031653543307089
0
LINE
8
BLACK
6
CONTINUOUS
10
-9.832625984251969
20
-6.5031653543307089
11
-9.832625984251969
21
0.9774330708661417
0
LINE
8
BLACK
6
CONTINUOUS
10
-9.7538858267716542
20
0.8986929133858268
11
0.9942322834645669
21
0.8986929133858268
0
LINE
8
BLACK
6
CONTINUOUS
10
0.9942322834645669
20
0.8986929133858268
11
0.9942322834645669
21
-6.4244251968503931
0
LINE
8
BLACK
6
CONTINUOUS
10
0.9942322834645669
20
-6.4244251968503931
11
-9.7538858267716542
21
-6.4244251968503931
0
LINE
8
BLACK
6
CONTINUOUS
10
-9.7538858267716542
20
-6.4244251968503931
11
-9.7538858267716542
21
0.8986929133858268
0
LINE
8
BLACK
6
CONTINUOUS
10
-7.864122047244094
20
0.8986929133858268
11
-7.864122047244094
21
0.9774330708661417
0
LINE
8
BLACK
6
CONTINUOUS
10
-5.89561811023622
20
0.8986929133858268
11
-5.89561811023622
21
0.9774330708661417
0
LINE
8
BLACK
6
CONTINUOUS
10
-3.9271141732283463
20
0.8986929133858268
11
-3.9271141732283463
21
0.9774330708661417
0
LINE
8
BLACK
6
CONTINUOUS
10
-1.9586102362204725
20
0.8986929133858268
11
-1.9586102362204725
21
0.9774330708661417
0
LINE
8
BLACK
6
CONTINUOUS
10
0.0098937007874016
20
0.8986929133858268
11
0.0098937007874016
21
0.9774330708661417
0
LINE
8
BLACK
6
CONTINUOUS
10
-8.8054937007874017
20
0.9146927559055118
11
-8.8347400393700788
21
0.9146927559055118
0
LINE
8
BLACK
6
CONTINUOUS
10
-8.8201168897637796
20
0.9146927559055118
11
-8.8201168897637796
21
0.9658738582677165
0
LINE
8
BLACK
6
CONTINUOUS
10
-8.8201168897637796
20
0.9658738582677165
11
-8.8249912598425198
21
0.9585622440944882
0
LINE
8
BLACK
6
CONTINUOUS
10
-8.8249912598425198
20
0.9585622440944882
11
-8.8298656692913386
21
0.9536878740157481
0
LINE
8
BLACK
6
CONTINUOUS
10
-8.8298656692913386
20
0.9536878740157481
11
-8.8347400393700788
21
0.9512506692913386
0
LINE
8
BLACK
6
CONTINUOUS
10
-6.8662361023622047
20
0.9609994488188977
11
-6.863798937007874
21
0.9634366535433071
0
LINE
8
BLACK
6
CONTINUOUS
10
-6.863798937007874
20
0.9634366535433071
11
-6.8589245275590551
21
0.9658738582677165
0
LINE
8
BLACK
6
CONTINUOUS
10
-6.8589245275590551
20
0.9658738582677165
11
-6.8467385433070866
21
0.9658738582677165
0
LINE
8
BLACK
6
CONTINUOUS
10
-6.8467385433070866
20
0.9658738582677165
11
-6.8418641732283465
21
0.9634366535433071
0
LINE
8
BLACK
6
CONTINUOUS
10
-6.8418641732283465
20
0.9634366535433071
11
-6.8394269685039371
21
0.9609994488188977
0
LINE
8
BLACK
6
CONTINUOUS
10
-6.8394269685039371
20
0.9609994488188977
11
-6.8369897637795276
21
0.9561250787401575
0
LINE
8
BLACK
6
CONTINUOUS
10
-6.8369897637795276
20
0.9561250787401575
11
-6.8369897637795276
21
0.9512506692913386
0
LINE
8
BLACK
6
CONTINUOUS
10
-6.8369897637795276
20
0.9512506692913386
11
-6.8394269685039371
21
0.9439390944881889
0
LINE
8
BLACK
6
CONTINUOUS
10
-6.8394269685039371
20
0.9439390944881889
11
-6.8686733070866142
21
0.9146927559055118
0
LINE
8
BLACK
6
CONTINUOUS
10
-6.8686733070866142
20
0.9146927559055118
11
-6.8369897637795276
21
0.9146927559055118
0
LINE
8
BLACK
6
CONTINUOUS
10
-4.9001693700787401
20
0.9658738582677165
11
-4.8684858267716535
21
0.9658738582677165
0
LINE
8
BLACK
6
CONTINUOUS
10
-4.8684858267716535
20
0.9658738582677165
11
-4.8855462204724409
21
0.9463762992125984
0
LINE
8
BLACK
6
CONTINUOUS
10
-4.8855462204724409
20
0.9463762992125984
11
-4.8782346062992126
21
0.9463762992125984
0
LINE
8
BLACK
6
CONTINUOUS
10
-4.8782346062992126
20
0.9463762992125984
11
-4.8733602362204724
21
0.9439390944881889
0
LINE
8
BLACK
6
CONTINUOUS
10
-4.8733602362204724
20
0.9439390944881889
11
-4.870923031496063
21
0.9415018897637795
0
LINE
8
BLACK
6
CONTINUOUS
10
-4.870923031496063
20
0.9415018897637795
11
-4.8684858267716535
21
0.9366275196850393
0
LINE
8
BLACK
6
CONTINUOUS
10
-4.8684858267716535
20
0.9366275196850393
11
-4.8684858267716535
21
0.9244415354330708
0
LINE
8
BLACK
6
CONTINUOUS
10
-4.8684858267716535
20
0.9244415354330708
11
-4.870923031496063
21
0.9195671259842519
0
LINE
8
BLACK
6
CONTINUOUS
10
-4.870923031496063
20
0.9195671259842519
11
-4.8733602362204724
21
0.9171299212598425
0
LINE
8
BLACK
6
CONTINUOUS
10
-4.8733602362204724
20
0.9171299212598425
11
-4.8782346062992126
21
0.9146927559055118
0
LINE
8
BLACK
6
CONTINUOUS
10
-4.8782346062992126
20
0.9146927559055118
11
-4.8928577952755905
21
0.9146927559055118
0
LINE
8
BLACK
6
CONTINUOUS
10
-4.8928577952755905
20
0.9146927559055118
11
-4.8977321653543306
21
0.9171299212598425
0
LINE
8
BLACK
6
CONTINUOUS
10
-4.8977321653543306
20
0.9171299212598425
11
-4.9001693700787401
21
0.9195671259842519
0
LINE
8
BLACK
6
CONTINUOUS
10
-2.9048562992125984
20
0.9488134645669292
11
-2.9048562992125984
21
0.9146927559055118
0
LINE
8
BLACK
6
CONTINUOUS
10
-2.9170422834645668
20
0.9683110236220472
11
-2.9292282283464566
21
0.9317531102362204
0
LINE
8
BLACK
6
CONTINUOUS
10
-2.9292282283464566
20
0.9317531102362204
11
-2.8975447244094488
21
0.9317531102362204
0
LINE
8
BLACK
6
CONTINUOUS
10
-0.933915157480315
20
0.9658738582677165
11
-0.9582871259842519
21
0.9658738582677165
0
LINE
8
BLACK
6
CONTINUOUS
10
-0.9582871259842519
20
0.9658738582677165
11
-0.9607242913385826
21
0.9415018897637795
0
LINE
8
BLACK
6
CONTINUOUS
10
-0.9607242913385826
20
0.9415018897637795
11
-0.9582871259842519
21
0.9439390944881889
0
LINE
8
BLACK
6
CONTINUOUS
10
-0.9582871259842519
20
0.9439390944881889
11
-0.953412716535433
21
0.9463762992125984
0
LINE
8
BLACK
6
CONTINUOUS
10
-0.953412716535433
20
0.9463762992125984
11
-0.9412267322834645
21
0.9463762992125984
0
LINE
8
BLACK
6
CONTINUOUS
10
-0.9412267322834645
20
0.9463762992125984
11
-0.9363523622047244
21
0.9439390944881889
0
LINE
8
BLACK
6
CONTINUOUS
10
-0.9363523622047244
20
0.9439390944881889
11
-0.933915157480315
21
0.9415018897637795
0
LINE
8
BLACK
6
CONTINUOUS
10
-0.933915157480315
20
0.9415018897637795
11
-0.9314779527559055
21
0.9366275196850393
0
LINE
8
BLACK
6
CONTINUOUS
10
-0.9314779527559055
20
0.9366275196850393
11
-0.9314779527559055
21
0.9244415354330708
0
LINE
8
BLACK
6
CONTINUOUS
10
-0.9314779527559055
20
0.9244415354330708
11
-0.933915157480315
21
0.9195671259842519
0
LINE
8
BLACK
6
CONTINUOUS
10
-0.933915157480315
20
0.9195671259842519
11
-0.9363523622047244
21
0.9171299212598425
0
LINE
8
BLACK
6
CONTINUOUS
10
-0.9363523622047244
20
0.9171299212598425
11
-0.9412267322834645
21
0.9146927559055118
0
LINE
8
BLACK
6
CONTINUOUS
10
-0.9412267322834645
20
0.9146927559055118
11
-0.953412716535433
21
0.9146927559055118
0
LINE
8
BLACK
6
CONTINUOUS
10
-0.953412716535433
20
0.9146927559055118
11
-0.9582871259842519
21
0.9171299212598425
0
LINE
8
BLACK
6
CONTINUOUS
10
-0.9582871259842519
20
0.9171299212598425
11
-0.9607242913385826
21
0.9195671259842519
0
LINE
8
BLACK
6
CONTINUOUS
10
1.0321515748031496
20
0.9658738582677165
11
1.0224027952755905
21
0.9658738582677165
0
LINE
8
BLACK
6
CONTINUOUS
10
1.0224027952755905
20
0.9658738582677165
11
1.0175284251968504
21
0.9634366535433071
0
LINE
8
BLACK
6
CONTINUOUS
10
1.0175284251968504
20
0.9634366535433071
11
1.0150912204724409
21
0.9609994488188977
0
LINE
8
BLACK
6
CONTINUOUS
10
1.0150912204724409
20
0.9609994488188977
11
1.010216811023622
21
0.9536878740157481
0
LINE
8
BLACK
6
CONTINUOUS
10
1.010216811023622
20
0.9536878740157481
11
1.0077796456692913
21
0.9439390944881889
0
LINE
8
BLACK
6
CONTINUOUS
10
1.0077796456692913
20
0.9439390944881889
11
1.0077796456692913
21
0.9244415354330708
0
LINE
8
BLACK
6
CONTINUOUS
10
1.0077796456692913
20
0.9244415354330708
11
1.010216811023622
21
0.9195671259842519
0
LINE
8
BLACK
6
CONTINUOUS
10
1.010216811023622
20
0.9195671259842519
11
1.0126540157480315
21
0.9171299212598425
0
LINE
8
BLACK
6
CONTINUOUS
10
1.0126540157480315
20
0.9171299212598425
11
1.0175284251968504
21
0.9146927559055118
0
LINE
8
BLACK
6
CONTINUOUS
10
1.0175284251968504
20
0.9146927559055118
11
1.0272772047244094
21
0.9146927559055118
0
LINE
8
BLACK
6
CONTINUOUS
10
1.0272772047244094
20
0.9146927559055118
11
1.0321515748031496
21
0.9171299212598425
0
LINE
8
BLACK
6
CONTINUOUS
10
1.0321515748031496
20
0.9171299212598425
11
1.034588779527559
21
0.9195671259842519
0
LINE
8
BLACK
6
CONTINUOUS
10
1.034588779527559
20
0.9195671259842519
11
1.0370259842519685
21
0.9244415354330708
0
LINE
8
BLACK
6
CONTINUOUS
10
1.0370259842519685
20
0.9244415354330708
11
1.0370259842519685
21
0.9366275196850393
0
LINE
8
BLACK
6
CONTINUOUS
10
1.0370259842519685
20
0.9366275196850393
11
1.034588779527559
21
0.9415018897637795
0
LINE
8
BLACK
6
CONTINUOUS
10
1.034588779527559
20
0.9415018897637795
11
1.0321515748031496
21
0.9439390944881889
0
LINE
8
BLACK
6
CONTINUOUS
10
1.0321515748031496
20
0.9439390944881889
11
1.0272772047244094
21
0.9463762992125984
0
LINE
8
BLACK
6
CONTINUOUS
10
1.0272772047244094
20
0.9463762992125984
11
1.0175284251968504
21
0.9463762992125984
0
LINE
8
BLACK
6
CONTINUOUS
10
1.0175284251968504
20
0.9463762992125984
11
1.0126540157480315
21
0.9439390944881889
0
LINE
8
BLACK
6
CONTINUOUS
10
1.0126540157480315
20
0.9439390944881889
11
1.010216811023622
21
0.9415018897637795
0
LINE
8
BLACK
6
CONTINUOUS
10
1.010216811023622
20
0.9415018897637795
11
1.0077796456692913
21
0.9366275196850393
0
LINE
8
BLACK
6
CONTINUOUS
10
-7.864122047244094
20
-6.4244251968503931
11
-7.864122047244094
21
-6.5031653543307089
0
LINE
8
BLACK
6
CONTINUOUS
10
-5.89561811023622
20
-6.4244251968503931
11
-5.89561811023622
21
-6.5031653543307089
0
LINE
8
BLACK
6
CONTINUOUS
10
-3.9271141732283463
20
-6.4244251968503931
11
-3.9271141732283463
21
-6.5031653543307089
0
LINE
8
BLACK
6
CONTINUOUS
10
-1.9586102362204725
20
-6.4244251968503931
11
-1.9586102362204725
21
-6.5031653543307089
0
LINE
8
BLACK
6
CONTINUOUS
10
0.0098937007874016
20
-6.4244251968503931
11
0.0098937007874016
21
-6.5031653543307089
0
LINE
8
BLACK
6
CONTINUOUS
10
-8.8054937007874017
20
-6.4871655118110239
11
-8.8347400393700788
21
-6.4871655118110239
0
LINE
8
BLACK
6
CONTINUOUS
10
-8.8201168897637796
20
-6.4871655118110239
11
-8.8201168897637796
21
-6.4359844094488183
0
LINE
8
BLACK
6
CONTINUOUS
10
-8.8201168897637796
20
-6.4359844094488183
11
-8.8249912598425198
21
-6.4432960236220467
0
LINE
8
BLACK
6
CONTINUOUS
10
-8.8249912598425198
20
-6.4432960236220467
11
-8.8298656692913386
21
-6.4481703937007868
0
LINE
8
BLACK
6
CONTINUOUS
10
-8.8298656692913386
20
-6.4481703937007868
11
-8.8347400393700788
21
-6.4506075984251963
0
LINE
8
BLACK
6
CONTINUOUS
10
-6.8662361023622047
20
-6.4408588188976372
11
-6.863798937007874
21
-6.4384216141732278
0
LINE
8
BLACK
6
CONTINUOUS
10
-6.863798937007874
20
-6.4384216141732278
11
-6.8589245275590551
21
-6.4359844094488183
0
LINE
8
BLACK
6
CONTINUOUS
10
-6.8589245275590551
20
-6.4359844094488183
11
-6.8467385433070866
21
-6.4359844094488183
0
LINE
8
BLACK
6
CONTINUOUS
10
-6.8467385433070866
20
-6.4359844094488183
11
-6.8418641732283465
21
-6.4384216141732278
0
LINE
8
BLACK
6
CONTINUOUS
10
-6.8418641732283465
20
-6.4384216141732278
11
-6.8394269685039371
21
-6.4408588188976372
0
LINE
8
BLACK
6
CONTINUOUS
10
-6.8394269685039371
20
-6.4408588188976372
11
-6.8369897637795276
21
-6.4457331889763774
0
LINE
8
BLACK
6
CONTINUOUS
10
-6.8369897637795276
20
-6.4457331889763774
11
-6.8369897637795276
21
-6.4506075984251963
0
LINE
8
BLACK
6
CONTINUOUS
10
-6.8369897637795276
20
-6.4506075984251963
11
-6.8394269685039371
21
-6.4579191732283467
0
LINE
8
BLACK
6
CONTINUOUS
10
-6.8394269685039371
20
-6.4579191732283467
11
-6.8686733070866142
21
-6.4871655118110239
0
LINE
8
BLACK
6
CONTINUOUS
10
-6.8686733070866142
20
-6.4871655118110239
11
-6.8369897637795276
21
-6.4871655118110239
0
LINE
8
BLACK
6
CONTINUOUS
10
-4.9001693700787401
20
-6.4359844094488183
11
-4.8684858267716535
21
-6.4359844094488183
0
LINE
8
BLACK
6
CONTINUOUS
10
-4.8684858267716535
20
-6.4359844094488183
11
-4.8855462204724409
21
-6.4554819685039373
0
LINE
8
BLACK
6
CONTINUOUS
10
-4.8855462204724409
20
-6.4554819685039373
11
-4.8782346062992126
21
-6.4554819685039373
0
LINE
8
BLACK
6
CONTINUOUS
10
-4.8782346062992126
20
-6.4554819685039373
11
-4.8733602362204724
21
-6.4579191732283467
0
LINE
8
BLACK
6
CONTINUOUS
10
-4.8733602362204724
20
-6.4579191732283467
11
-4.870923031496063
21
-6.4603563779527562
0
LINE
8
BLACK
6
CONTINUOUS
10
-4.870923031496063
20
-6.4603563779527562
11
-4.8684858267716535
21
-6.4652307480314963
0
LINE
8
BLACK
6
CONTINUOUS
10
-4.8684858267716535
20
-6.4652307480314963
11
-4.8684858267716535
21
-6.4774167322834648
0
LINE
8
BLACK
6
CONTINUOUS
10
-4.8684858267716535
20
-6.4774167322834648
11
-4.870923031496063
21
-6.4822911417322837
0
LINE
8
BLACK
6
CONTINUOUS
10
-4.870923031496063
20
-6.4822911417322837
11
-4.8733602362204724
21
-6.4847283464566932
0
LINE
8
BLACK
6
CONTINUOUS
10
-4.8733602362204724
20
-6.4847283464566932
11
-4.8782346062992126
21
-6.4871655118110239
0
LINE
8
BLACK
6
CONTINUOUS
10
-4.8782346062992126
20
-6.4871655118110239
11
-4.8928577952755905
21
-6.4871655118110239
0
LINE
8
BLACK
6
CONTINUOUS
10
-4.8928577952755905
20
-6.4871655118110239
11
-4.8977321653543306
21
-6.4847283464566932
0
LINE
8
BLACK
6
CONTINUOUS
10
-4.8977321653543306
20
-6.4847283464566932
11
-4.9001693700787401
21
-6.4822911417322837
0
LINE
8
BLACK
6
CONTINUOUS
10
-2.9048562992125984
20
-6.4530448031496057
11
-2.9048562992125984
21
-6.4871655118110239
0
LINE
8
BLACK
6
CONTINUOUS
10
-2.9170422834645668
20
-6.4335472440944876
11
-2.9292282283464566
21
-6.4701051574803152
0
LINE
8
BLACK
6
CONTINUOUS
10
-2.9292282283464566
20
-6.4701051574803152
11
-2.8975447244094488
21
-6.4701051574803152
0
LINE
8
BLACK
6
CONTINUOUS
10
-0.933915157480315
20
-6.4359844094488183
11
-0.9582871259842519
21
-6.4359844094488183
0
LINE
8
BLACK
6
CONTINUOUS
10
-0.9582871259842519
20
-6.4359844094488183
11
-0.9607242913385826
21
-6.4603563779527562
0
LINE
8
BLACK
6
CONTINUOUS
10
-0.9607242913385826
20
-6.4603563779527562
11
-0.9582871259842519
21
-6.4579191732283467
0
LINE
8
BLACK
6
CONTINUOUS
10
-0.9582871259842519
20
-6.4579191732283467
11
-0.953412716535433
21
-6.4554819685039373
0
LINE
8
BLACK
6
CONTINUOUS
10
-0.953412716535433
20
-6.4554819685039373
11
-0.9412267322834645
21
-6.4554819685039373
0
LINE
8
BLACK
6
CONTINUOUS
10
-0.9412267322834645
20
-6.4554819685039373
11
-0.9363523622047244
21
-6.4579191732283467
0
LINE
8
BLACK
6
CONTINUOUS
10
-0.9363523622047244
20
-6.4579191732283467
11
-0.933915157480315
21
-6.4603563779527562
0
LINE
8
BLACK
6
CONTINUOUS
10
-0.933915157480315
20
-6.4603563779527562
11
-0.9314779527559055
21
-6.4652307480314963
0
LINE
8
BLACK
6
CONTINUOUS
10
-0.9314779527559055
20
-6.4652307480314963
11
-0.9314779527559055
21
-6.4774167322834648
0
LINE
8
BLACK
6
CONTINUOUS
10
-0.9314779527559055
20
-6.4774167322834648
11
-0.933915157480315
21
-6.4822911417322837
0
LINE
8
BLACK
6
CONTINUOUS
10
-0.933915157480315
20
-6.4822911417322837
11
-0.9363523622047244
21
-6.4847283464566932
0
LINE
8
BLACK
6
CONTINUOUS
10
-0.9363523622047244
20
-6.4847283464566932
11
-0.9412267322834645
21
-6.4871655118110239
0
LINE
8
BLACK
6
CONTINUOUS
10
-0.9412267322834645
20
-6.4871655118110239
11
-0.953412716535433
21
-6.4871655118110239
0
LINE
8
BLACK
6
CONTINUOUS
10
-0.953412716535433
20
-6.4871655118110239
11
-0.9582871259842519
21
-6.4847283464566932
0
LINE
8
BLACK
6
CONTINUOUS
10
-0.9582871259842519
20
-6.4847283464566932
11
-0.9607242913385826
21
-6.4822911417322837
0
LINE
8
BLACK
6
CONTINUOUS
10
1.0321515748031496
20
-6.4359844094488183
11
1.0224027952755905
21
-6.4359844094488183
0
LINE
8
BLACK
6
CONTINUOUS
10
1.0224027952755905
20
-6.4359844094488183
11
1.0175284251968504
21
-6.4384216141732278
0
LINE
8
BLACK
6
CONTINUOUS
10
1.0175284251968504
20
-6.4384216141732278
11
1.0150912204724409
21
-6.4408588188976372
0
LINE
8
BLACK
6
CONTINUOUS
10
1.0150912204724409
20
-6.4408588188976372
11
1.010216811023622
21
-6.4481703937007868
0
LINE
8
BLACK
6
CONTINUOUS
10
1.010216811023622
20
-6.4481703937007868
11
1.0077796456692913
21
-6.4579191732283467
0
LINE
8
BLACK
6
CONTINUOUS
10
1.0077796456692913
20
-6.4579191732283467
11
1.0077796456692913
21
-6.4774167322834648
0
LINE
8
BLACK
6
CONTINUOUS
10
1.0077796456692913
20
-6.4774167322834648
11
1.010216811023622
21
-6.4822911417322837
0
LINE
8
BLACK
6
CONTINUOUS
10
1.010216811023622
20
-6.4822911417322837
11
1.0126540157480315
21
-6.4847283464566932
0
LINE
8
BLACK
6
CONTINUOUS
10
1.0126540157480315
20
-6.4847283464566932
11
1.0175284251968504
21
-6.4871655118110239
0
LINE
8
BLACK
6
CONTINUOUS
10
1.0175284251968504
20
-6.4871655118110239
11
1.0272772047244094
21
-6.4871655118110239
0
LINE
8
BLACK
6
CONTINUOUS
10
1.0272772047244094
20
-6.4871655118110239
11
1.0321515748031496
21
-6.4847283464566932
0
LINE
8
BLACK
6
CONTINUOUS
10
1.0321515748031496
20
-6.4847283464566932
11
1.034588779527559
21
-6.4822911417322837
0
LINE
8
BLACK
6
CONTINUOUS
10
1.034588779527559
20
-6.4822911417322837
11
1.0370259842519685
21
-6.4774167322834648
0
LINE
8
BLACK
6
CONTINUOUS
10
1.0370259842519685
20
-6.4774167322834648
11
1.0370259842519685
21
-6.4652307480314963
0
LINE
8
BLACK
6
CONTINUOUS
10
1.0370259842519685
20
-6.4652307480314963
11
1.034588779527559
21
-6.4603563779527562
0
LINE
8
BLACK
6
CONTINUOUS
10
1.034588779527559
20
-6.4603563779527562
11
1.0321515748031496
21
-6.4579191732283467
0
LINE
8
BLACK
6
CONTINUOUS
10
1.0321515748031496
20
-6.4579191732283467
11
1.0272772047244094
21
-6.4554819685039373
0
LINE
8
BLACK
6
CONTINUOUS
10
1.0272772047244094
20
-6.4554819685039373
11
1.0175284251968504
21
-6.4554819685039373
0
LINE
8
BLACK
6
CONTINUOUS
10
1.0175284251968504
20
-6.4554819685039373
11
1.0126540157480315
21
-6.4579191732283467
0
LINE
8
BLACK
6
CONTINUOUS
10
1.0126540157480315
20
-6.4579191732283467
11
1.010216811023622
21
-6.4603563779527562
0
LINE
8
BLACK
6
CONTINUOUS
10
1.010216811023622
20
-6.4603563779527562
11
1.0077796456692913
21
-6.4652307480314963
0
LINE
8
BLACK
6
CONTINUOUS
10
-9.832625984251969
20
-0.9910708661417322
11
-9.7538858267716542
21
-0.9910708661417322
0
LINE
8
BLACK
6
CONTINUOUS
10
-9.832625984251969
20
-2.9595748031496063
11
-9.7538858267716542
21
-2.9595748031496063
0
LINE
8
BLACK
6
CONTINUOUS
10
-9.832625984251969
20
-4.9280787401574804
11
-9.7538858267716542
21
-4.9280787401574804
0
LINE
8
BLACK
6
CONTINUOUS
10
-9.8054418897637792
20
-0.0155659842519685
11
-9.781069960629921
21
-0.0155659842519685
0
LINE
8
BLACK
6
CONTINUOUS
10
-9.8103162992125981
20
-0.0301891338582677
11
-9.7932559448818903
21
0.020991968503937
0
LINE
8
BLACK
6
CONTINUOUS
10
-9.7932559448818903
20
0.020991968503937
11
-9.7761955511811021
21
-0.0301891338582677
0
LINE
8
BLACK
6
CONTINUOUS
10
-9.7896001181102363
20
-1.971883937007874
11
-9.7822885433070859
21
-1.9743211417322835
0
LINE
8
BLACK
6
CONTINUOUS
10
-9.7822885433070859
20
-1.9743211417322835
11
-9.7798513385826773
21
-1.9767583070866142
0
LINE
8
BLACK
6
CONTINUOUS
10
-9.7798513385826773
20
-1.9767583070866142
11
-9.7774141732283457
21
-1.981632716535433
0
LINE
8
BLACK
6
CONTINUOUS
10
-9.7774141732283457
20
-1.981632716535433
11
-9.7774141732283457
21
-1.9889442913385826
0
LINE
8
BLACK
6
CONTINUOUS
10
-9.7774141732283457
20
-1.9889442913385826
11
-9.7798513385826773
21
-1.9938187007874015
0
LINE
8
BLACK
6
CONTINUOUS
10
-9.7798513385826773
20
-1.9938187007874015
11
-9.7822885433070859
21
-1.996255905511811
0
LINE
8
BLACK
6
CONTINUOUS
10
-9.7822885433070859
20
-1.996255905511811
11
-9.7871629527559048
21
-1.9986930708661417
0
LINE
8
BLACK
6
CONTINUOUS
10
-9.7871629527559048
20
-1.9986930708661417
11
-9.8066605118110228
21
-1.9986930708661417
0
LINE
8
BLACK
6
CONTINUOUS
10
-9.8066605118110228
20
-1.9986930708661417
11
-9.8066605118110228
21
-1.947511968503937
0
LINE
8
BLACK
6
CONTINUOUS
10
-9.8066605118110228
20
-1.947511968503937
11
-9.7896001181102363
21
-1.947511968503937
0
LINE
8
BLACK
6
CONTINUOUS
10
-9.7896001181102363
20
-1.947511968503937
11
-9.7847257480314962
21
-1.9499491732283465
0
LINE
8
BLACK
6
CONTINUOUS
10
-9.7847257480314962
20
-1.9499491732283465
11
-9.7822885433070859
21
-1.9523863779527559
0
LINE
8
BLACK
6
CONTINUOUS
10
-9.7822885433070859
20
-1.9523863779527559
11
-9.7798513385826773
21
-1.9572607480314961
0
LINE
8
BLACK
6
CONTINUOUS
10
-9.7798513385826773
20
-1.9572607480314961
11
-9.7798513385826773
21
-1.962135157480315
0
LINE
8
BLACK
6
CONTINUOUS
10
-9.7798513385826773
20
-1.962135157480315
11
-9.7822885433070859
21
-1.9670095275590551
0
LINE
8
BLACK
6
CONTINUOUS
10
-9.7822885433070859
20
-1.9670095275590551
11
-9.7847257480314962
21
-1.9694467322834646
0
LINE
8
BLACK
6
CONTINUOUS
10
-9.7847257480314962
20
-1.9694467322834646
11
-9.7896001181102363
21
-1.971883937007874
0
LINE
8
BLACK
6
CONTINUOUS
10
-9.7896001181102363
20
-1.971883937007874
11
-9.8066605118110228
21
-1.971883937007874
0
LINE
8
BLACK
6
CONTINUOUS
10
-9.7774141732283457
20
-3.9623226377952756
11
-9.7798513385826773
21
-3.9647598425196851
0
LINE
8
BLACK
6
CONTINUOUS
10
-9.7798513385826773
20
-3.9647598425196851
11
-9.7871629527559048
21
-3.9671970078740157
0
LINE
8
BLACK
6
CONTINUOUS
10
-9.7871629527559048
20
-3.9671970078740157
11
-9.7920373228346449
21
-3.9671970078740157
0
LINE
8
BLACK
6
CONTINUOUS
10
-9.7920373228346449
20
-3.9671970078740157
11
-9.7993488976377954
21
-3.9647598425196851
0
LINE
8
BLACK
6
CONTINUOUS
10
-9.7993488976377954
20
-3.9647598425196851
11
-9.8042233070866143
21
-3.9598854330708662
0
LINE
8
BLACK
6
CONTINUOUS
10
-9.8042233070866143
20
-3.9598854330708662
11
-9.8066605118110228
21
-3.9550110236220473
0
LINE
8
BLACK
6
CONTINUOUS
10
-9.8066605118110228
20
-3.9550110236220473
11
-9.8090976771653544
21
-3.9452622440944882
0
LINE
8
BLACK
6
CONTINUOUS
10
-9.8090976771653544
20
-3.9452622440944882
11
-9.8090976771653544
21
-3.9379506692913386
0
LINE
8
BLACK
6
CONTINUOUS
10
-9.8090976771653544
20
-3.9379506692913386
11
-9.8066605118110228
21
-3.9282018897637796
0
LINE
8
BLACK
6
CONTINUOUS
10
-9.8066605118110228
20
-3.9282018897637796
11
-9.8042233070866143
21
-3.9233275196850395
0
LINE
8
BLACK
6
CONTINUOUS
10
-9.8042233070866143
20
-3.9233275196850395
11
-9.7993488976377954
21
-3.9184531102362206
0
LINE
8
BLACK
6
CONTINUOUS
10
-9.7993488976377954
20
-3.9184531102362206
11
-9.7920373228346449
21
-3.9160159055118111
0
LINE
8
BLACK
6
CONTINUOUS
10
-9.7920373228346449
20
-3.9160159055118111
11
-9.7871629527559048
21
-3.9160159055118111
0
LINE
8
BLACK
6
CONTINUOUS
10
-9.7871629527559048
20
-3.9160159055118111
11
-9.7798513385826773
21
-3.9184531102362206
0
LINE
8
BLACK
6
CONTINUOUS
10
-9.7798513385826773
20
-3.9184531102362206
11
-9.7774141732283457
21
-3.92089031496063
0
LINE
8
BLACK
6
CONTINUOUS
10
-9.8066605118110228
20
-5.9357009448818898
11
-9.8066605118110228
21
-5.8845198425196852
0
LINE
8
BLACK
6
CONTINUOUS
10
-9.8066605118110228
20
-5.8845198425196852
11
-9.7944745275590552
21
-5.8845198425196852
0
LINE
8
BLACK
6
CONTINUOUS
10
-9.7944745275590552
20
-5.8845198425196852
11
-9.7871629527559048
21
-5.8869570472440946
0
LINE
8
BLACK
6
CONTINUOUS
10
-9.7871629527559048
20
-5.8869570472440946
11
-9.7822885433070859
21
-5.8918314566929135
0
LINE
8
BLACK
6
CONTINUOUS
10
-9.7822885433070859
20
-5.8918314566929135
11
-9.7798513385826773
21
-5.8967058267716537
0
LINE
8
BLACK
6
CONTINUOUS
10
-9.7798513385826773
20
-5.8967058267716537
11
-9.7774141732283457
21
-5.9064546062992127
0
LINE
8
BLACK
6
CONTINUOUS
10
-9.7774141732283457
20
-5.9064546062992127
11
-9.7774141732283457
21
-5.9137661811023623
0
LINE
8
BLACK
6
CONTINUOUS
10
-9.7774141732283457
20
-5.9137661811023623
11
-9.7798513385826773
21
-5.9235149606299213
0
LINE
8
BLACK
6
CONTINUOUS
10
-9.7798513385826773
20
-5.9235149606299213
11
-9.7822885433070859
21
-5.9283893700787402
0
LINE
8
BLACK
6
CONTINUOUS
10
-9.7822885433070859
20
-5.9283893700787402
11
-9.7871629527559048
21
-5.9332637795275591
0
LINE
8
BLACK
6
CONTINUOUS
10
-9.7871629527559048
20
-5.9332637795275591
11
-9.7944745275590552
21
-5.9357009448818898
0
LINE
8
BLACK
6
CONTINUOUS
10
-9.7944745275590552
20
-5.9357009448818898
11
-9.8066605118110228
21
-5.9357009448818898
0
LINE
8
BLACK
6
CONTINUOUS
10
1.0729724409448818
20
-0.9910708661417322
11
0.9942322834645669
21
-0.9910708661417322
0
LINE
8
BLACK
6
CONTINUOUS
10
1.0729724409448818
20
-2.9595748031496063
11
0.9942322834645669
21
-2.9595748031496063
0
LINE
8
BLACK
6
CONTINUOUS
10
1.0729724409448818
20
-4.9280787401574804
11
0.9942322834645669
21
-4.9280787401574804
0
LINE
8
BLACK
6
CONTINUOUS
10
1.0214163779527559
20
-0.0155659842519685
11
1.0457883070866141
21
-0.0155659842519685
0
LINE
8
BLACK
6
CONTINUOUS
10
1.016541968503937
20
-0.0301891338582677
11
1.0336023228346456
21
0.020991968503937
0
LINE
8
BLACK
6
CONTINUOUS
10
1.0336023228346456
20
0.020991968503937
11
1.050662716535433
21
-0.0301891338582677
0
LINE
8
BLACK
6
CONTINUOUS
10
1.0372581496062991
20
-1.971883937007874
11
1.0445697244094487
21
-1.9743211417322835
0
LINE
8
BLACK
6
CONTINUOUS
10
1.0445697244094487
20
-1.9743211417322835
11
1.0470069291338582
21
-1.9767583070866142
0
LINE
8
BLACK
6
CONTINUOUS
10
1.0470069291338582
20
-1.9767583070866142
11
1.0494440944881889
21
-1.981632716535433
0
LINE
8
BLACK
6
CONTINUOUS
10
1.0494440944881889
20
-1.981632716535433
11
1.0494440944881889
21
-1.9889442913385826
0
LINE
8
BLACK
6
CONTINUOUS
10
1.0494440944881889
20
-1.9889442913385826
11
1.0470069291338582
21
-1.9938187007874015
0
LINE
8
BLACK
6
CONTINUOUS
10
1.0470069291338582
20
-1.9938187007874015
11
1.0445697244094487
21
-1.996255905511811
0
LINE
8
BLACK
6
CONTINUOUS
10
1.0445697244094487
20
-1.996255905511811
11
1.0396953149606298
21
-1.9986930708661417
0
LINE
8
BLACK
6
CONTINUOUS
10
1.0396953149606298
20
-1.9986930708661417
11
1.0201977559055118
21
-1.9986930708661417
0
LINE
8
BLACK
6
CONTINUOUS
10
1.0201977559055118
20
-1.9986930708661417
11
1.0201977559055118
21
-1.947511968503937
0
LINE
8
BLACK
6
CONTINUOUS
10
1.0201977559055118
20
-1.947511968503937
11
1.0372581496062991
21
-1.947511968503937
0
LINE
8
BLACK
6
CONTINUOUS
10
1.0372581496062991
20
-1.947511968503937
11
1.0421325196850393
21
-1.9499491732283465
0
LINE
8
BLACK
6
CONTINUOUS
10
1.0421325196850393
20
-1.9499491732283465
11
1.0445697244094487
21
-1.9523863779527559
0
LINE
8
BLACK
6
CONTINUOUS
10
1.0445697244094487
20
-1.9523863779527559
11
1.0470069291338582
21
-1.9572607480314961
0
LINE
8
BLACK
6
CONTINUOUS
10
1.0470069291338582
20
-1.9572607480314961
11
1.0470069291338582
21
-1.962135157480315
0
LINE
8
BLACK
6
CONTINUOUS
10
1.0470069291338582
20
-1.962135157480315
11
1.0445697244094487
21
-1.9670095275590551
0
LINE
8
BLACK
6
CONTINUOUS
10
1.0445697244094487
20
-1.9670095275590551
11
1.0421325196850393
21
-1.9694467322834646
0
LINE
8
BLACK
6
CONTINUOUS
10
1.0421325196850393
20
-1.9694467322834646
11
1.0372581496062991
21
-1.971883937007874
0
LINE
8
BLACK
6
CONTINUOUS
10
1.0372581496062991
20
-1.971883937007874
11
1.0201977559055118
21
-1.971883937007874
0
LINE
8
BLACK
6
CONTINUOUS
10
1.0494440944881889
20
-3.9623226377952756
11
1.0470069291338582
21
-3.9647598425196851
0
LINE
8
BLACK
6
CONTINUOUS
10
1.0470069291338582
20
-3.9647598425196851
11
1.0396953149606298
21
-3.9671970078740157
0
LINE
8
BLACK
6
CONTINUOUS
10
1.0396953149606298
20
-3.9671970078740157
11
1.0348209448818897
21
-3.9671970078740157
0
LINE
8
BLACK
6
CONTINUOUS
10
1.0348209448818897
20
-3.9671970078740157
11
1.0275093700787401
21
-3.9647598425196851
0
LINE
8
BLACK
6
CONTINUOUS
10
1.0275093700787401
20
-3.9647598425196851
11
1.0226349606299212
21
-3.9598854330708662
0
LINE
8
BLACK
6
CONTINUOUS
10
1.0226349606299212
20
-3.9598854330708662
11
1.0201977559055118
21
-3.9550110236220473
0
LINE
8
BLACK
6
CONTINUOUS
10
1.0201977559055118
20
-3.9550110236220473
11
1.0177605905511811
21
-3.9452622440944882
0
LINE
8
BLACK
6
CONTINUOUS
10
1.0177605905511811
20
-3.9452622440944882
11
1.0177605905511811
21
-3.9379506692913386
0
LINE
8
BLACK
6
CONTINUOUS
10
1.0177605905511811
20
-3.9379506692913386
11
1.0201977559055118
21
-3.9282018897637796
0
LINE
8
BLACK
6
CONTINUOUS
10
1.0201977559055118
20
-3.9282018897637796
11
1.0226349606299212
21
-3.9233275196850395
0
LINE
8
BLACK
6
CONTINUOUS
10
1.0226349606299212
20
-3.9233275196850395
11
1.0275093700787401
21
-3.9184531102362206
0
LINE
8
BLACK
6
CONTINUOUS
10
1.0275093700787401
20
-3.9184531102362206
11
1.0348209448818897
21
-3.9160159055118111
0
LINE
8
BLACK
6
CONTINUOUS
10
1.0348209448818897
20
-3.9160159055118111
11
1.0396953149606298
21
-3.9160159055118111
0
LINE
8
BLACK
6
CONTINUOUS
10
1.0396953149606298
20
-3.9160159055118111
11
1.0470069291338582
21
-3.9184531102362206
0
LINE
8
BLACK
6
CONTINUOUS
10
1.0470069291338582
20
-3.9184531102362206
11
1.0494440944881889
21
-3.92089031496063
0
LINE
8
BLACK
6
CONTINUOUS
10
1.0201977559055118
20
-5.9357009448818898
11
1.0201977559055118
21
-5.8845198425196852
0
LINE
8
BLACK
6
CONTINUOUS
10
1.0201977559055118
20
-5.8845198425196852
11
1.0323837401574802
21
-5.8845198425196852
0
LINE
8
BLACK
6
CONTINUOUS
10
1.0323837401574802
20
-5.8845198425196852
11
1.0396953149606298
21
-5.8869570472440946
0
LINE
8
BLACK
6
CONTINUOUS
10
1.0396953149606298
20
-5.8869570472440946
11
1.0445697244094487
21
-5.8918314566929135
0
LINE
8
BLACK
6
CONTINUOUS
10
1.0445697244094487
20
-5.8918314566929135
11
1.0470069291338582
21
-5.8967058267716537
0
LINE
8
BLACK
6
CONTINUOUS
10
1.0470069291338582
20
-5.8967058267716537
11
1.0494440944881889
21
-5.9064546062992127
0
LINE
8
BLACK
6
CONTINUOUS
10
1.0494440944881889
20
-5.9064546062992127
11
1.0494440944881889
21
-5.9137661811023623
0
LINE
8
BLACK
6
CONTINUOUS
10
1.0494440944881889
20
-5.9137661811023623
11
1.0470069291338582
21
-5.9235149606299213
0
LINE
8
BLACK
6
CONTINUOUS
10
1.0470069291338582
20
-5.9235149606299213
11
1.0445697244094487
21
-5.9283893700787402
0
LINE
8
BLACK
6
CONTINUOUS
10
1.0445697244094487
20
-5.9283893700787402
11
1.0396953149606298
21
-5.9332637795275591
0
LINE
8
BLACK
6
CONTINUOUS
10
1.0396953149606298
20
-5.9332637795275591
11
1.0323837401574802
21
-5.9357009448818898
0
LINE
8
BLACK
6
CONTINUOUS
10
1.0323837401574802
20
-5.9357009448818898
11
1.0201977559055118
21
-5.9357009448818898
0
LINE
8
BLACK
6
CONTINUOUS
10
-2.334278503937008
20
-6.2585247244094484
11
-2.334278503937008
21
-6.1994696062992123
0
LINE
8
BLACK
6
CONTINUOUS
10
-2.334278503937008
20
-6.1994696062992123
11
-2.3202177559055119
21
-6.1994696062992123
0
LINE
8
BLACK
6
CONTINUOUS
10
-2.3202177559055119
20
-6.1994696062992123
11
-2.3117812992125986
21
-6.202281771653543
0
LINE
8
BLACK
6
CONTINUOUS
10
-2.3117812992125986
20
-6.202281771653543
11
-2.3061570078740159
21
-6.2079060629921257
0
LINE
8
BLACK
6
CONTINUOUS
10
-2.3061570078740159
20
-6.2079060629921257
11
-2.3033448425196852
21
-6.2135303543307083
0
LINE
8
BLACK
6
CONTINUOUS
10
-2.3033448425196852
20
-6.2135303543307083
11
-2.3005327165354332
21
-6.2247789370078737
0
LINE
8
BLACK
6
CONTINUOUS
10
-2.3005327165354332
20
-6.2247789370078737
11
-2.3005327165354332
21
-6.233215393700787
0
LINE
8
BLACK
6
CONTINUOUS
10
-2.3005327165354332
20
-6.233215393700787
11
-2.3033448425196852
21
-6.2444639763779524
0
LINE
8
BLACK
6
CONTINUOUS
10
-2.3033448425196852
20
-6.2444639763779524
11
-2.3061570078740159
21
-6.250088267716535
0
LINE
8
BLACK
6
CONTINUOUS
10
-2.3061570078740159
20
-6.250088267716535
11
-2.3117812992125986
21
-6.2557125984251964
0
LINE
8
BLACK
6
CONTINUOUS
10
-2.3117812992125986
20
-6.2557125984251964
11
-2.3202177559055119
21
-6.2585247244094484
0
LINE
8
BLACK
6
CONTINUOUS
10
-2.3202177559055119
20
-6.2585247244094484
11
-2.334278503937008
21
-6.2585247244094484
0
LINE
8
BLACK
6
CONTINUOUS
10
-2.2499140157480313
20
-6.2585247244094484
11
-2.2499140157480313
21
-6.2275911023622044
0
LINE
8
BLACK
6
CONTINUOUS
10
-2.2499140157480313
20
-6.2275911023622044
11
-2.252726181102362
21
-6.2219668110236217
0
LINE
8
BLACK
6
CONTINUOUS
10
-2.252726181102362
20
-6.2219668110236217
11
-2.2583504724409447
21
-6.219154645669291
0
LINE
8
BLACK
6
CONTINUOUS
10
-2.2583504724409447
20
-6.219154645669291
11
-2.26959905511811
21
-6.219154645669291
0
LINE
8
BLACK
6
CONTINUOUS
10
-2.26959905511811
20
-6.219154645669291
11
-2.2752233858267714
21
-6.2219668110236217
0
LINE
8
BLACK
6
CONTINUOUS
10
-2.2499140157480313
20
-6.2557125984251964
11
-2.2555383464566927
21
-6.2585247244094484
0
LINE
8
BLACK
6
CONTINUOUS
10
-2.2555383464566927
20
-6.2585247244094484
11
-2.26959905511811
21
-6.2585247244094484
0
LINE
8
BLACK
6
CONTINUOUS
10
-2.26959905511811
20
-6.2585247244094484
11
-2.2752233858267714
21
-6.2557125984251964
0
LINE
8
BLACK
6
CONTINUOUS
10
-2.2752233858267714
20
-6.2557125984251964
11
-2.2780355118110234
21
-6.250088267716535
0
LINE
8
BLACK
6
CONTINUOUS
10
-2.2780355118110234
20
-6.250088267716535
11
-2.2780355118110234
21
-6.2444639763779524
0
LINE
8
BLACK
6
CONTINUOUS
10
-2.2780355118110234
20
-6.2444639763779524
11
-2.2752233858267714
21
-6.2388396850393697
0
LINE
8
BLACK
6
CONTINUOUS
10
-2.2752233858267714
20
-6.2388396850393697
11
-2.26959905511811
21
-6.2360275590551177
0
LINE
8
BLACK
6
CONTINUOUS
10
-2.26959905511811
20
-6.2360275590551177
11
-2.2555383464566927
21
-6.2360275590551177
0
LINE
8
BLACK
6
CONTINUOUS
10
-2.2555383464566927
20
-6.2360275590551177
11
-2.2499140157480313
21
-6.233215393700787
0
LINE
8
BLACK
6
CONTINUOUS
10
-2.2302289763779526
20
-6.219154645669291
11
-2.2077318110236219
21
-6.219154645669291
0
LINE
8
BLACK
6
CONTINUOUS
10
-2.221792559055118
20
-6.1994696062992123
11
-2.221792559055118
21
-6.250088267716535
0
LINE
8
BLACK
6
CONTINUOUS
10
-2.221792559055118
20
-6.250088267716535
11
-2.2189803937007873
21
-6.2557125984251964
0
LINE
8
BLACK
6
CONTINUOUS
10
-2.2189803937007873
20
-6.2557125984251964
11
-2.2133561023622046
21
-6.2585247244094484
0
LINE
8
BLACK
6
CONTINUOUS
10
-2.2133561023622046
20
-6.2585247244094484
11
-2.2077318110236219
21
-6.2585247244094484
0
LINE
8
BLACK
6
CONTINUOUS
10
-2.1655495669291338
20
-6.2557125984251964
11
-2.1711738582677165
21
-6.2585247244094484
0
LINE
8
BLACK
6
CONTINUOUS
10
-2.1711738582677165
20
-6.2585247244094484
11
-2.1824224409448818
21
-6.2585247244094484
0
LINE
8
BLACK
6
CONTINUOUS
10
-2.1824224409448818
20
-6.2585247244094484
11
-2.1880467716535432
21
-6.2557125984251964
0
LINE
8
BLACK
6
CONTINUOUS
10
-2.1880467716535432
20
-6.2557125984251964
11
-2.1908588976377952
21
-6.250088267716535
0
LINE
8
BLACK
6
CONTINUOUS
10
-2.1908588976377952
20
-6.250088267716535
11
-2.1908588976377952
21
-6.2275911023622044
0
LINE
8
BLACK
6
CONTINUOUS
10
-2.1908588976377952
20
-6.2275911023622044
11
-2.1880467716535432
21
-6.2219668110236217
0
LINE
8
BLACK
6
CONTINUOUS
10
-2.1880467716535432
20
-6.2219668110236217
11
-2.1824224409448818
21
-6.219154645669291
0
LINE
8
BLACK
6
CONTINUOUS
10
-2.1824224409448818
20
-6.219154645669291
11
-2.1711738582677165
21
-6.219154645669291
0
LINE
8
BLACK
6
CONTINUOUS
10
-2.1711738582677165
20
-6.219154645669291
11
-2.1655495669291338
21
-6.2219668110236217
0
LINE
8
BLACK
6
CONTINUOUS
10
-2.1655495669291338
20
-6.2219668110236217
11
-2.1627374015748031
21
-6.2275911023622044
0
LINE
8
BLACK
6
CONTINUOUS
10
-2.1627374015748031
20
-6.2275911023622044
11
-2.1627374015748031
21
-6.233215393700787
0
LINE
8
BLACK
6
CONTINUOUS
10
-2.1627374015748031
20
-6.233215393700787
11
-2.1908588976377952
21
-6.2388396850393697
0
LINE
8
BLACK
6
CONTINUOUS
10
-2.1374281102362205
20
-6.2529004330708657
11
-2.1346159448818898
21
-6.2557125984251964
0
LINE
8
BLACK
6
CONTINUOUS
10
-2.1346159448818898
20
-6.2557125984251964
11
-2.1374281102362205
21
-6.2585247244094484
0
LINE
8
BLACK
6
CONTINUOUS
10
-2.1374281102362205
20
-6.2585247244094484
11
-2.1402402362204724
21
-6.2557125984251964
0
LINE
8
BLACK
6
CONTINUOUS
10
-2.1402402362204724
20
-6.2557125984251964
11
-2.1374281102362205
21
-6.2529004330708657
0
LINE
8
BLACK
6
CONTINUOUS
10
-2.1374281102362205
20
-6.2529004330708657
11
-2.1374281102362205
21
-6.2585247244094484
0
LINE
8
BLACK
6
CONTINUOUS
10
-2.1374281102362205
20
-6.2219668110236217
11
-2.1346159448818898
21
-6.2247789370078737
0
LINE
8
BLACK
6
CONTINUOUS
10
-2.1346159448818898
20
-6.2247789370078737
11
-2.1374281102362205
21
-6.2275911023622044
0
LINE
8
BLACK
6
CONTINUOUS
10
-2.1374281102362205
20
-6.2275911023622044
11
-2.1402402362204724
21
-6.2247789370078737
0
LINE
8
BLACK
6
CONTINUOUS
10
-2.1402402362204724
20
-6.2247789370078737
11
-2.1374281102362205
21
-6.2219668110236217
0
LINE
8
BLACK
6
CONTINUOUS
10
-2.1374281102362205
20
-6.2219668110236217
11
-2.1374281102362205
21
-6.2275911023622044
0
LINE
8
BLACK
6
CONTINUOUS
10
-3.2577362204724407
20
-6.2866299212598422
11
0.9942322834645669
21
-6.2866299212598422
0
LINE
8
BLACK
6
CONTINUOUS
10
-3.2004202362204723
20
-6.36876094488189
11
-3.2004202362204723
21
-6.309705826771653
0
LINE
8
BLACK
6
CONTINUOUS
10
-3.1666744488188976
20
-6.36876094488189
11
-3.191983779527559
21
-6.3350151574803144
0
LINE
8
BLACK
6
CONTINUOUS
10
-3.1666744488188976
20
-6.309705826771653
11
-3.2004202362204723
21
-6.3434516141732278
0
LINE
8
BLACK
6
CONTINUOUS
10
-3.1413651181102362
20
-6.36876094488189
11
-3.1413651181102362
21
-6.3293908661417317
0
LINE
8
BLACK
6
CONTINUOUS
10
-3.1413651181102362
20
-6.309705826771653
11
-3.1441772440944882
21
-6.3125179921259837
0
LINE
8
BLACK
6
CONTINUOUS
10
-3.1441772440944882
20
-6.3125179921259837
11
-3.1413651181102362
21
-6.3153301181102357
0
LINE
8
BLACK
6
CONTINUOUS
10
-3.1413651181102362
20
-6.3153301181102357
11
-3.1385529527559055
21
-6.3125179921259837
0
LINE
8
BLACK
6
CONTINUOUS
10
-3.1385529527559055
20
-6.3125179921259837
11
-3.1413651181102362
21
-6.309705826771653
0
LINE
8
BLACK
6
CONTINUOUS
10
-3.1413651181102362
20
-6.309705826771653
11
-3.1413651181102362
21
-6.3153301181102357
0
LINE
8
BLACK
6
CONTINUOUS
10
-3.0794978346456694
20
-6.3631366535433074
11
-3.0823099606299214
21
-6.3659488188976381
0
LINE
8
BLACK
6
CONTINUOUS
10
-3.0823099606299214
20
-6.3659488188976381
11
-3.0907464173228347
21
-6.36876094488189
0
LINE
8
BLACK
6
CONTINUOUS
10
-3.0907464173228347
20
-6.36876094488189
11
-3.0963707086614174
21
-6.36876094488189
0
LINE
8
BLACK
6
CONTINUOUS
10
-3.0963707086614174
20
-6.36876094488189
11
-3.1048071653543308
21
-6.3659488188976381
0
LINE
8
BLACK
6
CONTINUOUS
10
-3.1048071653543308
20
-6.3659488188976381
11
-3.1104314566929134
21
-6.3603244881889767
0
LINE
8
BLACK
6
CONTINUOUS
10
-3.1104314566929134
20
-6.3603244881889767
11
-3.1132436220472441
21
-6.3547001968503931
0
LINE
8
BLACK
6
CONTINUOUS
10
-3.1132436220472441
20
-6.3547001968503931
11
-3.1160557480314961
21
-6.3434516141732278
0
LINE
8
BLACK
6
CONTINUOUS
10
-3.1160557480314961
20
-6.3434516141732278
11
-3.1160557480314961
21
-6.3350151574803144
0
LINE
8
BLACK
6
CONTINUOUS
10
-3.1160557480314961
20
-6.3350151574803144
11
-3.1132436220472441
21
-6.3237665748031491
0
LINE
8
BLACK
6
CONTINUOUS
10
-3.1132436220472441
20
-6.3237665748031491
11
-3.1104314566929134
21
-6.3181422834645664
0
LINE
8
BLACK
6
CONTINUOUS
10
-3.1104314566929134
20
-6.3181422834645664
11
-3.1048071653543308
21
-6.3125179921259837
0
LINE
8
BLACK
6
CONTINUOUS
10
-3.1048071653543308
20
-6.3125179921259837
11
-3.0963707086614174
21
-6.309705826771653
0
LINE
8
BLACK
6
CONTINUOUS
10
-3.0963707086614174
20
-6.309705826771653
11
-3.0907464173228347
21
-6.309705826771653
0
LINE
8
BLACK
6
CONTINUOUS
10
-3.0907464173228347
20
-6.309705826771653
11
-3.0823099606299214
21
-6.3125179921259837
0
LINE
8
BLACK
6
CONTINUOUS
10
-3.0823099606299214
20
-6.3125179921259837
11
-3.0794978346456694
21
-6.3153301181102357
0
LINE
8
BLACK
6
CONTINUOUS
10
-3.0288791338582675
20
-6.36876094488189
11
-3.0288791338582675
21
-6.3378273228346451
0
LINE
8
BLACK
6
CONTINUOUS
10
-3.0288791338582675
20
-6.3378273228346451
11
-3.0316912992125982
21
-6.3322030314960625
0
LINE
8
BLACK
6
CONTINUOUS
10
-3.0316912992125982
20
-6.3322030314960625
11
-3.0373155905511808
21
-6.3293908661417317
0
LINE
8
BLACK
6
CONTINUOUS
10
-3.0373155905511808
20
-6.3293908661417317
11
-3.0485641732283466
21
-6.3293908661417317
0
LINE
8
BLACK
6
CONTINUOUS
10
-3.0485641732283466
20
-6.3293908661417317
11
-3.054188503937008
21
-6.3322030314960625
0
LINE
8
BLACK
6
CONTINUOUS
10
-3.0288791338582675
20
-6.3659488188976381
11
-3.0345034645669289
21
-6.36876094488189
0
LINE
8
BLACK
6
CONTINUOUS
10
-3.0345034645669289
20
-6.36876094488189
11
-3.0485641732283466
21
-6.36876094488189
0
LINE
8
BLACK
6
CONTINUOUS
10
-3.0485641732283466
20
-6.36876094488189
11
-3.054188503937008
21
-6.3659488188976381
0
LINE
8
BLACK
6
CONTINUOUS
10
-3.054188503937008
20
-6.3659488188976381
11
-3.05700062992126
21
-6.3603244881889767
0
LINE
8
BLACK
6
CONTINUOUS
10
-3.05700062992126
20
-6.3603244881889767
11
-3.05700062992126
21
-6.3547001968503931
0
LINE
8
BLACK
6
CONTINUOUS
10
-3.05700062992126
20
-6.3547001968503931
11
-3.054188503937008
21
-6.3490759055118104
0
LINE
8
BLACK
6
CONTINUOUS
10
-3.054188503937008
20
-6.3490759055118104
11
-3.0485641732283466
21
-6.3462637795275585
0
LINE
8
BLACK
6
CONTINUOUS
10
-3.0485641732283466
20
-6.3462637795275585
11
-3.0345034645669289
21
-6.3462637795275585
0
LINE
8
BLACK
6
CONTINUOUS
10
-3.0345034645669289
20
-6.3462637795275585
11
-3.0288791338582675
21
-6.3434516141732278
0
LINE
8
BLACK
6
CONTINUOUS
10
-2.975448307086614
20
-6.36876094488189
11
-2.975448307086614
21
-6.309705826771653
0
LINE
8
BLACK
6
CONTINUOUS
10
-2.975448307086614
20
-6.3659488188976381
11
-2.9810726377952754
21
-6.36876094488189
0
LINE
8
BLACK
6
CONTINUOUS
10
-2.9810726377952754
20
-6.36876094488189
11
-2.9923212204724408
21
-6.36876094488189
0
LINE
8
BLACK
6
CONTINUOUS
10
-2.9923212204724408
20
-6.36876094488189
11
-2.9979455118110234
21
-6.3659488188976381
0
LINE
8
BLACK
6
CONTINUOUS
10
-2.9979455118110234
20
-6.3659488188976381
11
-3.0007576771653541
21
-6.3631366535433074
0
LINE
8
BLACK
6
CONTINUOUS
10
-3.0007576771653541
20
-6.3631366535433074
11
-3.0035698031496061
21
-6.3575123622047238
0
LINE
8
BLACK
6
CONTINUOUS
10
-3.0035698031496061
20
-6.3575123622047238
11
-3.0035698031496061
21
-6.3406394488188971
0
LINE
8
BLACK
6
CONTINUOUS
10
-3.0035698031496061
20
-6.3406394488188971
11
-3.0007576771653541
21
-6.3350151574803144
0
LINE
8
BLACK
6
CONTINUOUS
10
-3.0007576771653541
20
-6.3350151574803144
11
-2.9979455118110234
21
-6.3322030314960625
0
LINE
8
BLACK
6
CONTINUOUS
10
-2.9979455118110234
20
-6.3322030314960625
11
-2.9923212204724408
21
-6.3293908661417317
0
LINE
8
BLACK
6
CONTINUOUS
10
-2.9923212204724408
20
-6.3293908661417317
11
-2.9810726377952754
21
-6.3293908661417317
0
LINE
8
BLACK
6
CONTINUOUS
10
-2.9810726377952754
20
-6.3293908661417317
11
-2.975448307086614
21
-6.3322030314960625
0
LINE
8
BLACK
6
CONTINUOUS
10
-2.9023324803149606
20
-6.3378273228346451
11
-2.8826474409448819
21
-6.3378273228346451
0
LINE
8
BLACK
6
CONTINUOUS
10
-2.8742109842519685
20
-6.36876094488189
11
-2.9023324803149606
21
-6.36876094488189
0
LINE
8
BLACK
6
CONTINUOUS
10
-2.9023324803149606
20
-6.36876094488189
11
-2.9023324803149606
21
-6.309705826771653
0
LINE
8
BLACK
6
CONTINUOUS
10
-2.9023324803149606
20
-6.309705826771653
11
-2.8742109842519685
21
-6.309705826771653
0
LINE
8
BLACK
6
CONTINUOUS
10
-2.8489016535433072
20
-6.3631366535433074
11
-2.8460894881889764
21
-6.3659488188976381
0
LINE
8
BLACK
6
CONTINUOUS
10
-2.8460894881889764
20
-6.3659488188976381
11
-2.8489016535433072
21
-6.36876094488189
0
LINE
8
BLACK
6
CONTINUOUS
10
-2.8489016535433072
20
-6.36876094488189
11
-2.8517137795275591
21
-6.3659488188976381
0
LINE
8
BLACK
6
CONTINUOUS
10
-2.8517137795275591
20
-6.3659488188976381
11
-2.8489016535433072
21
-6.3631366535433074
0
LINE
8
BLACK
6
CONTINUOUS
10
-2.8489016535433072
20
-6.3631366535433074
11
-2.8489016535433072
21
-6.36876094488189
0
LINE
8
BLACK
6
CONTINUOUS
10
-2.8207801574803151
20
-6.36876094488189
11
-2.8207801574803151
21
-6.309705826771653
0
LINE
8
BLACK
6
CONTINUOUS
10
-2.8207801574803151
20
-6.309705826771653
11
-2.806719409448819
21
-6.309705826771653
0
LINE
8
BLACK
6
CONTINUOUS
10
-2.806719409448819
20
-6.309705826771653
11
-2.7982829527559057
21
-6.3125179921259837
0
LINE
8
BLACK
6
CONTINUOUS
10
-2.7982829527559057
20
-6.3125179921259837
11
-2.7926586614173226
21
-6.3181422834645664
0
LINE
8
BLACK
6
CONTINUOUS
10
-2.7926586614173226
20
-6.3181422834645664
11
-2.7898464960629918
21
-6.3237665748031491
0
LINE
8
BLACK
6
CONTINUOUS
10
-2.7898464960629918
20
-6.3237665748031491
11
-2.7870343700787399
21
-6.3350151574803144
0
LINE
8
BLACK
6
CONTINUOUS
10
-2.7870343700787399
20
-6.3350151574803144
11
-2.7870343700787399
21
-6.3434516141732278
0
LINE
8
BLACK
6
CONTINUOUS
10
-2.7870343700787399
20
-6.3434516141732278
11
-2.7898464960629918
21
-6.3547001968503931
0
LINE
8
BLACK
6
CONTINUOUS
10
-2.7898464960629918
20
-6.3547001968503931
11
-2.7926586614173226
21
-6.3603244881889767
0
LINE
8
BLACK
6
CONTINUOUS
10
-2.7926586614173226
20
-6.3603244881889767
11
-2.7982829527559057
21
-6.3659488188976381
0
LINE
8
BLACK
6
CONTINUOUS
10
-2.7982829527559057
20
-6.3659488188976381
11
-2.806719409448819
21
-6.36876094488189
0
LINE
8
BLACK
6
CONTINUOUS
10
-2.806719409448819
20
-6.36876094488189
11
-2.8207801574803151
21
-6.36876094488189
0
LINE
8
BLACK
6
CONTINUOUS
10
-2.7617250393700785
20
-6.3631366535433074
11
-2.7589128740157478
21
-6.3659488188976381
0
LINE
8
BLACK
6
CONTINUOUS
10
-2.7589128740157478
20
-6.3659488188976381
11
-2.7617250393700785
21
-6.36876094488189
0
LINE
8
BLACK
6
CONTINUOUS
10
-2.7617250393700785
20
-6.36876094488189
11
-2.7645371653543305
21
-6.3659488188976381
0
LINE
8
BLACK
6
CONTINUOUS
10
-2.7645371653543305
20
-6.3659488188976381
11
-2.7617250393700785
21
-6.3631366535433074
0
LINE
8
BLACK
6
CONTINUOUS
10
-2.7617250393700785
20
-6.3631366535433074
11
-2.7617250393700785
21
-6.36876094488189
0
LINE
8
BLACK
6
CONTINUOUS
10
-2.7364156692913384
20
-6.3518880708661412
11
-2.7082941732283463
21
-6.3518880708661412
0
LINE
8
BLACK
6
CONTINUOUS
10
-2.7420399606299211
20
-6.36876094488189
11
-2.7223549212598424
21
-6.309705826771653
0
LINE
8
BLACK
6
CONTINUOUS
10
-2.7223549212598424
20
-6.309705826771653
11
-2.7026698818897636
21
-6.36876094488189
0
LINE
8
BLACK
6
CONTINUOUS
10
-2.6829848818897637
20
-6.3631366535433074
11
-2.680172716535433
21
-6.3659488188976381
0
LINE
8
BLACK
6
CONTINUOUS
10
-2.680172716535433
20
-6.3659488188976381
11
-2.6829848818897637
21
-6.36876094488189
0
LINE
8
BLACK
6
CONTINUOUS
10
-2.6829848818897637
20
-6.36876094488189
11
-2.6857970078740157
21
-6.3659488188976381
0
LINE
8
BLACK
6
CONTINUOUS
10
-2.6857970078740157
20
-6.3659488188976381
11
-2.6829848818897637
21
-6.3631366535433074
0
LINE
8
BLACK
6
CONTINUOUS
10
-2.6829848818897637
20
-6.3631366535433074
11
-2.6829848818897637
21
-6.36876094488189
0
LINE
8
BLACK
6
CONTINUOUS
10
-2.6014325590551182
20
-6.3350151574803144
11
-2.6070568503937008
21
-6.3322030314960625
0
LINE
8
BLACK
6
CONTINUOUS
10
-2.6070568503937008
20
-6.3322030314960625
11
-2.6098690157480315
21
-6.3293908661417317
0
LINE
8
BLACK
6
CONTINUOUS
10
-2.6098690157480315
20
-6.3293908661417317
11
-2.6126811417322835
21
-6.3237665748031491
0
LINE
8
BLACK
6
CONTINUOUS
10
-2.6126811417322835
20
-6.3237665748031491
11
-2.6126811417322835
21
-6.3209544094488184
0
LINE
8
BLACK
6
CONTINUOUS
10
-2.6126811417322835
20
-6.3209544094488184
11
-2.6098690157480315
21
-6.3153301181102357
0
LINE
8
BLACK
6
CONTINUOUS
10
-2.6098690157480315
20
-6.3153301181102357
11
-2.6070568503937008
21
-6.3125179921259837
0
LINE
8
BLACK
6
CONTINUOUS
10
-2.6070568503937008
20
-6.3125179921259837
11
-2.6014325590551182
21
-6.309705826771653
0
LINE
8
BLACK
6
CONTINUOUS
10
-2.6014325590551182
20
-6.309705826771653
11
-2.5901839763779528
21
-6.309705826771653
0
LINE
8
BLACK
6
CONTINUOUS
10
-2.5901839763779528
20
-6.309705826771653
11
-2.5845596456692914
21
-6.3125179921259837
0
LINE
8
BLACK
6
CONTINUOUS
10
-2.5845596456692914
20
-6.3125179921259837
11
-2.5817475196850395
21
-6.3153301181102357
0
LINE
8
BLACK
6
CONTINUOUS
10
-2.5817475196850395
20
-6.3153301181102357
11
-2.5789353543307088
21
-6.3209544094488184
0
LINE
8
BLACK
6
CONTINUOUS
10
-2.5789353543307088
20
-6.3209544094488184
11
-2.5789353543307088
21
-6.3237665748031491
0
LINE
8
BLACK
6
CONTINUOUS
10
-2.5789353543307088
20
-6.3237665748031491
11
-2.5817475196850395
21
-6.3293908661417317
0
LINE
8
BLACK
6
CONTINUOUS
10
-2.5817475196850395
20
-6.3293908661417317
11
-2.5845596456692914
21
-6.3322030314960625
0
LINE
8
BLACK
6
CONTINUOUS
10
-2.5845596456692914
20
-6.3322030314960625
11
-2.5901839763779528
21
-6.3350151574803144
0
LINE
8
BLACK
6
CONTINUOUS
10
-2.5901839763779528
20
-6.3350151574803144
11
-2.6014325590551182
21
-6.3350151574803144
0
LINE
8
BLACK
6
CONTINUOUS
10
-2.6014325590551182
20
-6.3350151574803144
11
-2.6070568503937008
21
-6.3378273228346451
0
LINE
8
BLACK
6
CONTINUOUS
10
-2.6070568503937008
20
-6.3378273228346451
11
-2.6098690157480315
21
-6.3406394488188971
0
LINE
8
BLACK
6
CONTINUOUS
10
-2.6098690157480315
20
-6.3406394488188971
11
-2.6126811417322835
21
-6.3462637795275585
0
LINE
8
BLACK
6
CONTINUOUS
10
-2.6126811417322835
20
-6.3462637795275585
11
-2.6126811417322835
21
-6.3575123622047238
0
LINE
8
BLACK
6
CONTINUOUS
10
-2.6126811417322835
20
-6.3575123622047238
11
-2.6098690157480315
21
-6.3631366535433074
0
LINE
8
BLACK
6
CONTINUOUS
10
-2.6098690157480315
20
-6.3631366535433074
11
-2.6070568503937008
21
-6.3659488188976381
0
LINE
8
BLACK
6
CONTINUOUS
10
-2.6070568503937008
20
-6.3659488188976381
11
-2.6014325590551182
21
-6.36876094488189
0
LINE
8
BLACK
6
CONTINUOUS
10
-2.6014325590551182
20
-6.36876094488189
11
-2.5901839763779528
21
-6.36876094488189
0
LINE
8
BLACK
6
CONTINUOUS
10
-2.5901839763779528
20
-6.36876094488189
11
-2.5845596456692914
21
-6.3659488188976381
0
LINE
8
BLACK
6
CONTINUOUS
10
-2.5845596456692914
20
-6.3659488188976381
11
-2.5817475196850395
21
-6.3631366535433074
0
LINE
8
BLACK
6
CONTINUOUS
10
-2.5817475196850395
20
-6.3631366535433074
11
-2.5789353543307088
21
-6.3575123622047238
0
LINE
8
BLACK
6
CONTINUOUS
10
-2.5789353543307088
20
-6.3575123622047238
11
-2.5789353543307088
21
-6.3462637795275585
0
LINE
8
BLACK
6
CONTINUOUS
10
-2.5789353543307088
20
-6.3462637795275585
11
-2.5817475196850395
21
-6.3406394488188971
0
LINE
8
BLACK
6
CONTINUOUS
10
-2.5817475196850395
20
-6.3406394488188971
11
-2.5845596456692914
21
-6.3378273228346451
0
LINE
8
BLACK
6
CONTINUOUS
10
-2.5845596456692914
20
-6.3378273228346451
11
-2.5901839763779528
21
-6.3350151574803144
0
LINE
8
BLACK
6
CONTINUOUS
10
-2.5536260629921261
20
-6.3631366535433074
11
-2.5508138976377954
21
-6.3659488188976381
0
LINE
8
BLACK
6
CONTINUOUS
10
-2.5508138976377954
20
-6.3659488188976381
11
-2.5536260629921261
21
-6.36876094488189
0
LINE
8
BLACK
6
CONTINUOUS
10
-2.5536260629921261
20
-6.36876094488189
11
-2.5564381889763781
21
-6.3659488188976381
0
LINE
8
BLACK
6
CONTINUOUS
10
-2.5564381889763781
20
-6.3659488188976381
11
-2.5536260629921261
21
-6.3631366535433074
0
LINE
8
BLACK
6
CONTINUOUS
10
-2.5536260629921261
20
-6.3631366535433074
11
-2.5536260629921261
21
-6.36876094488189
0
LINE
8
BLACK
6
CONTINUOUS
10
-2.5142559448818895
20
-6.309705826771653
11
-2.5086316535433069
21
-6.309705826771653
0
LINE
8
BLACK
6
CONTINUOUS
10
-2.5086316535433069
20
-6.309705826771653
11
-2.5030073622047242
21
-6.3125179921259837
0
LINE
8
BLACK
6
CONTINUOUS
10
-2.5030073622047242
20
-6.3125179921259837
11
-2.5001951968503935
21
-6.3153301181102357
0
LINE
8
BLACK
6
CONTINUOUS
10
-2.5001951968503935
20
-6.3153301181102357
11
-2.4973830708661415
21
-6.3209544094488184
0
LINE
8
BLACK
6
CONTINUOUS
10
-2.4973830708661415
20
-6.3209544094488184
11
-2.4945709055118108
21
-6.3322030314960625
0
LINE
8
BLACK
6
CONTINUOUS
10
-2.4945709055118108
20
-6.3322030314960625
11
-2.4945709055118108
21
-6.3462637795275585
0
LINE
8
BLACK
6
CONTINUOUS
10
-2.4945709055118108
20
-6.3462637795275585
11
-2.4973830708661415
21
-6.3575123622047238
0
LINE
8
BLACK
6
CONTINUOUS
10
-2.4973830708661415
20
-6.3575123622047238
11
-2.5001951968503935
21
-6.3631366535433074
0
LINE
8
BLACK
6
CONTINUOUS
10
-2.5001951968503935
20
-6.3631366535433074
11
-2.5030073622047242
21
-6.3659488188976381
0
LINE
8
BLACK
6
CONTINUOUS
10
-2.5030073622047242
20
-6.3659488188976381
11
-2.5086316535433069
21
-6.36876094488189
0
LINE
8
BLACK
6
CONTINUOUS
10
-2.5086316535433069
20
-6.36876094488189
11
-2.5142559448818895
21
-6.36876094488189
0
LINE
8
BLACK
6
CONTINUOUS
10
-2.5142559448818895
20
-6.36876094488189
11
-2.5198802362204722
21
-6.3659488188976381
0
LINE
8
BLACK
6
CONTINUOUS
10
-2.5198802362204722
20
-6.3659488188976381
11
-2.5226924015748029
21
-6.3631366535433074
0
LINE
8
BLACK
6
CONTINUOUS
10
-2.5226924015748029
20
-6.3631366535433074
11
-2.5255045669291336
21
-6.3575123622047238
0
LINE
8
BLACK
6
CONTINUOUS
10
-2.5255045669291336
20
-6.3575123622047238
11
-2.5283166929133856
21
-6.3462637795275585
0
LINE
8
BLACK
6
CONTINUOUS
10
-2.5283166929133856
20
-6.3462637795275585
11
-2.5283166929133856
21
-6.3322030314960625
0
LINE
8
BLACK
6
CONTINUOUS
10
-2.5283166929133856
20
-6.3322030314960625
11
-2.5255045669291336
21
-6.3209544094488184
0
LINE
8
BLACK
6
CONTINUOUS
10
-2.5255045669291336
20
-6.3209544094488184
11
-2.5226924015748029
21
-6.3153301181102357
0
LINE
8
BLACK
6
CONTINUOUS
10
-2.5226924015748029
20
-6.3153301181102357
11
-2.5198802362204722
21
-6.3125179921259837
0
LINE
8
BLACK
6
CONTINUOUS
10
-2.5198802362204722
20
-6.3125179921259837
11
-2.5142559448818895
21
-6.309705826771653
0
LINE
8
BLACK
6
CONTINUOUS
10
-2.4692616141732282
20
-6.3631366535433074
11
-2.4664494488188975
21
-6.3659488188976381
0
LINE
8
BLACK
6
CONTINUOUS
10
-2.4664494488188975
20
-6.3659488188976381
11
-2.4692616141732282
21
-6.36876094488189
0
LINE
8
BLACK
6
CONTINUOUS
10
-2.4692616141732282
20
-6.36876094488189
11
-2.4720737401574802
21
-6.3659488188976381
0
LINE
8
BLACK
6
CONTINUOUS
10
-2.4720737401574802
20
-6.3659488188976381
11
-2.4692616141732282
21
-6.3631366535433074
0
LINE
8
BLACK
6
CONTINUOUS
10
-2.4692616141732282
20
-6.3631366535433074
11
-2.4692616141732282
21
-6.36876094488189
0
LINE
8
BLACK
6
CONTINUOUS
10
-2.415830748031496
20
-6.309705826771653
11
-2.4270793700787401
21
-6.309705826771653
0
LINE
8
BLACK
6
CONTINUOUS
10
-2.4270793700787401
20
-6.309705826771653
11
-2.4327036614173227
21
-6.3125179921259837
0
LINE
8
BLACK
6
CONTINUOUS
10
-2.4327036614173227
20
-6.3125179921259837
11
-2.4355157874015747
21
-6.3153301181102357
0
LINE
8
BLACK
6
CONTINUOUS
10
-2.4355157874015747
20
-6.3153301181102357
11
-2.4411401181102361
21
-6.3237665748031491
0
LINE
8
BLACK
6
CONTINUOUS
10
-2.4411401181102361
20
-6.3237665748031491
11
-2.4439522440944881
21
-6.3350151574803144
0
LINE
8
BLACK
6
CONTINUOUS
10
-2.4439522440944881
20
-6.3350151574803144
11
-2.4439522440944881
21
-6.3575123622047238
0
LINE
8
BLACK
6
CONTINUOUS
10
-2.4439522440944881
20
-6.3575123622047238
11
-2.4411401181102361
21
-6.3631366535433074
0
LINE
8
BLACK
6
CONTINUOUS
10
-2.4411401181102361
20
-6.3631366535433074
11
-2.4383279527559054
21
-6.3659488188976381
0
LINE
8
BLACK
6
CONTINUOUS
10
-2.4383279527559054
20
-6.3659488188976381
11
-2.4327036614173227
21
-6.36876094488189
0
LINE
8
BLACK
6
CONTINUOUS
10
-2.4327036614173227
20
-6.36876094488189
11
-2.4214550787401574
21
-6.36876094488189
0
LINE
8
BLACK
6
CONTINUOUS
10
-2.4214550787401574
20
-6.36876094488189
11
-2.415830748031496
21
-6.3659488188976381
0
LINE
8
BLACK
6
CONTINUOUS
10
-2.415830748031496
20
-6.3659488188976381
11
-2.413018622047244
21
-6.3631366535433074
0
LINE
8
BLACK
6
CONTINUOUS
10
-2.413018622047244
20
-6.3631366535433074
11
-2.4102064566929133
21
-6.3575123622047238
0
LINE
8
BLACK
6
CONTINUOUS
10
-2.4102064566929133
20
-6.3575123622047238
11
-2.4102064566929133
21
-6.3434516141732278
0
LINE
8
BLACK
6
CONTINUOUS
10
-2.4102064566929133
20
-6.3434516141732278
11
-2.413018622047244
21
-6.3378273228346451
0
LINE
8
BLACK
6
CONTINUOUS
10
-2.413018622047244
20
-6.3378273228346451
11
-2.415830748031496
21
-6.3350151574803144
0
LINE
8
BLACK
6
CONTINUOUS
10
-2.415830748031496
20
-6.3350151574803144
11
-2.4214550787401574
21
-6.3322030314960625
0
LINE
8
BLACK
6
CONTINUOUS
10
-2.4214550787401574
20
-6.3322030314960625
11
-2.4327036614173227
21
-6.3322030314960625
0
LINE
8
BLACK
6
CONTINUOUS
10
-2.4327036614173227
20
-6.3322030314960625
11
-2.4383279527559054
21
-6.3350151574803144
0
LINE
8
BLACK
6
CONTINUOUS
10
-2.4383279527559054
20
-6.3350151574803144
11
-2.4411401181102361
21
-6.3378273228346451
0
LINE
8
BLACK
6
CONTINUOUS
10
-2.4411401181102361
20
-6.3378273228346451
11
-2.4439522440944881
21
-6.3434516141732278
0
LINE
8
BLACK
6
CONTINUOUS
10
-3.2577362204724407
20
-6.16851968503937
11
0.9942322834645669
21
-6.16851968503937
0
LINE
8
BLACK
6
CONTINUOUS
10
0.1836674409448819
20
-6.2582176377952754
11
0.1639824015748031
21
-6.2300961417322833
0
LINE
8
BLACK
6
CONTINUOUS
10
0.1499216535433071
20
-6.2582176377952754
11
0.1499216535433071
21
-6.1991625196850393
0
LINE
8
BLACK
6
CONTINUOUS
10
0.1499216535433071
20
-6.1991625196850393
11
0.1724188582677165
21
-6.1991625196850393
0
LINE
8
BLACK
6
CONTINUOUS
10
0.1724188582677165
20
-6.1991625196850393
11
0.1780431496062992
21
-6.20197468503937
0
LINE
8
BLACK
6
CONTINUOUS
10
0.1780431496062992
20
-6.20197468503937
11
0.1808553149606299
21
-6.204786811023622
0
LINE
8
BLACK
6
CONTINUOUS
10
0.1808553149606299
20
-6.204786811023622
11
0.1836674409448819
21
-6.2104111023622046
0
LINE
8
BLACK
6
CONTINUOUS
10
0.1836674409448819
20
-6.2104111023622046
11
0.1836674409448819
21
-6.218847559055118
0
LINE
8
BLACK
6
CONTINUOUS
10
0.1836674409448819
20
-6.218847559055118
11
0.1808553149606299
21
-6.2244718503937007
0
LINE
8
BLACK
6
CONTINUOUS
10
0.1808553149606299
20
-6.2244718503937007
11
0.1780431496062992
21
-6.2272840157480314
0
LINE
8
BLACK
6
CONTINUOUS
10
0.1780431496062992
20
-6.2272840157480314
11
0.1724188582677165
21
-6.2300961417322833
0
LINE
8
BLACK
6
CONTINUOUS
10
0.1724188582677165
20
-6.2300961417322833
11
0.1499216535433071
21
-6.2300961417322833
0
LINE
8
BLACK
6
CONTINUOUS
10
0.2314739763779528
20
-6.2554055118110234
11
0.2258496850393701
21
-6.2582176377952754
0
LINE
8
BLACK
6
CONTINUOUS
10
0.2258496850393701
20
-6.2582176377952754
11
0.2146011023622047
21
-6.2582176377952754
0
LINE
8
BLACK
6
CONTINUOUS
10
0.2146011023622047
20
-6.2582176377952754
11
0.2089767716535433
21
-6.2554055118110234
0
LINE
8
BLACK
6
CONTINUOUS
10
0.2089767716535433
20
-6.2554055118110234
11
0.2061646456692913
21
-6.249781181102362
0
LINE
8
BLACK
6
CONTINUOUS
10
0.2061646456692913
20
-6.249781181102362
11
0.2061646456692913
21
-6.2272840157480314
0
LINE
8
BLACK
6
CONTINUOUS
10
0.2061646456692913
20
-6.2272840157480314
11
0.2089767716535433
21
-6.2216597244094487
0
LINE
8
BLACK
6
CONTINUOUS
10
0.2089767716535433
20
-6.2216597244094487
11
0.2146011023622047
21
-6.218847559055118
0
LINE
8
BLACK
6
CONTINUOUS
10
0.2146011023622047
20
-6.218847559055118
11
0.2258496850393701
21
-6.218847559055118
0
LINE
8
BLACK
6
CONTINUOUS
10
0.2258496850393701
20
-6.218847559055118
11
0.2314739763779528
21
-6.2216597244094487
0
LINE
8
BLACK
6
CONTINUOUS
10
0.2314739763779528
20
-6.2216597244094487
11
0.2342861417322835
21
-6.2272840157480314
0
LINE
8
BLACK
6
CONTINUOUS
10
0.2342861417322835
20
-6.2272840157480314
11
0.2342861417322835
21
-6.232908307086614
0
LINE
8
BLACK
6
CONTINUOUS
10
0.2342861417322835
20
-6.232908307086614
11
0.2061646456692913
21
-6.2385325984251967
0
LINE
8
BLACK
6
CONTINUOUS
10
0.2539711417322835
20
-6.218847559055118
11
0.2680318897637795
21
-6.2582176377952754
0
LINE
8
BLACK
6
CONTINUOUS
10
0.2680318897637795
20
-6.2582176377952754
11
0.2820926377952756
21
-6.218847559055118
0
LINE
8
BLACK
6
CONTINUOUS
10
0.3045898031496063
20
-6.2525933464566927
11
0.307401968503937
21
-6.2554055118110234
0
LINE
8
BLACK
6
CONTINUOUS
10
0.307401968503937
20
-6.2554055118110234
11
0.3045898031496063
21
-6.2582176377952754
0
LINE
8
BLACK
6
CONTINUOUS
10
0.3045898031496063
20
-6.2582176377952754
11
0.3017776771653543
21
-6.2554055118110234
0
LINE
8
BLACK
6
CONTINUOUS
10
0.3017776771653543
20
-6.2554055118110234
11
0.3045898031496063
21
-6.2525933464566927
0
LINE
8
BLACK
6
CONTINUOUS
10
0.3045898031496063
20
-6.2525933464566927
11
0.3045898031496063
21
-6.2582176377952754
0
LINE
8
BLACK
6
CONTINUOUS
10
0.3045898031496063
20
-6.2216597244094487
11
0.307401968503937
21
-6.2244718503937007
0
LINE
8
BLACK
6
CONTINUOUS
10
0.307401968503937
20
-6.2244718503937007
11
0.3045898031496063
21
-6.2272840157480314
0
LINE
8
BLACK
6
CONTINUOUS
10
0.3045898031496063
20
-6.2272840157480314
11
0.3017776771653543
21
-6.2244718503937007
0
LINE
8
BLACK
6
CONTINUOUS
10
0.3017776771653543
20
-6.2244718503937007
11
0.3045898031496063
21
-6.2216597244094487
0
LINE
8
BLACK
6
CONTINUOUS
10
0.3045898031496063
20
-6.2216597244094487
11
0.3045898031496063
21
-6.2272840157480314
0
LINE
8
BLACK
6
CONTINUOUS
10
-3.2032323622047243
20
-6.2557125984251964
11
-3.1947959055118109
21
-6.2585247244094484
0
LINE
8
BLACK
6
CONTINUOUS
10
-3.1947959055118109
20
-6.2585247244094484
11
-3.1807351968503936
21
-6.2585247244094484
0
LINE
8
BLACK
6
CONTINUOUS
10
-3.1807351968503936
20
-6.2585247244094484
11
-3.1751108661417322
21
-6.2557125984251964
0
LINE
8
BLACK
6
CONTINUOUS
10
-3.1751108661417322
20
-6.2557125984251964
11
-3.1722987401574803
21
-6.2529004330708657
0
LINE
8
BLACK
6
CONTINUOUS
10
-3.1722987401574803
20
-6.2529004330708657
11
-3.1694865748031495
21
-6.2472761417322831
0
LINE
8
BLACK
6
CONTINUOUS
10
-3.1694865748031495
20
-6.2472761417322831
11
-3.1694865748031495
21
-6.2416518503937004
0
LINE
8
BLACK
6
CONTINUOUS
10
-3.1694865748031495
20
-6.2416518503937004
11
-3.1722987401574803
21
-6.2360275590551177
0
LINE
8
BLACK
6
CONTINUOUS
10
-3.1722987401574803
20
-6.2360275590551177
11
-3.1751108661417322
21
-6.233215393700787
0
LINE
8
BLACK
6
CONTINUOUS
10
-3.1751108661417322
20
-6.233215393700787
11
-3.1807351968503936
21
-6.2304032283464563
0
LINE
8
BLACK
6
CONTINUOUS
10
-3.1807351968503936
20
-6.2304032283464563
11
-3.191983779527559
21
-6.2275911023622044
0
LINE
8
BLACK
6
CONTINUOUS
10
-3.191983779527559
20
-6.2275911023622044
11
-3.1976080708661416
21
-6.2247789370078737
0
LINE
8
BLACK
6
CONTINUOUS
10
-3.1976080708661416
20
-6.2247789370078737
11
-3.2004202362204723
21
-6.2219668110236217
0
LINE
8
BLACK
6
CONTINUOUS
10
-3.2004202362204723
20
-6.2219668110236217
11
-3.2032323622047243
21
-6.216342519685039
0
LINE
8
BLACK
6
CONTINUOUS
10
-3.2032323622047243
20
-6.216342519685039
11
-3.2032323622047243
21
-6.2107181889763776
0
LINE
8
BLACK
6
CONTINUOUS
10
-3.2032323622047243
20
-6.2107181889763776
11
-3.2004202362204723
21
-6.205093897637795
0
LINE
8
BLACK
6
CONTINUOUS
10
-3.2004202362204723
20
-6.205093897637795
11
-3.1976080708661416
21
-6.202281771653543
0
LINE
8
BLACK
6
CONTINUOUS
10
-3.1976080708661416
20
-6.202281771653543
11
-3.191983779527559
21
-6.1994696062992123
0
LINE
8
BLACK
6
CONTINUOUS
10
-3.191983779527559
20
-6.1994696062992123
11
-3.1779230314960629
21
-6.1994696062992123
0
LINE
8
BLACK
6
CONTINUOUS
10
-3.1779230314960629
20
-6.1994696062992123
11
-3.1694865748031495
21
-6.202281771653543
0
LINE
8
BLACK
6
CONTINUOUS
10
-3.1441772834645669
20
-6.2585247244094484
11
-3.1441772834645669
21
-6.219154645669291
0
LINE
8
BLACK
6
CONTINUOUS
10
-3.1441772834645669
20
-6.1994696062992123
11
-3.1469894094488189
21
-6.202281771653543
0
LINE
8
BLACK
6
CONTINUOUS
10
-3.1469894094488189
20
-6.202281771653543
11
-3.1441772834645669
21
-6.205093897637795
0
LINE
8
BLACK
6
CONTINUOUS
10
-3.1441772834645669
20
-6.205093897637795
11
-3.1413651181102362
21
-6.202281771653543
0
LINE
8
BLACK
6
CONTINUOUS
10
-3.1413651181102362
20
-6.202281771653543
11
-3.1441772834645669
21
-6.1994696062992123
0
LINE
8
BLACK
6
CONTINUOUS
10
-3.1441772834645669
20
-6.1994696062992123
11
-3.1441772834645669
21
-6.205093897637795
0
LINE
8
BLACK
6
CONTINUOUS
10
-3.1216800787401575
20
-6.219154645669291
11
-3.0907464173228347
21
-6.219154645669291
0
LINE
8
BLACK
6
CONTINUOUS
10
-3.0907464173228347
20
-6.219154645669291
11
-3.1216800787401575
21
-6.2585247244094484
0
LINE
8
BLACK
6
CONTINUOUS
10
-3.1216800787401575
20
-6.2585247244094484
11
-3.0907464173228347
21
-6.2585247244094484
0
LINE
8
BLACK
6
CONTINUOUS
10
-3.0457520472440942
20
-6.2557125984251964
11
-3.0513763385826773
21
-6.2585247244094484
0
LINE
8
BLACK
6
CONTINUOUS
10
-3.0513763385826773
20
-6.2585247244094484
11
-3.0626249212598426
21
-6.2585247244094484
0
LINE
8
BLACK
6
CONTINUOUS
10
-3.0626249212598426
20
-6.2585247244094484
11
-3.0682492519685041
21
-6.2557125984251964
0
LINE
8
BLACK
6
CONTINUOUS
10
-3.0682492519685041
20
-6.2557125984251964
11
-3.071061377952756
21
-6.250088267716535
0
LINE
8
BLACK
6
CONTINUOUS
10
-3.071061377952756
20
-6.250088267716535
11
-3.071061377952756
21
-6.2275911023622044
0
LINE
8
BLACK
6
CONTINUOUS
10
-3.071061377952756
20
-6.2275911023622044
11
-3.0682492519685041
21
-6.2219668110236217
0
LINE
8
BLACK
6
CONTINUOUS
10
-3.0682492519685041
20
-6.2219668110236217
11
-3.0626249212598426
21
-6.219154645669291
0
LINE
8
BLACK
6
CONTINUOUS
10
-3.0626249212598426
20
-6.219154645669291
11
-3.0513763385826773
21
-6.219154645669291
0
LINE
8
BLACK
6
CONTINUOUS
10
-3.0513763385826773
20
-6.219154645669291
11
-3.0457520472440942
21
-6.2219668110236217
0
LINE
8
BLACK
6
CONTINUOUS
10
-3.0457520472440942
20
-6.2219668110236217
11
-3.0429398818897635
21
-6.2275911023622044
0
LINE
8
BLACK
6
CONTINUOUS
10
-3.0429398818897635
20
-6.2275911023622044
11
-3.0429398818897635
21
-6.233215393700787
0
LINE
8
BLACK
6
CONTINUOUS
10
-3.0429398818897635
20
-6.233215393700787
11
-3.071061377952756
21
-6.2388396850393697
0
LINE
8
BLACK
6
CONTINUOUS
10
-3.0176305905511809
20
-6.2529004330708657
11
-3.0148184251968502
21
-6.2557125984251964
0
LINE
8
BLACK
6
CONTINUOUS
10
-3.0148184251968502
20
-6.2557125984251964
11
-3.0176305905511809
21
-6.2585247244094484
0
LINE
8
BLACK
6
CONTINUOUS
10
-3.0176305905511809
20
-6.2585247244094484
11
-3.0204427165354328
21
-6.2557125984251964
0
LINE
8
BLACK
6
CONTINUOUS
10
-3.0204427165354328
20
-6.2557125984251964
11
-3.0176305905511809
21
-6.2529004330708657
0
LINE
8
BLACK
6
CONTINUOUS
10
-3.0176305905511809
20
-6.2529004330708657
11
-3.0176305905511809
21
-6.2585247244094484
0
LINE
8
BLACK
6
CONTINUOUS
10
-3.0176305905511809
20
-6.2219668110236217
11
-3.0148184251968502
21
-6.2247789370078737
0
LINE
8
BLACK
6
CONTINUOUS
10
-3.0148184251968502
20
-6.2247789370078737
11
-3.0176305905511809
21
-6.2275911023622044
0
LINE
8
BLACK
6
CONTINUOUS
10
-3.0176305905511809
20
-6.2275911023622044
11
-3.0204427165354328
21
-6.2247789370078737
0
LINE
8
BLACK
6
CONTINUOUS
10
-3.0204427165354328
20
-6.2247789370078737
11
-3.0176305905511809
21
-6.2219668110236217
0
LINE
8
BLACK
6
CONTINUOUS
10
-3.0176305905511809
20
-6.2219668110236217
11
-3.0176305905511809
21
-6.2275911023622044
0
LINE
8
BLACK
6
CONTINUOUS
10
-2.9473268503937007
20
-6.2416518503937004
11
-2.9192053543307086
21
-6.2416518503937004
0
LINE
8
BLACK
6
CONTINUOUS
10
-2.9529511417322833
20
-6.2585247244094484
11
-2.9332661023622046
21
-6.1994696062992123
0
LINE
8
BLACK
6
CONTINUOUS
10
-2.9332661023622046
20
-6.1994696062992123
11
-2.9135810629921259
21
-6.2585247244094484
0
LINE
8
BLACK
6
CONTINUOUS
10
-2.8685866929133859
20
-6.219154645669291
11
-2.8685866929133859
21
-6.2585247244094484
0
LINE
8
BLACK
6
CONTINUOUS
10
-2.8826474409448819
20
-6.1966574803149603
11
-2.8967081889763779
21
-6.2388396850393697
0
LINE
8
BLACK
6
CONTINUOUS
10
-2.8967081889763779
20
-6.2388396850393697
11
-2.8601502755905512
21
-6.2388396850393697
0
LINE
8
BLACK
6
CONTINUOUS
10
0.1460364566929134
20
-6.36876094488189
11
0.1460364566929134
21
-6.309705826771653
0
LINE
8
BLACK
6
CONTINUOUS
10
0.1994673228346457
20
-6.36876094488189
11
0.1994673228346457
21
-6.309705826771653
0
LINE
8
BLACK
6
CONTINUOUS
10
0.1994673228346457
20
-6.3659488188976381
11
0.1938429921259842
21
-6.36876094488189
0
LINE
8
BLACK
6
CONTINUOUS
10
0.1938429921259842
20
-6.36876094488189
11
0.1825944094488189
21
-6.36876094488189
0
LINE
8
BLACK
6
CONTINUOUS
10
0.1825944094488189
20
-6.36876094488189
11
0.1769701181102362
21
-6.3659488188976381
0
LINE
8
BLACK
6
CONTINUOUS
10
0.1769701181102362
20
-6.3659488188976381
11
0.1741579527559055
21
-6.3631366535433074
0
LINE
8
BLACK
6
CONTINUOUS
10
0.1741579527559055
20
-6.3631366535433074
11
0.1713458267716536
21
-6.3575123622047238
0
LINE
8
BLACK
6
CONTINUOUS
10
0.1713458267716536
20
-6.3575123622047238
11
0.1713458267716536
21
-6.3406394488188971
0
LINE
8
BLACK
6
CONTINUOUS
10
0.1713458267716536
20
-6.3406394488188971
11
0.1741579527559055
21
-6.3350151574803144
0
LINE
8
BLACK
6
CONTINUOUS
10
0.1741579527559055
20
-6.3350151574803144
11
0.1769701181102362
21
-6.3322030314960625
0
LINE
8
BLACK
6
CONTINUOUS
10
0.1769701181102362
20
-6.3322030314960625
11
0.1825944094488189
21
-6.3293908661417317
0
LINE
8
BLACK
6
CONTINUOUS
10
0.1825944094488189
20
-6.3293908661417317
11
0.1938429921259842
21
-6.3293908661417317
0
LINE
8
BLACK
6
CONTINUOUS
10
0.1938429921259842
20
-6.3293908661417317
11
0.1994673228346457
21
-6.3322030314960625
0
LINE
8
BLACK
6
CONTINUOUS
10
0.227588779527559
20
-6.3631366535433074
11
0.2304009448818898
21
-6.3659488188976381
0
LINE
8
BLACK
6
CONTINUOUS
10
0.2304009448818898
20
-6.3659488188976381
11
0.227588779527559
21
-6.36876094488189
0
LINE
8
BLACK
6
CONTINUOUS
10
0.227588779527559
20
-6.36876094488189
11
0.2247766535433071
21
-6.3659488188976381
0
LINE
8
BLACK
6
CONTINUOUS
10
0.2247766535433071
20
-6.3659488188976381
11
0.227588779527559
21
-6.3631366535433074
0
LINE
8
BLACK
6
CONTINUOUS
10
0.227588779527559
20
-6.3631366535433074
11
0.227588779527559
21
-6.36876094488189
0
LINE
8
BLACK
6
CONTINUOUS
10
0.227588779527559
20
-6.3322030314960625
11
0.2304009448818898
21
-6.3350151574803144
0
LINE
8
BLACK
6
CONTINUOUS
10
0.2304009448818898
20
-6.3350151574803144
11
0.227588779527559
21
-6.3378273228346451
0
LINE
8
BLACK
6
CONTINUOUS
10
0.227588779527559
20
-6.3378273228346451
11
0.2247766535433071
21
-6.3350151574803144
0
LINE
8
BLACK
6
CONTINUOUS
10
0.2247766535433071
20
-6.3350151574803144
11
0.227588779527559
21
-6.3322030314960625
0
LINE
8
BLACK
6
CONTINUOUS
10
0.227588779527559
20
-6.3322030314960625
11
0.227588779527559
21
-6.3378273228346451
0
LINE
8
BLACK
6
CONTINUOUS
10
0.3316383070866142
20
-6.36876094488189
11
0.2978925196850394
21
-6.36876094488189
0
LINE
8
BLACK
6
CONTINUOUS
10
0.3147653937007874
20
-6.36876094488189
11
0.3147653937007874
21
-6.309705826771653
0
LINE
8
BLACK
6
CONTINUOUS
10
0.3147653937007874
20
-6.309705826771653
11
0.3091411023622047
21
-6.3181422834645664
0
LINE
8
BLACK
6
CONTINUOUS
10
0.3091411023622047
20
-6.3181422834645664
11
0.303516811023622
21
-6.3237665748031491
0
LINE
8
BLACK
6
CONTINUOUS
10
0.303516811023622
20
-6.3237665748031491
11
0.2978925196850394
21
-6.3265787401574798
0
LINE
8
BLACK
6
CONTINUOUS
10
0.399129842519685
20
-6.3068937007874011
11
0.3485111811023622
21
-6.3828216929133861
0
LINE
8
BLACK
6
CONTINUOUS
10
0.4497485433070866
20
-6.36876094488189
11
0.4160027559055118
21
-6.36876094488189
0
LINE
8
BLACK
6
CONTINUOUS
10
0.4328756299212598
20
-6.36876094488189
11
0.4328756299212598
21
-6.309705826771653
0
LINE
8
BLACK
6
CONTINUOUS
10
0.4328756299212598
20
-6.309705826771653
11
0.4272513385826772
21
-6.3181422834645664
0
LINE
8
BLACK
6
CONTINUOUS
10
0.4272513385826772
20
-6.3181422834645664
11
0.4216270472440945
21
-6.3237665748031491
0
LINE
8
BLACK
6
CONTINUOUS
10
0.4216270472440945
20
-6.3237665748031491
11
0.4160027559055118
21
-6.3265787401574798
0
LINE
8
BLACK
6
CONTINUOUS
10
-3.2577362204724407
20
-6.0110393700787403
11
0.9942322834645669
21
-6.0110393700787403
0
LINE
8
BLACK
6
CONTINUOUS
10
-3.1911327559055116
20
-6.0387731496062989
11
-3.1461383858267715
21
-6.0387731496062989
0
LINE
8
BLACK
6
CONTINUOUS
10
-3.1784780708661415
20
-6.1175133070866137
11
-3.1686355511811022
21
-6.0387731496062989
0
LINE
8
BLACK
6
CONTINUOUS
10
-3.1297341732283464
20
-6.1175133070866137
11
-3.1231724803149605
21
-6.0650198425196846
0
LINE
8
BLACK
6
CONTINUOUS
10
-3.119891653543307
20
-6.0387731496062989
11
-3.1241098818897637
21
-6.042522677165354
0
LINE
8
BLACK
6
CONTINUOUS
10
-3.1241098818897637
20
-6.042522677165354
11
-3.1208290157480314
21
-6.0462722047244091
0
LINE
8
BLACK
6
CONTINUOUS
10
-3.1208290157480314
20
-6.0462722047244091
11
-3.1166107874015747
21
-6.042522677165354
0
LINE
8
BLACK
6
CONTINUOUS
10
-3.1166107874015747
20
-6.042522677165354
11
-3.119891653543307
21
-6.0387731496062989
0
LINE
8
BLACK
6
CONTINUOUS
10
-3.119891653543307
20
-6.0387731496062989
11
-3.1208290157480314
21
-6.0462722047244091
0
LINE
8
BLACK
6
CONTINUOUS
10
-3.096925748031496
20
-6.0650198425196846
11
-3.0669295275590551
21
-6.0650198425196846
0
LINE
8
BLACK
6
CONTINUOUS
10
-3.0823963385826771
20
-6.0387731496062989
11
-3.0908327559055118
21
-6.1062646850393696
0
LINE
8
BLACK
6
CONTINUOUS
10
-3.0908327559055118
20
-6.1062646850393696
11
-3.0880206299212598
21
-6.1137637795275586
0
LINE
8
BLACK
6
CONTINUOUS
10
-3.0880206299212598
20
-6.1137637795275586
11
-3.0809902362204724
21
-6.1175133070866137
0
LINE
8
BLACK
6
CONTINUOUS
10
-3.0809902362204724
20
-6.1175133070866137
11
-3.0734911811023622
21
-6.1175133070866137
0
LINE
8
BLACK
6
CONTINUOUS
10
-3.0359958661417323
20
-6.1175133070866137
11
-3.0430262598425197
21
-6.1137637795275586
0
LINE
8
BLACK
6
CONTINUOUS
10
-3.0430262598425197
20
-6.1137637795275586
11
-3.0458383858267717
21
-6.1062646850393696
0
LINE
8
BLACK
6
CONTINUOUS
10
-3.0458383858267717
20
-6.1062646850393696
11
-3.0374019685039371
21
-6.0387731496062989
0
LINE
8
BLACK
6
CONTINUOUS
10
-2.9755346850393698
20
-6.1137637795275586
11
-2.983502440944882
21
-6.1175133070866137
0
LINE
8
BLACK
6
CONTINUOUS
10
-2.983502440944882
20
-6.1175133070866137
11
-2.9985005905511812
21
-6.1175133070866137
0
LINE
8
BLACK
6
CONTINUOUS
10
-2.9985005905511812
20
-6.1175133070866137
11
-3.0055309448818899
21
-6.1137637795275586
0
LINE
8
BLACK
6
CONTINUOUS
10
-3.0055309448818899
20
-6.1137637795275586
11
-3.0083431102362206
21
-6.1062646850393696
0
LINE
8
BLACK
6
CONTINUOUS
10
-3.0083431102362206
20
-6.1062646850393696
11
-3.0045935433070867
21
-6.0762684645669287
0
LINE
8
BLACK
6
CONTINUOUS
10
-3.0045935433070867
20
-6.0762684645669287
11
-2.9999066535433072
21
-6.0687693700787397
0
LINE
8
BLACK
6
CONTINUOUS
10
-2.9999066535433072
20
-6.0687693700787397
11
-2.9919388976377954
21
-6.0650198425196846
0
LINE
8
BLACK
6
CONTINUOUS
10
-2.9919388976377954
20
-6.0650198425196846
11
-2.9769407874015745
21
-6.0650198425196846
0
LINE
8
BLACK
6
CONTINUOUS
10
-2.9769407874015745
20
-6.0650198425196846
11
-2.9699103937007871
21
-6.0687693700787397
0
LINE
8
BLACK
6
CONTINUOUS
10
-2.9699103937007871
20
-6.0687693700787397
11
-2.9670982677165352
21
-6.0762684645669287
0
LINE
8
BLACK
6
CONTINUOUS
10
-2.9670982677165352
20
-6.0762684645669287
11
-2.9680356299212596
21
-6.0837675196850389
0
LINE
8
BLACK
6
CONTINUOUS
10
-2.9680356299212596
20
-6.0837675196850389
11
-3.006468346456693
21
-6.0912665748031491
0
LINE
8
BLACK
6
CONTINUOUS
10
-2.9375706692913384
20
-6.1100142125984247
11
-2.9342898425196848
21
-6.1137637795275586
0
LINE
8
BLACK
6
CONTINUOUS
10
-2.9342898425196848
20
-6.1137637795275586
11
-2.9385080708661415
21
-6.1175133070866137
0
LINE
8
BLACK
6
CONTINUOUS
10
-2.9385080708661415
20
-6.1175133070866137
11
-2.9417888976377951
21
-6.1137637795275586
0
LINE
8
BLACK
6
CONTINUOUS
10
-2.9417888976377951
20
-6.1137637795275586
11
-2.9375706692913384
21
-6.1100142125984247
0
LINE
8
BLACK
6
CONTINUOUS
10
-2.9375706692913384
20
-6.1100142125984247
11
-2.9385080708661415
21
-6.1175133070866137
0
LINE
8
BLACK
6
CONTINUOUS
10
-2.9324150787401573
20
-6.0687693700787397
11
-2.9291342519685037
21
-6.0725188976377948
0
LINE
8
BLACK
6
CONTINUOUS
10
-2.9291342519685037
20
-6.0725188976377948
11
-2.9333524409448817
21
-6.0762684645669287
0
LINE
8
BLACK
6
CONTINUOUS
10
-2.9333524409448817
20
-6.0762684645669287
11
-2.936633307086614
21
-6.0725188976377948
0
LINE
8
BLACK
6
CONTINUOUS
10
-2.936633307086614
20
-6.0725188976377948
11
-2.9324150787401573
21
-6.0687693700787397
0
LINE
8
BLACK
6
CONTINUOUS
10
-2.9324150787401573
20
-6.0687693700787397
11
-2.9333524409448817
21
-6.0762684645669287
0
LINE
8
BLACK
6
CONTINUOUS
10
-3.1807351968503936
20
-5.9362525196850395
11
-3.2004202362204723
21
-5.9362525196850395
0
LINE
8
BLACK
6
CONTINUOUS
10
-3.2004202362204723
20
-5.9671861417322836
11
-3.2004202362204723
21
-5.9081310236220475
0
LINE
8
BLACK
6
CONTINUOUS
10
-3.2004202362204723
20
-5.9081310236220475
11
-3.1722987401574803
21
-5.9081310236220475
0
LINE
8
BLACK
6
CONTINUOUS
10
-3.1498015748031496
20
-5.9671861417322836
11
-3.1498015748031496
21
-5.9278160629921262
0
LINE
8
BLACK
6
CONTINUOUS
10
-3.1498015748031496
20
-5.9081310236220475
11
-3.1526137007874016
21
-5.9109431889763782
0
LINE
8
BLACK
6
CONTINUOUS
10
-3.1526137007874016
20
-5.9109431889763782
11
-3.1498015748031496
21
-5.9137553149606301
0
LINE
8
BLACK
6
CONTINUOUS
10
-3.1498015748031496
20
-5.9137553149606301
11
-3.1469894094488189
21
-5.9109431889763782
0
LINE
8
BLACK
6
CONTINUOUS
10
-3.1469894094488189
20
-5.9109431889763782
11
-3.1498015748031496
21
-5.9081310236220475
0
LINE
8
BLACK
6
CONTINUOUS
10
-3.1498015748031496
20
-5.9081310236220475
11
-3.1498015748031496
21
-5.9137553149606301
0
LINE
8
BLACK
6
CONTINUOUS
10
-3.1132436220472441
20
-5.9671861417322836
11
-3.1188679133858268
21
-5.9643740157480316
0
LINE
8
BLACK
6
CONTINUOUS
10
-3.1188679133858268
20
-5.9643740157480316
11
-3.1216800787401575
21
-5.9587496850393702
0
LINE
8
BLACK
6
CONTINUOUS
10
-3.1216800787401575
20
-5.9587496850393702
11
-3.1216800787401575
21
-5.9081310236220475
0
LINE
8
BLACK
6
CONTINUOUS
10
-3.0682492519685041
20
-5.9643740157480316
11
-3.0738735433070867
21
-5.9671861417322836
0
LINE
8
BLACK
6
CONTINUOUS
10
-3.0738735433070867
20
-5.9671861417322836
11
-3.0851221259842521
21
-5.9671861417322836
0
LINE
8
BLACK
6
CONTINUOUS
10
-3.0851221259842521
20
-5.9671861417322836
11
-3.0907464566929135
21
-5.9643740157480316
0
LINE
8
BLACK
6
CONTINUOUS
10
-3.0907464566929135
20
-5.9643740157480316
11
-3.0935585826771654
21
-5.9587496850393702
0
LINE
8
BLACK
6
CONTINUOUS
10
-3.0935585826771654
20
-5.9587496850393702
11
-3.0935585826771654
21
-5.9362525196850395
0
LINE
8
BLACK
6
CONTINUOUS
10
-3.0935585826771654
20
-5.9362525196850395
11
-3.0907464566929135
21
-5.9306282283464569
0
LINE
8
BLACK
6
CONTINUOUS
10
-3.0907464566929135
20
-5.9306282283464569
11
-3.0851221259842521
21
-5.9278160629921262
0
LINE
8
BLACK
6
CONTINUOUS
10
-3.0851221259842521
20
-5.9278160629921262
11
-3.0738735433070867
21
-5.9278160629921262
0
LINE
8
BLACK
6
CONTINUOUS
10
-3.0738735433070867
20
-5.9278160629921262
11
-3.0682492519685041
21
-5.9306282283464569
0
LINE
8
BLACK
6
CONTINUOUS
10
-3.0682492519685041
20
-5.9306282283464569
11
-3.0654370866141734
21
-5.9362525196850395
0
LINE
8
BLACK
6
CONTINUOUS
10
-3.0654370866141734
20
-5.9362525196850395
11
-3.0654370866141734
21
-5.9418768110236222
0
LINE
8
BLACK
6
CONTINUOUS
10
-3.0654370866141734
20
-5.9418768110236222
11
-3.0935585826771654
21
-5.9475011023622049
0
LINE
8
BLACK
6
CONTINUOUS
10
-3.0401277952755903
20
-5.9615618503937009
11
-3.0373156299212596
21
-5.9643740157480316
0
LINE
8
BLACK
6
CONTINUOUS
10
-3.0373156299212596
20
-5.9643740157480316
11
-3.0401277952755903
21
-5.9671861417322836
0
LINE
8
BLACK
6
CONTINUOUS
10
-3.0401277952755903
20
-5.9671861417322836
11
-3.0429399212598423
21
-5.9643740157480316
0
LINE
8
BLACK
6
CONTINUOUS
10
-3.0429399212598423
20
-5.9643740157480316
11
-3.0401277952755903
21
-5.9615618503937009
0
LINE
8
BLACK
6
CONTINUOUS
10
-3.0401277952755903
20
-5.9615618503937009
11
-3.0401277952755903
21
-5.9671861417322836
0
LINE
8
BLACK
6
CONTINUOUS
10
-3.0401277952755903
20
-5.9306282283464569
11
-3.0373156299212596
21
-5.9334403543307088
0
LINE
8
BLACK
6
CONTINUOUS
10
-3.0373156299212596
20
-5.9334403543307088
11
-3.0401277952755903
21
-5.9362525196850395
0
LINE
8
BLACK
6
CONTINUOUS
10
-3.0401277952755903
20
-5.9362525196850395
11
-3.0429399212598423
21
-5.9334403543307088
0
LINE
8
BLACK
6
CONTINUOUS
10
-3.0429399212598423
20
-5.9334403543307088
11
-3.0401277952755903
21
-5.9306282283464569
0
LINE
8
BLACK
6
CONTINUOUS
10
-3.0401277952755903
20
-5.9306282283464569
11
-3.0401277952755903
21
-5.9362525196850395
0
LINE
8
BLACK
6
CONTINUOUS
10
-2.941702559055118
20
-5.9081310236220475
11
-2.9529511811023621
21
-5.9081310236220475
0
LINE
8
BLACK
6
CONTINUOUS
10
-2.9529511811023621
20
-5.9081310236220475
11
-2.9585754724409448
21
-5.9109431889763782
0
LINE
8
BLACK
6
CONTINUOUS
10
-2.9585754724409448
20
-5.9109431889763782
11
-2.9613875984251967
21
-5.9137553149606301
0
LINE
8
BLACK
6
CONTINUOUS
10
-2.9613875984251967
20
-5.9137553149606301
11
-2.9670119291338581
21
-5.9221917716535435
0
LINE
8
BLACK
6
CONTINUOUS
10
-2.9670119291338581
20
-5.9221917716535435
11
-2.9698240551181101
21
-5.9334403543307088
0
LINE
8
BLACK
6
CONTINUOUS
10
-2.9698240551181101
20
-5.9334403543307088
11
-2.9698240551181101
21
-5.9559375590551182
0
LINE
8
BLACK
6
CONTINUOUS
10
-2.9698240551181101
20
-5.9559375590551182
11
-2.9670119291338581
21
-5.9615618503937009
0
LINE
8
BLACK
6
CONTINUOUS
10
-2.9670119291338581
20
-5.9615618503937009
11
-2.9641997637795274
21
-5.9643740157480316
0
LINE
8
BLACK
6
CONTINUOUS
10
-2.9641997637795274
20
-5.9643740157480316
11
-2.9585754724409448
21
-5.9671861417322836
0
LINE
8
BLACK
6
CONTINUOUS
10
-2.9585754724409448
20
-5.9671861417322836
11
-2.9473268897637794
21
-5.9671861417322836
0
LINE
8
BLACK
6
CONTINUOUS
10
-2.9473268897637794
20
-5.9671861417322836
11
-2.941702559055118
21
-5.9643740157480316
0
LINE
8
BLACK
6
CONTINUOUS
10
-2.941702559055118
20
-5.9643740157480316
11
-2.9388904330708661
21
-5.9615618503937009
0
LINE
8
BLACK
6
CONTINUOUS
10
-2.9388904330708661
20
-5.9615618503937009
11
-2.9360782677165354
21
-5.9559375590551182
0
LINE
8
BLACK
6
CONTINUOUS
10
-2.9360782677165354
20
-5.9559375590551182
11
-2.9360782677165354
21
-5.9418768110236222
0
LINE
8
BLACK
6
CONTINUOUS
10
-2.9360782677165354
20
-5.9418768110236222
11
-2.9388904330708661
21
-5.9362525196850395
0
LINE
8
BLACK
6
CONTINUOUS
10
-2.9388904330708661
20
-5.9362525196850395
11
-2.941702559055118
21
-5.9334403543307088
0
LINE
8
BLACK
6
CONTINUOUS
10
-2.941702559055118
20
-5.9334403543307088
11
-2.9473268897637794
21
-5.9306282283464569
0
LINE
8
BLACK
6
CONTINUOUS
10
-2.9473268897637794
20
-5.9306282283464569
11
-2.9585754724409448
21
-5.9306282283464569
0
LINE
8
BLACK
6
CONTINUOUS
10
-2.9585754724409448
20
-5.9306282283464569
11
-2.9641997637795274
21
-5.9334403543307088
0
LINE
8
BLACK
6
CONTINUOUS
10
-2.9641997637795274
20
-5.9334403543307088
11
-2.9670119291338581
21
-5.9362525196850395
0
LINE
8
BLACK
6
CONTINUOUS
10
-2.9670119291338581
20
-5.9362525196850395
11
-2.9698240551181101
21
-5.9418768110236222
0
LINE
8
BLACK
6
CONTINUOUS
10
-2.8826474803149607
20
-5.9081310236220475
11
-2.9107689763779527
21
-5.9081310236220475
0
LINE
8
BLACK
6
CONTINUOUS
10
-2.9107689763779527
20
-5.9081310236220475
11
-2.9135811023622047
21
-5.9362525196850395
0
LINE
8
BLACK
6
CONTINUOUS
10
-2.9135811023622047
20
-5.9362525196850395
11
-2.9107689763779527
21
-5.9334403543307088
0
LINE
8
BLACK
6
CONTINUOUS
10
-2.9107689763779527
20
-5.9334403543307088
11
-2.9051446456692913
21
-5.9306282283464569
0
LINE
8
BLACK
6
CONTINUOUS
10
-2.9051446456692913
20
-5.9306282283464569
11
-2.891083937007874
21
-5.9306282283464569
0
LINE
8
BLACK
6
CONTINUOUS
10
-2.891083937007874
20
-5.9306282283464569
11
-2.8854596062992126
21
-5.9334403543307088
0
LINE
8
BLACK
6
CONTINUOUS
10
-2.8854596062992126
20
-5.9334403543307088
11
-2.8826474803149607
21
-5.9362525196850395
0
LINE
8
BLACK
6
CONTINUOUS
10
-2.8826474803149607
20
-5.9362525196850395
11
-2.8798353149606299
21
-5.9418768110236222
0
LINE
8
BLACK
6
CONTINUOUS
10
-2.8798353149606299
20
-5.9418768110236222
11
-2.8798353149606299
21
-5.9559375590551182
0
LINE
8
BLACK
6
CONTINUOUS
10
-2.8798353149606299
20
-5.9559375590551182
11
-2.8826474803149607
21
-5.9615618503937009
0
LINE
8
BLACK
6
CONTINUOUS
10
-2.8826474803149607
20
-5.9615618503937009
11
-2.8854596062992126
21
-5.9643740157480316
0
LINE
8
BLACK
6
CONTINUOUS
10
-2.8854596062992126
20
-5.9643740157480316
11
-2.891083937007874
21
-5.9671861417322836
0
LINE
8
BLACK
6
CONTINUOUS
10
-2.891083937007874
20
-5.9671861417322836
11
-2.9051446456692913
21
-5.9671861417322836
0
LINE
8
BLACK
6
CONTINUOUS
10
-2.9051446456692913
20
-5.9671861417322836
11
-2.9107689763779527
21
-5.9643740157480316
0
LINE
8
BLACK
6
CONTINUOUS
10
-2.9107689763779527
20
-5.9643740157480316
11
-2.9135811023622047
21
-5.9615618503937009
0
LINE
8
BLACK
6
CONTINUOUS
10
-2.8685867322834646
20
-5.9728104330708662
11
-2.8235923622047245
21
-5.9728104330708662
0
LINE
8
BLACK
6
CONTINUOUS
10
-2.8123437795275592
20
-5.9643740157480316
11
-2.8067194881889761
21
-5.9671861417322836
0
LINE
8
BLACK
6
CONTINUOUS
10
-2.8067194881889761
20
-5.9671861417322836
11
-2.7954709055118108
21
-5.9671861417322836
0
LINE
8
BLACK
6
CONTINUOUS
10
-2.7954709055118108
20
-5.9671861417322836
11
-2.7898466141732281
21
-5.9643740157480316
0
LINE
8
BLACK
6
CONTINUOUS
10
-2.7898466141732281
20
-5.9643740157480316
11
-2.7870344488188974
21
-5.9587496850393702
0
LINE
8
BLACK
6
CONTINUOUS
10
-2.7870344488188974
20
-5.9587496850393702
11
-2.7870344488188974
21
-5.9559375590551182
0
LINE
8
BLACK
6
CONTINUOUS
10
-2.7870344488188974
20
-5.9559375590551182
11
-2.7898466141732281
21
-5.9503132677165356
0
LINE
8
BLACK
6
CONTINUOUS
10
-2.7898466141732281
20
-5.9503132677165356
11
-2.7954709055118108
21
-5.9475011023622049
0
LINE
8
BLACK
6
CONTINUOUS
10
-2.7954709055118108
20
-5.9475011023622049
11
-2.8039073228346454
21
-5.9475011023622049
0
LINE
8
BLACK
6
CONTINUOUS
10
-2.8039073228346454
20
-5.9475011023622049
11
-2.8095316535433068
21
-5.9446889763779529
0
LINE
8
BLACK
6
CONTINUOUS
10
-2.8095316535433068
20
-5.9446889763779529
11
-2.8123437795275592
21
-5.9390646456692915
0
LINE
8
BLACK
6
CONTINUOUS
10
-2.8123437795275592
20
-5.9390646456692915
11
-2.8123437795275592
21
-5.9362525196850395
0
LINE
8
BLACK
6
CONTINUOUS
10
-2.8123437795275592
20
-5.9362525196850395
11
-2.8095316535433068
21
-5.9306282283464569
0
LINE
8
BLACK
6
CONTINUOUS
10
-2.8095316535433068
20
-5.9306282283464569
11
-2.8039073228346454
21
-5.9278160629921262
0
LINE
8
BLACK
6
CONTINUOUS
10
-2.8039073228346454
20
-5.9278160629921262
11
-2.7954709055118108
21
-5.9278160629921262
0
LINE
8
BLACK
6
CONTINUOUS
10
-2.7954709055118108
20
-5.9278160629921262
11
-2.7898466141732281
21
-5.9306282283464569
0
LINE
8
BLACK
6
CONTINUOUS
10
-2.761725118110236
20
-5.9278160629921262
11
-2.761725118110236
21
-5.9868711811023623
0
LINE
8
BLACK
6
CONTINUOUS
10
-2.761725118110236
20
-5.9306282283464569
11
-2.7561007874015746
21
-5.9278160629921262
0
LINE
8
BLACK
6
CONTINUOUS
10
-2.7561007874015746
20
-5.9278160629921262
11
-2.7448522047244093
21
-5.9278160629921262
0
LINE
8
BLACK
6
CONTINUOUS
10
-2.7448522047244093
20
-5.9278160629921262
11
-2.7392279133858266
21
-5.9306282283464569
0
LINE
8
BLACK
6
CONTINUOUS
10
-2.7392279133858266
20
-5.9306282283464569
11
-2.7364157480314959
21
-5.9334403543307088
0
LINE
8
BLACK
6
CONTINUOUS
10
-2.7364157480314959
20
-5.9334403543307088
11
-2.7336036220472439
21
-5.9390646456692915
0
LINE
8
BLACK
6
CONTINUOUS
10
-2.7336036220472439
20
-5.9390646456692915
11
-2.7336036220472439
21
-5.9559375590551182
0
LINE
8
BLACK
6
CONTINUOUS
10
-2.7336036220472439
20
-5.9559375590551182
11
-2.7364157480314959
21
-5.9615618503937009
0
LINE
8
BLACK
6
CONTINUOUS
10
-2.7364157480314959
20
-5.9615618503937009
11
-2.7392279133858266
21
-5.9643740157480316
0
LINE
8
BLACK
6
CONTINUOUS
10
-2.7392279133858266
20
-5.9643740157480316
11
-2.7448522047244093
21
-5.9671861417322836
0
LINE
8
BLACK
6
CONTINUOUS
10
-2.7448522047244093
20
-5.9671861417322836
11
-2.7561007874015746
21
-5.9671861417322836
0
LINE
8
BLACK
6
CONTINUOUS
10
-2.7561007874015746
20
-5.9671861417322836
11
-2.761725118110236
21
-5.9643740157480316
0
LINE
8
BLACK
6
CONTINUOUS
10
-2.6998578346456692
20
-5.9671861417322836
11
-2.7054821259842519
21
-5.9643740157480316
0
LINE
8
BLACK
6
CONTINUOUS
10
-2.7054821259842519
20
-5.9643740157480316
11
-2.7082942913385826
21
-5.9587496850393702
0
LINE
8
BLACK
6
CONTINUOUS
10
-2.7082942913385826
20
-5.9587496850393702
11
-2.7082942913385826
21
-5.9081310236220475
0
LINE
8
BLACK
6
CONTINUOUS
10
-2.6773606692913385
20
-5.9671861417322836
11
-2.6773606692913385
21
-5.9278160629921262
0
LINE
8
BLACK
6
CONTINUOUS
10
-2.6773606692913385
20
-5.9081310236220475
11
-2.6801727952755905
21
-5.9109431889763782
0
LINE
8
BLACK
6
CONTINUOUS
10
-2.6801727952755905
20
-5.9109431889763782
11
-2.6773606692913385
21
-5.9137553149606301
0
LINE
8
BLACK
6
CONTINUOUS
10
-2.6773606692913385
20
-5.9137553149606301
11
-2.6745485039370078
21
-5.9109431889763782
0
LINE
8
BLACK
6
CONTINUOUS
10
-2.6745485039370078
20
-5.9109431889763782
11
-2.6773606692913385
21
-5.9081310236220475
0
LINE
8
BLACK
6
CONTINUOUS
10
-2.6773606692913385
20
-5.9081310236220475
11
-2.6773606692913385
21
-5.9137553149606301
0
LINE
8
BLACK
6
CONTINUOUS
10
-2.6576755905511811
20
-5.9278160629921262
11
-2.6351784251968504
21
-5.9278160629921262
0
LINE
8
BLACK
6
CONTINUOUS
10
-2.6492391732283465
20
-5.9081310236220475
11
-2.6492391732283465
21
-5.9587496850393702
0
LINE
8
BLACK
6
CONTINUOUS
10
-2.6492391732283465
20
-5.9587496850393702
11
-2.6464270078740157
21
-5.9643740157480316
0
LINE
8
BLACK
6
CONTINUOUS
10
-2.6464270078740157
20
-5.9643740157480316
11
-2.6408027165354331
21
-5.9671861417322836
0
LINE
8
BLACK
6
CONTINUOUS
10
-2.6408027165354331
20
-5.9671861417322836
11
-2.6351784251968504
21
-5.9671861417322836
0
LINE
8
BLACK
6
CONTINUOUS
10
-2.629554094488189
20
-5.9728104330708662
11
-2.5845597244094489
21
-5.9728104330708662
0
LINE
8
BLACK
6
CONTINUOUS
10
-2.5704990157480316
20
-5.9671861417322836
11
-2.5704990157480316
21
-5.9278160629921262
0
LINE
8
BLACK
6
CONTINUOUS
10
-2.5704990157480316
20
-5.9390646456692915
11
-2.5676868503937009
21
-5.9334403543307088
0
LINE
8
BLACK
6
CONTINUOUS
10
-2.5676868503937009
20
-5.9334403543307088
11
-2.5648746850393702
21
-5.9306282283464569
0
LINE
8
BLACK
6
CONTINUOUS
10
-2.5648746850393702
20
-5.9306282283464569
11
-2.5592503937007876
21
-5.9278160629921262
0
LINE
8
BLACK
6
CONTINUOUS
10
-2.5592503937007876
20
-5.9278160629921262
11
-2.5536261023622049
21
-5.9278160629921262
0
LINE
8
BLACK
6
CONTINUOUS
10
-2.5339411023622045
20
-5.9671861417322836
11
-2.5339411023622045
21
-5.9278160629921262
0
LINE
8
BLACK
6
CONTINUOUS
10
-2.5339411023622045
20
-5.9081310236220475
11
-2.5367532283464564
21
-5.9109431889763782
0
LINE
8
BLACK
6
CONTINUOUS
10
-2.5367532283464564
20
-5.9109431889763782
11
-2.5339411023622045
21
-5.9137553149606301
0
LINE
8
BLACK
6
CONTINUOUS
10
-2.5339411023622045
20
-5.9137553149606301
11
-2.5311289370078738
21
-5.9109431889763782
0
LINE
8
BLACK
6
CONTINUOUS
10
-2.5311289370078738
20
-5.9109431889763782
11
-2.5339411023622045
21
-5.9081310236220475
0
LINE
8
BLACK
6
CONTINUOUS
10
-2.5339411023622045
20
-5.9081310236220475
11
-2.5339411023622045
21
-5.9137553149606301
0
LINE
8
BLACK
6
CONTINUOUS
10
-2.4805102362204723
20
-5.9278160629921262
11
-2.4805102362204723
21
-5.9756225984251969
0
LINE
8
BLACK
6
CONTINUOUS
10
-2.4805102362204723
20
-5.9756225984251969
11
-2.483322401574803
21
-5.9812468897637796
0
LINE
8
BLACK
6
CONTINUOUS
10
-2.483322401574803
20
-5.9812468897637796
11
-2.4861345669291337
21
-5.9840590551181103
0
LINE
8
BLACK
6
CONTINUOUS
10
-2.4861345669291337
20
-5.9840590551181103
11
-2.4917588582677164
21
-5.9868711811023623
0
LINE
8
BLACK
6
CONTINUOUS
10
-2.4917588582677164
20
-5.9868711811023623
11
-2.500195275590551
21
-5.9868711811023623
0
LINE
8
BLACK
6
CONTINUOUS
10
-2.500195275590551
20
-5.9868711811023623
11
-2.5058196062992124
21
-5.9840590551181103
0
LINE
8
BLACK
6
CONTINUOUS
10
-2.4805102362204723
20
-5.9643740157480316
11
-2.4861345669291337
21
-5.9671861417322836
0
LINE
8
BLACK
6
CONTINUOUS
10
-2.4861345669291337
20
-5.9671861417322836
11
-2.497383149606299
21
-5.9671861417322836
0
LINE
8
BLACK
6
CONTINUOUS
10
-2.497383149606299
20
-5.9671861417322836
11
-2.5030074409448817
21
-5.9643740157480316
0
LINE
8
BLACK
6
CONTINUOUS
10
-2.5030074409448817
20
-5.9643740157480316
11
-2.5058196062992124
21
-5.9615618503937009
0
LINE
8
BLACK
6
CONTINUOUS
10
-2.5058196062992124
20
-5.9615618503937009
11
-2.5086317322834644
21
-5.9559375590551182
0
LINE
8
BLACK
6
CONTINUOUS
10
-2.5086317322834644
20
-5.9559375590551182
11
-2.5086317322834644
21
-5.9390646456692915
0
LINE
8
BLACK
6
CONTINUOUS
10
-2.5086317322834644
20
-5.9390646456692915
11
-2.5058196062992124
21
-5.9334403543307088
0
LINE
8
BLACK
6
CONTINUOUS
10
-2.5058196062992124
20
-5.9334403543307088
11
-2.5030074409448817
21
-5.9306282283464569
0
LINE
8
BLACK
6
CONTINUOUS
10
-2.5030074409448817
20
-5.9306282283464569
11
-2.497383149606299
21
-5.9278160629921262
0
LINE
8
BLACK
6
CONTINUOUS
10
-2.497383149606299
20
-5.9278160629921262
11
-2.4861345669291337
21
-5.9278160629921262
0
LINE
8
BLACK
6
CONTINUOUS
10
-2.4861345669291337
20
-5.9278160629921262
11
-2.4805102362204723
21
-5.9306282283464569
0
LINE
8
BLACK
6
CONTINUOUS
10
-2.452388779527559
20
-5.9671861417322836
11
-2.452388779527559
21
-5.9081310236220475
0
LINE
8
BLACK
6
CONTINUOUS
10
-2.4270794094488188
20
-5.9671861417322836
11
-2.4270794094488188
21
-5.9362525196850395
0
LINE
8
BLACK
6
CONTINUOUS
10
-2.4270794094488188
20
-5.9362525196850395
11
-2.4298915748031495
21
-5.9306282283464569
0
LINE
8
BLACK
6
CONTINUOUS
10
-2.4298915748031495
20
-5.9306282283464569
11
-2.4355158661417322
21
-5.9278160629921262
0
LINE
8
BLACK
6
CONTINUOUS
10
-2.4355158661417322
20
-5.9278160629921262
11
-2.4439523228346456
21
-5.9278160629921262
0
LINE
8
BLACK
6
CONTINUOUS
10
-2.4439523228346456
20
-5.9278160629921262
11
-2.4495766141732283
21
-5.9306282283464569
0
LINE
8
BLACK
6
CONTINUOUS
10
-2.4495766141732283
20
-5.9306282283464569
11
-2.452388779527559
21
-5.9334403543307088
0
LINE
8
BLACK
6
CONTINUOUS
10
-2.4073943700787401
20
-5.9278160629921262
11
-2.3848972047244095
21
-5.9278160629921262
0
LINE
8
BLACK
6
CONTINUOUS
10
-2.3989579527559055
20
-5.9081310236220475
11
-2.3989579527559055
21
-5.9587496850393702
0
LINE
8
BLACK
6
CONTINUOUS
10
-2.3989579527559055
20
-5.9587496850393702
11
-2.3961457874015748
21
-5.9643740157480316
0
LINE
8
BLACK
6
CONTINUOUS
10
-2.3961457874015748
20
-5.9643740157480316
11
-2.3905214960629921
21
-5.9671861417322836
0
LINE
8
BLACK
6
CONTINUOUS
10
-2.3905214960629921
20
-5.9671861417322836
11
-2.3848972047244095
21
-5.9671861417322836
0
LINE
8
BLACK
6
CONTINUOUS
10
-2.3652121653543308
20
-5.9615618503937009
11
-2.3624000000000001
21
-5.9643740157480316
0
LINE
8
BLACK
6
CONTINUOUS
10
-2.3624000000000001
20
-5.9643740157480316
11
-2.3652121653543308
21
-5.9671861417322836
0
LINE
8
BLACK
6
CONTINUOUS
10
-2.3652121653543308
20
-5.9671861417322836
11
-2.3680242913385827
21
-5.9643740157480316
0
LINE
8
BLACK
6
CONTINUOUS
10
-2.3680242913385827
20
-5.9643740157480316
11
-2.3652121653543308
21
-5.9615618503937009
0
LINE
8
BLACK
6
CONTINUOUS
10
-2.3652121653543308
20
-5.9615618503937009
11
-2.3652121653543308
21
-5.9671861417322836
0
LINE
8
BLACK
6
CONTINUOUS
10
-2.3370906692913387
20
-5.9671861417322836
11
-2.3370906692913387
21
-5.9081310236220475
0
LINE
8
BLACK
6
CONTINUOUS
10
-2.3314663385826773
20
-5.9446889763779529
11
-2.3145934645669293
21
-5.9671861417322836
0
LINE
8
BLACK
6
CONTINUOUS
10
-2.3145934645669293
20
-5.9278160629921262
11
-2.3370906692913387
21
-5.9503132677165356
0
LINE
8
BLACK
6
CONTINUOUS
10
-2.2892841338582675
20
-5.9671861417322836
11
-2.2892841338582675
21
-5.9278160629921262
0
LINE
8
BLACK
6
CONTINUOUS
10
-2.2892841338582675
20
-5.9081310236220475
11
-2.2920962598425194
21
-5.9109431889763782
0
LINE
8
BLACK
6
CONTINUOUS
10
-2.2920962598425194
20
-5.9109431889763782
11
-2.2892841338582675
21
-5.9137553149606301
0
LINE
8
BLACK
6
CONTINUOUS
10
-2.2892841338582675
20
-5.9137553149606301
11
-2.2864719685039367
21
-5.9109431889763782
0
LINE
8
BLACK
6
CONTINUOUS
10
-2.2864719685039367
20
-5.9109431889763782
11
-2.2892841338582675
21
-5.9081310236220475
0
LINE
8
BLACK
6
CONTINUOUS
10
-2.2892841338582675
20
-5.9081310236220475
11
-2.2892841338582675
21
-5.9137553149606301
0
LINE
8
BLACK
6
CONTINUOUS
10
-2.2358532677165353
20
-5.9643740157480316
11
-2.2414775984251967
21
-5.9671861417322836
0
LINE
8
BLACK
6
CONTINUOUS
10
-2.2414775984251967
20
-5.9671861417322836
11
-2.252726181102362
21
-5.9671861417322836
0
LINE
8
BLACK
6
CONTINUOUS
10
-2.252726181102362
20
-5.9671861417322836
11
-2.2583504724409447
21
-5.9643740157480316
0
LINE
8
BLACK
6
CONTINUOUS
10
-2.2583504724409447
20
-5.9643740157480316
11
-2.2611626377952754
21
-5.9615618503937009
0
LINE
8
BLACK
6
CONTINUOUS
10
-2.2611626377952754
20
-5.9615618503937009
11
-2.2639747637795273
21
-5.9559375590551182
0
LINE
8
BLACK
6
CONTINUOUS
10
-2.2639747637795273
20
-5.9559375590551182
11
-2.2639747637795273
21
-5.9390646456692915
0
LINE
8
BLACK
6
CONTINUOUS
10
-2.2639747637795273
20
-5.9390646456692915
11
-2.2611626377952754
21
-5.9334403543307088
0
LINE
8
BLACK
6
CONTINUOUS
10
-2.2611626377952754
20
-5.9334403543307088
11
-2.2583504724409447
21
-5.9306282283464569
0
LINE
8
BLACK
6
CONTINUOUS
10
-2.2583504724409447
20
-5.9306282283464569
11
-2.252726181102362
21
-5.9278160629921262
0
LINE
8
BLACK
6
CONTINUOUS
10
-2.252726181102362
20
-5.9278160629921262
11
-2.2414775984251967
21
-5.9278160629921262
0
LINE
8
BLACK
6
CONTINUOUS
10
-2.2414775984251967
20
-5.9278160629921262
11
-2.2358532677165353
21
-5.9306282283464569
0
LINE
8
BLACK
6
CONTINUOUS
10
-2.1852346062992125
20
-5.9671861417322836
11
-2.1852346062992125
21
-5.9362525196850395
0
LINE
8
BLACK
6
CONTINUOUS
10
-2.1852346062992125
20
-5.9362525196850395
11
-2.1880467716535432
21
-5.9306282283464569
0
LINE
8
BLACK
6
CONTINUOUS
10
-2.1880467716535432
20
-5.9306282283464569
11
-2.1936710629921259
21
-5.9278160629921262
0
LINE
8
BLACK
6
CONTINUOUS
10
-2.1936710629921259
20
-5.9278160629921262
11
-2.2049196456692912
21
-5.9278160629921262
0
LINE
8
BLACK
6
CONTINUOUS
10
-2.2049196456692912
20
-5.9278160629921262
11
-2.2105439763779526
21
-5.9306282283464569
0
LINE
8
BLACK
6
CONTINUOUS
10
-2.1852346062992125
20
-5.9643740157480316
11
-2.1908589370078739
21
-5.9671861417322836
0
LINE
8
BLACK
6
CONTINUOUS
10
-2.1908589370078739
20
-5.9671861417322836
11
-2.2049196456692912
21
-5.9671861417322836
0
LINE
8
BLACK
6
CONTINUOUS
10
-2.2049196456692912
20
-5.9671861417322836
11
-2.2105439763779526
21
-5.9643740157480316
0
LINE
8
BLACK
6
CONTINUOUS
10
-2.2105439763779526
20
-5.9643740157480316
11
-2.2133561023622046
21
-5.9587496850393702
0
LINE
8
BLACK
6
CONTINUOUS
10
-2.2133561023622046
20
-5.9587496850393702
11
-2.2133561023622046
21
-5.9531253937007875
0
LINE
8
BLACK
6
CONTINUOUS
10
-2.2133561023622046
20
-5.9531253937007875
11
-2.2105439763779526
21
-5.9475011023622049
0
LINE
8
BLACK
6
CONTINUOUS
10
-2.2105439763779526
20
-5.9475011023622049
11
-2.2049196456692912
21
-5.9446889763779529
0
LINE
8
BLACK
6
CONTINUOUS
10
-2.2049196456692912
20
-5.9446889763779529
11
-2.1908589370078739
21
-5.9446889763779529
0
LINE
8
BLACK
6
CONTINUOUS
10
-2.1908589370078739
20
-5.9446889763779529
11
-2.1852346062992125
21
-5.9418768110236222
0
LINE
8
BLACK
6
CONTINUOUS
10
-2.1318037795275591
20
-5.9671861417322836
11
-2.1318037795275591
21
-5.9081310236220475
0
LINE
8
BLACK
6
CONTINUOUS
10
-2.1318037795275591
20
-5.9643740157480316
11
-2.1374281102362205
21
-5.9671861417322836
0
LINE
8
BLACK
6
CONTINUOUS
10
-2.1374281102362205
20
-5.9671861417322836
11
-2.1486766929133858
21
-5.9671861417322836
0
LINE
8
BLACK
6
CONTINUOUS
10
-2.1486766929133858
20
-5.9671861417322836
11
-2.1543009842519685
21
-5.9643740157480316
0
LINE
8
BLACK
6
CONTINUOUS
10
-2.1543009842519685
20
-5.9643740157480316
11
-2.1571131496062992
21
-5.9615618503937009
0
LINE
8
BLACK
6
CONTINUOUS
10
-2.1571131496062992
20
-5.9615618503937009
11
-2.1599252755905511
21
-5.9559375590551182
0
LINE
8
BLACK
6
CONTINUOUS
10
-2.1599252755905511
20
-5.9559375590551182
11
-2.1599252755905511
21
-5.9390646456692915
0
LINE
8
BLACK
6
CONTINUOUS
10
-2.1599252755905511
20
-5.9390646456692915
11
-2.1571131496062992
21
-5.9334403543307088
0
LINE
8
BLACK
6
CONTINUOUS
10
-2.1571131496062992
20
-5.9334403543307088
11
-2.1543009842519685
21
-5.9306282283464569
0
LINE
8
BLACK
6
CONTINUOUS
10
-2.1543009842519685
20
-5.9306282283464569
11
-2.1486766929133858
21
-5.9278160629921262
0
LINE
8
BLACK
6
CONTINUOUS
10
-2.1486766929133858
20
-5.9278160629921262
11
-2.1374281102362205
21
-5.9278160629921262
0
LINE
8
BLACK
6
CONTINUOUS
10
-2.1374281102362205
20
-5.9278160629921262
11
-2.1318037795275591
21
-5.9306282283464569
0
LINE
8
BLACK
6
CONTINUOUS
10
-2.117743031496063
20
-5.9728104330708662
11
-2.0727486614173229
21
-5.9728104330708662
0
LINE
8
BLACK
6
CONTINUOUS
10
-2.0586879527559057
20
-5.9278160629921262
11
-2.0586879527559057
21
-5.9868711811023623
0
LINE
8
BLACK
6
CONTINUOUS
10
-2.0586879527559057
20
-5.9306282283464569
11
-2.0530636220472442
21
-5.9278160629921262
0
LINE
8
BLACK
6
CONTINUOUS
10
-2.0530636220472442
20
-5.9278160629921262
11
-2.0418150393700789
21
-5.9278160629921262
0
LINE
8
BLACK
6
CONTINUOUS
10
-2.0418150393700789
20
-5.9278160629921262
11
-2.0361907480314958
21
-5.9306282283464569
0
LINE
8
BLACK
6
CONTINUOUS
10
-2.0361907480314958
20
-5.9306282283464569
11
-2.0333785826771651
21
-5.9334403543307088
0
LINE
8
BLACK
6
CONTINUOUS
10
-2.0333785826771651
20
-5.9334403543307088
11
-2.0305664566929131
21
-5.9390646456692915
0
LINE
8
BLACK
6
CONTINUOUS
10
-2.0305664566929131
20
-5.9390646456692915
11
-2.0305664566929131
21
-5.9559375590551182
0
LINE
8
BLACK
6
CONTINUOUS
10
-2.0305664566929131
20
-5.9559375590551182
11
-2.0333785826771651
21
-5.9615618503937009
0
LINE
8
BLACK
6
CONTINUOUS
10
-2.0333785826771651
20
-5.9615618503937009
11
-2.0361907480314958
21
-5.9643740157480316
0
LINE
8
BLACK
6
CONTINUOUS
10
-2.0361907480314958
20
-5.9643740157480316
11
-2.0418150393700789
21
-5.9671861417322836
0
LINE
8
BLACK
6
CONTINUOUS
10
-2.0418150393700789
20
-5.9671861417322836
11
-2.0530636220472442
21
-5.9671861417322836
0
LINE
8
BLACK
6
CONTINUOUS
10
-2.0530636220472442
20
-5.9671861417322836
11
-2.0586879527559057
21
-5.9643740157480316
0
LINE
8
BLACK
6
CONTINUOUS
10
-1.9799477559055119
20
-5.9643740157480316
11
-1.9855720866141733
21
-5.9671861417322836
0
LINE
8
BLACK
6
CONTINUOUS
10
-1.9855720866141733
20
-5.9671861417322836
11
-1.9968206692913386
21
-5.9671861417322836
0
LINE
8
BLACK
6
CONTINUOUS
10
-1.9968206692913386
20
-5.9671861417322836
11
-2.0024449606299211
21
-5.9643740157480316
0
LINE
8
BLACK
6
CONTINUOUS
10
-2.0024449606299211
20
-5.9643740157480316
11
-2.0052571259842518
21
-5.9615618503937009
0
LINE
8
BLACK
6
CONTINUOUS
10
-2.0052571259842518
20
-5.9615618503937009
11
-2.0080692519685037
21
-5.9559375590551182
0
LINE
8
BLACK
6
CONTINUOUS
10
-2.0080692519685037
20
-5.9559375590551182
11
-2.0080692519685037
21
-5.9390646456692915
0
LINE
8
BLACK
6
CONTINUOUS
10
-2.0080692519685037
20
-5.9390646456692915
11
-2.0052571259842518
21
-5.9334403543307088
0
LINE
8
BLACK
6
CONTINUOUS
10
-2.0052571259842518
20
-5.9334403543307088
11
-2.0024449606299211
21
-5.9306282283464569
0
LINE
8
BLACK
6
CONTINUOUS
10
-2.0024449606299211
20
-5.9306282283464569
11
-1.9968206692913386
21
-5.9278160629921262
0
LINE
8
BLACK
6
CONTINUOUS
10
-1.9968206692913386
20
-5.9278160629921262
11
-1.9855720866141733
21
-5.9278160629921262
0
LINE
8
BLACK
6
CONTINUOUS
10
-1.9855720866141733
20
-5.9278160629921262
11
-1.9799477559055119
21
-5.9306282283464569
0
LINE
8
BLACK
6
CONTINUOUS
10
-1.954638464566929
20
-5.9671861417322836
11
-1.954638464566929
21
-5.9081310236220475
0
LINE
8
BLACK
6
CONTINUOUS
10
-1.954638464566929
20
-5.9306282283464569
11
-1.9490141338582676
21
-5.9278160629921262
0
LINE
8
BLACK
6
CONTINUOUS
10
-1.9490141338582676
20
-5.9278160629921262
11
-1.9377655511811023
21
-5.9278160629921262
0
LINE
8
BLACK
6
CONTINUOUS
10
-1.9377655511811023
20
-5.9278160629921262
11
-1.9321412598425196
21
-5.9306282283464569
0
LINE
8
BLACK
6
CONTINUOUS
10
-1.9321412598425196
20
-5.9306282283464569
11
-1.9293290944881889
21
-5.9334403543307088
0
LINE
8
BLACK
6
CONTINUOUS
10
-1.9293290944881889
20
-5.9334403543307088
11
-1.9265169685039369
21
-5.9390646456692915
0
LINE
8
BLACK
6
CONTINUOUS
10
-1.9265169685039369
20
-5.9390646456692915
11
-1.9265169685039369
21
-5.9559375590551182
0
LINE
8
BLACK
6
CONTINUOUS
10
-1.9265169685039369
20
-5.9559375590551182
11
-1.9293290944881889
21
-5.9615618503937009
0
LINE
8
BLACK
6
CONTINUOUS
10
-1.9293290944881889
20
-5.9615618503937009
11
-1.9321412598425196
21
-5.9643740157480316
0
LINE
8
BLACK
6
CONTINUOUS
10
-1.9321412598425196
20
-5.9643740157480316
11
-1.9377655511811023
21
-5.9671861417322836
0
LINE
8
BLACK
6
CONTINUOUS
10
-1.9377655511811023
20
-5.9671861417322836
11
-1.9490141338582676
21
-5.9671861417322836
0
LINE
8
BLACK
6
CONTINUOUS
10
-1.9490141338582676
20
-5.9671861417322836
11
-1.954638464566929
21
-5.9643740157480316
0
LINE
8
BLACK
6
CONTINUOUS
10
-3.2577362204724407
20
-5.774818897637795
11
0.9942322834645669
21
-5.774818897637795
0
LINE
8
BLACK
6
CONTINUOUS
10
-3.2032323622047243
20
-5.8580748031496066
11
-3.1947959055118109
21
-5.8608869291338586
0
LINE
8
BLACK
6
CONTINUOUS
10
-3.1947959055118109
20
-5.8608869291338586
11
-3.1807351968503936
21
-5.8608869291338586
0
LINE
8
BLACK
6
CONTINUOUS
10
-3.1807351968503936
20
-5.8608869291338586
11
-3.1751108661417322
21
-5.8580748031496066
0
LINE
8
BLACK
6
CONTINUOUS
10
-3.1751108661417322
20
-5.8580748031496066
11
-3.1722987401574803
21
-5.8552626377952759
0
LINE
8
BLACK
6
CONTINUOUS
10
-3.1722987401574803
20
-5.8552626377952759
11
-3.1694865748031495
21
-5.8496383464566923
0
LINE
8
BLACK
6
CONTINUOUS
10
-3.1694865748031495
20
-5.8496383464566923
11
-3.1694865748031495
21
-5.8440140551181097
0
LINE
8
BLACK
6
CONTINUOUS
10
-3.1694865748031495
20
-5.8440140551181097
11
-3.1722987401574803
21
-5.838389763779527
0
LINE
8
BLACK
6
CONTINUOUS
10
-3.1722987401574803
20
-5.838389763779527
11
-3.1751108661417322
21
-5.8355775984251963
0
LINE
8
BLACK
6
CONTINUOUS
10
-3.1751108661417322
20
-5.8355775984251963
11
-3.1807351968503936
21
-5.8327654330708656
0
LINE
8
BLACK
6
CONTINUOUS
10
-3.1807351968503936
20
-5.8327654330708656
11
-3.191983779527559
21
-5.8299533070866136
0
LINE
8
BLACK
6
CONTINUOUS
10
-3.191983779527559
20
-5.8299533070866136
11
-3.1976080708661416
21
-5.8271411417322829
0
LINE
8
BLACK
6
CONTINUOUS
10
-3.1976080708661416
20
-5.8271411417322829
11
-3.2004202362204723
21
-5.824329015748031
0
LINE
8
BLACK
6
CONTINUOUS
10
-3.2004202362204723
20
-5.824329015748031
11
-3.2032323622047243
21
-5.8187047244094483
0
LINE
8
BLACK
6
CONTINUOUS
10
-3.2032323622047243
20
-5.8187047244094483
11
-3.2032323622047243
21
-5.8130803937007869
0
LINE
8
BLACK
6
CONTINUOUS
10
-3.2032323622047243
20
-5.8130803937007869
11
-3.2004202362204723
21
-5.8074561023622042
0
LINE
8
BLACK
6
CONTINUOUS
10
-3.2004202362204723
20
-5.8074561023622042
11
-3.1976080708661416
21
-5.8046439763779523
0
LINE
8
BLACK
6
CONTINUOUS
10
-3.1976080708661416
20
-5.8046439763779523
11
-3.191983779527559
21
-5.8018318110236216
0
LINE
8
BLACK
6
CONTINUOUS
10
-3.191983779527559
20
-5.8018318110236216
11
-3.1779230314960629
21
-5.8018318110236216
0
LINE
8
BLACK
6
CONTINUOUS
10
-3.1779230314960629
20
-5.8018318110236216
11
-3.1694865748031495
21
-5.8046439763779523
0
LINE
8
BLACK
6
CONTINUOUS
10
-3.1441772834645669
20
-5.8608869291338586
11
-3.1441772834645669
21
-5.8018318110236216
0
LINE
8
BLACK
6
CONTINUOUS
10
-3.1188679133858268
20
-5.8608869291338586
11
-3.1188679133858268
21
-5.8299533070866136
0
LINE
8
BLACK
6
CONTINUOUS
10
-3.1188679133858268
20
-5.8299533070866136
11
-3.1216800787401575
21
-5.824329015748031
0
LINE
8
BLACK
6
CONTINUOUS
10
-3.1216800787401575
20
-5.824329015748031
11
-3.1273043700787402
21
-5.8215168503937003
0
LINE
8
BLACK
6
CONTINUOUS
10
-3.1273043700787402
20
-5.8215168503937003
11
-3.1357408267716536
21
-5.8215168503937003
0
LINE
8
BLACK
6
CONTINUOUS
10
-3.1357408267716536
20
-5.8215168503937003
11
-3.1413651181102362
21
-5.824329015748031
0
LINE
8
BLACK
6
CONTINUOUS
10
-3.1413651181102362
20
-5.824329015748031
11
-3.1441772834645669
21
-5.8271411417322829
0
LINE
8
BLACK
6
CONTINUOUS
10
-3.0682492519685041
20
-5.8580748031496066
11
-3.0738735433070867
21
-5.8608869291338586
0
LINE
8
BLACK
6
CONTINUOUS
10
-3.0738735433070867
20
-5.8608869291338586
11
-3.0851221259842521
21
-5.8608869291338586
0
LINE
8
BLACK
6
CONTINUOUS
10
-3.0851221259842521
20
-5.8608869291338586
11
-3.0907464566929135
21
-5.8580748031496066
0
LINE
8
BLACK
6
CONTINUOUS
10
-3.0907464566929135
20
-5.8580748031496066
11
-3.0935585826771654
21
-5.8524504724409452
0
LINE
8
BLACK
6
CONTINUOUS
10
-3.0935585826771654
20
-5.8524504724409452
11
-3.0935585826771654
21
-5.8299533070866136
0
LINE
8
BLACK
6
CONTINUOUS
10
-3.0935585826771654
20
-5.8299533070866136
11
-3.0907464566929135
21
-5.824329015748031
0
LINE
8
BLACK
6
CONTINUOUS
10
-3.0907464566929135
20
-5.824329015748031
11
-3.0851221259842521
21
-5.8215168503937003
0
LINE
8
BLACK
6
CONTINUOUS
10
-3.0851221259842521
20
-5.8215168503937003
11
-3.0738735433070867
21
-5.8215168503937003
0
LINE
8
BLACK
6
CONTINUOUS
10
-3.0738735433070867
20
-5.8215168503937003
11
-3.0682492519685041
21
-5.824329015748031
0
LINE
8
BLACK
6
CONTINUOUS
10
-3.0682492519685041
20
-5.824329015748031
11
-3.0654370866141734
21
-5.8299533070866136
0
LINE
8
BLACK
6
CONTINUOUS
10
-3.0654370866141734
20
-5.8299533070866136
11
-3.0654370866141734
21
-5.8355775984251963
0
LINE
8
BLACK
6
CONTINUOUS
10
-3.0654370866141734
20
-5.8355775984251963
11
-3.0935585826771654
21
-5.841201889763779
0
LINE
8
BLACK
6
CONTINUOUS
10
-3.0176305905511809
20
-5.8580748031496066
11
-3.0232548818897635
21
-5.8608869291338586
0
LINE
8
BLACK
6
CONTINUOUS
10
-3.0232548818897635
20
-5.8608869291338586
11
-3.0345034645669289
21
-5.8608869291338586
0
LINE
8
BLACK
6
CONTINUOUS
10
-3.0345034645669289
20
-5.8608869291338586
11
-3.0401277952755903
21
-5.8580748031496066
0
LINE
8
BLACK
6
CONTINUOUS
10
-3.0401277952755903
20
-5.8580748031496066
11
-3.0429399212598423
21
-5.8524504724409452
0
LINE
8
BLACK
6
CONTINUOUS
10
-3.0429399212598423
20
-5.8524504724409452
11
-3.0429399212598423
21
-5.8299533070866136
0
LINE
8
BLACK
6
CONTINUOUS
10
-3.0429399212598423
20
-5.8299533070866136
11
-3.0401277952755903
21
-5.824329015748031
0
LINE
8
BLACK
6
CONTINUOUS
10
-3.0401277952755903
20
-5.824329015748031
11
-3.0345034645669289
21
-5.8215168503937003
0
LINE
8
BLACK
6
CONTINUOUS
10
-3.0345034645669289
20
-5.8215168503937003
11
-3.0232548818897635
21
-5.8215168503937003
0
LINE
8
BLACK
6
CONTINUOUS
10
-3.0232548818897635
20
-5.8215168503937003
11
-3.0176305905511809
21
-5.824329015748031
0
LINE
8
BLACK
6
CONTINUOUS
10
-3.0176305905511809
20
-5.824329015748031
11
-3.0148184251968502
21
-5.8299533070866136
0
LINE
8
BLACK
6
CONTINUOUS
10
-3.0148184251968502
20
-5.8299533070866136
11
-3.0148184251968502
21
-5.8355775984251963
0
LINE
8
BLACK
6
CONTINUOUS
10
-3.0148184251968502
20
-5.8355775984251963
11
-3.0429399212598423
21
-5.841201889763779
0
LINE
8
BLACK
6
CONTINUOUS
10
-2.9979455511811022
20
-5.8215168503937003
11
-2.9754483858267715
21
-5.8215168503937003
0
LINE
8
BLACK
6
CONTINUOUS
10
-2.9895091338582676
20
-5.8018318110236216
11
-2.9895091338582676
21
-5.8524504724409452
0
LINE
8
BLACK
6
CONTINUOUS
10
-2.9895091338582676
20
-5.8524504724409452
11
-2.9866969685039368
21
-5.8580748031496066
0
LINE
8
BLACK
6
CONTINUOUS
10
-2.9866969685039368
20
-5.8580748031496066
11
-2.9810726771653542
21
-5.8608869291338586
0
LINE
8
BLACK
6
CONTINUOUS
10
-2.9810726771653542
20
-5.8608869291338586
11
-2.9754483858267715
21
-5.8608869291338586
0
LINE
8
BLACK
6
CONTINUOUS
10
-2.9557633464566928
20
-5.8552626377952759
11
-2.9529511811023621
21
-5.8580748031496066
0
LINE
8
BLACK
6
CONTINUOUS
10
-2.9529511811023621
20
-5.8580748031496066
11
-2.9557633464566928
21
-5.8608869291338586
0
LINE
8
BLACK
6
CONTINUOUS
10
-2.9557633464566928
20
-5.8608869291338586
11
-2.9585754724409448
21
-5.8580748031496066
0
LINE
8
BLACK
6
CONTINUOUS
10
-2.9585754724409448
20
-5.8580748031496066
11
-2.9557633464566928
21
-5.8552626377952759
0
LINE
8
BLACK
6
CONTINUOUS
10
-2.9557633464566928
20
-5.8552626377952759
11
-2.9557633464566928
21
-5.8608869291338586
0
LINE
8
BLACK
6
CONTINUOUS
10
-2.9557633464566928
20
-5.824329015748031
11
-2.9529511811023621
21
-5.8271411417322829
0
LINE
8
BLACK
6
CONTINUOUS
10
-2.9529511811023621
20
-5.8271411417322829
11
-2.9557633464566928
21
-5.8299533070866136
0
LINE
8
BLACK
6
CONTINUOUS
10
-2.9557633464566928
20
-5.8299533070866136
11
-2.9585754724409448
21
-5.8271411417322829
0
LINE
8
BLACK
6
CONTINUOUS
10
-2.9585754724409448
20
-5.8271411417322829
11
-2.9557633464566928
21
-5.824329015748031
0
LINE
8
BLACK
6
CONTINUOUS
10
-2.9557633464566928
20
-5.824329015748031
11
-2.9557633464566928
21
-5.8299533070866136
0
LINE
8
BLACK
6
CONTINUOUS
10
-2.4703346456692912
20
-6.16851968503937
11
-2.4703346456692912
21
-6.2866299212598422
0
LINE
8
BLACK
6
CONTINUOUS
10
0.0493503937007874
20
-6.16851968503937
11
0.0493503937007874
21
-6.4244251968503931
0
LINE
8
BLACK
6
CONTINUOUS
10
-3.072795275590551
20
-0.0994094488188976
11
-2.5216141732283464
21
-0.0994094488188976
0
LINE
8
BLACK
6
CONTINUOUS
10
-2.5216141732283464
20
-0.0994094488188976
11
-2.5216141732283464
21
-0.6505905511811023
0
LINE
8
BLACK
6
CONTINUOUS
10
-2.5216141732283464
20
-0.6505905511811023
11
-3.072795275590551
21
-0.6505905511811023
0
LINE
8
BLACK
6
CONTINUOUS
10
-3.072795275590551
20
-0.6505905511811023
11
-3.072795275590551
21
-0.0994094488188976
0
LINE
8
BLACK
6
CONTINUOUS
10
-7.9477952755905514
20
-1.5994094488188977
11
-7.3966141732283459
21
-1.5994094488188977
0
LINE
8
BLACK
6
CONTINUOUS
10
-7.3966141732283459
20
-1.5994094488188977
11
-7.3966141732283459
21
-2.1505905511811023
0
LINE
8
BLACK
6
CONTINUOUS
10
-7.3966141732283459
20
-2.1505905511811023
11
-7.9477952755905514
21
-2.1505905511811023
0
LINE
8
BLACK
6
CONTINUOUS
10
-7.9477952755905514
20
-2.1505905511811023
11
-7.9477952755905514
21
-1.5994094488188977
0
LINE
8
BLACK
6
CONTINUOUS
10
-3.822795275590551
20
-0.0994094488188976
11
-3.2716141732283464
21
-0.0994094488188976
0
LINE
8
BLACK
6
CONTINUOUS
10
-3.2716141732283464
20
-0.0994094488188976
11
-3.2716141732283464
21
-0.6505905511811023
0
LINE
8
BLACK
6
CONTINUOUS
10
-3.2716141732283464
20
-0.6505905511811023
11
-3.822795275590551
21
-0.6505905511811023
0
LINE
8
BLACK
6
CONTINUOUS
10
-3.822795275590551
20
-0.6505905511811023
11
-3.822795275590551
21
-0.0994094488188976
0
LINE
8
BLACK
6
CONTINUOUS
10
-1.5727952755905512
20
-3.8494094488188977
11
-1.0216141732283464
21
-3.8494094488188977
0
LINE
8
BLACK
6
CONTINUOUS
10
-1.0216141732283464
20
-3.8494094488188977
11
-1.0216141732283464
21
-4.4005905511811019
0
LINE
8
BLACK
6
CONTINUOUS
10
-1.0216141732283464
20
-4.4005905511811019
11
-1.5727952755905512
21
-4.4005905511811019
0
LINE
8
BLACK
6
CONTINUOUS
10
-1.5727952755905512
20
-4.4005905511811019
11
-1.5727952755905512
21
-3.8494094488188977
0
LINE
8
BLACK
6
CONTINUOUS
10
-8.1352952755905505
20
-3.0994094488188977
11
-7.5841141732283459
21
-3.0994094488188977
0
LINE
8
BLACK
6
CONTINUOUS
10
-7.5841141732283459
20
-3.0994094488188977
11
-7.5841141732283459
21
-3.6505905511811023
0
LINE
8
BLACK
6
CONTINUOUS
10
-7.5841141732283459
20
-3.6505905511811023
11
-8.1352952755905505
21
-3.6505905511811023
0
LINE
8
BLACK
6
CONTINUOUS
10
-8.1352952755905505
20
-3.6505905511811023
11
-8.1352952755905505
21
-3.0994094488188977
0
LINE
8
BLACK
6
CONTINUOUS
10
-7.5727952755905514
20
-0.0994094488188976
11
-7.0216141732283459
21
-0.0994094488188976
0
LINE
8
BLACK
6
CONTINUOUS
10
-7.0216141732283459
20
-0.0994094488188976
11
-7.0216141732283459
21
-0.6505905511811023
0
LINE
8
BLACK
6
CONTINUOUS
10
-7.0216141732283459
20
-0.6505905511811023
11
-7.5727952755905514
21
-0.6505905511811023
0
LINE
8
BLACK
6
CONTINUOUS
10
-7.5727952755905514
20
-0.6505905511811023
11
-7.5727952755905514
21
-0.0994094488188976
0
LINE
8
BLACK
6
CONTINUOUS
10
-7.0102952755905514
20
-2.3494094488188977
11
-6.4591141732283459
21
-2.3494094488188977
0
LINE
8
BLACK
6
CONTINUOUS
10
-6.4591141732283459
20
-2.3494094488188977
11
-6.4591141732283459
21
-2.9005905511811023
0
LINE
8
BLACK
6
CONTINUOUS
10
-6.4591141732283459
20
-2.9005905511811023
11
-7.0102952755905514
21
-2.9005905511811023
0
LINE
8
BLACK
6
CONTINUOUS
10
-7.0102952755905514
20
-2.9005905511811023
11
-7.0102952755905514
21
-2.3494094488188977
0
LINE
8
BLACK
6
CONTINUOUS
10
-2.510295275590551
20
-1.5994094488188977
11
-1.9591141732283464
21
-1.5994094488188977
0
LINE
8
BLACK
6
CONTINUOUS
10
-1.9591141732283464
20
-1.5994094488188977
11
-1.9591141732283464
21
-2.1505905511811023
0
LINE
8
BLACK
6
CONTINUOUS
10
-1.9591141732283464
20
-2.1505905511811023
11
-2.510295275590551
21
-2.1505905511811023
0
LINE
8
BLACK
6
CONTINUOUS
10
-2.510295275590551
20
-2.1505905511811023
11
-2.510295275590551
21
-1.5994094488188977
0
LINE
8
BLACK
6
CONTINUOUS
10
-5.6977952755905514
20
-1.5994094488188977
11
-5.1466141732283459
21
-1.5994094488188977
0
LINE
8
BLACK
6
CONTINUOUS
10
-5.1466141732283459
20
-1.5994094488188977
11
-5.1466141732283459
21
-2.1505905511811023
0
LINE
8
BLACK
6
CONTINUOUS
10
-5.1466141732283459
20
-2.1505905511811023
11
-5.6977952755905514
21
-2.1505905511811023
0
LINE
8
BLACK
6
CONTINUOUS
10
-5.6977952755905514
20
-2.1505905511811023
11
-5.6977952755905514
21
-1.5994094488188977
0
LINE
8
BLACK
6
CONTINUOUS
10
-1.5727952755905512
20
-0.0994094488188976
11
-1.0216141732283464
21
-0.0994094488188976
0
LINE
8
BLACK
6
CONTINUOUS
10
-1.0216141732283464
20
-0.0994094488188976
11
-1.0216141732283464
21
-0.6505905511811023
0
LINE
8
BLACK
6
CONTINUOUS
10
-1.0216141732283464
20
-0.6505905511811023
11
-1.5727952755905512
21
-0.6505905511811023
0
LINE
8
BLACK
6
CONTINUOUS
10
-1.5727952755905512
20
-0.6505905511811023
11
-1.5727952755905512
21
-0.0994094488188976
0
LINE
8
BLACK
6
CONTINUOUS
10
-4.5727952755905514
20
-0.8494094488188976
11
-4.0216141732283468
21
-0.8494094488188976
0
LINE
8
BLACK
6
CONTINUOUS
10
-4.0216141732283468
20
-0.8494094488188976
11
-4.0216141732283468
21
-1.4005905511811023
0
LINE
8
BLACK
6
CONTINUOUS
10
-4.0216141732283468
20
-1.4005905511811023
11
-4.5727952755905514
21
-1.4005905511811023
0
LINE
8
BLACK
6
CONTINUOUS
10
-4.5727952755905514
20
-1.4005905511811023
11
-4.5727952755905514
21
-0.8494094488188976
0
LINE
8
BLACK
6
CONTINUOUS
10
-6.4477952755905514
20
-1.5994094488188977
11
-5.8966141732283459
21
-1.5994094488188977
0
LINE
8
BLACK
6
CONTINUOUS
10
-5.8966141732283459
20
-1.5994094488188977
11
-5.8966141732283459
21
-2.1505905511811023
0
LINE
8
BLACK
6
CONTINUOUS
10
-5.8966141732283459
20
-2.1505905511811023
11
-6.4477952755905514
21
-2.1505905511811023
0
LINE
8
BLACK
6
CONTINUOUS
10
-6.4477952755905514
20
-2.1505905511811023
11
-6.4477952755905514
21
-1.5994094488188977
0
LINE
8
BLACK
6
CONTINUOUS
10
-6.6352952755905514
20
-3.0994094488188977
11
-6.0841141732283459
21
-3.0994094488188977
0
LINE
8
BLACK
6
CONTINUOUS
10
-6.0841141732283459
20
-3.0994094488188977
11
-6.0841141732283459
21
-3.6505905511811023
0
LINE
8
BLACK
6
CONTINUOUS
10
-6.0841141732283459
20
-3.6505905511811023
11
-6.6352952755905514
21
-3.6505905511811023
0
LINE
8
BLACK
6
CONTINUOUS
10
-6.6352952755905514
20
-3.6505905511811023
11
-6.6352952755905514
21
-3.0994094488188977
0
LINE
8
BLACK
6
CONTINUOUS
10
-6.8227952755905514
20
-0.8494094488188976
11
-6.2716141732283459
21
-0.8494094488188976
0
LINE
8
BLACK
6
CONTINUOUS
10
-6.2716141732283459
20
-0.8494094488188976
11
-6.2716141732283459
21
-1.4005905511811023
0
LINE
8
BLACK
6
CONTINUOUS
10
-6.2716141732283459
20
-1.4005905511811023
11
-6.8227952755905514
21
-1.4005905511811023
0
LINE
8
BLACK
6
CONTINUOUS
10
-6.8227952755905514
20
-1.4005905511811023
11
-6.8227952755905514
21
-0.8494094488188976
0
LINE
8
BLACK
6
CONTINUOUS
10
-7.1977952755905514
20
-1.5994094488188977
11
-6.6466141732283459
21
-1.5994094488188977
0
LINE
8
BLACK
6
CONTINUOUS
10
-6.6466141732283459
20
-1.5994094488188977
11
-6.6466141732283459
21
-2.1505905511811023
0
LINE
8
BLACK
6
CONTINUOUS
10
-6.6466141732283459
20
-2.1505905511811023
11
-7.1977952755905514
21
-2.1505905511811023
0
LINE
8
BLACK
6
CONTINUOUS
10
-7.1977952755905514
20
-2.1505905511811023
11
-7.1977952755905514
21
-1.5994094488188977
0
LINE
8
BLACK
6
CONTINUOUS
10
-4.3852952755905514
20
-3.0994094488188977
11
-3.8341141732283464
21
-3.0994094488188977
0
LINE
8
BLACK
6
CONTINUOUS
10
-3.8341141732283464
20
-3.0994094488188977
11
-3.8341141732283464
21
-3.6505905511811023
0
LINE
8
BLACK
6
CONTINUOUS
10
-3.8341141732283464
20
-3.6505905511811023
11
-4.3852952755905514
21
-3.6505905511811023
0
LINE
8
BLACK
6
CONTINUOUS
10
-4.3852952755905514
20
-3.6505905511811023
11
-4.3852952755905514
21
-3.0994094488188977
0
LINE
8
BLACK
6
CONTINUOUS
10
-3.354045275590551
20
-3.0994094488188977
11
-2.8028641732283464
21
-3.0994094488188977
0
LINE
8
BLACK
6
CONTINUOUS
10
-2.8028641732283464
20
-3.0994094488188977
11
-2.8028641732283464
21
-3.6505905511811023
0
LINE
8
BLACK
6
CONTINUOUS
10
-2.8028641732283464
20
-3.6505905511811023
11
-3.354045275590551
21
-3.6505905511811023
0
LINE
8
BLACK
6
CONTINUOUS
10
-3.354045275590551
20
-3.6505905511811023
11
-3.354045275590551
21
-3.0994094488188977
0
LINE
8
BLACK
6
CONTINUOUS
10
-6.0727952755905514
20
-0.0994094488188976
11
-5.5216141732283459
21
-0.0994094488188976
0
LINE
8
BLACK
6
CONTINUOUS
10
-5.5216141732283459
20
-0.0994094488188976
11
-5.5216141732283459
21
-0.6505905511811023
0
LINE
8
BLACK
6
CONTINUOUS
10
-5.5216141732283459
20
-0.6505905511811023
11
-6.0727952755905514
21
-0.6505905511811023
0
LINE
8
BLACK
6
CONTINUOUS
10
-6.0727952755905514
20
-0.6505905511811023
11
-6.0727952755905514
21
-0.0994094488188976
0
LINE
8
BLACK
6
CONTINUOUS
10
-3.822795275590551
20
-0.8494094488188976
11
-3.2716141732283464
21
-0.8494094488188976
0
LINE
8
BLACK
6
CONTINUOUS
10
-3.2716141732283464
20
-0.8494094488188976
11
-3.2716141732283464
21
-1.4005905511811023
0
LINE
8
BLACK
6
CONTINUOUS
10
-3.2716141732283464
20
-1.4005905511811023
11
-3.822795275590551
21
-1.4005905511811023
0
LINE
8
BLACK
6
CONTINUOUS
10
-3.822795275590551
20
-1.4005905511811023
11
-3.822795275590551
21
-0.8494094488188976
0
LINE
8
BLACK
6
CONTINUOUS
10
-8.3227952755905505
20
-0.8494094488188976
11
-7.7716141732283459
21
-0.8494094488188976
0
LINE
8
BLACK
6
CONTINUOUS
10
-7.7716141732283459
20
-0.8494094488188976
11
-7.7716141732283459
21
-1.4005905511811023
0
LINE
8
BLACK
6
CONTINUOUS
10
-7.7716141732283459
20
-1.4005905511811023
11
-8.3227952755905505
21
-1.4005905511811023
0
LINE
8
BLACK
6
CONTINUOUS
10
-8.3227952755905505
20
-1.4005905511811023
11
-8.3227952755905505
21
-0.8494094488188976
0
LINE
8
BLACK
6
CONTINUOUS
10
-5.5102952755905514
20
-3.8494094488188977
11
-4.9591141732283459
21
-3.8494094488188977
0
LINE
8
BLACK
6
CONTINUOUS
10
-4.9591141732283459
20
-3.8494094488188977
11
-4.9591141732283459
21
-4.4005905511811019
0
LINE
8
BLACK
6
CONTINUOUS
10
-4.9591141732283459
20
-4.4005905511811019
11
-5.5102952755905514
21
-4.4005905511811019
0
LINE
8
BLACK
6
CONTINUOUS
10
-5.5102952755905514
20
-4.4005905511811019
11
-5.5102952755905514
21
-3.8494094488188977
0
LINE
8
BLACK
6
CONTINUOUS
10
-5.3227952755905514
20
-0.8494094488188976
11
-4.7716141732283459
21
-0.8494094488188976
0
LINE
8
BLACK
6
CONTINUOUS
10
-4.7716141732283459
20
-0.8494094488188976
11
-4.7716141732283459
21
-1.4005905511811023
0
LINE
8
BLACK
6
CONTINUOUS
10
-4.7716141732283459
20
-1.4005905511811023
11
-5.3227952755905514
21
-1.4005905511811023
0
LINE
8
BLACK
6
CONTINUOUS
10
-5.3227952755905514
20
-1.4005905511811023
11
-5.3227952755905514
21
-0.8494094488188976
0
LINE
8
BLACK
6
CONTINUOUS
10
-3.447795275590551
20
-1.5994094488188977
11
-2.8966141732283464
21
-1.5994094488188977
0
LINE
8
BLACK
6
CONTINUOUS
10
-2.8966141732283464
20
-1.5994094488188977
11
-2.8966141732283464
21
-2.1505905511811023
0
LINE
8
BLACK
6
CONTINUOUS
10
-2.8966141732283464
20
-2.1505905511811023
11
-3.447795275590551
21
-2.1505905511811023
0
LINE
8
BLACK
6
CONTINUOUS
10
-3.447795275590551
20
-2.1505905511811023
11
-3.447795275590551
21
-1.5994094488188977
0
LINE
8
BLACK
6
CONTINUOUS
10
-4.9477952755905514
20
-1.5994094488188977
11
-4.3966141732283468
21
-1.5994094488188977
0
LINE
8
BLACK
6
CONTINUOUS
10
-4.3966141732283468
20
-1.5994094488188977
11
-4.3966141732283468
21
-2.1505905511811023
0
LINE
8
BLACK
6
CONTINUOUS
10
-4.3966141732283468
20
-2.1505905511811023
11
-4.9477952755905514
21
-2.1505905511811023
0
LINE
8
BLACK
6
CONTINUOUS
10
-4.9477952755905514
20
-2.1505905511811023
11
-4.9477952755905514
21
-1.5994094488188977
0
LINE
8
BLACK
6
CONTINUOUS
10
-7.3852952755905514
20
-3.8494094488188977
11
-6.8341141732283459
21
-3.8494094488188977
0
LINE
8
BLACK
6
CONTINUOUS
10
-6.8341141732283459
20
-3.8494094488188977
11
-6.8341141732283459
21
-4.4005905511811019
0
LINE
8
BLACK
6
CONTINUOUS
10
-6.8341141732283459
20
-4.4005905511811019
11
-7.3852952755905514
21
-4.4005905511811019
0
LINE
8
BLACK
6
CONTINUOUS
10
-7.3852952755905514
20
-4.4005905511811019
11
-7.3852952755905514
21
-3.8494094488188977
0
LINE
8
BLACK
6
CONTINUOUS
10
-1.5727952755905512
20
-3.0994094488188977
11
-1.0216141732283464
21
-3.0994094488188977
0
LINE
8
BLACK
6
CONTINUOUS
10
-1.0216141732283464
20
-3.0994094488188977
11
-1.0216141732283464
21
-3.6505905511811023
0
LINE
8
BLACK
6
CONTINUOUS
10
-1.0216141732283464
20
-3.6505905511811023
11
-1.5727952755905512
21
-3.6505905511811023
0
LINE
8
BLACK
6
CONTINUOUS
10
-1.5727952755905512
20
-3.6505905511811023
11
-1.5727952755905512
21
-3.0994094488188977
0
LINE
8
BLACK
6
CONTINUOUS
10
-2.322795275590551
20
-0.0994094488188976
11
-1.7716141732283464
21
-0.0994094488188976
0
LINE
8
BLACK
6
CONTINUOUS
10
-1.7716141732283464
20
-0.0994094488188976
11
-1.7716141732283464
21
-0.6505905511811023
0
LINE
8
BLACK
6
CONTINUOUS
10
-1.7716141732283464
20
-0.6505905511811023
11
-2.322795275590551
21
-0.6505905511811023
0
LINE
8
BLACK
6
CONTINUOUS
10
-2.322795275590551
20
-0.6505905511811023
11
-2.322795275590551
21
-0.0994094488188976
0
LINE
8
BLACK
6
CONTINUOUS
10
-2.322795275590551
20
-3.0994094488188977
11
-1.7716141732283464
21
-3.0994094488188977
0
LINE
8
BLACK
6
CONTINUOUS
10
-1.7716141732283464
20
-3.0994094488188977
11
-1.7716141732283464
21
-3.6505905511811023
0
LINE
8
BLACK
6
CONTINUOUS
10
-1.7716141732283464
20
-3.6505905511811023
11
-2.322795275590551
21
-3.6505905511811023
0
LINE
8
BLACK
6
CONTINUOUS
10
-2.322795275590551
20
-3.6505905511811023
11
-2.322795275590551
21
-3.0994094488188977
0
LINE
8
BLACK
6
CONTINUOUS
10
-1.5727952755905512
20
-1.5994094488188977
11
-1.0216141732283464
21
-1.5994094488188977
0
LINE
8
BLACK
6
CONTINUOUS
10
-1.0216141732283464
20
-1.5994094488188977
11
-1.0216141732283464
21
-2.1505905511811023
0
LINE
8
BLACK
6
CONTINUOUS
10
-1.0216141732283464
20
-2.1505905511811023
11
-1.5727952755905512
21
-2.1505905511811023
0
LINE
8
BLACK
6
CONTINUOUS
10
-1.5727952755905512
20
-2.1505905511811023
11
-1.5727952755905512
21
-1.5994094488188977
0
LINE
8
BLACK
6
CONTINUOUS
10
-6.2602952755905514
20
-3.8494094488188977
11
-5.7091141732283459
21
-3.8494094488188977
0
LINE
8
BLACK
6
CONTINUOUS
10
-5.7091141732283459
20
-3.8494094488188977
11
-5.7091141732283459
21
-4.4005905511811019
0
LINE
8
BLACK
6
CONTINUOUS
10
-5.7091141732283459
20
-4.4005905511811019
11
-6.2602952755905514
21
-4.4005905511811019
0
LINE
8
BLACK
6
CONTINUOUS
10
-6.2602952755905514
20
-4.4005905511811019
11
-6.2602952755905514
21
-3.8494094488188977
0
LINE
8
BLACK
6
CONTINUOUS
10
-5.5102952755905514
20
-2.3494094488188977
11
-4.9591141732283459
21
-2.3494094488188977
0
LINE
8
BLACK
6
CONTINUOUS
10
-4.9591141732283459
20
-2.3494094488188977
11
-4.9591141732283459
21
-2.9005905511811023
0
LINE
8
BLACK
6
CONTINUOUS
10
-4.9591141732283459
20
-2.9005905511811023
11
-5.5102952755905514
21
-2.9005905511811023
0
LINE
8
BLACK
6
CONTINUOUS
10
-5.5102952755905514
20
-2.9005905511811023
11
-5.5102952755905514
21
-2.3494094488188977
0
LINE
8
BLACK
6
CONTINUOUS
10
-2.697795275590551
20
-0.8494094488188976
11
-2.1466141732283464
21
-0.8494094488188976
0
LINE
8
BLACK
6
CONTINUOUS
10
-2.1466141732283464
20
-0.8494094488188976
11
-2.1466141732283464
21
-1.4005905511811023
0
LINE
8
BLACK
6
CONTINUOUS
10
-2.1466141732283464
20
-1.4005905511811023
11
-2.697795275590551
21
-1.4005905511811023
0
LINE
8
BLACK
6
CONTINUOUS
10
-2.697795275590551
20
-1.4005905511811023
11
-2.697795275590551
21
-0.8494094488188976
0
LINE
8
BLACK
6
CONTINUOUS
10
-3.072795275590551
20
-3.8494094488188977
11
-2.5216141732283464
21
-3.8494094488188977
0
LINE
8
BLACK
6
CONTINUOUS
10
-2.5216141732283464
20
-3.8494094488188977
11
-2.5216141732283464
21
-4.4005905511811019
0
LINE
8
BLACK
6
CONTINUOUS
10
-2.5216141732283464
20
-4.4005905511811019
11
-3.072795275590551
21
-4.4005905511811019
0
LINE
8
BLACK
6
CONTINUOUS
10
-3.072795275590551
20
-4.4005905511811019
11
-3.072795275590551
21
-3.8494094488188977
0
LINE
8
BLACK
6
CONTINUOUS
10
-4.7602952755905514
20
-3.8494094488188977
11
-4.2091141732283468
21
-3.8494094488188977
0
LINE
8
BLACK
6
CONTINUOUS
10
-4.2091141732283468
20
-3.8494094488188977
11
-4.2091141732283468
21
-4.4005905511811019
0
LINE
8
BLACK
6
CONTINUOUS
10
-4.2091141732283468
20
-4.4005905511811019
11
-4.7602952755905514
21
-4.4005905511811019
0
LINE
8
BLACK
6
CONTINUOUS
10
-4.7602952755905514
20
-4.4005905511811019
11
-4.7602952755905514
21
-3.8494094488188977
0
LINE
8
BLACK
6
CONTINUOUS
10
-6.0727952755905514
20
-0.8494094488188976
11
-5.5216141732283459
21
-0.8494094488188976
0
LINE
8
BLACK
6
CONTINUOUS
10
-5.5216141732283459
20
-0.8494094488188976
11
-5.5216141732283459
21
-1.4005905511811023
0
LINE
8
BLACK
6
CONTINUOUS
10
-5.5216141732283459
20
-1.4005905511811023
11
-6.0727952755905514
21
-1.4005905511811023
0
LINE
8
BLACK
6
CONTINUOUS
10
-6.0727952755905514
20
-1.4005905511811023
11
-6.0727952755905514
21
-0.8494094488188976
0
LINE
8
BLACK
6
CONTINUOUS
10
-6.8227952755905514
20
-0.0994094488188976
11
-6.2716141732283459
21
-0.0994094488188976
0
LINE
8
BLACK
6
CONTINUOUS
10
-6.2716141732283459
20
-0.0994094488188976
11
-6.2716141732283459
21
-0.6505905511811023
0
LINE
8
BLACK
6
CONTINUOUS
10
-6.2716141732283459
20
-0.6505905511811023
11
-6.8227952755905514
21
-0.6505905511811023
0
LINE
8
BLACK
6
CONTINUOUS
10
-6.8227952755905514
20
-0.6505905511811023
11
-6.8227952755905514
21
-0.0994094488188976
0
LINE
8
BLACK
6
CONTINUOUS
10
-6.2602952755905514
20
-2.3494094488188977
11
-5.7091141732283459
21
-2.3494094488188977
0
LINE
8
BLACK
6
CONTINUOUS
10
-5.7091141732283459
20
-2.3494094488188977
11
-5.7091141732283459
21
-2.9005905511811023
0
LINE
8
BLACK
6
CONTINUOUS
10
-5.7091141732283459
20
-2.9005905511811023
11
-6.2602952755905514
21
-2.9005905511811023
0
LINE
8
BLACK
6
CONTINUOUS
10
-6.2602952755905514
20
-2.9005905511811023
11
-6.2602952755905514
21
-2.3494094488188977
0
LINE
8
BLACK
6
CONTINUOUS
10
-8.3227952755905505
20
-0.0994094488188976
11
-7.7716141732283459
21
-0.0994094488188976
0
LINE
8
BLACK
6
CONTINUOUS
10
-7.7716141732283459
20
-0.0994094488188976
11
-7.7716141732283459
21
-0.6505905511811023
0
LINE
8
BLACK
6
CONTINUOUS
10
-7.7716141732283459
20
-0.6505905511811023
11
-8.3227952755905505
21
-0.6505905511811023
0
LINE
8
BLACK
6
CONTINUOUS
10
-8.3227952755905505
20
-0.6505905511811023
11
-8.3227952755905505
21
-0.0994094488188976
0
LINE
8
BLACK
6
CONTINUOUS
10
-4.1977952755905514
20
-1.5994094488188977
11
-3.6466141732283464
21
-1.5994094488188977
0
LINE
8
BLACK
6
CONTINUOUS
10
-3.6466141732283464
20
-1.5994094488188977
11
-3.6466141732283464
21
-2.1505905511811023
0
LINE
8
BLACK
6
CONTINUOUS
10
-3.6466141732283464
20
-2.1505905511811023
11
-4.1977952755905514
21
-2.1505905511811023
0
LINE
8
BLACK
6
CONTINUOUS
10
-4.1977952755905514
20
-2.1505905511811023
11
-4.1977952755905514
21
-1.5994094488188977
0
LINE
8
BLACK
6
CONTINUOUS
10
-1.5727952755905512
20
-0.8494094488188976
11
-1.0216141732283464
21
-0.8494094488188976
0
LINE
8
BLACK
6
CONTINUOUS
10
-1.0216141732283464
20
-0.8494094488188976
11
-1.0216141732283464
21
-1.4005905511811023
0
LINE
8
BLACK
6
CONTINUOUS
10
-1.0216141732283464
20
-1.4005905511811023
11
-1.5727952755905512
21
-1.4005905511811023
0
LINE
8
BLACK
6
CONTINUOUS
10
-1.5727952755905512
20
-1.4005905511811023
11
-1.5727952755905512
21
-0.8494094488188976
0
LINE
8
BLACK
6
CONTINUOUS
10
-4.0102952755905514
20
-2.3494094488188977
11
-3.4591141732283464
21
-2.3494094488188977
0
LINE
8
BLACK
6
CONTINUOUS
10
-3.4591141732283464
20
-2.3494094488188977
11
-3.4591141732283464
21
-2.9005905511811023
0
LINE
8
BLACK
6
CONTINUOUS
10
-3.4591141732283464
20
-2.9005905511811023
11
-4.0102952755905514
21
-2.9005905511811023
0
LINE
8
BLACK
6
CONTINUOUS
10
-4.0102952755905514
20
-2.9005905511811023
11
-4.0102952755905514
21
-2.3494094488188977
0
LINE
8
BLACK
6
CONTINUOUS
10
-4.7602952755905514
20
-2.3494094488188977
11
-4.2091141732283468
21
-2.3494094488188977
0
LINE
8
BLACK
6
CONTINUOUS
10
-4.2091141732283468
20
-2.3494094488188977
11
-4.2091141732283468
21
-2.9005905511811023
0
LINE
8
BLACK
6
CONTINUOUS
10
-4.2091141732283468
20
-2.9005905511811023
11
-4.7602952755905514
21
-2.9005905511811023
0
LINE
8
BLACK
6
CONTINUOUS
10
-4.7602952755905514
20
-2.9005905511811023
11
-4.7602952755905514
21
-2.3494094488188977
0
LINE
8
BLACK
6
CONTINUOUS
10
-7.5727952755905514
20
-0.8494094488188976
11
-7.0216141732283459
21
-0.8494094488188976
0
LINE
8
BLACK
6
CONTINUOUS
10
-7.0216141732283459
20
-0.8494094488188976
11
-7.0216141732283459
21
-1.4005905511811023
0
LINE
8
BLACK
6
CONTINUOUS
10
-7.0216141732283459
20
-1.4005905511811023
11
-7.5727952755905514
21
-1.4005905511811023
0
LINE
8
BLACK
6
CONTINUOUS
10
-7.5727952755905514
20
-1.4005905511811023
11
-7.5727952755905514
21
-0.8494094488188976
0
LINE
8
BLACK
6
CONTINUOUS
10
-4.5727952755905514
20
-0.0994094488188976
11
-4.0216141732283468
21
-0.0994094488188976
0
LINE
8
BLACK
6
CONTINUOUS
10
-4.0216141732283468
20
-0.0994094488188976
11
-4.0216141732283468
21
-0.6505905511811023
0
LINE
8
BLACK
6
CONTINUOUS
10
-4.0216141732283468
20
-0.6505905511811023
11
-4.5727952755905514
21
-0.6505905511811023
0
LINE
8
BLACK
6
CONTINUOUS
10
-4.5727952755905514
20
-0.6505905511811023
11
-4.5727952755905514
21
-0.0994094488188976
0
LINE
8
BLACK
6
CONTINUOUS
10
-2.322795275590551
20
-3.8494094488188977
11
-1.7716141732283464
21
-3.8494094488188977
0
LINE
8
BLACK
6
CONTINUOUS
10
-1.7716141732283464
20
-3.8494094488188977
11
-1.7716141732283464
21
-4.4005905511811019
0
LINE
8
BLACK
6
CONTINUOUS
10
-1.7716141732283464
20
-4.4005905511811019
11
-2.322795275590551
21
-4.4005905511811019
0
LINE
8
BLACK
6
CONTINUOUS
10
-2.322795275590551
20
-4.4005905511811019
11
-2.322795275590551
21
-3.8494094488188977
0
LINE
8
BLACK
6
CONTINUOUS
10
-3.916545275590551
20
-3.8494094488188977
11
-3.3653641732283464
21
-3.8494094488188977
0
LINE
8
BLACK
6
CONTINUOUS
10
-3.3653641732283464
20
-3.8494094488188977
11
-3.3653641732283464
21
-4.4005905511811019
0
LINE
8
BLACK
6
CONTINUOUS
10
-3.3653641732283464
20
-4.4005905511811019
11
-3.916545275590551
21
-4.4005905511811019
0
LINE
8
BLACK
6
CONTINUOUS
10
-3.916545275590551
20
-4.4005905511811019
11
-3.916545275590551
21
-3.8494094488188977
0
LINE
8
BLACK
6
CONTINUOUS
10
-1.5727952755905512
20
-2.3494094488188977
11
-1.0216141732283464
21
-2.3494094488188977
0
LINE
8
BLACK
6
CONTINUOUS
10
-1.0216141732283464
20
-2.3494094488188977
11
-1.0216141732283464
21
-2.9005905511811023
0
LINE
8
BLACK
6
CONTINUOUS
10
-1.0216141732283464
20
-2.9005905511811023
11
-1.5727952755905512
21
-2.9005905511811023
0
LINE
8
BLACK
6
CONTINUOUS
10
-1.5727952755905512
20
-2.9005905511811023
11
-1.5727952755905512
21
-2.3494094488188977
0
LINE
8
BLACK
6
CONTINUOUS
10
-5.3227952755905514
20
-0.0994094488188976
11
-4.7716141732283459
21
-0.0994094488188976
0
LINE
8
BLACK
6
CONTINUOUS
10
-4.7716141732283459
20
-0.0994094488188976
11
-4.7716141732283459
21
-0.6505905511811023
0
LINE
8
BLACK
6
CONTINUOUS
10
-4.7716141732283459
20
-0.6505905511811023
11
-5.3227952755905514
21
-0.6505905511811023
0
LINE
8
BLACK
6
CONTINUOUS
10
-5.3227952755905514
20
-0.6505905511811023
11
-5.3227952755905514
21
-0.0994094488188976
0
LINE
8
BLACK
6
CONTINUOUS
10
-7.3852952755905514
20
-3.0994094488188977
11
-6.8341141732283459
21
-3.0994094488188977
0
LINE
8
BLACK
6
CONTINUOUS
10
-6.8341141732283459
20
-3.0994094488188977
11
-6.8341141732283459
21
-3.6505905511811023
0
LINE
8
BLACK
6
CONTINUOUS
10
-6.8341141732283459
20
-3.6505905511811023
11
-7.3852952755905514
21
-3.6505905511811023
0
LINE
8
BLACK
6
CONTINUOUS
10
-7.3852952755905514
20
-3.6505905511811023
11
-7.3852952755905514
21
-3.0994094488188977
0
LINE
8
BLACK
6
CONTINUOUS
10
-5.1352952755905514
20
-3.0994094488188977
11
-4.5841141732283459
21
-3.0994094488188977
0
LINE
8
BLACK
6
CONTINUOUS
10
-4.5841141732283459
20
-3.0994094488188977
11
-4.5841141732283459
21
-3.6505905511811023
0
LINE
8
BLACK
6
CONTINUOUS
10
-4.5841141732283459
20
-3.6505905511811023
11
-5.1352952755905514
21
-3.6505905511811023
0
LINE
8
BLACK
6
CONTINUOUS
10
-5.1352952755905514
20
-3.6505905511811023
11
-5.1352952755905514
21
-3.0994094488188977
0
LINE
8
BLACK
6
CONTINUOUS
10
-7.7602952755905514
20
-2.3494094488188977
11
-7.2091141732283459
21
-2.3494094488188977
0
LINE
8
BLACK
6
CONTINUOUS
10
-7.2091141732283459
20
-2.3494094488188977
11
-7.2091141732283459
21
-2.9005905511811023
0
LINE
8
BLACK
6
CONTINUOUS
10
-7.2091141732283459
20
-2.9005905511811023
11
-7.7602952755905514
21
-2.9005905511811023
0
LINE
8
BLACK
6
CONTINUOUS
10
-7.7602952755905514
20
-2.9005905511811023
11
-7.7602952755905514
21
-2.3494094488188977
0
LINE
8
BLACK
6
CONTINUOUS
10
-5.8852952755905514
20
-3.0994094488188977
11
-5.3341141732283459
21
-3.0994094488188977
0
LINE
8
BLACK
6
CONTINUOUS
10
-5.3341141732283459
20
-3.0994094488188977
11
-5.3341141732283459
21
-3.6505905511811023
0
LINE
8
BLACK
6
CONTINUOUS
10
-5.3341141732283459
20
-3.6505905511811023
11
-5.8852952755905514
21
-3.6505905511811023
0
LINE
8
BLACK
6
CONTINUOUS
10
-5.8852952755905514
20
-3.6505905511811023
11
-5.8852952755905514
21
-3.0994094488188977
0
LINE
8
BLACK
6
CONTINUOUS
10
-2.791545275590551
20
-2.3494094488188977
11
-2.2403641732283464
21
-2.3494094488188977
0
LINE
8
BLACK
6
CONTINUOUS
10
-2.2403641732283464
20
-2.3494094488188977
11
-2.2403641732283464
21
-2.9005905511811023
0
LINE
8
BLACK
6
CONTINUOUS
10
-2.2403641732283464
20
-2.9005905511811023
11
-2.791545275590551
21
-2.9005905511811023
0
LINE
8
BLACK
6
CONTINUOUS
10
-2.791545275590551
20
-2.9005905511811023
11
-2.791545275590551
21
-2.3494094488188977
  0
ENDSEC
  0
EOF
