M48
; DRILL file {KiCad 8.0.6} date 2025-05-11T12:41:10+0900
; FORMAT={-:-/ absolute / inch / decimal}
; #@! TF.CreationDate,2025-05-11T12:41:10+09:00
; #@! TF.GenerationSoftware,Kicad,Pcbnew,8.0.6
; #@! TF.FileFunction,NonPlated,1,2,NPTH
FMAT,2
INCH
; #@! TA.AperFunction,NonPlated,NPTH,ComponentDrill
T1C0.0670
; #@! TA.AperFunction,NonPlated,NPTH,ComponentDrill
T2C0.0866
; #@! TA.AperFunction,NonPlated,NPTH,ComponentDrill
T3C0.1732
%
G90
G05
T2
X-7.6772Y-0.748
X-7.5984Y-4.252
X-2.5787Y-3.5236
X-1.8504Y-1.0433
T3
X-8.0472Y-0.375
X-8.0472Y-1.125
X-7.8597Y-3.375
X-7.6722Y-1.875
X-7.4847Y-2.625
X-7.2972Y-0.375
X-7.2972Y-1.125
X-7.1097Y-3.375
X-7.1097Y-4.125
X-6.9222Y-1.875
X-6.7347Y-2.625
X-6.5472Y-0.375
X-6.5472Y-1.125
X-6.3597Y-3.375
X-6.1722Y-1.875
X-5.9847Y-2.625
X-5.9847Y-4.125
X-5.7972Y-0.375
X-5.7972Y-1.125
X-5.6097Y-3.375
X-5.4222Y-1.875
X-5.2347Y-2.625
X-5.2347Y-4.125
X-5.0472Y-0.375
X-5.0472Y-1.125
X-4.8597Y-3.375
X-4.6722Y-1.875
X-4.4847Y-2.625
X-4.4847Y-4.125
X-4.2972Y-0.375
X-4.2972Y-1.125
X-4.1097Y-3.375
X-3.9222Y-1.875
X-3.7347Y-2.625
X-3.641Y-4.125
X-3.5472Y-0.375
X-3.5472Y-1.125
X-3.1722Y-1.875
X-3.0785Y-3.375
X-2.7972Y-0.375
X-2.7972Y-4.125
X-2.516Y-2.625
X-2.4222Y-1.125
X-2.2347Y-1.875
X-2.0472Y-0.375
X-2.0472Y-3.375
X-2.0472Y-4.125
X-1.2972Y-0.375
X-1.2972Y-1.125
X-1.2972Y-1.875
X-1.2972Y-2.625
X-1.2972Y-3.375
X-1.2972Y-4.125
T1
G00X-8.2472Y-0.375
M15
G01X-8.2637Y-0.375
M16
G05
G00X-8.2472Y-1.125
M15
G01X-8.2637Y-1.125
M16
G05
G00X-8.0597Y-3.375
M15
G01X-8.0762Y-3.375
M16
G05
G00X-7.8722Y-1.875
M15
G01X-7.8887Y-1.875
M16
G05
G00X-7.8307Y-0.375
M15
G01X-7.8472Y-0.375
M16
G05
G00X-7.8307Y-1.125
M15
G01X-7.8472Y-1.125
M16
G05
G00X-7.6847Y-2.625
M15
G01X-7.7012Y-2.625
M16
G05
G00X-7.6432Y-3.375
M15
G01X-7.6597Y-3.375
M16
G05
G00X-7.4972Y-0.375
M15
G01X-7.5137Y-0.375
M16
G05
G00X-7.4972Y-1.125
M15
G01X-7.5137Y-1.125
M16
G05
G00X-7.4557Y-1.875
M15
G01X-7.4722Y-1.875
M16
G05
G00X-7.3097Y-3.375
M15
G01X-7.3262Y-3.375
M16
G05
G00X-7.3097Y-4.125
M15
G01X-7.3262Y-4.125
M16
G05
G00X-7.2682Y-2.625
M15
G01X-7.2847Y-2.625
M16
G05
G00X-7.1222Y-1.875
M15
G01X-7.1387Y-1.875
M16
G05
G00X-7.0807Y-0.375
M15
G01X-7.0972Y-0.375
M16
G05
G00X-7.0807Y-1.125
M15
G01X-7.0972Y-1.125
M16
G05
G00X-6.9347Y-2.625
M15
G01X-6.9512Y-2.625
M16
G05
G00X-6.8932Y-3.375
M15
G01X-6.9097Y-3.375
M16
G05
G00X-6.8932Y-4.125
M15
G01X-6.9097Y-4.125
M16
G05
G00X-6.7472Y-0.375
M15
G01X-6.7637Y-0.375
M16
G05
G00X-6.7472Y-1.125
M15
G01X-6.7637Y-1.125
M16
G05
G00X-6.7057Y-1.875
M15
G01X-6.7222Y-1.875
M16
G05
G00X-6.5597Y-3.375
M15
G01X-6.5762Y-3.375
M16
G05
G00X-6.5182Y-2.625
M15
G01X-6.5347Y-2.625
M16
G05
G00X-6.3722Y-1.875
M15
G01X-6.3887Y-1.875
M16
G05
G00X-6.3307Y-0.375
M15
G01X-6.3472Y-0.375
M16
G05
G00X-6.3307Y-1.125
M15
G01X-6.3472Y-1.125
M16
G05
G00X-6.1847Y-2.625
M15
G01X-6.2012Y-2.625
M16
G05
G00X-6.1847Y-4.125
M15
G01X-6.2012Y-4.125
M16
G05
G00X-6.1432Y-3.375
M15
G01X-6.1597Y-3.375
M16
G05
G00X-5.9972Y-0.375
M15
G01X-6.0137Y-0.375
M16
G05
G00X-5.9972Y-1.125
M15
G01X-6.0137Y-1.125
M16
G05
G00X-5.9557Y-1.875
M15
G01X-5.9722Y-1.875
M16
G05
G00X-5.8097Y-3.375
M15
G01X-5.8262Y-3.375
M16
G05
G00X-5.7682Y-2.625
M15
G01X-5.7847Y-2.625
M16
G05
G00X-5.7682Y-4.125
M15
G01X-5.7847Y-4.125
M16
G05
G00X-5.6222Y-1.875
M15
G01X-5.6387Y-1.875
M16
G05
G00X-5.5807Y-0.375
M15
G01X-5.5972Y-0.375
M16
G05
G00X-5.5807Y-1.125
M15
G01X-5.5972Y-1.125
M16
G05
G00X-5.4347Y-2.625
M15
G01X-5.4512Y-2.625
M16
G05
G00X-5.4347Y-4.125
M15
G01X-5.4512Y-4.125
M16
G05
G00X-5.3932Y-3.375
M15
G01X-5.4097Y-3.375
M16
G05
G00X-5.2472Y-0.375
M15
G01X-5.2637Y-0.375
M16
G05
G00X-5.2472Y-1.125
M15
G01X-5.2637Y-1.125
M16
G05
G00X-5.2057Y-1.875
M15
G01X-5.2222Y-1.875
M16
G05
G00X-5.0597Y-3.375
M15
G01X-5.0762Y-3.375
M16
G05
G00X-5.0182Y-2.625
M15
G01X-5.0347Y-2.625
M16
G05
G00X-5.0182Y-4.125
M15
G01X-5.0347Y-4.125
M16
G05
G00X-4.8722Y-1.875
M15
G01X-4.8887Y-1.875
M16
G05
G00X-4.8307Y-0.375
M15
G01X-4.8472Y-0.375
M16
G05
G00X-4.8307Y-1.125
M15
G01X-4.8472Y-1.125
M16
G05
G00X-4.6847Y-2.625
M15
G01X-4.7012Y-2.625
M16
G05
G00X-4.6847Y-4.125
M15
G01X-4.7012Y-4.125
M16
G05
G00X-4.6432Y-3.375
M15
G01X-4.6597Y-3.375
M16
G05
G00X-4.4972Y-0.375
M15
G01X-4.5137Y-0.375
M16
G05
G00X-4.4972Y-1.125
M15
G01X-4.5137Y-1.125
M16
G05
G00X-4.4557Y-1.875
M15
G01X-4.4722Y-1.875
M16
G05
G00X-4.3097Y-3.375
M15
G01X-4.3262Y-3.375
M16
G05
G00X-4.2682Y-2.625
M15
G01X-4.2847Y-2.625
M16
G05
G00X-4.2682Y-4.125
M15
G01X-4.2847Y-4.125
M16
G05
G00X-4.1222Y-1.875
M15
G01X-4.1387Y-1.875
M16
G05
G00X-4.0807Y-0.375
M15
G01X-4.0972Y-0.375
M16
G05
G00X-4.0807Y-1.125
M15
G01X-4.0972Y-1.125
M16
G05
G00X-3.9347Y-2.625
M15
G01X-3.9512Y-2.625
M16
G05
G00X-3.8932Y-3.375
M15
G01X-3.9097Y-3.375
M16
G05
G00X-3.841Y-4.125
M15
G01X-3.8575Y-4.125
M16
G05
G00X-3.7472Y-0.375
M15
G01X-3.7637Y-0.375
M16
G05
G00X-3.7472Y-1.125
M15
G01X-3.7637Y-1.125
M16
G05
G00X-3.7057Y-1.875
M15
G01X-3.7222Y-1.875
M16
G05
G00X-3.5182Y-2.625
M15
G01X-3.5347Y-2.625
M16
G05
G00X-3.4244Y-4.125
M15
G01X-3.441Y-4.125
M16
G05
G00X-3.3722Y-1.875
M15
G01X-3.3887Y-1.875
M16
G05
G00X-3.3307Y-0.375
M15
G01X-3.3472Y-0.375
M16
G05
G00X-3.3307Y-1.125
M15
G01X-3.3472Y-1.125
M16
G05
G00X-3.2785Y-3.375
M15
G01X-3.295Y-3.375
M16
G05
G00X-2.9972Y-0.375
M15
G01X-3.0137Y-0.375
M16
G05
G00X-2.9972Y-4.125
M15
G01X-3.0137Y-4.125
M16
G05
G00X-2.9557Y-1.875
M15
G01X-2.9722Y-1.875
M16
G05
G00X-2.8619Y-3.375
M15
G01X-2.8785Y-3.375
M16
G05
G00X-2.716Y-2.625
M15
G01X-2.7325Y-2.625
M16
G05
G00X-2.6222Y-1.125
M15
G01X-2.6387Y-1.125
M16
G05
G00X-2.5807Y-0.375
M15
G01X-2.5972Y-0.375
M16
G05
G00X-2.5807Y-4.125
M15
G01X-2.5972Y-4.125
M16
G05
G00X-2.4347Y-1.875
M15
G01X-2.4512Y-1.875
M16
G05
G00X-2.2994Y-2.625
M15
G01X-2.316Y-2.625
M16
G05
G00X-2.2472Y-0.375
M15
G01X-2.2637Y-0.375
M16
G05
G00X-2.2472Y-3.375
M15
G01X-2.2637Y-3.375
M16
G05
G00X-2.2472Y-4.125
M15
G01X-2.2637Y-4.125
M16
G05
G00X-2.2057Y-1.125
M15
G01X-2.2222Y-1.125
M16
G05
G00X-2.0182Y-1.875
M15
G01X-2.0347Y-1.875
M16
G05
G00X-1.8307Y-0.375
M15
G01X-1.8472Y-0.375
M16
G05
G00X-1.8307Y-3.375
M15
G01X-1.8472Y-3.375
M16
G05
G00X-1.8307Y-4.125
M15
G01X-1.8472Y-4.125
M16
G05
G00X-1.4972Y-0.375
M15
G01X-1.5137Y-0.375
M16
G05
G00X-1.4972Y-1.125
M15
G01X-1.5137Y-1.125
M16
G05
G00X-1.4972Y-1.875
M15
G01X-1.5137Y-1.875
M16
G05
G00X-1.4972Y-2.625
M15
G01X-1.5137Y-2.625
M16
G05
G00X-1.4972Y-3.375
M15
G01X-1.5137Y-3.375
M16
G05
G00X-1.4972Y-4.125
M15
G01X-1.5137Y-4.125
M16
G05
G00X-1.0807Y-0.375
M15
G01X-1.0972Y-0.375
M16
G05
G00X-1.0807Y-1.125
M15
G01X-1.0972Y-1.125
M16
G05
G00X-1.0807Y-1.875
M15
G01X-1.0972Y-1.875
M16
G05
G00X-1.0807Y-2.625
M15
G01X-1.0972Y-2.625
M16
G05
G00X-1.0807Y-3.375
M15
G01X-1.0972Y-3.375
M16
G05
G00X-1.0807Y-4.125
M15
G01X-1.0972Y-4.125
M16
G05
M30
