%TF.GenerationSoftware,KiCad,Pcbnew,8.0.6*%
%TF.CreationDate,2025-05-11T12:41:04+09:00*%
%TF.ProjectId,65_split_right,36355f73-706c-4697-945f-72696768742e,rev?*%
%TF.SameCoordinates,PXf7b735cPY2136a30*%
%TF.FileFunction,Legend,Bot*%
%TF.FilePolarity,Positive*%
%FSLAX46Y46*%
G04 Gerber Fmt 4.6, Leading zero omitted, Abs format (unit mm)*
G04 Created by KiCad (PCBNEW 8.0.6) date 2025-05-11 12:41:04*
%MOMM*%
%LPD*%
G01*
G04 APERTURE LIST*
%ADD10C,0.100000*%
%ADD11C,0.150000*%
%ADD12C,0.300000*%
%ADD13C,0.400000*%
%ADD14C,0.200000*%
%ADD15C,0.120000*%
%ADD16C,0.500000*%
G04 APERTURE END LIST*
D10*
D11*
X-82746500Y-131180400D02*
X25253500Y-131180400D01*
X25253500Y-163180400D01*
X-82746500Y-163180400D01*
X-82746500Y-131180400D01*
D10*
D11*
X-249748700Y24826800D02*
X27253500Y24826800D01*
X27253500Y-165180400D01*
X-249748700Y-165180400D01*
X-249748700Y24826800D01*
D10*
D11*
X-247748700Y22826800D02*
X25253500Y22826800D01*
X25253500Y-163180400D01*
X-247748700Y-163180400D01*
X-247748700Y22826800D01*
D10*
D11*
X-199748700Y22826800D02*
X-199748700Y24826800D01*
D10*
D11*
X-149748700Y22826800D02*
X-149748700Y24826800D01*
D10*
D11*
X-99748700Y22826800D02*
X-99748700Y24826800D01*
D10*
D11*
X-49748700Y22826800D02*
X-49748700Y24826800D01*
D10*
D11*
X251300Y22826800D02*
X251300Y24826800D01*
D10*
D11*
X-223659540Y23233196D02*
X-224402397Y23233196D01*
X-224030969Y23233196D02*
X-224030969Y24533196D01*
X-224030969Y24533196D02*
X-224154778Y24347481D01*
X-224154778Y24347481D02*
X-224278588Y24223672D01*
X-224278588Y24223672D02*
X-224402397Y24161767D01*
D10*
D11*
X-174402397Y24409386D02*
X-174340493Y24471291D01*
X-174340493Y24471291D02*
X-174216683Y24533196D01*
X-174216683Y24533196D02*
X-173907159Y24533196D01*
X-173907159Y24533196D02*
X-173783350Y24471291D01*
X-173783350Y24471291D02*
X-173721445Y24409386D01*
X-173721445Y24409386D02*
X-173659540Y24285577D01*
X-173659540Y24285577D02*
X-173659540Y24161767D01*
X-173659540Y24161767D02*
X-173721445Y23976053D01*
X-173721445Y23976053D02*
X-174464302Y23233196D01*
X-174464302Y23233196D02*
X-173659540Y23233196D01*
D10*
D11*
X-124464302Y24533196D02*
X-123659540Y24533196D01*
X-123659540Y24533196D02*
X-124092874Y24037958D01*
X-124092874Y24037958D02*
X-123907159Y24037958D01*
X-123907159Y24037958D02*
X-123783350Y23976053D01*
X-123783350Y23976053D02*
X-123721445Y23914148D01*
X-123721445Y23914148D02*
X-123659540Y23790339D01*
X-123659540Y23790339D02*
X-123659540Y23480815D01*
X-123659540Y23480815D02*
X-123721445Y23357005D01*
X-123721445Y23357005D02*
X-123783350Y23295100D01*
X-123783350Y23295100D02*
X-123907159Y23233196D01*
X-123907159Y23233196D02*
X-124278588Y23233196D01*
X-124278588Y23233196D02*
X-124402397Y23295100D01*
X-124402397Y23295100D02*
X-124464302Y23357005D01*
D10*
D11*
X-73783350Y24099862D02*
X-73783350Y23233196D01*
X-74092874Y24595100D02*
X-74402397Y23666529D01*
X-74402397Y23666529D02*
X-73597636Y23666529D01*
D10*
D11*
X-23721445Y24533196D02*
X-24340493Y24533196D01*
X-24340493Y24533196D02*
X-24402397Y23914148D01*
X-24402397Y23914148D02*
X-24340493Y23976053D01*
X-24340493Y23976053D02*
X-24216683Y24037958D01*
X-24216683Y24037958D02*
X-23907159Y24037958D01*
X-23907159Y24037958D02*
X-23783350Y23976053D01*
X-23783350Y23976053D02*
X-23721445Y23914148D01*
X-23721445Y23914148D02*
X-23659540Y23790339D01*
X-23659540Y23790339D02*
X-23659540Y23480815D01*
X-23659540Y23480815D02*
X-23721445Y23357005D01*
X-23721445Y23357005D02*
X-23783350Y23295100D01*
X-23783350Y23295100D02*
X-23907159Y23233196D01*
X-23907159Y23233196D02*
X-24216683Y23233196D01*
X-24216683Y23233196D02*
X-24340493Y23295100D01*
X-24340493Y23295100D02*
X-24402397Y23357005D01*
D10*
D11*
X26216650Y24533196D02*
X25969031Y24533196D01*
X25969031Y24533196D02*
X25845222Y24471291D01*
X25845222Y24471291D02*
X25783317Y24409386D01*
X25783317Y24409386D02*
X25659507Y24223672D01*
X25659507Y24223672D02*
X25597603Y23976053D01*
X25597603Y23976053D02*
X25597603Y23480815D01*
X25597603Y23480815D02*
X25659507Y23357005D01*
X25659507Y23357005D02*
X25721412Y23295100D01*
X25721412Y23295100D02*
X25845222Y23233196D01*
X25845222Y23233196D02*
X26092841Y23233196D01*
X26092841Y23233196D02*
X26216650Y23295100D01*
X26216650Y23295100D02*
X26278555Y23357005D01*
X26278555Y23357005D02*
X26340460Y23480815D01*
X26340460Y23480815D02*
X26340460Y23790339D01*
X26340460Y23790339D02*
X26278555Y23914148D01*
X26278555Y23914148D02*
X26216650Y23976053D01*
X26216650Y23976053D02*
X26092841Y24037958D01*
X26092841Y24037958D02*
X25845222Y24037958D01*
X25845222Y24037958D02*
X25721412Y23976053D01*
X25721412Y23976053D02*
X25659507Y23914148D01*
X25659507Y23914148D02*
X25597603Y23790339D01*
D10*
D11*
X-199748700Y-163180400D02*
X-199748700Y-165180400D01*
D10*
D11*
X-149748700Y-163180400D02*
X-149748700Y-165180400D01*
D10*
D11*
X-99748700Y-163180400D02*
X-99748700Y-165180400D01*
D10*
D11*
X-49748700Y-163180400D02*
X-49748700Y-165180400D01*
D10*
D11*
X251300Y-163180400D02*
X251300Y-165180400D01*
D10*
D11*
X-223659540Y-164774004D02*
X-224402397Y-164774004D01*
X-224030969Y-164774004D02*
X-224030969Y-163474004D01*
X-224030969Y-163474004D02*
X-224154778Y-163659719D01*
X-224154778Y-163659719D02*
X-224278588Y-163783528D01*
X-224278588Y-163783528D02*
X-224402397Y-163845433D01*
D10*
D11*
X-174402397Y-163597814D02*
X-174340493Y-163535909D01*
X-174340493Y-163535909D02*
X-174216683Y-163474004D01*
X-174216683Y-163474004D02*
X-173907159Y-163474004D01*
X-173907159Y-163474004D02*
X-173783350Y-163535909D01*
X-173783350Y-163535909D02*
X-173721445Y-163597814D01*
X-173721445Y-163597814D02*
X-173659540Y-163721623D01*
X-173659540Y-163721623D02*
X-173659540Y-163845433D01*
X-173659540Y-163845433D02*
X-173721445Y-164031147D01*
X-173721445Y-164031147D02*
X-174464302Y-164774004D01*
X-174464302Y-164774004D02*
X-173659540Y-164774004D01*
D10*
D11*
X-124464302Y-163474004D02*
X-123659540Y-163474004D01*
X-123659540Y-163474004D02*
X-124092874Y-163969242D01*
X-124092874Y-163969242D02*
X-123907159Y-163969242D01*
X-123907159Y-163969242D02*
X-123783350Y-164031147D01*
X-123783350Y-164031147D02*
X-123721445Y-164093052D01*
X-123721445Y-164093052D02*
X-123659540Y-164216861D01*
X-123659540Y-164216861D02*
X-123659540Y-164526385D01*
X-123659540Y-164526385D02*
X-123721445Y-164650195D01*
X-123721445Y-164650195D02*
X-123783350Y-164712100D01*
X-123783350Y-164712100D02*
X-123907159Y-164774004D01*
X-123907159Y-164774004D02*
X-124278588Y-164774004D01*
X-124278588Y-164774004D02*
X-124402397Y-164712100D01*
X-124402397Y-164712100D02*
X-124464302Y-164650195D01*
D10*
D11*
X-73783350Y-163907338D02*
X-73783350Y-164774004D01*
X-74092874Y-163412100D02*
X-74402397Y-164340671D01*
X-74402397Y-164340671D02*
X-73597636Y-164340671D01*
D10*
D11*
X-23721445Y-163474004D02*
X-24340493Y-163474004D01*
X-24340493Y-163474004D02*
X-24402397Y-164093052D01*
X-24402397Y-164093052D02*
X-24340493Y-164031147D01*
X-24340493Y-164031147D02*
X-24216683Y-163969242D01*
X-24216683Y-163969242D02*
X-23907159Y-163969242D01*
X-23907159Y-163969242D02*
X-23783350Y-164031147D01*
X-23783350Y-164031147D02*
X-23721445Y-164093052D01*
X-23721445Y-164093052D02*
X-23659540Y-164216861D01*
X-23659540Y-164216861D02*
X-23659540Y-164526385D01*
X-23659540Y-164526385D02*
X-23721445Y-164650195D01*
X-23721445Y-164650195D02*
X-23783350Y-164712100D01*
X-23783350Y-164712100D02*
X-23907159Y-164774004D01*
X-23907159Y-164774004D02*
X-24216683Y-164774004D01*
X-24216683Y-164774004D02*
X-24340493Y-164712100D01*
X-24340493Y-164712100D02*
X-24402397Y-164650195D01*
D10*
D11*
X26216650Y-163474004D02*
X25969031Y-163474004D01*
X25969031Y-163474004D02*
X25845222Y-163535909D01*
X25845222Y-163535909D02*
X25783317Y-163597814D01*
X25783317Y-163597814D02*
X25659507Y-163783528D01*
X25659507Y-163783528D02*
X25597603Y-164031147D01*
X25597603Y-164031147D02*
X25597603Y-164526385D01*
X25597603Y-164526385D02*
X25659507Y-164650195D01*
X25659507Y-164650195D02*
X25721412Y-164712100D01*
X25721412Y-164712100D02*
X25845222Y-164774004D01*
X25845222Y-164774004D02*
X26092841Y-164774004D01*
X26092841Y-164774004D02*
X26216650Y-164712100D01*
X26216650Y-164712100D02*
X26278555Y-164650195D01*
X26278555Y-164650195D02*
X26340460Y-164526385D01*
X26340460Y-164526385D02*
X26340460Y-164216861D01*
X26340460Y-164216861D02*
X26278555Y-164093052D01*
X26278555Y-164093052D02*
X26216650Y-164031147D01*
X26216650Y-164031147D02*
X26092841Y-163969242D01*
X26092841Y-163969242D02*
X25845222Y-163969242D01*
X25845222Y-163969242D02*
X25721412Y-164031147D01*
X25721412Y-164031147D02*
X25659507Y-164093052D01*
X25659507Y-164093052D02*
X25597603Y-164216861D01*
D10*
D11*
X-249748700Y-25173200D02*
X-247748700Y-25173200D01*
D10*
D11*
X-249748700Y-75173200D02*
X-247748700Y-75173200D01*
D10*
D11*
X-249748700Y-125173200D02*
X-247748700Y-125173200D01*
D10*
D11*
X-249058224Y-395376D02*
X-248439177Y-395376D01*
X-249182034Y-766804D02*
X-248748701Y533196D01*
X-248748701Y533196D02*
X-248315367Y-766804D01*
D10*
D11*
X-248655843Y-50085852D02*
X-248470129Y-50147757D01*
X-248470129Y-50147757D02*
X-248408224Y-50209661D01*
X-248408224Y-50209661D02*
X-248346320Y-50333471D01*
X-248346320Y-50333471D02*
X-248346320Y-50519185D01*
X-248346320Y-50519185D02*
X-248408224Y-50642995D01*
X-248408224Y-50642995D02*
X-248470129Y-50704900D01*
X-248470129Y-50704900D02*
X-248593939Y-50766804D01*
X-248593939Y-50766804D02*
X-249089177Y-50766804D01*
X-249089177Y-50766804D02*
X-249089177Y-49466804D01*
X-249089177Y-49466804D02*
X-248655843Y-49466804D01*
X-248655843Y-49466804D02*
X-248532034Y-49528709D01*
X-248532034Y-49528709D02*
X-248470129Y-49590614D01*
X-248470129Y-49590614D02*
X-248408224Y-49714423D01*
X-248408224Y-49714423D02*
X-248408224Y-49838233D01*
X-248408224Y-49838233D02*
X-248470129Y-49962042D01*
X-248470129Y-49962042D02*
X-248532034Y-50023947D01*
X-248532034Y-50023947D02*
X-248655843Y-50085852D01*
X-248655843Y-50085852D02*
X-249089177Y-50085852D01*
D10*
D11*
X-248346320Y-100642995D02*
X-248408224Y-100704900D01*
X-248408224Y-100704900D02*
X-248593939Y-100766804D01*
X-248593939Y-100766804D02*
X-248717748Y-100766804D01*
X-248717748Y-100766804D02*
X-248903462Y-100704900D01*
X-248903462Y-100704900D02*
X-249027272Y-100581090D01*
X-249027272Y-100581090D02*
X-249089177Y-100457280D01*
X-249089177Y-100457280D02*
X-249151081Y-100209661D01*
X-249151081Y-100209661D02*
X-249151081Y-100023947D01*
X-249151081Y-100023947D02*
X-249089177Y-99776328D01*
X-249089177Y-99776328D02*
X-249027272Y-99652519D01*
X-249027272Y-99652519D02*
X-248903462Y-99528709D01*
X-248903462Y-99528709D02*
X-248717748Y-99466804D01*
X-248717748Y-99466804D02*
X-248593939Y-99466804D01*
X-248593939Y-99466804D02*
X-248408224Y-99528709D01*
X-248408224Y-99528709D02*
X-248346320Y-99590614D01*
D10*
D11*
X-249089177Y-150766804D02*
X-249089177Y-149466804D01*
X-249089177Y-149466804D02*
X-248779653Y-149466804D01*
X-248779653Y-149466804D02*
X-248593939Y-149528709D01*
X-248593939Y-149528709D02*
X-248470129Y-149652519D01*
X-248470129Y-149652519D02*
X-248408224Y-149776328D01*
X-248408224Y-149776328D02*
X-248346320Y-150023947D01*
X-248346320Y-150023947D02*
X-248346320Y-150209661D01*
X-248346320Y-150209661D02*
X-248408224Y-150457280D01*
X-248408224Y-150457280D02*
X-248470129Y-150581090D01*
X-248470129Y-150581090D02*
X-248593939Y-150704900D01*
X-248593939Y-150704900D02*
X-248779653Y-150766804D01*
X-248779653Y-150766804D02*
X-249089177Y-150766804D01*
D10*
D11*
X27253500Y-25173200D02*
X25253500Y-25173200D01*
D10*
D11*
X27253500Y-75173200D02*
X25253500Y-75173200D01*
D10*
D11*
X27253500Y-125173200D02*
X25253500Y-125173200D01*
D10*
D11*
X25943976Y-395376D02*
X26563023Y-395376D01*
X25820166Y-766804D02*
X26253499Y533196D01*
X26253499Y533196D02*
X26686833Y-766804D01*
D10*
D11*
X26346357Y-50085852D02*
X26532071Y-50147757D01*
X26532071Y-50147757D02*
X26593976Y-50209661D01*
X26593976Y-50209661D02*
X26655880Y-50333471D01*
X26655880Y-50333471D02*
X26655880Y-50519185D01*
X26655880Y-50519185D02*
X26593976Y-50642995D01*
X26593976Y-50642995D02*
X26532071Y-50704900D01*
X26532071Y-50704900D02*
X26408261Y-50766804D01*
X26408261Y-50766804D02*
X25913023Y-50766804D01*
X25913023Y-50766804D02*
X25913023Y-49466804D01*
X25913023Y-49466804D02*
X26346357Y-49466804D01*
X26346357Y-49466804D02*
X26470166Y-49528709D01*
X26470166Y-49528709D02*
X26532071Y-49590614D01*
X26532071Y-49590614D02*
X26593976Y-49714423D01*
X26593976Y-49714423D02*
X26593976Y-49838233D01*
X26593976Y-49838233D02*
X26532071Y-49962042D01*
X26532071Y-49962042D02*
X26470166Y-50023947D01*
X26470166Y-50023947D02*
X26346357Y-50085852D01*
X26346357Y-50085852D02*
X25913023Y-50085852D01*
D10*
D11*
X26655880Y-100642995D02*
X26593976Y-100704900D01*
X26593976Y-100704900D02*
X26408261Y-100766804D01*
X26408261Y-100766804D02*
X26284452Y-100766804D01*
X26284452Y-100766804D02*
X26098738Y-100704900D01*
X26098738Y-100704900D02*
X25974928Y-100581090D01*
X25974928Y-100581090D02*
X25913023Y-100457280D01*
X25913023Y-100457280D02*
X25851119Y-100209661D01*
X25851119Y-100209661D02*
X25851119Y-100023947D01*
X25851119Y-100023947D02*
X25913023Y-99776328D01*
X25913023Y-99776328D02*
X25974928Y-99652519D01*
X25974928Y-99652519D02*
X26098738Y-99528709D01*
X26098738Y-99528709D02*
X26284452Y-99466804D01*
X26284452Y-99466804D02*
X26408261Y-99466804D01*
X26408261Y-99466804D02*
X26593976Y-99528709D01*
X26593976Y-99528709D02*
X26655880Y-99590614D01*
D10*
D11*
X25913023Y-150766804D02*
X25913023Y-149466804D01*
X25913023Y-149466804D02*
X26222547Y-149466804D01*
X26222547Y-149466804D02*
X26408261Y-149528709D01*
X26408261Y-149528709D02*
X26532071Y-149652519D01*
X26532071Y-149652519D02*
X26593976Y-149776328D01*
X26593976Y-149776328D02*
X26655880Y-150023947D01*
X26655880Y-150023947D02*
X26655880Y-150209661D01*
X26655880Y-150209661D02*
X26593976Y-150457280D01*
X26593976Y-150457280D02*
X26532071Y-150581090D01*
X26532071Y-150581090D02*
X26408261Y-150704900D01*
X26408261Y-150704900D02*
X26222547Y-150766804D01*
X26222547Y-150766804D02*
X25913023Y-150766804D01*
D10*
D11*
X-59290674Y-158966528D02*
X-59290674Y-157466528D01*
X-59290674Y-157466528D02*
X-58933531Y-157466528D01*
X-58933531Y-157466528D02*
X-58719245Y-157537957D01*
X-58719245Y-157537957D02*
X-58576388Y-157680814D01*
X-58576388Y-157680814D02*
X-58504959Y-157823671D01*
X-58504959Y-157823671D02*
X-58433531Y-158109385D01*
X-58433531Y-158109385D02*
X-58433531Y-158323671D01*
X-58433531Y-158323671D02*
X-58504959Y-158609385D01*
X-58504959Y-158609385D02*
X-58576388Y-158752242D01*
X-58576388Y-158752242D02*
X-58719245Y-158895100D01*
X-58719245Y-158895100D02*
X-58933531Y-158966528D01*
X-58933531Y-158966528D02*
X-59290674Y-158966528D01*
X-57147816Y-158966528D02*
X-57147816Y-158180814D01*
X-57147816Y-158180814D02*
X-57219245Y-158037957D01*
X-57219245Y-158037957D02*
X-57362102Y-157966528D01*
X-57362102Y-157966528D02*
X-57647816Y-157966528D01*
X-57647816Y-157966528D02*
X-57790674Y-158037957D01*
X-57147816Y-158895100D02*
X-57290674Y-158966528D01*
X-57290674Y-158966528D02*
X-57647816Y-158966528D01*
X-57647816Y-158966528D02*
X-57790674Y-158895100D01*
X-57790674Y-158895100D02*
X-57862102Y-158752242D01*
X-57862102Y-158752242D02*
X-57862102Y-158609385D01*
X-57862102Y-158609385D02*
X-57790674Y-158466528D01*
X-57790674Y-158466528D02*
X-57647816Y-158395100D01*
X-57647816Y-158395100D02*
X-57290674Y-158395100D01*
X-57290674Y-158395100D02*
X-57147816Y-158323671D01*
X-56647816Y-157966528D02*
X-56076388Y-157966528D01*
X-56433531Y-157466528D02*
X-56433531Y-158752242D01*
X-56433531Y-158752242D02*
X-56362102Y-158895100D01*
X-56362102Y-158895100D02*
X-56219245Y-158966528D01*
X-56219245Y-158966528D02*
X-56076388Y-158966528D01*
X-55004959Y-158895100D02*
X-55147816Y-158966528D01*
X-55147816Y-158966528D02*
X-55433530Y-158966528D01*
X-55433530Y-158966528D02*
X-55576388Y-158895100D01*
X-55576388Y-158895100D02*
X-55647816Y-158752242D01*
X-55647816Y-158752242D02*
X-55647816Y-158180814D01*
X-55647816Y-158180814D02*
X-55576388Y-158037957D01*
X-55576388Y-158037957D02*
X-55433530Y-157966528D01*
X-55433530Y-157966528D02*
X-55147816Y-157966528D01*
X-55147816Y-157966528D02*
X-55004959Y-158037957D01*
X-55004959Y-158037957D02*
X-54933530Y-158180814D01*
X-54933530Y-158180814D02*
X-54933530Y-158323671D01*
X-54933530Y-158323671D02*
X-55647816Y-158466528D01*
X-54290674Y-158823671D02*
X-54219245Y-158895100D01*
X-54219245Y-158895100D02*
X-54290674Y-158966528D01*
X-54290674Y-158966528D02*
X-54362102Y-158895100D01*
X-54362102Y-158895100D02*
X-54290674Y-158823671D01*
X-54290674Y-158823671D02*
X-54290674Y-158966528D01*
X-54290674Y-158037957D02*
X-54219245Y-158109385D01*
X-54219245Y-158109385D02*
X-54290674Y-158180814D01*
X-54290674Y-158180814D02*
X-54362102Y-158109385D01*
X-54362102Y-158109385D02*
X-54290674Y-158037957D01*
X-54290674Y-158037957D02*
X-54290674Y-158180814D01*
D10*
D11*
X-82746500Y-159680400D02*
X25253500Y-159680400D01*
D10*
D11*
X-81290674Y-161766528D02*
X-81290674Y-160266528D01*
X-80433531Y-161766528D02*
X-81076388Y-160909385D01*
X-80433531Y-160266528D02*
X-81290674Y-161123671D01*
X-79790674Y-161766528D02*
X-79790674Y-160766528D01*
X-79790674Y-160266528D02*
X-79862102Y-160337957D01*
X-79862102Y-160337957D02*
X-79790674Y-160409385D01*
X-79790674Y-160409385D02*
X-79719245Y-160337957D01*
X-79719245Y-160337957D02*
X-79790674Y-160266528D01*
X-79790674Y-160266528D02*
X-79790674Y-160409385D01*
X-78219245Y-161623671D02*
X-78290673Y-161695100D01*
X-78290673Y-161695100D02*
X-78504959Y-161766528D01*
X-78504959Y-161766528D02*
X-78647816Y-161766528D01*
X-78647816Y-161766528D02*
X-78862102Y-161695100D01*
X-78862102Y-161695100D02*
X-79004959Y-161552242D01*
X-79004959Y-161552242D02*
X-79076388Y-161409385D01*
X-79076388Y-161409385D02*
X-79147816Y-161123671D01*
X-79147816Y-161123671D02*
X-79147816Y-160909385D01*
X-79147816Y-160909385D02*
X-79076388Y-160623671D01*
X-79076388Y-160623671D02*
X-79004959Y-160480814D01*
X-79004959Y-160480814D02*
X-78862102Y-160337957D01*
X-78862102Y-160337957D02*
X-78647816Y-160266528D01*
X-78647816Y-160266528D02*
X-78504959Y-160266528D01*
X-78504959Y-160266528D02*
X-78290673Y-160337957D01*
X-78290673Y-160337957D02*
X-78219245Y-160409385D01*
X-76933530Y-161766528D02*
X-76933530Y-160980814D01*
X-76933530Y-160980814D02*
X-77004959Y-160837957D01*
X-77004959Y-160837957D02*
X-77147816Y-160766528D01*
X-77147816Y-160766528D02*
X-77433530Y-160766528D01*
X-77433530Y-160766528D02*
X-77576388Y-160837957D01*
X-76933530Y-161695100D02*
X-77076388Y-161766528D01*
X-77076388Y-161766528D02*
X-77433530Y-161766528D01*
X-77433530Y-161766528D02*
X-77576388Y-161695100D01*
X-77576388Y-161695100D02*
X-77647816Y-161552242D01*
X-77647816Y-161552242D02*
X-77647816Y-161409385D01*
X-77647816Y-161409385D02*
X-77576388Y-161266528D01*
X-77576388Y-161266528D02*
X-77433530Y-161195100D01*
X-77433530Y-161195100D02*
X-77076388Y-161195100D01*
X-77076388Y-161195100D02*
X-76933530Y-161123671D01*
X-75576387Y-161766528D02*
X-75576387Y-160266528D01*
X-75576387Y-161695100D02*
X-75719245Y-161766528D01*
X-75719245Y-161766528D02*
X-76004959Y-161766528D01*
X-76004959Y-161766528D02*
X-76147816Y-161695100D01*
X-76147816Y-161695100D02*
X-76219245Y-161623671D01*
X-76219245Y-161623671D02*
X-76290673Y-161480814D01*
X-76290673Y-161480814D02*
X-76290673Y-161052242D01*
X-76290673Y-161052242D02*
X-76219245Y-160909385D01*
X-76219245Y-160909385D02*
X-76147816Y-160837957D01*
X-76147816Y-160837957D02*
X-76004959Y-160766528D01*
X-76004959Y-160766528D02*
X-75719245Y-160766528D01*
X-75719245Y-160766528D02*
X-75576387Y-160837957D01*
X-73719245Y-160980814D02*
X-73219245Y-160980814D01*
X-73004959Y-161766528D02*
X-73719245Y-161766528D01*
X-73719245Y-161766528D02*
X-73719245Y-160266528D01*
X-73719245Y-160266528D02*
X-73004959Y-160266528D01*
X-72362102Y-161623671D02*
X-72290673Y-161695100D01*
X-72290673Y-161695100D02*
X-72362102Y-161766528D01*
X-72362102Y-161766528D02*
X-72433530Y-161695100D01*
X-72433530Y-161695100D02*
X-72362102Y-161623671D01*
X-72362102Y-161623671D02*
X-72362102Y-161766528D01*
X-71647816Y-161766528D02*
X-71647816Y-160266528D01*
X-71647816Y-160266528D02*
X-71290673Y-160266528D01*
X-71290673Y-160266528D02*
X-71076387Y-160337957D01*
X-71076387Y-160337957D02*
X-70933530Y-160480814D01*
X-70933530Y-160480814D02*
X-70862101Y-160623671D01*
X-70862101Y-160623671D02*
X-70790673Y-160909385D01*
X-70790673Y-160909385D02*
X-70790673Y-161123671D01*
X-70790673Y-161123671D02*
X-70862101Y-161409385D01*
X-70862101Y-161409385D02*
X-70933530Y-161552242D01*
X-70933530Y-161552242D02*
X-71076387Y-161695100D01*
X-71076387Y-161695100D02*
X-71290673Y-161766528D01*
X-71290673Y-161766528D02*
X-71647816Y-161766528D01*
X-70147816Y-161623671D02*
X-70076387Y-161695100D01*
X-70076387Y-161695100D02*
X-70147816Y-161766528D01*
X-70147816Y-161766528D02*
X-70219244Y-161695100D01*
X-70219244Y-161695100D02*
X-70147816Y-161623671D01*
X-70147816Y-161623671D02*
X-70147816Y-161766528D01*
X-69504958Y-161337957D02*
X-68790672Y-161337957D01*
X-69647815Y-161766528D02*
X-69147815Y-160266528D01*
X-69147815Y-160266528D02*
X-68647815Y-161766528D01*
X-68147816Y-161623671D02*
X-68076387Y-161695100D01*
X-68076387Y-161695100D02*
X-68147816Y-161766528D01*
X-68147816Y-161766528D02*
X-68219244Y-161695100D01*
X-68219244Y-161695100D02*
X-68147816Y-161623671D01*
X-68147816Y-161623671D02*
X-68147816Y-161766528D01*
X-66076387Y-160909385D02*
X-66219244Y-160837957D01*
X-66219244Y-160837957D02*
X-66290673Y-160766528D01*
X-66290673Y-160766528D02*
X-66362101Y-160623671D01*
X-66362101Y-160623671D02*
X-66362101Y-160552242D01*
X-66362101Y-160552242D02*
X-66290673Y-160409385D01*
X-66290673Y-160409385D02*
X-66219244Y-160337957D01*
X-66219244Y-160337957D02*
X-66076387Y-160266528D01*
X-66076387Y-160266528D02*
X-65790673Y-160266528D01*
X-65790673Y-160266528D02*
X-65647815Y-160337957D01*
X-65647815Y-160337957D02*
X-65576387Y-160409385D01*
X-65576387Y-160409385D02*
X-65504958Y-160552242D01*
X-65504958Y-160552242D02*
X-65504958Y-160623671D01*
X-65504958Y-160623671D02*
X-65576387Y-160766528D01*
X-65576387Y-160766528D02*
X-65647815Y-160837957D01*
X-65647815Y-160837957D02*
X-65790673Y-160909385D01*
X-65790673Y-160909385D02*
X-66076387Y-160909385D01*
X-66076387Y-160909385D02*
X-66219244Y-160980814D01*
X-66219244Y-160980814D02*
X-66290673Y-161052242D01*
X-66290673Y-161052242D02*
X-66362101Y-161195100D01*
X-66362101Y-161195100D02*
X-66362101Y-161480814D01*
X-66362101Y-161480814D02*
X-66290673Y-161623671D01*
X-66290673Y-161623671D02*
X-66219244Y-161695100D01*
X-66219244Y-161695100D02*
X-66076387Y-161766528D01*
X-66076387Y-161766528D02*
X-65790673Y-161766528D01*
X-65790673Y-161766528D02*
X-65647815Y-161695100D01*
X-65647815Y-161695100D02*
X-65576387Y-161623671D01*
X-65576387Y-161623671D02*
X-65504958Y-161480814D01*
X-65504958Y-161480814D02*
X-65504958Y-161195100D01*
X-65504958Y-161195100D02*
X-65576387Y-161052242D01*
X-65576387Y-161052242D02*
X-65647815Y-160980814D01*
X-65647815Y-160980814D02*
X-65790673Y-160909385D01*
X-64862102Y-161623671D02*
X-64790673Y-161695100D01*
X-64790673Y-161695100D02*
X-64862102Y-161766528D01*
X-64862102Y-161766528D02*
X-64933530Y-161695100D01*
X-64933530Y-161695100D02*
X-64862102Y-161623671D01*
X-64862102Y-161623671D02*
X-64862102Y-161766528D01*
X-63862101Y-160266528D02*
X-63719244Y-160266528D01*
X-63719244Y-160266528D02*
X-63576387Y-160337957D01*
X-63576387Y-160337957D02*
X-63504958Y-160409385D01*
X-63504958Y-160409385D02*
X-63433530Y-160552242D01*
X-63433530Y-160552242D02*
X-63362101Y-160837957D01*
X-63362101Y-160837957D02*
X-63362101Y-161195100D01*
X-63362101Y-161195100D02*
X-63433530Y-161480814D01*
X-63433530Y-161480814D02*
X-63504958Y-161623671D01*
X-63504958Y-161623671D02*
X-63576387Y-161695100D01*
X-63576387Y-161695100D02*
X-63719244Y-161766528D01*
X-63719244Y-161766528D02*
X-63862101Y-161766528D01*
X-63862101Y-161766528D02*
X-64004958Y-161695100D01*
X-64004958Y-161695100D02*
X-64076387Y-161623671D01*
X-64076387Y-161623671D02*
X-64147816Y-161480814D01*
X-64147816Y-161480814D02*
X-64219244Y-161195100D01*
X-64219244Y-161195100D02*
X-64219244Y-160837957D01*
X-64219244Y-160837957D02*
X-64147816Y-160552242D01*
X-64147816Y-160552242D02*
X-64076387Y-160409385D01*
X-64076387Y-160409385D02*
X-64004958Y-160337957D01*
X-64004958Y-160337957D02*
X-63862101Y-160266528D01*
X-62719245Y-161623671D02*
X-62647816Y-161695100D01*
X-62647816Y-161695100D02*
X-62719245Y-161766528D01*
X-62719245Y-161766528D02*
X-62790673Y-161695100D01*
X-62790673Y-161695100D02*
X-62719245Y-161623671D01*
X-62719245Y-161623671D02*
X-62719245Y-161766528D01*
X-61362101Y-160266528D02*
X-61647816Y-160266528D01*
X-61647816Y-160266528D02*
X-61790673Y-160337957D01*
X-61790673Y-160337957D02*
X-61862101Y-160409385D01*
X-61862101Y-160409385D02*
X-62004959Y-160623671D01*
X-62004959Y-160623671D02*
X-62076387Y-160909385D01*
X-62076387Y-160909385D02*
X-62076387Y-161480814D01*
X-62076387Y-161480814D02*
X-62004959Y-161623671D01*
X-62004959Y-161623671D02*
X-61933530Y-161695100D01*
X-61933530Y-161695100D02*
X-61790673Y-161766528D01*
X-61790673Y-161766528D02*
X-61504959Y-161766528D01*
X-61504959Y-161766528D02*
X-61362101Y-161695100D01*
X-61362101Y-161695100D02*
X-61290673Y-161623671D01*
X-61290673Y-161623671D02*
X-61219244Y-161480814D01*
X-61219244Y-161480814D02*
X-61219244Y-161123671D01*
X-61219244Y-161123671D02*
X-61290673Y-160980814D01*
X-61290673Y-160980814D02*
X-61362101Y-160909385D01*
X-61362101Y-160909385D02*
X-61504959Y-160837957D01*
X-61504959Y-160837957D02*
X-61790673Y-160837957D01*
X-61790673Y-160837957D02*
X-61933530Y-160909385D01*
X-61933530Y-160909385D02*
X-62004959Y-160980814D01*
X-62004959Y-160980814D02*
X-62076387Y-161123671D01*
D10*
D11*
X-82746500Y-156680400D02*
X25253500Y-156680400D01*
D10*
D12*
X4665153Y-158958728D02*
X4165153Y-158244442D01*
X3808010Y-158958728D02*
X3808010Y-157458728D01*
X3808010Y-157458728D02*
X4379439Y-157458728D01*
X4379439Y-157458728D02*
X4522296Y-157530157D01*
X4522296Y-157530157D02*
X4593725Y-157601585D01*
X4593725Y-157601585D02*
X4665153Y-157744442D01*
X4665153Y-157744442D02*
X4665153Y-157958728D01*
X4665153Y-157958728D02*
X4593725Y-158101585D01*
X4593725Y-158101585D02*
X4522296Y-158173014D01*
X4522296Y-158173014D02*
X4379439Y-158244442D01*
X4379439Y-158244442D02*
X3808010Y-158244442D01*
X5879439Y-158887300D02*
X5736582Y-158958728D01*
X5736582Y-158958728D02*
X5450868Y-158958728D01*
X5450868Y-158958728D02*
X5308010Y-158887300D01*
X5308010Y-158887300D02*
X5236582Y-158744442D01*
X5236582Y-158744442D02*
X5236582Y-158173014D01*
X5236582Y-158173014D02*
X5308010Y-158030157D01*
X5308010Y-158030157D02*
X5450868Y-157958728D01*
X5450868Y-157958728D02*
X5736582Y-157958728D01*
X5736582Y-157958728D02*
X5879439Y-158030157D01*
X5879439Y-158030157D02*
X5950868Y-158173014D01*
X5950868Y-158173014D02*
X5950868Y-158315871D01*
X5950868Y-158315871D02*
X5236582Y-158458728D01*
X6450867Y-157958728D02*
X6808010Y-158958728D01*
X6808010Y-158958728D02*
X7165153Y-157958728D01*
X7736581Y-158815871D02*
X7808010Y-158887300D01*
X7808010Y-158887300D02*
X7736581Y-158958728D01*
X7736581Y-158958728D02*
X7665153Y-158887300D01*
X7665153Y-158887300D02*
X7736581Y-158815871D01*
X7736581Y-158815871D02*
X7736581Y-158958728D01*
X7736581Y-158030157D02*
X7808010Y-158101585D01*
X7808010Y-158101585D02*
X7736581Y-158173014D01*
X7736581Y-158173014D02*
X7665153Y-158101585D01*
X7665153Y-158101585D02*
X7736581Y-158030157D01*
X7736581Y-158030157D02*
X7736581Y-158173014D01*
D10*
D11*
X-81362102Y-158895100D02*
X-81147816Y-158966528D01*
X-81147816Y-158966528D02*
X-80790674Y-158966528D01*
X-80790674Y-158966528D02*
X-80647816Y-158895100D01*
X-80647816Y-158895100D02*
X-80576388Y-158823671D01*
X-80576388Y-158823671D02*
X-80504959Y-158680814D01*
X-80504959Y-158680814D02*
X-80504959Y-158537957D01*
X-80504959Y-158537957D02*
X-80576388Y-158395100D01*
X-80576388Y-158395100D02*
X-80647816Y-158323671D01*
X-80647816Y-158323671D02*
X-80790674Y-158252242D01*
X-80790674Y-158252242D02*
X-81076388Y-158180814D01*
X-81076388Y-158180814D02*
X-81219245Y-158109385D01*
X-81219245Y-158109385D02*
X-81290674Y-158037957D01*
X-81290674Y-158037957D02*
X-81362102Y-157895100D01*
X-81362102Y-157895100D02*
X-81362102Y-157752242D01*
X-81362102Y-157752242D02*
X-81290674Y-157609385D01*
X-81290674Y-157609385D02*
X-81219245Y-157537957D01*
X-81219245Y-157537957D02*
X-81076388Y-157466528D01*
X-81076388Y-157466528D02*
X-80719245Y-157466528D01*
X-80719245Y-157466528D02*
X-80504959Y-157537957D01*
X-79862103Y-158966528D02*
X-79862103Y-157966528D01*
X-79862103Y-157466528D02*
X-79933531Y-157537957D01*
X-79933531Y-157537957D02*
X-79862103Y-157609385D01*
X-79862103Y-157609385D02*
X-79790674Y-157537957D01*
X-79790674Y-157537957D02*
X-79862103Y-157466528D01*
X-79862103Y-157466528D02*
X-79862103Y-157609385D01*
X-79290674Y-157966528D02*
X-78504959Y-157966528D01*
X-78504959Y-157966528D02*
X-79290674Y-158966528D01*
X-79290674Y-158966528D02*
X-78504959Y-158966528D01*
X-77362102Y-158895100D02*
X-77504959Y-158966528D01*
X-77504959Y-158966528D02*
X-77790673Y-158966528D01*
X-77790673Y-158966528D02*
X-77933531Y-158895100D01*
X-77933531Y-158895100D02*
X-78004959Y-158752242D01*
X-78004959Y-158752242D02*
X-78004959Y-158180814D01*
X-78004959Y-158180814D02*
X-77933531Y-158037957D01*
X-77933531Y-158037957D02*
X-77790673Y-157966528D01*
X-77790673Y-157966528D02*
X-77504959Y-157966528D01*
X-77504959Y-157966528D02*
X-77362102Y-158037957D01*
X-77362102Y-158037957D02*
X-77290673Y-158180814D01*
X-77290673Y-158180814D02*
X-77290673Y-158323671D01*
X-77290673Y-158323671D02*
X-78004959Y-158466528D01*
X-76647817Y-158823671D02*
X-76576388Y-158895100D01*
X-76576388Y-158895100D02*
X-76647817Y-158966528D01*
X-76647817Y-158966528D02*
X-76719245Y-158895100D01*
X-76719245Y-158895100D02*
X-76647817Y-158823671D01*
X-76647817Y-158823671D02*
X-76647817Y-158966528D01*
X-76647817Y-158037957D02*
X-76576388Y-158109385D01*
X-76576388Y-158109385D02*
X-76647817Y-158180814D01*
X-76647817Y-158180814D02*
X-76719245Y-158109385D01*
X-76719245Y-158109385D02*
X-76647817Y-158037957D01*
X-76647817Y-158037957D02*
X-76647817Y-158180814D01*
X-74862102Y-158537957D02*
X-74147816Y-158537957D01*
X-75004959Y-158966528D02*
X-74504959Y-157466528D01*
X-74504959Y-157466528D02*
X-74004959Y-158966528D01*
X-72862102Y-157966528D02*
X-72862102Y-158966528D01*
X-73219245Y-157395100D02*
X-73576388Y-158466528D01*
X-73576388Y-158466528D02*
X-72647817Y-158466528D01*
D10*
D11*
X3709326Y-161766528D02*
X3709326Y-160266528D01*
X5066470Y-161766528D02*
X5066470Y-160266528D01*
X5066470Y-161695100D02*
X4923612Y-161766528D01*
X4923612Y-161766528D02*
X4637898Y-161766528D01*
X4637898Y-161766528D02*
X4495041Y-161695100D01*
X4495041Y-161695100D02*
X4423612Y-161623671D01*
X4423612Y-161623671D02*
X4352184Y-161480814D01*
X4352184Y-161480814D02*
X4352184Y-161052242D01*
X4352184Y-161052242D02*
X4423612Y-160909385D01*
X4423612Y-160909385D02*
X4495041Y-160837957D01*
X4495041Y-160837957D02*
X4637898Y-160766528D01*
X4637898Y-160766528D02*
X4923612Y-160766528D01*
X4923612Y-160766528D02*
X5066470Y-160837957D01*
X5780755Y-161623671D02*
X5852184Y-161695100D01*
X5852184Y-161695100D02*
X5780755Y-161766528D01*
X5780755Y-161766528D02*
X5709327Y-161695100D01*
X5709327Y-161695100D02*
X5780755Y-161623671D01*
X5780755Y-161623671D02*
X5780755Y-161766528D01*
X5780755Y-160837957D02*
X5852184Y-160909385D01*
X5852184Y-160909385D02*
X5780755Y-160980814D01*
X5780755Y-160980814D02*
X5709327Y-160909385D01*
X5709327Y-160909385D02*
X5780755Y-160837957D01*
X5780755Y-160837957D02*
X5780755Y-160980814D01*
X8423613Y-161766528D02*
X7566470Y-161766528D01*
X7995041Y-161766528D02*
X7995041Y-160266528D01*
X7995041Y-160266528D02*
X7852184Y-160480814D01*
X7852184Y-160480814D02*
X7709327Y-160623671D01*
X7709327Y-160623671D02*
X7566470Y-160695100D01*
X10137898Y-160195100D02*
X8852184Y-162123671D01*
X11423613Y-161766528D02*
X10566470Y-161766528D01*
X10995041Y-161766528D02*
X10995041Y-160266528D01*
X10995041Y-160266528D02*
X10852184Y-160480814D01*
X10852184Y-160480814D02*
X10709327Y-160623671D01*
X10709327Y-160623671D02*
X10566470Y-160695100D01*
D10*
D11*
X-82746500Y-152680400D02*
X25253500Y-152680400D01*
D10*
D13*
X-81054772Y-153384838D02*
X-79911915Y-153384838D01*
X-80733343Y-155384838D02*
X-80483343Y-153384838D01*
X-79495248Y-155384838D02*
X-79328581Y-154051504D01*
X-79245248Y-153384838D02*
X-79352391Y-153480076D01*
X-79352391Y-153480076D02*
X-79269057Y-153575314D01*
X-79269057Y-153575314D02*
X-79161914Y-153480076D01*
X-79161914Y-153480076D02*
X-79245248Y-153384838D01*
X-79245248Y-153384838D02*
X-79269057Y-153575314D01*
X-78661914Y-154051504D02*
X-77900010Y-154051504D01*
X-78292867Y-153384838D02*
X-78507152Y-155099123D01*
X-78507152Y-155099123D02*
X-78435724Y-155289600D01*
X-78435724Y-155289600D02*
X-78257152Y-155384838D01*
X-78257152Y-155384838D02*
X-78066676Y-155384838D01*
X-77114295Y-155384838D02*
X-77292867Y-155289600D01*
X-77292867Y-155289600D02*
X-77364295Y-155099123D01*
X-77364295Y-155099123D02*
X-77150010Y-153384838D01*
X-75578581Y-155289600D02*
X-75780962Y-155384838D01*
X-75780962Y-155384838D02*
X-76161915Y-155384838D01*
X-76161915Y-155384838D02*
X-76340486Y-155289600D01*
X-76340486Y-155289600D02*
X-76411915Y-155099123D01*
X-76411915Y-155099123D02*
X-76316676Y-154337219D01*
X-76316676Y-154337219D02*
X-76197629Y-154146742D01*
X-76197629Y-154146742D02*
X-75995248Y-154051504D01*
X-75995248Y-154051504D02*
X-75614296Y-154051504D01*
X-75614296Y-154051504D02*
X-75435724Y-154146742D01*
X-75435724Y-154146742D02*
X-75364296Y-154337219D01*
X-75364296Y-154337219D02*
X-75388105Y-154527695D01*
X-75388105Y-154527695D02*
X-76364296Y-154718171D01*
X-74614295Y-155194361D02*
X-74530962Y-155289600D01*
X-74530962Y-155289600D02*
X-74638105Y-155384838D01*
X-74638105Y-155384838D02*
X-74721438Y-155289600D01*
X-74721438Y-155289600D02*
X-74614295Y-155194361D01*
X-74614295Y-155194361D02*
X-74638105Y-155384838D01*
X-74483343Y-154146742D02*
X-74400010Y-154241980D01*
X-74400010Y-154241980D02*
X-74507152Y-154337219D01*
X-74507152Y-154337219D02*
X-74590486Y-154241980D01*
X-74590486Y-154241980D02*
X-74483343Y-154146742D01*
X-74483343Y-154146742D02*
X-74507152Y-154337219D01*
D10*
D11*
X-80790674Y-150780814D02*
X-81290674Y-150780814D01*
X-81290674Y-151566528D02*
X-81290674Y-150066528D01*
X-81290674Y-150066528D02*
X-80576388Y-150066528D01*
X-80004960Y-151566528D02*
X-80004960Y-150566528D01*
X-80004960Y-150066528D02*
X-80076388Y-150137957D01*
X-80076388Y-150137957D02*
X-80004960Y-150209385D01*
X-80004960Y-150209385D02*
X-79933531Y-150137957D01*
X-79933531Y-150137957D02*
X-80004960Y-150066528D01*
X-80004960Y-150066528D02*
X-80004960Y-150209385D01*
X-79076388Y-151566528D02*
X-79219245Y-151495100D01*
X-79219245Y-151495100D02*
X-79290674Y-151352242D01*
X-79290674Y-151352242D02*
X-79290674Y-150066528D01*
X-77933531Y-151495100D02*
X-78076388Y-151566528D01*
X-78076388Y-151566528D02*
X-78362102Y-151566528D01*
X-78362102Y-151566528D02*
X-78504960Y-151495100D01*
X-78504960Y-151495100D02*
X-78576388Y-151352242D01*
X-78576388Y-151352242D02*
X-78576388Y-150780814D01*
X-78576388Y-150780814D02*
X-78504960Y-150637957D01*
X-78504960Y-150637957D02*
X-78362102Y-150566528D01*
X-78362102Y-150566528D02*
X-78076388Y-150566528D01*
X-78076388Y-150566528D02*
X-77933531Y-150637957D01*
X-77933531Y-150637957D02*
X-77862102Y-150780814D01*
X-77862102Y-150780814D02*
X-77862102Y-150923671D01*
X-77862102Y-150923671D02*
X-78576388Y-151066528D01*
X-77219246Y-151423671D02*
X-77147817Y-151495100D01*
X-77147817Y-151495100D02*
X-77219246Y-151566528D01*
X-77219246Y-151566528D02*
X-77290674Y-151495100D01*
X-77290674Y-151495100D02*
X-77219246Y-151423671D01*
X-77219246Y-151423671D02*
X-77219246Y-151566528D01*
X-77219246Y-150637957D02*
X-77147817Y-150709385D01*
X-77147817Y-150709385D02*
X-77219246Y-150780814D01*
X-77219246Y-150780814D02*
X-77290674Y-150709385D01*
X-77290674Y-150709385D02*
X-77219246Y-150637957D01*
X-77219246Y-150637957D02*
X-77219246Y-150780814D01*
X-74719245Y-150066528D02*
X-75004960Y-150066528D01*
X-75004960Y-150066528D02*
X-75147817Y-150137957D01*
X-75147817Y-150137957D02*
X-75219245Y-150209385D01*
X-75219245Y-150209385D02*
X-75362103Y-150423671D01*
X-75362103Y-150423671D02*
X-75433531Y-150709385D01*
X-75433531Y-150709385D02*
X-75433531Y-151280814D01*
X-75433531Y-151280814D02*
X-75362103Y-151423671D01*
X-75362103Y-151423671D02*
X-75290674Y-151495100D01*
X-75290674Y-151495100D02*
X-75147817Y-151566528D01*
X-75147817Y-151566528D02*
X-74862103Y-151566528D01*
X-74862103Y-151566528D02*
X-74719245Y-151495100D01*
X-74719245Y-151495100D02*
X-74647817Y-151423671D01*
X-74647817Y-151423671D02*
X-74576388Y-151280814D01*
X-74576388Y-151280814D02*
X-74576388Y-150923671D01*
X-74576388Y-150923671D02*
X-74647817Y-150780814D01*
X-74647817Y-150780814D02*
X-74719245Y-150709385D01*
X-74719245Y-150709385D02*
X-74862103Y-150637957D01*
X-74862103Y-150637957D02*
X-75147817Y-150637957D01*
X-75147817Y-150637957D02*
X-75290674Y-150709385D01*
X-75290674Y-150709385D02*
X-75362103Y-150780814D01*
X-75362103Y-150780814D02*
X-75433531Y-150923671D01*
X-73219246Y-150066528D02*
X-73933532Y-150066528D01*
X-73933532Y-150066528D02*
X-74004960Y-150780814D01*
X-74004960Y-150780814D02*
X-73933532Y-150709385D01*
X-73933532Y-150709385D02*
X-73790674Y-150637957D01*
X-73790674Y-150637957D02*
X-73433532Y-150637957D01*
X-73433532Y-150637957D02*
X-73290674Y-150709385D01*
X-73290674Y-150709385D02*
X-73219246Y-150780814D01*
X-73219246Y-150780814D02*
X-73147817Y-150923671D01*
X-73147817Y-150923671D02*
X-73147817Y-151280814D01*
X-73147817Y-151280814D02*
X-73219246Y-151423671D01*
X-73219246Y-151423671D02*
X-73290674Y-151495100D01*
X-73290674Y-151495100D02*
X-73433532Y-151566528D01*
X-73433532Y-151566528D02*
X-73790674Y-151566528D01*
X-73790674Y-151566528D02*
X-73933532Y-151495100D01*
X-73933532Y-151495100D02*
X-74004960Y-151423671D01*
X-72862103Y-151709385D02*
X-71719246Y-151709385D01*
X-71433532Y-151495100D02*
X-71290675Y-151566528D01*
X-71290675Y-151566528D02*
X-71004961Y-151566528D01*
X-71004961Y-151566528D02*
X-70862104Y-151495100D01*
X-70862104Y-151495100D02*
X-70790675Y-151352242D01*
X-70790675Y-151352242D02*
X-70790675Y-151280814D01*
X-70790675Y-151280814D02*
X-70862104Y-151137957D01*
X-70862104Y-151137957D02*
X-71004961Y-151066528D01*
X-71004961Y-151066528D02*
X-71219246Y-151066528D01*
X-71219246Y-151066528D02*
X-71362104Y-150995100D01*
X-71362104Y-150995100D02*
X-71433532Y-150852242D01*
X-71433532Y-150852242D02*
X-71433532Y-150780814D01*
X-71433532Y-150780814D02*
X-71362104Y-150637957D01*
X-71362104Y-150637957D02*
X-71219246Y-150566528D01*
X-71219246Y-150566528D02*
X-71004961Y-150566528D01*
X-71004961Y-150566528D02*
X-70862104Y-150637957D01*
X-70147818Y-150566528D02*
X-70147818Y-152066528D01*
X-70147818Y-150637957D02*
X-70004960Y-150566528D01*
X-70004960Y-150566528D02*
X-69719246Y-150566528D01*
X-69719246Y-150566528D02*
X-69576389Y-150637957D01*
X-69576389Y-150637957D02*
X-69504960Y-150709385D01*
X-69504960Y-150709385D02*
X-69433532Y-150852242D01*
X-69433532Y-150852242D02*
X-69433532Y-151280814D01*
X-69433532Y-151280814D02*
X-69504960Y-151423671D01*
X-69504960Y-151423671D02*
X-69576389Y-151495100D01*
X-69576389Y-151495100D02*
X-69719246Y-151566528D01*
X-69719246Y-151566528D02*
X-70004960Y-151566528D01*
X-70004960Y-151566528D02*
X-70147818Y-151495100D01*
X-68576389Y-151566528D02*
X-68719246Y-151495100D01*
X-68719246Y-151495100D02*
X-68790675Y-151352242D01*
X-68790675Y-151352242D02*
X-68790675Y-150066528D01*
X-68004961Y-151566528D02*
X-68004961Y-150566528D01*
X-68004961Y-150066528D02*
X-68076389Y-150137957D01*
X-68076389Y-150137957D02*
X-68004961Y-150209385D01*
X-68004961Y-150209385D02*
X-67933532Y-150137957D01*
X-67933532Y-150137957D02*
X-68004961Y-150066528D01*
X-68004961Y-150066528D02*
X-68004961Y-150209385D01*
X-67504960Y-150566528D02*
X-66933532Y-150566528D01*
X-67290675Y-150066528D02*
X-67290675Y-151352242D01*
X-67290675Y-151352242D02*
X-67219246Y-151495100D01*
X-67219246Y-151495100D02*
X-67076389Y-151566528D01*
X-67076389Y-151566528D02*
X-66933532Y-151566528D01*
X-66790674Y-151709385D02*
X-65647817Y-151709385D01*
X-65290675Y-151566528D02*
X-65290675Y-150566528D01*
X-65290675Y-150852242D02*
X-65219246Y-150709385D01*
X-65219246Y-150709385D02*
X-65147817Y-150637957D01*
X-65147817Y-150637957D02*
X-65004960Y-150566528D01*
X-65004960Y-150566528D02*
X-64862103Y-150566528D01*
X-64362104Y-151566528D02*
X-64362104Y-150566528D01*
X-64362104Y-150066528D02*
X-64433532Y-150137957D01*
X-64433532Y-150137957D02*
X-64362104Y-150209385D01*
X-64362104Y-150209385D02*
X-64290675Y-150137957D01*
X-64290675Y-150137957D02*
X-64362104Y-150066528D01*
X-64362104Y-150066528D02*
X-64362104Y-150209385D01*
X-63004960Y-150566528D02*
X-63004960Y-151780814D01*
X-63004960Y-151780814D02*
X-63076389Y-151923671D01*
X-63076389Y-151923671D02*
X-63147818Y-151995100D01*
X-63147818Y-151995100D02*
X-63290675Y-152066528D01*
X-63290675Y-152066528D02*
X-63504960Y-152066528D01*
X-63504960Y-152066528D02*
X-63647818Y-151995100D01*
X-63004960Y-151495100D02*
X-63147818Y-151566528D01*
X-63147818Y-151566528D02*
X-63433532Y-151566528D01*
X-63433532Y-151566528D02*
X-63576389Y-151495100D01*
X-63576389Y-151495100D02*
X-63647818Y-151423671D01*
X-63647818Y-151423671D02*
X-63719246Y-151280814D01*
X-63719246Y-151280814D02*
X-63719246Y-150852242D01*
X-63719246Y-150852242D02*
X-63647818Y-150709385D01*
X-63647818Y-150709385D02*
X-63576389Y-150637957D01*
X-63576389Y-150637957D02*
X-63433532Y-150566528D01*
X-63433532Y-150566528D02*
X-63147818Y-150566528D01*
X-63147818Y-150566528D02*
X-63004960Y-150637957D01*
X-62290675Y-151566528D02*
X-62290675Y-150066528D01*
X-61647817Y-151566528D02*
X-61647817Y-150780814D01*
X-61647817Y-150780814D02*
X-61719246Y-150637957D01*
X-61719246Y-150637957D02*
X-61862103Y-150566528D01*
X-61862103Y-150566528D02*
X-62076389Y-150566528D01*
X-62076389Y-150566528D02*
X-62219246Y-150637957D01*
X-62219246Y-150637957D02*
X-62290675Y-150709385D01*
X-61147817Y-150566528D02*
X-60576389Y-150566528D01*
X-60933532Y-150066528D02*
X-60933532Y-151352242D01*
X-60933532Y-151352242D02*
X-60862103Y-151495100D01*
X-60862103Y-151495100D02*
X-60719246Y-151566528D01*
X-60719246Y-151566528D02*
X-60576389Y-151566528D01*
X-60076389Y-151423671D02*
X-60004960Y-151495100D01*
X-60004960Y-151495100D02*
X-60076389Y-151566528D01*
X-60076389Y-151566528D02*
X-60147817Y-151495100D01*
X-60147817Y-151495100D02*
X-60076389Y-151423671D01*
X-60076389Y-151423671D02*
X-60076389Y-151566528D01*
X-59362103Y-151566528D02*
X-59362103Y-150066528D01*
X-59219245Y-150995100D02*
X-58790674Y-151566528D01*
X-58790674Y-150566528D02*
X-59362103Y-151137957D01*
X-58147817Y-151566528D02*
X-58147817Y-150566528D01*
X-58147817Y-150066528D02*
X-58219245Y-150137957D01*
X-58219245Y-150137957D02*
X-58147817Y-150209385D01*
X-58147817Y-150209385D02*
X-58076388Y-150137957D01*
X-58076388Y-150137957D02*
X-58147817Y-150066528D01*
X-58147817Y-150066528D02*
X-58147817Y-150209385D01*
X-56790673Y-151495100D02*
X-56933531Y-151566528D01*
X-56933531Y-151566528D02*
X-57219245Y-151566528D01*
X-57219245Y-151566528D02*
X-57362102Y-151495100D01*
X-57362102Y-151495100D02*
X-57433531Y-151423671D01*
X-57433531Y-151423671D02*
X-57504959Y-151280814D01*
X-57504959Y-151280814D02*
X-57504959Y-150852242D01*
X-57504959Y-150852242D02*
X-57433531Y-150709385D01*
X-57433531Y-150709385D02*
X-57362102Y-150637957D01*
X-57362102Y-150637957D02*
X-57219245Y-150566528D01*
X-57219245Y-150566528D02*
X-56933531Y-150566528D01*
X-56933531Y-150566528D02*
X-56790673Y-150637957D01*
X-55504959Y-151566528D02*
X-55504959Y-150780814D01*
X-55504959Y-150780814D02*
X-55576388Y-150637957D01*
X-55576388Y-150637957D02*
X-55719245Y-150566528D01*
X-55719245Y-150566528D02*
X-56004959Y-150566528D01*
X-56004959Y-150566528D02*
X-56147817Y-150637957D01*
X-55504959Y-151495100D02*
X-55647817Y-151566528D01*
X-55647817Y-151566528D02*
X-56004959Y-151566528D01*
X-56004959Y-151566528D02*
X-56147817Y-151495100D01*
X-56147817Y-151495100D02*
X-56219245Y-151352242D01*
X-56219245Y-151352242D02*
X-56219245Y-151209385D01*
X-56219245Y-151209385D02*
X-56147817Y-151066528D01*
X-56147817Y-151066528D02*
X-56004959Y-150995100D01*
X-56004959Y-150995100D02*
X-55647817Y-150995100D01*
X-55647817Y-150995100D02*
X-55504959Y-150923671D01*
X-54147816Y-151566528D02*
X-54147816Y-150066528D01*
X-54147816Y-151495100D02*
X-54290674Y-151566528D01*
X-54290674Y-151566528D02*
X-54576388Y-151566528D01*
X-54576388Y-151566528D02*
X-54719245Y-151495100D01*
X-54719245Y-151495100D02*
X-54790674Y-151423671D01*
X-54790674Y-151423671D02*
X-54862102Y-151280814D01*
X-54862102Y-151280814D02*
X-54862102Y-150852242D01*
X-54862102Y-150852242D02*
X-54790674Y-150709385D01*
X-54790674Y-150709385D02*
X-54719245Y-150637957D01*
X-54719245Y-150637957D02*
X-54576388Y-150566528D01*
X-54576388Y-150566528D02*
X-54290674Y-150566528D01*
X-54290674Y-150566528D02*
X-54147816Y-150637957D01*
X-53790673Y-151709385D02*
X-52647816Y-151709385D01*
X-52290674Y-150566528D02*
X-52290674Y-152066528D01*
X-52290674Y-150637957D02*
X-52147816Y-150566528D01*
X-52147816Y-150566528D02*
X-51862102Y-150566528D01*
X-51862102Y-150566528D02*
X-51719245Y-150637957D01*
X-51719245Y-150637957D02*
X-51647816Y-150709385D01*
X-51647816Y-150709385D02*
X-51576388Y-150852242D01*
X-51576388Y-150852242D02*
X-51576388Y-151280814D01*
X-51576388Y-151280814D02*
X-51647816Y-151423671D01*
X-51647816Y-151423671D02*
X-51719245Y-151495100D01*
X-51719245Y-151495100D02*
X-51862102Y-151566528D01*
X-51862102Y-151566528D02*
X-52147816Y-151566528D01*
X-52147816Y-151566528D02*
X-52290674Y-151495100D01*
X-50290673Y-151495100D02*
X-50433531Y-151566528D01*
X-50433531Y-151566528D02*
X-50719245Y-151566528D01*
X-50719245Y-151566528D02*
X-50862102Y-151495100D01*
X-50862102Y-151495100D02*
X-50933531Y-151423671D01*
X-50933531Y-151423671D02*
X-51004959Y-151280814D01*
X-51004959Y-151280814D02*
X-51004959Y-150852242D01*
X-51004959Y-150852242D02*
X-50933531Y-150709385D01*
X-50933531Y-150709385D02*
X-50862102Y-150637957D01*
X-50862102Y-150637957D02*
X-50719245Y-150566528D01*
X-50719245Y-150566528D02*
X-50433531Y-150566528D01*
X-50433531Y-150566528D02*
X-50290673Y-150637957D01*
X-49647817Y-151566528D02*
X-49647817Y-150066528D01*
X-49647817Y-150637957D02*
X-49504959Y-150566528D01*
X-49504959Y-150566528D02*
X-49219245Y-150566528D01*
X-49219245Y-150566528D02*
X-49076388Y-150637957D01*
X-49076388Y-150637957D02*
X-49004959Y-150709385D01*
X-49004959Y-150709385D02*
X-48933531Y-150852242D01*
X-48933531Y-150852242D02*
X-48933531Y-151280814D01*
X-48933531Y-151280814D02*
X-49004959Y-151423671D01*
X-49004959Y-151423671D02*
X-49076388Y-151495100D01*
X-49076388Y-151495100D02*
X-49219245Y-151566528D01*
X-49219245Y-151566528D02*
X-49504959Y-151566528D01*
X-49504959Y-151566528D02*
X-49647817Y-151495100D01*
D10*
D11*
X-82746500Y-146680400D02*
X25253500Y-146680400D01*
D10*
D11*
X-81362102Y-148795100D02*
X-81147816Y-148866528D01*
X-81147816Y-148866528D02*
X-80790674Y-148866528D01*
X-80790674Y-148866528D02*
X-80647816Y-148795100D01*
X-80647816Y-148795100D02*
X-80576388Y-148723671D01*
X-80576388Y-148723671D02*
X-80504959Y-148580814D01*
X-80504959Y-148580814D02*
X-80504959Y-148437957D01*
X-80504959Y-148437957D02*
X-80576388Y-148295100D01*
X-80576388Y-148295100D02*
X-80647816Y-148223671D01*
X-80647816Y-148223671D02*
X-80790674Y-148152242D01*
X-80790674Y-148152242D02*
X-81076388Y-148080814D01*
X-81076388Y-148080814D02*
X-81219245Y-148009385D01*
X-81219245Y-148009385D02*
X-81290674Y-147937957D01*
X-81290674Y-147937957D02*
X-81362102Y-147795100D01*
X-81362102Y-147795100D02*
X-81362102Y-147652242D01*
X-81362102Y-147652242D02*
X-81290674Y-147509385D01*
X-81290674Y-147509385D02*
X-81219245Y-147437957D01*
X-81219245Y-147437957D02*
X-81076388Y-147366528D01*
X-81076388Y-147366528D02*
X-80719245Y-147366528D01*
X-80719245Y-147366528D02*
X-80504959Y-147437957D01*
X-79862103Y-148866528D02*
X-79862103Y-147366528D01*
X-79219245Y-148866528D02*
X-79219245Y-148080814D01*
X-79219245Y-148080814D02*
X-79290674Y-147937957D01*
X-79290674Y-147937957D02*
X-79433531Y-147866528D01*
X-79433531Y-147866528D02*
X-79647817Y-147866528D01*
X-79647817Y-147866528D02*
X-79790674Y-147937957D01*
X-79790674Y-147937957D02*
X-79862103Y-148009385D01*
X-77933531Y-148795100D02*
X-78076388Y-148866528D01*
X-78076388Y-148866528D02*
X-78362102Y-148866528D01*
X-78362102Y-148866528D02*
X-78504960Y-148795100D01*
X-78504960Y-148795100D02*
X-78576388Y-148652242D01*
X-78576388Y-148652242D02*
X-78576388Y-148080814D01*
X-78576388Y-148080814D02*
X-78504960Y-147937957D01*
X-78504960Y-147937957D02*
X-78362102Y-147866528D01*
X-78362102Y-147866528D02*
X-78076388Y-147866528D01*
X-78076388Y-147866528D02*
X-77933531Y-147937957D01*
X-77933531Y-147937957D02*
X-77862102Y-148080814D01*
X-77862102Y-148080814D02*
X-77862102Y-148223671D01*
X-77862102Y-148223671D02*
X-78576388Y-148366528D01*
X-76647817Y-148795100D02*
X-76790674Y-148866528D01*
X-76790674Y-148866528D02*
X-77076388Y-148866528D01*
X-77076388Y-148866528D02*
X-77219246Y-148795100D01*
X-77219246Y-148795100D02*
X-77290674Y-148652242D01*
X-77290674Y-148652242D02*
X-77290674Y-148080814D01*
X-77290674Y-148080814D02*
X-77219246Y-147937957D01*
X-77219246Y-147937957D02*
X-77076388Y-147866528D01*
X-77076388Y-147866528D02*
X-76790674Y-147866528D01*
X-76790674Y-147866528D02*
X-76647817Y-147937957D01*
X-76647817Y-147937957D02*
X-76576388Y-148080814D01*
X-76576388Y-148080814D02*
X-76576388Y-148223671D01*
X-76576388Y-148223671D02*
X-77290674Y-148366528D01*
X-76147817Y-147866528D02*
X-75576389Y-147866528D01*
X-75933532Y-147366528D02*
X-75933532Y-148652242D01*
X-75933532Y-148652242D02*
X-75862103Y-148795100D01*
X-75862103Y-148795100D02*
X-75719246Y-148866528D01*
X-75719246Y-148866528D02*
X-75576389Y-148866528D01*
X-75076389Y-148723671D02*
X-75004960Y-148795100D01*
X-75004960Y-148795100D02*
X-75076389Y-148866528D01*
X-75076389Y-148866528D02*
X-75147817Y-148795100D01*
X-75147817Y-148795100D02*
X-75076389Y-148723671D01*
X-75076389Y-148723671D02*
X-75076389Y-148866528D01*
X-75076389Y-147937957D02*
X-75004960Y-148009385D01*
X-75004960Y-148009385D02*
X-75076389Y-148080814D01*
X-75076389Y-148080814D02*
X-75147817Y-148009385D01*
X-75147817Y-148009385D02*
X-75076389Y-147937957D01*
X-75076389Y-147937957D02*
X-75076389Y-148080814D01*
D10*
D11*
X-62746500Y-156680400D02*
X-62746500Y-159680400D01*
D10*
D11*
X1253500Y-156680400D02*
X1253500Y-163180400D01*
X-21195534Y-4114761D02*
X-21195534Y-3505238D01*
X-21500296Y-3809999D02*
X-20890772Y-3809999D01*
D14*
X-10466286Y-3072814D02*
X-10680572Y-3144242D01*
X-10680572Y-3144242D02*
X-10752001Y-3215671D01*
X-10752001Y-3215671D02*
X-10823429Y-3358528D01*
X-10823429Y-3358528D02*
X-10823429Y-3572814D01*
X-10823429Y-3572814D02*
X-10752001Y-3715671D01*
X-10752001Y-3715671D02*
X-10680572Y-3787100D01*
X-10680572Y-3787100D02*
X-10537715Y-3858528D01*
X-10537715Y-3858528D02*
X-9966286Y-3858528D01*
X-9966286Y-3858528D02*
X-9966286Y-2358528D01*
X-9966286Y-2358528D02*
X-10466286Y-2358528D01*
X-10466286Y-2358528D02*
X-10609143Y-2429957D01*
X-10609143Y-2429957D02*
X-10680572Y-2501385D01*
X-10680572Y-2501385D02*
X-10752001Y-2644242D01*
X-10752001Y-2644242D02*
X-10752001Y-2787100D01*
X-10752001Y-2787100D02*
X-10680572Y-2929957D01*
X-10680572Y-2929957D02*
X-10609143Y-3001385D01*
X-10609143Y-3001385D02*
X-10466286Y-3072814D01*
X-10466286Y-3072814D02*
X-9966286Y-3072814D01*
X-11394858Y-3429957D02*
X-12109143Y-3429957D01*
X-11252001Y-3858528D02*
X-11752001Y-2358528D01*
X-11752001Y-2358528D02*
X-12252001Y-3858528D01*
X-13609143Y-3715671D02*
X-13537715Y-3787100D01*
X-13537715Y-3787100D02*
X-13323429Y-3858528D01*
X-13323429Y-3858528D02*
X-13180572Y-3858528D01*
X-13180572Y-3858528D02*
X-12966286Y-3787100D01*
X-12966286Y-3787100D02*
X-12823429Y-3644242D01*
X-12823429Y-3644242D02*
X-12752000Y-3501385D01*
X-12752000Y-3501385D02*
X-12680572Y-3215671D01*
X-12680572Y-3215671D02*
X-12680572Y-3001385D01*
X-12680572Y-3001385D02*
X-12752000Y-2715671D01*
X-12752000Y-2715671D02*
X-12823429Y-2572814D01*
X-12823429Y-2572814D02*
X-12966286Y-2429957D01*
X-12966286Y-2429957D02*
X-13180572Y-2358528D01*
X-13180572Y-2358528D02*
X-13323429Y-2358528D01*
X-13323429Y-2358528D02*
X-13537715Y-2429957D01*
X-13537715Y-2429957D02*
X-13609143Y-2501385D01*
X-14252000Y-3858528D02*
X-14252000Y-2358528D01*
X-15109143Y-3858528D02*
X-14466286Y-3001385D01*
X-15109143Y-2358528D02*
X-14252000Y-3215671D01*
D11*
X-5955534Y-4114761D02*
X-5955534Y-3505238D01*
X-14090668Y-37129200D02*
X-14233525Y-37176819D01*
X-14233525Y-37176819D02*
X-14471620Y-37176819D01*
X-14471620Y-37176819D02*
X-14566858Y-37129200D01*
X-14566858Y-37129200D02*
X-14614477Y-37081580D01*
X-14614477Y-37081580D02*
X-14662096Y-36986342D01*
X-14662096Y-36986342D02*
X-14662096Y-36891104D01*
X-14662096Y-36891104D02*
X-14614477Y-36795866D01*
X-14614477Y-36795866D02*
X-14566858Y-36748247D01*
X-14566858Y-36748247D02*
X-14471620Y-36700628D01*
X-14471620Y-36700628D02*
X-14281144Y-36653009D01*
X-14281144Y-36653009D02*
X-14185906Y-36605390D01*
X-14185906Y-36605390D02*
X-14138287Y-36557771D01*
X-14138287Y-36557771D02*
X-14090668Y-36462533D01*
X-14090668Y-36462533D02*
X-14090668Y-36367295D01*
X-14090668Y-36367295D02*
X-14138287Y-36272057D01*
X-14138287Y-36272057D02*
X-14185906Y-36224438D01*
X-14185906Y-36224438D02*
X-14281144Y-36176819D01*
X-14281144Y-36176819D02*
X-14519239Y-36176819D01*
X-14519239Y-36176819D02*
X-14662096Y-36224438D01*
X-14995430Y-36176819D02*
X-15233525Y-37176819D01*
X-15233525Y-37176819D02*
X-15424001Y-36462533D01*
X-15424001Y-36462533D02*
X-15614477Y-37176819D01*
X-15614477Y-37176819D02*
X-15852572Y-36176819D01*
X-16424001Y-36176819D02*
X-16519239Y-36176819D01*
X-16519239Y-36176819D02*
X-16614477Y-36224438D01*
X-16614477Y-36224438D02*
X-16662096Y-36272057D01*
X-16662096Y-36272057D02*
X-16709715Y-36367295D01*
X-16709715Y-36367295D02*
X-16757334Y-36557771D01*
X-16757334Y-36557771D02*
X-16757334Y-36795866D01*
X-16757334Y-36795866D02*
X-16709715Y-36986342D01*
X-16709715Y-36986342D02*
X-16662096Y-37081580D01*
X-16662096Y-37081580D02*
X-16614477Y-37129200D01*
X-16614477Y-37129200D02*
X-16519239Y-37176819D01*
X-16519239Y-37176819D02*
X-16424001Y-37176819D01*
X-16424001Y-37176819D02*
X-16328763Y-37129200D01*
X-16328763Y-37129200D02*
X-16281144Y-37081580D01*
X-16281144Y-37081580D02*
X-16233525Y-36986342D01*
X-16233525Y-36986342D02*
X-16185906Y-36795866D01*
X-16185906Y-36795866D02*
X-16185906Y-36557771D01*
X-16185906Y-36557771D02*
X-16233525Y-36367295D01*
X-16233525Y-36367295D02*
X-16281144Y-36272057D01*
X-16281144Y-36272057D02*
X-16328763Y-36224438D01*
X-16328763Y-36224438D02*
X-16424001Y-36176819D01*
D15*
%TO.C,SW8*%
X-78849000Y-2725000D02*
X-78849000Y-1725000D01*
X-78849000Y-16325000D02*
X-78849000Y-17325000D01*
X-78549000Y-3025000D02*
X-78549000Y-2025000D01*
X-78549000Y-16100000D02*
X-78549000Y-17100000D01*
X-78034000Y-2540000D02*
X-64064000Y-2540000D01*
X-78034000Y-16510000D02*
X-78034000Y-2540000D01*
X-77849000Y-1725000D02*
X-78849000Y-1725000D01*
X-77849000Y-17325000D02*
X-78849000Y-17325000D01*
X-77549000Y-2025000D02*
X-78549000Y-2025000D01*
X-77549000Y-17100000D02*
X-78549000Y-17100000D01*
X-75909000Y-2525000D02*
X-75909000Y-525000D01*
X-71949000Y-16510000D02*
X-78034000Y-16510000D01*
X-71049000Y-525000D02*
X-75909000Y-525000D01*
X-64549000Y-2025000D02*
X-63549000Y-2025000D01*
X-64549000Y-17100000D02*
X-63549000Y-17100000D01*
X-64249000Y-1725000D02*
X-63249000Y-1725000D01*
X-64249000Y-17325000D02*
X-63249000Y-17325000D01*
X-64064000Y-2540000D02*
X-64064000Y-16510000D01*
X-64064000Y-16510000D02*
X-70149000Y-16510000D01*
X-63549000Y-3025000D02*
X-63549000Y-2025000D01*
X-63549000Y-16100000D02*
X-63549000Y-17100000D01*
X-63249000Y-2725000D02*
X-63249000Y-1725000D01*
X-63249000Y-16325000D02*
X-63249000Y-17325000D01*
%TO.C,SW20*%
X-202674000Y-40825000D02*
X-202674000Y-39825000D01*
X-202674000Y-54425000D02*
X-202674000Y-55425000D01*
X-202374000Y-41125000D02*
X-202374000Y-40125000D01*
X-202374000Y-54200000D02*
X-202374000Y-55200000D01*
X-201859000Y-40640000D02*
X-187889000Y-40640000D01*
X-201859000Y-54610000D02*
X-201859000Y-40640000D01*
X-201674000Y-39825000D02*
X-202674000Y-39825000D01*
X-201674000Y-55425000D02*
X-202674000Y-55425000D01*
X-201374000Y-40125000D02*
X-202374000Y-40125000D01*
X-201374000Y-55200000D02*
X-202374000Y-55200000D01*
X-199734000Y-40625000D02*
X-199734000Y-38625000D01*
X-195774000Y-54610000D02*
X-201859000Y-54610000D01*
X-194874000Y-38625000D02*
X-199734000Y-38625000D01*
X-188374000Y-40125000D02*
X-187374000Y-40125000D01*
X-188374000Y-55200000D02*
X-187374000Y-55200000D01*
X-188074000Y-39825000D02*
X-187074000Y-39825000D01*
X-188074000Y-55425000D02*
X-187074000Y-55425000D01*
X-187889000Y-40640000D02*
X-187889000Y-54610000D01*
X-187889000Y-54610000D02*
X-193974000Y-54610000D01*
X-187374000Y-41125000D02*
X-187374000Y-40125000D01*
X-187374000Y-54200000D02*
X-187374000Y-55200000D01*
X-187074000Y-40825000D02*
X-187074000Y-39825000D01*
X-187074000Y-54425000D02*
X-187074000Y-55425000D01*
%TO.C,SW7*%
X-97899000Y-2725000D02*
X-97899000Y-1725000D01*
X-97899000Y-16325000D02*
X-97899000Y-17325000D01*
X-97599000Y-3025000D02*
X-97599000Y-2025000D01*
X-97599000Y-16100000D02*
X-97599000Y-17100000D01*
X-97084000Y-2540000D02*
X-83114000Y-2540000D01*
X-97084000Y-16510000D02*
X-97084000Y-2540000D01*
X-96899000Y-1725000D02*
X-97899000Y-1725000D01*
X-96899000Y-17325000D02*
X-97899000Y-17325000D01*
X-96599000Y-2025000D02*
X-97599000Y-2025000D01*
X-96599000Y-17100000D02*
X-97599000Y-17100000D01*
X-94959000Y-2525000D02*
X-94959000Y-525000D01*
X-90999000Y-16510000D02*
X-97084000Y-16510000D01*
X-90099000Y-525000D02*
X-94959000Y-525000D01*
X-83599000Y-2025000D02*
X-82599000Y-2025000D01*
X-83599000Y-17100000D02*
X-82599000Y-17100000D01*
X-83299000Y-1725000D02*
X-82299000Y-1725000D01*
X-83299000Y-17325000D02*
X-82299000Y-17325000D01*
X-83114000Y-2540000D02*
X-83114000Y-16510000D01*
X-83114000Y-16510000D02*
X-89199000Y-16510000D01*
X-82599000Y-3025000D02*
X-82599000Y-2025000D01*
X-82599000Y-16100000D02*
X-82599000Y-17100000D01*
X-82299000Y-2725000D02*
X-82299000Y-1725000D01*
X-82299000Y-16325000D02*
X-82299000Y-17325000D01*
%TO.C,SW53*%
X-40749000Y-97975000D02*
X-40749000Y-96975000D01*
X-40749000Y-111575000D02*
X-40749000Y-112575000D01*
X-40449000Y-98275000D02*
X-40449000Y-97275000D01*
X-40449000Y-111350000D02*
X-40449000Y-112350000D01*
X-39934000Y-97790000D02*
X-25964000Y-97790000D01*
X-39934000Y-111760000D02*
X-39934000Y-97790000D01*
X-39749000Y-96975000D02*
X-40749000Y-96975000D01*
X-39749000Y-112575000D02*
X-40749000Y-112575000D01*
X-39449000Y-97275000D02*
X-40449000Y-97275000D01*
X-39449000Y-112350000D02*
X-40449000Y-112350000D01*
X-37809000Y-97775000D02*
X-37809000Y-95775000D01*
X-33849000Y-111760000D02*
X-39934000Y-111760000D01*
X-32949000Y-95775000D02*
X-37809000Y-95775000D01*
X-26449000Y-97275000D02*
X-25449000Y-97275000D01*
X-26449000Y-112350000D02*
X-25449000Y-112350000D01*
X-26149000Y-96975000D02*
X-25149000Y-96975000D01*
X-26149000Y-112575000D02*
X-25149000Y-112575000D01*
X-25964000Y-97790000D02*
X-25964000Y-111760000D01*
X-25964000Y-111760000D02*
X-32049000Y-111760000D01*
X-25449000Y-98275000D02*
X-25449000Y-97275000D01*
X-25449000Y-111350000D02*
X-25449000Y-112350000D01*
X-25149000Y-97975000D02*
X-25149000Y-96975000D01*
X-25149000Y-111575000D02*
X-25149000Y-112575000D01*
D11*
%TO.C,U1*%
X-22154000Y-1270000D02*
X-2850000Y-1270000D01*
X-22154000Y-35560000D02*
X-22154000Y-1270000D01*
D16*
X-19360000Y-3809996D02*
X-19360000Y-34289996D01*
D11*
X-17074000Y-3810000D02*
X-17074000Y-1270000D01*
X-7930000Y-3810000D02*
X-7930000Y-1270000D01*
D16*
X-4120000Y-34289996D02*
X-4120000Y-3809996D01*
D11*
X-2850000Y-35560000D02*
X-22154000Y-35560000D01*
X-2850000Y-35560000D02*
X-2850000Y-1270000D01*
D15*
%TO.C,SW37*%
X-207436500Y-78925000D02*
X-207436500Y-77925000D01*
X-207436500Y-92525000D02*
X-207436500Y-93525000D01*
X-207136500Y-79225000D02*
X-207136500Y-78225000D01*
X-207136500Y-92300000D02*
X-207136500Y-93300000D01*
X-206621500Y-78740000D02*
X-192651500Y-78740000D01*
X-206621500Y-92710000D02*
X-206621500Y-78740000D01*
X-206436500Y-77925000D02*
X-207436500Y-77925000D01*
X-206436500Y-93525000D02*
X-207436500Y-93525000D01*
X-206136500Y-78225000D02*
X-207136500Y-78225000D01*
X-206136500Y-93300000D02*
X-207136500Y-93300000D01*
X-204496500Y-78725000D02*
X-204496500Y-76725000D01*
X-200536500Y-92710000D02*
X-206621500Y-92710000D01*
X-199636500Y-76725000D02*
X-204496500Y-76725000D01*
X-193136500Y-78225000D02*
X-192136500Y-78225000D01*
X-193136500Y-93300000D02*
X-192136500Y-93300000D01*
X-192836500Y-77925000D02*
X-191836500Y-77925000D01*
X-192836500Y-93525000D02*
X-191836500Y-93525000D01*
X-192651500Y-78740000D02*
X-192651500Y-92710000D01*
X-192651500Y-92710000D02*
X-198736500Y-92710000D01*
X-192136500Y-79225000D02*
X-192136500Y-78225000D01*
X-192136500Y-92300000D02*
X-192136500Y-93300000D01*
X-191836500Y-78925000D02*
X-191836500Y-77925000D01*
X-191836500Y-92525000D02*
X-191836500Y-93525000D01*
%TO.C,SW2*%
X-193149000Y-2725000D02*
X-193149000Y-1725000D01*
X-193149000Y-16325000D02*
X-193149000Y-17325000D01*
X-192849000Y-3025000D02*
X-192849000Y-2025000D01*
X-192849000Y-16100000D02*
X-192849000Y-17100000D01*
X-192334000Y-2540000D02*
X-178364000Y-2540000D01*
X-192334000Y-16510000D02*
X-192334000Y-2540000D01*
X-192149000Y-1725000D02*
X-193149000Y-1725000D01*
X-192149000Y-17325000D02*
X-193149000Y-17325000D01*
X-191849000Y-2025000D02*
X-192849000Y-2025000D01*
X-191849000Y-17100000D02*
X-192849000Y-17100000D01*
X-190209000Y-2525000D02*
X-190209000Y-525000D01*
X-186249000Y-16510000D02*
X-192334000Y-16510000D01*
X-185349000Y-525000D02*
X-190209000Y-525000D01*
X-178849000Y-2025000D02*
X-177849000Y-2025000D01*
X-178849000Y-17100000D02*
X-177849000Y-17100000D01*
X-178549000Y-1725000D02*
X-177549000Y-1725000D01*
X-178549000Y-17325000D02*
X-177549000Y-17325000D01*
X-178364000Y-2540000D02*
X-178364000Y-16510000D01*
X-178364000Y-16510000D02*
X-184449000Y-16510000D01*
X-177849000Y-3025000D02*
X-177849000Y-2025000D01*
X-177849000Y-16100000D02*
X-177849000Y-17100000D01*
X-177549000Y-2725000D02*
X-177549000Y-1725000D01*
X-177549000Y-16325000D02*
X-177549000Y-17325000D01*
%TO.C,SW30*%
X-178861500Y-59875000D02*
X-178861500Y-58875000D01*
X-178861500Y-73475000D02*
X-178861500Y-74475000D01*
X-178561500Y-60175000D02*
X-178561500Y-59175000D01*
X-178561500Y-73250000D02*
X-178561500Y-74250000D01*
X-178046500Y-59690000D02*
X-164076500Y-59690000D01*
X-178046500Y-73660000D02*
X-178046500Y-59690000D01*
X-177861500Y-58875000D02*
X-178861500Y-58875000D01*
X-177861500Y-74475000D02*
X-178861500Y-74475000D01*
X-177561500Y-59175000D02*
X-178561500Y-59175000D01*
X-177561500Y-74250000D02*
X-178561500Y-74250000D01*
X-175921500Y-59675000D02*
X-175921500Y-57675000D01*
X-171961500Y-73660000D02*
X-178046500Y-73660000D01*
X-171061500Y-57675000D02*
X-175921500Y-57675000D01*
X-164561500Y-59175000D02*
X-163561500Y-59175000D01*
X-164561500Y-74250000D02*
X-163561500Y-74250000D01*
X-164261500Y-58875000D02*
X-163261500Y-58875000D01*
X-164261500Y-74475000D02*
X-163261500Y-74475000D01*
X-164076500Y-59690000D02*
X-164076500Y-73660000D01*
X-164076500Y-73660000D02*
X-170161500Y-73660000D01*
X-163561500Y-60175000D02*
X-163561500Y-59175000D01*
X-163561500Y-73250000D02*
X-163561500Y-74250000D01*
X-163261500Y-59875000D02*
X-163261500Y-58875000D01*
X-163261500Y-73475000D02*
X-163261500Y-74475000D01*
%TO.C,SW27*%
X-64561500Y-40825000D02*
X-64561500Y-39825000D01*
X-64561500Y-54425000D02*
X-64561500Y-55425000D01*
X-64261500Y-41125000D02*
X-64261500Y-40125000D01*
X-64261500Y-54200000D02*
X-64261500Y-55200000D01*
X-63746500Y-40640000D02*
X-49776500Y-40640000D01*
X-63746500Y-54610000D02*
X-63746500Y-40640000D01*
X-63561500Y-39825000D02*
X-64561500Y-39825000D01*
X-63561500Y-55425000D02*
X-64561500Y-55425000D01*
X-63261500Y-40125000D02*
X-64261500Y-40125000D01*
X-63261500Y-55200000D02*
X-64261500Y-55200000D01*
X-61621500Y-40625000D02*
X-61621500Y-38625000D01*
X-57661500Y-54610000D02*
X-63746500Y-54610000D01*
X-56761500Y-38625000D02*
X-61621500Y-38625000D01*
X-50261500Y-40125000D02*
X-49261500Y-40125000D01*
X-50261500Y-55200000D02*
X-49261500Y-55200000D01*
X-49961500Y-39825000D02*
X-48961500Y-39825000D01*
X-49961500Y-55425000D02*
X-48961500Y-55425000D01*
X-49776500Y-40640000D02*
X-49776500Y-54610000D01*
X-49776500Y-54610000D02*
X-55861500Y-54610000D01*
X-49261500Y-41125000D02*
X-49261500Y-40125000D01*
X-49261500Y-54200000D02*
X-49261500Y-55200000D01*
X-48961500Y-40825000D02*
X-48961500Y-39825000D01*
X-48961500Y-54425000D02*
X-48961500Y-55425000D01*
%TO.C,SW23*%
X-145524000Y-40825000D02*
X-145524000Y-39825000D01*
X-145524000Y-54425000D02*
X-145524000Y-55425000D01*
X-145224000Y-41125000D02*
X-145224000Y-40125000D01*
X-145224000Y-54200000D02*
X-145224000Y-55200000D01*
X-144709000Y-40640000D02*
X-130739000Y-40640000D01*
X-144709000Y-54610000D02*
X-144709000Y-40640000D01*
X-144524000Y-39825000D02*
X-145524000Y-39825000D01*
X-144524000Y-55425000D02*
X-145524000Y-55425000D01*
X-144224000Y-40125000D02*
X-145224000Y-40125000D01*
X-144224000Y-55200000D02*
X-145224000Y-55200000D01*
X-142584000Y-40625000D02*
X-142584000Y-38625000D01*
X-138624000Y-54610000D02*
X-144709000Y-54610000D01*
X-137724000Y-38625000D02*
X-142584000Y-38625000D01*
X-131224000Y-40125000D02*
X-130224000Y-40125000D01*
X-131224000Y-55200000D02*
X-130224000Y-55200000D01*
X-130924000Y-39825000D02*
X-129924000Y-39825000D01*
X-130924000Y-55425000D02*
X-129924000Y-55425000D01*
X-130739000Y-40640000D02*
X-130739000Y-54610000D01*
X-130739000Y-54610000D02*
X-136824000Y-54610000D01*
X-130224000Y-41125000D02*
X-130224000Y-40125000D01*
X-130224000Y-54200000D02*
X-130224000Y-55200000D01*
X-129924000Y-40825000D02*
X-129924000Y-39825000D01*
X-129924000Y-54425000D02*
X-129924000Y-55425000D01*
%TO.C,SW10*%
X-40749000Y-2725000D02*
X-40749000Y-1725000D01*
X-40749000Y-16325000D02*
X-40749000Y-17325000D01*
X-40449000Y-3025000D02*
X-40449000Y-2025000D01*
X-40449000Y-16100000D02*
X-40449000Y-17100000D01*
X-39934000Y-2540000D02*
X-25964000Y-2540000D01*
X-39934000Y-16510000D02*
X-39934000Y-2540000D01*
X-39749000Y-1725000D02*
X-40749000Y-1725000D01*
X-39749000Y-17325000D02*
X-40749000Y-17325000D01*
X-39449000Y-2025000D02*
X-40449000Y-2025000D01*
X-39449000Y-17100000D02*
X-40449000Y-17100000D01*
X-37809000Y-2525000D02*
X-37809000Y-525000D01*
X-33849000Y-16510000D02*
X-39934000Y-16510000D01*
X-32949000Y-525000D02*
X-37809000Y-525000D01*
X-26449000Y-2025000D02*
X-25449000Y-2025000D01*
X-26449000Y-17100000D02*
X-25449000Y-17100000D01*
X-26149000Y-1725000D02*
X-25149000Y-1725000D01*
X-26149000Y-17325000D02*
X-25149000Y-17325000D01*
X-25964000Y-2540000D02*
X-25964000Y-16510000D01*
X-25964000Y-16510000D02*
X-32049000Y-16510000D01*
X-25449000Y-3025000D02*
X-25449000Y-2025000D01*
X-25449000Y-16100000D02*
X-25449000Y-17100000D01*
X-25149000Y-2725000D02*
X-25149000Y-1725000D01*
X-25149000Y-16325000D02*
X-25149000Y-17325000D01*
%TO.C,SW16*%
X-116949000Y-21775000D02*
X-116949000Y-20775000D01*
X-116949000Y-35375000D02*
X-116949000Y-36375000D01*
X-116649000Y-22075000D02*
X-116649000Y-21075000D01*
X-116649000Y-35150000D02*
X-116649000Y-36150000D01*
X-116134000Y-21590000D02*
X-102164000Y-21590000D01*
X-116134000Y-35560000D02*
X-116134000Y-21590000D01*
X-115949000Y-20775000D02*
X-116949000Y-20775000D01*
X-115949000Y-36375000D02*
X-116949000Y-36375000D01*
X-115649000Y-21075000D02*
X-116649000Y-21075000D01*
X-115649000Y-36150000D02*
X-116649000Y-36150000D01*
X-114009000Y-21575000D02*
X-114009000Y-19575000D01*
X-110049000Y-35560000D02*
X-116134000Y-35560000D01*
X-109149000Y-19575000D02*
X-114009000Y-19575000D01*
X-102649000Y-21075000D02*
X-101649000Y-21075000D01*
X-102649000Y-36150000D02*
X-101649000Y-36150000D01*
X-102349000Y-20775000D02*
X-101349000Y-20775000D01*
X-102349000Y-36375000D02*
X-101349000Y-36375000D01*
X-102164000Y-21590000D02*
X-102164000Y-35560000D01*
X-102164000Y-35560000D02*
X-108249000Y-35560000D01*
X-101649000Y-22075000D02*
X-101649000Y-21075000D01*
X-101649000Y-35150000D02*
X-101649000Y-36150000D01*
X-101349000Y-21775000D02*
X-101349000Y-20775000D01*
X-101349000Y-35375000D02*
X-101349000Y-36375000D01*
%TO.C,SW22*%
X-164574000Y-40825000D02*
X-164574000Y-39825000D01*
X-164574000Y-54425000D02*
X-164574000Y-55425000D01*
X-164274000Y-41125000D02*
X-164274000Y-40125000D01*
X-164274000Y-54200000D02*
X-164274000Y-55200000D01*
X-163759000Y-40640000D02*
X-149789000Y-40640000D01*
X-163759000Y-54610000D02*
X-163759000Y-40640000D01*
X-163574000Y-39825000D02*
X-164574000Y-39825000D01*
X-163574000Y-55425000D02*
X-164574000Y-55425000D01*
X-163274000Y-40125000D02*
X-164274000Y-40125000D01*
X-163274000Y-55200000D02*
X-164274000Y-55200000D01*
X-161634000Y-40625000D02*
X-161634000Y-38625000D01*
X-157674000Y-54610000D02*
X-163759000Y-54610000D01*
X-156774000Y-38625000D02*
X-161634000Y-38625000D01*
X-150274000Y-40125000D02*
X-149274000Y-40125000D01*
X-150274000Y-55200000D02*
X-149274000Y-55200000D01*
X-149974000Y-39825000D02*
X-148974000Y-39825000D01*
X-149974000Y-55425000D02*
X-148974000Y-55425000D01*
X-149789000Y-40640000D02*
X-149789000Y-54610000D01*
X-149789000Y-54610000D02*
X-155874000Y-54610000D01*
X-149274000Y-41125000D02*
X-149274000Y-40125000D01*
X-149274000Y-54200000D02*
X-149274000Y-55200000D01*
X-148974000Y-40825000D02*
X-148974000Y-39825000D01*
X-148974000Y-54425000D02*
X-148974000Y-55425000D01*
%TO.C,SW39*%
X-169336500Y-78925000D02*
X-169336500Y-77925000D01*
X-169336500Y-92525000D02*
X-169336500Y-93525000D01*
X-169036500Y-79225000D02*
X-169036500Y-78225000D01*
X-169036500Y-92300000D02*
X-169036500Y-93300000D01*
X-168521500Y-78740000D02*
X-154551500Y-78740000D01*
X-168521500Y-92710000D02*
X-168521500Y-78740000D01*
X-168336500Y-77925000D02*
X-169336500Y-77925000D01*
X-168336500Y-93525000D02*
X-169336500Y-93525000D01*
X-168036500Y-78225000D02*
X-169036500Y-78225000D01*
X-168036500Y-93300000D02*
X-169036500Y-93300000D01*
X-166396500Y-78725000D02*
X-166396500Y-76725000D01*
X-162436500Y-92710000D02*
X-168521500Y-92710000D01*
X-161536500Y-76725000D02*
X-166396500Y-76725000D01*
X-155036500Y-78225000D02*
X-154036500Y-78225000D01*
X-155036500Y-93300000D02*
X-154036500Y-93300000D01*
X-154736500Y-77925000D02*
X-153736500Y-77925000D01*
X-154736500Y-93525000D02*
X-153736500Y-93525000D01*
X-154551500Y-78740000D02*
X-154551500Y-92710000D01*
X-154551500Y-92710000D02*
X-160636500Y-92710000D01*
X-154036500Y-79225000D02*
X-154036500Y-78225000D01*
X-154036500Y-92300000D02*
X-154036500Y-93300000D01*
X-153736500Y-78925000D02*
X-153736500Y-77925000D01*
X-153736500Y-92525000D02*
X-153736500Y-93525000D01*
%TO.C,SW13*%
X-174099000Y-21775000D02*
X-174099000Y-20775000D01*
X-174099000Y-35375000D02*
X-174099000Y-36375000D01*
X-173799000Y-22075000D02*
X-173799000Y-21075000D01*
X-173799000Y-35150000D02*
X-173799000Y-36150000D01*
X-173284000Y-21590000D02*
X-159314000Y-21590000D01*
X-173284000Y-35560000D02*
X-173284000Y-21590000D01*
X-173099000Y-20775000D02*
X-174099000Y-20775000D01*
X-173099000Y-36375000D02*
X-174099000Y-36375000D01*
X-172799000Y-21075000D02*
X-173799000Y-21075000D01*
X-172799000Y-36150000D02*
X-173799000Y-36150000D01*
X-171159000Y-21575000D02*
X-171159000Y-19575000D01*
X-167199000Y-35560000D02*
X-173284000Y-35560000D01*
X-166299000Y-19575000D02*
X-171159000Y-19575000D01*
X-159799000Y-21075000D02*
X-158799000Y-21075000D01*
X-159799000Y-36150000D02*
X-158799000Y-36150000D01*
X-159499000Y-20775000D02*
X-158499000Y-20775000D01*
X-159499000Y-36375000D02*
X-158499000Y-36375000D01*
X-159314000Y-21590000D02*
X-159314000Y-35560000D01*
X-159314000Y-35560000D02*
X-165399000Y-35560000D01*
X-158799000Y-22075000D02*
X-158799000Y-21075000D01*
X-158799000Y-35150000D02*
X-158799000Y-36150000D01*
X-158499000Y-21775000D02*
X-158499000Y-20775000D01*
X-158499000Y-35375000D02*
X-158499000Y-36375000D01*
%TO.C,SW21*%
X-183624000Y-40825000D02*
X-183624000Y-39825000D01*
X-183624000Y-54425000D02*
X-183624000Y-55425000D01*
X-183324000Y-41125000D02*
X-183324000Y-40125000D01*
X-183324000Y-54200000D02*
X-183324000Y-55200000D01*
X-182809000Y-40640000D02*
X-168839000Y-40640000D01*
X-182809000Y-54610000D02*
X-182809000Y-40640000D01*
X-182624000Y-39825000D02*
X-183624000Y-39825000D01*
X-182624000Y-55425000D02*
X-183624000Y-55425000D01*
X-182324000Y-40125000D02*
X-183324000Y-40125000D01*
X-182324000Y-55200000D02*
X-183324000Y-55200000D01*
X-180684000Y-40625000D02*
X-180684000Y-38625000D01*
X-176724000Y-54610000D02*
X-182809000Y-54610000D01*
X-175824000Y-38625000D02*
X-180684000Y-38625000D01*
X-169324000Y-40125000D02*
X-168324000Y-40125000D01*
X-169324000Y-55200000D02*
X-168324000Y-55200000D01*
X-169024000Y-39825000D02*
X-168024000Y-39825000D01*
X-169024000Y-55425000D02*
X-168024000Y-55425000D01*
X-168839000Y-40640000D02*
X-168839000Y-54610000D01*
X-168839000Y-54610000D02*
X-174924000Y-54610000D01*
X-168324000Y-41125000D02*
X-168324000Y-40125000D01*
X-168324000Y-54200000D02*
X-168324000Y-55200000D01*
X-168024000Y-40825000D02*
X-168024000Y-39825000D01*
X-168024000Y-54425000D02*
X-168024000Y-55425000D01*
%TO.C,SW42*%
X-112186500Y-78925000D02*
X-112186500Y-77925000D01*
X-112186500Y-92525000D02*
X-112186500Y-93525000D01*
X-111886500Y-79225000D02*
X-111886500Y-78225000D01*
X-111886500Y-92300000D02*
X-111886500Y-93300000D01*
X-111371500Y-78740000D02*
X-97401500Y-78740000D01*
X-111371500Y-92710000D02*
X-111371500Y-78740000D01*
X-111186500Y-77925000D02*
X-112186500Y-77925000D01*
X-111186500Y-93525000D02*
X-112186500Y-93525000D01*
X-110886500Y-78225000D02*
X-111886500Y-78225000D01*
X-110886500Y-93300000D02*
X-111886500Y-93300000D01*
X-109246500Y-78725000D02*
X-109246500Y-76725000D01*
X-105286500Y-92710000D02*
X-111371500Y-92710000D01*
X-104386500Y-76725000D02*
X-109246500Y-76725000D01*
X-97886500Y-78225000D02*
X-96886500Y-78225000D01*
X-97886500Y-93300000D02*
X-96886500Y-93300000D01*
X-97586500Y-77925000D02*
X-96586500Y-77925000D01*
X-97586500Y-93525000D02*
X-96586500Y-93525000D01*
X-97401500Y-78740000D02*
X-97401500Y-92710000D01*
X-97401500Y-92710000D02*
X-103486500Y-92710000D01*
X-96886500Y-79225000D02*
X-96886500Y-78225000D01*
X-96886500Y-92300000D02*
X-96886500Y-93300000D01*
X-96586500Y-78925000D02*
X-96586500Y-77925000D01*
X-96586500Y-92525000D02*
X-96586500Y-93525000D01*
%TO.C,SW43*%
X-85992750Y-78925000D02*
X-85992750Y-77925000D01*
X-85992750Y-92525000D02*
X-85992750Y-93525000D01*
X-85692750Y-79225000D02*
X-85692750Y-78225000D01*
X-85692750Y-92300000D02*
X-85692750Y-93300000D01*
X-85177750Y-78740000D02*
X-71207750Y-78740000D01*
X-85177750Y-92710000D02*
X-85177750Y-78740000D01*
X-84992750Y-77925000D02*
X-85992750Y-77925000D01*
X-84992750Y-93525000D02*
X-85992750Y-93525000D01*
X-84692750Y-78225000D02*
X-85692750Y-78225000D01*
X-84692750Y-93300000D02*
X-85692750Y-93300000D01*
X-83052750Y-78725000D02*
X-83052750Y-76725000D01*
X-79092750Y-92710000D02*
X-85177750Y-92710000D01*
X-78192750Y-76725000D02*
X-83052750Y-76725000D01*
X-71692750Y-78225000D02*
X-70692750Y-78225000D01*
X-71692750Y-93300000D02*
X-70692750Y-93300000D01*
X-71392750Y-77925000D02*
X-70392750Y-77925000D01*
X-71392750Y-93525000D02*
X-70392750Y-93525000D01*
X-71207750Y-78740000D02*
X-71207750Y-92710000D01*
X-71207750Y-92710000D02*
X-77292750Y-92710000D01*
X-70692750Y-79225000D02*
X-70692750Y-78225000D01*
X-70692750Y-92300000D02*
X-70692750Y-93300000D01*
X-70392750Y-78925000D02*
X-70392750Y-77925000D01*
X-70392750Y-92525000D02*
X-70392750Y-93525000D01*
%TO.C,SW4*%
X-155049000Y-2725000D02*
X-155049000Y-1725000D01*
X-155049000Y-16325000D02*
X-155049000Y-17325000D01*
X-154749000Y-3025000D02*
X-154749000Y-2025000D01*
X-154749000Y-16100000D02*
X-154749000Y-17100000D01*
X-154234000Y-2540000D02*
X-140264000Y-2540000D01*
X-154234000Y-16510000D02*
X-154234000Y-2540000D01*
X-154049000Y-1725000D02*
X-155049000Y-1725000D01*
X-154049000Y-17325000D02*
X-155049000Y-17325000D01*
X-153749000Y-2025000D02*
X-154749000Y-2025000D01*
X-153749000Y-17100000D02*
X-154749000Y-17100000D01*
X-152109000Y-2525000D02*
X-152109000Y-525000D01*
X-148149000Y-16510000D02*
X-154234000Y-16510000D01*
X-147249000Y-525000D02*
X-152109000Y-525000D01*
X-140749000Y-2025000D02*
X-139749000Y-2025000D01*
X-140749000Y-17100000D02*
X-139749000Y-17100000D01*
X-140449000Y-1725000D02*
X-139449000Y-1725000D01*
X-140449000Y-17325000D02*
X-139449000Y-17325000D01*
X-140264000Y-2540000D02*
X-140264000Y-16510000D01*
X-140264000Y-16510000D02*
X-146349000Y-16510000D01*
X-139749000Y-3025000D02*
X-139749000Y-2025000D01*
X-139749000Y-16100000D02*
X-139749000Y-17100000D01*
X-139449000Y-2725000D02*
X-139449000Y-1725000D01*
X-139449000Y-16325000D02*
X-139449000Y-17325000D01*
%TO.C,SW17*%
X-97899000Y-21775000D02*
X-97899000Y-20775000D01*
X-97899000Y-35375000D02*
X-97899000Y-36375000D01*
X-97599000Y-22075000D02*
X-97599000Y-21075000D01*
X-97599000Y-35150000D02*
X-97599000Y-36150000D01*
X-97084000Y-21590000D02*
X-83114000Y-21590000D01*
X-97084000Y-35560000D02*
X-97084000Y-21590000D01*
X-96899000Y-20775000D02*
X-97899000Y-20775000D01*
X-96899000Y-36375000D02*
X-97899000Y-36375000D01*
X-96599000Y-21075000D02*
X-97599000Y-21075000D01*
X-96599000Y-36150000D02*
X-97599000Y-36150000D01*
X-94959000Y-21575000D02*
X-94959000Y-19575000D01*
X-90999000Y-35560000D02*
X-97084000Y-35560000D01*
X-90099000Y-19575000D02*
X-94959000Y-19575000D01*
X-83599000Y-21075000D02*
X-82599000Y-21075000D01*
X-83599000Y-36150000D02*
X-82599000Y-36150000D01*
X-83299000Y-20775000D02*
X-82299000Y-20775000D01*
X-83299000Y-36375000D02*
X-82299000Y-36375000D01*
X-83114000Y-21590000D02*
X-83114000Y-35560000D01*
X-83114000Y-35560000D02*
X-89199000Y-35560000D01*
X-82599000Y-22075000D02*
X-82599000Y-21075000D01*
X-82599000Y-35150000D02*
X-82599000Y-36150000D01*
X-82299000Y-21775000D02*
X-82299000Y-20775000D01*
X-82299000Y-35375000D02*
X-82299000Y-36375000D01*
%TO.C,SW11*%
X-212199000Y-21775000D02*
X-212199000Y-20775000D01*
X-212199000Y-35375000D02*
X-212199000Y-36375000D01*
X-211899000Y-22075000D02*
X-211899000Y-21075000D01*
X-211899000Y-35150000D02*
X-211899000Y-36150000D01*
X-211384000Y-21590000D02*
X-197414000Y-21590000D01*
X-211384000Y-35560000D02*
X-211384000Y-21590000D01*
X-211199000Y-20775000D02*
X-212199000Y-20775000D01*
X-211199000Y-36375000D02*
X-212199000Y-36375000D01*
X-210899000Y-21075000D02*
X-211899000Y-21075000D01*
X-210899000Y-36150000D02*
X-211899000Y-36150000D01*
X-209259000Y-21575000D02*
X-209259000Y-19575000D01*
X-205299000Y-35560000D02*
X-211384000Y-35560000D01*
X-204399000Y-19575000D02*
X-209259000Y-19575000D01*
X-197899000Y-21075000D02*
X-196899000Y-21075000D01*
X-197899000Y-36150000D02*
X-196899000Y-36150000D01*
X-197599000Y-20775000D02*
X-196599000Y-20775000D01*
X-197599000Y-36375000D02*
X-196599000Y-36375000D01*
X-197414000Y-21590000D02*
X-197414000Y-35560000D01*
X-197414000Y-35560000D02*
X-203499000Y-35560000D01*
X-196899000Y-22075000D02*
X-196899000Y-21075000D01*
X-196899000Y-35150000D02*
X-196899000Y-36150000D01*
X-196599000Y-21775000D02*
X-196599000Y-20775000D01*
X-196599000Y-35375000D02*
X-196599000Y-36375000D01*
%TO.C,SW48*%
X-140761500Y-97975000D02*
X-140761500Y-96975000D01*
X-140761500Y-111575000D02*
X-140761500Y-112575000D01*
X-140461500Y-98275000D02*
X-140461500Y-97275000D01*
X-140461500Y-111350000D02*
X-140461500Y-112350000D01*
X-139946500Y-97790000D02*
X-125976500Y-97790000D01*
X-139946500Y-111760000D02*
X-139946500Y-97790000D01*
X-139761500Y-96975000D02*
X-140761500Y-96975000D01*
X-139761500Y-112575000D02*
X-140761500Y-112575000D01*
X-139461500Y-97275000D02*
X-140461500Y-97275000D01*
X-139461500Y-112350000D02*
X-140461500Y-112350000D01*
X-137821500Y-97775000D02*
X-137821500Y-95775000D01*
X-133861500Y-111760000D02*
X-139946500Y-111760000D01*
X-132961500Y-95775000D02*
X-137821500Y-95775000D01*
X-126461500Y-97275000D02*
X-125461500Y-97275000D01*
X-126461500Y-112350000D02*
X-125461500Y-112350000D01*
X-126161500Y-96975000D02*
X-125161500Y-96975000D01*
X-126161500Y-112575000D02*
X-125161500Y-112575000D01*
X-125976500Y-97790000D02*
X-125976500Y-111760000D01*
X-125976500Y-111760000D02*
X-132061500Y-111760000D01*
X-125461500Y-98275000D02*
X-125461500Y-97275000D01*
X-125461500Y-111350000D02*
X-125461500Y-112350000D01*
X-125161500Y-97975000D02*
X-125161500Y-96975000D01*
X-125161500Y-111575000D02*
X-125161500Y-112575000D01*
%TO.C,SW15*%
X-135999000Y-21775000D02*
X-135999000Y-20775000D01*
X-135999000Y-35375000D02*
X-135999000Y-36375000D01*
X-135699000Y-22075000D02*
X-135699000Y-21075000D01*
X-135699000Y-35150000D02*
X-135699000Y-36150000D01*
X-135184000Y-21590000D02*
X-121214000Y-21590000D01*
X-135184000Y-35560000D02*
X-135184000Y-21590000D01*
X-134999000Y-20775000D02*
X-135999000Y-20775000D01*
X-134999000Y-36375000D02*
X-135999000Y-36375000D01*
X-134699000Y-21075000D02*
X-135699000Y-21075000D01*
X-134699000Y-36150000D02*
X-135699000Y-36150000D01*
X-133059000Y-21575000D02*
X-133059000Y-19575000D01*
X-129099000Y-35560000D02*
X-135184000Y-35560000D01*
X-128199000Y-19575000D02*
X-133059000Y-19575000D01*
X-121699000Y-21075000D02*
X-120699000Y-21075000D01*
X-121699000Y-36150000D02*
X-120699000Y-36150000D01*
X-121399000Y-20775000D02*
X-120399000Y-20775000D01*
X-121399000Y-36375000D02*
X-120399000Y-36375000D01*
X-121214000Y-21590000D02*
X-121214000Y-35560000D01*
X-121214000Y-35560000D02*
X-127299000Y-35560000D01*
X-120699000Y-22075000D02*
X-120699000Y-21075000D01*
X-120699000Y-35150000D02*
X-120699000Y-36150000D01*
X-120399000Y-21775000D02*
X-120399000Y-20775000D01*
X-120399000Y-35375000D02*
X-120399000Y-36375000D01*
%TO.C,SW26*%
X-88374000Y-40825000D02*
X-88374000Y-39825000D01*
X-88374000Y-54425000D02*
X-88374000Y-55425000D01*
X-88074000Y-41125000D02*
X-88074000Y-40125000D01*
X-88074000Y-54200000D02*
X-88074000Y-55200000D01*
X-87559000Y-40640000D02*
X-73589000Y-40640000D01*
X-87559000Y-54610000D02*
X-87559000Y-40640000D01*
X-87374000Y-39825000D02*
X-88374000Y-39825000D01*
X-87374000Y-55425000D02*
X-88374000Y-55425000D01*
X-87074000Y-40125000D02*
X-88074000Y-40125000D01*
X-87074000Y-55200000D02*
X-88074000Y-55200000D01*
X-85434000Y-40625000D02*
X-85434000Y-38625000D01*
X-81474000Y-54610000D02*
X-87559000Y-54610000D01*
X-80574000Y-38625000D02*
X-85434000Y-38625000D01*
X-74074000Y-40125000D02*
X-73074000Y-40125000D01*
X-74074000Y-55200000D02*
X-73074000Y-55200000D01*
X-73774000Y-39825000D02*
X-72774000Y-39825000D01*
X-73774000Y-55425000D02*
X-72774000Y-55425000D01*
X-73589000Y-40640000D02*
X-73589000Y-54610000D01*
X-73589000Y-54610000D02*
X-79674000Y-54610000D01*
X-73074000Y-41125000D02*
X-73074000Y-40125000D01*
X-73074000Y-54200000D02*
X-73074000Y-55200000D01*
X-72774000Y-40825000D02*
X-72774000Y-39825000D01*
X-72774000Y-54425000D02*
X-72774000Y-55425000D01*
%TO.C,SW24*%
X-126474000Y-40825000D02*
X-126474000Y-39825000D01*
X-126474000Y-54425000D02*
X-126474000Y-55425000D01*
X-126174000Y-41125000D02*
X-126174000Y-40125000D01*
X-126174000Y-54200000D02*
X-126174000Y-55200000D01*
X-125659000Y-40640000D02*
X-111689000Y-40640000D01*
X-125659000Y-54610000D02*
X-125659000Y-40640000D01*
X-125474000Y-39825000D02*
X-126474000Y-39825000D01*
X-125474000Y-55425000D02*
X-126474000Y-55425000D01*
X-125174000Y-40125000D02*
X-126174000Y-40125000D01*
X-125174000Y-55200000D02*
X-126174000Y-55200000D01*
X-123534000Y-40625000D02*
X-123534000Y-38625000D01*
X-119574000Y-54610000D02*
X-125659000Y-54610000D01*
X-118674000Y-38625000D02*
X-123534000Y-38625000D01*
X-112174000Y-40125000D02*
X-111174000Y-40125000D01*
X-112174000Y-55200000D02*
X-111174000Y-55200000D01*
X-111874000Y-39825000D02*
X-110874000Y-39825000D01*
X-111874000Y-55425000D02*
X-110874000Y-55425000D01*
X-111689000Y-40640000D02*
X-111689000Y-54610000D01*
X-111689000Y-54610000D02*
X-117774000Y-54610000D01*
X-111174000Y-41125000D02*
X-111174000Y-40125000D01*
X-111174000Y-54200000D02*
X-111174000Y-55200000D01*
X-110874000Y-40825000D02*
X-110874000Y-39825000D01*
X-110874000Y-54425000D02*
X-110874000Y-55425000D01*
%TO.C,SW46*%
X-188386500Y-97975000D02*
X-188386500Y-96975000D01*
X-188386500Y-111575000D02*
X-188386500Y-112575000D01*
X-188086500Y-98275000D02*
X-188086500Y-97275000D01*
X-188086500Y-111350000D02*
X-188086500Y-112350000D01*
X-187571500Y-97790000D02*
X-173601500Y-97790000D01*
X-187571500Y-111760000D02*
X-187571500Y-97790000D01*
X-187386500Y-96975000D02*
X-188386500Y-96975000D01*
X-187386500Y-112575000D02*
X-188386500Y-112575000D01*
X-187086500Y-97275000D02*
X-188086500Y-97275000D01*
X-187086500Y-112350000D02*
X-188086500Y-112350000D01*
X-185446500Y-97775000D02*
X-185446500Y-95775000D01*
X-181486500Y-111760000D02*
X-187571500Y-111760000D01*
X-180586500Y-95775000D02*
X-185446500Y-95775000D01*
X-174086500Y-97275000D02*
X-173086500Y-97275000D01*
X-174086500Y-112350000D02*
X-173086500Y-112350000D01*
X-173786500Y-96975000D02*
X-172786500Y-96975000D01*
X-173786500Y-112575000D02*
X-172786500Y-112575000D01*
X-173601500Y-97790000D02*
X-173601500Y-111760000D01*
X-173601500Y-111760000D02*
X-179686500Y-111760000D01*
X-173086500Y-98275000D02*
X-173086500Y-97275000D01*
X-173086500Y-111350000D02*
X-173086500Y-112350000D01*
X-172786500Y-97975000D02*
X-172786500Y-96975000D01*
X-172786500Y-111575000D02*
X-172786500Y-112575000D01*
%TO.C,SW45*%
X-40749000Y-78925000D02*
X-40749000Y-77925000D01*
X-40749000Y-92525000D02*
X-40749000Y-93525000D01*
X-40449000Y-79225000D02*
X-40449000Y-78225000D01*
X-40449000Y-92300000D02*
X-40449000Y-93300000D01*
X-39934000Y-78740000D02*
X-25964000Y-78740000D01*
X-39934000Y-92710000D02*
X-39934000Y-78740000D01*
X-39749000Y-77925000D02*
X-40749000Y-77925000D01*
X-39749000Y-93525000D02*
X-40749000Y-93525000D01*
X-39449000Y-78225000D02*
X-40449000Y-78225000D01*
X-39449000Y-93300000D02*
X-40449000Y-93300000D01*
X-37809000Y-78725000D02*
X-37809000Y-76725000D01*
X-33849000Y-92710000D02*
X-39934000Y-92710000D01*
X-32949000Y-76725000D02*
X-37809000Y-76725000D01*
X-26449000Y-78225000D02*
X-25449000Y-78225000D01*
X-26449000Y-93300000D02*
X-25449000Y-93300000D01*
X-26149000Y-77925000D02*
X-25149000Y-77925000D01*
X-26149000Y-93525000D02*
X-25149000Y-93525000D01*
X-25964000Y-78740000D02*
X-25964000Y-92710000D01*
X-25964000Y-92710000D02*
X-32049000Y-92710000D01*
X-25449000Y-79225000D02*
X-25449000Y-78225000D01*
X-25449000Y-92300000D02*
X-25449000Y-93300000D01*
X-25149000Y-78925000D02*
X-25149000Y-77925000D01*
X-25149000Y-92525000D02*
X-25149000Y-93525000D01*
%TO.C,SW9*%
X-59799000Y-2725000D02*
X-59799000Y-1725000D01*
X-59799000Y-16325000D02*
X-59799000Y-17325000D01*
X-59499000Y-3025000D02*
X-59499000Y-2025000D01*
X-59499000Y-16100000D02*
X-59499000Y-17100000D01*
X-58984000Y-2540000D02*
X-45014000Y-2540000D01*
X-58984000Y-16510000D02*
X-58984000Y-2540000D01*
X-58799000Y-1725000D02*
X-59799000Y-1725000D01*
X-58799000Y-17325000D02*
X-59799000Y-17325000D01*
X-58499000Y-2025000D02*
X-59499000Y-2025000D01*
X-58499000Y-17100000D02*
X-59499000Y-17100000D01*
X-56859000Y-2525000D02*
X-56859000Y-525000D01*
X-52899000Y-16510000D02*
X-58984000Y-16510000D01*
X-51999000Y-525000D02*
X-56859000Y-525000D01*
X-45499000Y-2025000D02*
X-44499000Y-2025000D01*
X-45499000Y-17100000D02*
X-44499000Y-17100000D01*
X-45199000Y-1725000D02*
X-44199000Y-1725000D01*
X-45199000Y-17325000D02*
X-44199000Y-17325000D01*
X-45014000Y-2540000D02*
X-45014000Y-16510000D01*
X-45014000Y-16510000D02*
X-51099000Y-16510000D01*
X-44499000Y-3025000D02*
X-44499000Y-2025000D01*
X-44499000Y-16100000D02*
X-44499000Y-17100000D01*
X-44199000Y-2725000D02*
X-44199000Y-1725000D01*
X-44199000Y-16325000D02*
X-44199000Y-17325000D01*
%TO.C,SW44*%
X-59799000Y-78925000D02*
X-59799000Y-77925000D01*
X-59799000Y-92525000D02*
X-59799000Y-93525000D01*
X-59499000Y-79225000D02*
X-59499000Y-78225000D01*
X-59499000Y-92300000D02*
X-59499000Y-93300000D01*
X-58984000Y-78740000D02*
X-45014000Y-78740000D01*
X-58984000Y-92710000D02*
X-58984000Y-78740000D01*
X-58799000Y-77925000D02*
X-59799000Y-77925000D01*
X-58799000Y-93525000D02*
X-59799000Y-93525000D01*
X-58499000Y-78225000D02*
X-59499000Y-78225000D01*
X-58499000Y-93300000D02*
X-59499000Y-93300000D01*
X-56859000Y-78725000D02*
X-56859000Y-76725000D01*
X-52899000Y-92710000D02*
X-58984000Y-92710000D01*
X-51999000Y-76725000D02*
X-56859000Y-76725000D01*
X-45499000Y-78225000D02*
X-44499000Y-78225000D01*
X-45499000Y-93300000D02*
X-44499000Y-93300000D01*
X-45199000Y-77925000D02*
X-44199000Y-77925000D01*
X-45199000Y-93525000D02*
X-44199000Y-93525000D01*
X-45014000Y-78740000D02*
X-45014000Y-92710000D01*
X-45014000Y-92710000D02*
X-51099000Y-92710000D01*
X-44499000Y-79225000D02*
X-44499000Y-78225000D01*
X-44499000Y-92300000D02*
X-44499000Y-93300000D01*
X-44199000Y-78925000D02*
X-44199000Y-77925000D01*
X-44199000Y-92525000D02*
X-44199000Y-93525000D01*
%TO.C,SW28*%
X-40749000Y-40825000D02*
X-40749000Y-39825000D01*
X-40749000Y-54425000D02*
X-40749000Y-55425000D01*
X-40449000Y-41125000D02*
X-40449000Y-40125000D01*
X-40449000Y-54200000D02*
X-40449000Y-55200000D01*
X-39934000Y-40640000D02*
X-25964000Y-40640000D01*
X-39934000Y-54610000D02*
X-39934000Y-40640000D01*
X-39749000Y-39825000D02*
X-40749000Y-39825000D01*
X-39749000Y-55425000D02*
X-40749000Y-55425000D01*
X-39449000Y-40125000D02*
X-40449000Y-40125000D01*
X-39449000Y-55200000D02*
X-40449000Y-55200000D01*
X-37809000Y-40625000D02*
X-37809000Y-38625000D01*
X-33849000Y-54610000D02*
X-39934000Y-54610000D01*
X-32949000Y-38625000D02*
X-37809000Y-38625000D01*
X-26449000Y-40125000D02*
X-25449000Y-40125000D01*
X-26449000Y-55200000D02*
X-25449000Y-55200000D01*
X-26149000Y-39825000D02*
X-25149000Y-39825000D01*
X-26149000Y-55425000D02*
X-25149000Y-55425000D01*
X-25964000Y-40640000D02*
X-25964000Y-54610000D01*
X-25964000Y-54610000D02*
X-32049000Y-54610000D01*
X-25449000Y-41125000D02*
X-25449000Y-40125000D01*
X-25449000Y-54200000D02*
X-25449000Y-55200000D01*
X-25149000Y-40825000D02*
X-25149000Y-39825000D01*
X-25149000Y-54425000D02*
X-25149000Y-55425000D01*
%TO.C,SW47*%
X-159811500Y-97975000D02*
X-159811500Y-96975000D01*
X-159811500Y-111575000D02*
X-159811500Y-112575000D01*
X-159511500Y-98275000D02*
X-159511500Y-97275000D01*
X-159511500Y-111350000D02*
X-159511500Y-112350000D01*
X-158996500Y-97790000D02*
X-145026500Y-97790000D01*
X-158996500Y-111760000D02*
X-158996500Y-97790000D01*
X-158811500Y-96975000D02*
X-159811500Y-96975000D01*
X-158811500Y-112575000D02*
X-159811500Y-112575000D01*
X-158511500Y-97275000D02*
X-159511500Y-97275000D01*
X-158511500Y-112350000D02*
X-159511500Y-112350000D01*
X-156871500Y-97775000D02*
X-156871500Y-95775000D01*
X-152911500Y-111760000D02*
X-158996500Y-111760000D01*
X-152011500Y-95775000D02*
X-156871500Y-95775000D01*
X-145511500Y-97275000D02*
X-144511500Y-97275000D01*
X-145511500Y-112350000D02*
X-144511500Y-112350000D01*
X-145211500Y-96975000D02*
X-144211500Y-96975000D01*
X-145211500Y-112575000D02*
X-144211500Y-112575000D01*
X-145026500Y-97790000D02*
X-145026500Y-111760000D01*
X-145026500Y-111760000D02*
X-151111500Y-111760000D01*
X-144511500Y-98275000D02*
X-144511500Y-97275000D01*
X-144511500Y-111350000D02*
X-144511500Y-112350000D01*
X-144211500Y-97975000D02*
X-144211500Y-96975000D01*
X-144211500Y-111575000D02*
X-144211500Y-112575000D01*
%TO.C,SW32*%
X-140761500Y-59875000D02*
X-140761500Y-58875000D01*
X-140761500Y-73475000D02*
X-140761500Y-74475000D01*
X-140461500Y-60175000D02*
X-140461500Y-59175000D01*
X-140461500Y-73250000D02*
X-140461500Y-74250000D01*
X-139946500Y-59690000D02*
X-125976500Y-59690000D01*
X-139946500Y-73660000D02*
X-139946500Y-59690000D01*
X-139761500Y-58875000D02*
X-140761500Y-58875000D01*
X-139761500Y-74475000D02*
X-140761500Y-74475000D01*
X-139461500Y-59175000D02*
X-140461500Y-59175000D01*
X-139461500Y-74250000D02*
X-140461500Y-74250000D01*
X-137821500Y-59675000D02*
X-137821500Y-57675000D01*
X-133861500Y-73660000D02*
X-139946500Y-73660000D01*
X-132961500Y-57675000D02*
X-137821500Y-57675000D01*
X-126461500Y-59175000D02*
X-125461500Y-59175000D01*
X-126461500Y-74250000D02*
X-125461500Y-74250000D01*
X-126161500Y-58875000D02*
X-125161500Y-58875000D01*
X-126161500Y-74475000D02*
X-125161500Y-74475000D01*
X-125976500Y-59690000D02*
X-125976500Y-73660000D01*
X-125976500Y-73660000D02*
X-132061500Y-73660000D01*
X-125461500Y-60175000D02*
X-125461500Y-59175000D01*
X-125461500Y-73250000D02*
X-125461500Y-74250000D01*
X-125161500Y-59875000D02*
X-125161500Y-58875000D01*
X-125161500Y-73475000D02*
X-125161500Y-74475000D01*
%TO.C,SW18*%
X-69324000Y-21775000D02*
X-69324000Y-20775000D01*
X-69324000Y-35375000D02*
X-69324000Y-36375000D01*
X-69024000Y-22075000D02*
X-69024000Y-21075000D01*
X-69024000Y-35150000D02*
X-69024000Y-36150000D01*
X-68509000Y-21590000D02*
X-54539000Y-21590000D01*
X-68509000Y-35560000D02*
X-68509000Y-21590000D01*
X-68324000Y-20775000D02*
X-69324000Y-20775000D01*
X-68324000Y-36375000D02*
X-69324000Y-36375000D01*
X-68024000Y-21075000D02*
X-69024000Y-21075000D01*
X-68024000Y-36150000D02*
X-69024000Y-36150000D01*
X-66384000Y-21575000D02*
X-66384000Y-19575000D01*
X-62424000Y-35560000D02*
X-68509000Y-35560000D01*
X-61524000Y-19575000D02*
X-66384000Y-19575000D01*
X-55024000Y-21075000D02*
X-54024000Y-21075000D01*
X-55024000Y-36150000D02*
X-54024000Y-36150000D01*
X-54724000Y-20775000D02*
X-53724000Y-20775000D01*
X-54724000Y-36375000D02*
X-53724000Y-36375000D01*
X-54539000Y-21590000D02*
X-54539000Y-35560000D01*
X-54539000Y-35560000D02*
X-60624000Y-35560000D01*
X-54024000Y-22075000D02*
X-54024000Y-21075000D01*
X-54024000Y-35150000D02*
X-54024000Y-36150000D01*
X-53724000Y-21775000D02*
X-53724000Y-20775000D01*
X-53724000Y-35375000D02*
X-53724000Y-36375000D01*
%TO.C,SW51*%
X-78849000Y-97975000D02*
X-78849000Y-96975000D01*
X-78849000Y-111575000D02*
X-78849000Y-112575000D01*
X-78549000Y-98275000D02*
X-78549000Y-97275000D01*
X-78549000Y-111350000D02*
X-78549000Y-112350000D01*
X-78034000Y-97790000D02*
X-64064000Y-97790000D01*
X-78034000Y-111760000D02*
X-78034000Y-97790000D01*
X-77849000Y-96975000D02*
X-78849000Y-96975000D01*
X-77849000Y-112575000D02*
X-78849000Y-112575000D01*
X-77549000Y-97275000D02*
X-78549000Y-97275000D01*
X-77549000Y-112350000D02*
X-78549000Y-112350000D01*
X-75909000Y-97775000D02*
X-75909000Y-95775000D01*
X-71949000Y-111760000D02*
X-78034000Y-111760000D01*
X-71049000Y-95775000D02*
X-75909000Y-95775000D01*
X-64549000Y-97275000D02*
X-63549000Y-97275000D01*
X-64549000Y-112350000D02*
X-63549000Y-112350000D01*
X-64249000Y-96975000D02*
X-63249000Y-96975000D01*
X-64249000Y-112575000D02*
X-63249000Y-112575000D01*
X-64064000Y-97790000D02*
X-64064000Y-111760000D01*
X-64064000Y-111760000D02*
X-70149000Y-111760000D01*
X-63549000Y-98275000D02*
X-63549000Y-97275000D01*
X-63549000Y-111350000D02*
X-63549000Y-112350000D01*
X-63249000Y-97975000D02*
X-63249000Y-96975000D01*
X-63249000Y-111575000D02*
X-63249000Y-112575000D01*
%TO.C,SW49*%
X-121711500Y-97975000D02*
X-121711500Y-96975000D01*
X-121711500Y-111575000D02*
X-121711500Y-112575000D01*
X-121411500Y-98275000D02*
X-121411500Y-97275000D01*
X-121411500Y-111350000D02*
X-121411500Y-112350000D01*
X-120896500Y-97790000D02*
X-106926500Y-97790000D01*
X-120896500Y-111760000D02*
X-120896500Y-97790000D01*
X-120711500Y-96975000D02*
X-121711500Y-96975000D01*
X-120711500Y-112575000D02*
X-121711500Y-112575000D01*
X-120411500Y-97275000D02*
X-121411500Y-97275000D01*
X-120411500Y-112350000D02*
X-121411500Y-112350000D01*
X-118771500Y-97775000D02*
X-118771500Y-95775000D01*
X-114811500Y-111760000D02*
X-120896500Y-111760000D01*
X-113911500Y-95775000D02*
X-118771500Y-95775000D01*
X-107411500Y-97275000D02*
X-106411500Y-97275000D01*
X-107411500Y-112350000D02*
X-106411500Y-112350000D01*
X-107111500Y-96975000D02*
X-106111500Y-96975000D01*
X-107111500Y-112575000D02*
X-106111500Y-112575000D01*
X-106926500Y-97790000D02*
X-106926500Y-111760000D01*
X-106926500Y-111760000D02*
X-113011500Y-111760000D01*
X-106411500Y-98275000D02*
X-106411500Y-97275000D01*
X-106411500Y-111350000D02*
X-106411500Y-112350000D01*
X-106111500Y-97975000D02*
X-106111500Y-96975000D01*
X-106111500Y-111575000D02*
X-106111500Y-112575000D01*
%TO.C,SW14*%
X-155049000Y-21775000D02*
X-155049000Y-20775000D01*
X-155049000Y-35375000D02*
X-155049000Y-36375000D01*
X-154749000Y-22075000D02*
X-154749000Y-21075000D01*
X-154749000Y-35150000D02*
X-154749000Y-36150000D01*
X-154234000Y-21590000D02*
X-140264000Y-21590000D01*
X-154234000Y-35560000D02*
X-154234000Y-21590000D01*
X-154049000Y-20775000D02*
X-155049000Y-20775000D01*
X-154049000Y-36375000D02*
X-155049000Y-36375000D01*
X-153749000Y-21075000D02*
X-154749000Y-21075000D01*
X-153749000Y-36150000D02*
X-154749000Y-36150000D01*
X-152109000Y-21575000D02*
X-152109000Y-19575000D01*
X-148149000Y-35560000D02*
X-154234000Y-35560000D01*
X-147249000Y-19575000D02*
X-152109000Y-19575000D01*
X-140749000Y-21075000D02*
X-139749000Y-21075000D01*
X-140749000Y-36150000D02*
X-139749000Y-36150000D01*
X-140449000Y-20775000D02*
X-139449000Y-20775000D01*
X-140449000Y-36375000D02*
X-139449000Y-36375000D01*
X-140264000Y-21590000D02*
X-140264000Y-35560000D01*
X-140264000Y-35560000D02*
X-146349000Y-35560000D01*
X-139749000Y-22075000D02*
X-139749000Y-21075000D01*
X-139749000Y-35150000D02*
X-139749000Y-36150000D01*
X-139449000Y-21775000D02*
X-139449000Y-20775000D01*
X-139449000Y-35375000D02*
X-139449000Y-36375000D01*
%TO.C,SW3*%
X-174099000Y-2725000D02*
X-174099000Y-1725000D01*
X-174099000Y-16325000D02*
X-174099000Y-17325000D01*
X-173799000Y-3025000D02*
X-173799000Y-2025000D01*
X-173799000Y-16100000D02*
X-173799000Y-17100000D01*
X-173284000Y-2540000D02*
X-159314000Y-2540000D01*
X-173284000Y-16510000D02*
X-173284000Y-2540000D01*
X-173099000Y-1725000D02*
X-174099000Y-1725000D01*
X-173099000Y-17325000D02*
X-174099000Y-17325000D01*
X-172799000Y-2025000D02*
X-173799000Y-2025000D01*
X-172799000Y-17100000D02*
X-173799000Y-17100000D01*
X-171159000Y-2525000D02*
X-171159000Y-525000D01*
X-167199000Y-16510000D02*
X-173284000Y-16510000D01*
X-166299000Y-525000D02*
X-171159000Y-525000D01*
X-159799000Y-2025000D02*
X-158799000Y-2025000D01*
X-159799000Y-17100000D02*
X-158799000Y-17100000D01*
X-159499000Y-1725000D02*
X-158499000Y-1725000D01*
X-159499000Y-17325000D02*
X-158499000Y-17325000D01*
X-159314000Y-2540000D02*
X-159314000Y-16510000D01*
X-159314000Y-16510000D02*
X-165399000Y-16510000D01*
X-158799000Y-3025000D02*
X-158799000Y-2025000D01*
X-158799000Y-16100000D02*
X-158799000Y-17100000D01*
X-158499000Y-2725000D02*
X-158499000Y-1725000D01*
X-158499000Y-16325000D02*
X-158499000Y-17325000D01*
%TO.C,SW31*%
X-159811500Y-59875000D02*
X-159811500Y-58875000D01*
X-159811500Y-73475000D02*
X-159811500Y-74475000D01*
X-159511500Y-60175000D02*
X-159511500Y-59175000D01*
X-159511500Y-73250000D02*
X-159511500Y-74250000D01*
X-158996500Y-59690000D02*
X-145026500Y-59690000D01*
X-158996500Y-73660000D02*
X-158996500Y-59690000D01*
X-158811500Y-58875000D02*
X-159811500Y-58875000D01*
X-158811500Y-74475000D02*
X-159811500Y-74475000D01*
X-158511500Y-59175000D02*
X-159511500Y-59175000D01*
X-158511500Y-74250000D02*
X-159511500Y-74250000D01*
X-156871500Y-59675000D02*
X-156871500Y-57675000D01*
X-152911500Y-73660000D02*
X-158996500Y-73660000D01*
X-152011500Y-57675000D02*
X-156871500Y-57675000D01*
X-145511500Y-59175000D02*
X-144511500Y-59175000D01*
X-145511500Y-74250000D02*
X-144511500Y-74250000D01*
X-145211500Y-58875000D02*
X-144211500Y-58875000D01*
X-145211500Y-74475000D02*
X-144211500Y-74475000D01*
X-145026500Y-59690000D02*
X-145026500Y-73660000D01*
X-145026500Y-73660000D02*
X-151111500Y-73660000D01*
X-144511500Y-60175000D02*
X-144511500Y-59175000D01*
X-144511500Y-73250000D02*
X-144511500Y-74250000D01*
X-144211500Y-59875000D02*
X-144211500Y-58875000D01*
X-144211500Y-73475000D02*
X-144211500Y-74475000D01*
%TO.C,SW1*%
X-212199000Y-2725000D02*
X-212199000Y-1725000D01*
X-212199000Y-16325000D02*
X-212199000Y-17325000D01*
X-211899000Y-3025000D02*
X-211899000Y-2025000D01*
X-211899000Y-16100000D02*
X-211899000Y-17100000D01*
X-211384000Y-2540000D02*
X-197414000Y-2540000D01*
X-211384000Y-16510000D02*
X-211384000Y-2540000D01*
X-211199000Y-1725000D02*
X-212199000Y-1725000D01*
X-211199000Y-17325000D02*
X-212199000Y-17325000D01*
X-210899000Y-2025000D02*
X-211899000Y-2025000D01*
X-210899000Y-17100000D02*
X-211899000Y-17100000D01*
X-209259000Y-2525000D02*
X-209259000Y-525000D01*
X-205299000Y-16510000D02*
X-211384000Y-16510000D01*
X-204399000Y-525000D02*
X-209259000Y-525000D01*
X-197899000Y-2025000D02*
X-196899000Y-2025000D01*
X-197899000Y-17100000D02*
X-196899000Y-17100000D01*
X-197599000Y-1725000D02*
X-196599000Y-1725000D01*
X-197599000Y-17325000D02*
X-196599000Y-17325000D01*
X-197414000Y-2540000D02*
X-197414000Y-16510000D01*
X-197414000Y-16510000D02*
X-203499000Y-16510000D01*
X-196899000Y-3025000D02*
X-196899000Y-2025000D01*
X-196899000Y-16100000D02*
X-196899000Y-17100000D01*
X-196599000Y-2725000D02*
X-196599000Y-1725000D01*
X-196599000Y-16325000D02*
X-196599000Y-17325000D01*
%TO.C,SW25*%
X-107424000Y-40825000D02*
X-107424000Y-39825000D01*
X-107424000Y-54425000D02*
X-107424000Y-55425000D01*
X-107124000Y-41125000D02*
X-107124000Y-40125000D01*
X-107124000Y-54200000D02*
X-107124000Y-55200000D01*
X-106609000Y-40640000D02*
X-92639000Y-40640000D01*
X-106609000Y-54610000D02*
X-106609000Y-40640000D01*
X-106424000Y-39825000D02*
X-107424000Y-39825000D01*
X-106424000Y-55425000D02*
X-107424000Y-55425000D01*
X-106124000Y-40125000D02*
X-107124000Y-40125000D01*
X-106124000Y-55200000D02*
X-107124000Y-55200000D01*
X-104484000Y-40625000D02*
X-104484000Y-38625000D01*
X-100524000Y-54610000D02*
X-106609000Y-54610000D01*
X-99624000Y-38625000D02*
X-104484000Y-38625000D01*
X-93124000Y-40125000D02*
X-92124000Y-40125000D01*
X-93124000Y-55200000D02*
X-92124000Y-55200000D01*
X-92824000Y-39825000D02*
X-91824000Y-39825000D01*
X-92824000Y-55425000D02*
X-91824000Y-55425000D01*
X-92639000Y-40640000D02*
X-92639000Y-54610000D01*
X-92639000Y-54610000D02*
X-98724000Y-54610000D01*
X-92124000Y-41125000D02*
X-92124000Y-40125000D01*
X-92124000Y-54200000D02*
X-92124000Y-55200000D01*
X-91824000Y-40825000D02*
X-91824000Y-39825000D01*
X-91824000Y-54425000D02*
X-91824000Y-55425000D01*
%TO.C,SW19*%
X-40749000Y-21775000D02*
X-40749000Y-20775000D01*
X-40749000Y-35375000D02*
X-40749000Y-36375000D01*
X-40449000Y-22075000D02*
X-40449000Y-21075000D01*
X-40449000Y-35150000D02*
X-40449000Y-36150000D01*
X-39934000Y-21590000D02*
X-25964000Y-21590000D01*
X-39934000Y-35560000D02*
X-39934000Y-21590000D01*
X-39749000Y-20775000D02*
X-40749000Y-20775000D01*
X-39749000Y-36375000D02*
X-40749000Y-36375000D01*
X-39449000Y-21075000D02*
X-40449000Y-21075000D01*
X-39449000Y-36150000D02*
X-40449000Y-36150000D01*
X-37809000Y-21575000D02*
X-37809000Y-19575000D01*
X-33849000Y-35560000D02*
X-39934000Y-35560000D01*
X-32949000Y-19575000D02*
X-37809000Y-19575000D01*
X-26449000Y-21075000D02*
X-25449000Y-21075000D01*
X-26449000Y-36150000D02*
X-25449000Y-36150000D01*
X-26149000Y-20775000D02*
X-25149000Y-20775000D01*
X-26149000Y-36375000D02*
X-25149000Y-36375000D01*
X-25964000Y-21590000D02*
X-25964000Y-35560000D01*
X-25964000Y-35560000D02*
X-32049000Y-35560000D01*
X-25449000Y-22075000D02*
X-25449000Y-21075000D01*
X-25449000Y-35150000D02*
X-25449000Y-36150000D01*
X-25149000Y-21775000D02*
X-25149000Y-20775000D01*
X-25149000Y-35375000D02*
X-25149000Y-36375000D01*
%TO.C,SW34*%
X-102661500Y-59875000D02*
X-102661500Y-58875000D01*
X-102661500Y-73475000D02*
X-102661500Y-74475000D01*
X-102361500Y-60175000D02*
X-102361500Y-59175000D01*
X-102361500Y-73250000D02*
X-102361500Y-74250000D01*
X-101846500Y-59690000D02*
X-87876500Y-59690000D01*
X-101846500Y-73660000D02*
X-101846500Y-59690000D01*
X-101661500Y-58875000D02*
X-102661500Y-58875000D01*
X-101661500Y-74475000D02*
X-102661500Y-74475000D01*
X-101361500Y-59175000D02*
X-102361500Y-59175000D01*
X-101361500Y-74250000D02*
X-102361500Y-74250000D01*
X-99721500Y-59675000D02*
X-99721500Y-57675000D01*
X-95761500Y-73660000D02*
X-101846500Y-73660000D01*
X-94861500Y-57675000D02*
X-99721500Y-57675000D01*
X-88361500Y-59175000D02*
X-87361500Y-59175000D01*
X-88361500Y-74250000D02*
X-87361500Y-74250000D01*
X-88061500Y-58875000D02*
X-87061500Y-58875000D01*
X-88061500Y-74475000D02*
X-87061500Y-74475000D01*
X-87876500Y-59690000D02*
X-87876500Y-73660000D01*
X-87876500Y-73660000D02*
X-93961500Y-73660000D01*
X-87361500Y-60175000D02*
X-87361500Y-59175000D01*
X-87361500Y-73250000D02*
X-87361500Y-74250000D01*
X-87061500Y-59875000D02*
X-87061500Y-58875000D01*
X-87061500Y-73475000D02*
X-87061500Y-74475000D01*
%TO.C,SW33*%
X-121711500Y-59875000D02*
X-121711500Y-58875000D01*
X-121711500Y-73475000D02*
X-121711500Y-74475000D01*
X-121411500Y-60175000D02*
X-121411500Y-59175000D01*
X-121411500Y-73250000D02*
X-121411500Y-74250000D01*
X-120896500Y-59690000D02*
X-106926500Y-59690000D01*
X-120896500Y-73660000D02*
X-120896500Y-59690000D01*
X-120711500Y-58875000D02*
X-121711500Y-58875000D01*
X-120711500Y-74475000D02*
X-121711500Y-74475000D01*
X-120411500Y-59175000D02*
X-121411500Y-59175000D01*
X-120411500Y-74250000D02*
X-121411500Y-74250000D01*
X-118771500Y-59675000D02*
X-118771500Y-57675000D01*
X-114811500Y-73660000D02*
X-120896500Y-73660000D01*
X-113911500Y-57675000D02*
X-118771500Y-57675000D01*
X-107411500Y-59175000D02*
X-106411500Y-59175000D01*
X-107411500Y-74250000D02*
X-106411500Y-74250000D01*
X-107111500Y-58875000D02*
X-106111500Y-58875000D01*
X-107111500Y-74475000D02*
X-106111500Y-74475000D01*
X-106926500Y-59690000D02*
X-106926500Y-73660000D01*
X-106926500Y-73660000D02*
X-113011500Y-73660000D01*
X-106411500Y-60175000D02*
X-106411500Y-59175000D01*
X-106411500Y-73250000D02*
X-106411500Y-74250000D01*
X-106111500Y-59875000D02*
X-106111500Y-58875000D01*
X-106111500Y-73475000D02*
X-106111500Y-74475000D01*
%TO.C,SW12*%
X-193149000Y-21775000D02*
X-193149000Y-20775000D01*
X-193149000Y-35375000D02*
X-193149000Y-36375000D01*
X-192849000Y-22075000D02*
X-192849000Y-21075000D01*
X-192849000Y-35150000D02*
X-192849000Y-36150000D01*
X-192334000Y-21590000D02*
X-178364000Y-21590000D01*
X-192334000Y-35560000D02*
X-192334000Y-21590000D01*
X-192149000Y-20775000D02*
X-193149000Y-20775000D01*
X-192149000Y-36375000D02*
X-193149000Y-36375000D01*
X-191849000Y-21075000D02*
X-192849000Y-21075000D01*
X-191849000Y-36150000D02*
X-192849000Y-36150000D01*
X-190209000Y-21575000D02*
X-190209000Y-19575000D01*
X-186249000Y-35560000D02*
X-192334000Y-35560000D01*
X-185349000Y-19575000D02*
X-190209000Y-19575000D01*
X-178849000Y-21075000D02*
X-177849000Y-21075000D01*
X-178849000Y-36150000D02*
X-177849000Y-36150000D01*
X-178549000Y-20775000D02*
X-177549000Y-20775000D01*
X-178549000Y-36375000D02*
X-177549000Y-36375000D01*
X-178364000Y-21590000D02*
X-178364000Y-35560000D01*
X-178364000Y-35560000D02*
X-184449000Y-35560000D01*
X-177849000Y-22075000D02*
X-177849000Y-21075000D01*
X-177849000Y-35150000D02*
X-177849000Y-36150000D01*
X-177549000Y-21775000D02*
X-177549000Y-20775000D01*
X-177549000Y-35375000D02*
X-177549000Y-36375000D01*
%TO.C,SW6*%
X-116949000Y-2725000D02*
X-116949000Y-1725000D01*
X-116949000Y-16325000D02*
X-116949000Y-17325000D01*
X-116649000Y-3025000D02*
X-116649000Y-2025000D01*
X-116649000Y-16100000D02*
X-116649000Y-17100000D01*
X-116134000Y-2540000D02*
X-102164000Y-2540000D01*
X-116134000Y-16510000D02*
X-116134000Y-2540000D01*
X-115949000Y-1725000D02*
X-116949000Y-1725000D01*
X-115949000Y-17325000D02*
X-116949000Y-17325000D01*
X-115649000Y-2025000D02*
X-116649000Y-2025000D01*
X-115649000Y-17100000D02*
X-116649000Y-17100000D01*
X-114009000Y-2525000D02*
X-114009000Y-525000D01*
X-110049000Y-16510000D02*
X-116134000Y-16510000D01*
X-109149000Y-525000D02*
X-114009000Y-525000D01*
X-102649000Y-2025000D02*
X-101649000Y-2025000D01*
X-102649000Y-17100000D02*
X-101649000Y-17100000D01*
X-102349000Y-1725000D02*
X-101349000Y-1725000D01*
X-102349000Y-17325000D02*
X-101349000Y-17325000D01*
X-102164000Y-2540000D02*
X-102164000Y-16510000D01*
X-102164000Y-16510000D02*
X-108249000Y-16510000D01*
X-101649000Y-3025000D02*
X-101649000Y-2025000D01*
X-101649000Y-16100000D02*
X-101649000Y-17100000D01*
X-101349000Y-2725000D02*
X-101349000Y-1725000D01*
X-101349000Y-16325000D02*
X-101349000Y-17325000D01*
%TO.C,SW52*%
X-59799000Y-97975000D02*
X-59799000Y-96975000D01*
X-59799000Y-111575000D02*
X-59799000Y-112575000D01*
X-59499000Y-98275000D02*
X-59499000Y-97275000D01*
X-59499000Y-111350000D02*
X-59499000Y-112350000D01*
X-58984000Y-97790000D02*
X-45014000Y-97790000D01*
X-58984000Y-111760000D02*
X-58984000Y-97790000D01*
X-58799000Y-96975000D02*
X-59799000Y-96975000D01*
X-58799000Y-112575000D02*
X-59799000Y-112575000D01*
X-58499000Y-97275000D02*
X-59499000Y-97275000D01*
X-58499000Y-112350000D02*
X-59499000Y-112350000D01*
X-56859000Y-97775000D02*
X-56859000Y-95775000D01*
X-52899000Y-111760000D02*
X-58984000Y-111760000D01*
X-51999000Y-95775000D02*
X-56859000Y-95775000D01*
X-45499000Y-97275000D02*
X-44499000Y-97275000D01*
X-45499000Y-112350000D02*
X-44499000Y-112350000D01*
X-45199000Y-96975000D02*
X-44199000Y-96975000D01*
X-45199000Y-112575000D02*
X-44199000Y-112575000D01*
X-45014000Y-97790000D02*
X-45014000Y-111760000D01*
X-45014000Y-111760000D02*
X-51099000Y-111760000D01*
X-44499000Y-98275000D02*
X-44499000Y-97275000D01*
X-44499000Y-111350000D02*
X-44499000Y-112350000D01*
X-44199000Y-97975000D02*
X-44199000Y-96975000D01*
X-44199000Y-111575000D02*
X-44199000Y-112575000D01*
%TO.C,SW50*%
X-100280250Y-97975000D02*
X-100280250Y-96975000D01*
X-100280250Y-111575000D02*
X-100280250Y-112575000D01*
X-99980250Y-98275000D02*
X-99980250Y-97275000D01*
X-99980250Y-111350000D02*
X-99980250Y-112350000D01*
X-99465250Y-97790000D02*
X-85495250Y-97790000D01*
X-99465250Y-111760000D02*
X-99465250Y-97790000D01*
X-99280250Y-96975000D02*
X-100280250Y-96975000D01*
X-99280250Y-112575000D02*
X-100280250Y-112575000D01*
X-98980250Y-97275000D02*
X-99980250Y-97275000D01*
X-98980250Y-112350000D02*
X-99980250Y-112350000D01*
X-97340250Y-97775000D02*
X-97340250Y-95775000D01*
X-93380250Y-111760000D02*
X-99465250Y-111760000D01*
X-92480250Y-95775000D02*
X-97340250Y-95775000D01*
X-85980250Y-97275000D02*
X-84980250Y-97275000D01*
X-85980250Y-112350000D02*
X-84980250Y-112350000D01*
X-85680250Y-96975000D02*
X-84680250Y-96975000D01*
X-85680250Y-112575000D02*
X-84680250Y-112575000D01*
X-85495250Y-97790000D02*
X-85495250Y-111760000D01*
X-85495250Y-111760000D02*
X-91580250Y-111760000D01*
X-84980250Y-98275000D02*
X-84980250Y-97275000D01*
X-84980250Y-111350000D02*
X-84980250Y-112350000D01*
X-84680250Y-97975000D02*
X-84680250Y-96975000D01*
X-84680250Y-111575000D02*
X-84680250Y-112575000D01*
%TO.C,SW36*%
X-40749000Y-59875000D02*
X-40749000Y-58875000D01*
X-40749000Y-73475000D02*
X-40749000Y-74475000D01*
X-40449000Y-60175000D02*
X-40449000Y-59175000D01*
X-40449000Y-73250000D02*
X-40449000Y-74250000D01*
X-39934000Y-59690000D02*
X-25964000Y-59690000D01*
X-39934000Y-73660000D02*
X-39934000Y-59690000D01*
X-39749000Y-58875000D02*
X-40749000Y-58875000D01*
X-39749000Y-74475000D02*
X-40749000Y-74475000D01*
X-39449000Y-59175000D02*
X-40449000Y-59175000D01*
X-39449000Y-74250000D02*
X-40449000Y-74250000D01*
X-37809000Y-59675000D02*
X-37809000Y-57675000D01*
X-33849000Y-73660000D02*
X-39934000Y-73660000D01*
X-32949000Y-57675000D02*
X-37809000Y-57675000D01*
X-26449000Y-59175000D02*
X-25449000Y-59175000D01*
X-26449000Y-74250000D02*
X-25449000Y-74250000D01*
X-26149000Y-58875000D02*
X-25149000Y-58875000D01*
X-26149000Y-74475000D02*
X-25149000Y-74475000D01*
X-25964000Y-59690000D02*
X-25964000Y-73660000D01*
X-25964000Y-73660000D02*
X-32049000Y-73660000D01*
X-25449000Y-60175000D02*
X-25449000Y-59175000D01*
X-25449000Y-73250000D02*
X-25449000Y-74250000D01*
X-25149000Y-59875000D02*
X-25149000Y-58875000D01*
X-25149000Y-73475000D02*
X-25149000Y-74475000D01*
%TO.C,SW5*%
X-135999000Y-2725000D02*
X-135999000Y-1725000D01*
X-135999000Y-16325000D02*
X-135999000Y-17325000D01*
X-135699000Y-3025000D02*
X-135699000Y-2025000D01*
X-135699000Y-16100000D02*
X-135699000Y-17100000D01*
X-135184000Y-2540000D02*
X-121214000Y-2540000D01*
X-135184000Y-16510000D02*
X-135184000Y-2540000D01*
X-134999000Y-1725000D02*
X-135999000Y-1725000D01*
X-134999000Y-17325000D02*
X-135999000Y-17325000D01*
X-134699000Y-2025000D02*
X-135699000Y-2025000D01*
X-134699000Y-17100000D02*
X-135699000Y-17100000D01*
X-133059000Y-2525000D02*
X-133059000Y-525000D01*
X-129099000Y-16510000D02*
X-135184000Y-16510000D01*
X-128199000Y-525000D02*
X-133059000Y-525000D01*
X-121699000Y-2025000D02*
X-120699000Y-2025000D01*
X-121699000Y-17100000D02*
X-120699000Y-17100000D01*
X-121399000Y-1725000D02*
X-120399000Y-1725000D01*
X-121399000Y-17325000D02*
X-120399000Y-17325000D01*
X-121214000Y-2540000D02*
X-121214000Y-16510000D01*
X-121214000Y-16510000D02*
X-127299000Y-16510000D01*
X-120699000Y-3025000D02*
X-120699000Y-2025000D01*
X-120699000Y-16100000D02*
X-120699000Y-17100000D01*
X-120399000Y-2725000D02*
X-120399000Y-1725000D01*
X-120399000Y-16325000D02*
X-120399000Y-17325000D01*
%TO.C,SW38*%
X-188386500Y-78925000D02*
X-188386500Y-77925000D01*
X-188386500Y-92525000D02*
X-188386500Y-93525000D01*
X-188086500Y-79225000D02*
X-188086500Y-78225000D01*
X-188086500Y-92300000D02*
X-188086500Y-93300000D01*
X-187571500Y-78740000D02*
X-173601500Y-78740000D01*
X-187571500Y-92710000D02*
X-187571500Y-78740000D01*
X-187386500Y-77925000D02*
X-188386500Y-77925000D01*
X-187386500Y-93525000D02*
X-188386500Y-93525000D01*
X-187086500Y-78225000D02*
X-188086500Y-78225000D01*
X-187086500Y-93300000D02*
X-188086500Y-93300000D01*
X-185446500Y-78725000D02*
X-185446500Y-76725000D01*
X-181486500Y-92710000D02*
X-187571500Y-92710000D01*
X-180586500Y-76725000D02*
X-185446500Y-76725000D01*
X-174086500Y-78225000D02*
X-173086500Y-78225000D01*
X-174086500Y-93300000D02*
X-173086500Y-93300000D01*
X-173786500Y-77925000D02*
X-172786500Y-77925000D01*
X-173786500Y-93525000D02*
X-172786500Y-93525000D01*
X-173601500Y-78740000D02*
X-173601500Y-92710000D01*
X-173601500Y-92710000D02*
X-179686500Y-92710000D01*
X-173086500Y-79225000D02*
X-173086500Y-78225000D01*
X-173086500Y-92300000D02*
X-173086500Y-93300000D01*
X-172786500Y-78925000D02*
X-172786500Y-77925000D01*
X-172786500Y-92525000D02*
X-172786500Y-93525000D01*
%TO.C,SW41*%
X-131236500Y-78925000D02*
X-131236500Y-77925000D01*
X-131236500Y-92525000D02*
X-131236500Y-93525000D01*
X-130936500Y-79225000D02*
X-130936500Y-78225000D01*
X-130936500Y-92300000D02*
X-130936500Y-93300000D01*
X-130421500Y-78740000D02*
X-116451500Y-78740000D01*
X-130421500Y-92710000D02*
X-130421500Y-78740000D01*
X-130236500Y-77925000D02*
X-131236500Y-77925000D01*
X-130236500Y-93525000D02*
X-131236500Y-93525000D01*
X-129936500Y-78225000D02*
X-130936500Y-78225000D01*
X-129936500Y-93300000D02*
X-130936500Y-93300000D01*
X-128296500Y-78725000D02*
X-128296500Y-76725000D01*
X-124336500Y-92710000D02*
X-130421500Y-92710000D01*
X-123436500Y-76725000D02*
X-128296500Y-76725000D01*
X-116936500Y-78225000D02*
X-115936500Y-78225000D01*
X-116936500Y-93300000D02*
X-115936500Y-93300000D01*
X-116636500Y-77925000D02*
X-115636500Y-77925000D01*
X-116636500Y-93525000D02*
X-115636500Y-93525000D01*
X-116451500Y-78740000D02*
X-116451500Y-92710000D01*
X-116451500Y-92710000D02*
X-122536500Y-92710000D01*
X-115936500Y-79225000D02*
X-115936500Y-78225000D01*
X-115936500Y-92300000D02*
X-115936500Y-93300000D01*
X-115636500Y-78925000D02*
X-115636500Y-77925000D01*
X-115636500Y-92525000D02*
X-115636500Y-93525000D01*
%TO.C,SW29*%
X-197911500Y-59875000D02*
X-197911500Y-58875000D01*
X-197911500Y-73475000D02*
X-197911500Y-74475000D01*
X-197611500Y-60175000D02*
X-197611500Y-59175000D01*
X-197611500Y-73250000D02*
X-197611500Y-74250000D01*
X-197096500Y-59690000D02*
X-183126500Y-59690000D01*
X-197096500Y-73660000D02*
X-197096500Y-59690000D01*
X-196911500Y-58875000D02*
X-197911500Y-58875000D01*
X-196911500Y-74475000D02*
X-197911500Y-74475000D01*
X-196611500Y-59175000D02*
X-197611500Y-59175000D01*
X-196611500Y-74250000D02*
X-197611500Y-74250000D01*
X-194971500Y-59675000D02*
X-194971500Y-57675000D01*
X-191011500Y-73660000D02*
X-197096500Y-73660000D01*
X-190111500Y-57675000D02*
X-194971500Y-57675000D01*
X-183611500Y-59175000D02*
X-182611500Y-59175000D01*
X-183611500Y-74250000D02*
X-182611500Y-74250000D01*
X-183311500Y-58875000D02*
X-182311500Y-58875000D01*
X-183311500Y-74475000D02*
X-182311500Y-74475000D01*
X-183126500Y-59690000D02*
X-183126500Y-73660000D01*
X-183126500Y-73660000D02*
X-189211500Y-73660000D01*
X-182611500Y-60175000D02*
X-182611500Y-59175000D01*
X-182611500Y-73250000D02*
X-182611500Y-74250000D01*
X-182311500Y-59875000D02*
X-182311500Y-58875000D01*
X-182311500Y-73475000D02*
X-182311500Y-74475000D01*
%TO.C,SW40*%
X-150286500Y-78925000D02*
X-150286500Y-77925000D01*
X-150286500Y-92525000D02*
X-150286500Y-93525000D01*
X-149986500Y-79225000D02*
X-149986500Y-78225000D01*
X-149986500Y-92300000D02*
X-149986500Y-93300000D01*
X-149471500Y-78740000D02*
X-135501500Y-78740000D01*
X-149471500Y-92710000D02*
X-149471500Y-78740000D01*
X-149286500Y-77925000D02*
X-150286500Y-77925000D01*
X-149286500Y-93525000D02*
X-150286500Y-93525000D01*
X-148986500Y-78225000D02*
X-149986500Y-78225000D01*
X-148986500Y-93300000D02*
X-149986500Y-93300000D01*
X-147346500Y-78725000D02*
X-147346500Y-76725000D01*
X-143386500Y-92710000D02*
X-149471500Y-92710000D01*
X-142486500Y-76725000D02*
X-147346500Y-76725000D01*
X-135986500Y-78225000D02*
X-134986500Y-78225000D01*
X-135986500Y-93300000D02*
X-134986500Y-93300000D01*
X-135686500Y-77925000D02*
X-134686500Y-77925000D01*
X-135686500Y-93525000D02*
X-134686500Y-93525000D01*
X-135501500Y-78740000D02*
X-135501500Y-92710000D01*
X-135501500Y-92710000D02*
X-141586500Y-92710000D01*
X-134986500Y-79225000D02*
X-134986500Y-78225000D01*
X-134986500Y-92300000D02*
X-134986500Y-93300000D01*
X-134686500Y-78925000D02*
X-134686500Y-77925000D01*
X-134686500Y-92525000D02*
X-134686500Y-93525000D01*
%TO.C,SW35*%
X-71705250Y-59875000D02*
X-71705250Y-58875000D01*
X-71705250Y-73475000D02*
X-71705250Y-74475000D01*
X-71405250Y-60175000D02*
X-71405250Y-59175000D01*
X-71405250Y-73250000D02*
X-71405250Y-74250000D01*
X-70890250Y-59690000D02*
X-56920250Y-59690000D01*
X-70890250Y-73660000D02*
X-70890250Y-59690000D01*
X-70705250Y-58875000D02*
X-71705250Y-58875000D01*
X-70705250Y-74475000D02*
X-71705250Y-74475000D01*
X-70405250Y-59175000D02*
X-71405250Y-59175000D01*
X-70405250Y-74250000D02*
X-71405250Y-74250000D01*
X-68765250Y-59675000D02*
X-68765250Y-57675000D01*
X-64805250Y-73660000D02*
X-70890250Y-73660000D01*
X-63905250Y-57675000D02*
X-68765250Y-57675000D01*
X-57405250Y-59175000D02*
X-56405250Y-59175000D01*
X-57405250Y-74250000D02*
X-56405250Y-74250000D01*
X-57105250Y-58875000D02*
X-56105250Y-58875000D01*
X-57105250Y-74475000D02*
X-56105250Y-74475000D01*
X-56920250Y-59690000D02*
X-56920250Y-73660000D01*
X-56920250Y-73660000D02*
X-63005250Y-73660000D01*
X-56405250Y-60175000D02*
X-56405250Y-59175000D01*
X-56405250Y-73250000D02*
X-56405250Y-74250000D01*
X-56105250Y-59875000D02*
X-56105250Y-58875000D01*
X-56105250Y-73475000D02*
X-56105250Y-74475000D01*
%TD*%
M02*
