%TF.GenerationSoftware,KiCad,Pcbnew,8.0.6*%
%TF.CreationDate,2025-05-11T12:41:03+09:00*%
%TF.ProjectId,65_split_right,36355f73-706c-4697-945f-72696768742e,rev?*%
%TF.SameCoordinates,PXf7b735cPY2136a30*%
%TF.FileFunction,Copper,L2,Bot*%
%TF.FilePolarity,Positive*%
%FSLAX46Y46*%
G04 Gerber Fmt 4.6, Leading zero omitted, Abs format (unit mm)*
G04 Created by KiCad (PCBNEW 8.0.6) date 2025-05-11 12:41:03*
%MOMM*%
%LPD*%
G01*
G04 APERTURE LIST*
G04 Aperture macros list*
%AMRoundRect*
0 Rectangle with rounded corners*
0 $1 Rounding radius*
0 $2 $3 $4 $5 $6 $7 $8 $9 X,Y pos of 4 corners*
0 Add a 4 corners polygon primitive as box body*
4,1,4,$2,$3,$4,$5,$6,$7,$8,$9,$2,$3,0*
0 Add four circle primitives for the rounded corners*
1,1,$1+$1,$2,$3*
1,1,$1+$1,$4,$5*
1,1,$1+$1,$6,$7*
1,1,$1+$1,$8,$9*
0 Add four rect primitives between the rounded corners*
20,1,$1+$1,$2,$3,$4,$5,0*
20,1,$1+$1,$4,$5,$6,$7,0*
20,1,$1+$1,$6,$7,$8,$9,0*
20,1,$1+$1,$8,$9,$2,$3,0*%
G04 Aperture macros list end*
%ADD10C,0.100000*%
%ADD11C,0.150000*%
%ADD12C,0.300000*%
%ADD13C,0.400000*%
%TA.AperFunction,ComponentPad*%
%ADD14C,2.200000*%
%TD*%
%TA.AperFunction,SMDPad,CuDef*%
%ADD15RoundRect,0.126998X-0.000010X-0.889001X0.000010X-0.889001X0.000010X0.889001X-0.000010X0.889001X0*%
%TD*%
%TA.AperFunction,ComponentPad*%
%ADD16C,1.970000*%
%TD*%
%TA.AperFunction,SMDPad,CuDef*%
%ADD17RoundRect,0.126997X-0.000010X-0.842747X0.000010X-0.842747X0.000010X0.842747X-0.000010X0.842747X0*%
%TD*%
%TA.AperFunction,ComponentPad*%
%ADD18C,1.900000*%
%TD*%
%TA.AperFunction,SMDPad,CuDef*%
%ADD19RoundRect,0.127000X-1.392993X1.393007X-1.393007X1.392993X1.392993X-1.393007X1.393007X-1.392993X0*%
%TD*%
%TA.AperFunction,SMDPad,CuDef*%
%ADD20RoundRect,0.127000X-1.393007X-1.392993X-1.392993X-1.393007X1.393007X1.392993X1.392993X1.393007X0*%
%TD*%
%TA.AperFunction,SMDPad,CuDef*%
%ADD21RoundRect,0.127000X-0.000010X-1.143000X0.000010X-1.143000X0.000010X1.143000X-0.000010X1.143000X0*%
%TD*%
%TA.AperFunction,ComponentPad*%
%ADD22R,1.600000X1.600000*%
%TD*%
%TA.AperFunction,SMDPad,CuDef*%
%ADD23RoundRect,0.041667X-0.625080X0.085333X-0.625080X-0.085333X0.625080X-0.085333X0.625080X0.085333X0*%
%TD*%
%TA.AperFunction,SMDPad,CuDef*%
%ADD24RoundRect,0.225000X0.225000X0.375000X-0.225000X0.375000X-0.225000X-0.375000X0.225000X-0.375000X0*%
%TD*%
%TA.AperFunction,ComponentPad*%
%ADD25C,1.400000*%
%TD*%
%TA.AperFunction,ComponentPad*%
%ADD26O,1.600000X1.600000*%
%TD*%
%TA.AperFunction,SMDPad,CuDef*%
%ADD27RoundRect,0.126994X-0.952506X0.000010X-0.952506X-0.000010X0.952506X-0.000010X0.952506X0.000010X0*%
%TD*%
%TA.AperFunction,ComponentPad*%
%ADD28C,1.600000*%
%TD*%
%TA.AperFunction,SMDPad,CuDef*%
%ADD29RoundRect,0.127000X-0.634975X0.634989X-0.634989X0.634975X0.634975X-0.634989X0.634989X-0.634975X0*%
%TD*%
%TA.AperFunction,SMDPad,CuDef*%
%ADD30RoundRect,0.126996X-6.603501X0.000010X-6.603501X-0.000010X6.603501X-0.000010X6.603501X0.000010X0*%
%TD*%
%TA.AperFunction,ComponentPad*%
%ADD31C,2.000000*%
%TD*%
%TA.AperFunction,SMDPad,CuDef*%
%ADD32RoundRect,0.170000X0.170000X0.780000X-0.170000X0.780000X-0.170000X-0.780000X0.170000X-0.780000X0*%
%TD*%
%TA.AperFunction,ComponentPad*%
%ADD33C,0.700000*%
%TD*%
%TA.AperFunction,ViaPad*%
%ADD34C,0.800000*%
%TD*%
%TA.AperFunction,Conductor*%
%ADD35C,0.300000*%
%TD*%
%TA.AperFunction,Conductor*%
%ADD36C,0.250000*%
%TD*%
G04 APERTURE END LIST*
D10*
D11*
X-82746500Y-131180400D02*
X25253500Y-131180400D01*
X25253500Y-163180400D01*
X-82746500Y-163180400D01*
X-82746500Y-131180400D01*
D10*
D11*
X-249748700Y24826800D02*
X27253500Y24826800D01*
X27253500Y-165180400D01*
X-249748700Y-165180400D01*
X-249748700Y24826800D01*
D10*
D11*
X-247748700Y22826800D02*
X25253500Y22826800D01*
X25253500Y-163180400D01*
X-247748700Y-163180400D01*
X-247748700Y22826800D01*
D10*
D11*
X-199748700Y22826800D02*
X-199748700Y24826800D01*
D10*
D11*
X-149748700Y22826800D02*
X-149748700Y24826800D01*
D10*
D11*
X-99748700Y22826800D02*
X-99748700Y24826800D01*
D10*
D11*
X-49748700Y22826800D02*
X-49748700Y24826800D01*
D10*
D11*
X251300Y22826800D02*
X251300Y24826800D01*
D10*
D11*
X-223659540Y23233196D02*
X-224402397Y23233196D01*
X-224030969Y23233196D02*
X-224030969Y24533196D01*
X-224030969Y24533196D02*
X-224154778Y24347481D01*
X-224154778Y24347481D02*
X-224278588Y24223672D01*
X-224278588Y24223672D02*
X-224402397Y24161767D01*
D10*
D11*
X-174402397Y24409386D02*
X-174340493Y24471291D01*
X-174340493Y24471291D02*
X-174216683Y24533196D01*
X-174216683Y24533196D02*
X-173907159Y24533196D01*
X-173907159Y24533196D02*
X-173783350Y24471291D01*
X-173783350Y24471291D02*
X-173721445Y24409386D01*
X-173721445Y24409386D02*
X-173659540Y24285577D01*
X-173659540Y24285577D02*
X-173659540Y24161767D01*
X-173659540Y24161767D02*
X-173721445Y23976053D01*
X-173721445Y23976053D02*
X-174464302Y23233196D01*
X-174464302Y23233196D02*
X-173659540Y23233196D01*
D10*
D11*
X-124464302Y24533196D02*
X-123659540Y24533196D01*
X-123659540Y24533196D02*
X-124092874Y24037958D01*
X-124092874Y24037958D02*
X-123907159Y24037958D01*
X-123907159Y24037958D02*
X-123783350Y23976053D01*
X-123783350Y23976053D02*
X-123721445Y23914148D01*
X-123721445Y23914148D02*
X-123659540Y23790339D01*
X-123659540Y23790339D02*
X-123659540Y23480815D01*
X-123659540Y23480815D02*
X-123721445Y23357005D01*
X-123721445Y23357005D02*
X-123783350Y23295100D01*
X-123783350Y23295100D02*
X-123907159Y23233196D01*
X-123907159Y23233196D02*
X-124278588Y23233196D01*
X-124278588Y23233196D02*
X-124402397Y23295100D01*
X-124402397Y23295100D02*
X-124464302Y23357005D01*
D10*
D11*
X-73783350Y24099862D02*
X-73783350Y23233196D01*
X-74092874Y24595100D02*
X-74402397Y23666529D01*
X-74402397Y23666529D02*
X-73597636Y23666529D01*
D10*
D11*
X-23721445Y24533196D02*
X-24340493Y24533196D01*
X-24340493Y24533196D02*
X-24402397Y23914148D01*
X-24402397Y23914148D02*
X-24340493Y23976053D01*
X-24340493Y23976053D02*
X-24216683Y24037958D01*
X-24216683Y24037958D02*
X-23907159Y24037958D01*
X-23907159Y24037958D02*
X-23783350Y23976053D01*
X-23783350Y23976053D02*
X-23721445Y23914148D01*
X-23721445Y23914148D02*
X-23659540Y23790339D01*
X-23659540Y23790339D02*
X-23659540Y23480815D01*
X-23659540Y23480815D02*
X-23721445Y23357005D01*
X-23721445Y23357005D02*
X-23783350Y23295100D01*
X-23783350Y23295100D02*
X-23907159Y23233196D01*
X-23907159Y23233196D02*
X-24216683Y23233196D01*
X-24216683Y23233196D02*
X-24340493Y23295100D01*
X-24340493Y23295100D02*
X-24402397Y23357005D01*
D10*
D11*
X26216650Y24533196D02*
X25969031Y24533196D01*
X25969031Y24533196D02*
X25845222Y24471291D01*
X25845222Y24471291D02*
X25783317Y24409386D01*
X25783317Y24409386D02*
X25659507Y24223672D01*
X25659507Y24223672D02*
X25597603Y23976053D01*
X25597603Y23976053D02*
X25597603Y23480815D01*
X25597603Y23480815D02*
X25659507Y23357005D01*
X25659507Y23357005D02*
X25721412Y23295100D01*
X25721412Y23295100D02*
X25845222Y23233196D01*
X25845222Y23233196D02*
X26092841Y23233196D01*
X26092841Y23233196D02*
X26216650Y23295100D01*
X26216650Y23295100D02*
X26278555Y23357005D01*
X26278555Y23357005D02*
X26340460Y23480815D01*
X26340460Y23480815D02*
X26340460Y23790339D01*
X26340460Y23790339D02*
X26278555Y23914148D01*
X26278555Y23914148D02*
X26216650Y23976053D01*
X26216650Y23976053D02*
X26092841Y24037958D01*
X26092841Y24037958D02*
X25845222Y24037958D01*
X25845222Y24037958D02*
X25721412Y23976053D01*
X25721412Y23976053D02*
X25659507Y23914148D01*
X25659507Y23914148D02*
X25597603Y23790339D01*
D10*
D11*
X-199748700Y-163180400D02*
X-199748700Y-165180400D01*
D10*
D11*
X-149748700Y-163180400D02*
X-149748700Y-165180400D01*
D10*
D11*
X-99748700Y-163180400D02*
X-99748700Y-165180400D01*
D10*
D11*
X-49748700Y-163180400D02*
X-49748700Y-165180400D01*
D10*
D11*
X251300Y-163180400D02*
X251300Y-165180400D01*
D10*
D11*
X-223659540Y-164774004D02*
X-224402397Y-164774004D01*
X-224030969Y-164774004D02*
X-224030969Y-163474004D01*
X-224030969Y-163474004D02*
X-224154778Y-163659719D01*
X-224154778Y-163659719D02*
X-224278588Y-163783528D01*
X-224278588Y-163783528D02*
X-224402397Y-163845433D01*
D10*
D11*
X-174402397Y-163597814D02*
X-174340493Y-163535909D01*
X-174340493Y-163535909D02*
X-174216683Y-163474004D01*
X-174216683Y-163474004D02*
X-173907159Y-163474004D01*
X-173907159Y-163474004D02*
X-173783350Y-163535909D01*
X-173783350Y-163535909D02*
X-173721445Y-163597814D01*
X-173721445Y-163597814D02*
X-173659540Y-163721623D01*
X-173659540Y-163721623D02*
X-173659540Y-163845433D01*
X-173659540Y-163845433D02*
X-173721445Y-164031147D01*
X-173721445Y-164031147D02*
X-174464302Y-164774004D01*
X-174464302Y-164774004D02*
X-173659540Y-164774004D01*
D10*
D11*
X-124464302Y-163474004D02*
X-123659540Y-163474004D01*
X-123659540Y-163474004D02*
X-124092874Y-163969242D01*
X-124092874Y-163969242D02*
X-123907159Y-163969242D01*
X-123907159Y-163969242D02*
X-123783350Y-164031147D01*
X-123783350Y-164031147D02*
X-123721445Y-164093052D01*
X-123721445Y-164093052D02*
X-123659540Y-164216861D01*
X-123659540Y-164216861D02*
X-123659540Y-164526385D01*
X-123659540Y-164526385D02*
X-123721445Y-164650195D01*
X-123721445Y-164650195D02*
X-123783350Y-164712100D01*
X-123783350Y-164712100D02*
X-123907159Y-164774004D01*
X-123907159Y-164774004D02*
X-124278588Y-164774004D01*
X-124278588Y-164774004D02*
X-124402397Y-164712100D01*
X-124402397Y-164712100D02*
X-124464302Y-164650195D01*
D10*
D11*
X-73783350Y-163907338D02*
X-73783350Y-164774004D01*
X-74092874Y-163412100D02*
X-74402397Y-164340671D01*
X-74402397Y-164340671D02*
X-73597636Y-164340671D01*
D10*
D11*
X-23721445Y-163474004D02*
X-24340493Y-163474004D01*
X-24340493Y-163474004D02*
X-24402397Y-164093052D01*
X-24402397Y-164093052D02*
X-24340493Y-164031147D01*
X-24340493Y-164031147D02*
X-24216683Y-163969242D01*
X-24216683Y-163969242D02*
X-23907159Y-163969242D01*
X-23907159Y-163969242D02*
X-23783350Y-164031147D01*
X-23783350Y-164031147D02*
X-23721445Y-164093052D01*
X-23721445Y-164093052D02*
X-23659540Y-164216861D01*
X-23659540Y-164216861D02*
X-23659540Y-164526385D01*
X-23659540Y-164526385D02*
X-23721445Y-164650195D01*
X-23721445Y-164650195D02*
X-23783350Y-164712100D01*
X-23783350Y-164712100D02*
X-23907159Y-164774004D01*
X-23907159Y-164774004D02*
X-24216683Y-164774004D01*
X-24216683Y-164774004D02*
X-24340493Y-164712100D01*
X-24340493Y-164712100D02*
X-24402397Y-164650195D01*
D10*
D11*
X26216650Y-163474004D02*
X25969031Y-163474004D01*
X25969031Y-163474004D02*
X25845222Y-163535909D01*
X25845222Y-163535909D02*
X25783317Y-163597814D01*
X25783317Y-163597814D02*
X25659507Y-163783528D01*
X25659507Y-163783528D02*
X25597603Y-164031147D01*
X25597603Y-164031147D02*
X25597603Y-164526385D01*
X25597603Y-164526385D02*
X25659507Y-164650195D01*
X25659507Y-164650195D02*
X25721412Y-164712100D01*
X25721412Y-164712100D02*
X25845222Y-164774004D01*
X25845222Y-164774004D02*
X26092841Y-164774004D01*
X26092841Y-164774004D02*
X26216650Y-164712100D01*
X26216650Y-164712100D02*
X26278555Y-164650195D01*
X26278555Y-164650195D02*
X26340460Y-164526385D01*
X26340460Y-164526385D02*
X26340460Y-164216861D01*
X26340460Y-164216861D02*
X26278555Y-164093052D01*
X26278555Y-164093052D02*
X26216650Y-164031147D01*
X26216650Y-164031147D02*
X26092841Y-163969242D01*
X26092841Y-163969242D02*
X25845222Y-163969242D01*
X25845222Y-163969242D02*
X25721412Y-164031147D01*
X25721412Y-164031147D02*
X25659507Y-164093052D01*
X25659507Y-164093052D02*
X25597603Y-164216861D01*
D10*
D11*
X-249748700Y-25173200D02*
X-247748700Y-25173200D01*
D10*
D11*
X-249748700Y-75173200D02*
X-247748700Y-75173200D01*
D10*
D11*
X-249748700Y-125173200D02*
X-247748700Y-125173200D01*
D10*
D11*
X-249058224Y-395376D02*
X-248439177Y-395376D01*
X-249182034Y-766804D02*
X-248748701Y533196D01*
X-248748701Y533196D02*
X-248315367Y-766804D01*
D10*
D11*
X-248655843Y-50085852D02*
X-248470129Y-50147757D01*
X-248470129Y-50147757D02*
X-248408224Y-50209661D01*
X-248408224Y-50209661D02*
X-248346320Y-50333471D01*
X-248346320Y-50333471D02*
X-248346320Y-50519185D01*
X-248346320Y-50519185D02*
X-248408224Y-50642995D01*
X-248408224Y-50642995D02*
X-248470129Y-50704900D01*
X-248470129Y-50704900D02*
X-248593939Y-50766804D01*
X-248593939Y-50766804D02*
X-249089177Y-50766804D01*
X-249089177Y-50766804D02*
X-249089177Y-49466804D01*
X-249089177Y-49466804D02*
X-248655843Y-49466804D01*
X-248655843Y-49466804D02*
X-248532034Y-49528709D01*
X-248532034Y-49528709D02*
X-248470129Y-49590614D01*
X-248470129Y-49590614D02*
X-248408224Y-49714423D01*
X-248408224Y-49714423D02*
X-248408224Y-49838233D01*
X-248408224Y-49838233D02*
X-248470129Y-49962042D01*
X-248470129Y-49962042D02*
X-248532034Y-50023947D01*
X-248532034Y-50023947D02*
X-248655843Y-50085852D01*
X-248655843Y-50085852D02*
X-249089177Y-50085852D01*
D10*
D11*
X-248346320Y-100642995D02*
X-248408224Y-100704900D01*
X-248408224Y-100704900D02*
X-248593939Y-100766804D01*
X-248593939Y-100766804D02*
X-248717748Y-100766804D01*
X-248717748Y-100766804D02*
X-248903462Y-100704900D01*
X-248903462Y-100704900D02*
X-249027272Y-100581090D01*
X-249027272Y-100581090D02*
X-249089177Y-100457280D01*
X-249089177Y-100457280D02*
X-249151081Y-100209661D01*
X-249151081Y-100209661D02*
X-249151081Y-100023947D01*
X-249151081Y-100023947D02*
X-249089177Y-99776328D01*
X-249089177Y-99776328D02*
X-249027272Y-99652519D01*
X-249027272Y-99652519D02*
X-248903462Y-99528709D01*
X-248903462Y-99528709D02*
X-248717748Y-99466804D01*
X-248717748Y-99466804D02*
X-248593939Y-99466804D01*
X-248593939Y-99466804D02*
X-248408224Y-99528709D01*
X-248408224Y-99528709D02*
X-248346320Y-99590614D01*
D10*
D11*
X-249089177Y-150766804D02*
X-249089177Y-149466804D01*
X-249089177Y-149466804D02*
X-248779653Y-149466804D01*
X-248779653Y-149466804D02*
X-248593939Y-149528709D01*
X-248593939Y-149528709D02*
X-248470129Y-149652519D01*
X-248470129Y-149652519D02*
X-248408224Y-149776328D01*
X-248408224Y-149776328D02*
X-248346320Y-150023947D01*
X-248346320Y-150023947D02*
X-248346320Y-150209661D01*
X-248346320Y-150209661D02*
X-248408224Y-150457280D01*
X-248408224Y-150457280D02*
X-248470129Y-150581090D01*
X-248470129Y-150581090D02*
X-248593939Y-150704900D01*
X-248593939Y-150704900D02*
X-248779653Y-150766804D01*
X-248779653Y-150766804D02*
X-249089177Y-150766804D01*
D10*
D11*
X27253500Y-25173200D02*
X25253500Y-25173200D01*
D10*
D11*
X27253500Y-75173200D02*
X25253500Y-75173200D01*
D10*
D11*
X27253500Y-125173200D02*
X25253500Y-125173200D01*
D10*
D11*
X25943976Y-395376D02*
X26563023Y-395376D01*
X25820166Y-766804D02*
X26253499Y533196D01*
X26253499Y533196D02*
X26686833Y-766804D01*
D10*
D11*
X26346357Y-50085852D02*
X26532071Y-50147757D01*
X26532071Y-50147757D02*
X26593976Y-50209661D01*
X26593976Y-50209661D02*
X26655880Y-50333471D01*
X26655880Y-50333471D02*
X26655880Y-50519185D01*
X26655880Y-50519185D02*
X26593976Y-50642995D01*
X26593976Y-50642995D02*
X26532071Y-50704900D01*
X26532071Y-50704900D02*
X26408261Y-50766804D01*
X26408261Y-50766804D02*
X25913023Y-50766804D01*
X25913023Y-50766804D02*
X25913023Y-49466804D01*
X25913023Y-49466804D02*
X26346357Y-49466804D01*
X26346357Y-49466804D02*
X26470166Y-49528709D01*
X26470166Y-49528709D02*
X26532071Y-49590614D01*
X26532071Y-49590614D02*
X26593976Y-49714423D01*
X26593976Y-49714423D02*
X26593976Y-49838233D01*
X26593976Y-49838233D02*
X26532071Y-49962042D01*
X26532071Y-49962042D02*
X26470166Y-50023947D01*
X26470166Y-50023947D02*
X26346357Y-50085852D01*
X26346357Y-50085852D02*
X25913023Y-50085852D01*
D10*
D11*
X26655880Y-100642995D02*
X26593976Y-100704900D01*
X26593976Y-100704900D02*
X26408261Y-100766804D01*
X26408261Y-100766804D02*
X26284452Y-100766804D01*
X26284452Y-100766804D02*
X26098738Y-100704900D01*
X26098738Y-100704900D02*
X25974928Y-100581090D01*
X25974928Y-100581090D02*
X25913023Y-100457280D01*
X25913023Y-100457280D02*
X25851119Y-100209661D01*
X25851119Y-100209661D02*
X25851119Y-100023947D01*
X25851119Y-100023947D02*
X25913023Y-99776328D01*
X25913023Y-99776328D02*
X25974928Y-99652519D01*
X25974928Y-99652519D02*
X26098738Y-99528709D01*
X26098738Y-99528709D02*
X26284452Y-99466804D01*
X26284452Y-99466804D02*
X26408261Y-99466804D01*
X26408261Y-99466804D02*
X26593976Y-99528709D01*
X26593976Y-99528709D02*
X26655880Y-99590614D01*
D10*
D11*
X25913023Y-150766804D02*
X25913023Y-149466804D01*
X25913023Y-149466804D02*
X26222547Y-149466804D01*
X26222547Y-149466804D02*
X26408261Y-149528709D01*
X26408261Y-149528709D02*
X26532071Y-149652519D01*
X26532071Y-149652519D02*
X26593976Y-149776328D01*
X26593976Y-149776328D02*
X26655880Y-150023947D01*
X26655880Y-150023947D02*
X26655880Y-150209661D01*
X26655880Y-150209661D02*
X26593976Y-150457280D01*
X26593976Y-150457280D02*
X26532071Y-150581090D01*
X26532071Y-150581090D02*
X26408261Y-150704900D01*
X26408261Y-150704900D02*
X26222547Y-150766804D01*
X26222547Y-150766804D02*
X25913023Y-150766804D01*
D10*
D11*
X-59290674Y-158966528D02*
X-59290674Y-157466528D01*
X-59290674Y-157466528D02*
X-58933531Y-157466528D01*
X-58933531Y-157466528D02*
X-58719245Y-157537957D01*
X-58719245Y-157537957D02*
X-58576388Y-157680814D01*
X-58576388Y-157680814D02*
X-58504959Y-157823671D01*
X-58504959Y-157823671D02*
X-58433531Y-158109385D01*
X-58433531Y-158109385D02*
X-58433531Y-158323671D01*
X-58433531Y-158323671D02*
X-58504959Y-158609385D01*
X-58504959Y-158609385D02*
X-58576388Y-158752242D01*
X-58576388Y-158752242D02*
X-58719245Y-158895100D01*
X-58719245Y-158895100D02*
X-58933531Y-158966528D01*
X-58933531Y-158966528D02*
X-59290674Y-158966528D01*
X-57147816Y-158966528D02*
X-57147816Y-158180814D01*
X-57147816Y-158180814D02*
X-57219245Y-158037957D01*
X-57219245Y-158037957D02*
X-57362102Y-157966528D01*
X-57362102Y-157966528D02*
X-57647816Y-157966528D01*
X-57647816Y-157966528D02*
X-57790674Y-158037957D01*
X-57147816Y-158895100D02*
X-57290674Y-158966528D01*
X-57290674Y-158966528D02*
X-57647816Y-158966528D01*
X-57647816Y-158966528D02*
X-57790674Y-158895100D01*
X-57790674Y-158895100D02*
X-57862102Y-158752242D01*
X-57862102Y-158752242D02*
X-57862102Y-158609385D01*
X-57862102Y-158609385D02*
X-57790674Y-158466528D01*
X-57790674Y-158466528D02*
X-57647816Y-158395100D01*
X-57647816Y-158395100D02*
X-57290674Y-158395100D01*
X-57290674Y-158395100D02*
X-57147816Y-158323671D01*
X-56647816Y-157966528D02*
X-56076388Y-157966528D01*
X-56433531Y-157466528D02*
X-56433531Y-158752242D01*
X-56433531Y-158752242D02*
X-56362102Y-158895100D01*
X-56362102Y-158895100D02*
X-56219245Y-158966528D01*
X-56219245Y-158966528D02*
X-56076388Y-158966528D01*
X-55004959Y-158895100D02*
X-55147816Y-158966528D01*
X-55147816Y-158966528D02*
X-55433530Y-158966528D01*
X-55433530Y-158966528D02*
X-55576388Y-158895100D01*
X-55576388Y-158895100D02*
X-55647816Y-158752242D01*
X-55647816Y-158752242D02*
X-55647816Y-158180814D01*
X-55647816Y-158180814D02*
X-55576388Y-158037957D01*
X-55576388Y-158037957D02*
X-55433530Y-157966528D01*
X-55433530Y-157966528D02*
X-55147816Y-157966528D01*
X-55147816Y-157966528D02*
X-55004959Y-158037957D01*
X-55004959Y-158037957D02*
X-54933530Y-158180814D01*
X-54933530Y-158180814D02*
X-54933530Y-158323671D01*
X-54933530Y-158323671D02*
X-55647816Y-158466528D01*
X-54290674Y-158823671D02*
X-54219245Y-158895100D01*
X-54219245Y-158895100D02*
X-54290674Y-158966528D01*
X-54290674Y-158966528D02*
X-54362102Y-158895100D01*
X-54362102Y-158895100D02*
X-54290674Y-158823671D01*
X-54290674Y-158823671D02*
X-54290674Y-158966528D01*
X-54290674Y-158037957D02*
X-54219245Y-158109385D01*
X-54219245Y-158109385D02*
X-54290674Y-158180814D01*
X-54290674Y-158180814D02*
X-54362102Y-158109385D01*
X-54362102Y-158109385D02*
X-54290674Y-158037957D01*
X-54290674Y-158037957D02*
X-54290674Y-158180814D01*
D10*
D11*
X-82746500Y-159680400D02*
X25253500Y-159680400D01*
D10*
D11*
X-81290674Y-161766528D02*
X-81290674Y-160266528D01*
X-80433531Y-161766528D02*
X-81076388Y-160909385D01*
X-80433531Y-160266528D02*
X-81290674Y-161123671D01*
X-79790674Y-161766528D02*
X-79790674Y-160766528D01*
X-79790674Y-160266528D02*
X-79862102Y-160337957D01*
X-79862102Y-160337957D02*
X-79790674Y-160409385D01*
X-79790674Y-160409385D02*
X-79719245Y-160337957D01*
X-79719245Y-160337957D02*
X-79790674Y-160266528D01*
X-79790674Y-160266528D02*
X-79790674Y-160409385D01*
X-78219245Y-161623671D02*
X-78290673Y-161695100D01*
X-78290673Y-161695100D02*
X-78504959Y-161766528D01*
X-78504959Y-161766528D02*
X-78647816Y-161766528D01*
X-78647816Y-161766528D02*
X-78862102Y-161695100D01*
X-78862102Y-161695100D02*
X-79004959Y-161552242D01*
X-79004959Y-161552242D02*
X-79076388Y-161409385D01*
X-79076388Y-161409385D02*
X-79147816Y-161123671D01*
X-79147816Y-161123671D02*
X-79147816Y-160909385D01*
X-79147816Y-160909385D02*
X-79076388Y-160623671D01*
X-79076388Y-160623671D02*
X-79004959Y-160480814D01*
X-79004959Y-160480814D02*
X-78862102Y-160337957D01*
X-78862102Y-160337957D02*
X-78647816Y-160266528D01*
X-78647816Y-160266528D02*
X-78504959Y-160266528D01*
X-78504959Y-160266528D02*
X-78290673Y-160337957D01*
X-78290673Y-160337957D02*
X-78219245Y-160409385D01*
X-76933530Y-161766528D02*
X-76933530Y-160980814D01*
X-76933530Y-160980814D02*
X-77004959Y-160837957D01*
X-77004959Y-160837957D02*
X-77147816Y-160766528D01*
X-77147816Y-160766528D02*
X-77433530Y-160766528D01*
X-77433530Y-160766528D02*
X-77576388Y-160837957D01*
X-76933530Y-161695100D02*
X-77076388Y-161766528D01*
X-77076388Y-161766528D02*
X-77433530Y-161766528D01*
X-77433530Y-161766528D02*
X-77576388Y-161695100D01*
X-77576388Y-161695100D02*
X-77647816Y-161552242D01*
X-77647816Y-161552242D02*
X-77647816Y-161409385D01*
X-77647816Y-161409385D02*
X-77576388Y-161266528D01*
X-77576388Y-161266528D02*
X-77433530Y-161195100D01*
X-77433530Y-161195100D02*
X-77076388Y-161195100D01*
X-77076388Y-161195100D02*
X-76933530Y-161123671D01*
X-75576387Y-161766528D02*
X-75576387Y-160266528D01*
X-75576387Y-161695100D02*
X-75719245Y-161766528D01*
X-75719245Y-161766528D02*
X-76004959Y-161766528D01*
X-76004959Y-161766528D02*
X-76147816Y-161695100D01*
X-76147816Y-161695100D02*
X-76219245Y-161623671D01*
X-76219245Y-161623671D02*
X-76290673Y-161480814D01*
X-76290673Y-161480814D02*
X-76290673Y-161052242D01*
X-76290673Y-161052242D02*
X-76219245Y-160909385D01*
X-76219245Y-160909385D02*
X-76147816Y-160837957D01*
X-76147816Y-160837957D02*
X-76004959Y-160766528D01*
X-76004959Y-160766528D02*
X-75719245Y-160766528D01*
X-75719245Y-160766528D02*
X-75576387Y-160837957D01*
X-73719245Y-160980814D02*
X-73219245Y-160980814D01*
X-73004959Y-161766528D02*
X-73719245Y-161766528D01*
X-73719245Y-161766528D02*
X-73719245Y-160266528D01*
X-73719245Y-160266528D02*
X-73004959Y-160266528D01*
X-72362102Y-161623671D02*
X-72290673Y-161695100D01*
X-72290673Y-161695100D02*
X-72362102Y-161766528D01*
X-72362102Y-161766528D02*
X-72433530Y-161695100D01*
X-72433530Y-161695100D02*
X-72362102Y-161623671D01*
X-72362102Y-161623671D02*
X-72362102Y-161766528D01*
X-71647816Y-161766528D02*
X-71647816Y-160266528D01*
X-71647816Y-160266528D02*
X-71290673Y-160266528D01*
X-71290673Y-160266528D02*
X-71076387Y-160337957D01*
X-71076387Y-160337957D02*
X-70933530Y-160480814D01*
X-70933530Y-160480814D02*
X-70862101Y-160623671D01*
X-70862101Y-160623671D02*
X-70790673Y-160909385D01*
X-70790673Y-160909385D02*
X-70790673Y-161123671D01*
X-70790673Y-161123671D02*
X-70862101Y-161409385D01*
X-70862101Y-161409385D02*
X-70933530Y-161552242D01*
X-70933530Y-161552242D02*
X-71076387Y-161695100D01*
X-71076387Y-161695100D02*
X-71290673Y-161766528D01*
X-71290673Y-161766528D02*
X-71647816Y-161766528D01*
X-70147816Y-161623671D02*
X-70076387Y-161695100D01*
X-70076387Y-161695100D02*
X-70147816Y-161766528D01*
X-70147816Y-161766528D02*
X-70219244Y-161695100D01*
X-70219244Y-161695100D02*
X-70147816Y-161623671D01*
X-70147816Y-161623671D02*
X-70147816Y-161766528D01*
X-69504958Y-161337957D02*
X-68790672Y-161337957D01*
X-69647815Y-161766528D02*
X-69147815Y-160266528D01*
X-69147815Y-160266528D02*
X-68647815Y-161766528D01*
X-68147816Y-161623671D02*
X-68076387Y-161695100D01*
X-68076387Y-161695100D02*
X-68147816Y-161766528D01*
X-68147816Y-161766528D02*
X-68219244Y-161695100D01*
X-68219244Y-161695100D02*
X-68147816Y-161623671D01*
X-68147816Y-161623671D02*
X-68147816Y-161766528D01*
X-66076387Y-160909385D02*
X-66219244Y-160837957D01*
X-66219244Y-160837957D02*
X-66290673Y-160766528D01*
X-66290673Y-160766528D02*
X-66362101Y-160623671D01*
X-66362101Y-160623671D02*
X-66362101Y-160552242D01*
X-66362101Y-160552242D02*
X-66290673Y-160409385D01*
X-66290673Y-160409385D02*
X-66219244Y-160337957D01*
X-66219244Y-160337957D02*
X-66076387Y-160266528D01*
X-66076387Y-160266528D02*
X-65790673Y-160266528D01*
X-65790673Y-160266528D02*
X-65647815Y-160337957D01*
X-65647815Y-160337957D02*
X-65576387Y-160409385D01*
X-65576387Y-160409385D02*
X-65504958Y-160552242D01*
X-65504958Y-160552242D02*
X-65504958Y-160623671D01*
X-65504958Y-160623671D02*
X-65576387Y-160766528D01*
X-65576387Y-160766528D02*
X-65647815Y-160837957D01*
X-65647815Y-160837957D02*
X-65790673Y-160909385D01*
X-65790673Y-160909385D02*
X-66076387Y-160909385D01*
X-66076387Y-160909385D02*
X-66219244Y-160980814D01*
X-66219244Y-160980814D02*
X-66290673Y-161052242D01*
X-66290673Y-161052242D02*
X-66362101Y-161195100D01*
X-66362101Y-161195100D02*
X-66362101Y-161480814D01*
X-66362101Y-161480814D02*
X-66290673Y-161623671D01*
X-66290673Y-161623671D02*
X-66219244Y-161695100D01*
X-66219244Y-161695100D02*
X-66076387Y-161766528D01*
X-66076387Y-161766528D02*
X-65790673Y-161766528D01*
X-65790673Y-161766528D02*
X-65647815Y-161695100D01*
X-65647815Y-161695100D02*
X-65576387Y-161623671D01*
X-65576387Y-161623671D02*
X-65504958Y-161480814D01*
X-65504958Y-161480814D02*
X-65504958Y-161195100D01*
X-65504958Y-161195100D02*
X-65576387Y-161052242D01*
X-65576387Y-161052242D02*
X-65647815Y-160980814D01*
X-65647815Y-160980814D02*
X-65790673Y-160909385D01*
X-64862102Y-161623671D02*
X-64790673Y-161695100D01*
X-64790673Y-161695100D02*
X-64862102Y-161766528D01*
X-64862102Y-161766528D02*
X-64933530Y-161695100D01*
X-64933530Y-161695100D02*
X-64862102Y-161623671D01*
X-64862102Y-161623671D02*
X-64862102Y-161766528D01*
X-63862101Y-160266528D02*
X-63719244Y-160266528D01*
X-63719244Y-160266528D02*
X-63576387Y-160337957D01*
X-63576387Y-160337957D02*
X-63504958Y-160409385D01*
X-63504958Y-160409385D02*
X-63433530Y-160552242D01*
X-63433530Y-160552242D02*
X-63362101Y-160837957D01*
X-63362101Y-160837957D02*
X-63362101Y-161195100D01*
X-63362101Y-161195100D02*
X-63433530Y-161480814D01*
X-63433530Y-161480814D02*
X-63504958Y-161623671D01*
X-63504958Y-161623671D02*
X-63576387Y-161695100D01*
X-63576387Y-161695100D02*
X-63719244Y-161766528D01*
X-63719244Y-161766528D02*
X-63862101Y-161766528D01*
X-63862101Y-161766528D02*
X-64004958Y-161695100D01*
X-64004958Y-161695100D02*
X-64076387Y-161623671D01*
X-64076387Y-161623671D02*
X-64147816Y-161480814D01*
X-64147816Y-161480814D02*
X-64219244Y-161195100D01*
X-64219244Y-161195100D02*
X-64219244Y-160837957D01*
X-64219244Y-160837957D02*
X-64147816Y-160552242D01*
X-64147816Y-160552242D02*
X-64076387Y-160409385D01*
X-64076387Y-160409385D02*
X-64004958Y-160337957D01*
X-64004958Y-160337957D02*
X-63862101Y-160266528D01*
X-62719245Y-161623671D02*
X-62647816Y-161695100D01*
X-62647816Y-161695100D02*
X-62719245Y-161766528D01*
X-62719245Y-161766528D02*
X-62790673Y-161695100D01*
X-62790673Y-161695100D02*
X-62719245Y-161623671D01*
X-62719245Y-161623671D02*
X-62719245Y-161766528D01*
X-61362101Y-160266528D02*
X-61647816Y-160266528D01*
X-61647816Y-160266528D02*
X-61790673Y-160337957D01*
X-61790673Y-160337957D02*
X-61862101Y-160409385D01*
X-61862101Y-160409385D02*
X-62004959Y-160623671D01*
X-62004959Y-160623671D02*
X-62076387Y-160909385D01*
X-62076387Y-160909385D02*
X-62076387Y-161480814D01*
X-62076387Y-161480814D02*
X-62004959Y-161623671D01*
X-62004959Y-161623671D02*
X-61933530Y-161695100D01*
X-61933530Y-161695100D02*
X-61790673Y-161766528D01*
X-61790673Y-161766528D02*
X-61504959Y-161766528D01*
X-61504959Y-161766528D02*
X-61362101Y-161695100D01*
X-61362101Y-161695100D02*
X-61290673Y-161623671D01*
X-61290673Y-161623671D02*
X-61219244Y-161480814D01*
X-61219244Y-161480814D02*
X-61219244Y-161123671D01*
X-61219244Y-161123671D02*
X-61290673Y-160980814D01*
X-61290673Y-160980814D02*
X-61362101Y-160909385D01*
X-61362101Y-160909385D02*
X-61504959Y-160837957D01*
X-61504959Y-160837957D02*
X-61790673Y-160837957D01*
X-61790673Y-160837957D02*
X-61933530Y-160909385D01*
X-61933530Y-160909385D02*
X-62004959Y-160980814D01*
X-62004959Y-160980814D02*
X-62076387Y-161123671D01*
D10*
D11*
X-82746500Y-156680400D02*
X25253500Y-156680400D01*
D10*
D12*
X4665153Y-158958728D02*
X4165153Y-158244442D01*
X3808010Y-158958728D02*
X3808010Y-157458728D01*
X3808010Y-157458728D02*
X4379439Y-157458728D01*
X4379439Y-157458728D02*
X4522296Y-157530157D01*
X4522296Y-157530157D02*
X4593725Y-157601585D01*
X4593725Y-157601585D02*
X4665153Y-157744442D01*
X4665153Y-157744442D02*
X4665153Y-157958728D01*
X4665153Y-157958728D02*
X4593725Y-158101585D01*
X4593725Y-158101585D02*
X4522296Y-158173014D01*
X4522296Y-158173014D02*
X4379439Y-158244442D01*
X4379439Y-158244442D02*
X3808010Y-158244442D01*
X5879439Y-158887300D02*
X5736582Y-158958728D01*
X5736582Y-158958728D02*
X5450868Y-158958728D01*
X5450868Y-158958728D02*
X5308010Y-158887300D01*
X5308010Y-158887300D02*
X5236582Y-158744442D01*
X5236582Y-158744442D02*
X5236582Y-158173014D01*
X5236582Y-158173014D02*
X5308010Y-158030157D01*
X5308010Y-158030157D02*
X5450868Y-157958728D01*
X5450868Y-157958728D02*
X5736582Y-157958728D01*
X5736582Y-157958728D02*
X5879439Y-158030157D01*
X5879439Y-158030157D02*
X5950868Y-158173014D01*
X5950868Y-158173014D02*
X5950868Y-158315871D01*
X5950868Y-158315871D02*
X5236582Y-158458728D01*
X6450867Y-157958728D02*
X6808010Y-158958728D01*
X6808010Y-158958728D02*
X7165153Y-157958728D01*
X7736581Y-158815871D02*
X7808010Y-158887300D01*
X7808010Y-158887300D02*
X7736581Y-158958728D01*
X7736581Y-158958728D02*
X7665153Y-158887300D01*
X7665153Y-158887300D02*
X7736581Y-158815871D01*
X7736581Y-158815871D02*
X7736581Y-158958728D01*
X7736581Y-158030157D02*
X7808010Y-158101585D01*
X7808010Y-158101585D02*
X7736581Y-158173014D01*
X7736581Y-158173014D02*
X7665153Y-158101585D01*
X7665153Y-158101585D02*
X7736581Y-158030157D01*
X7736581Y-158030157D02*
X7736581Y-158173014D01*
D10*
D11*
X-81362102Y-158895100D02*
X-81147816Y-158966528D01*
X-81147816Y-158966528D02*
X-80790674Y-158966528D01*
X-80790674Y-158966528D02*
X-80647816Y-158895100D01*
X-80647816Y-158895100D02*
X-80576388Y-158823671D01*
X-80576388Y-158823671D02*
X-80504959Y-158680814D01*
X-80504959Y-158680814D02*
X-80504959Y-158537957D01*
X-80504959Y-158537957D02*
X-80576388Y-158395100D01*
X-80576388Y-158395100D02*
X-80647816Y-158323671D01*
X-80647816Y-158323671D02*
X-80790674Y-158252242D01*
X-80790674Y-158252242D02*
X-81076388Y-158180814D01*
X-81076388Y-158180814D02*
X-81219245Y-158109385D01*
X-81219245Y-158109385D02*
X-81290674Y-158037957D01*
X-81290674Y-158037957D02*
X-81362102Y-157895100D01*
X-81362102Y-157895100D02*
X-81362102Y-157752242D01*
X-81362102Y-157752242D02*
X-81290674Y-157609385D01*
X-81290674Y-157609385D02*
X-81219245Y-157537957D01*
X-81219245Y-157537957D02*
X-81076388Y-157466528D01*
X-81076388Y-157466528D02*
X-80719245Y-157466528D01*
X-80719245Y-157466528D02*
X-80504959Y-157537957D01*
X-79862103Y-158966528D02*
X-79862103Y-157966528D01*
X-79862103Y-157466528D02*
X-79933531Y-157537957D01*
X-79933531Y-157537957D02*
X-79862103Y-157609385D01*
X-79862103Y-157609385D02*
X-79790674Y-157537957D01*
X-79790674Y-157537957D02*
X-79862103Y-157466528D01*
X-79862103Y-157466528D02*
X-79862103Y-157609385D01*
X-79290674Y-157966528D02*
X-78504959Y-157966528D01*
X-78504959Y-157966528D02*
X-79290674Y-158966528D01*
X-79290674Y-158966528D02*
X-78504959Y-158966528D01*
X-77362102Y-158895100D02*
X-77504959Y-158966528D01*
X-77504959Y-158966528D02*
X-77790673Y-158966528D01*
X-77790673Y-158966528D02*
X-77933531Y-158895100D01*
X-77933531Y-158895100D02*
X-78004959Y-158752242D01*
X-78004959Y-158752242D02*
X-78004959Y-158180814D01*
X-78004959Y-158180814D02*
X-77933531Y-158037957D01*
X-77933531Y-158037957D02*
X-77790673Y-157966528D01*
X-77790673Y-157966528D02*
X-77504959Y-157966528D01*
X-77504959Y-157966528D02*
X-77362102Y-158037957D01*
X-77362102Y-158037957D02*
X-77290673Y-158180814D01*
X-77290673Y-158180814D02*
X-77290673Y-158323671D01*
X-77290673Y-158323671D02*
X-78004959Y-158466528D01*
X-76647817Y-158823671D02*
X-76576388Y-158895100D01*
X-76576388Y-158895100D02*
X-76647817Y-158966528D01*
X-76647817Y-158966528D02*
X-76719245Y-158895100D01*
X-76719245Y-158895100D02*
X-76647817Y-158823671D01*
X-76647817Y-158823671D02*
X-76647817Y-158966528D01*
X-76647817Y-158037957D02*
X-76576388Y-158109385D01*
X-76576388Y-158109385D02*
X-76647817Y-158180814D01*
X-76647817Y-158180814D02*
X-76719245Y-158109385D01*
X-76719245Y-158109385D02*
X-76647817Y-158037957D01*
X-76647817Y-158037957D02*
X-76647817Y-158180814D01*
X-74862102Y-158537957D02*
X-74147816Y-158537957D01*
X-75004959Y-158966528D02*
X-74504959Y-157466528D01*
X-74504959Y-157466528D02*
X-74004959Y-158966528D01*
X-72862102Y-157966528D02*
X-72862102Y-158966528D01*
X-73219245Y-157395100D02*
X-73576388Y-158466528D01*
X-73576388Y-158466528D02*
X-72647817Y-158466528D01*
D10*
D11*
X3709326Y-161766528D02*
X3709326Y-160266528D01*
X5066470Y-161766528D02*
X5066470Y-160266528D01*
X5066470Y-161695100D02*
X4923612Y-161766528D01*
X4923612Y-161766528D02*
X4637898Y-161766528D01*
X4637898Y-161766528D02*
X4495041Y-161695100D01*
X4495041Y-161695100D02*
X4423612Y-161623671D01*
X4423612Y-161623671D02*
X4352184Y-161480814D01*
X4352184Y-161480814D02*
X4352184Y-161052242D01*
X4352184Y-161052242D02*
X4423612Y-160909385D01*
X4423612Y-160909385D02*
X4495041Y-160837957D01*
X4495041Y-160837957D02*
X4637898Y-160766528D01*
X4637898Y-160766528D02*
X4923612Y-160766528D01*
X4923612Y-160766528D02*
X5066470Y-160837957D01*
X5780755Y-161623671D02*
X5852184Y-161695100D01*
X5852184Y-161695100D02*
X5780755Y-161766528D01*
X5780755Y-161766528D02*
X5709327Y-161695100D01*
X5709327Y-161695100D02*
X5780755Y-161623671D01*
X5780755Y-161623671D02*
X5780755Y-161766528D01*
X5780755Y-160837957D02*
X5852184Y-160909385D01*
X5852184Y-160909385D02*
X5780755Y-160980814D01*
X5780755Y-160980814D02*
X5709327Y-160909385D01*
X5709327Y-160909385D02*
X5780755Y-160837957D01*
X5780755Y-160837957D02*
X5780755Y-160980814D01*
X8423613Y-161766528D02*
X7566470Y-161766528D01*
X7995041Y-161766528D02*
X7995041Y-160266528D01*
X7995041Y-160266528D02*
X7852184Y-160480814D01*
X7852184Y-160480814D02*
X7709327Y-160623671D01*
X7709327Y-160623671D02*
X7566470Y-160695100D01*
X10137898Y-160195100D02*
X8852184Y-162123671D01*
X11423613Y-161766528D02*
X10566470Y-161766528D01*
X10995041Y-161766528D02*
X10995041Y-160266528D01*
X10995041Y-160266528D02*
X10852184Y-160480814D01*
X10852184Y-160480814D02*
X10709327Y-160623671D01*
X10709327Y-160623671D02*
X10566470Y-160695100D01*
D10*
D11*
X-82746500Y-152680400D02*
X25253500Y-152680400D01*
D10*
D13*
X-81054772Y-153384838D02*
X-79911915Y-153384838D01*
X-80733343Y-155384838D02*
X-80483343Y-153384838D01*
X-79495248Y-155384838D02*
X-79328581Y-154051504D01*
X-79245248Y-153384838D02*
X-79352391Y-153480076D01*
X-79352391Y-153480076D02*
X-79269057Y-153575314D01*
X-79269057Y-153575314D02*
X-79161914Y-153480076D01*
X-79161914Y-153480076D02*
X-79245248Y-153384838D01*
X-79245248Y-153384838D02*
X-79269057Y-153575314D01*
X-78661914Y-154051504D02*
X-77900010Y-154051504D01*
X-78292867Y-153384838D02*
X-78507152Y-155099123D01*
X-78507152Y-155099123D02*
X-78435724Y-155289600D01*
X-78435724Y-155289600D02*
X-78257152Y-155384838D01*
X-78257152Y-155384838D02*
X-78066676Y-155384838D01*
X-77114295Y-155384838D02*
X-77292867Y-155289600D01*
X-77292867Y-155289600D02*
X-77364295Y-155099123D01*
X-77364295Y-155099123D02*
X-77150010Y-153384838D01*
X-75578581Y-155289600D02*
X-75780962Y-155384838D01*
X-75780962Y-155384838D02*
X-76161915Y-155384838D01*
X-76161915Y-155384838D02*
X-76340486Y-155289600D01*
X-76340486Y-155289600D02*
X-76411915Y-155099123D01*
X-76411915Y-155099123D02*
X-76316676Y-154337219D01*
X-76316676Y-154337219D02*
X-76197629Y-154146742D01*
X-76197629Y-154146742D02*
X-75995248Y-154051504D01*
X-75995248Y-154051504D02*
X-75614296Y-154051504D01*
X-75614296Y-154051504D02*
X-75435724Y-154146742D01*
X-75435724Y-154146742D02*
X-75364296Y-154337219D01*
X-75364296Y-154337219D02*
X-75388105Y-154527695D01*
X-75388105Y-154527695D02*
X-76364296Y-154718171D01*
X-74614295Y-155194361D02*
X-74530962Y-155289600D01*
X-74530962Y-155289600D02*
X-74638105Y-155384838D01*
X-74638105Y-155384838D02*
X-74721438Y-155289600D01*
X-74721438Y-155289600D02*
X-74614295Y-155194361D01*
X-74614295Y-155194361D02*
X-74638105Y-155384838D01*
X-74483343Y-154146742D02*
X-74400010Y-154241980D01*
X-74400010Y-154241980D02*
X-74507152Y-154337219D01*
X-74507152Y-154337219D02*
X-74590486Y-154241980D01*
X-74590486Y-154241980D02*
X-74483343Y-154146742D01*
X-74483343Y-154146742D02*
X-74507152Y-154337219D01*
D10*
D11*
X-80790674Y-150780814D02*
X-81290674Y-150780814D01*
X-81290674Y-151566528D02*
X-81290674Y-150066528D01*
X-81290674Y-150066528D02*
X-80576388Y-150066528D01*
X-80004960Y-151566528D02*
X-80004960Y-150566528D01*
X-80004960Y-150066528D02*
X-80076388Y-150137957D01*
X-80076388Y-150137957D02*
X-80004960Y-150209385D01*
X-80004960Y-150209385D02*
X-79933531Y-150137957D01*
X-79933531Y-150137957D02*
X-80004960Y-150066528D01*
X-80004960Y-150066528D02*
X-80004960Y-150209385D01*
X-79076388Y-151566528D02*
X-79219245Y-151495100D01*
X-79219245Y-151495100D02*
X-79290674Y-151352242D01*
X-79290674Y-151352242D02*
X-79290674Y-150066528D01*
X-77933531Y-151495100D02*
X-78076388Y-151566528D01*
X-78076388Y-151566528D02*
X-78362102Y-151566528D01*
X-78362102Y-151566528D02*
X-78504960Y-151495100D01*
X-78504960Y-151495100D02*
X-78576388Y-151352242D01*
X-78576388Y-151352242D02*
X-78576388Y-150780814D01*
X-78576388Y-150780814D02*
X-78504960Y-150637957D01*
X-78504960Y-150637957D02*
X-78362102Y-150566528D01*
X-78362102Y-150566528D02*
X-78076388Y-150566528D01*
X-78076388Y-150566528D02*
X-77933531Y-150637957D01*
X-77933531Y-150637957D02*
X-77862102Y-150780814D01*
X-77862102Y-150780814D02*
X-77862102Y-150923671D01*
X-77862102Y-150923671D02*
X-78576388Y-151066528D01*
X-77219246Y-151423671D02*
X-77147817Y-151495100D01*
X-77147817Y-151495100D02*
X-77219246Y-151566528D01*
X-77219246Y-151566528D02*
X-77290674Y-151495100D01*
X-77290674Y-151495100D02*
X-77219246Y-151423671D01*
X-77219246Y-151423671D02*
X-77219246Y-151566528D01*
X-77219246Y-150637957D02*
X-77147817Y-150709385D01*
X-77147817Y-150709385D02*
X-77219246Y-150780814D01*
X-77219246Y-150780814D02*
X-77290674Y-150709385D01*
X-77290674Y-150709385D02*
X-77219246Y-150637957D01*
X-77219246Y-150637957D02*
X-77219246Y-150780814D01*
X-74719245Y-150066528D02*
X-75004960Y-150066528D01*
X-75004960Y-150066528D02*
X-75147817Y-150137957D01*
X-75147817Y-150137957D02*
X-75219245Y-150209385D01*
X-75219245Y-150209385D02*
X-75362103Y-150423671D01*
X-75362103Y-150423671D02*
X-75433531Y-150709385D01*
X-75433531Y-150709385D02*
X-75433531Y-151280814D01*
X-75433531Y-151280814D02*
X-75362103Y-151423671D01*
X-75362103Y-151423671D02*
X-75290674Y-151495100D01*
X-75290674Y-151495100D02*
X-75147817Y-151566528D01*
X-75147817Y-151566528D02*
X-74862103Y-151566528D01*
X-74862103Y-151566528D02*
X-74719245Y-151495100D01*
X-74719245Y-151495100D02*
X-74647817Y-151423671D01*
X-74647817Y-151423671D02*
X-74576388Y-151280814D01*
X-74576388Y-151280814D02*
X-74576388Y-150923671D01*
X-74576388Y-150923671D02*
X-74647817Y-150780814D01*
X-74647817Y-150780814D02*
X-74719245Y-150709385D01*
X-74719245Y-150709385D02*
X-74862103Y-150637957D01*
X-74862103Y-150637957D02*
X-75147817Y-150637957D01*
X-75147817Y-150637957D02*
X-75290674Y-150709385D01*
X-75290674Y-150709385D02*
X-75362103Y-150780814D01*
X-75362103Y-150780814D02*
X-75433531Y-150923671D01*
X-73219246Y-150066528D02*
X-73933532Y-150066528D01*
X-73933532Y-150066528D02*
X-74004960Y-150780814D01*
X-74004960Y-150780814D02*
X-73933532Y-150709385D01*
X-73933532Y-150709385D02*
X-73790674Y-150637957D01*
X-73790674Y-150637957D02*
X-73433532Y-150637957D01*
X-73433532Y-150637957D02*
X-73290674Y-150709385D01*
X-73290674Y-150709385D02*
X-73219246Y-150780814D01*
X-73219246Y-150780814D02*
X-73147817Y-150923671D01*
X-73147817Y-150923671D02*
X-73147817Y-151280814D01*
X-73147817Y-151280814D02*
X-73219246Y-151423671D01*
X-73219246Y-151423671D02*
X-73290674Y-151495100D01*
X-73290674Y-151495100D02*
X-73433532Y-151566528D01*
X-73433532Y-151566528D02*
X-73790674Y-151566528D01*
X-73790674Y-151566528D02*
X-73933532Y-151495100D01*
X-73933532Y-151495100D02*
X-74004960Y-151423671D01*
X-72862103Y-151709385D02*
X-71719246Y-151709385D01*
X-71433532Y-151495100D02*
X-71290675Y-151566528D01*
X-71290675Y-151566528D02*
X-71004961Y-151566528D01*
X-71004961Y-151566528D02*
X-70862104Y-151495100D01*
X-70862104Y-151495100D02*
X-70790675Y-151352242D01*
X-70790675Y-151352242D02*
X-70790675Y-151280814D01*
X-70790675Y-151280814D02*
X-70862104Y-151137957D01*
X-70862104Y-151137957D02*
X-71004961Y-151066528D01*
X-71004961Y-151066528D02*
X-71219246Y-151066528D01*
X-71219246Y-151066528D02*
X-71362104Y-150995100D01*
X-71362104Y-150995100D02*
X-71433532Y-150852242D01*
X-71433532Y-150852242D02*
X-71433532Y-150780814D01*
X-71433532Y-150780814D02*
X-71362104Y-150637957D01*
X-71362104Y-150637957D02*
X-71219246Y-150566528D01*
X-71219246Y-150566528D02*
X-71004961Y-150566528D01*
X-71004961Y-150566528D02*
X-70862104Y-150637957D01*
X-70147818Y-150566528D02*
X-70147818Y-152066528D01*
X-70147818Y-150637957D02*
X-70004960Y-150566528D01*
X-70004960Y-150566528D02*
X-69719246Y-150566528D01*
X-69719246Y-150566528D02*
X-69576389Y-150637957D01*
X-69576389Y-150637957D02*
X-69504960Y-150709385D01*
X-69504960Y-150709385D02*
X-69433532Y-150852242D01*
X-69433532Y-150852242D02*
X-69433532Y-151280814D01*
X-69433532Y-151280814D02*
X-69504960Y-151423671D01*
X-69504960Y-151423671D02*
X-69576389Y-151495100D01*
X-69576389Y-151495100D02*
X-69719246Y-151566528D01*
X-69719246Y-151566528D02*
X-70004960Y-151566528D01*
X-70004960Y-151566528D02*
X-70147818Y-151495100D01*
X-68576389Y-151566528D02*
X-68719246Y-151495100D01*
X-68719246Y-151495100D02*
X-68790675Y-151352242D01*
X-68790675Y-151352242D02*
X-68790675Y-150066528D01*
X-68004961Y-151566528D02*
X-68004961Y-150566528D01*
X-68004961Y-150066528D02*
X-68076389Y-150137957D01*
X-68076389Y-150137957D02*
X-68004961Y-150209385D01*
X-68004961Y-150209385D02*
X-67933532Y-150137957D01*
X-67933532Y-150137957D02*
X-68004961Y-150066528D01*
X-68004961Y-150066528D02*
X-68004961Y-150209385D01*
X-67504960Y-150566528D02*
X-66933532Y-150566528D01*
X-67290675Y-150066528D02*
X-67290675Y-151352242D01*
X-67290675Y-151352242D02*
X-67219246Y-151495100D01*
X-67219246Y-151495100D02*
X-67076389Y-151566528D01*
X-67076389Y-151566528D02*
X-66933532Y-151566528D01*
X-66790674Y-151709385D02*
X-65647817Y-151709385D01*
X-65290675Y-151566528D02*
X-65290675Y-150566528D01*
X-65290675Y-150852242D02*
X-65219246Y-150709385D01*
X-65219246Y-150709385D02*
X-65147817Y-150637957D01*
X-65147817Y-150637957D02*
X-65004960Y-150566528D01*
X-65004960Y-150566528D02*
X-64862103Y-150566528D01*
X-64362104Y-151566528D02*
X-64362104Y-150566528D01*
X-64362104Y-150066528D02*
X-64433532Y-150137957D01*
X-64433532Y-150137957D02*
X-64362104Y-150209385D01*
X-64362104Y-150209385D02*
X-64290675Y-150137957D01*
X-64290675Y-150137957D02*
X-64362104Y-150066528D01*
X-64362104Y-150066528D02*
X-64362104Y-150209385D01*
X-63004960Y-150566528D02*
X-63004960Y-151780814D01*
X-63004960Y-151780814D02*
X-63076389Y-151923671D01*
X-63076389Y-151923671D02*
X-63147818Y-151995100D01*
X-63147818Y-151995100D02*
X-63290675Y-152066528D01*
X-63290675Y-152066528D02*
X-63504960Y-152066528D01*
X-63504960Y-152066528D02*
X-63647818Y-151995100D01*
X-63004960Y-151495100D02*
X-63147818Y-151566528D01*
X-63147818Y-151566528D02*
X-63433532Y-151566528D01*
X-63433532Y-151566528D02*
X-63576389Y-151495100D01*
X-63576389Y-151495100D02*
X-63647818Y-151423671D01*
X-63647818Y-151423671D02*
X-63719246Y-151280814D01*
X-63719246Y-151280814D02*
X-63719246Y-150852242D01*
X-63719246Y-150852242D02*
X-63647818Y-150709385D01*
X-63647818Y-150709385D02*
X-63576389Y-150637957D01*
X-63576389Y-150637957D02*
X-63433532Y-150566528D01*
X-63433532Y-150566528D02*
X-63147818Y-150566528D01*
X-63147818Y-150566528D02*
X-63004960Y-150637957D01*
X-62290675Y-151566528D02*
X-62290675Y-150066528D01*
X-61647817Y-151566528D02*
X-61647817Y-150780814D01*
X-61647817Y-150780814D02*
X-61719246Y-150637957D01*
X-61719246Y-150637957D02*
X-61862103Y-150566528D01*
X-61862103Y-150566528D02*
X-62076389Y-150566528D01*
X-62076389Y-150566528D02*
X-62219246Y-150637957D01*
X-62219246Y-150637957D02*
X-62290675Y-150709385D01*
X-61147817Y-150566528D02*
X-60576389Y-150566528D01*
X-60933532Y-150066528D02*
X-60933532Y-151352242D01*
X-60933532Y-151352242D02*
X-60862103Y-151495100D01*
X-60862103Y-151495100D02*
X-60719246Y-151566528D01*
X-60719246Y-151566528D02*
X-60576389Y-151566528D01*
X-60076389Y-151423671D02*
X-60004960Y-151495100D01*
X-60004960Y-151495100D02*
X-60076389Y-151566528D01*
X-60076389Y-151566528D02*
X-60147817Y-151495100D01*
X-60147817Y-151495100D02*
X-60076389Y-151423671D01*
X-60076389Y-151423671D02*
X-60076389Y-151566528D01*
X-59362103Y-151566528D02*
X-59362103Y-150066528D01*
X-59219245Y-150995100D02*
X-58790674Y-151566528D01*
X-58790674Y-150566528D02*
X-59362103Y-151137957D01*
X-58147817Y-151566528D02*
X-58147817Y-150566528D01*
X-58147817Y-150066528D02*
X-58219245Y-150137957D01*
X-58219245Y-150137957D02*
X-58147817Y-150209385D01*
X-58147817Y-150209385D02*
X-58076388Y-150137957D01*
X-58076388Y-150137957D02*
X-58147817Y-150066528D01*
X-58147817Y-150066528D02*
X-58147817Y-150209385D01*
X-56790673Y-151495100D02*
X-56933531Y-151566528D01*
X-56933531Y-151566528D02*
X-57219245Y-151566528D01*
X-57219245Y-151566528D02*
X-57362102Y-151495100D01*
X-57362102Y-151495100D02*
X-57433531Y-151423671D01*
X-57433531Y-151423671D02*
X-57504959Y-151280814D01*
X-57504959Y-151280814D02*
X-57504959Y-150852242D01*
X-57504959Y-150852242D02*
X-57433531Y-150709385D01*
X-57433531Y-150709385D02*
X-57362102Y-150637957D01*
X-57362102Y-150637957D02*
X-57219245Y-150566528D01*
X-57219245Y-150566528D02*
X-56933531Y-150566528D01*
X-56933531Y-150566528D02*
X-56790673Y-150637957D01*
X-55504959Y-151566528D02*
X-55504959Y-150780814D01*
X-55504959Y-150780814D02*
X-55576388Y-150637957D01*
X-55576388Y-150637957D02*
X-55719245Y-150566528D01*
X-55719245Y-150566528D02*
X-56004959Y-150566528D01*
X-56004959Y-150566528D02*
X-56147817Y-150637957D01*
X-55504959Y-151495100D02*
X-55647817Y-151566528D01*
X-55647817Y-151566528D02*
X-56004959Y-151566528D01*
X-56004959Y-151566528D02*
X-56147817Y-151495100D01*
X-56147817Y-151495100D02*
X-56219245Y-151352242D01*
X-56219245Y-151352242D02*
X-56219245Y-151209385D01*
X-56219245Y-151209385D02*
X-56147817Y-151066528D01*
X-56147817Y-151066528D02*
X-56004959Y-150995100D01*
X-56004959Y-150995100D02*
X-55647817Y-150995100D01*
X-55647817Y-150995100D02*
X-55504959Y-150923671D01*
X-54147816Y-151566528D02*
X-54147816Y-150066528D01*
X-54147816Y-151495100D02*
X-54290674Y-151566528D01*
X-54290674Y-151566528D02*
X-54576388Y-151566528D01*
X-54576388Y-151566528D02*
X-54719245Y-151495100D01*
X-54719245Y-151495100D02*
X-54790674Y-151423671D01*
X-54790674Y-151423671D02*
X-54862102Y-151280814D01*
X-54862102Y-151280814D02*
X-54862102Y-150852242D01*
X-54862102Y-150852242D02*
X-54790674Y-150709385D01*
X-54790674Y-150709385D02*
X-54719245Y-150637957D01*
X-54719245Y-150637957D02*
X-54576388Y-150566528D01*
X-54576388Y-150566528D02*
X-54290674Y-150566528D01*
X-54290674Y-150566528D02*
X-54147816Y-150637957D01*
X-53790673Y-151709385D02*
X-52647816Y-151709385D01*
X-52290674Y-150566528D02*
X-52290674Y-152066528D01*
X-52290674Y-150637957D02*
X-52147816Y-150566528D01*
X-52147816Y-150566528D02*
X-51862102Y-150566528D01*
X-51862102Y-150566528D02*
X-51719245Y-150637957D01*
X-51719245Y-150637957D02*
X-51647816Y-150709385D01*
X-51647816Y-150709385D02*
X-51576388Y-150852242D01*
X-51576388Y-150852242D02*
X-51576388Y-151280814D01*
X-51576388Y-151280814D02*
X-51647816Y-151423671D01*
X-51647816Y-151423671D02*
X-51719245Y-151495100D01*
X-51719245Y-151495100D02*
X-51862102Y-151566528D01*
X-51862102Y-151566528D02*
X-52147816Y-151566528D01*
X-52147816Y-151566528D02*
X-52290674Y-151495100D01*
X-50290673Y-151495100D02*
X-50433531Y-151566528D01*
X-50433531Y-151566528D02*
X-50719245Y-151566528D01*
X-50719245Y-151566528D02*
X-50862102Y-151495100D01*
X-50862102Y-151495100D02*
X-50933531Y-151423671D01*
X-50933531Y-151423671D02*
X-51004959Y-151280814D01*
X-51004959Y-151280814D02*
X-51004959Y-150852242D01*
X-51004959Y-150852242D02*
X-50933531Y-150709385D01*
X-50933531Y-150709385D02*
X-50862102Y-150637957D01*
X-50862102Y-150637957D02*
X-50719245Y-150566528D01*
X-50719245Y-150566528D02*
X-50433531Y-150566528D01*
X-50433531Y-150566528D02*
X-50290673Y-150637957D01*
X-49647817Y-151566528D02*
X-49647817Y-150066528D01*
X-49647817Y-150637957D02*
X-49504959Y-150566528D01*
X-49504959Y-150566528D02*
X-49219245Y-150566528D01*
X-49219245Y-150566528D02*
X-49076388Y-150637957D01*
X-49076388Y-150637957D02*
X-49004959Y-150709385D01*
X-49004959Y-150709385D02*
X-48933531Y-150852242D01*
X-48933531Y-150852242D02*
X-48933531Y-151280814D01*
X-48933531Y-151280814D02*
X-49004959Y-151423671D01*
X-49004959Y-151423671D02*
X-49076388Y-151495100D01*
X-49076388Y-151495100D02*
X-49219245Y-151566528D01*
X-49219245Y-151566528D02*
X-49504959Y-151566528D01*
X-49504959Y-151566528D02*
X-49647817Y-151495100D01*
D10*
D11*
X-82746500Y-146680400D02*
X25253500Y-146680400D01*
D10*
D11*
X-81362102Y-148795100D02*
X-81147816Y-148866528D01*
X-81147816Y-148866528D02*
X-80790674Y-148866528D01*
X-80790674Y-148866528D02*
X-80647816Y-148795100D01*
X-80647816Y-148795100D02*
X-80576388Y-148723671D01*
X-80576388Y-148723671D02*
X-80504959Y-148580814D01*
X-80504959Y-148580814D02*
X-80504959Y-148437957D01*
X-80504959Y-148437957D02*
X-80576388Y-148295100D01*
X-80576388Y-148295100D02*
X-80647816Y-148223671D01*
X-80647816Y-148223671D02*
X-80790674Y-148152242D01*
X-80790674Y-148152242D02*
X-81076388Y-148080814D01*
X-81076388Y-148080814D02*
X-81219245Y-148009385D01*
X-81219245Y-148009385D02*
X-81290674Y-147937957D01*
X-81290674Y-147937957D02*
X-81362102Y-147795100D01*
X-81362102Y-147795100D02*
X-81362102Y-147652242D01*
X-81362102Y-147652242D02*
X-81290674Y-147509385D01*
X-81290674Y-147509385D02*
X-81219245Y-147437957D01*
X-81219245Y-147437957D02*
X-81076388Y-147366528D01*
X-81076388Y-147366528D02*
X-80719245Y-147366528D01*
X-80719245Y-147366528D02*
X-80504959Y-147437957D01*
X-79862103Y-148866528D02*
X-79862103Y-147366528D01*
X-79219245Y-148866528D02*
X-79219245Y-148080814D01*
X-79219245Y-148080814D02*
X-79290674Y-147937957D01*
X-79290674Y-147937957D02*
X-79433531Y-147866528D01*
X-79433531Y-147866528D02*
X-79647817Y-147866528D01*
X-79647817Y-147866528D02*
X-79790674Y-147937957D01*
X-79790674Y-147937957D02*
X-79862103Y-148009385D01*
X-77933531Y-148795100D02*
X-78076388Y-148866528D01*
X-78076388Y-148866528D02*
X-78362102Y-148866528D01*
X-78362102Y-148866528D02*
X-78504960Y-148795100D01*
X-78504960Y-148795100D02*
X-78576388Y-148652242D01*
X-78576388Y-148652242D02*
X-78576388Y-148080814D01*
X-78576388Y-148080814D02*
X-78504960Y-147937957D01*
X-78504960Y-147937957D02*
X-78362102Y-147866528D01*
X-78362102Y-147866528D02*
X-78076388Y-147866528D01*
X-78076388Y-147866528D02*
X-77933531Y-147937957D01*
X-77933531Y-147937957D02*
X-77862102Y-148080814D01*
X-77862102Y-148080814D02*
X-77862102Y-148223671D01*
X-77862102Y-148223671D02*
X-78576388Y-148366528D01*
X-76647817Y-148795100D02*
X-76790674Y-148866528D01*
X-76790674Y-148866528D02*
X-77076388Y-148866528D01*
X-77076388Y-148866528D02*
X-77219246Y-148795100D01*
X-77219246Y-148795100D02*
X-77290674Y-148652242D01*
X-77290674Y-148652242D02*
X-77290674Y-148080814D01*
X-77290674Y-148080814D02*
X-77219246Y-147937957D01*
X-77219246Y-147937957D02*
X-77076388Y-147866528D01*
X-77076388Y-147866528D02*
X-76790674Y-147866528D01*
X-76790674Y-147866528D02*
X-76647817Y-147937957D01*
X-76647817Y-147937957D02*
X-76576388Y-148080814D01*
X-76576388Y-148080814D02*
X-76576388Y-148223671D01*
X-76576388Y-148223671D02*
X-77290674Y-148366528D01*
X-76147817Y-147866528D02*
X-75576389Y-147866528D01*
X-75933532Y-147366528D02*
X-75933532Y-148652242D01*
X-75933532Y-148652242D02*
X-75862103Y-148795100D01*
X-75862103Y-148795100D02*
X-75719246Y-148866528D01*
X-75719246Y-148866528D02*
X-75576389Y-148866528D01*
X-75076389Y-148723671D02*
X-75004960Y-148795100D01*
X-75004960Y-148795100D02*
X-75076389Y-148866528D01*
X-75076389Y-148866528D02*
X-75147817Y-148795100D01*
X-75147817Y-148795100D02*
X-75076389Y-148723671D01*
X-75076389Y-148723671D02*
X-75076389Y-148866528D01*
X-75076389Y-147937957D02*
X-75004960Y-148009385D01*
X-75004960Y-148009385D02*
X-75076389Y-148080814D01*
X-75076389Y-148080814D02*
X-75147817Y-148009385D01*
X-75147817Y-148009385D02*
X-75076389Y-147937957D01*
X-75076389Y-147937957D02*
X-75076389Y-148080814D01*
D10*
D11*
X-62746500Y-156680400D02*
X-62746500Y-159680400D01*
D10*
D11*
X1253500Y-156680400D02*
X1253500Y-163180400D01*
D14*
%TO.P,SW8,1,1*%
%TO.N,/ROW 0*%
X-73589000Y-4445000D03*
D15*
X-71049001Y-14350999D03*
D16*
X-71049000Y-3625000D03*
D17*
X-71049000Y-4745256D03*
D18*
X-71049000Y-16025000D03*
D19*
X-69652000Y-6985000D03*
D20*
X-69652000Y-12065000D03*
D14*
X-68509000Y-4445000D03*
D21*
X-68255000Y-9525000D03*
D22*
%TO.P,SW8,2,2*%
%TO.N,/COL 6*%
X-74859000Y-1575000D03*
D23*
X-73649000Y-1575000D03*
D24*
X-72699000Y-1575000D03*
D25*
%TO.P,SW8,3,3*%
%TO.N,unconnected-(SW8-Pad3)*%
X-76269000Y-13725000D03*
D16*
X-76049000Y-5725000D03*
D14*
X-74859000Y-6985000D03*
D18*
X-74849000Y-13325000D03*
D24*
X-69398000Y-1575000D03*
D23*
X-68549000Y-1575000D03*
D18*
X-67249000Y-13325000D03*
D26*
X-67239000Y-1575000D03*
D14*
X-67239000Y-6985000D03*
D16*
X-66049000Y-5725000D03*
D25*
X-65829000Y-13725000D03*
%TD*%
D14*
%TO.P,SW20,1,1*%
%TO.N,/ROW 3*%
X-197414000Y-42545000D03*
D15*
X-194874001Y-52450999D03*
D16*
X-194874000Y-41725000D03*
D17*
X-194874000Y-42845256D03*
D18*
X-194874000Y-54125000D03*
D19*
X-193477000Y-45085000D03*
D20*
X-193477000Y-50165000D03*
D14*
X-192334000Y-42545000D03*
D21*
X-192080000Y-47625000D03*
D22*
%TO.P,SW20,2,2*%
%TO.N,/COL 0*%
X-198684000Y-39675000D03*
D23*
X-197474000Y-39675000D03*
D24*
X-196524000Y-39675000D03*
D25*
%TO.P,SW20,3,3*%
%TO.N,unconnected-(SW20-Pad3)*%
X-200094000Y-51825000D03*
D16*
X-199874000Y-43825000D03*
D14*
X-198684000Y-45085000D03*
D18*
X-198674000Y-51425000D03*
D24*
X-193223000Y-39675000D03*
D23*
X-192374000Y-39675000D03*
D18*
X-191074000Y-51425000D03*
D26*
X-191064000Y-39675000D03*
D14*
X-191064000Y-45085000D03*
D16*
X-189874000Y-43825000D03*
D25*
X-189654000Y-51825000D03*
%TD*%
D14*
%TO.P,SW7,1,1*%
%TO.N,/ROW 0*%
X-92639000Y-4445000D03*
D15*
X-90099001Y-14350999D03*
D16*
X-90099000Y-3625000D03*
D17*
X-90099000Y-4745256D03*
D18*
X-90099000Y-16025000D03*
D19*
X-88702000Y-6985000D03*
D20*
X-88702000Y-12065000D03*
D14*
X-87559000Y-4445000D03*
D21*
X-87305000Y-9525000D03*
D22*
%TO.P,SW7,2,2*%
%TO.N,/COL 5*%
X-93909000Y-1575000D03*
D23*
X-92699000Y-1575000D03*
D24*
X-91749000Y-1575000D03*
D25*
%TO.P,SW7,3,3*%
%TO.N,unconnected-(SW7-Pad3)_10*%
X-95319000Y-13725000D03*
D16*
X-95099000Y-5725000D03*
D14*
X-93909000Y-6985000D03*
D18*
X-93899000Y-13325000D03*
D24*
X-88448000Y-1575000D03*
D23*
X-87599000Y-1575000D03*
D18*
X-86299000Y-13325000D03*
D26*
X-86289000Y-1575000D03*
D14*
X-86289000Y-6985000D03*
D16*
X-85099000Y-5725000D03*
D25*
X-84879000Y-13725000D03*
%TD*%
D14*
%TO.P,SW53,1,1*%
%TO.N,/ROW 5*%
X-35489000Y-99695000D03*
D15*
X-32949001Y-109600999D03*
D16*
X-32949000Y-98875000D03*
D17*
X-32949000Y-99995256D03*
D18*
X-32949000Y-111275000D03*
D19*
X-31552000Y-102235000D03*
D20*
X-31552000Y-107315000D03*
D14*
X-30409000Y-99695000D03*
D21*
X-30155000Y-104775000D03*
D22*
%TO.P,SW53,2,2*%
%TO.N,/COL 8*%
X-36759000Y-96825000D03*
D23*
X-35549000Y-96825000D03*
D24*
X-34599000Y-96825000D03*
D25*
%TO.P,SW53,3,3*%
%TO.N,unconnected-(SW53-Pad3)_12*%
X-38169000Y-108975000D03*
D16*
X-37949000Y-100975000D03*
D14*
X-36759000Y-102235000D03*
D18*
X-36749000Y-108575000D03*
D24*
X-31298000Y-96825000D03*
D23*
X-30449000Y-96825000D03*
D18*
X-29149000Y-108575000D03*
D26*
X-29139000Y-96825000D03*
D14*
X-29139000Y-102235000D03*
D16*
X-27949000Y-100975000D03*
D25*
X-27729000Y-108975000D03*
%TD*%
D27*
%TO.P,U1,1,TX0/D3*%
%TO.N,/ROW 1*%
X-19296500Y-5079998D03*
D28*
X-20884000Y-5080000D03*
D29*
X-17709000Y-5714996D03*
D28*
X-4120000Y-6349996D03*
D30*
X-10421503Y-6350000D03*
D27*
%TO.P,U1,2,RX1/D2*%
%TO.N,/ROW 0*%
X-19296500Y-7619998D03*
D28*
X-20884000Y-7620000D03*
D29*
X-17709000Y-8254996D03*
D28*
X-4120000Y-8889996D03*
D30*
X-10421503Y-8890000D03*
D27*
%TO.P,U1,3,GND*%
%TO.N,GND*%
X-19296500Y-10159998D03*
D28*
X-20884000Y-10160000D03*
D29*
X-17709000Y-10794996D03*
D28*
X-4120000Y-11429996D03*
D30*
X-10421503Y-11430000D03*
D27*
%TO.P,U1,4,GND*%
X-19296500Y-12699998D03*
D28*
X-20884000Y-12700000D03*
D29*
X-17709000Y-13334996D03*
D28*
X-4120000Y-13969996D03*
D30*
X-10421503Y-13970000D03*
D27*
%TO.P,U1,5,2/D1/SDA*%
%TO.N,/ROW 2*%
X-19296500Y-15239998D03*
D28*
X-20884000Y-15240000D03*
D29*
X-17709000Y-15874996D03*
D28*
X-4120000Y-16509996D03*
D30*
X-10421503Y-16510000D03*
D27*
%TO.P,U1,6,3/D0/SCL*%
%TO.N,/ROW 3*%
X-19296500Y-17779998D03*
D28*
X-20884000Y-17780000D03*
D29*
X-17709000Y-18414996D03*
D28*
X-4120000Y-19049996D03*
D30*
X-10421503Y-19050000D03*
D27*
%TO.P,U1,7,4/D4*%
%TO.N,/ROW 4*%
X-19296500Y-20319998D03*
D28*
X-20884000Y-20320000D03*
D29*
X-17709000Y-20954996D03*
D28*
X-4120000Y-21589996D03*
D30*
X-10421503Y-21590000D03*
D27*
%TO.P,U1,8,5/C6*%
%TO.N,/ROW 5*%
X-19296500Y-22859998D03*
D28*
X-20884000Y-22860000D03*
D29*
X-17709000Y-23494996D03*
D28*
X-4120000Y-24129996D03*
D30*
X-10421503Y-24130000D03*
D27*
%TO.P,U1,9,6/D7*%
%TO.N,/COL 0*%
X-19296500Y-25399998D03*
D28*
X-20884000Y-25400000D03*
D29*
X-17709000Y-26034996D03*
D28*
X-4120000Y-26669996D03*
D30*
X-10421503Y-26670000D03*
D27*
%TO.P,U1,10,7/E6*%
%TO.N,/COL 1*%
X-19296500Y-27939998D03*
D28*
X-20884000Y-27940000D03*
D29*
X-17709000Y-28574996D03*
D28*
X-4120000Y-29209996D03*
D30*
X-10421503Y-29210000D03*
D27*
%TO.P,U1,11,8/B4*%
%TO.N,/COL 2*%
X-19296500Y-30479998D03*
D28*
X-20884000Y-30480000D03*
D29*
X-17709000Y-31114996D03*
D28*
X-4120000Y-31749996D03*
D30*
X-10421503Y-31750000D03*
D27*
%TO.P,U1,12,9/B5*%
%TO.N,/COL 3*%
X-19344997Y-33019998D03*
D28*
X-20884000Y-33020000D03*
D29*
X-17757497Y-33654996D03*
D28*
X-4120000Y-34289996D03*
D30*
X-10470000Y-34290000D03*
D28*
%TO.P,U1,13,B6/10*%
%TO.N,/COL 4*%
X-5644000Y-33020000D03*
X-19360000Y-34289996D03*
%TO.P,U1,14,B2/16*%
%TO.N,/COL 5*%
X-5644000Y-30480000D03*
X-19360000Y-31749996D03*
%TO.P,U1,15,B3/14*%
%TO.N,/COL 6*%
X-5644000Y-27940000D03*
X-19360000Y-29209996D03*
%TO.P,U1,16,B1/15*%
%TO.N,/COL 7*%
X-5644000Y-25400000D03*
X-19360000Y-26669996D03*
%TO.P,U1,17,F7/A0*%
%TO.N,/COL 8*%
X-5644000Y-22860000D03*
X-19360000Y-24129996D03*
%TO.P,U1,18,F6/A1*%
%TO.N,unconnected-(U1-F6{slash}A1-Pad18)_3*%
X-5644000Y-20320000D03*
X-19360000Y-21589996D03*
%TO.P,U1,19,F5/A2*%
%TO.N,unconnected-(U1-F5{slash}A2-Pad19)*%
X-5644000Y-17780000D03*
X-19360000Y-19049996D03*
%TO.P,U1,20,F4/A3*%
%TO.N,unconnected-(U1-F4{slash}A3-Pad20)_1*%
X-5644000Y-15240000D03*
X-19360000Y-16509996D03*
%TO.P,U1,21,VCC*%
%TO.N,VCC*%
X-5644000Y-12700000D03*
X-19360000Y-13969996D03*
%TO.P,U1,22,RST*%
%TO.N,Net-(U1-RST)*%
X-5644000Y-10160000D03*
X-19360000Y-11429996D03*
%TO.P,U1,23,GND*%
%TO.N,GND*%
X-5644000Y-7620000D03*
X-19360000Y-8889996D03*
%TO.P,U1,24,RAW*%
%TO.N,unconnected-(U1-RAW-Pad24)*%
X-5644000Y-5080000D03*
X-19360000Y-6349996D03*
%TO.P,U1,25,BAT+*%
%TO.N,+BATT*%
X-5644000Y-2540000D03*
X-19360000Y-3809996D03*
%TO.P,U1,26,GND*%
%TO.N,GND*%
X-20884000Y-2540000D03*
D27*
X-19296500Y-2540002D03*
D29*
X-17709000Y-3175000D03*
D28*
X-4120000Y-3810000D03*
D30*
X-10421503Y-3810004D03*
%TD*%
D14*
%TO.P,SW37,1,1*%
%TO.N,/ROW 5*%
X-202176500Y-80645000D03*
D15*
X-199636501Y-90550999D03*
D16*
X-199636500Y-79825000D03*
D17*
X-199636500Y-80945256D03*
D18*
X-199636500Y-92225000D03*
D19*
X-198239500Y-83185000D03*
D20*
X-198239500Y-88265000D03*
D14*
X-197096500Y-80645000D03*
D21*
X-196842500Y-85725000D03*
D22*
%TO.P,SW37,2,2*%
%TO.N,/COL 0*%
X-203446500Y-77775000D03*
D23*
X-202236500Y-77775000D03*
D24*
X-201286500Y-77775000D03*
D25*
%TO.P,SW37,3,3*%
%TO.N,unconnected-(SW37-Pad3)_14*%
X-204856500Y-89925000D03*
D16*
X-204636500Y-81925000D03*
D14*
X-203446500Y-83185000D03*
D18*
X-203436500Y-89525000D03*
D24*
X-197985500Y-77775000D03*
D23*
X-197136500Y-77775000D03*
D18*
X-195836500Y-89525000D03*
D26*
X-195826500Y-77775000D03*
D14*
X-195826500Y-83185000D03*
D16*
X-194636500Y-81925000D03*
D25*
X-194416500Y-89925000D03*
%TD*%
D31*
%TO.P,J2,1,Pin_1*%
%TO.N,GND*%
X-14924000Y-41500000D03*
%TD*%
D14*
%TO.P,SW2,1,1*%
%TO.N,/ROW 0*%
X-187889000Y-4445000D03*
D15*
X-185349001Y-14350999D03*
D16*
X-185349000Y-3625000D03*
D17*
X-185349000Y-4745256D03*
D18*
X-185349000Y-16025000D03*
D19*
X-183952000Y-6985000D03*
D20*
X-183952000Y-12065000D03*
D14*
X-182809000Y-4445000D03*
D21*
X-182555000Y-9525000D03*
D22*
%TO.P,SW2,2,2*%
%TO.N,/COL 0*%
X-189159000Y-1575000D03*
D23*
X-187949000Y-1575000D03*
D24*
X-186999000Y-1575000D03*
D25*
%TO.P,SW2,3,3*%
%TO.N,unconnected-(SW2-Pad3)_12*%
X-190569000Y-13725000D03*
D16*
X-190349000Y-5725000D03*
D14*
X-189159000Y-6985000D03*
D18*
X-189149000Y-13325000D03*
D24*
X-183698000Y-1575000D03*
D23*
X-182849000Y-1575000D03*
D18*
X-181549000Y-13325000D03*
D26*
X-181539000Y-1575000D03*
D14*
X-181539000Y-6985000D03*
D16*
X-180349000Y-5725000D03*
D25*
X-180129000Y-13725000D03*
%TD*%
D14*
%TO.P,SW30,1,1*%
%TO.N,/ROW 3*%
X-173601500Y-61595000D03*
D15*
X-171061501Y-71500999D03*
D16*
X-171061500Y-60775000D03*
D17*
X-171061500Y-61895256D03*
D18*
X-171061500Y-73175000D03*
D19*
X-169664500Y-64135000D03*
D20*
X-169664500Y-69215000D03*
D14*
X-168521500Y-61595000D03*
D21*
X-168267500Y-66675000D03*
D22*
%TO.P,SW30,2,2*%
%TO.N,/COL 1*%
X-174871500Y-58725000D03*
D23*
X-173661500Y-58725000D03*
D24*
X-172711500Y-58725000D03*
D25*
%TO.P,SW30,3,3*%
%TO.N,unconnected-(SW30-Pad3)_20*%
X-176281500Y-70875000D03*
D16*
X-176061500Y-62875000D03*
D14*
X-174871500Y-64135000D03*
D18*
X-174861500Y-70475000D03*
D24*
X-169410500Y-58725000D03*
D23*
X-168561500Y-58725000D03*
D18*
X-167261500Y-70475000D03*
D26*
X-167251500Y-58725000D03*
D14*
X-167251500Y-64135000D03*
D16*
X-166061500Y-62875000D03*
D25*
X-165841500Y-70875000D03*
%TD*%
D14*
%TO.P,SW27,1,1*%
%TO.N,/ROW 2*%
X-59301500Y-42545000D03*
D15*
X-56761501Y-52450999D03*
D16*
X-56761500Y-41725000D03*
D17*
X-56761500Y-42845256D03*
D18*
X-56761500Y-54125000D03*
D19*
X-55364500Y-45085000D03*
D20*
X-55364500Y-50165000D03*
D14*
X-54221500Y-42545000D03*
D21*
X-53967500Y-47625000D03*
D22*
%TO.P,SW27,2,2*%
%TO.N,/COL 7*%
X-60571500Y-39675000D03*
D23*
X-59361500Y-39675000D03*
D24*
X-58411500Y-39675000D03*
D25*
%TO.P,SW27,3,3*%
%TO.N,unconnected-(SW27-Pad3)_21*%
X-61981500Y-51825000D03*
D16*
X-61761500Y-43825000D03*
D14*
X-60571500Y-45085000D03*
D18*
X-60561500Y-51425000D03*
D24*
X-55110500Y-39675000D03*
D23*
X-54261500Y-39675000D03*
D18*
X-52961500Y-51425000D03*
D26*
X-52951500Y-39675000D03*
D14*
X-52951500Y-45085000D03*
D16*
X-51761500Y-43825000D03*
D25*
X-51541500Y-51825000D03*
%TD*%
D14*
%TO.P,SW23,1,1*%
%TO.N,/ROW 2*%
X-140264000Y-42545000D03*
D15*
X-137724001Y-52450999D03*
D16*
X-137724000Y-41725000D03*
D17*
X-137724000Y-42845256D03*
D18*
X-137724000Y-54125000D03*
D19*
X-136327000Y-45085000D03*
D20*
X-136327000Y-50165000D03*
D14*
X-135184000Y-42545000D03*
D21*
X-134930000Y-47625000D03*
D22*
%TO.P,SW23,2,2*%
%TO.N,/COL 3*%
X-141534000Y-39675000D03*
D23*
X-140324000Y-39675000D03*
D24*
X-139374000Y-39675000D03*
D25*
%TO.P,SW23,3,3*%
%TO.N,unconnected-(SW23-Pad3)_14*%
X-142944000Y-51825000D03*
D16*
X-142724000Y-43825000D03*
D14*
X-141534000Y-45085000D03*
D18*
X-141524000Y-51425000D03*
D24*
X-136073000Y-39675000D03*
D23*
X-135224000Y-39675000D03*
D18*
X-133924000Y-51425000D03*
D26*
X-133914000Y-39675000D03*
D14*
X-133914000Y-45085000D03*
D16*
X-132724000Y-43825000D03*
D25*
X-132504000Y-51825000D03*
%TD*%
D14*
%TO.P,SW10,1,1*%
%TO.N,/ROW 0*%
X-35489000Y-4445000D03*
D15*
X-32949001Y-14350999D03*
D16*
X-32949000Y-3625000D03*
D17*
X-32949000Y-4745256D03*
D18*
X-32949000Y-16025000D03*
D19*
X-31552000Y-6985000D03*
D20*
X-31552000Y-12065000D03*
D14*
X-30409000Y-4445000D03*
D21*
X-30155000Y-9525000D03*
D22*
%TO.P,SW10,2,2*%
%TO.N,/COL 8*%
X-36759000Y-1575000D03*
D23*
X-35549000Y-1575000D03*
D24*
X-34599000Y-1575000D03*
D25*
%TO.P,SW10,3,3*%
%TO.N,unconnected-(SW10-Pad3)_2*%
X-38169000Y-13725000D03*
D16*
X-37949000Y-5725000D03*
D14*
X-36759000Y-6985000D03*
D18*
X-36749000Y-13325000D03*
D24*
X-31298000Y-1575000D03*
D23*
X-30449000Y-1575000D03*
D18*
X-29149000Y-13325000D03*
D26*
X-29139000Y-1575000D03*
D14*
X-29139000Y-6985000D03*
D16*
X-27949000Y-5725000D03*
D25*
X-27729000Y-13725000D03*
%TD*%
D14*
%TO.P,SW16,1,1*%
%TO.N,/ROW 1*%
X-111689000Y-23495000D03*
D15*
X-109149001Y-33400999D03*
D16*
X-109149000Y-22675000D03*
D17*
X-109149000Y-23795256D03*
D18*
X-109149000Y-35075000D03*
D19*
X-107752000Y-26035000D03*
D20*
X-107752000Y-31115000D03*
D14*
X-106609000Y-23495000D03*
D21*
X-106355000Y-28575000D03*
D22*
%TO.P,SW16,2,2*%
%TO.N,/COL 5*%
X-112959000Y-20625000D03*
D23*
X-111749000Y-20625000D03*
D24*
X-110799000Y-20625000D03*
D25*
%TO.P,SW16,3,3*%
%TO.N,unconnected-(SW16-Pad3)_17*%
X-114369000Y-32775000D03*
D16*
X-114149000Y-24775000D03*
D14*
X-112959000Y-26035000D03*
D18*
X-112949000Y-32375000D03*
D24*
X-107498000Y-20625000D03*
D23*
X-106649000Y-20625000D03*
D18*
X-105349000Y-32375000D03*
D26*
X-105339000Y-20625000D03*
D14*
X-105339000Y-26035000D03*
D16*
X-104149000Y-24775000D03*
D25*
X-103929000Y-32775000D03*
%TD*%
D14*
%TO.P,SW22,1,1*%
%TO.N,/ROW 2*%
X-159314000Y-42545000D03*
D15*
X-156774001Y-52450999D03*
D16*
X-156774000Y-41725000D03*
D17*
X-156774000Y-42845256D03*
D18*
X-156774000Y-54125000D03*
D19*
X-155377000Y-45085000D03*
D20*
X-155377000Y-50165000D03*
D14*
X-154234000Y-42545000D03*
D21*
X-153980000Y-47625000D03*
D22*
%TO.P,SW22,2,2*%
%TO.N,/COL 2*%
X-160584000Y-39675000D03*
D23*
X-159374000Y-39675000D03*
D24*
X-158424000Y-39675000D03*
D25*
%TO.P,SW22,3,3*%
%TO.N,unconnected-(SW22-Pad3)_17*%
X-161994000Y-51825000D03*
D16*
X-161774000Y-43825000D03*
D14*
X-160584000Y-45085000D03*
D18*
X-160574000Y-51425000D03*
D24*
X-155123000Y-39675000D03*
D23*
X-154274000Y-39675000D03*
D18*
X-152974000Y-51425000D03*
D26*
X-152964000Y-39675000D03*
D14*
X-152964000Y-45085000D03*
D16*
X-151774000Y-43825000D03*
D25*
X-151554000Y-51825000D03*
%TD*%
D14*
%TO.P,SW39,1,1*%
%TO.N,/ROW 4*%
X-164076500Y-80645000D03*
D15*
X-161536501Y-90550999D03*
D16*
X-161536500Y-79825000D03*
D17*
X-161536500Y-80945256D03*
D18*
X-161536500Y-92225000D03*
D19*
X-160139500Y-83185000D03*
D20*
X-160139500Y-88265000D03*
D14*
X-158996500Y-80645000D03*
D21*
X-158742500Y-85725000D03*
D22*
%TO.P,SW39,2,2*%
%TO.N,/COL 2*%
X-165346500Y-77775000D03*
D23*
X-164136500Y-77775000D03*
D24*
X-163186500Y-77775000D03*
D25*
%TO.P,SW39,3,3*%
%TO.N,unconnected-(SW39-Pad3)_9*%
X-166756500Y-89925000D03*
D16*
X-166536500Y-81925000D03*
D14*
X-165346500Y-83185000D03*
D18*
X-165336500Y-89525000D03*
D24*
X-159885500Y-77775000D03*
D23*
X-159036500Y-77775000D03*
D18*
X-157736500Y-89525000D03*
D26*
X-157726500Y-77775000D03*
D14*
X-157726500Y-83185000D03*
D16*
X-156536500Y-81925000D03*
D25*
X-156316500Y-89925000D03*
%TD*%
D14*
%TO.P,SW13,1,1*%
%TO.N,/ROW 1*%
X-168839000Y-23495000D03*
D15*
X-166299001Y-33400999D03*
D16*
X-166299000Y-22675000D03*
D17*
X-166299000Y-23795256D03*
D18*
X-166299000Y-35075000D03*
D19*
X-164902000Y-26035000D03*
D20*
X-164902000Y-31115000D03*
D14*
X-163759000Y-23495000D03*
D21*
X-163505000Y-28575000D03*
D22*
%TO.P,SW13,2,2*%
%TO.N,/COL 2*%
X-170109000Y-20625000D03*
D23*
X-168899000Y-20625000D03*
D24*
X-167949000Y-20625000D03*
D25*
%TO.P,SW13,3,3*%
%TO.N,unconnected-(SW13-Pad3)_6*%
X-171519000Y-32775000D03*
D16*
X-171299000Y-24775000D03*
D14*
X-170109000Y-26035000D03*
D18*
X-170099000Y-32375000D03*
D24*
X-164648000Y-20625000D03*
D23*
X-163799000Y-20625000D03*
D18*
X-162499000Y-32375000D03*
D26*
X-162489000Y-20625000D03*
D14*
X-162489000Y-26035000D03*
D16*
X-161299000Y-24775000D03*
D25*
X-161079000Y-32775000D03*
%TD*%
D14*
%TO.P,SW21,1,1*%
%TO.N,/ROW 2*%
X-178364000Y-42545000D03*
D15*
X-175824001Y-52450999D03*
D16*
X-175824000Y-41725000D03*
D17*
X-175824000Y-42845256D03*
D18*
X-175824000Y-54125000D03*
D19*
X-174427000Y-45085000D03*
D20*
X-174427000Y-50165000D03*
D14*
X-173284000Y-42545000D03*
D21*
X-173030000Y-47625000D03*
D22*
%TO.P,SW21,2,2*%
%TO.N,/COL 1*%
X-179634000Y-39675000D03*
D23*
X-178424000Y-39675000D03*
D24*
X-177474000Y-39675000D03*
D25*
%TO.P,SW21,3,3*%
%TO.N,unconnected-(SW21-Pad3)_21*%
X-181044000Y-51825000D03*
D16*
X-180824000Y-43825000D03*
D14*
X-179634000Y-45085000D03*
D18*
X-179624000Y-51425000D03*
D24*
X-174173000Y-39675000D03*
D23*
X-173324000Y-39675000D03*
D18*
X-172024000Y-51425000D03*
D26*
X-172014000Y-39675000D03*
D14*
X-172014000Y-45085000D03*
D16*
X-170824000Y-43825000D03*
D25*
X-170604000Y-51825000D03*
%TD*%
D14*
%TO.P,SW42,1,1*%
%TO.N,/ROW 4*%
X-106926500Y-80645000D03*
D15*
X-104386501Y-90550999D03*
D16*
X-104386500Y-79825000D03*
D17*
X-104386500Y-80945256D03*
D18*
X-104386500Y-92225000D03*
D19*
X-102989500Y-83185000D03*
D20*
X-102989500Y-88265000D03*
D14*
X-101846500Y-80645000D03*
D21*
X-101592500Y-85725000D03*
D22*
%TO.P,SW42,2,2*%
%TO.N,/COL 5*%
X-108196500Y-77775000D03*
D23*
X-106986500Y-77775000D03*
D24*
X-106036500Y-77775000D03*
D25*
%TO.P,SW42,3,3*%
%TO.N,unconnected-(SW42-Pad3)_14*%
X-109606500Y-89925000D03*
D16*
X-109386500Y-81925000D03*
D14*
X-108196500Y-83185000D03*
D18*
X-108186500Y-89525000D03*
D24*
X-102735500Y-77775000D03*
D23*
X-101886500Y-77775000D03*
D18*
X-100586500Y-89525000D03*
D26*
X-100576500Y-77775000D03*
D14*
X-100576500Y-83185000D03*
D16*
X-99386500Y-81925000D03*
D25*
X-99166500Y-89925000D03*
%TD*%
D14*
%TO.P,SW43,1,1*%
%TO.N,/ROW 4*%
X-80732750Y-80645000D03*
D15*
X-78192751Y-90550999D03*
D16*
X-78192750Y-79825000D03*
D17*
X-78192750Y-80945256D03*
D18*
X-78192750Y-92225000D03*
D19*
X-76795750Y-83185000D03*
D20*
X-76795750Y-88265000D03*
D14*
X-75652750Y-80645000D03*
D21*
X-75398750Y-85725000D03*
D22*
%TO.P,SW43,2,2*%
%TO.N,/COL 6*%
X-82002750Y-77775000D03*
D23*
X-80792750Y-77775000D03*
D24*
X-79842750Y-77775000D03*
D25*
%TO.P,SW43,3,3*%
%TO.N,unconnected-(SW43-Pad3)_17*%
X-83412750Y-89925000D03*
D16*
X-83192750Y-81925000D03*
D14*
X-82002750Y-83185000D03*
D18*
X-81992750Y-89525000D03*
D24*
X-76541750Y-77775000D03*
D23*
X-75692750Y-77775000D03*
D18*
X-74392750Y-89525000D03*
D26*
X-74382750Y-77775000D03*
D14*
X-74382750Y-83185000D03*
D16*
X-73192750Y-81925000D03*
D25*
X-72972750Y-89925000D03*
%TD*%
D14*
%TO.P,SW4,1,1*%
%TO.N,/ROW 0*%
X-149789000Y-4445000D03*
D15*
X-147249001Y-14350999D03*
D16*
X-147249000Y-3625000D03*
D17*
X-147249000Y-4745256D03*
D18*
X-147249000Y-16025000D03*
D19*
X-145852000Y-6985000D03*
D20*
X-145852000Y-12065000D03*
D14*
X-144709000Y-4445000D03*
D21*
X-144455000Y-9525000D03*
D22*
%TO.P,SW4,2,2*%
%TO.N,/COL 2*%
X-151059000Y-1575000D03*
D23*
X-149849000Y-1575000D03*
D24*
X-148899000Y-1575000D03*
D25*
%TO.P,SW4,3,3*%
%TO.N,unconnected-(SW4-Pad3)_13*%
X-152469000Y-13725000D03*
D16*
X-152249000Y-5725000D03*
D14*
X-151059000Y-6985000D03*
D18*
X-151049000Y-13325000D03*
D24*
X-145598000Y-1575000D03*
D23*
X-144749000Y-1575000D03*
D18*
X-143449000Y-13325000D03*
D26*
X-143439000Y-1575000D03*
D14*
X-143439000Y-6985000D03*
D16*
X-142249000Y-5725000D03*
D25*
X-142029000Y-13725000D03*
%TD*%
D14*
%TO.P,SW17,1,1*%
%TO.N,/ROW 1*%
X-92639000Y-23495000D03*
D15*
X-90099001Y-33400999D03*
D16*
X-90099000Y-22675000D03*
D17*
X-90099000Y-23795256D03*
D18*
X-90099000Y-35075000D03*
D19*
X-88702000Y-26035000D03*
D20*
X-88702000Y-31115000D03*
D14*
X-87559000Y-23495000D03*
D21*
X-87305000Y-28575000D03*
D22*
%TO.P,SW17,2,2*%
%TO.N,/COL 6*%
X-93909000Y-20625000D03*
D23*
X-92699000Y-20625000D03*
D24*
X-91749000Y-20625000D03*
D25*
%TO.P,SW17,3,3*%
%TO.N,unconnected-(SW17-Pad3)_20*%
X-95319000Y-32775000D03*
D16*
X-95099000Y-24775000D03*
D14*
X-93909000Y-26035000D03*
D18*
X-93899000Y-32375000D03*
D24*
X-88448000Y-20625000D03*
D23*
X-87599000Y-20625000D03*
D18*
X-86299000Y-32375000D03*
D26*
X-86289000Y-20625000D03*
D14*
X-86289000Y-26035000D03*
D16*
X-85099000Y-24775000D03*
D25*
X-84879000Y-32775000D03*
%TD*%
D14*
%TO.P,SW11,1,1*%
%TO.N,/ROW 2*%
X-206939000Y-23495000D03*
D15*
X-204399001Y-33400999D03*
D16*
X-204399000Y-22675000D03*
D17*
X-204399000Y-23795256D03*
D18*
X-204399000Y-35075000D03*
D19*
X-203002000Y-26035000D03*
D20*
X-203002000Y-31115000D03*
D14*
X-201859000Y-23495000D03*
D21*
X-201605000Y-28575000D03*
D22*
%TO.P,SW11,2,2*%
%TO.N,/COL 0*%
X-208209000Y-20625000D03*
D23*
X-206999000Y-20625000D03*
D24*
X-206049000Y-20625000D03*
D25*
%TO.P,SW11,3,3*%
%TO.N,unconnected-(SW11-Pad3)_13*%
X-209619000Y-32775000D03*
D16*
X-209399000Y-24775000D03*
D14*
X-208209000Y-26035000D03*
D18*
X-208199000Y-32375000D03*
D24*
X-202748000Y-20625000D03*
D23*
X-201899000Y-20625000D03*
D18*
X-200599000Y-32375000D03*
D26*
X-200589000Y-20625000D03*
D14*
X-200589000Y-26035000D03*
D16*
X-199399000Y-24775000D03*
D25*
X-199179000Y-32775000D03*
%TD*%
D14*
%TO.P,SW48,1,1*%
%TO.N,/ROW 5*%
X-135501500Y-99695000D03*
D15*
X-132961501Y-109600999D03*
D16*
X-132961500Y-98875000D03*
D17*
X-132961500Y-99995256D03*
D18*
X-132961500Y-111275000D03*
D19*
X-131564500Y-102235000D03*
D20*
X-131564500Y-107315000D03*
D14*
X-130421500Y-99695000D03*
D21*
X-130167500Y-104775000D03*
D22*
%TO.P,SW48,2,2*%
%TO.N,/COL 3*%
X-136771500Y-96825000D03*
D23*
X-135561500Y-96825000D03*
D24*
X-134611500Y-96825000D03*
D25*
%TO.P,SW48,3,3*%
%TO.N,unconnected-(SW48-Pad3)*%
X-138181500Y-108975000D03*
D16*
X-137961500Y-100975000D03*
D14*
X-136771500Y-102235000D03*
D18*
X-136761500Y-108575000D03*
D24*
X-131310500Y-96825000D03*
D23*
X-130461500Y-96825000D03*
D18*
X-129161500Y-108575000D03*
D26*
X-129151500Y-96825000D03*
D14*
X-129151500Y-102235000D03*
D16*
X-127961500Y-100975000D03*
D25*
X-127741500Y-108975000D03*
%TD*%
D14*
%TO.P,SW15,1,1*%
%TO.N,/ROW 1*%
X-130739000Y-23495000D03*
D15*
X-128199001Y-33400999D03*
D16*
X-128199000Y-22675000D03*
D17*
X-128199000Y-23795256D03*
D18*
X-128199000Y-35075000D03*
D19*
X-126802000Y-26035000D03*
D20*
X-126802000Y-31115000D03*
D14*
X-125659000Y-23495000D03*
D21*
X-125405000Y-28575000D03*
D22*
%TO.P,SW15,2,2*%
%TO.N,/COL 4*%
X-132009000Y-20625000D03*
D23*
X-130799000Y-20625000D03*
D24*
X-129849000Y-20625000D03*
D25*
%TO.P,SW15,3,3*%
%TO.N,unconnected-(SW15-Pad3)_12*%
X-133419000Y-32775000D03*
D16*
X-133199000Y-24775000D03*
D14*
X-132009000Y-26035000D03*
D18*
X-131999000Y-32375000D03*
D24*
X-126548000Y-20625000D03*
D23*
X-125699000Y-20625000D03*
D18*
X-124399000Y-32375000D03*
D26*
X-124389000Y-20625000D03*
D14*
X-124389000Y-26035000D03*
D16*
X-123199000Y-24775000D03*
D25*
X-122979000Y-32775000D03*
%TD*%
D14*
%TO.P,SW26,1,1*%
%TO.N,/ROW 2*%
X-83114000Y-42545000D03*
D15*
X-80574001Y-52450999D03*
D16*
X-80574000Y-41725000D03*
D17*
X-80574000Y-42845256D03*
D18*
X-80574000Y-54125000D03*
D19*
X-79177000Y-45085000D03*
D20*
X-79177000Y-50165000D03*
D14*
X-78034000Y-42545000D03*
D21*
X-77780000Y-47625000D03*
D22*
%TO.P,SW26,2,2*%
%TO.N,/COL 6*%
X-84384000Y-39675000D03*
D23*
X-83174000Y-39675000D03*
D24*
X-82224000Y-39675000D03*
D25*
%TO.P,SW26,3,3*%
%TO.N,unconnected-(SW26-Pad3)_21*%
X-85794000Y-51825000D03*
D16*
X-85574000Y-43825000D03*
D14*
X-84384000Y-45085000D03*
D18*
X-84374000Y-51425000D03*
D24*
X-78923000Y-39675000D03*
D23*
X-78074000Y-39675000D03*
D18*
X-76774000Y-51425000D03*
D26*
X-76764000Y-39675000D03*
D14*
X-76764000Y-45085000D03*
D16*
X-75574000Y-43825000D03*
D25*
X-75354000Y-51825000D03*
%TD*%
D14*
%TO.P,SW24,1,1*%
%TO.N,/ROW 2*%
X-121214000Y-42545000D03*
D15*
X-118674001Y-52450999D03*
D16*
X-118674000Y-41725000D03*
D17*
X-118674000Y-42845256D03*
D18*
X-118674000Y-54125000D03*
D19*
X-117277000Y-45085000D03*
D20*
X-117277000Y-50165000D03*
D14*
X-116134000Y-42545000D03*
D21*
X-115880000Y-47625000D03*
D22*
%TO.P,SW24,2,2*%
%TO.N,/COL 4*%
X-122484000Y-39675000D03*
D23*
X-121274000Y-39675000D03*
D24*
X-120324000Y-39675000D03*
D25*
%TO.P,SW24,3,3*%
%TO.N,unconnected-(SW24-Pad3)_19*%
X-123894000Y-51825000D03*
D16*
X-123674000Y-43825000D03*
D14*
X-122484000Y-45085000D03*
D18*
X-122474000Y-51425000D03*
D24*
X-117023000Y-39675000D03*
D23*
X-116174000Y-39675000D03*
D18*
X-114874000Y-51425000D03*
D26*
X-114864000Y-39675000D03*
D14*
X-114864000Y-45085000D03*
D16*
X-113674000Y-43825000D03*
D25*
X-113454000Y-51825000D03*
%TD*%
D14*
%TO.P,SW46,1,1*%
%TO.N,/ROW 5*%
X-183126500Y-99695000D03*
D15*
X-180586501Y-109600999D03*
D16*
X-180586500Y-98875000D03*
D17*
X-180586500Y-99995256D03*
D18*
X-180586500Y-111275000D03*
D19*
X-179189500Y-102235000D03*
D20*
X-179189500Y-107315000D03*
D14*
X-178046500Y-99695000D03*
D21*
X-177792500Y-104775000D03*
D22*
%TO.P,SW46,2,2*%
%TO.N,/COL 1*%
X-184396500Y-96825000D03*
D23*
X-183186500Y-96825000D03*
D24*
X-182236500Y-96825000D03*
D25*
%TO.P,SW46,3,3*%
%TO.N,unconnected-(SW46-Pad3)_4*%
X-185806500Y-108975000D03*
D16*
X-185586500Y-100975000D03*
D14*
X-184396500Y-102235000D03*
D18*
X-184386500Y-108575000D03*
D24*
X-178935500Y-96825000D03*
D23*
X-178086500Y-96825000D03*
D18*
X-176786500Y-108575000D03*
D26*
X-176776500Y-96825000D03*
D14*
X-176776500Y-102235000D03*
D16*
X-175586500Y-100975000D03*
D25*
X-175366500Y-108975000D03*
%TD*%
D14*
%TO.P,SW45,1,1*%
%TO.N,/ROW 4*%
X-35489000Y-80645000D03*
D15*
X-32949001Y-90550999D03*
D16*
X-32949000Y-79825000D03*
D17*
X-32949000Y-80945256D03*
D18*
X-32949000Y-92225000D03*
D19*
X-31552000Y-83185000D03*
D20*
X-31552000Y-88265000D03*
D14*
X-30409000Y-80645000D03*
D21*
X-30155000Y-85725000D03*
D22*
%TO.P,SW45,2,2*%
%TO.N,/COL 8*%
X-36759000Y-77775000D03*
D23*
X-35549000Y-77775000D03*
D24*
X-34599000Y-77775000D03*
D25*
%TO.P,SW45,3,3*%
%TO.N,unconnected-(SW45-Pad3)_4*%
X-38169000Y-89925000D03*
D16*
X-37949000Y-81925000D03*
D14*
X-36759000Y-83185000D03*
D18*
X-36749000Y-89525000D03*
D24*
X-31298000Y-77775000D03*
D23*
X-30449000Y-77775000D03*
D18*
X-29149000Y-89525000D03*
D26*
X-29139000Y-77775000D03*
D14*
X-29139000Y-83185000D03*
D16*
X-27949000Y-81925000D03*
D25*
X-27729000Y-89925000D03*
%TD*%
D14*
%TO.P,SW9,1,1*%
%TO.N,/ROW 0*%
X-54539000Y-4445000D03*
D15*
X-51999001Y-14350999D03*
D16*
X-51999000Y-3625000D03*
D17*
X-51999000Y-4745256D03*
D18*
X-51999000Y-16025000D03*
D19*
X-50602000Y-6985000D03*
D20*
X-50602000Y-12065000D03*
D14*
X-49459000Y-4445000D03*
D21*
X-49205000Y-9525000D03*
D22*
%TO.P,SW9,2,2*%
%TO.N,/COL 7*%
X-55809000Y-1575000D03*
D23*
X-54599000Y-1575000D03*
D24*
X-53649000Y-1575000D03*
D25*
%TO.P,SW9,3,3*%
%TO.N,unconnected-(SW9-Pad3)_10*%
X-57219000Y-13725000D03*
D16*
X-56999000Y-5725000D03*
D14*
X-55809000Y-6985000D03*
D18*
X-55799000Y-13325000D03*
D24*
X-50348000Y-1575000D03*
D23*
X-49499000Y-1575000D03*
D18*
X-48199000Y-13325000D03*
D26*
X-48189000Y-1575000D03*
D14*
X-48189000Y-6985000D03*
D16*
X-46999000Y-5725000D03*
D25*
X-46779000Y-13725000D03*
%TD*%
D14*
%TO.P,SW44,1,1*%
%TO.N,/ROW 4*%
X-54539000Y-80645000D03*
D15*
X-51999001Y-90550999D03*
D16*
X-51999000Y-79825000D03*
D17*
X-51999000Y-80945256D03*
D18*
X-51999000Y-92225000D03*
D19*
X-50602000Y-83185000D03*
D20*
X-50602000Y-88265000D03*
D14*
X-49459000Y-80645000D03*
D21*
X-49205000Y-85725000D03*
D22*
%TO.P,SW44,2,2*%
%TO.N,/COL 7*%
X-55809000Y-77775000D03*
D23*
X-54599000Y-77775000D03*
D24*
X-53649000Y-77775000D03*
D25*
%TO.P,SW44,3,3*%
%TO.N,unconnected-(SW44-Pad3)_20*%
X-57219000Y-89925000D03*
D16*
X-56999000Y-81925000D03*
D14*
X-55809000Y-83185000D03*
D18*
X-55799000Y-89525000D03*
D24*
X-50348000Y-77775000D03*
D23*
X-49499000Y-77775000D03*
D18*
X-48199000Y-89525000D03*
D26*
X-48189000Y-77775000D03*
D14*
X-48189000Y-83185000D03*
D16*
X-46999000Y-81925000D03*
D25*
X-46779000Y-89925000D03*
%TD*%
D14*
%TO.P,SW28,1,1*%
%TO.N,/ROW 2*%
X-35489000Y-42545000D03*
D15*
X-32949001Y-52450999D03*
D16*
X-32949000Y-41725000D03*
D17*
X-32949000Y-42845256D03*
D18*
X-32949000Y-54125000D03*
D19*
X-31552000Y-45085000D03*
D20*
X-31552000Y-50165000D03*
D14*
X-30409000Y-42545000D03*
D21*
X-30155000Y-47625000D03*
D22*
%TO.P,SW28,2,2*%
%TO.N,/COL 8*%
X-36759000Y-39675000D03*
D23*
X-35549000Y-39675000D03*
D24*
X-34599000Y-39675000D03*
D25*
%TO.P,SW28,3,3*%
%TO.N,unconnected-(SW28-Pad3)_2*%
X-38169000Y-51825000D03*
D16*
X-37949000Y-43825000D03*
D14*
X-36759000Y-45085000D03*
D18*
X-36749000Y-51425000D03*
D24*
X-31298000Y-39675000D03*
D23*
X-30449000Y-39675000D03*
D18*
X-29149000Y-51425000D03*
D26*
X-29139000Y-39675000D03*
D14*
X-29139000Y-45085000D03*
D16*
X-27949000Y-43825000D03*
D25*
X-27729000Y-51825000D03*
%TD*%
D14*
%TO.P,SW47,1,1*%
%TO.N,/ROW 5*%
X-154551500Y-99695000D03*
D15*
X-152011501Y-109600999D03*
D16*
X-152011500Y-98875000D03*
D17*
X-152011500Y-99995256D03*
D18*
X-152011500Y-111275000D03*
D19*
X-150614500Y-102235000D03*
D20*
X-150614500Y-107315000D03*
D14*
X-149471500Y-99695000D03*
D21*
X-149217500Y-104775000D03*
D22*
%TO.P,SW47,2,2*%
%TO.N,/COL 2*%
X-155821500Y-96825000D03*
D23*
X-154611500Y-96825000D03*
D24*
X-153661500Y-96825000D03*
D25*
%TO.P,SW47,3,3*%
%TO.N,unconnected-(SW47-Pad3)_8*%
X-157231500Y-108975000D03*
D16*
X-157011500Y-100975000D03*
D14*
X-155821500Y-102235000D03*
D18*
X-155811500Y-108575000D03*
D24*
X-150360500Y-96825000D03*
D23*
X-149511500Y-96825000D03*
D18*
X-148211500Y-108575000D03*
D26*
X-148201500Y-96825000D03*
D14*
X-148201500Y-102235000D03*
D16*
X-147011500Y-100975000D03*
D25*
X-146791500Y-108975000D03*
%TD*%
D14*
%TO.P,SW32,1,1*%
%TO.N,/ROW 3*%
X-135501500Y-61595000D03*
D15*
X-132961501Y-71500999D03*
D16*
X-132961500Y-60775000D03*
D17*
X-132961500Y-61895256D03*
D18*
X-132961500Y-73175000D03*
D19*
X-131564500Y-64135000D03*
D20*
X-131564500Y-69215000D03*
D14*
X-130421500Y-61595000D03*
D21*
X-130167500Y-66675000D03*
D22*
%TO.P,SW32,2,2*%
%TO.N,/COL 3*%
X-136771500Y-58725000D03*
D23*
X-135561500Y-58725000D03*
D24*
X-134611500Y-58725000D03*
D25*
%TO.P,SW32,3,3*%
%TO.N,unconnected-(SW32-Pad3)_14*%
X-138181500Y-70875000D03*
D16*
X-137961500Y-62875000D03*
D14*
X-136771500Y-64135000D03*
D18*
X-136761500Y-70475000D03*
D24*
X-131310500Y-58725000D03*
D23*
X-130461500Y-58725000D03*
D18*
X-129161500Y-70475000D03*
D26*
X-129151500Y-58725000D03*
D14*
X-129151500Y-64135000D03*
D16*
X-127961500Y-62875000D03*
D25*
X-127741500Y-70875000D03*
%TD*%
D14*
%TO.P,SW18,1,1*%
%TO.N,/ROW 1*%
X-64064000Y-23495000D03*
D15*
X-61524001Y-33400999D03*
D16*
X-61524000Y-22675000D03*
D17*
X-61524000Y-23795256D03*
D18*
X-61524000Y-35075000D03*
D19*
X-60127000Y-26035000D03*
D20*
X-60127000Y-31115000D03*
D14*
X-58984000Y-23495000D03*
D21*
X-58730000Y-28575000D03*
D22*
%TO.P,SW18,2,2*%
%TO.N,/COL 7*%
X-65334000Y-20625000D03*
D23*
X-64124000Y-20625000D03*
D24*
X-63174000Y-20625000D03*
D25*
%TO.P,SW18,3,3*%
%TO.N,unconnected-(SW18-Pad3)_9*%
X-66744000Y-32775000D03*
D16*
X-66524000Y-24775000D03*
D14*
X-65334000Y-26035000D03*
D18*
X-65324000Y-32375000D03*
D24*
X-59873000Y-20625000D03*
D23*
X-59024000Y-20625000D03*
D18*
X-57724000Y-32375000D03*
D26*
X-57714000Y-20625000D03*
D14*
X-57714000Y-26035000D03*
D16*
X-56524000Y-24775000D03*
D25*
X-56304000Y-32775000D03*
%TD*%
D14*
%TO.P,SW51,1,1*%
%TO.N,/ROW 5*%
X-73589000Y-99695000D03*
D15*
X-71049001Y-109600999D03*
D16*
X-71049000Y-98875000D03*
D17*
X-71049000Y-99995256D03*
D18*
X-71049000Y-111275000D03*
D19*
X-69652000Y-102235000D03*
D20*
X-69652000Y-107315000D03*
D14*
X-68509000Y-99695000D03*
D21*
X-68255000Y-104775000D03*
D22*
%TO.P,SW51,2,2*%
%TO.N,/COL 6*%
X-74859000Y-96825000D03*
D23*
X-73649000Y-96825000D03*
D24*
X-72699000Y-96825000D03*
D25*
%TO.P,SW51,3,3*%
%TO.N,unconnected-(SW51-Pad3)_11*%
X-76269000Y-108975000D03*
D16*
X-76049000Y-100975000D03*
D14*
X-74859000Y-102235000D03*
D18*
X-74849000Y-108575000D03*
D24*
X-69398000Y-96825000D03*
D23*
X-68549000Y-96825000D03*
D18*
X-67249000Y-108575000D03*
D26*
X-67239000Y-96825000D03*
D14*
X-67239000Y-102235000D03*
D16*
X-66049000Y-100975000D03*
D25*
X-65829000Y-108975000D03*
%TD*%
D14*
%TO.P,SW49,1,1*%
%TO.N,/ROW 5*%
X-116451500Y-99695000D03*
D15*
X-113911501Y-109600999D03*
D16*
X-113911500Y-98875000D03*
D17*
X-113911500Y-99995256D03*
D18*
X-113911500Y-111275000D03*
D19*
X-112514500Y-102235000D03*
D20*
X-112514500Y-107315000D03*
D14*
X-111371500Y-99695000D03*
D21*
X-111117500Y-104775000D03*
D22*
%TO.P,SW49,2,2*%
%TO.N,/COL 4*%
X-117721500Y-96825000D03*
D23*
X-116511500Y-96825000D03*
D24*
X-115561500Y-96825000D03*
D25*
%TO.P,SW49,3,3*%
%TO.N,unconnected-(SW49-Pad3)_7*%
X-119131500Y-108975000D03*
D16*
X-118911500Y-100975000D03*
D14*
X-117721500Y-102235000D03*
D18*
X-117711500Y-108575000D03*
D24*
X-112260500Y-96825000D03*
D23*
X-111411500Y-96825000D03*
D18*
X-110111500Y-108575000D03*
D26*
X-110101500Y-96825000D03*
D14*
X-110101500Y-102235000D03*
D16*
X-108911500Y-100975000D03*
D25*
X-108691500Y-108975000D03*
%TD*%
D14*
%TO.P,SW14,1,1*%
%TO.N,/ROW 1*%
X-149789000Y-23495000D03*
D15*
X-147249001Y-33400999D03*
D16*
X-147249000Y-22675000D03*
D17*
X-147249000Y-23795256D03*
D18*
X-147249000Y-35075000D03*
D19*
X-145852000Y-26035000D03*
D20*
X-145852000Y-31115000D03*
D14*
X-144709000Y-23495000D03*
D21*
X-144455000Y-28575000D03*
D22*
%TO.P,SW14,2,2*%
%TO.N,/COL 3*%
X-151059000Y-20625000D03*
D23*
X-149849000Y-20625000D03*
D24*
X-148899000Y-20625000D03*
D25*
%TO.P,SW14,3,3*%
%TO.N,unconnected-(SW14-Pad3)_5*%
X-152469000Y-32775000D03*
D16*
X-152249000Y-24775000D03*
D14*
X-151059000Y-26035000D03*
D18*
X-151049000Y-32375000D03*
D24*
X-145598000Y-20625000D03*
D23*
X-144749000Y-20625000D03*
D18*
X-143449000Y-32375000D03*
D26*
X-143439000Y-20625000D03*
D14*
X-143439000Y-26035000D03*
D16*
X-142249000Y-24775000D03*
D25*
X-142029000Y-32775000D03*
%TD*%
D14*
%TO.P,SW3,1,1*%
%TO.N,/ROW 0*%
X-168839000Y-4445000D03*
D15*
X-166299001Y-14350999D03*
D16*
X-166299000Y-3625000D03*
D17*
X-166299000Y-4745256D03*
D18*
X-166299000Y-16025000D03*
D19*
X-164902000Y-6985000D03*
D20*
X-164902000Y-12065000D03*
D14*
X-163759000Y-4445000D03*
D21*
X-163505000Y-9525000D03*
D22*
%TO.P,SW3,2,2*%
%TO.N,/COL 1*%
X-170109000Y-1575000D03*
D23*
X-168899000Y-1575000D03*
D24*
X-167949000Y-1575000D03*
D25*
%TO.P,SW3,3,3*%
%TO.N,unconnected-(SW3-Pad3)_15*%
X-171519000Y-13725000D03*
D16*
X-171299000Y-5725000D03*
D14*
X-170109000Y-6985000D03*
D18*
X-170099000Y-13325000D03*
D24*
X-164648000Y-1575000D03*
D23*
X-163799000Y-1575000D03*
D18*
X-162499000Y-13325000D03*
D26*
X-162489000Y-1575000D03*
D14*
X-162489000Y-6985000D03*
D16*
X-161299000Y-5725000D03*
D25*
X-161079000Y-13725000D03*
%TD*%
D14*
%TO.P,SW31,1,1*%
%TO.N,/ROW 3*%
X-154551500Y-61595000D03*
D15*
X-152011501Y-71500999D03*
D16*
X-152011500Y-60775000D03*
D17*
X-152011500Y-61895256D03*
D18*
X-152011500Y-73175000D03*
D19*
X-150614500Y-64135000D03*
D20*
X-150614500Y-69215000D03*
D14*
X-149471500Y-61595000D03*
D21*
X-149217500Y-66675000D03*
D22*
%TO.P,SW31,2,2*%
%TO.N,/COL 2*%
X-155821500Y-58725000D03*
D23*
X-154611500Y-58725000D03*
D24*
X-153661500Y-58725000D03*
D25*
%TO.P,SW31,3,3*%
%TO.N,unconnected-(SW31-Pad3)_14*%
X-157231500Y-70875000D03*
D16*
X-157011500Y-62875000D03*
D14*
X-155821500Y-64135000D03*
D18*
X-155811500Y-70475000D03*
D24*
X-150360500Y-58725000D03*
D23*
X-149511500Y-58725000D03*
D18*
X-148211500Y-70475000D03*
D26*
X-148201500Y-58725000D03*
D14*
X-148201500Y-64135000D03*
D16*
X-147011500Y-62875000D03*
D25*
X-146791500Y-70875000D03*
%TD*%
D14*
%TO.P,SW1,1,1*%
%TO.N,/ROW 1*%
X-206939000Y-4445000D03*
D15*
X-204399001Y-14350999D03*
D16*
X-204399000Y-3625000D03*
D17*
X-204399000Y-4745256D03*
D18*
X-204399000Y-16025000D03*
D19*
X-203002000Y-6985000D03*
D20*
X-203002000Y-12065000D03*
D14*
X-201859000Y-4445000D03*
D21*
X-201605000Y-9525000D03*
D22*
%TO.P,SW1,2,2*%
%TO.N,/COL 0*%
X-208209000Y-1575000D03*
D23*
X-206999000Y-1575000D03*
D24*
X-206049000Y-1575000D03*
D25*
%TO.P,SW1,3,3*%
%TO.N,unconnected-(SW1-Pad3)_21*%
X-209619000Y-13725000D03*
D16*
X-209399000Y-5725000D03*
D14*
X-208209000Y-6985000D03*
D18*
X-208199000Y-13325000D03*
D24*
X-202748000Y-1575000D03*
D23*
X-201899000Y-1575000D03*
D18*
X-200599000Y-13325000D03*
D26*
X-200589000Y-1575000D03*
D14*
X-200589000Y-6985000D03*
D16*
X-199399000Y-5725000D03*
D25*
X-199179000Y-13725000D03*
%TD*%
D14*
%TO.P,SW25,1,1*%
%TO.N,/ROW 2*%
X-102164000Y-42545000D03*
D15*
X-99624001Y-52450999D03*
D16*
X-99624000Y-41725000D03*
D17*
X-99624000Y-42845256D03*
D18*
X-99624000Y-54125000D03*
D19*
X-98227000Y-45085000D03*
D20*
X-98227000Y-50165000D03*
D14*
X-97084000Y-42545000D03*
D21*
X-96830000Y-47625000D03*
D22*
%TO.P,SW25,2,2*%
%TO.N,/COL 5*%
X-103434000Y-39675000D03*
D23*
X-102224000Y-39675000D03*
D24*
X-101274000Y-39675000D03*
D25*
%TO.P,SW25,3,3*%
%TO.N,unconnected-(SW25-Pad3)_18*%
X-104844000Y-51825000D03*
D16*
X-104624000Y-43825000D03*
D14*
X-103434000Y-45085000D03*
D18*
X-103424000Y-51425000D03*
D24*
X-97973000Y-39675000D03*
D23*
X-97124000Y-39675000D03*
D18*
X-95824000Y-51425000D03*
D26*
X-95814000Y-39675000D03*
D14*
X-95814000Y-45085000D03*
D16*
X-94624000Y-43825000D03*
D25*
X-94404000Y-51825000D03*
%TD*%
D14*
%TO.P,SW19,1,1*%
%TO.N,/ROW 1*%
X-35489000Y-23495000D03*
D15*
X-32949001Y-33400999D03*
D16*
X-32949000Y-22675000D03*
D17*
X-32949000Y-23795256D03*
D18*
X-32949000Y-35075000D03*
D19*
X-31552000Y-26035000D03*
D20*
X-31552000Y-31115000D03*
D14*
X-30409000Y-23495000D03*
D21*
X-30155000Y-28575000D03*
D22*
%TO.P,SW19,2,2*%
%TO.N,/COL 8*%
X-36759000Y-20625000D03*
D23*
X-35549000Y-20625000D03*
D24*
X-34599000Y-20625000D03*
D25*
%TO.P,SW19,3,3*%
%TO.N,unconnected-(SW19-Pad3)_8*%
X-38169000Y-32775000D03*
D16*
X-37949000Y-24775000D03*
D14*
X-36759000Y-26035000D03*
D18*
X-36749000Y-32375000D03*
D24*
X-31298000Y-20625000D03*
D23*
X-30449000Y-20625000D03*
D18*
X-29149000Y-32375000D03*
D26*
X-29139000Y-20625000D03*
D14*
X-29139000Y-26035000D03*
D16*
X-27949000Y-24775000D03*
D25*
X-27729000Y-32775000D03*
%TD*%
D14*
%TO.P,SW34,1,1*%
%TO.N,/ROW 3*%
X-97401500Y-61595000D03*
D15*
X-94861501Y-71500999D03*
D16*
X-94861500Y-60775000D03*
D17*
X-94861500Y-61895256D03*
D18*
X-94861500Y-73175000D03*
D19*
X-93464500Y-64135000D03*
D20*
X-93464500Y-69215000D03*
D14*
X-92321500Y-61595000D03*
D21*
X-92067500Y-66675000D03*
D22*
%TO.P,SW34,2,2*%
%TO.N,/COL 5*%
X-98671500Y-58725000D03*
D23*
X-97461500Y-58725000D03*
D24*
X-96511500Y-58725000D03*
D25*
%TO.P,SW34,3,3*%
%TO.N,unconnected-(SW34-Pad3)_19*%
X-100081500Y-70875000D03*
D16*
X-99861500Y-62875000D03*
D14*
X-98671500Y-64135000D03*
D18*
X-98661500Y-70475000D03*
D24*
X-93210500Y-58725000D03*
D23*
X-92361500Y-58725000D03*
D18*
X-91061500Y-70475000D03*
D26*
X-91051500Y-58725000D03*
D14*
X-91051500Y-64135000D03*
D16*
X-89861500Y-62875000D03*
D25*
X-89641500Y-70875000D03*
%TD*%
D14*
%TO.P,SW33,1,1*%
%TO.N,/ROW 3*%
X-116451500Y-61595000D03*
D15*
X-113911501Y-71500999D03*
D16*
X-113911500Y-60775000D03*
D17*
X-113911500Y-61895256D03*
D18*
X-113911500Y-73175000D03*
D19*
X-112514500Y-64135000D03*
D20*
X-112514500Y-69215000D03*
D14*
X-111371500Y-61595000D03*
D21*
X-111117500Y-66675000D03*
D22*
%TO.P,SW33,2,2*%
%TO.N,/COL 4*%
X-117721500Y-58725000D03*
D23*
X-116511500Y-58725000D03*
D24*
X-115561500Y-58725000D03*
D25*
%TO.P,SW33,3,3*%
%TO.N,unconnected-(SW33-Pad3)_15*%
X-119131500Y-70875000D03*
D16*
X-118911500Y-62875000D03*
D14*
X-117721500Y-64135000D03*
D18*
X-117711500Y-70475000D03*
D24*
X-112260500Y-58725000D03*
D23*
X-111411500Y-58725000D03*
D18*
X-110111500Y-70475000D03*
D26*
X-110101500Y-58725000D03*
D14*
X-110101500Y-64135000D03*
D16*
X-108911500Y-62875000D03*
D25*
X-108691500Y-70875000D03*
%TD*%
D14*
%TO.P,SW12,1,1*%
%TO.N,/ROW 1*%
X-187889000Y-23495000D03*
D15*
X-185349001Y-33400999D03*
D16*
X-185349000Y-22675000D03*
D17*
X-185349000Y-23795256D03*
D18*
X-185349000Y-35075000D03*
D19*
X-183952000Y-26035000D03*
D20*
X-183952000Y-31115000D03*
D14*
X-182809000Y-23495000D03*
D21*
X-182555000Y-28575000D03*
D22*
%TO.P,SW12,2,2*%
%TO.N,/COL 1*%
X-189159000Y-20625000D03*
D23*
X-187949000Y-20625000D03*
D24*
X-186999000Y-20625000D03*
D25*
%TO.P,SW12,3,3*%
%TO.N,unconnected-(SW12-Pad3)_10*%
X-190569000Y-32775000D03*
D16*
X-190349000Y-24775000D03*
D14*
X-189159000Y-26035000D03*
D18*
X-189149000Y-32375000D03*
D24*
X-183698000Y-20625000D03*
D23*
X-182849000Y-20625000D03*
D18*
X-181549000Y-32375000D03*
D26*
X-181539000Y-20625000D03*
D14*
X-181539000Y-26035000D03*
D16*
X-180349000Y-24775000D03*
D25*
X-180129000Y-32775000D03*
%TD*%
D31*
%TO.P,J1,1,Pin_1*%
%TO.N,+BATT*%
X-8424000Y-41500000D03*
%TD*%
D14*
%TO.P,SW6,1,1*%
%TO.N,/ROW 0*%
X-111689000Y-4445000D03*
D15*
X-109149001Y-14350999D03*
D16*
X-109149000Y-3625000D03*
D17*
X-109149000Y-4745256D03*
D18*
X-109149000Y-16025000D03*
D19*
X-107752000Y-6985000D03*
D20*
X-107752000Y-12065000D03*
D14*
X-106609000Y-4445000D03*
D21*
X-106355000Y-9525000D03*
D22*
%TO.P,SW6,2,2*%
%TO.N,/COL 4*%
X-112959000Y-1575000D03*
D23*
X-111749000Y-1575000D03*
D24*
X-110799000Y-1575000D03*
D25*
%TO.P,SW6,3,3*%
%TO.N,unconnected-(SW6-Pad3)_9*%
X-114369000Y-13725000D03*
D16*
X-114149000Y-5725000D03*
D14*
X-112959000Y-6985000D03*
D18*
X-112949000Y-13325000D03*
D24*
X-107498000Y-1575000D03*
D23*
X-106649000Y-1575000D03*
D18*
X-105349000Y-13325000D03*
D26*
X-105339000Y-1575000D03*
D14*
X-105339000Y-6985000D03*
D16*
X-104149000Y-5725000D03*
D25*
X-103929000Y-13725000D03*
%TD*%
D14*
%TO.P,SW52,1,1*%
%TO.N,/ROW 5*%
X-54539000Y-99695000D03*
D15*
X-51999001Y-109600999D03*
D16*
X-51999000Y-98875000D03*
D17*
X-51999000Y-99995256D03*
D18*
X-51999000Y-111275000D03*
D19*
X-50602000Y-102235000D03*
D20*
X-50602000Y-107315000D03*
D14*
X-49459000Y-99695000D03*
D21*
X-49205000Y-104775000D03*
D22*
%TO.P,SW52,2,2*%
%TO.N,/COL 7*%
X-55809000Y-96825000D03*
D23*
X-54599000Y-96825000D03*
D24*
X-53649000Y-96825000D03*
D25*
%TO.P,SW52,3,3*%
%TO.N,unconnected-(SW52-Pad3)_13*%
X-57219000Y-108975000D03*
D16*
X-56999000Y-100975000D03*
D14*
X-55809000Y-102235000D03*
D18*
X-55799000Y-108575000D03*
D24*
X-50348000Y-96825000D03*
D23*
X-49499000Y-96825000D03*
D18*
X-48199000Y-108575000D03*
D26*
X-48189000Y-96825000D03*
D14*
X-48189000Y-102235000D03*
D16*
X-46999000Y-100975000D03*
D25*
X-46779000Y-108975000D03*
%TD*%
D14*
%TO.P,SW50,1,1*%
%TO.N,/ROW 5*%
X-95020250Y-99695000D03*
D15*
X-92480251Y-109600999D03*
D16*
X-92480250Y-98875000D03*
D17*
X-92480250Y-99995256D03*
D18*
X-92480250Y-111275000D03*
D19*
X-91083250Y-102235000D03*
D20*
X-91083250Y-107315000D03*
D14*
X-89940250Y-99695000D03*
D21*
X-89686250Y-104775000D03*
D22*
%TO.P,SW50,2,2*%
%TO.N,/COL 5*%
X-96290250Y-96825000D03*
D23*
X-95080250Y-96825000D03*
D24*
X-94130250Y-96825000D03*
D25*
%TO.P,SW50,3,3*%
%TO.N,unconnected-(SW50-Pad3)_20*%
X-97700250Y-108975000D03*
D16*
X-97480250Y-100975000D03*
D14*
X-96290250Y-102235000D03*
D18*
X-96280250Y-108575000D03*
D24*
X-90829250Y-96825000D03*
D23*
X-89980250Y-96825000D03*
D18*
X-88680250Y-108575000D03*
D26*
X-88670250Y-96825000D03*
D14*
X-88670250Y-102235000D03*
D16*
X-87480250Y-100975000D03*
D25*
X-87260250Y-108975000D03*
%TD*%
D14*
%TO.P,SW36,1,1*%
%TO.N,/ROW 3*%
X-35489000Y-61595000D03*
D15*
X-32949001Y-71500999D03*
D16*
X-32949000Y-60775000D03*
D17*
X-32949000Y-61895256D03*
D18*
X-32949000Y-73175000D03*
D19*
X-31552000Y-64135000D03*
D20*
X-31552000Y-69215000D03*
D14*
X-30409000Y-61595000D03*
D21*
X-30155000Y-66675000D03*
D22*
%TO.P,SW36,2,2*%
%TO.N,/COL 7*%
X-36759000Y-58725000D03*
D23*
X-35549000Y-58725000D03*
D24*
X-34599000Y-58725000D03*
D25*
%TO.P,SW36,3,3*%
%TO.N,unconnected-(SW36-Pad3)_5*%
X-38169000Y-70875000D03*
D16*
X-37949000Y-62875000D03*
D14*
X-36759000Y-64135000D03*
D18*
X-36749000Y-70475000D03*
D24*
X-31298000Y-58725000D03*
D23*
X-30449000Y-58725000D03*
D18*
X-29149000Y-70475000D03*
D26*
X-29139000Y-58725000D03*
D14*
X-29139000Y-64135000D03*
D16*
X-27949000Y-62875000D03*
D25*
X-27729000Y-70875000D03*
%TD*%
D14*
%TO.P,SW5,1,1*%
%TO.N,/ROW 0*%
X-130739000Y-4445000D03*
D15*
X-128199001Y-14350999D03*
D16*
X-128199000Y-3625000D03*
D17*
X-128199000Y-4745256D03*
D18*
X-128199000Y-16025000D03*
D19*
X-126802000Y-6985000D03*
D20*
X-126802000Y-12065000D03*
D14*
X-125659000Y-4445000D03*
D21*
X-125405000Y-9525000D03*
D22*
%TO.P,SW5,2,2*%
%TO.N,/COL 3*%
X-132009000Y-1575000D03*
D23*
X-130799000Y-1575000D03*
D24*
X-129849000Y-1575000D03*
D25*
%TO.P,SW5,3,3*%
%TO.N,unconnected-(SW5-Pad3)_14*%
X-133419000Y-13725000D03*
D16*
X-133199000Y-5725000D03*
D14*
X-132009000Y-6985000D03*
D18*
X-131999000Y-13325000D03*
D24*
X-126548000Y-1575000D03*
D23*
X-125699000Y-1575000D03*
D18*
X-124399000Y-13325000D03*
D26*
X-124389000Y-1575000D03*
D14*
X-124389000Y-6985000D03*
D16*
X-123199000Y-5725000D03*
D25*
X-122979000Y-13725000D03*
%TD*%
D14*
%TO.P,SW38,1,1*%
%TO.N,/ROW 4*%
X-183126500Y-80645000D03*
D15*
X-180586501Y-90550999D03*
D16*
X-180586500Y-79825000D03*
D17*
X-180586500Y-80945256D03*
D18*
X-180586500Y-92225000D03*
D19*
X-179189500Y-83185000D03*
D20*
X-179189500Y-88265000D03*
D14*
X-178046500Y-80645000D03*
D21*
X-177792500Y-85725000D03*
D22*
%TO.P,SW38,2,2*%
%TO.N,/COL 1*%
X-184396500Y-77775000D03*
D23*
X-183186500Y-77775000D03*
D24*
X-182236500Y-77775000D03*
D25*
%TO.P,SW38,3,3*%
%TO.N,unconnected-(SW38-Pad3)*%
X-185806500Y-89925000D03*
D16*
X-185586500Y-81925000D03*
D14*
X-184396500Y-83185000D03*
D18*
X-184386500Y-89525000D03*
D24*
X-178935500Y-77775000D03*
D23*
X-178086500Y-77775000D03*
D18*
X-176786500Y-89525000D03*
D26*
X-176776500Y-77775000D03*
D14*
X-176776500Y-83185000D03*
D16*
X-175586500Y-81925000D03*
D25*
X-175366500Y-89925000D03*
%TD*%
D14*
%TO.P,SW41,1,1*%
%TO.N,/ROW 4*%
X-125976500Y-80645000D03*
D15*
X-123436501Y-90550999D03*
D16*
X-123436500Y-79825000D03*
D17*
X-123436500Y-80945256D03*
D18*
X-123436500Y-92225000D03*
D19*
X-122039500Y-83185000D03*
D20*
X-122039500Y-88265000D03*
D14*
X-120896500Y-80645000D03*
D21*
X-120642500Y-85725000D03*
D22*
%TO.P,SW41,2,2*%
%TO.N,/COL 4*%
X-127246500Y-77775000D03*
D23*
X-126036500Y-77775000D03*
D24*
X-125086500Y-77775000D03*
D25*
%TO.P,SW41,3,3*%
%TO.N,unconnected-(SW41-Pad3)*%
X-128656500Y-89925000D03*
D16*
X-128436500Y-81925000D03*
D14*
X-127246500Y-83185000D03*
D18*
X-127236500Y-89525000D03*
D24*
X-121785500Y-77775000D03*
D23*
X-120936500Y-77775000D03*
D18*
X-119636500Y-89525000D03*
D26*
X-119626500Y-77775000D03*
D14*
X-119626500Y-83185000D03*
D16*
X-118436500Y-81925000D03*
D25*
X-118216500Y-89925000D03*
%TD*%
D14*
%TO.P,SW29,1,1*%
%TO.N,/ROW 4*%
X-192651500Y-61595000D03*
D15*
X-190111501Y-71500999D03*
D16*
X-190111500Y-60775000D03*
D17*
X-190111500Y-61895256D03*
D18*
X-190111500Y-73175000D03*
D19*
X-188714500Y-64135000D03*
D20*
X-188714500Y-69215000D03*
D14*
X-187571500Y-61595000D03*
D21*
X-187317500Y-66675000D03*
D22*
%TO.P,SW29,2,2*%
%TO.N,/COL 0*%
X-193921500Y-58725000D03*
D23*
X-192711500Y-58725000D03*
D24*
X-191761500Y-58725000D03*
D25*
%TO.P,SW29,3,3*%
%TO.N,unconnected-(SW29-Pad3)_2*%
X-195331500Y-70875000D03*
D16*
X-195111500Y-62875000D03*
D14*
X-193921500Y-64135000D03*
D18*
X-193911500Y-70475000D03*
D24*
X-188460500Y-58725000D03*
D23*
X-187611500Y-58725000D03*
D18*
X-186311500Y-70475000D03*
D26*
X-186301500Y-58725000D03*
D14*
X-186301500Y-64135000D03*
D16*
X-185111500Y-62875000D03*
D25*
X-184891500Y-70875000D03*
%TD*%
D14*
%TO.P,SW40,1,1*%
%TO.N,/ROW 4*%
X-145026500Y-80645000D03*
D15*
X-142486501Y-90550999D03*
D16*
X-142486500Y-79825000D03*
D17*
X-142486500Y-80945256D03*
D18*
X-142486500Y-92225000D03*
D19*
X-141089500Y-83185000D03*
D20*
X-141089500Y-88265000D03*
D14*
X-139946500Y-80645000D03*
D21*
X-139692500Y-85725000D03*
D22*
%TO.P,SW40,2,2*%
%TO.N,/COL 3*%
X-146296500Y-77775000D03*
D23*
X-145086500Y-77775000D03*
D24*
X-144136500Y-77775000D03*
D25*
%TO.P,SW40,3,3*%
%TO.N,unconnected-(SW40-Pad3)_11*%
X-147706500Y-89925000D03*
D16*
X-147486500Y-81925000D03*
D14*
X-146296500Y-83185000D03*
D18*
X-146286500Y-89525000D03*
D24*
X-140835500Y-77775000D03*
D23*
X-139986500Y-77775000D03*
D18*
X-138686500Y-89525000D03*
D26*
X-138676500Y-77775000D03*
D14*
X-138676500Y-83185000D03*
D16*
X-137486500Y-81925000D03*
D25*
X-137266500Y-89925000D03*
%TD*%
D14*
%TO.P,SW35,1,1*%
%TO.N,/ROW 3*%
X-66445250Y-61595000D03*
D15*
X-63905251Y-71500999D03*
D16*
X-63905250Y-60775000D03*
D17*
X-63905250Y-61895256D03*
D18*
X-63905250Y-73175000D03*
D19*
X-62508250Y-64135000D03*
D20*
X-62508250Y-69215000D03*
D14*
X-61365250Y-61595000D03*
D21*
X-61111250Y-66675000D03*
D22*
%TO.P,SW35,2,2*%
%TO.N,/COL 6*%
X-67715250Y-58725000D03*
D23*
X-66505250Y-58725000D03*
D24*
X-65555250Y-58725000D03*
D25*
%TO.P,SW35,3,3*%
%TO.N,unconnected-(SW35-Pad3)_14*%
X-69125250Y-70875000D03*
D16*
X-68905250Y-62875000D03*
D14*
X-67715250Y-64135000D03*
D18*
X-67705250Y-70475000D03*
D24*
X-62254250Y-58725000D03*
D23*
X-61405250Y-58725000D03*
D18*
X-60105250Y-70475000D03*
D26*
X-60095250Y-58725000D03*
D14*
X-60095250Y-64135000D03*
D16*
X-58905250Y-62875000D03*
D25*
X-58685250Y-70875000D03*
%TD*%
D32*
%TO.P,SW0,1,1*%
%TO.N,Net-(U1-RST)*%
X-13724000Y-38500000D03*
D33*
X-13724000Y-38500000D03*
D32*
%TO.P,SW0,2,2*%
%TO.N,GND*%
X-17124000Y-38500000D03*
D33*
X-17124000Y-38500000D03*
%TD*%
D34*
%TO.N,/COL 5*%
X-29456500Y-35465000D03*
X-115411500Y-34271000D03*
X-24677735Y-33560000D03*
%TO.N,/COL 4*%
X-28821500Y-38005000D03*
X-25646500Y-37370000D03*
%TO.N,/COL 3*%
X-135819000Y-57372500D03*
%TO.N,/COL 2*%
X-155636500Y-56200000D03*
%TO.N,/COL 1*%
X-179636500Y-37200000D03*
%TO.N,/COL 0*%
X-191636500Y-18200000D03*
%TO.N,/ROW 1*%
X-23741500Y-8160000D03*
%TO.N,/COL 6*%
X-25018500Y-29750000D03*
X-36441500Y-36100000D03*
X-93591500Y-36396000D03*
%TO.N,/COL 7*%
X-48111500Y-58725000D03*
%TO.N,/COL 8*%
X-41636500Y-17050000D03*
%TD*%
D35*
%TO.N,/COL 5*%
X-102161500Y-58725000D02*
X-98671500Y-58725000D01*
X-107636500Y-18200000D02*
X-103636500Y-18200000D01*
X-102111500Y-58725000D02*
X-108636500Y-52200000D01*
X-116149900Y-33686600D02*
X-116149900Y-23815900D01*
X-26582735Y-35465000D02*
X-29456500Y-35465000D01*
X-106011500Y-96825000D02*
X-111636500Y-91200000D01*
X-103636500Y-18200000D02*
X-98636500Y-13200000D01*
X-110161500Y-39675000D02*
X-116149900Y-33686600D01*
X-98636500Y-6302500D02*
X-93909000Y-1575000D01*
X-98671500Y-58725000D02*
X-102111500Y-58725000D01*
X-103434000Y-39675000D02*
X-110161500Y-39675000D01*
X-110799000Y-20625000D02*
X-110061500Y-20625000D01*
X-98636500Y-13200000D02*
X-98636500Y-6302500D01*
X-116149900Y-23815900D02*
X-112959000Y-20625000D01*
X-106036500Y-77775000D02*
X-106036500Y-62600000D01*
X-111636500Y-81215000D02*
X-108196500Y-77775000D01*
X-24677735Y-33560000D02*
X-26582735Y-35465000D01*
X-110061500Y-20625000D02*
X-107636500Y-18200000D01*
X-108636500Y-39675000D02*
X-103434000Y-39675000D01*
X-96290250Y-96825000D02*
X-106011500Y-96825000D01*
X-111636500Y-91200000D02*
X-111636500Y-81215000D01*
X-108636500Y-52200000D02*
X-108636500Y-39675000D01*
X-106036500Y-62600000D02*
X-102161500Y-58725000D01*
%TO.N,/COL 4*%
X-115011500Y-1575000D02*
X-112959000Y-1575000D01*
X-135636500Y-24252500D02*
X-132009000Y-20625000D01*
X-126636500Y-51200000D02*
X-126636500Y-39675000D01*
X-117636500Y-4200000D02*
X-115011500Y-1575000D01*
X-122484000Y-39675000D02*
X-129161500Y-39675000D01*
X-123636500Y-76325000D02*
X-123636500Y-63200000D01*
X-129849000Y-20625000D02*
X-129189604Y-20625000D01*
X-25646500Y-37370000D02*
X-26281500Y-38005000D01*
X-125764604Y-17200000D02*
X-123636500Y-17200000D01*
X-123636500Y-17200000D02*
X-117636500Y-11200000D01*
X-123636500Y-63200000D02*
X-119161500Y-58725000D01*
X-117721500Y-96825000D02*
X-125011500Y-96825000D01*
X-117636500Y-11200000D02*
X-117636500Y-4200000D01*
X-26281500Y-38005000D02*
X-28821500Y-38005000D01*
X-125086500Y-77775000D02*
X-123636500Y-76325000D01*
X-126636500Y-39675000D02*
X-122484000Y-39675000D01*
X-131636500Y-82165000D02*
X-127246500Y-77775000D01*
X-125011500Y-96825000D02*
X-131636500Y-90200000D01*
X-131636500Y-90200000D02*
X-131636500Y-82165000D01*
X-117721500Y-58725000D02*
X-119111500Y-58725000D01*
X-135636500Y-33200000D02*
X-135636500Y-24252500D01*
X-119111500Y-58725000D02*
X-126636500Y-51200000D01*
X-129189604Y-20625000D02*
X-125764604Y-17200000D01*
X-129161500Y-39675000D02*
X-135636500Y-33200000D01*
X-119161500Y-58725000D02*
X-117721500Y-58725000D01*
%TO.N,/COL 3*%
X-146636500Y-52200000D02*
X-146636500Y-41747654D01*
X-140111500Y-58725000D02*
X-146636500Y-52200000D01*
X-140161500Y-58725000D02*
X-136771500Y-58725000D01*
X-135636500Y-5202500D02*
X-132009000Y-1575000D01*
X-146636500Y-41747654D02*
X-144563846Y-39675000D01*
X-135819000Y-57372500D02*
X-136771500Y-58325000D01*
X-147038846Y-37200000D02*
X-153636500Y-37200000D01*
X-157636500Y-24200000D02*
X-154061500Y-20625000D01*
X-136771500Y-96825000D02*
X-144011500Y-96825000D01*
X-144136500Y-77775000D02*
X-144136500Y-62700000D01*
X-142636500Y-18200000D02*
X-135636500Y-11200000D01*
X-150636500Y-90200000D02*
X-150636500Y-82115000D01*
X-136771500Y-58325000D02*
X-136771500Y-58725000D01*
X-144563846Y-39675000D02*
X-147038846Y-37200000D01*
X-146474000Y-18200000D02*
X-142636500Y-18200000D01*
X-148899000Y-20625000D02*
X-146474000Y-18200000D01*
X-153636500Y-37200000D02*
X-157636500Y-33200000D01*
X-135636500Y-11200000D02*
X-135636500Y-5202500D01*
X-144011500Y-96825000D02*
X-150636500Y-90200000D01*
X-144136500Y-62700000D02*
X-140161500Y-58725000D01*
X-157636500Y-33200000D02*
X-157636500Y-24200000D01*
X-154061500Y-20625000D02*
X-151059000Y-20625000D01*
X-141534000Y-39675000D02*
X-144563846Y-39675000D01*
X-136771500Y-58725000D02*
X-140111500Y-58725000D01*
X-150636500Y-82115000D02*
X-146296500Y-77775000D01*
%TO.N,/COL 2*%
X-164737500Y-74301000D02*
X-162636500Y-72200000D01*
X-155821500Y-96825000D02*
X-164011500Y-96825000D01*
X-156636500Y-13200000D02*
X-156636500Y-7152500D01*
X-165636500Y-51250000D02*
X-165636500Y-39675000D01*
X-169636500Y-91200000D02*
X-169636500Y-82065000D01*
X-165636500Y-39675000D02*
X-160584000Y-39675000D01*
X-174636500Y-32209396D02*
X-167170896Y-39675000D01*
X-165346500Y-77775000D02*
X-164737500Y-77166000D01*
X-170109000Y-20625000D02*
X-174636500Y-25152500D01*
X-174636500Y-25152500D02*
X-174636500Y-32209396D01*
X-164737500Y-77166000D02*
X-164737500Y-74301000D01*
X-167170896Y-39675000D02*
X-160584000Y-39675000D01*
X-159161500Y-57725000D02*
X-157636500Y-56200000D01*
X-159161500Y-57725000D02*
X-165636500Y-51250000D01*
X-157636500Y-56200000D02*
X-155636500Y-56200000D01*
X-158161500Y-58725000D02*
X-155821500Y-58725000D01*
X-169636500Y-82065000D02*
X-165346500Y-77775000D01*
X-162636500Y-63200000D02*
X-158161500Y-58725000D01*
X-158161500Y-58725000D02*
X-159161500Y-57725000D01*
X-156636500Y-7152500D02*
X-151059000Y-1575000D01*
X-162636500Y-72200000D02*
X-162636500Y-63200000D01*
X-167949000Y-20625000D02*
X-165524000Y-18200000D01*
X-161636500Y-18200000D02*
X-156636500Y-13200000D01*
X-164011500Y-96825000D02*
X-169636500Y-91200000D01*
X-165524000Y-18200000D02*
X-161636500Y-18200000D01*
%TO.N,/COL 1*%
X-183636500Y-53200000D02*
X-183636500Y-39675000D01*
X-192349900Y-23815900D02*
X-189159000Y-20625000D01*
X-184396500Y-96825000D02*
X-189636500Y-91585000D01*
X-179636500Y-60200000D02*
X-178161500Y-58725000D01*
X-179634000Y-39675000D02*
X-186195896Y-39675000D01*
X-189636500Y-91585000D02*
X-189636500Y-83015000D01*
X-192349900Y-33520996D02*
X-192349900Y-23815900D01*
X-186195896Y-39675000D02*
X-192349900Y-33520996D01*
X-181636500Y-18200000D02*
X-175636500Y-12200000D01*
X-182636500Y-39675000D02*
X-179634000Y-39675000D01*
X-178111500Y-58725000D02*
X-183636500Y-53200000D01*
X-179636500Y-70200000D02*
X-179636500Y-60200000D01*
X-175636500Y-7102500D02*
X-170109000Y-1575000D01*
X-180161500Y-37200000D02*
X-182636500Y-39675000D01*
X-179636500Y-37200000D02*
X-180161500Y-37200000D01*
X-175636500Y-12200000D02*
X-175636500Y-7102500D01*
X-189636500Y-83015000D02*
X-184396500Y-77775000D01*
X-183636500Y-39675000D02*
X-182636500Y-39675000D01*
X-186999000Y-20625000D02*
X-184574000Y-18200000D01*
X-178161500Y-58725000D02*
X-174871500Y-58725000D01*
X-174871500Y-58725000D02*
X-178111500Y-58725000D01*
X-184396500Y-77775000D02*
X-184396500Y-74960000D01*
X-184396500Y-74960000D02*
X-179636500Y-70200000D01*
X-184574000Y-18200000D02*
X-181636500Y-18200000D01*
%TO.N,/COL 0*%
X-191636500Y-18200000D02*
X-196136500Y-13700000D01*
X-203624000Y-18200000D02*
X-206049000Y-20625000D01*
X-189159000Y-1575000D02*
X-192349900Y-4765900D01*
X-192349900Y-9913400D02*
X-196136500Y-13700000D01*
X-196136500Y-13700000D02*
X-200636500Y-18200000D01*
X-192349900Y-4765900D02*
X-192349900Y-9913400D01*
X-200636500Y-18200000D02*
X-203624000Y-18200000D01*
%TO.N,/ROW 0*%
X-25158999Y-3345001D02*
X-20884000Y-7620000D01*
X-29309001Y-3345001D02*
X-25158999Y-3345001D01*
X-30409000Y-4445000D02*
X-29309001Y-3345001D01*
%TO.N,/ROW 1*%
X-23741500Y-8160000D02*
X-25646500Y-10065000D01*
X-28853366Y-23495000D02*
X-30409000Y-23495000D01*
X-25646500Y-10065000D02*
X-25646500Y-20288134D01*
X-25646500Y-20288134D02*
X-28853366Y-23495000D01*
%TO.N,/ROW 2*%
X-23873735Y-18229735D02*
X-20884000Y-15240000D01*
X-23873735Y-37565369D02*
X-23873735Y-18229735D01*
X-28853366Y-42545000D02*
X-23873735Y-37565369D01*
X-30409000Y-42545000D02*
X-28853366Y-42545000D01*
%TO.N,/ROW 4*%
X-22765735Y-22201735D02*
X-20884000Y-20320000D01*
X-22765735Y-38024317D02*
X-22765735Y-22201735D01*
X-28853366Y-80645000D02*
X-25274745Y-77066379D01*
X-30409000Y-80645000D02*
X-28853366Y-80645000D01*
X-25274745Y-40533327D02*
X-22765735Y-38024317D01*
X-25274745Y-77066379D02*
X-25274745Y-40533327D01*
%TO.N,/ROW 5*%
X-30409000Y-99695000D02*
X-28853366Y-99695000D01*
X-28853366Y-99695000D02*
X-24720745Y-95562379D01*
X-24720745Y-95562379D02*
X-24720745Y-40762801D01*
X-22211735Y-38253791D02*
X-22211735Y-24187735D01*
X-22211735Y-24187735D02*
X-20884000Y-22860000D01*
X-24720745Y-40762801D02*
X-22211735Y-38253791D01*
D36*
%TO.N,GND*%
X-21304000Y-2540000D02*
X-19716502Y-2540000D01*
X-17124000Y-39300000D02*
X-14924000Y-41500000D01*
X-17124000Y-38500000D02*
X-17124000Y-39300000D01*
X-10275000Y-39275000D02*
X-6596500Y-39275000D01*
X-2387000Y-35065500D02*
X-2387000Y-5543000D01*
X-2387000Y-5543000D02*
X-4120000Y-3810000D01*
X-14924000Y-41500000D02*
X-12500000Y-41500000D01*
X-6596500Y-39275000D02*
X-2387000Y-35065500D01*
X-12500000Y-41500000D02*
X-10275000Y-39275000D01*
X-19716502Y-2540000D02*
X-19716500Y-2540002D01*
D35*
%TO.N,Net-(U1-RST)*%
X-6627290Y-38500000D02*
X-2916000Y-34788710D01*
X-2916000Y-34788710D02*
X-2916000Y-10931282D01*
X-13724000Y-38500000D02*
X-6627290Y-38500000D01*
X-2916000Y-10931282D02*
X-3687282Y-10160000D01*
X-3687282Y-10160000D02*
X-5644000Y-10160000D01*
%TO.N,/ROW 3*%
X-23319735Y-37794843D02*
X-23319735Y-20215735D01*
X-23319735Y-20215735D02*
X-20884000Y-17780000D01*
X-30409000Y-61595000D02*
X-28853366Y-61595000D01*
X-25828745Y-58570379D02*
X-25828745Y-40303853D01*
X-25828745Y-40303853D02*
X-23319735Y-37794843D01*
X-28853366Y-61595000D02*
X-25828745Y-58570379D01*
%TO.N,+BATT*%
X-3326500Y-2540000D02*
X-5644000Y-2540000D01*
X-1858000Y-4008500D02*
X-3326500Y-2540000D01*
X-8073382Y-41500000D02*
X-1858000Y-35284618D01*
X-8424000Y-41500000D02*
X-8073382Y-41500000D01*
X-1858000Y-35284618D02*
X-1858000Y-4008500D01*
%TO.N,/COL 6*%
X-36112500Y-36429000D02*
X-36441500Y-36100000D01*
X-96751500Y-36085000D02*
X-97636500Y-35200000D01*
X-86636500Y-81200000D02*
X-83211500Y-77775000D01*
X-79842750Y-77775000D02*
X-79842750Y-61406250D01*
X-74859000Y-96825000D02*
X-80011500Y-96825000D01*
X-93591500Y-36396000D02*
X-96440500Y-36396000D01*
X-30146875Y-34250375D02*
X-32325500Y-36429000D01*
X-79636500Y-13200000D02*
X-79636500Y-6352500D01*
X-96440500Y-36396000D02*
X-96751500Y-36085000D01*
X-86636500Y-90200000D02*
X-86636500Y-81200000D01*
X-90636500Y-39675000D02*
X-84384000Y-39675000D01*
X-97636500Y-35200000D02*
X-97636500Y-24352500D01*
X-84636500Y-18200000D02*
X-79636500Y-13200000D01*
X-87853274Y-18200000D02*
X-84636500Y-18200000D01*
X-79636500Y-6352500D02*
X-74859000Y-1575000D01*
X-93161500Y-39675000D02*
X-96751500Y-36085000D01*
X-84384000Y-39675000D02*
X-93161500Y-39675000D01*
X-32325500Y-36429000D02*
X-36112500Y-36429000D01*
X-25018500Y-29750000D02*
X-25018500Y-32069641D01*
X-83211500Y-77775000D02*
X-82002750Y-77775000D01*
X-80011500Y-96825000D02*
X-86636500Y-90200000D01*
X-91749000Y-20625000D02*
X-90278274Y-20625000D01*
X-90278274Y-20625000D02*
X-87853274Y-18200000D01*
X-83111500Y-58725000D02*
X-90636500Y-51200000D01*
X-90636500Y-51200000D02*
X-90636500Y-39675000D01*
X-79842750Y-61406250D02*
X-77161500Y-58725000D01*
X-77161500Y-58725000D02*
X-67715250Y-58725000D01*
X-27199234Y-34250375D02*
X-30146875Y-34250375D01*
X-67715250Y-58725000D02*
X-83111500Y-58725000D01*
X-25018500Y-32069641D02*
X-27199234Y-34250375D01*
X-97636500Y-24352500D02*
X-93909000Y-20625000D01*
%TO.N,/COL 7*%
X-63174000Y-20625000D02*
X-63174000Y-8940000D01*
X-60636500Y-82602500D02*
X-55809000Y-77775000D01*
X-57111500Y-58725000D02*
X-65636500Y-50200000D01*
X-53649000Y-77775000D02*
X-53649000Y-58737500D01*
X-64111500Y-39675000D02*
X-60571500Y-39675000D01*
X-55809000Y-96825000D02*
X-60636500Y-91997500D01*
X-64161500Y-39675000D02*
X-60571500Y-39675000D01*
X-65334000Y-20625000D02*
X-70636500Y-25927500D01*
X-65636500Y-41200000D02*
X-64111500Y-39675000D01*
X-70636500Y-25927500D02*
X-70636500Y-33200000D01*
X-60636500Y-91997500D02*
X-60636500Y-82602500D01*
X-65636500Y-50200000D02*
X-65636500Y-41200000D01*
X-63174000Y-8940000D02*
X-55809000Y-1575000D01*
X-70636500Y-33200000D02*
X-64161500Y-39675000D01*
X-48111500Y-58725000D02*
X-57111500Y-58725000D01*
%TO.N,/COL 8*%
X-36759000Y-20625000D02*
X-39211500Y-20625000D01*
X-36759000Y-77775000D02*
X-41061500Y-77775000D01*
X-42636500Y-33797500D02*
X-42636500Y-24200000D01*
X-36759000Y-96825000D02*
X-40636500Y-92947500D01*
X-43636500Y-75200000D02*
X-43636500Y-46552500D01*
X-40636500Y-92947500D02*
X-40636500Y-77775000D01*
X-39061500Y-20625000D02*
X-36759000Y-20625000D01*
X-41061500Y-77775000D02*
X-43636500Y-75200000D01*
X-40636500Y-77775000D02*
X-36759000Y-77775000D01*
X-41636500Y-6452500D02*
X-36759000Y-1575000D01*
X-39211500Y-20625000D02*
X-41636500Y-18200000D01*
X-43636500Y-46552500D02*
X-36759000Y-39675000D01*
X-42636500Y-24200000D02*
X-39061500Y-20625000D01*
X-41636500Y-17050000D02*
X-41636500Y-6452500D01*
X-36759000Y-39675000D02*
X-42636500Y-33797500D01*
X-41636500Y-18200000D02*
X-41636500Y-17050000D01*
%TD*%
M02*
