M48
; DRILL file {KiCad 8.0.6} date 2025-05-11T12:41:10+0900
; FORMAT={-:-/ absolute / inch / decimal}
; #@! TF.CreationDate,2025-05-11T12:41:10+09:00
; #@! TF.GenerationSoftware,Kicad,Pcbnew,8.0.6
; #@! TF.FileFunction,Plated,1,2,PTH
FMAT,2
INCH
; #@! TA.AperFunction,Plated,PTH,ComponentDrill
T1C0.0138
; #@! TA.AperFunction,Plated,PTH,ViaDrill
T2C0.0157
; #@! TA.AperFunction,Plated,PTH,ComponentDrill
T3C0.0315
; #@! TA.AperFunction,Plated,PTH,ComponentDrill
T4C0.0390
; #@! TA.AperFunction,Plated,PTH,ComponentDrill
T5C0.0394
; #@! TA.AperFunction,Plated,PTH,ComponentDrill
T6C0.0433
; #@! TA.AperFunction,Plated,PTH,ComponentDrill
T7C0.0472
; #@! TA.AperFunction,Plated,PTH,ComponentDrill
T8C0.0500
; #@! TA.AperFunction,Plated,PTH,ComponentDrill
T9C0.0591
%
G90
G05
T1
X-0.6742Y-1.5157
X-0.5403Y-1.5157
T2
X-7.5447Y-0.7165
X-7.0723Y-1.4646
X-6.1274Y-2.2126
X-5.3472Y-2.2588
X-4.5438Y-1.3493
X-3.6847Y-1.4329
X-1.8942Y-2.312
X-1.6392Y-0.6713
X-1.4347Y-1.4213
X-1.1597Y-1.3963
X-1.1347Y-1.4963
X-1.0097Y-1.4713
X-0.985Y-1.1713
X-0.9716Y-1.3213
X-0.9347Y-0.3213
T3
X-8.1972Y-0.062
X-8.1972Y-0.812
X-8.0097Y-3.062
X-7.8972Y-0.062
X-7.8972Y-0.812
X-7.8222Y-1.562
X-7.7097Y-3.062
X-7.6347Y-2.312
X-7.5222Y-1.562
X-7.4472Y-0.062
X-7.4472Y-0.812
X-7.3347Y-2.312
X-7.2597Y-3.062
X-7.2597Y-3.812
X-7.1472Y-0.062
X-7.1472Y-0.812
X-7.0722Y-1.562
X-6.9597Y-3.062
X-6.9597Y-3.812
X-6.8847Y-2.312
X-6.7722Y-1.562
X-6.6972Y-0.062
X-6.6972Y-0.812
X-6.5847Y-2.312
X-6.5097Y-3.062
X-6.3972Y-0.062
X-6.3972Y-0.812
X-6.3222Y-1.562
X-6.2097Y-3.062
X-6.1347Y-2.312
X-6.1347Y-3.812
X-6.0222Y-1.562
X-5.9472Y-0.062
X-5.9472Y-0.812
X-5.8347Y-2.312
X-5.8347Y-3.812
X-5.7597Y-3.062
X-5.6472Y-0.062
X-5.6472Y-0.812
X-5.5722Y-1.562
X-5.4597Y-3.062
X-5.3847Y-2.312
X-5.3847Y-3.812
X-5.2722Y-1.562
X-5.1972Y-0.062
X-5.1972Y-0.812
X-5.0847Y-2.312
X-5.0847Y-3.812
X-5.0097Y-3.062
X-4.8972Y-0.062
X-4.8972Y-0.812
X-4.8222Y-1.562
X-4.7097Y-3.062
X-4.6347Y-2.312
X-4.6347Y-3.812
X-4.5222Y-1.562
X-4.4472Y-0.062
X-4.4472Y-0.812
X-4.3347Y-2.312
X-4.3347Y-3.812
X-4.2597Y-3.062
X-4.1472Y-0.062
X-4.1472Y-0.812
X-4.0722Y-1.562
X-3.9597Y-3.062
X-3.8847Y-2.312
X-3.791Y-3.812
X-3.7722Y-1.562
X-3.6972Y-0.062
X-3.6972Y-0.812
X-3.5847Y-2.312
X-3.491Y-3.812
X-3.3972Y-0.062
X-3.3972Y-0.812
X-3.3222Y-1.562
X-3.2285Y-3.062
X-3.0222Y-1.562
X-2.9472Y-0.062
X-2.9472Y-3.812
X-2.9285Y-3.062
X-2.666Y-2.312
X-2.6472Y-0.062
X-2.6472Y-3.812
X-2.5722Y-0.812
X-2.3847Y-1.562
X-2.366Y-2.312
X-2.2722Y-0.812
X-2.1972Y-0.062
X-2.1972Y-3.062
X-2.1972Y-3.812
X-2.0847Y-1.562
X-1.8972Y-0.062
X-1.8972Y-3.062
X-1.8972Y-3.812
X-1.4472Y-0.062
X-1.4472Y-0.812
X-1.4472Y-1.562
X-1.4472Y-2.312
X-1.4472Y-3.062
X-1.4472Y-3.812
X-1.1472Y-0.062
X-1.1472Y-0.812
X-1.1472Y-1.562
X-1.1472Y-2.312
X-1.1472Y-3.062
X-1.1472Y-3.812
T4
X-8.2527Y-0.5404
X-8.2527Y-1.2904
X-8.0652Y-3.5404
X-7.8777Y-2.0404
X-7.8417Y-0.5404
X-7.8417Y-1.2904
X-7.6902Y-2.7904
X-7.6542Y-3.5404
X-7.5027Y-0.5404
X-7.5027Y-1.2904
X-7.4667Y-2.0404
X-7.3152Y-3.5404
X-7.3152Y-4.2904
X-7.2792Y-2.7904
X-7.1277Y-2.0404
X-7.0917Y-0.5404
X-7.0917Y-1.2904
X-6.9402Y-2.7904
X-6.9042Y-3.5404
X-6.9042Y-4.2904
X-6.7527Y-0.5404
X-6.7527Y-1.2904
X-6.7167Y-2.0404
X-6.5652Y-3.5404
X-6.5292Y-2.7904
X-6.3777Y-2.0404
X-6.3417Y-0.5404
X-6.3417Y-1.2904
X-6.1902Y-2.7904
X-6.1902Y-4.2904
X-6.1542Y-3.5404
X-6.0027Y-0.5404
X-6.0027Y-1.2904
X-5.9667Y-2.0404
X-5.8152Y-3.5404
X-5.7792Y-2.7904
X-5.7792Y-4.2904
X-5.6277Y-2.0404
X-5.5917Y-0.5404
X-5.5917Y-1.2904
X-5.4402Y-2.7904
X-5.4402Y-4.2904
X-5.4042Y-3.5404
X-5.2527Y-0.5404
X-5.2527Y-1.2904
X-5.2167Y-2.0404
X-5.0652Y-3.5404
X-5.0292Y-2.7904
X-5.0292Y-4.2904
X-4.8777Y-2.0404
X-4.8417Y-0.5404
X-4.8417Y-1.2904
X-4.6902Y-2.7904
X-4.6902Y-4.2904
X-4.6542Y-3.5404
X-4.5027Y-0.5404
X-4.5027Y-1.2904
X-4.4667Y-2.0404
X-4.3152Y-3.5404
X-4.2792Y-2.7904
X-4.2792Y-4.2904
X-4.1277Y-2.0404
X-4.0917Y-0.5404
X-4.0917Y-1.2904
X-3.9402Y-2.7904
X-3.9042Y-3.5404
X-3.8465Y-4.2904
X-3.7527Y-0.5404
X-3.7527Y-1.2904
X-3.7167Y-2.0404
X-3.5292Y-2.7904
X-3.4354Y-4.2904
X-3.3777Y-2.0404
X-3.3417Y-0.5404
X-3.3417Y-1.2904
X-3.284Y-3.5404
X-3.0027Y-0.5404
X-3.0027Y-4.2904
X-2.9667Y-2.0404
X-2.8729Y-3.5404
X-2.7215Y-2.7904
X-2.6277Y-1.2904
X-2.5917Y-0.5404
X-2.5917Y-4.2904
X-2.4402Y-2.0404
X-2.3104Y-2.7904
X-2.2527Y-0.5404
X-2.2527Y-3.5404
X-2.2527Y-4.2904
X-2.2167Y-1.2904
X-2.0292Y-2.0404
X-1.8417Y-0.5404
X-1.8417Y-3.5404
X-1.8417Y-4.2904
X-1.5027Y-0.5404
X-1.5027Y-1.2904
X-1.5027Y-2.0404
X-1.5027Y-2.7904
X-1.5027Y-3.5404
X-1.5027Y-4.2904
X-1.0917Y-0.5404
X-1.0917Y-1.2904
X-1.0917Y-2.0404
X-1.0917Y-2.7904
X-1.0917Y-3.5404
X-1.0917Y-4.2904
T5
X-0.5876Y-1.6339
X-0.3317Y-1.6339
T6
X-0.8222Y-0.1
X-0.8222Y-0.2
X-0.8222Y-0.3
X-0.8222Y-0.4
X-0.8222Y-0.5
X-0.8222Y-0.6
X-0.8222Y-0.7
X-0.8222Y-0.8
X-0.8222Y-0.9
X-0.8222Y-1.0
X-0.8222Y-1.1
X-0.8222Y-1.2
X-0.8222Y-1.3
X-0.7622Y-0.15
X-0.7622Y-0.25
X-0.7622Y-0.35
X-0.7622Y-0.45
X-0.7622Y-0.55
X-0.7622Y-0.65
X-0.7622Y-0.75
X-0.7622Y-0.85
X-0.7622Y-0.95
X-0.7622Y-1.05
X-0.7622Y-1.15
X-0.7622Y-1.25
X-0.7622Y-1.35
X-0.2222Y-0.1
X-0.2222Y-0.2
X-0.2222Y-0.3
X-0.2222Y-0.4
X-0.2222Y-0.5
X-0.2222Y-0.6
X-0.2222Y-0.7
X-0.2222Y-0.8
X-0.2222Y-0.9
X-0.2222Y-1.0
X-0.2222Y-1.1
X-0.2222Y-1.2
X-0.2222Y-1.3
X-0.1622Y-0.15
X-0.1622Y-0.25
X-0.1622Y-0.35
X-0.1622Y-0.45
X-0.1622Y-0.55
X-0.1622Y-0.65
X-0.1622Y-0.75
X-0.1622Y-0.85
X-0.1622Y-0.95
X-0.1622Y-1.05
X-0.1622Y-1.15
X-0.1622Y-1.25
X-0.1622Y-1.35
T7
X-8.1968Y-0.5246
X-8.1968Y-1.2746
X-8.0472Y-0.6309
X-8.0472Y-1.3809
X-8.0093Y-3.5246
X-7.8976Y-0.5246
X-7.8976Y-1.2746
X-7.8597Y-3.6309
X-7.8218Y-2.0246
X-7.7101Y-3.5246
X-7.6722Y-2.1309
X-7.6343Y-2.7746
X-7.5226Y-2.0246
X-7.4847Y-2.8809
X-7.4468Y-0.5246
X-7.4468Y-1.2746
X-7.3351Y-2.7746
X-7.2972Y-0.6309
X-7.2972Y-1.3809
X-7.2593Y-3.5246
X-7.2593Y-4.2746
X-7.1476Y-0.5246
X-7.1476Y-1.2746
X-7.1097Y-3.6309
X-7.1097Y-4.3809
X-7.0718Y-2.0246
X-6.9601Y-3.5246
X-6.9601Y-4.2746
X-6.9222Y-2.1309
X-6.8843Y-2.7746
X-6.7726Y-2.0246
X-6.7347Y-2.8809
X-6.6968Y-0.5246
X-6.6968Y-1.2746
X-6.5851Y-2.7746
X-6.5472Y-0.6309
X-6.5472Y-1.3809
X-6.5093Y-3.5246
X-6.3976Y-0.5246
X-6.3976Y-1.2746
X-6.3597Y-3.6309
X-6.3218Y-2.0246
X-6.2101Y-3.5246
X-6.1722Y-2.1309
X-6.1343Y-2.7746
X-6.1343Y-4.2746
X-6.0226Y-2.0246
X-5.9847Y-2.8809
X-5.9847Y-4.3809
X-5.9468Y-0.5246
X-5.9468Y-1.2746
X-5.8351Y-2.7746
X-5.8351Y-4.2746
X-5.7972Y-0.6309
X-5.7972Y-1.3809
X-5.7593Y-3.5246
X-5.6476Y-0.5246
X-5.6476Y-1.2746
X-5.6097Y-3.6309
X-5.5718Y-2.0246
X-5.4601Y-3.5246
X-5.4222Y-2.1309
X-5.3843Y-2.7746
X-5.3843Y-4.2746
X-5.2726Y-2.0246
X-5.2347Y-2.8809
X-5.2347Y-4.3809
X-5.1968Y-0.5246
X-5.1968Y-1.2746
X-5.0851Y-2.7746
X-5.0851Y-4.2746
X-5.0472Y-0.6309
X-5.0472Y-1.3809
X-5.0093Y-3.5246
X-4.8976Y-0.5246
X-4.8976Y-1.2746
X-4.8597Y-3.6309
X-4.8218Y-2.0246
X-4.7101Y-3.5246
X-4.6722Y-2.1309
X-4.6343Y-2.7746
X-4.6343Y-4.2746
X-4.5226Y-2.0246
X-4.4847Y-2.8809
X-4.4847Y-4.3809
X-4.4468Y-0.5246
X-4.4468Y-1.2746
X-4.3351Y-2.7746
X-4.3351Y-4.2746
X-4.2972Y-0.6309
X-4.2972Y-1.3809
X-4.2593Y-3.5246
X-4.1476Y-0.5246
X-4.1476Y-1.2746
X-4.1097Y-3.6309
X-4.0718Y-2.0246
X-3.9601Y-3.5246
X-3.9222Y-2.1309
X-3.8843Y-2.7746
X-3.7906Y-4.2746
X-3.7726Y-2.0246
X-3.7347Y-2.8809
X-3.6968Y-0.5246
X-3.6968Y-1.2746
X-3.641Y-4.3809
X-3.5851Y-2.7746
X-3.5472Y-0.6309
X-3.5472Y-1.3809
X-3.4913Y-4.2746
X-3.3976Y-0.5246
X-3.3976Y-1.2746
X-3.3218Y-2.0246
X-3.2281Y-3.5246
X-3.1722Y-2.1309
X-3.0785Y-3.6309
X-3.0226Y-2.0246
X-2.9468Y-0.5246
X-2.9468Y-4.2746
X-2.9288Y-3.5246
X-2.7972Y-0.6309
X-2.7972Y-4.3809
X-2.6656Y-2.7746
X-2.6476Y-0.5246
X-2.6476Y-4.2746
X-2.5718Y-1.2746
X-2.516Y-2.8809
X-2.4222Y-1.3809
X-2.3843Y-2.0246
X-2.3663Y-2.7746
X-2.2726Y-1.2746
X-2.2347Y-2.1309
X-2.1968Y-0.5246
X-2.1968Y-3.5246
X-2.1968Y-4.2746
X-2.0851Y-2.0246
X-2.0472Y-0.6309
X-2.0472Y-3.6309
X-2.0472Y-4.3809
X-1.8976Y-0.5246
X-1.8976Y-3.5246
X-1.8976Y-4.2746
X-1.4468Y-0.5246
X-1.4468Y-1.2746
X-1.4468Y-2.0246
X-1.4468Y-2.7746
X-1.4468Y-3.5246
X-1.4468Y-4.2746
X-1.2972Y-0.6309
X-1.2972Y-1.3809
X-1.2972Y-2.1309
X-1.2972Y-2.8809
X-1.2972Y-3.6309
X-1.2972Y-4.3809
X-1.1476Y-0.5246
X-1.1476Y-1.2746
X-1.1476Y-2.0246
X-1.1476Y-2.7746
X-1.1476Y-3.5246
X-1.1476Y-4.2746
T8
X-8.2441Y-0.2254
X-8.2441Y-0.9754
X-8.0566Y-3.2254
X-8.0472Y-0.1427
X-8.0472Y-0.8927
X-7.8691Y-1.7254
X-7.8597Y-3.1427
X-7.8504Y-0.2254
X-7.8504Y-0.9754
X-7.6816Y-2.4754
X-7.6722Y-1.6427
X-7.6629Y-3.2254
X-7.4941Y-0.2254
X-7.4941Y-0.9754
X-7.4847Y-2.3927
X-7.4754Y-1.7254
X-7.3066Y-3.2254
X-7.3066Y-3.9754
X-7.2972Y-0.1427
X-7.2972Y-0.8927
X-7.2879Y-2.4754
X-7.1191Y-1.7254
X-7.1097Y-3.1427
X-7.1097Y-3.8927
X-7.1004Y-0.2254
X-7.1004Y-0.9754
X-6.9316Y-2.4754
X-6.9222Y-1.6427
X-6.9129Y-3.2254
X-6.9129Y-3.9754
X-6.7441Y-0.2254
X-6.7441Y-0.9754
X-6.7347Y-2.3927
X-6.7254Y-1.7254
X-6.5566Y-3.2254
X-6.5472Y-0.1427
X-6.5472Y-0.8927
X-6.5379Y-2.4754
X-6.3691Y-1.7254
X-6.3597Y-3.1427
X-6.3504Y-0.2254
X-6.3504Y-0.9754
X-6.1816Y-2.4754
X-6.1816Y-3.9754
X-6.1722Y-1.6427
X-6.1629Y-3.2254
X-5.9941Y-0.2254
X-5.9941Y-0.9754
X-5.9847Y-2.3927
X-5.9847Y-3.8927
X-5.9754Y-1.7254
X-5.8066Y-3.2254
X-5.7972Y-0.1427
X-5.7972Y-0.8927
X-5.7879Y-2.4754
X-5.7879Y-3.9754
X-5.6191Y-1.7254
X-5.6097Y-3.1427
X-5.6004Y-0.2254
X-5.6004Y-0.9754
X-5.4316Y-2.4754
X-5.4316Y-3.9754
X-5.4222Y-1.6427
X-5.4129Y-3.2254
X-5.2441Y-0.2254
X-5.2441Y-0.9754
X-5.2347Y-2.3927
X-5.2347Y-3.8927
X-5.2254Y-1.7254
X-5.0566Y-3.2254
X-5.0472Y-0.1427
X-5.0472Y-0.8927
X-5.0379Y-2.4754
X-5.0379Y-3.9754
X-4.8691Y-1.7254
X-4.8597Y-3.1427
X-4.8504Y-0.2254
X-4.8504Y-0.9754
X-4.6816Y-2.4754
X-4.6816Y-3.9754
X-4.6722Y-1.6427
X-4.6629Y-3.2254
X-4.4941Y-0.2254
X-4.4941Y-0.9754
X-4.4847Y-2.3927
X-4.4847Y-3.8927
X-4.4754Y-1.7254
X-4.3066Y-3.2254
X-4.2972Y-0.1427
X-4.2972Y-0.8927
X-4.2879Y-2.4754
X-4.2879Y-3.9754
X-4.1191Y-1.7254
X-4.1097Y-3.1427
X-4.1004Y-0.2254
X-4.1004Y-0.9754
X-3.9316Y-2.4754
X-3.9222Y-1.6427
X-3.9129Y-3.2254
X-3.8378Y-3.9754
X-3.7441Y-0.2254
X-3.7441Y-0.9754
X-3.7347Y-2.3927
X-3.7254Y-1.7254
X-3.641Y-3.8927
X-3.5472Y-0.1427
X-3.5472Y-0.8927
X-3.5379Y-2.4754
X-3.4441Y-3.9754
X-3.3691Y-1.7254
X-3.3504Y-0.2254
X-3.3504Y-0.9754
X-3.2753Y-3.2254
X-3.1722Y-1.6427
X-3.0785Y-3.1427
X-2.9941Y-0.2254
X-2.9941Y-3.9754
X-2.9754Y-1.7254
X-2.8816Y-3.2254
X-2.7972Y-0.1427
X-2.7972Y-3.8927
X-2.7128Y-2.4754
X-2.6191Y-0.9754
X-2.6004Y-0.2254
X-2.6004Y-3.9754
X-2.516Y-2.3927
X-2.4316Y-1.7254
X-2.4222Y-0.8927
X-2.3191Y-2.4754
X-2.2441Y-0.2254
X-2.2441Y-3.2254
X-2.2441Y-3.9754
X-2.2347Y-1.6427
X-2.2254Y-0.9754
X-2.0472Y-0.1427
X-2.0472Y-3.1427
X-2.0472Y-3.8927
X-2.0379Y-1.7254
X-1.8504Y-0.2254
X-1.8504Y-3.2254
X-1.8504Y-3.9754
X-1.4941Y-0.2254
X-1.4941Y-0.9754
X-1.4941Y-1.7254
X-1.4941Y-2.4754
X-1.4941Y-3.2254
X-1.4941Y-3.9754
X-1.2972Y-0.1427
X-1.2972Y-0.8927
X-1.2972Y-1.6427
X-1.2972Y-2.3927
X-1.2972Y-3.1427
X-1.2972Y-3.8927
X-1.1004Y-0.2254
X-1.1004Y-0.9754
X-1.1004Y-1.7254
X-1.1004Y-2.4754
X-1.1004Y-3.2254
X-1.1004Y-3.9754
T9
X-8.1972Y-0.275
X-8.1972Y-1.025
X-8.1472Y-0.175
X-8.1472Y-0.925
X-8.0097Y-3.275
X-7.9597Y-3.175
X-7.9472Y-0.175
X-7.9472Y-0.925
X-7.8972Y-0.275
X-7.8972Y-1.025
X-7.8222Y-1.775
X-7.7722Y-1.675
X-7.7597Y-3.175
X-7.7097Y-3.275
X-7.6347Y-2.525
X-7.5847Y-2.425
X-7.5722Y-1.675
X-7.5222Y-1.775
X-7.4472Y-0.275
X-7.4472Y-1.025
X-7.3972Y-0.175
X-7.3972Y-0.925
X-7.3847Y-2.425
X-7.3347Y-2.525
X-7.2597Y-3.275
X-7.2597Y-4.025
X-7.2097Y-3.175
X-7.2097Y-3.925
X-7.1972Y-0.175
X-7.1972Y-0.925
X-7.1472Y-0.275
X-7.1472Y-1.025
X-7.0722Y-1.775
X-7.0222Y-1.675
X-7.0097Y-3.175
X-7.0097Y-3.925
X-6.9597Y-3.275
X-6.9597Y-4.025
X-6.8847Y-2.525
X-6.8347Y-2.425
X-6.8222Y-1.675
X-6.7722Y-1.775
X-6.6972Y-0.275
X-6.6972Y-1.025
X-6.6472Y-0.175
X-6.6472Y-0.925
X-6.6347Y-2.425
X-6.5847Y-2.525
X-6.5097Y-3.275
X-6.4597Y-3.175
X-6.4472Y-0.175
X-6.4472Y-0.925
X-6.3972Y-0.275
X-6.3972Y-1.025
X-6.3222Y-1.775
X-6.2722Y-1.675
X-6.2597Y-3.175
X-6.2097Y-3.275
X-6.1347Y-2.525
X-6.1347Y-4.025
X-6.0847Y-2.425
X-6.0847Y-3.925
X-6.0722Y-1.675
X-6.0222Y-1.775
X-5.9472Y-0.275
X-5.9472Y-1.025
X-5.8972Y-0.175
X-5.8972Y-0.925
X-5.8847Y-2.425
X-5.8847Y-3.925
X-5.8347Y-2.525
X-5.8347Y-4.025
X-5.7597Y-3.275
X-5.7097Y-3.175
X-5.6972Y-0.175
X-5.6972Y-0.925
X-5.6472Y-0.275
X-5.6472Y-1.025
X-5.5722Y-1.775
X-5.5222Y-1.675
X-5.5097Y-3.175
X-5.4597Y-3.275
X-5.3847Y-2.525
X-5.3847Y-4.025
X-5.3347Y-2.425
X-5.3347Y-3.925
X-5.3222Y-1.675
X-5.2722Y-1.775
X-5.1972Y-0.275
X-5.1972Y-1.025
X-5.1472Y-0.175
X-5.1472Y-0.925
X-5.1347Y-2.425
X-5.1347Y-3.925
X-5.0847Y-2.525
X-5.0847Y-4.025
X-5.0097Y-3.275
X-4.9597Y-3.175
X-4.9472Y-0.175
X-4.9472Y-0.925
X-4.8972Y-0.275
X-4.8972Y-1.025
X-4.8222Y-1.775
X-4.7722Y-1.675
X-4.7597Y-3.175
X-4.7097Y-3.275
X-4.6347Y-2.525
X-4.6347Y-4.025
X-4.5847Y-2.425
X-4.5847Y-3.925
X-4.5722Y-1.675
X-4.5222Y-1.775
X-4.4472Y-0.275
X-4.4472Y-1.025
X-4.3972Y-0.175
X-4.3972Y-0.925
X-4.3847Y-2.425
X-4.3847Y-3.925
X-4.3347Y-2.525
X-4.3347Y-4.025
X-4.2597Y-3.275
X-4.2097Y-3.175
X-4.1972Y-0.175
X-4.1972Y-0.925
X-4.1472Y-0.275
X-4.1472Y-1.025
X-4.0722Y-1.775
X-4.0222Y-1.675
X-4.0097Y-3.175
X-3.9597Y-3.275
X-3.8847Y-2.525
X-3.8347Y-2.425
X-3.8222Y-1.675
X-3.791Y-4.025
X-3.7722Y-1.775
X-3.741Y-3.925
X-3.6972Y-0.275
X-3.6972Y-1.025
X-3.6472Y-0.175
X-3.6472Y-0.925
X-3.6347Y-2.425
X-3.5847Y-2.525
X-3.541Y-3.925
X-3.491Y-4.025
X-3.4472Y-0.175
X-3.4472Y-0.925
X-3.3972Y-0.275
X-3.3972Y-1.025
X-3.3222Y-1.775
X-3.2722Y-1.675
X-3.2285Y-3.275
X-3.1785Y-3.175
X-3.0722Y-1.675
X-3.0222Y-1.775
X-2.9785Y-3.175
X-2.9472Y-0.275
X-2.9472Y-4.025
X-2.9285Y-3.275
X-2.8972Y-0.175
X-2.8972Y-3.925
X-2.6972Y-0.175
X-2.6972Y-3.925
X-2.666Y-2.525
X-2.6472Y-0.275
X-2.6472Y-4.025
X-2.616Y-2.425
X-2.5722Y-1.025
X-2.5222Y-0.925
X-2.416Y-2.425
X-2.3847Y-1.775
X-2.366Y-2.525
X-2.3347Y-1.675
X-2.3222Y-0.925
X-2.2722Y-1.025
X-2.1972Y-0.275
X-2.1972Y-3.275
X-2.1972Y-4.025
X-2.1472Y-0.175
X-2.1472Y-3.175
X-2.1472Y-3.925
X-2.1347Y-1.675
X-2.0847Y-1.775
X-1.9472Y-0.175
X-1.9472Y-3.175
X-1.9472Y-3.925
X-1.8972Y-0.275
X-1.8972Y-3.275
X-1.8972Y-4.025
X-1.4472Y-0.275
X-1.4472Y-1.025
X-1.4472Y-1.775
X-1.4472Y-2.525
X-1.4472Y-3.275
X-1.4472Y-4.025
X-1.3972Y-0.175
X-1.3972Y-0.925
X-1.3972Y-1.675
X-1.3972Y-2.425
X-1.3972Y-3.175
X-1.3972Y-3.925
X-1.1972Y-0.175
X-1.1972Y-0.925
X-1.1972Y-1.675
X-1.1972Y-2.425
X-1.1972Y-3.175
X-1.1972Y-3.925
X-1.1472Y-0.275
X-1.1472Y-1.025
X-1.1472Y-1.775
X-1.1472Y-2.525
X-1.1472Y-3.275
X-1.1472Y-4.025
M30
