%TF.GenerationSoftware,KiCad,Pcbnew,8.0.6*%
%TF.CreationDate,2025-05-11T12:41:03+09:00*%
%TF.ProjectId,65_split_right,36355f73-706c-4697-945f-72696768742e,rev?*%
%TF.SameCoordinates,PXf7b735cPY2136a30*%
%TF.FileFunction,Copper,L1,Top*%
%TF.FilePolarity,Positive*%
%FSLAX46Y46*%
G04 Gerber Fmt 4.6, Leading zero omitted, Abs format (unit mm)*
G04 Created by KiCad (PCBNEW 8.0.6) date 2025-05-11 12:41:03*
%MOMM*%
%LPD*%
G01*
G04 APERTURE LIST*
G04 Aperture macros list*
%AMRoundRect*
0 Rectangle with rounded corners*
0 $1 Rounding radius*
0 $2 $3 $4 $5 $6 $7 $8 $9 X,Y pos of 4 corners*
0 Add a 4 corners polygon primitive as box body*
4,1,4,$2,$3,$4,$5,$6,$7,$8,$9,$2,$3,0*
0 Add four circle primitives for the rounded corners*
1,1,$1+$1,$2,$3*
1,1,$1+$1,$4,$5*
1,1,$1+$1,$6,$7*
1,1,$1+$1,$8,$9*
0 Add four rect primitives between the rounded corners*
20,1,$1+$1,$2,$3,$4,$5,0*
20,1,$1+$1,$4,$5,$6,$7,0*
20,1,$1+$1,$6,$7,$8,$9,0*
20,1,$1+$1,$8,$9,$2,$3,0*%
G04 Aperture macros list end*
%ADD10C,0.100000*%
%ADD11C,0.150000*%
%ADD12C,0.300000*%
%ADD13C,0.400000*%
%TA.AperFunction,ComponentPad*%
%ADD14C,2.200000*%
%TD*%
%TA.AperFunction,SMDPad,CuDef*%
%ADD15RoundRect,0.041667X0.621050X0.110920X0.568595X0.273325X-0.621050X-0.110920X-0.568595X-0.273325X0*%
%TD*%
%TA.AperFunction,ComponentPad*%
%ADD16C,1.970000*%
%TD*%
%TA.AperFunction,ComponentPad*%
%ADD17C,1.900000*%
%TD*%
%TA.AperFunction,SMDPad,CuDef*%
%ADD18RoundRect,0.041667X0.568595X-0.273325X0.621050X-0.110920X-0.568595X0.273325X-0.621050X0.110920X0*%
%TD*%
%TA.AperFunction,ComponentPad*%
%ADD19R,1.600000X1.600000*%
%TD*%
%TA.AperFunction,SMDPad,CuDef*%
%ADD20RoundRect,0.041667X-0.625080X0.085333X-0.625080X-0.085333X0.625080X-0.085333X0.625080X0.085333X0*%
%TD*%
%TA.AperFunction,SMDPad,CuDef*%
%ADD21RoundRect,0.225000X-0.225000X-0.375000X0.225000X-0.375000X0.225000X0.375000X-0.225000X0.375000X0*%
%TD*%
%TA.AperFunction,ComponentPad*%
%ADD22C,1.400000*%
%TD*%
%TA.AperFunction,SMDPad,CuDef*%
%ADD23RoundRect,0.127000X0.253137X-0.253151X0.253151X-0.253137X-0.253137X0.253151X-0.253151X0.253137X0*%
%TD*%
%TA.AperFunction,SMDPad,CuDef*%
%ADD24RoundRect,0.127000X0.253151X0.253137X0.253137X0.253151X-0.253151X-0.253137X-0.253137X-0.253151X0*%
%TD*%
%TA.AperFunction,SMDPad,CuDef*%
%ADD25RoundRect,0.126999X-0.000010X-1.765555X0.000010X-1.765555X0.000010X1.765555X-0.000010X1.765555X0*%
%TD*%
%TA.AperFunction,SMDPad,CuDef*%
%ADD26RoundRect,0.041667X3.006331X-0.085333X3.006331X0.085333X-3.006331X0.085333X-3.006331X-0.085333X0*%
%TD*%
%TA.AperFunction,SMDPad,CuDef*%
%ADD27RoundRect,0.127000X-0.253151X-0.253137X-0.253137X-0.253151X0.253151X0.253137X0.253137X0.253151X0*%
%TD*%
%TA.AperFunction,SMDPad,CuDef*%
%ADD28RoundRect,0.127000X-0.253137X0.253151X-0.253151X0.253137X0.253137X-0.253151X0.253151X-0.253137X0*%
%TD*%
%TA.AperFunction,ComponentPad*%
%ADD29O,1.600000X1.600000*%
%TD*%
%TA.AperFunction,SMDPad,CuDef*%
%ADD30RoundRect,0.127000X0.702150X-0.702164X0.702164X-0.702150X-0.702150X0.702164X-0.702164X0.702150X0*%
%TD*%
%TA.AperFunction,SMDPad,CuDef*%
%ADD31RoundRect,0.127000X0.000010X1.223024X-0.000010X1.223024X-0.000010X-1.223024X0.000010X-1.223024X0*%
%TD*%
%TA.AperFunction,ComponentPad*%
%ADD32C,1.600000*%
%TD*%
%TA.AperFunction,SMDPad,CuDef*%
%ADD33RoundRect,0.127000X-0.550136X-0.550122X-0.550122X-0.550136X0.550136X0.550122X0.550122X0.550136X0*%
%TD*%
%TA.AperFunction,SMDPad,CuDef*%
%ADD34RoundRect,0.127000X-6.144000X0.000010X-6.144000X-0.000010X6.144000X-0.000010X6.144000X0.000010X0*%
%TD*%
%TA.AperFunction,ComponentPad*%
%ADD35C,2.000000*%
%TD*%
%TA.AperFunction,SMDPad,CuDef*%
%ADD36RoundRect,0.170000X0.170000X0.780000X-0.170000X0.780000X-0.170000X-0.780000X0.170000X-0.780000X0*%
%TD*%
%TA.AperFunction,ComponentPad*%
%ADD37C,0.700000*%
%TD*%
%TA.AperFunction,ViaPad*%
%ADD38C,0.800000*%
%TD*%
%TA.AperFunction,Conductor*%
%ADD39C,0.300000*%
%TD*%
%TA.AperFunction,Conductor*%
%ADD40C,0.250000*%
%TD*%
G04 APERTURE END LIST*
D10*
D11*
X-82746500Y-131180400D02*
X25253500Y-131180400D01*
X25253500Y-163180400D01*
X-82746500Y-163180400D01*
X-82746500Y-131180400D01*
D10*
D11*
X-249748700Y24826800D02*
X27253500Y24826800D01*
X27253500Y-165180400D01*
X-249748700Y-165180400D01*
X-249748700Y24826800D01*
D10*
D11*
X-247748700Y22826800D02*
X25253500Y22826800D01*
X25253500Y-163180400D01*
X-247748700Y-163180400D01*
X-247748700Y22826800D01*
D10*
D11*
X-199748700Y22826800D02*
X-199748700Y24826800D01*
D10*
D11*
X-149748700Y22826800D02*
X-149748700Y24826800D01*
D10*
D11*
X-99748700Y22826800D02*
X-99748700Y24826800D01*
D10*
D11*
X-49748700Y22826800D02*
X-49748700Y24826800D01*
D10*
D11*
X251300Y22826800D02*
X251300Y24826800D01*
D10*
D11*
X-223659540Y23233196D02*
X-224402397Y23233196D01*
X-224030969Y23233196D02*
X-224030969Y24533196D01*
X-224030969Y24533196D02*
X-224154778Y24347481D01*
X-224154778Y24347481D02*
X-224278588Y24223672D01*
X-224278588Y24223672D02*
X-224402397Y24161767D01*
D10*
D11*
X-174402397Y24409386D02*
X-174340493Y24471291D01*
X-174340493Y24471291D02*
X-174216683Y24533196D01*
X-174216683Y24533196D02*
X-173907159Y24533196D01*
X-173907159Y24533196D02*
X-173783350Y24471291D01*
X-173783350Y24471291D02*
X-173721445Y24409386D01*
X-173721445Y24409386D02*
X-173659540Y24285577D01*
X-173659540Y24285577D02*
X-173659540Y24161767D01*
X-173659540Y24161767D02*
X-173721445Y23976053D01*
X-173721445Y23976053D02*
X-174464302Y23233196D01*
X-174464302Y23233196D02*
X-173659540Y23233196D01*
D10*
D11*
X-124464302Y24533196D02*
X-123659540Y24533196D01*
X-123659540Y24533196D02*
X-124092874Y24037958D01*
X-124092874Y24037958D02*
X-123907159Y24037958D01*
X-123907159Y24037958D02*
X-123783350Y23976053D01*
X-123783350Y23976053D02*
X-123721445Y23914148D01*
X-123721445Y23914148D02*
X-123659540Y23790339D01*
X-123659540Y23790339D02*
X-123659540Y23480815D01*
X-123659540Y23480815D02*
X-123721445Y23357005D01*
X-123721445Y23357005D02*
X-123783350Y23295100D01*
X-123783350Y23295100D02*
X-123907159Y23233196D01*
X-123907159Y23233196D02*
X-124278588Y23233196D01*
X-124278588Y23233196D02*
X-124402397Y23295100D01*
X-124402397Y23295100D02*
X-124464302Y23357005D01*
D10*
D11*
X-73783350Y24099862D02*
X-73783350Y23233196D01*
X-74092874Y24595100D02*
X-74402397Y23666529D01*
X-74402397Y23666529D02*
X-73597636Y23666529D01*
D10*
D11*
X-23721445Y24533196D02*
X-24340493Y24533196D01*
X-24340493Y24533196D02*
X-24402397Y23914148D01*
X-24402397Y23914148D02*
X-24340493Y23976053D01*
X-24340493Y23976053D02*
X-24216683Y24037958D01*
X-24216683Y24037958D02*
X-23907159Y24037958D01*
X-23907159Y24037958D02*
X-23783350Y23976053D01*
X-23783350Y23976053D02*
X-23721445Y23914148D01*
X-23721445Y23914148D02*
X-23659540Y23790339D01*
X-23659540Y23790339D02*
X-23659540Y23480815D01*
X-23659540Y23480815D02*
X-23721445Y23357005D01*
X-23721445Y23357005D02*
X-23783350Y23295100D01*
X-23783350Y23295100D02*
X-23907159Y23233196D01*
X-23907159Y23233196D02*
X-24216683Y23233196D01*
X-24216683Y23233196D02*
X-24340493Y23295100D01*
X-24340493Y23295100D02*
X-24402397Y23357005D01*
D10*
D11*
X26216650Y24533196D02*
X25969031Y24533196D01*
X25969031Y24533196D02*
X25845222Y24471291D01*
X25845222Y24471291D02*
X25783317Y24409386D01*
X25783317Y24409386D02*
X25659507Y24223672D01*
X25659507Y24223672D02*
X25597603Y23976053D01*
X25597603Y23976053D02*
X25597603Y23480815D01*
X25597603Y23480815D02*
X25659507Y23357005D01*
X25659507Y23357005D02*
X25721412Y23295100D01*
X25721412Y23295100D02*
X25845222Y23233196D01*
X25845222Y23233196D02*
X26092841Y23233196D01*
X26092841Y23233196D02*
X26216650Y23295100D01*
X26216650Y23295100D02*
X26278555Y23357005D01*
X26278555Y23357005D02*
X26340460Y23480815D01*
X26340460Y23480815D02*
X26340460Y23790339D01*
X26340460Y23790339D02*
X26278555Y23914148D01*
X26278555Y23914148D02*
X26216650Y23976053D01*
X26216650Y23976053D02*
X26092841Y24037958D01*
X26092841Y24037958D02*
X25845222Y24037958D01*
X25845222Y24037958D02*
X25721412Y23976053D01*
X25721412Y23976053D02*
X25659507Y23914148D01*
X25659507Y23914148D02*
X25597603Y23790339D01*
D10*
D11*
X-199748700Y-163180400D02*
X-199748700Y-165180400D01*
D10*
D11*
X-149748700Y-163180400D02*
X-149748700Y-165180400D01*
D10*
D11*
X-99748700Y-163180400D02*
X-99748700Y-165180400D01*
D10*
D11*
X-49748700Y-163180400D02*
X-49748700Y-165180400D01*
D10*
D11*
X251300Y-163180400D02*
X251300Y-165180400D01*
D10*
D11*
X-223659540Y-164774004D02*
X-224402397Y-164774004D01*
X-224030969Y-164774004D02*
X-224030969Y-163474004D01*
X-224030969Y-163474004D02*
X-224154778Y-163659719D01*
X-224154778Y-163659719D02*
X-224278588Y-163783528D01*
X-224278588Y-163783528D02*
X-224402397Y-163845433D01*
D10*
D11*
X-174402397Y-163597814D02*
X-174340493Y-163535909D01*
X-174340493Y-163535909D02*
X-174216683Y-163474004D01*
X-174216683Y-163474004D02*
X-173907159Y-163474004D01*
X-173907159Y-163474004D02*
X-173783350Y-163535909D01*
X-173783350Y-163535909D02*
X-173721445Y-163597814D01*
X-173721445Y-163597814D02*
X-173659540Y-163721623D01*
X-173659540Y-163721623D02*
X-173659540Y-163845433D01*
X-173659540Y-163845433D02*
X-173721445Y-164031147D01*
X-173721445Y-164031147D02*
X-174464302Y-164774004D01*
X-174464302Y-164774004D02*
X-173659540Y-164774004D01*
D10*
D11*
X-124464302Y-163474004D02*
X-123659540Y-163474004D01*
X-123659540Y-163474004D02*
X-124092874Y-163969242D01*
X-124092874Y-163969242D02*
X-123907159Y-163969242D01*
X-123907159Y-163969242D02*
X-123783350Y-164031147D01*
X-123783350Y-164031147D02*
X-123721445Y-164093052D01*
X-123721445Y-164093052D02*
X-123659540Y-164216861D01*
X-123659540Y-164216861D02*
X-123659540Y-164526385D01*
X-123659540Y-164526385D02*
X-123721445Y-164650195D01*
X-123721445Y-164650195D02*
X-123783350Y-164712100D01*
X-123783350Y-164712100D02*
X-123907159Y-164774004D01*
X-123907159Y-164774004D02*
X-124278588Y-164774004D01*
X-124278588Y-164774004D02*
X-124402397Y-164712100D01*
X-124402397Y-164712100D02*
X-124464302Y-164650195D01*
D10*
D11*
X-73783350Y-163907338D02*
X-73783350Y-164774004D01*
X-74092874Y-163412100D02*
X-74402397Y-164340671D01*
X-74402397Y-164340671D02*
X-73597636Y-164340671D01*
D10*
D11*
X-23721445Y-163474004D02*
X-24340493Y-163474004D01*
X-24340493Y-163474004D02*
X-24402397Y-164093052D01*
X-24402397Y-164093052D02*
X-24340493Y-164031147D01*
X-24340493Y-164031147D02*
X-24216683Y-163969242D01*
X-24216683Y-163969242D02*
X-23907159Y-163969242D01*
X-23907159Y-163969242D02*
X-23783350Y-164031147D01*
X-23783350Y-164031147D02*
X-23721445Y-164093052D01*
X-23721445Y-164093052D02*
X-23659540Y-164216861D01*
X-23659540Y-164216861D02*
X-23659540Y-164526385D01*
X-23659540Y-164526385D02*
X-23721445Y-164650195D01*
X-23721445Y-164650195D02*
X-23783350Y-164712100D01*
X-23783350Y-164712100D02*
X-23907159Y-164774004D01*
X-23907159Y-164774004D02*
X-24216683Y-164774004D01*
X-24216683Y-164774004D02*
X-24340493Y-164712100D01*
X-24340493Y-164712100D02*
X-24402397Y-164650195D01*
D10*
D11*
X26216650Y-163474004D02*
X25969031Y-163474004D01*
X25969031Y-163474004D02*
X25845222Y-163535909D01*
X25845222Y-163535909D02*
X25783317Y-163597814D01*
X25783317Y-163597814D02*
X25659507Y-163783528D01*
X25659507Y-163783528D02*
X25597603Y-164031147D01*
X25597603Y-164031147D02*
X25597603Y-164526385D01*
X25597603Y-164526385D02*
X25659507Y-164650195D01*
X25659507Y-164650195D02*
X25721412Y-164712100D01*
X25721412Y-164712100D02*
X25845222Y-164774004D01*
X25845222Y-164774004D02*
X26092841Y-164774004D01*
X26092841Y-164774004D02*
X26216650Y-164712100D01*
X26216650Y-164712100D02*
X26278555Y-164650195D01*
X26278555Y-164650195D02*
X26340460Y-164526385D01*
X26340460Y-164526385D02*
X26340460Y-164216861D01*
X26340460Y-164216861D02*
X26278555Y-164093052D01*
X26278555Y-164093052D02*
X26216650Y-164031147D01*
X26216650Y-164031147D02*
X26092841Y-163969242D01*
X26092841Y-163969242D02*
X25845222Y-163969242D01*
X25845222Y-163969242D02*
X25721412Y-164031147D01*
X25721412Y-164031147D02*
X25659507Y-164093052D01*
X25659507Y-164093052D02*
X25597603Y-164216861D01*
D10*
D11*
X-249748700Y-25173200D02*
X-247748700Y-25173200D01*
D10*
D11*
X-249748700Y-75173200D02*
X-247748700Y-75173200D01*
D10*
D11*
X-249748700Y-125173200D02*
X-247748700Y-125173200D01*
D10*
D11*
X-249058224Y-395376D02*
X-248439177Y-395376D01*
X-249182034Y-766804D02*
X-248748701Y533196D01*
X-248748701Y533196D02*
X-248315367Y-766804D01*
D10*
D11*
X-248655843Y-50085852D02*
X-248470129Y-50147757D01*
X-248470129Y-50147757D02*
X-248408224Y-50209661D01*
X-248408224Y-50209661D02*
X-248346320Y-50333471D01*
X-248346320Y-50333471D02*
X-248346320Y-50519185D01*
X-248346320Y-50519185D02*
X-248408224Y-50642995D01*
X-248408224Y-50642995D02*
X-248470129Y-50704900D01*
X-248470129Y-50704900D02*
X-248593939Y-50766804D01*
X-248593939Y-50766804D02*
X-249089177Y-50766804D01*
X-249089177Y-50766804D02*
X-249089177Y-49466804D01*
X-249089177Y-49466804D02*
X-248655843Y-49466804D01*
X-248655843Y-49466804D02*
X-248532034Y-49528709D01*
X-248532034Y-49528709D02*
X-248470129Y-49590614D01*
X-248470129Y-49590614D02*
X-248408224Y-49714423D01*
X-248408224Y-49714423D02*
X-248408224Y-49838233D01*
X-248408224Y-49838233D02*
X-248470129Y-49962042D01*
X-248470129Y-49962042D02*
X-248532034Y-50023947D01*
X-248532034Y-50023947D02*
X-248655843Y-50085852D01*
X-248655843Y-50085852D02*
X-249089177Y-50085852D01*
D10*
D11*
X-248346320Y-100642995D02*
X-248408224Y-100704900D01*
X-248408224Y-100704900D02*
X-248593939Y-100766804D01*
X-248593939Y-100766804D02*
X-248717748Y-100766804D01*
X-248717748Y-100766804D02*
X-248903462Y-100704900D01*
X-248903462Y-100704900D02*
X-249027272Y-100581090D01*
X-249027272Y-100581090D02*
X-249089177Y-100457280D01*
X-249089177Y-100457280D02*
X-249151081Y-100209661D01*
X-249151081Y-100209661D02*
X-249151081Y-100023947D01*
X-249151081Y-100023947D02*
X-249089177Y-99776328D01*
X-249089177Y-99776328D02*
X-249027272Y-99652519D01*
X-249027272Y-99652519D02*
X-248903462Y-99528709D01*
X-248903462Y-99528709D02*
X-248717748Y-99466804D01*
X-248717748Y-99466804D02*
X-248593939Y-99466804D01*
X-248593939Y-99466804D02*
X-248408224Y-99528709D01*
X-248408224Y-99528709D02*
X-248346320Y-99590614D01*
D10*
D11*
X-249089177Y-150766804D02*
X-249089177Y-149466804D01*
X-249089177Y-149466804D02*
X-248779653Y-149466804D01*
X-248779653Y-149466804D02*
X-248593939Y-149528709D01*
X-248593939Y-149528709D02*
X-248470129Y-149652519D01*
X-248470129Y-149652519D02*
X-248408224Y-149776328D01*
X-248408224Y-149776328D02*
X-248346320Y-150023947D01*
X-248346320Y-150023947D02*
X-248346320Y-150209661D01*
X-248346320Y-150209661D02*
X-248408224Y-150457280D01*
X-248408224Y-150457280D02*
X-248470129Y-150581090D01*
X-248470129Y-150581090D02*
X-248593939Y-150704900D01*
X-248593939Y-150704900D02*
X-248779653Y-150766804D01*
X-248779653Y-150766804D02*
X-249089177Y-150766804D01*
D10*
D11*
X27253500Y-25173200D02*
X25253500Y-25173200D01*
D10*
D11*
X27253500Y-75173200D02*
X25253500Y-75173200D01*
D10*
D11*
X27253500Y-125173200D02*
X25253500Y-125173200D01*
D10*
D11*
X25943976Y-395376D02*
X26563023Y-395376D01*
X25820166Y-766804D02*
X26253499Y533196D01*
X26253499Y533196D02*
X26686833Y-766804D01*
D10*
D11*
X26346357Y-50085852D02*
X26532071Y-50147757D01*
X26532071Y-50147757D02*
X26593976Y-50209661D01*
X26593976Y-50209661D02*
X26655880Y-50333471D01*
X26655880Y-50333471D02*
X26655880Y-50519185D01*
X26655880Y-50519185D02*
X26593976Y-50642995D01*
X26593976Y-50642995D02*
X26532071Y-50704900D01*
X26532071Y-50704900D02*
X26408261Y-50766804D01*
X26408261Y-50766804D02*
X25913023Y-50766804D01*
X25913023Y-50766804D02*
X25913023Y-49466804D01*
X25913023Y-49466804D02*
X26346357Y-49466804D01*
X26346357Y-49466804D02*
X26470166Y-49528709D01*
X26470166Y-49528709D02*
X26532071Y-49590614D01*
X26532071Y-49590614D02*
X26593976Y-49714423D01*
X26593976Y-49714423D02*
X26593976Y-49838233D01*
X26593976Y-49838233D02*
X26532071Y-49962042D01*
X26532071Y-49962042D02*
X26470166Y-50023947D01*
X26470166Y-50023947D02*
X26346357Y-50085852D01*
X26346357Y-50085852D02*
X25913023Y-50085852D01*
D10*
D11*
X26655880Y-100642995D02*
X26593976Y-100704900D01*
X26593976Y-100704900D02*
X26408261Y-100766804D01*
X26408261Y-100766804D02*
X26284452Y-100766804D01*
X26284452Y-100766804D02*
X26098738Y-100704900D01*
X26098738Y-100704900D02*
X25974928Y-100581090D01*
X25974928Y-100581090D02*
X25913023Y-100457280D01*
X25913023Y-100457280D02*
X25851119Y-100209661D01*
X25851119Y-100209661D02*
X25851119Y-100023947D01*
X25851119Y-100023947D02*
X25913023Y-99776328D01*
X25913023Y-99776328D02*
X25974928Y-99652519D01*
X25974928Y-99652519D02*
X26098738Y-99528709D01*
X26098738Y-99528709D02*
X26284452Y-99466804D01*
X26284452Y-99466804D02*
X26408261Y-99466804D01*
X26408261Y-99466804D02*
X26593976Y-99528709D01*
X26593976Y-99528709D02*
X26655880Y-99590614D01*
D10*
D11*
X25913023Y-150766804D02*
X25913023Y-149466804D01*
X25913023Y-149466804D02*
X26222547Y-149466804D01*
X26222547Y-149466804D02*
X26408261Y-149528709D01*
X26408261Y-149528709D02*
X26532071Y-149652519D01*
X26532071Y-149652519D02*
X26593976Y-149776328D01*
X26593976Y-149776328D02*
X26655880Y-150023947D01*
X26655880Y-150023947D02*
X26655880Y-150209661D01*
X26655880Y-150209661D02*
X26593976Y-150457280D01*
X26593976Y-150457280D02*
X26532071Y-150581090D01*
X26532071Y-150581090D02*
X26408261Y-150704900D01*
X26408261Y-150704900D02*
X26222547Y-150766804D01*
X26222547Y-150766804D02*
X25913023Y-150766804D01*
D10*
D11*
X-59290674Y-158966528D02*
X-59290674Y-157466528D01*
X-59290674Y-157466528D02*
X-58933531Y-157466528D01*
X-58933531Y-157466528D02*
X-58719245Y-157537957D01*
X-58719245Y-157537957D02*
X-58576388Y-157680814D01*
X-58576388Y-157680814D02*
X-58504959Y-157823671D01*
X-58504959Y-157823671D02*
X-58433531Y-158109385D01*
X-58433531Y-158109385D02*
X-58433531Y-158323671D01*
X-58433531Y-158323671D02*
X-58504959Y-158609385D01*
X-58504959Y-158609385D02*
X-58576388Y-158752242D01*
X-58576388Y-158752242D02*
X-58719245Y-158895100D01*
X-58719245Y-158895100D02*
X-58933531Y-158966528D01*
X-58933531Y-158966528D02*
X-59290674Y-158966528D01*
X-57147816Y-158966528D02*
X-57147816Y-158180814D01*
X-57147816Y-158180814D02*
X-57219245Y-158037957D01*
X-57219245Y-158037957D02*
X-57362102Y-157966528D01*
X-57362102Y-157966528D02*
X-57647816Y-157966528D01*
X-57647816Y-157966528D02*
X-57790674Y-158037957D01*
X-57147816Y-158895100D02*
X-57290674Y-158966528D01*
X-57290674Y-158966528D02*
X-57647816Y-158966528D01*
X-57647816Y-158966528D02*
X-57790674Y-158895100D01*
X-57790674Y-158895100D02*
X-57862102Y-158752242D01*
X-57862102Y-158752242D02*
X-57862102Y-158609385D01*
X-57862102Y-158609385D02*
X-57790674Y-158466528D01*
X-57790674Y-158466528D02*
X-57647816Y-158395100D01*
X-57647816Y-158395100D02*
X-57290674Y-158395100D01*
X-57290674Y-158395100D02*
X-57147816Y-158323671D01*
X-56647816Y-157966528D02*
X-56076388Y-157966528D01*
X-56433531Y-157466528D02*
X-56433531Y-158752242D01*
X-56433531Y-158752242D02*
X-56362102Y-158895100D01*
X-56362102Y-158895100D02*
X-56219245Y-158966528D01*
X-56219245Y-158966528D02*
X-56076388Y-158966528D01*
X-55004959Y-158895100D02*
X-55147816Y-158966528D01*
X-55147816Y-158966528D02*
X-55433530Y-158966528D01*
X-55433530Y-158966528D02*
X-55576388Y-158895100D01*
X-55576388Y-158895100D02*
X-55647816Y-158752242D01*
X-55647816Y-158752242D02*
X-55647816Y-158180814D01*
X-55647816Y-158180814D02*
X-55576388Y-158037957D01*
X-55576388Y-158037957D02*
X-55433530Y-157966528D01*
X-55433530Y-157966528D02*
X-55147816Y-157966528D01*
X-55147816Y-157966528D02*
X-55004959Y-158037957D01*
X-55004959Y-158037957D02*
X-54933530Y-158180814D01*
X-54933530Y-158180814D02*
X-54933530Y-158323671D01*
X-54933530Y-158323671D02*
X-55647816Y-158466528D01*
X-54290674Y-158823671D02*
X-54219245Y-158895100D01*
X-54219245Y-158895100D02*
X-54290674Y-158966528D01*
X-54290674Y-158966528D02*
X-54362102Y-158895100D01*
X-54362102Y-158895100D02*
X-54290674Y-158823671D01*
X-54290674Y-158823671D02*
X-54290674Y-158966528D01*
X-54290674Y-158037957D02*
X-54219245Y-158109385D01*
X-54219245Y-158109385D02*
X-54290674Y-158180814D01*
X-54290674Y-158180814D02*
X-54362102Y-158109385D01*
X-54362102Y-158109385D02*
X-54290674Y-158037957D01*
X-54290674Y-158037957D02*
X-54290674Y-158180814D01*
D10*
D11*
X-82746500Y-159680400D02*
X25253500Y-159680400D01*
D10*
D11*
X-81290674Y-161766528D02*
X-81290674Y-160266528D01*
X-80433531Y-161766528D02*
X-81076388Y-160909385D01*
X-80433531Y-160266528D02*
X-81290674Y-161123671D01*
X-79790674Y-161766528D02*
X-79790674Y-160766528D01*
X-79790674Y-160266528D02*
X-79862102Y-160337957D01*
X-79862102Y-160337957D02*
X-79790674Y-160409385D01*
X-79790674Y-160409385D02*
X-79719245Y-160337957D01*
X-79719245Y-160337957D02*
X-79790674Y-160266528D01*
X-79790674Y-160266528D02*
X-79790674Y-160409385D01*
X-78219245Y-161623671D02*
X-78290673Y-161695100D01*
X-78290673Y-161695100D02*
X-78504959Y-161766528D01*
X-78504959Y-161766528D02*
X-78647816Y-161766528D01*
X-78647816Y-161766528D02*
X-78862102Y-161695100D01*
X-78862102Y-161695100D02*
X-79004959Y-161552242D01*
X-79004959Y-161552242D02*
X-79076388Y-161409385D01*
X-79076388Y-161409385D02*
X-79147816Y-161123671D01*
X-79147816Y-161123671D02*
X-79147816Y-160909385D01*
X-79147816Y-160909385D02*
X-79076388Y-160623671D01*
X-79076388Y-160623671D02*
X-79004959Y-160480814D01*
X-79004959Y-160480814D02*
X-78862102Y-160337957D01*
X-78862102Y-160337957D02*
X-78647816Y-160266528D01*
X-78647816Y-160266528D02*
X-78504959Y-160266528D01*
X-78504959Y-160266528D02*
X-78290673Y-160337957D01*
X-78290673Y-160337957D02*
X-78219245Y-160409385D01*
X-76933530Y-161766528D02*
X-76933530Y-160980814D01*
X-76933530Y-160980814D02*
X-77004959Y-160837957D01*
X-77004959Y-160837957D02*
X-77147816Y-160766528D01*
X-77147816Y-160766528D02*
X-77433530Y-160766528D01*
X-77433530Y-160766528D02*
X-77576388Y-160837957D01*
X-76933530Y-161695100D02*
X-77076388Y-161766528D01*
X-77076388Y-161766528D02*
X-77433530Y-161766528D01*
X-77433530Y-161766528D02*
X-77576388Y-161695100D01*
X-77576388Y-161695100D02*
X-77647816Y-161552242D01*
X-77647816Y-161552242D02*
X-77647816Y-161409385D01*
X-77647816Y-161409385D02*
X-77576388Y-161266528D01*
X-77576388Y-161266528D02*
X-77433530Y-161195100D01*
X-77433530Y-161195100D02*
X-77076388Y-161195100D01*
X-77076388Y-161195100D02*
X-76933530Y-161123671D01*
X-75576387Y-161766528D02*
X-75576387Y-160266528D01*
X-75576387Y-161695100D02*
X-75719245Y-161766528D01*
X-75719245Y-161766528D02*
X-76004959Y-161766528D01*
X-76004959Y-161766528D02*
X-76147816Y-161695100D01*
X-76147816Y-161695100D02*
X-76219245Y-161623671D01*
X-76219245Y-161623671D02*
X-76290673Y-161480814D01*
X-76290673Y-161480814D02*
X-76290673Y-161052242D01*
X-76290673Y-161052242D02*
X-76219245Y-160909385D01*
X-76219245Y-160909385D02*
X-76147816Y-160837957D01*
X-76147816Y-160837957D02*
X-76004959Y-160766528D01*
X-76004959Y-160766528D02*
X-75719245Y-160766528D01*
X-75719245Y-160766528D02*
X-75576387Y-160837957D01*
X-73719245Y-160980814D02*
X-73219245Y-160980814D01*
X-73004959Y-161766528D02*
X-73719245Y-161766528D01*
X-73719245Y-161766528D02*
X-73719245Y-160266528D01*
X-73719245Y-160266528D02*
X-73004959Y-160266528D01*
X-72362102Y-161623671D02*
X-72290673Y-161695100D01*
X-72290673Y-161695100D02*
X-72362102Y-161766528D01*
X-72362102Y-161766528D02*
X-72433530Y-161695100D01*
X-72433530Y-161695100D02*
X-72362102Y-161623671D01*
X-72362102Y-161623671D02*
X-72362102Y-161766528D01*
X-71647816Y-161766528D02*
X-71647816Y-160266528D01*
X-71647816Y-160266528D02*
X-71290673Y-160266528D01*
X-71290673Y-160266528D02*
X-71076387Y-160337957D01*
X-71076387Y-160337957D02*
X-70933530Y-160480814D01*
X-70933530Y-160480814D02*
X-70862101Y-160623671D01*
X-70862101Y-160623671D02*
X-70790673Y-160909385D01*
X-70790673Y-160909385D02*
X-70790673Y-161123671D01*
X-70790673Y-161123671D02*
X-70862101Y-161409385D01*
X-70862101Y-161409385D02*
X-70933530Y-161552242D01*
X-70933530Y-161552242D02*
X-71076387Y-161695100D01*
X-71076387Y-161695100D02*
X-71290673Y-161766528D01*
X-71290673Y-161766528D02*
X-71647816Y-161766528D01*
X-70147816Y-161623671D02*
X-70076387Y-161695100D01*
X-70076387Y-161695100D02*
X-70147816Y-161766528D01*
X-70147816Y-161766528D02*
X-70219244Y-161695100D01*
X-70219244Y-161695100D02*
X-70147816Y-161623671D01*
X-70147816Y-161623671D02*
X-70147816Y-161766528D01*
X-69504958Y-161337957D02*
X-68790672Y-161337957D01*
X-69647815Y-161766528D02*
X-69147815Y-160266528D01*
X-69147815Y-160266528D02*
X-68647815Y-161766528D01*
X-68147816Y-161623671D02*
X-68076387Y-161695100D01*
X-68076387Y-161695100D02*
X-68147816Y-161766528D01*
X-68147816Y-161766528D02*
X-68219244Y-161695100D01*
X-68219244Y-161695100D02*
X-68147816Y-161623671D01*
X-68147816Y-161623671D02*
X-68147816Y-161766528D01*
X-66076387Y-160909385D02*
X-66219244Y-160837957D01*
X-66219244Y-160837957D02*
X-66290673Y-160766528D01*
X-66290673Y-160766528D02*
X-66362101Y-160623671D01*
X-66362101Y-160623671D02*
X-66362101Y-160552242D01*
X-66362101Y-160552242D02*
X-66290673Y-160409385D01*
X-66290673Y-160409385D02*
X-66219244Y-160337957D01*
X-66219244Y-160337957D02*
X-66076387Y-160266528D01*
X-66076387Y-160266528D02*
X-65790673Y-160266528D01*
X-65790673Y-160266528D02*
X-65647815Y-160337957D01*
X-65647815Y-160337957D02*
X-65576387Y-160409385D01*
X-65576387Y-160409385D02*
X-65504958Y-160552242D01*
X-65504958Y-160552242D02*
X-65504958Y-160623671D01*
X-65504958Y-160623671D02*
X-65576387Y-160766528D01*
X-65576387Y-160766528D02*
X-65647815Y-160837957D01*
X-65647815Y-160837957D02*
X-65790673Y-160909385D01*
X-65790673Y-160909385D02*
X-66076387Y-160909385D01*
X-66076387Y-160909385D02*
X-66219244Y-160980814D01*
X-66219244Y-160980814D02*
X-66290673Y-161052242D01*
X-66290673Y-161052242D02*
X-66362101Y-161195100D01*
X-66362101Y-161195100D02*
X-66362101Y-161480814D01*
X-66362101Y-161480814D02*
X-66290673Y-161623671D01*
X-66290673Y-161623671D02*
X-66219244Y-161695100D01*
X-66219244Y-161695100D02*
X-66076387Y-161766528D01*
X-66076387Y-161766528D02*
X-65790673Y-161766528D01*
X-65790673Y-161766528D02*
X-65647815Y-161695100D01*
X-65647815Y-161695100D02*
X-65576387Y-161623671D01*
X-65576387Y-161623671D02*
X-65504958Y-161480814D01*
X-65504958Y-161480814D02*
X-65504958Y-161195100D01*
X-65504958Y-161195100D02*
X-65576387Y-161052242D01*
X-65576387Y-161052242D02*
X-65647815Y-160980814D01*
X-65647815Y-160980814D02*
X-65790673Y-160909385D01*
X-64862102Y-161623671D02*
X-64790673Y-161695100D01*
X-64790673Y-161695100D02*
X-64862102Y-161766528D01*
X-64862102Y-161766528D02*
X-64933530Y-161695100D01*
X-64933530Y-161695100D02*
X-64862102Y-161623671D01*
X-64862102Y-161623671D02*
X-64862102Y-161766528D01*
X-63862101Y-160266528D02*
X-63719244Y-160266528D01*
X-63719244Y-160266528D02*
X-63576387Y-160337957D01*
X-63576387Y-160337957D02*
X-63504958Y-160409385D01*
X-63504958Y-160409385D02*
X-63433530Y-160552242D01*
X-63433530Y-160552242D02*
X-63362101Y-160837957D01*
X-63362101Y-160837957D02*
X-63362101Y-161195100D01*
X-63362101Y-161195100D02*
X-63433530Y-161480814D01*
X-63433530Y-161480814D02*
X-63504958Y-161623671D01*
X-63504958Y-161623671D02*
X-63576387Y-161695100D01*
X-63576387Y-161695100D02*
X-63719244Y-161766528D01*
X-63719244Y-161766528D02*
X-63862101Y-161766528D01*
X-63862101Y-161766528D02*
X-64004958Y-161695100D01*
X-64004958Y-161695100D02*
X-64076387Y-161623671D01*
X-64076387Y-161623671D02*
X-64147816Y-161480814D01*
X-64147816Y-161480814D02*
X-64219244Y-161195100D01*
X-64219244Y-161195100D02*
X-64219244Y-160837957D01*
X-64219244Y-160837957D02*
X-64147816Y-160552242D01*
X-64147816Y-160552242D02*
X-64076387Y-160409385D01*
X-64076387Y-160409385D02*
X-64004958Y-160337957D01*
X-64004958Y-160337957D02*
X-63862101Y-160266528D01*
X-62719245Y-161623671D02*
X-62647816Y-161695100D01*
X-62647816Y-161695100D02*
X-62719245Y-161766528D01*
X-62719245Y-161766528D02*
X-62790673Y-161695100D01*
X-62790673Y-161695100D02*
X-62719245Y-161623671D01*
X-62719245Y-161623671D02*
X-62719245Y-161766528D01*
X-61362101Y-160266528D02*
X-61647816Y-160266528D01*
X-61647816Y-160266528D02*
X-61790673Y-160337957D01*
X-61790673Y-160337957D02*
X-61862101Y-160409385D01*
X-61862101Y-160409385D02*
X-62004959Y-160623671D01*
X-62004959Y-160623671D02*
X-62076387Y-160909385D01*
X-62076387Y-160909385D02*
X-62076387Y-161480814D01*
X-62076387Y-161480814D02*
X-62004959Y-161623671D01*
X-62004959Y-161623671D02*
X-61933530Y-161695100D01*
X-61933530Y-161695100D02*
X-61790673Y-161766528D01*
X-61790673Y-161766528D02*
X-61504959Y-161766528D01*
X-61504959Y-161766528D02*
X-61362101Y-161695100D01*
X-61362101Y-161695100D02*
X-61290673Y-161623671D01*
X-61290673Y-161623671D02*
X-61219244Y-161480814D01*
X-61219244Y-161480814D02*
X-61219244Y-161123671D01*
X-61219244Y-161123671D02*
X-61290673Y-160980814D01*
X-61290673Y-160980814D02*
X-61362101Y-160909385D01*
X-61362101Y-160909385D02*
X-61504959Y-160837957D01*
X-61504959Y-160837957D02*
X-61790673Y-160837957D01*
X-61790673Y-160837957D02*
X-61933530Y-160909385D01*
X-61933530Y-160909385D02*
X-62004959Y-160980814D01*
X-62004959Y-160980814D02*
X-62076387Y-161123671D01*
D10*
D11*
X-82746500Y-156680400D02*
X25253500Y-156680400D01*
D10*
D12*
X4665153Y-158958728D02*
X4165153Y-158244442D01*
X3808010Y-158958728D02*
X3808010Y-157458728D01*
X3808010Y-157458728D02*
X4379439Y-157458728D01*
X4379439Y-157458728D02*
X4522296Y-157530157D01*
X4522296Y-157530157D02*
X4593725Y-157601585D01*
X4593725Y-157601585D02*
X4665153Y-157744442D01*
X4665153Y-157744442D02*
X4665153Y-157958728D01*
X4665153Y-157958728D02*
X4593725Y-158101585D01*
X4593725Y-158101585D02*
X4522296Y-158173014D01*
X4522296Y-158173014D02*
X4379439Y-158244442D01*
X4379439Y-158244442D02*
X3808010Y-158244442D01*
X5879439Y-158887300D02*
X5736582Y-158958728D01*
X5736582Y-158958728D02*
X5450868Y-158958728D01*
X5450868Y-158958728D02*
X5308010Y-158887300D01*
X5308010Y-158887300D02*
X5236582Y-158744442D01*
X5236582Y-158744442D02*
X5236582Y-158173014D01*
X5236582Y-158173014D02*
X5308010Y-158030157D01*
X5308010Y-158030157D02*
X5450868Y-157958728D01*
X5450868Y-157958728D02*
X5736582Y-157958728D01*
X5736582Y-157958728D02*
X5879439Y-158030157D01*
X5879439Y-158030157D02*
X5950868Y-158173014D01*
X5950868Y-158173014D02*
X5950868Y-158315871D01*
X5950868Y-158315871D02*
X5236582Y-158458728D01*
X6450867Y-157958728D02*
X6808010Y-158958728D01*
X6808010Y-158958728D02*
X7165153Y-157958728D01*
X7736581Y-158815871D02*
X7808010Y-158887300D01*
X7808010Y-158887300D02*
X7736581Y-158958728D01*
X7736581Y-158958728D02*
X7665153Y-158887300D01*
X7665153Y-158887300D02*
X7736581Y-158815871D01*
X7736581Y-158815871D02*
X7736581Y-158958728D01*
X7736581Y-158030157D02*
X7808010Y-158101585D01*
X7808010Y-158101585D02*
X7736581Y-158173014D01*
X7736581Y-158173014D02*
X7665153Y-158101585D01*
X7665153Y-158101585D02*
X7736581Y-158030157D01*
X7736581Y-158030157D02*
X7736581Y-158173014D01*
D10*
D11*
X-81362102Y-158895100D02*
X-81147816Y-158966528D01*
X-81147816Y-158966528D02*
X-80790674Y-158966528D01*
X-80790674Y-158966528D02*
X-80647816Y-158895100D01*
X-80647816Y-158895100D02*
X-80576388Y-158823671D01*
X-80576388Y-158823671D02*
X-80504959Y-158680814D01*
X-80504959Y-158680814D02*
X-80504959Y-158537957D01*
X-80504959Y-158537957D02*
X-80576388Y-158395100D01*
X-80576388Y-158395100D02*
X-80647816Y-158323671D01*
X-80647816Y-158323671D02*
X-80790674Y-158252242D01*
X-80790674Y-158252242D02*
X-81076388Y-158180814D01*
X-81076388Y-158180814D02*
X-81219245Y-158109385D01*
X-81219245Y-158109385D02*
X-81290674Y-158037957D01*
X-81290674Y-158037957D02*
X-81362102Y-157895100D01*
X-81362102Y-157895100D02*
X-81362102Y-157752242D01*
X-81362102Y-157752242D02*
X-81290674Y-157609385D01*
X-81290674Y-157609385D02*
X-81219245Y-157537957D01*
X-81219245Y-157537957D02*
X-81076388Y-157466528D01*
X-81076388Y-157466528D02*
X-80719245Y-157466528D01*
X-80719245Y-157466528D02*
X-80504959Y-157537957D01*
X-79862103Y-158966528D02*
X-79862103Y-157966528D01*
X-79862103Y-157466528D02*
X-79933531Y-157537957D01*
X-79933531Y-157537957D02*
X-79862103Y-157609385D01*
X-79862103Y-157609385D02*
X-79790674Y-157537957D01*
X-79790674Y-157537957D02*
X-79862103Y-157466528D01*
X-79862103Y-157466528D02*
X-79862103Y-157609385D01*
X-79290674Y-157966528D02*
X-78504959Y-157966528D01*
X-78504959Y-157966528D02*
X-79290674Y-158966528D01*
X-79290674Y-158966528D02*
X-78504959Y-158966528D01*
X-77362102Y-158895100D02*
X-77504959Y-158966528D01*
X-77504959Y-158966528D02*
X-77790673Y-158966528D01*
X-77790673Y-158966528D02*
X-77933531Y-158895100D01*
X-77933531Y-158895100D02*
X-78004959Y-158752242D01*
X-78004959Y-158752242D02*
X-78004959Y-158180814D01*
X-78004959Y-158180814D02*
X-77933531Y-158037957D01*
X-77933531Y-158037957D02*
X-77790673Y-157966528D01*
X-77790673Y-157966528D02*
X-77504959Y-157966528D01*
X-77504959Y-157966528D02*
X-77362102Y-158037957D01*
X-77362102Y-158037957D02*
X-77290673Y-158180814D01*
X-77290673Y-158180814D02*
X-77290673Y-158323671D01*
X-77290673Y-158323671D02*
X-78004959Y-158466528D01*
X-76647817Y-158823671D02*
X-76576388Y-158895100D01*
X-76576388Y-158895100D02*
X-76647817Y-158966528D01*
X-76647817Y-158966528D02*
X-76719245Y-158895100D01*
X-76719245Y-158895100D02*
X-76647817Y-158823671D01*
X-76647817Y-158823671D02*
X-76647817Y-158966528D01*
X-76647817Y-158037957D02*
X-76576388Y-158109385D01*
X-76576388Y-158109385D02*
X-76647817Y-158180814D01*
X-76647817Y-158180814D02*
X-76719245Y-158109385D01*
X-76719245Y-158109385D02*
X-76647817Y-158037957D01*
X-76647817Y-158037957D02*
X-76647817Y-158180814D01*
X-74862102Y-158537957D02*
X-74147816Y-158537957D01*
X-75004959Y-158966528D02*
X-74504959Y-157466528D01*
X-74504959Y-157466528D02*
X-74004959Y-158966528D01*
X-72862102Y-157966528D02*
X-72862102Y-158966528D01*
X-73219245Y-157395100D02*
X-73576388Y-158466528D01*
X-73576388Y-158466528D02*
X-72647817Y-158466528D01*
D10*
D11*
X3709326Y-161766528D02*
X3709326Y-160266528D01*
X5066470Y-161766528D02*
X5066470Y-160266528D01*
X5066470Y-161695100D02*
X4923612Y-161766528D01*
X4923612Y-161766528D02*
X4637898Y-161766528D01*
X4637898Y-161766528D02*
X4495041Y-161695100D01*
X4495041Y-161695100D02*
X4423612Y-161623671D01*
X4423612Y-161623671D02*
X4352184Y-161480814D01*
X4352184Y-161480814D02*
X4352184Y-161052242D01*
X4352184Y-161052242D02*
X4423612Y-160909385D01*
X4423612Y-160909385D02*
X4495041Y-160837957D01*
X4495041Y-160837957D02*
X4637898Y-160766528D01*
X4637898Y-160766528D02*
X4923612Y-160766528D01*
X4923612Y-160766528D02*
X5066470Y-160837957D01*
X5780755Y-161623671D02*
X5852184Y-161695100D01*
X5852184Y-161695100D02*
X5780755Y-161766528D01*
X5780755Y-161766528D02*
X5709327Y-161695100D01*
X5709327Y-161695100D02*
X5780755Y-161623671D01*
X5780755Y-161623671D02*
X5780755Y-161766528D01*
X5780755Y-160837957D02*
X5852184Y-160909385D01*
X5852184Y-160909385D02*
X5780755Y-160980814D01*
X5780755Y-160980814D02*
X5709327Y-160909385D01*
X5709327Y-160909385D02*
X5780755Y-160837957D01*
X5780755Y-160837957D02*
X5780755Y-160980814D01*
X8423613Y-161766528D02*
X7566470Y-161766528D01*
X7995041Y-161766528D02*
X7995041Y-160266528D01*
X7995041Y-160266528D02*
X7852184Y-160480814D01*
X7852184Y-160480814D02*
X7709327Y-160623671D01*
X7709327Y-160623671D02*
X7566470Y-160695100D01*
X10137898Y-160195100D02*
X8852184Y-162123671D01*
X11423613Y-161766528D02*
X10566470Y-161766528D01*
X10995041Y-161766528D02*
X10995041Y-160266528D01*
X10995041Y-160266528D02*
X10852184Y-160480814D01*
X10852184Y-160480814D02*
X10709327Y-160623671D01*
X10709327Y-160623671D02*
X10566470Y-160695100D01*
D10*
D11*
X-82746500Y-152680400D02*
X25253500Y-152680400D01*
D10*
D13*
X-81054772Y-153384838D02*
X-79911915Y-153384838D01*
X-80733343Y-155384838D02*
X-80483343Y-153384838D01*
X-79495248Y-155384838D02*
X-79328581Y-154051504D01*
X-79245248Y-153384838D02*
X-79352391Y-153480076D01*
X-79352391Y-153480076D02*
X-79269057Y-153575314D01*
X-79269057Y-153575314D02*
X-79161914Y-153480076D01*
X-79161914Y-153480076D02*
X-79245248Y-153384838D01*
X-79245248Y-153384838D02*
X-79269057Y-153575314D01*
X-78661914Y-154051504D02*
X-77900010Y-154051504D01*
X-78292867Y-153384838D02*
X-78507152Y-155099123D01*
X-78507152Y-155099123D02*
X-78435724Y-155289600D01*
X-78435724Y-155289600D02*
X-78257152Y-155384838D01*
X-78257152Y-155384838D02*
X-78066676Y-155384838D01*
X-77114295Y-155384838D02*
X-77292867Y-155289600D01*
X-77292867Y-155289600D02*
X-77364295Y-155099123D01*
X-77364295Y-155099123D02*
X-77150010Y-153384838D01*
X-75578581Y-155289600D02*
X-75780962Y-155384838D01*
X-75780962Y-155384838D02*
X-76161915Y-155384838D01*
X-76161915Y-155384838D02*
X-76340486Y-155289600D01*
X-76340486Y-155289600D02*
X-76411915Y-155099123D01*
X-76411915Y-155099123D02*
X-76316676Y-154337219D01*
X-76316676Y-154337219D02*
X-76197629Y-154146742D01*
X-76197629Y-154146742D02*
X-75995248Y-154051504D01*
X-75995248Y-154051504D02*
X-75614296Y-154051504D01*
X-75614296Y-154051504D02*
X-75435724Y-154146742D01*
X-75435724Y-154146742D02*
X-75364296Y-154337219D01*
X-75364296Y-154337219D02*
X-75388105Y-154527695D01*
X-75388105Y-154527695D02*
X-76364296Y-154718171D01*
X-74614295Y-155194361D02*
X-74530962Y-155289600D01*
X-74530962Y-155289600D02*
X-74638105Y-155384838D01*
X-74638105Y-155384838D02*
X-74721438Y-155289600D01*
X-74721438Y-155289600D02*
X-74614295Y-155194361D01*
X-74614295Y-155194361D02*
X-74638105Y-155384838D01*
X-74483343Y-154146742D02*
X-74400010Y-154241980D01*
X-74400010Y-154241980D02*
X-74507152Y-154337219D01*
X-74507152Y-154337219D02*
X-74590486Y-154241980D01*
X-74590486Y-154241980D02*
X-74483343Y-154146742D01*
X-74483343Y-154146742D02*
X-74507152Y-154337219D01*
D10*
D11*
X-80790674Y-150780814D02*
X-81290674Y-150780814D01*
X-81290674Y-151566528D02*
X-81290674Y-150066528D01*
X-81290674Y-150066528D02*
X-80576388Y-150066528D01*
X-80004960Y-151566528D02*
X-80004960Y-150566528D01*
X-80004960Y-150066528D02*
X-80076388Y-150137957D01*
X-80076388Y-150137957D02*
X-80004960Y-150209385D01*
X-80004960Y-150209385D02*
X-79933531Y-150137957D01*
X-79933531Y-150137957D02*
X-80004960Y-150066528D01*
X-80004960Y-150066528D02*
X-80004960Y-150209385D01*
X-79076388Y-151566528D02*
X-79219245Y-151495100D01*
X-79219245Y-151495100D02*
X-79290674Y-151352242D01*
X-79290674Y-151352242D02*
X-79290674Y-150066528D01*
X-77933531Y-151495100D02*
X-78076388Y-151566528D01*
X-78076388Y-151566528D02*
X-78362102Y-151566528D01*
X-78362102Y-151566528D02*
X-78504960Y-151495100D01*
X-78504960Y-151495100D02*
X-78576388Y-151352242D01*
X-78576388Y-151352242D02*
X-78576388Y-150780814D01*
X-78576388Y-150780814D02*
X-78504960Y-150637957D01*
X-78504960Y-150637957D02*
X-78362102Y-150566528D01*
X-78362102Y-150566528D02*
X-78076388Y-150566528D01*
X-78076388Y-150566528D02*
X-77933531Y-150637957D01*
X-77933531Y-150637957D02*
X-77862102Y-150780814D01*
X-77862102Y-150780814D02*
X-77862102Y-150923671D01*
X-77862102Y-150923671D02*
X-78576388Y-151066528D01*
X-77219246Y-151423671D02*
X-77147817Y-151495100D01*
X-77147817Y-151495100D02*
X-77219246Y-151566528D01*
X-77219246Y-151566528D02*
X-77290674Y-151495100D01*
X-77290674Y-151495100D02*
X-77219246Y-151423671D01*
X-77219246Y-151423671D02*
X-77219246Y-151566528D01*
X-77219246Y-150637957D02*
X-77147817Y-150709385D01*
X-77147817Y-150709385D02*
X-77219246Y-150780814D01*
X-77219246Y-150780814D02*
X-77290674Y-150709385D01*
X-77290674Y-150709385D02*
X-77219246Y-150637957D01*
X-77219246Y-150637957D02*
X-77219246Y-150780814D01*
X-74719245Y-150066528D02*
X-75004960Y-150066528D01*
X-75004960Y-150066528D02*
X-75147817Y-150137957D01*
X-75147817Y-150137957D02*
X-75219245Y-150209385D01*
X-75219245Y-150209385D02*
X-75362103Y-150423671D01*
X-75362103Y-150423671D02*
X-75433531Y-150709385D01*
X-75433531Y-150709385D02*
X-75433531Y-151280814D01*
X-75433531Y-151280814D02*
X-75362103Y-151423671D01*
X-75362103Y-151423671D02*
X-75290674Y-151495100D01*
X-75290674Y-151495100D02*
X-75147817Y-151566528D01*
X-75147817Y-151566528D02*
X-74862103Y-151566528D01*
X-74862103Y-151566528D02*
X-74719245Y-151495100D01*
X-74719245Y-151495100D02*
X-74647817Y-151423671D01*
X-74647817Y-151423671D02*
X-74576388Y-151280814D01*
X-74576388Y-151280814D02*
X-74576388Y-150923671D01*
X-74576388Y-150923671D02*
X-74647817Y-150780814D01*
X-74647817Y-150780814D02*
X-74719245Y-150709385D01*
X-74719245Y-150709385D02*
X-74862103Y-150637957D01*
X-74862103Y-150637957D02*
X-75147817Y-150637957D01*
X-75147817Y-150637957D02*
X-75290674Y-150709385D01*
X-75290674Y-150709385D02*
X-75362103Y-150780814D01*
X-75362103Y-150780814D02*
X-75433531Y-150923671D01*
X-73219246Y-150066528D02*
X-73933532Y-150066528D01*
X-73933532Y-150066528D02*
X-74004960Y-150780814D01*
X-74004960Y-150780814D02*
X-73933532Y-150709385D01*
X-73933532Y-150709385D02*
X-73790674Y-150637957D01*
X-73790674Y-150637957D02*
X-73433532Y-150637957D01*
X-73433532Y-150637957D02*
X-73290674Y-150709385D01*
X-73290674Y-150709385D02*
X-73219246Y-150780814D01*
X-73219246Y-150780814D02*
X-73147817Y-150923671D01*
X-73147817Y-150923671D02*
X-73147817Y-151280814D01*
X-73147817Y-151280814D02*
X-73219246Y-151423671D01*
X-73219246Y-151423671D02*
X-73290674Y-151495100D01*
X-73290674Y-151495100D02*
X-73433532Y-151566528D01*
X-73433532Y-151566528D02*
X-73790674Y-151566528D01*
X-73790674Y-151566528D02*
X-73933532Y-151495100D01*
X-73933532Y-151495100D02*
X-74004960Y-151423671D01*
X-72862103Y-151709385D02*
X-71719246Y-151709385D01*
X-71433532Y-151495100D02*
X-71290675Y-151566528D01*
X-71290675Y-151566528D02*
X-71004961Y-151566528D01*
X-71004961Y-151566528D02*
X-70862104Y-151495100D01*
X-70862104Y-151495100D02*
X-70790675Y-151352242D01*
X-70790675Y-151352242D02*
X-70790675Y-151280814D01*
X-70790675Y-151280814D02*
X-70862104Y-151137957D01*
X-70862104Y-151137957D02*
X-71004961Y-151066528D01*
X-71004961Y-151066528D02*
X-71219246Y-151066528D01*
X-71219246Y-151066528D02*
X-71362104Y-150995100D01*
X-71362104Y-150995100D02*
X-71433532Y-150852242D01*
X-71433532Y-150852242D02*
X-71433532Y-150780814D01*
X-71433532Y-150780814D02*
X-71362104Y-150637957D01*
X-71362104Y-150637957D02*
X-71219246Y-150566528D01*
X-71219246Y-150566528D02*
X-71004961Y-150566528D01*
X-71004961Y-150566528D02*
X-70862104Y-150637957D01*
X-70147818Y-150566528D02*
X-70147818Y-152066528D01*
X-70147818Y-150637957D02*
X-70004960Y-150566528D01*
X-70004960Y-150566528D02*
X-69719246Y-150566528D01*
X-69719246Y-150566528D02*
X-69576389Y-150637957D01*
X-69576389Y-150637957D02*
X-69504960Y-150709385D01*
X-69504960Y-150709385D02*
X-69433532Y-150852242D01*
X-69433532Y-150852242D02*
X-69433532Y-151280814D01*
X-69433532Y-151280814D02*
X-69504960Y-151423671D01*
X-69504960Y-151423671D02*
X-69576389Y-151495100D01*
X-69576389Y-151495100D02*
X-69719246Y-151566528D01*
X-69719246Y-151566528D02*
X-70004960Y-151566528D01*
X-70004960Y-151566528D02*
X-70147818Y-151495100D01*
X-68576389Y-151566528D02*
X-68719246Y-151495100D01*
X-68719246Y-151495100D02*
X-68790675Y-151352242D01*
X-68790675Y-151352242D02*
X-68790675Y-150066528D01*
X-68004961Y-151566528D02*
X-68004961Y-150566528D01*
X-68004961Y-150066528D02*
X-68076389Y-150137957D01*
X-68076389Y-150137957D02*
X-68004961Y-150209385D01*
X-68004961Y-150209385D02*
X-67933532Y-150137957D01*
X-67933532Y-150137957D02*
X-68004961Y-150066528D01*
X-68004961Y-150066528D02*
X-68004961Y-150209385D01*
X-67504960Y-150566528D02*
X-66933532Y-150566528D01*
X-67290675Y-150066528D02*
X-67290675Y-151352242D01*
X-67290675Y-151352242D02*
X-67219246Y-151495100D01*
X-67219246Y-151495100D02*
X-67076389Y-151566528D01*
X-67076389Y-151566528D02*
X-66933532Y-151566528D01*
X-66790674Y-151709385D02*
X-65647817Y-151709385D01*
X-65290675Y-151566528D02*
X-65290675Y-150566528D01*
X-65290675Y-150852242D02*
X-65219246Y-150709385D01*
X-65219246Y-150709385D02*
X-65147817Y-150637957D01*
X-65147817Y-150637957D02*
X-65004960Y-150566528D01*
X-65004960Y-150566528D02*
X-64862103Y-150566528D01*
X-64362104Y-151566528D02*
X-64362104Y-150566528D01*
X-64362104Y-150066528D02*
X-64433532Y-150137957D01*
X-64433532Y-150137957D02*
X-64362104Y-150209385D01*
X-64362104Y-150209385D02*
X-64290675Y-150137957D01*
X-64290675Y-150137957D02*
X-64362104Y-150066528D01*
X-64362104Y-150066528D02*
X-64362104Y-150209385D01*
X-63004960Y-150566528D02*
X-63004960Y-151780814D01*
X-63004960Y-151780814D02*
X-63076389Y-151923671D01*
X-63076389Y-151923671D02*
X-63147818Y-151995100D01*
X-63147818Y-151995100D02*
X-63290675Y-152066528D01*
X-63290675Y-152066528D02*
X-63504960Y-152066528D01*
X-63504960Y-152066528D02*
X-63647818Y-151995100D01*
X-63004960Y-151495100D02*
X-63147818Y-151566528D01*
X-63147818Y-151566528D02*
X-63433532Y-151566528D01*
X-63433532Y-151566528D02*
X-63576389Y-151495100D01*
X-63576389Y-151495100D02*
X-63647818Y-151423671D01*
X-63647818Y-151423671D02*
X-63719246Y-151280814D01*
X-63719246Y-151280814D02*
X-63719246Y-150852242D01*
X-63719246Y-150852242D02*
X-63647818Y-150709385D01*
X-63647818Y-150709385D02*
X-63576389Y-150637957D01*
X-63576389Y-150637957D02*
X-63433532Y-150566528D01*
X-63433532Y-150566528D02*
X-63147818Y-150566528D01*
X-63147818Y-150566528D02*
X-63004960Y-150637957D01*
X-62290675Y-151566528D02*
X-62290675Y-150066528D01*
X-61647817Y-151566528D02*
X-61647817Y-150780814D01*
X-61647817Y-150780814D02*
X-61719246Y-150637957D01*
X-61719246Y-150637957D02*
X-61862103Y-150566528D01*
X-61862103Y-150566528D02*
X-62076389Y-150566528D01*
X-62076389Y-150566528D02*
X-62219246Y-150637957D01*
X-62219246Y-150637957D02*
X-62290675Y-150709385D01*
X-61147817Y-150566528D02*
X-60576389Y-150566528D01*
X-60933532Y-150066528D02*
X-60933532Y-151352242D01*
X-60933532Y-151352242D02*
X-60862103Y-151495100D01*
X-60862103Y-151495100D02*
X-60719246Y-151566528D01*
X-60719246Y-151566528D02*
X-60576389Y-151566528D01*
X-60076389Y-151423671D02*
X-60004960Y-151495100D01*
X-60004960Y-151495100D02*
X-60076389Y-151566528D01*
X-60076389Y-151566528D02*
X-60147817Y-151495100D01*
X-60147817Y-151495100D02*
X-60076389Y-151423671D01*
X-60076389Y-151423671D02*
X-60076389Y-151566528D01*
X-59362103Y-151566528D02*
X-59362103Y-150066528D01*
X-59219245Y-150995100D02*
X-58790674Y-151566528D01*
X-58790674Y-150566528D02*
X-59362103Y-151137957D01*
X-58147817Y-151566528D02*
X-58147817Y-150566528D01*
X-58147817Y-150066528D02*
X-58219245Y-150137957D01*
X-58219245Y-150137957D02*
X-58147817Y-150209385D01*
X-58147817Y-150209385D02*
X-58076388Y-150137957D01*
X-58076388Y-150137957D02*
X-58147817Y-150066528D01*
X-58147817Y-150066528D02*
X-58147817Y-150209385D01*
X-56790673Y-151495100D02*
X-56933531Y-151566528D01*
X-56933531Y-151566528D02*
X-57219245Y-151566528D01*
X-57219245Y-151566528D02*
X-57362102Y-151495100D01*
X-57362102Y-151495100D02*
X-57433531Y-151423671D01*
X-57433531Y-151423671D02*
X-57504959Y-151280814D01*
X-57504959Y-151280814D02*
X-57504959Y-150852242D01*
X-57504959Y-150852242D02*
X-57433531Y-150709385D01*
X-57433531Y-150709385D02*
X-57362102Y-150637957D01*
X-57362102Y-150637957D02*
X-57219245Y-150566528D01*
X-57219245Y-150566528D02*
X-56933531Y-150566528D01*
X-56933531Y-150566528D02*
X-56790673Y-150637957D01*
X-55504959Y-151566528D02*
X-55504959Y-150780814D01*
X-55504959Y-150780814D02*
X-55576388Y-150637957D01*
X-55576388Y-150637957D02*
X-55719245Y-150566528D01*
X-55719245Y-150566528D02*
X-56004959Y-150566528D01*
X-56004959Y-150566528D02*
X-56147817Y-150637957D01*
X-55504959Y-151495100D02*
X-55647817Y-151566528D01*
X-55647817Y-151566528D02*
X-56004959Y-151566528D01*
X-56004959Y-151566528D02*
X-56147817Y-151495100D01*
X-56147817Y-151495100D02*
X-56219245Y-151352242D01*
X-56219245Y-151352242D02*
X-56219245Y-151209385D01*
X-56219245Y-151209385D02*
X-56147817Y-151066528D01*
X-56147817Y-151066528D02*
X-56004959Y-150995100D01*
X-56004959Y-150995100D02*
X-55647817Y-150995100D01*
X-55647817Y-150995100D02*
X-55504959Y-150923671D01*
X-54147816Y-151566528D02*
X-54147816Y-150066528D01*
X-54147816Y-151495100D02*
X-54290674Y-151566528D01*
X-54290674Y-151566528D02*
X-54576388Y-151566528D01*
X-54576388Y-151566528D02*
X-54719245Y-151495100D01*
X-54719245Y-151495100D02*
X-54790674Y-151423671D01*
X-54790674Y-151423671D02*
X-54862102Y-151280814D01*
X-54862102Y-151280814D02*
X-54862102Y-150852242D01*
X-54862102Y-150852242D02*
X-54790674Y-150709385D01*
X-54790674Y-150709385D02*
X-54719245Y-150637957D01*
X-54719245Y-150637957D02*
X-54576388Y-150566528D01*
X-54576388Y-150566528D02*
X-54290674Y-150566528D01*
X-54290674Y-150566528D02*
X-54147816Y-150637957D01*
X-53790673Y-151709385D02*
X-52647816Y-151709385D01*
X-52290674Y-150566528D02*
X-52290674Y-152066528D01*
X-52290674Y-150637957D02*
X-52147816Y-150566528D01*
X-52147816Y-150566528D02*
X-51862102Y-150566528D01*
X-51862102Y-150566528D02*
X-51719245Y-150637957D01*
X-51719245Y-150637957D02*
X-51647816Y-150709385D01*
X-51647816Y-150709385D02*
X-51576388Y-150852242D01*
X-51576388Y-150852242D02*
X-51576388Y-151280814D01*
X-51576388Y-151280814D02*
X-51647816Y-151423671D01*
X-51647816Y-151423671D02*
X-51719245Y-151495100D01*
X-51719245Y-151495100D02*
X-51862102Y-151566528D01*
X-51862102Y-151566528D02*
X-52147816Y-151566528D01*
X-52147816Y-151566528D02*
X-52290674Y-151495100D01*
X-50290673Y-151495100D02*
X-50433531Y-151566528D01*
X-50433531Y-151566528D02*
X-50719245Y-151566528D01*
X-50719245Y-151566528D02*
X-50862102Y-151495100D01*
X-50862102Y-151495100D02*
X-50933531Y-151423671D01*
X-50933531Y-151423671D02*
X-51004959Y-151280814D01*
X-51004959Y-151280814D02*
X-51004959Y-150852242D01*
X-51004959Y-150852242D02*
X-50933531Y-150709385D01*
X-50933531Y-150709385D02*
X-50862102Y-150637957D01*
X-50862102Y-150637957D02*
X-50719245Y-150566528D01*
X-50719245Y-150566528D02*
X-50433531Y-150566528D01*
X-50433531Y-150566528D02*
X-50290673Y-150637957D01*
X-49647817Y-151566528D02*
X-49647817Y-150066528D01*
X-49647817Y-150637957D02*
X-49504959Y-150566528D01*
X-49504959Y-150566528D02*
X-49219245Y-150566528D01*
X-49219245Y-150566528D02*
X-49076388Y-150637957D01*
X-49076388Y-150637957D02*
X-49004959Y-150709385D01*
X-49004959Y-150709385D02*
X-48933531Y-150852242D01*
X-48933531Y-150852242D02*
X-48933531Y-151280814D01*
X-48933531Y-151280814D02*
X-49004959Y-151423671D01*
X-49004959Y-151423671D02*
X-49076388Y-151495100D01*
X-49076388Y-151495100D02*
X-49219245Y-151566528D01*
X-49219245Y-151566528D02*
X-49504959Y-151566528D01*
X-49504959Y-151566528D02*
X-49647817Y-151495100D01*
D10*
D11*
X-82746500Y-146680400D02*
X25253500Y-146680400D01*
D10*
D11*
X-81362102Y-148795100D02*
X-81147816Y-148866528D01*
X-81147816Y-148866528D02*
X-80790674Y-148866528D01*
X-80790674Y-148866528D02*
X-80647816Y-148795100D01*
X-80647816Y-148795100D02*
X-80576388Y-148723671D01*
X-80576388Y-148723671D02*
X-80504959Y-148580814D01*
X-80504959Y-148580814D02*
X-80504959Y-148437957D01*
X-80504959Y-148437957D02*
X-80576388Y-148295100D01*
X-80576388Y-148295100D02*
X-80647816Y-148223671D01*
X-80647816Y-148223671D02*
X-80790674Y-148152242D01*
X-80790674Y-148152242D02*
X-81076388Y-148080814D01*
X-81076388Y-148080814D02*
X-81219245Y-148009385D01*
X-81219245Y-148009385D02*
X-81290674Y-147937957D01*
X-81290674Y-147937957D02*
X-81362102Y-147795100D01*
X-81362102Y-147795100D02*
X-81362102Y-147652242D01*
X-81362102Y-147652242D02*
X-81290674Y-147509385D01*
X-81290674Y-147509385D02*
X-81219245Y-147437957D01*
X-81219245Y-147437957D02*
X-81076388Y-147366528D01*
X-81076388Y-147366528D02*
X-80719245Y-147366528D01*
X-80719245Y-147366528D02*
X-80504959Y-147437957D01*
X-79862103Y-148866528D02*
X-79862103Y-147366528D01*
X-79219245Y-148866528D02*
X-79219245Y-148080814D01*
X-79219245Y-148080814D02*
X-79290674Y-147937957D01*
X-79290674Y-147937957D02*
X-79433531Y-147866528D01*
X-79433531Y-147866528D02*
X-79647817Y-147866528D01*
X-79647817Y-147866528D02*
X-79790674Y-147937957D01*
X-79790674Y-147937957D02*
X-79862103Y-148009385D01*
X-77933531Y-148795100D02*
X-78076388Y-148866528D01*
X-78076388Y-148866528D02*
X-78362102Y-148866528D01*
X-78362102Y-148866528D02*
X-78504960Y-148795100D01*
X-78504960Y-148795100D02*
X-78576388Y-148652242D01*
X-78576388Y-148652242D02*
X-78576388Y-148080814D01*
X-78576388Y-148080814D02*
X-78504960Y-147937957D01*
X-78504960Y-147937957D02*
X-78362102Y-147866528D01*
X-78362102Y-147866528D02*
X-78076388Y-147866528D01*
X-78076388Y-147866528D02*
X-77933531Y-147937957D01*
X-77933531Y-147937957D02*
X-77862102Y-148080814D01*
X-77862102Y-148080814D02*
X-77862102Y-148223671D01*
X-77862102Y-148223671D02*
X-78576388Y-148366528D01*
X-76647817Y-148795100D02*
X-76790674Y-148866528D01*
X-76790674Y-148866528D02*
X-77076388Y-148866528D01*
X-77076388Y-148866528D02*
X-77219246Y-148795100D01*
X-77219246Y-148795100D02*
X-77290674Y-148652242D01*
X-77290674Y-148652242D02*
X-77290674Y-148080814D01*
X-77290674Y-148080814D02*
X-77219246Y-147937957D01*
X-77219246Y-147937957D02*
X-77076388Y-147866528D01*
X-77076388Y-147866528D02*
X-76790674Y-147866528D01*
X-76790674Y-147866528D02*
X-76647817Y-147937957D01*
X-76647817Y-147937957D02*
X-76576388Y-148080814D01*
X-76576388Y-148080814D02*
X-76576388Y-148223671D01*
X-76576388Y-148223671D02*
X-77290674Y-148366528D01*
X-76147817Y-147866528D02*
X-75576389Y-147866528D01*
X-75933532Y-147366528D02*
X-75933532Y-148652242D01*
X-75933532Y-148652242D02*
X-75862103Y-148795100D01*
X-75862103Y-148795100D02*
X-75719246Y-148866528D01*
X-75719246Y-148866528D02*
X-75576389Y-148866528D01*
X-75076389Y-148723671D02*
X-75004960Y-148795100D01*
X-75004960Y-148795100D02*
X-75076389Y-148866528D01*
X-75076389Y-148866528D02*
X-75147817Y-148795100D01*
X-75147817Y-148795100D02*
X-75076389Y-148723671D01*
X-75076389Y-148723671D02*
X-75076389Y-148866528D01*
X-75076389Y-147937957D02*
X-75004960Y-148009385D01*
X-75004960Y-148009385D02*
X-75076389Y-148080814D01*
X-75076389Y-148080814D02*
X-75147817Y-148009385D01*
X-75147817Y-148009385D02*
X-75076389Y-147937957D01*
X-75076389Y-147937957D02*
X-75076389Y-148080814D01*
D10*
D11*
X-62746500Y-156680400D02*
X-62746500Y-159680400D01*
D10*
D11*
X1253500Y-156680400D02*
X1253500Y-163180400D01*
D14*
%TO.P,SW8,1,1*%
%TO.N,/ROW 0*%
X-73589000Y-4445000D03*
D15*
X-72349000Y-4050000D03*
D16*
X-71049000Y-3625000D03*
D17*
X-71049000Y-16025000D03*
D18*
X-69849000Y-4050000D03*
D14*
X-68509000Y-4445000D03*
D19*
%TO.P,SW8,2,2*%
%TO.N,/COL 6*%
X-74859000Y-1575000D03*
D20*
X-73649000Y-1575000D03*
D21*
X-72699000Y-1575000D03*
D22*
%TO.P,SW8,3,3*%
%TO.N,unconnected-(SW8-Pad3)*%
X-76269000Y-13725000D03*
D16*
X-76049000Y-5725000D03*
D14*
X-74859000Y-6985000D03*
D17*
X-74849000Y-13325000D03*
D23*
X-74478000Y-8255000D03*
D24*
X-74478000Y-12319000D03*
D25*
X-74223999Y-10299445D03*
D26*
X-71049002Y-13335000D03*
D21*
X-69399000Y-1575000D03*
D20*
X-68549000Y-1575000D03*
D25*
X-67874001Y-10299445D03*
D27*
X-67620000Y-8255000D03*
D28*
X-67620000Y-12319000D03*
D17*
X-67249000Y-13325000D03*
D29*
X-67239000Y-1575000D03*
D14*
X-67239000Y-6985000D03*
D30*
X-66749000Y-2075000D03*
D16*
X-66049000Y-5725000D03*
D31*
X-66047500Y-4005025D03*
D22*
X-65829000Y-13725000D03*
%TD*%
D14*
%TO.P,SW20,1,1*%
%TO.N,/ROW 3*%
X-197414000Y-42545000D03*
D15*
X-196174000Y-42150000D03*
D16*
X-194874000Y-41725000D03*
D17*
X-194874000Y-54125000D03*
D18*
X-193674000Y-42150000D03*
D14*
X-192334000Y-42545000D03*
D19*
%TO.P,SW20,2,2*%
%TO.N,/COL 0*%
X-198684000Y-39675000D03*
D20*
X-197474000Y-39675000D03*
D21*
X-196524000Y-39675000D03*
D22*
%TO.P,SW20,3,3*%
%TO.N,unconnected-(SW20-Pad3)*%
X-200094000Y-51825000D03*
D16*
X-199874000Y-43825000D03*
D14*
X-198684000Y-45085000D03*
D17*
X-198674000Y-51425000D03*
D23*
X-198303000Y-46355000D03*
D24*
X-198303000Y-50419000D03*
D25*
X-198048999Y-48399445D03*
D26*
X-194874002Y-51435000D03*
D21*
X-193224000Y-39675000D03*
D20*
X-192374000Y-39675000D03*
D25*
X-191699001Y-48399445D03*
D27*
X-191445000Y-46355000D03*
D28*
X-191445000Y-50419000D03*
D17*
X-191074000Y-51425000D03*
D29*
X-191064000Y-39675000D03*
D14*
X-191064000Y-45085000D03*
D30*
X-190574000Y-40175000D03*
D16*
X-189874000Y-43825000D03*
D31*
X-189872500Y-42105025D03*
D22*
X-189654000Y-51825000D03*
%TD*%
D14*
%TO.P,SW7,1,1*%
%TO.N,/ROW 0*%
X-92639000Y-4445000D03*
D15*
X-91399000Y-4050000D03*
D16*
X-90099000Y-3625000D03*
D17*
X-90099000Y-16025000D03*
D18*
X-88899000Y-4050000D03*
D14*
X-87559000Y-4445000D03*
D19*
%TO.P,SW7,2,2*%
%TO.N,/COL 5*%
X-93909000Y-1575000D03*
D20*
X-92699000Y-1575000D03*
D21*
X-91749000Y-1575000D03*
D22*
%TO.P,SW7,3,3*%
%TO.N,unconnected-(SW7-Pad3)_10*%
X-95319000Y-13725000D03*
D16*
X-95099000Y-5725000D03*
D14*
X-93909000Y-6985000D03*
D17*
X-93899000Y-13325000D03*
D23*
X-93528000Y-8255000D03*
D24*
X-93528000Y-12319000D03*
D25*
X-93273999Y-10299445D03*
D26*
X-90099002Y-13335000D03*
D21*
X-88449000Y-1575000D03*
D20*
X-87599000Y-1575000D03*
D25*
X-86924001Y-10299445D03*
D27*
X-86670000Y-8255000D03*
D28*
X-86670000Y-12319000D03*
D17*
X-86299000Y-13325000D03*
D29*
X-86289000Y-1575000D03*
D14*
X-86289000Y-6985000D03*
D30*
X-85799000Y-2075000D03*
D16*
X-85099000Y-5725000D03*
D31*
X-85097500Y-4005025D03*
D22*
X-84879000Y-13725000D03*
%TD*%
D14*
%TO.P,SW53,1,1*%
%TO.N,/ROW 5*%
X-35489000Y-99695000D03*
D15*
X-34249000Y-99300000D03*
D16*
X-32949000Y-98875000D03*
D17*
X-32949000Y-111275000D03*
D18*
X-31749000Y-99300000D03*
D14*
X-30409000Y-99695000D03*
D19*
%TO.P,SW53,2,2*%
%TO.N,/COL 8*%
X-36759000Y-96825000D03*
D20*
X-35549000Y-96825000D03*
D21*
X-34599000Y-96825000D03*
D22*
%TO.P,SW53,3,3*%
%TO.N,unconnected-(SW53-Pad3)_12*%
X-38169000Y-108975000D03*
D16*
X-37949000Y-100975000D03*
D14*
X-36759000Y-102235000D03*
D17*
X-36749000Y-108575000D03*
D23*
X-36378000Y-103505000D03*
D24*
X-36378000Y-107569000D03*
D25*
X-36123999Y-105549445D03*
D26*
X-32949002Y-108585000D03*
D21*
X-31299000Y-96825000D03*
D20*
X-30449000Y-96825000D03*
D25*
X-29774001Y-105549445D03*
D27*
X-29520000Y-103505000D03*
D28*
X-29520000Y-107569000D03*
D17*
X-29149000Y-108575000D03*
D29*
X-29139000Y-96825000D03*
D14*
X-29139000Y-102235000D03*
D30*
X-28649000Y-97325000D03*
D16*
X-27949000Y-100975000D03*
D31*
X-27947500Y-99255025D03*
D22*
X-27729000Y-108975000D03*
%TD*%
D32*
%TO.P,U1,1,TX0/D3*%
%TO.N,/ROW 1*%
X-20884000Y-5080000D03*
X-4120000Y-6349996D03*
%TO.P,U1,2,RX1/D2*%
%TO.N,/ROW 0*%
X-20884000Y-7620000D03*
X-4120000Y-8889996D03*
%TO.P,U1,3,GND*%
%TO.N,GND*%
X-20884000Y-10160000D03*
X-4120000Y-11429996D03*
%TO.P,U1,4,GND*%
X-20884000Y-12700000D03*
X-4120000Y-13969996D03*
%TO.P,U1,5,2/D1/SDA*%
%TO.N,/ROW 2*%
X-20884000Y-15240000D03*
X-4120000Y-16509996D03*
%TO.P,U1,6,3/D0/SCL*%
%TO.N,/ROW 3*%
X-20884000Y-17780000D03*
X-4120000Y-19049996D03*
%TO.P,U1,7,4/D4*%
%TO.N,/ROW 4*%
X-20884000Y-20320000D03*
X-4120000Y-21589996D03*
%TO.P,U1,8,5/C6*%
%TO.N,/ROW 5*%
X-20884000Y-22860000D03*
X-4120000Y-24129996D03*
%TO.P,U1,9,6/D7*%
%TO.N,/COL 0*%
X-20884000Y-25400000D03*
X-4120000Y-26669996D03*
%TO.P,U1,10,7/E6*%
%TO.N,/COL 1*%
X-20884000Y-27940000D03*
X-4120000Y-29209996D03*
%TO.P,U1,11,8/B4*%
%TO.N,/COL 2*%
X-20884000Y-30480000D03*
X-4120000Y-31749996D03*
%TO.P,U1,12,9/B5*%
%TO.N,/COL 3*%
X-20884000Y-33020000D03*
X-4120000Y-34289996D03*
%TO.P,U1,13,B6/10*%
%TO.N,/COL 4*%
X-5644000Y-33020000D03*
D33*
X-6392000Y-33740000D03*
D32*
X-19360000Y-34289996D03*
D34*
X-13086199Y-34290000D03*
D32*
%TO.P,U1,14,B2/16*%
%TO.N,/COL 5*%
X-5644000Y-30480000D03*
D33*
X-6392000Y-31200000D03*
D32*
X-19360000Y-31749996D03*
D34*
X-13086199Y-31750000D03*
D32*
%TO.P,U1,15,B3/14*%
%TO.N,/COL 6*%
X-5644000Y-27940000D03*
D33*
X-6392000Y-28660000D03*
D32*
X-19360000Y-29209996D03*
D34*
X-13086199Y-29210000D03*
D32*
%TO.P,U1,16,B1/15*%
%TO.N,/COL 7*%
X-5644000Y-25400000D03*
D33*
X-6392000Y-26120000D03*
D32*
X-19360000Y-26669996D03*
D34*
X-13086199Y-26670000D03*
D32*
%TO.P,U1,17,F7/A0*%
%TO.N,/COL 8*%
X-5644000Y-22860000D03*
D33*
X-6392000Y-23580000D03*
D32*
X-19360000Y-24129996D03*
D34*
X-13086199Y-24130000D03*
D32*
%TO.P,U1,18,F6/A1*%
%TO.N,unconnected-(U1-F6{slash}A1-Pad18)_3*%
X-5644000Y-20320000D03*
D33*
X-6392000Y-21040000D03*
D32*
X-19360000Y-21589996D03*
D34*
X-13086199Y-21590000D03*
D32*
%TO.P,U1,19,F5/A2*%
%TO.N,unconnected-(U1-F5{slash}A2-Pad19)*%
X-5644000Y-17780000D03*
D33*
X-6392000Y-18500000D03*
D32*
X-19360000Y-19049996D03*
D34*
X-13086199Y-19050000D03*
D32*
%TO.P,U1,20,F4/A3*%
%TO.N,unconnected-(U1-F4{slash}A3-Pad20)_1*%
X-5644000Y-15240000D03*
D33*
X-6392000Y-15960000D03*
D32*
X-19360000Y-16509996D03*
D34*
X-13086199Y-16510000D03*
D32*
%TO.P,U1,21,VCC*%
%TO.N,VCC*%
X-5644000Y-12700000D03*
D33*
X-6392000Y-13420000D03*
D32*
X-19360000Y-13969996D03*
D34*
X-13086199Y-13970000D03*
D32*
%TO.P,U1,22,RST*%
%TO.N,Net-(U1-RST)*%
X-5644000Y-10160000D03*
D33*
X-6392000Y-10880000D03*
D32*
X-19360000Y-11429996D03*
D34*
X-13086199Y-11430000D03*
D32*
%TO.P,U1,23,GND*%
%TO.N,GND*%
X-5644000Y-7620000D03*
D33*
X-6392000Y-8340000D03*
D32*
X-19360000Y-8889996D03*
D34*
X-13086199Y-8890000D03*
D32*
%TO.P,U1,24,RAW*%
%TO.N,unconnected-(U1-RAW-Pad24)*%
X-5644000Y-5080000D03*
D33*
X-6392000Y-5800000D03*
D32*
X-19360000Y-6349996D03*
D34*
X-13086199Y-6350000D03*
D32*
%TO.P,U1,25,BAT+*%
%TO.N,+BATT*%
X-5644000Y-2540000D03*
D33*
X-6392000Y-3260000D03*
D32*
X-19360000Y-3809996D03*
D34*
X-13086199Y-3810000D03*
D32*
%TO.P,U1,26,GND*%
%TO.N,GND*%
X-20884000Y-2540000D03*
X-4120000Y-3810000D03*
%TD*%
D14*
%TO.P,SW37,1,1*%
%TO.N,/ROW 5*%
X-202176500Y-80645000D03*
D15*
X-200936500Y-80250000D03*
D16*
X-199636500Y-79825000D03*
D17*
X-199636500Y-92225000D03*
D18*
X-198436500Y-80250000D03*
D14*
X-197096500Y-80645000D03*
D19*
%TO.P,SW37,2,2*%
%TO.N,/COL 0*%
X-203446500Y-77775000D03*
D20*
X-202236500Y-77775000D03*
D21*
X-201286500Y-77775000D03*
D22*
%TO.P,SW37,3,3*%
%TO.N,unconnected-(SW37-Pad3)_14*%
X-204856500Y-89925000D03*
D16*
X-204636500Y-81925000D03*
D14*
X-203446500Y-83185000D03*
D17*
X-203436500Y-89525000D03*
D23*
X-203065500Y-84455000D03*
D24*
X-203065500Y-88519000D03*
D25*
X-202811499Y-86499445D03*
D26*
X-199636502Y-89535000D03*
D21*
X-197986500Y-77775000D03*
D20*
X-197136500Y-77775000D03*
D25*
X-196461501Y-86499445D03*
D27*
X-196207500Y-84455000D03*
D28*
X-196207500Y-88519000D03*
D17*
X-195836500Y-89525000D03*
D29*
X-195826500Y-77775000D03*
D14*
X-195826500Y-83185000D03*
D30*
X-195336500Y-78275000D03*
D16*
X-194636500Y-81925000D03*
D31*
X-194635000Y-80205025D03*
D22*
X-194416500Y-89925000D03*
%TD*%
D35*
%TO.P,J2,1,Pin_1*%
%TO.N,GND*%
X-14924000Y-41500000D03*
%TD*%
D14*
%TO.P,SW2,1,1*%
%TO.N,/ROW 0*%
X-187889000Y-4445000D03*
D15*
X-186649000Y-4050000D03*
D16*
X-185349000Y-3625000D03*
D17*
X-185349000Y-16025000D03*
D18*
X-184149000Y-4050000D03*
D14*
X-182809000Y-4445000D03*
D19*
%TO.P,SW2,2,2*%
%TO.N,/COL 0*%
X-189159000Y-1575000D03*
D20*
X-187949000Y-1575000D03*
D21*
X-186999000Y-1575000D03*
D22*
%TO.P,SW2,3,3*%
%TO.N,unconnected-(SW2-Pad3)_12*%
X-190569000Y-13725000D03*
D16*
X-190349000Y-5725000D03*
D14*
X-189159000Y-6985000D03*
D17*
X-189149000Y-13325000D03*
D23*
X-188778000Y-8255000D03*
D24*
X-188778000Y-12319000D03*
D25*
X-188523999Y-10299445D03*
D26*
X-185349002Y-13335000D03*
D21*
X-183699000Y-1575000D03*
D20*
X-182849000Y-1575000D03*
D25*
X-182174001Y-10299445D03*
D27*
X-181920000Y-8255000D03*
D28*
X-181920000Y-12319000D03*
D17*
X-181549000Y-13325000D03*
D29*
X-181539000Y-1575000D03*
D14*
X-181539000Y-6985000D03*
D30*
X-181049000Y-2075000D03*
D16*
X-180349000Y-5725000D03*
D31*
X-180347500Y-4005025D03*
D22*
X-180129000Y-13725000D03*
%TD*%
D14*
%TO.P,SW30,1,1*%
%TO.N,/ROW 3*%
X-173601500Y-61595000D03*
D15*
X-172361500Y-61200000D03*
D16*
X-171061500Y-60775000D03*
D17*
X-171061500Y-73175000D03*
D18*
X-169861500Y-61200000D03*
D14*
X-168521500Y-61595000D03*
D19*
%TO.P,SW30,2,2*%
%TO.N,/COL 1*%
X-174871500Y-58725000D03*
D20*
X-173661500Y-58725000D03*
D21*
X-172711500Y-58725000D03*
D22*
%TO.P,SW30,3,3*%
%TO.N,unconnected-(SW30-Pad3)_20*%
X-176281500Y-70875000D03*
D16*
X-176061500Y-62875000D03*
D14*
X-174871500Y-64135000D03*
D17*
X-174861500Y-70475000D03*
D23*
X-174490500Y-65405000D03*
D24*
X-174490500Y-69469000D03*
D25*
X-174236499Y-67449445D03*
D26*
X-171061502Y-70485000D03*
D21*
X-169411500Y-58725000D03*
D20*
X-168561500Y-58725000D03*
D25*
X-167886501Y-67449445D03*
D27*
X-167632500Y-65405000D03*
D28*
X-167632500Y-69469000D03*
D17*
X-167261500Y-70475000D03*
D29*
X-167251500Y-58725000D03*
D14*
X-167251500Y-64135000D03*
D30*
X-166761500Y-59225000D03*
D16*
X-166061500Y-62875000D03*
D31*
X-166060000Y-61155025D03*
D22*
X-165841500Y-70875000D03*
%TD*%
D14*
%TO.P,SW27,1,1*%
%TO.N,/ROW 2*%
X-59301500Y-42545000D03*
D15*
X-58061500Y-42150000D03*
D16*
X-56761500Y-41725000D03*
D17*
X-56761500Y-54125000D03*
D18*
X-55561500Y-42150000D03*
D14*
X-54221500Y-42545000D03*
D19*
%TO.P,SW27,2,2*%
%TO.N,/COL 7*%
X-60571500Y-39675000D03*
D20*
X-59361500Y-39675000D03*
D21*
X-58411500Y-39675000D03*
D22*
%TO.P,SW27,3,3*%
%TO.N,unconnected-(SW27-Pad3)_21*%
X-61981500Y-51825000D03*
D16*
X-61761500Y-43825000D03*
D14*
X-60571500Y-45085000D03*
D17*
X-60561500Y-51425000D03*
D23*
X-60190500Y-46355000D03*
D24*
X-60190500Y-50419000D03*
D25*
X-59936499Y-48399445D03*
D26*
X-56761502Y-51435000D03*
D21*
X-55111500Y-39675000D03*
D20*
X-54261500Y-39675000D03*
D25*
X-53586501Y-48399445D03*
D27*
X-53332500Y-46355000D03*
D28*
X-53332500Y-50419000D03*
D17*
X-52961500Y-51425000D03*
D29*
X-52951500Y-39675000D03*
D14*
X-52951500Y-45085000D03*
D30*
X-52461500Y-40175000D03*
D16*
X-51761500Y-43825000D03*
D31*
X-51760000Y-42105025D03*
D22*
X-51541500Y-51825000D03*
%TD*%
D14*
%TO.P,SW23,1,1*%
%TO.N,/ROW 2*%
X-140264000Y-42545000D03*
D15*
X-139024000Y-42150000D03*
D16*
X-137724000Y-41725000D03*
D17*
X-137724000Y-54125000D03*
D18*
X-136524000Y-42150000D03*
D14*
X-135184000Y-42545000D03*
D19*
%TO.P,SW23,2,2*%
%TO.N,/COL 3*%
X-141534000Y-39675000D03*
D20*
X-140324000Y-39675000D03*
D21*
X-139374000Y-39675000D03*
D22*
%TO.P,SW23,3,3*%
%TO.N,unconnected-(SW23-Pad3)_14*%
X-142944000Y-51825000D03*
D16*
X-142724000Y-43825000D03*
D14*
X-141534000Y-45085000D03*
D17*
X-141524000Y-51425000D03*
D23*
X-141153000Y-46355000D03*
D24*
X-141153000Y-50419000D03*
D25*
X-140898999Y-48399445D03*
D26*
X-137724002Y-51435000D03*
D21*
X-136074000Y-39675000D03*
D20*
X-135224000Y-39675000D03*
D25*
X-134549001Y-48399445D03*
D27*
X-134295000Y-46355000D03*
D28*
X-134295000Y-50419000D03*
D17*
X-133924000Y-51425000D03*
D29*
X-133914000Y-39675000D03*
D14*
X-133914000Y-45085000D03*
D30*
X-133424000Y-40175000D03*
D16*
X-132724000Y-43825000D03*
D31*
X-132722500Y-42105025D03*
D22*
X-132504000Y-51825000D03*
%TD*%
D14*
%TO.P,SW10,1,1*%
%TO.N,/ROW 0*%
X-35489000Y-4445000D03*
D15*
X-34249000Y-4050000D03*
D16*
X-32949000Y-3625000D03*
D17*
X-32949000Y-16025000D03*
D18*
X-31749000Y-4050000D03*
D14*
X-30409000Y-4445000D03*
D19*
%TO.P,SW10,2,2*%
%TO.N,/COL 8*%
X-36759000Y-1575000D03*
D20*
X-35549000Y-1575000D03*
D21*
X-34599000Y-1575000D03*
D22*
%TO.P,SW10,3,3*%
%TO.N,unconnected-(SW10-Pad3)_2*%
X-38169000Y-13725000D03*
D16*
X-37949000Y-5725000D03*
D14*
X-36759000Y-6985000D03*
D17*
X-36749000Y-13325000D03*
D23*
X-36378000Y-8255000D03*
D24*
X-36378000Y-12319000D03*
D25*
X-36123999Y-10299445D03*
D26*
X-32949002Y-13335000D03*
D21*
X-31299000Y-1575000D03*
D20*
X-30449000Y-1575000D03*
D25*
X-29774001Y-10299445D03*
D27*
X-29520000Y-8255000D03*
D28*
X-29520000Y-12319000D03*
D17*
X-29149000Y-13325000D03*
D29*
X-29139000Y-1575000D03*
D14*
X-29139000Y-6985000D03*
D30*
X-28649000Y-2075000D03*
D16*
X-27949000Y-5725000D03*
D31*
X-27947500Y-4005025D03*
D22*
X-27729000Y-13725000D03*
%TD*%
D14*
%TO.P,SW16,1,1*%
%TO.N,/ROW 1*%
X-111689000Y-23495000D03*
D15*
X-110449000Y-23100000D03*
D16*
X-109149000Y-22675000D03*
D17*
X-109149000Y-35075000D03*
D18*
X-107949000Y-23100000D03*
D14*
X-106609000Y-23495000D03*
D19*
%TO.P,SW16,2,2*%
%TO.N,/COL 5*%
X-112959000Y-20625000D03*
D20*
X-111749000Y-20625000D03*
D21*
X-110799000Y-20625000D03*
D22*
%TO.P,SW16,3,3*%
%TO.N,unconnected-(SW16-Pad3)_17*%
X-114369000Y-32775000D03*
D16*
X-114149000Y-24775000D03*
D14*
X-112959000Y-26035000D03*
D17*
X-112949000Y-32375000D03*
D23*
X-112578000Y-27305000D03*
D24*
X-112578000Y-31369000D03*
D25*
X-112323999Y-29349445D03*
D26*
X-109149002Y-32385000D03*
D21*
X-107499000Y-20625000D03*
D20*
X-106649000Y-20625000D03*
D25*
X-105974001Y-29349445D03*
D27*
X-105720000Y-27305000D03*
D28*
X-105720000Y-31369000D03*
D17*
X-105349000Y-32375000D03*
D29*
X-105339000Y-20625000D03*
D14*
X-105339000Y-26035000D03*
D30*
X-104849000Y-21125000D03*
D16*
X-104149000Y-24775000D03*
D31*
X-104147500Y-23055025D03*
D22*
X-103929000Y-32775000D03*
%TD*%
D14*
%TO.P,SW22,1,1*%
%TO.N,/ROW 2*%
X-159314000Y-42545000D03*
D15*
X-158074000Y-42150000D03*
D16*
X-156774000Y-41725000D03*
D17*
X-156774000Y-54125000D03*
D18*
X-155574000Y-42150000D03*
D14*
X-154234000Y-42545000D03*
D19*
%TO.P,SW22,2,2*%
%TO.N,/COL 2*%
X-160584000Y-39675000D03*
D20*
X-159374000Y-39675000D03*
D21*
X-158424000Y-39675000D03*
D22*
%TO.P,SW22,3,3*%
%TO.N,unconnected-(SW22-Pad3)_17*%
X-161994000Y-51825000D03*
D16*
X-161774000Y-43825000D03*
D14*
X-160584000Y-45085000D03*
D17*
X-160574000Y-51425000D03*
D23*
X-160203000Y-46355000D03*
D24*
X-160203000Y-50419000D03*
D25*
X-159948999Y-48399445D03*
D26*
X-156774002Y-51435000D03*
D21*
X-155124000Y-39675000D03*
D20*
X-154274000Y-39675000D03*
D25*
X-153599001Y-48399445D03*
D27*
X-153345000Y-46355000D03*
D28*
X-153345000Y-50419000D03*
D17*
X-152974000Y-51425000D03*
D29*
X-152964000Y-39675000D03*
D14*
X-152964000Y-45085000D03*
D30*
X-152474000Y-40175000D03*
D16*
X-151774000Y-43825000D03*
D31*
X-151772500Y-42105025D03*
D22*
X-151554000Y-51825000D03*
%TD*%
D14*
%TO.P,SW39,1,1*%
%TO.N,/ROW 4*%
X-164076500Y-80645000D03*
D15*
X-162836500Y-80250000D03*
D16*
X-161536500Y-79825000D03*
D17*
X-161536500Y-92225000D03*
D18*
X-160336500Y-80250000D03*
D14*
X-158996500Y-80645000D03*
D19*
%TO.P,SW39,2,2*%
%TO.N,/COL 2*%
X-165346500Y-77775000D03*
D20*
X-164136500Y-77775000D03*
D21*
X-163186500Y-77775000D03*
D22*
%TO.P,SW39,3,3*%
%TO.N,unconnected-(SW39-Pad3)_9*%
X-166756500Y-89925000D03*
D16*
X-166536500Y-81925000D03*
D14*
X-165346500Y-83185000D03*
D17*
X-165336500Y-89525000D03*
D23*
X-164965500Y-84455000D03*
D24*
X-164965500Y-88519000D03*
D25*
X-164711499Y-86499445D03*
D26*
X-161536502Y-89535000D03*
D21*
X-159886500Y-77775000D03*
D20*
X-159036500Y-77775000D03*
D25*
X-158361501Y-86499445D03*
D27*
X-158107500Y-84455000D03*
D28*
X-158107500Y-88519000D03*
D17*
X-157736500Y-89525000D03*
D29*
X-157726500Y-77775000D03*
D14*
X-157726500Y-83185000D03*
D30*
X-157236500Y-78275000D03*
D16*
X-156536500Y-81925000D03*
D31*
X-156535000Y-80205025D03*
D22*
X-156316500Y-89925000D03*
%TD*%
D14*
%TO.P,SW13,1,1*%
%TO.N,/ROW 1*%
X-168839000Y-23495000D03*
D15*
X-167599000Y-23100000D03*
D16*
X-166299000Y-22675000D03*
D17*
X-166299000Y-35075000D03*
D18*
X-165099000Y-23100000D03*
D14*
X-163759000Y-23495000D03*
D19*
%TO.P,SW13,2,2*%
%TO.N,/COL 2*%
X-170109000Y-20625000D03*
D20*
X-168899000Y-20625000D03*
D21*
X-167949000Y-20625000D03*
D22*
%TO.P,SW13,3,3*%
%TO.N,unconnected-(SW13-Pad3)_6*%
X-171519000Y-32775000D03*
D16*
X-171299000Y-24775000D03*
D14*
X-170109000Y-26035000D03*
D17*
X-170099000Y-32375000D03*
D23*
X-169728000Y-27305000D03*
D24*
X-169728000Y-31369000D03*
D25*
X-169473999Y-29349445D03*
D26*
X-166299002Y-32385000D03*
D21*
X-164649000Y-20625000D03*
D20*
X-163799000Y-20625000D03*
D25*
X-163124001Y-29349445D03*
D27*
X-162870000Y-27305000D03*
D28*
X-162870000Y-31369000D03*
D17*
X-162499000Y-32375000D03*
D29*
X-162489000Y-20625000D03*
D14*
X-162489000Y-26035000D03*
D30*
X-161999000Y-21125000D03*
D16*
X-161299000Y-24775000D03*
D31*
X-161297500Y-23055025D03*
D22*
X-161079000Y-32775000D03*
%TD*%
D14*
%TO.P,SW21,1,1*%
%TO.N,/ROW 2*%
X-178364000Y-42545000D03*
D15*
X-177124000Y-42150000D03*
D16*
X-175824000Y-41725000D03*
D17*
X-175824000Y-54125000D03*
D18*
X-174624000Y-42150000D03*
D14*
X-173284000Y-42545000D03*
D19*
%TO.P,SW21,2,2*%
%TO.N,/COL 1*%
X-179634000Y-39675000D03*
D20*
X-178424000Y-39675000D03*
D21*
X-177474000Y-39675000D03*
D22*
%TO.P,SW21,3,3*%
%TO.N,unconnected-(SW21-Pad3)_21*%
X-181044000Y-51825000D03*
D16*
X-180824000Y-43825000D03*
D14*
X-179634000Y-45085000D03*
D17*
X-179624000Y-51425000D03*
D23*
X-179253000Y-46355000D03*
D24*
X-179253000Y-50419000D03*
D25*
X-178998999Y-48399445D03*
D26*
X-175824002Y-51435000D03*
D21*
X-174174000Y-39675000D03*
D20*
X-173324000Y-39675000D03*
D25*
X-172649001Y-48399445D03*
D27*
X-172395000Y-46355000D03*
D28*
X-172395000Y-50419000D03*
D17*
X-172024000Y-51425000D03*
D29*
X-172014000Y-39675000D03*
D14*
X-172014000Y-45085000D03*
D30*
X-171524000Y-40175000D03*
D16*
X-170824000Y-43825000D03*
D31*
X-170822500Y-42105025D03*
D22*
X-170604000Y-51825000D03*
%TD*%
D14*
%TO.P,SW42,1,1*%
%TO.N,/ROW 4*%
X-106926500Y-80645000D03*
D15*
X-105686500Y-80250000D03*
D16*
X-104386500Y-79825000D03*
D17*
X-104386500Y-92225000D03*
D18*
X-103186500Y-80250000D03*
D14*
X-101846500Y-80645000D03*
D19*
%TO.P,SW42,2,2*%
%TO.N,/COL 5*%
X-108196500Y-77775000D03*
D20*
X-106986500Y-77775000D03*
D21*
X-106036500Y-77775000D03*
D22*
%TO.P,SW42,3,3*%
%TO.N,unconnected-(SW42-Pad3)_14*%
X-109606500Y-89925000D03*
D16*
X-109386500Y-81925000D03*
D14*
X-108196500Y-83185000D03*
D17*
X-108186500Y-89525000D03*
D23*
X-107815500Y-84455000D03*
D24*
X-107815500Y-88519000D03*
D25*
X-107561499Y-86499445D03*
D26*
X-104386502Y-89535000D03*
D21*
X-102736500Y-77775000D03*
D20*
X-101886500Y-77775000D03*
D25*
X-101211501Y-86499445D03*
D27*
X-100957500Y-84455000D03*
D28*
X-100957500Y-88519000D03*
D17*
X-100586500Y-89525000D03*
D29*
X-100576500Y-77775000D03*
D14*
X-100576500Y-83185000D03*
D30*
X-100086500Y-78275000D03*
D16*
X-99386500Y-81925000D03*
D31*
X-99385000Y-80205025D03*
D22*
X-99166500Y-89925000D03*
%TD*%
D14*
%TO.P,SW43,1,1*%
%TO.N,/ROW 4*%
X-80732750Y-80645000D03*
D15*
X-79492750Y-80250000D03*
D16*
X-78192750Y-79825000D03*
D17*
X-78192750Y-92225000D03*
D18*
X-76992750Y-80250000D03*
D14*
X-75652750Y-80645000D03*
D19*
%TO.P,SW43,2,2*%
%TO.N,/COL 6*%
X-82002750Y-77775000D03*
D20*
X-80792750Y-77775000D03*
D21*
X-79842750Y-77775000D03*
D22*
%TO.P,SW43,3,3*%
%TO.N,unconnected-(SW43-Pad3)_17*%
X-83412750Y-89925000D03*
D16*
X-83192750Y-81925000D03*
D14*
X-82002750Y-83185000D03*
D17*
X-81992750Y-89525000D03*
D23*
X-81621750Y-84455000D03*
D24*
X-81621750Y-88519000D03*
D25*
X-81367749Y-86499445D03*
D26*
X-78192752Y-89535000D03*
D21*
X-76542750Y-77775000D03*
D20*
X-75692750Y-77775000D03*
D25*
X-75017751Y-86499445D03*
D27*
X-74763750Y-84455000D03*
D28*
X-74763750Y-88519000D03*
D17*
X-74392750Y-89525000D03*
D29*
X-74382750Y-77775000D03*
D14*
X-74382750Y-83185000D03*
D30*
X-73892750Y-78275000D03*
D16*
X-73192750Y-81925000D03*
D31*
X-73191250Y-80205025D03*
D22*
X-72972750Y-89925000D03*
%TD*%
D14*
%TO.P,SW4,1,1*%
%TO.N,/ROW 0*%
X-149789000Y-4445000D03*
D15*
X-148549000Y-4050000D03*
D16*
X-147249000Y-3625000D03*
D17*
X-147249000Y-16025000D03*
D18*
X-146049000Y-4050000D03*
D14*
X-144709000Y-4445000D03*
D19*
%TO.P,SW4,2,2*%
%TO.N,/COL 2*%
X-151059000Y-1575000D03*
D20*
X-149849000Y-1575000D03*
D21*
X-148899000Y-1575000D03*
D22*
%TO.P,SW4,3,3*%
%TO.N,unconnected-(SW4-Pad3)_13*%
X-152469000Y-13725000D03*
D16*
X-152249000Y-5725000D03*
D14*
X-151059000Y-6985000D03*
D17*
X-151049000Y-13325000D03*
D23*
X-150678000Y-8255000D03*
D24*
X-150678000Y-12319000D03*
D25*
X-150423999Y-10299445D03*
D26*
X-147249002Y-13335000D03*
D21*
X-145599000Y-1575000D03*
D20*
X-144749000Y-1575000D03*
D25*
X-144074001Y-10299445D03*
D27*
X-143820000Y-8255000D03*
D28*
X-143820000Y-12319000D03*
D17*
X-143449000Y-13325000D03*
D29*
X-143439000Y-1575000D03*
D14*
X-143439000Y-6985000D03*
D30*
X-142949000Y-2075000D03*
D16*
X-142249000Y-5725000D03*
D31*
X-142247500Y-4005025D03*
D22*
X-142029000Y-13725000D03*
%TD*%
D14*
%TO.P,SW17,1,1*%
%TO.N,/ROW 1*%
X-92639000Y-23495000D03*
D15*
X-91399000Y-23100000D03*
D16*
X-90099000Y-22675000D03*
D17*
X-90099000Y-35075000D03*
D18*
X-88899000Y-23100000D03*
D14*
X-87559000Y-23495000D03*
D19*
%TO.P,SW17,2,2*%
%TO.N,/COL 6*%
X-93909000Y-20625000D03*
D20*
X-92699000Y-20625000D03*
D21*
X-91749000Y-20625000D03*
D22*
%TO.P,SW17,3,3*%
%TO.N,unconnected-(SW17-Pad3)_20*%
X-95319000Y-32775000D03*
D16*
X-95099000Y-24775000D03*
D14*
X-93909000Y-26035000D03*
D17*
X-93899000Y-32375000D03*
D23*
X-93528000Y-27305000D03*
D24*
X-93528000Y-31369000D03*
D25*
X-93273999Y-29349445D03*
D26*
X-90099002Y-32385000D03*
D21*
X-88449000Y-20625000D03*
D20*
X-87599000Y-20625000D03*
D25*
X-86924001Y-29349445D03*
D27*
X-86670000Y-27305000D03*
D28*
X-86670000Y-31369000D03*
D17*
X-86299000Y-32375000D03*
D29*
X-86289000Y-20625000D03*
D14*
X-86289000Y-26035000D03*
D30*
X-85799000Y-21125000D03*
D16*
X-85099000Y-24775000D03*
D31*
X-85097500Y-23055025D03*
D22*
X-84879000Y-32775000D03*
%TD*%
D14*
%TO.P,SW11,1,1*%
%TO.N,/ROW 2*%
X-206939000Y-23495000D03*
D15*
X-205699000Y-23100000D03*
D16*
X-204399000Y-22675000D03*
D17*
X-204399000Y-35075000D03*
D18*
X-203199000Y-23100000D03*
D14*
X-201859000Y-23495000D03*
D19*
%TO.P,SW11,2,2*%
%TO.N,/COL 0*%
X-208209000Y-20625000D03*
D20*
X-206999000Y-20625000D03*
D21*
X-206049000Y-20625000D03*
D22*
%TO.P,SW11,3,3*%
%TO.N,unconnected-(SW11-Pad3)_13*%
X-209619000Y-32775000D03*
D16*
X-209399000Y-24775000D03*
D14*
X-208209000Y-26035000D03*
D17*
X-208199000Y-32375000D03*
D23*
X-207828000Y-27305000D03*
D24*
X-207828000Y-31369000D03*
D25*
X-207573999Y-29349445D03*
D26*
X-204399002Y-32385000D03*
D21*
X-202749000Y-20625000D03*
D20*
X-201899000Y-20625000D03*
D25*
X-201224001Y-29349445D03*
D27*
X-200970000Y-27305000D03*
D28*
X-200970000Y-31369000D03*
D17*
X-200599000Y-32375000D03*
D29*
X-200589000Y-20625000D03*
D14*
X-200589000Y-26035000D03*
D30*
X-200099000Y-21125000D03*
D16*
X-199399000Y-24775000D03*
D31*
X-199397500Y-23055025D03*
D22*
X-199179000Y-32775000D03*
%TD*%
D14*
%TO.P,SW48,1,1*%
%TO.N,/ROW 5*%
X-135501500Y-99695000D03*
D15*
X-134261500Y-99300000D03*
D16*
X-132961500Y-98875000D03*
D17*
X-132961500Y-111275000D03*
D18*
X-131761500Y-99300000D03*
D14*
X-130421500Y-99695000D03*
D19*
%TO.P,SW48,2,2*%
%TO.N,/COL 3*%
X-136771500Y-96825000D03*
D20*
X-135561500Y-96825000D03*
D21*
X-134611500Y-96825000D03*
D22*
%TO.P,SW48,3,3*%
%TO.N,unconnected-(SW48-Pad3)*%
X-138181500Y-108975000D03*
D16*
X-137961500Y-100975000D03*
D14*
X-136771500Y-102235000D03*
D17*
X-136761500Y-108575000D03*
D23*
X-136390500Y-103505000D03*
D24*
X-136390500Y-107569000D03*
D25*
X-136136499Y-105549445D03*
D26*
X-132961502Y-108585000D03*
D21*
X-131311500Y-96825000D03*
D20*
X-130461500Y-96825000D03*
D25*
X-129786501Y-105549445D03*
D27*
X-129532500Y-103505000D03*
D28*
X-129532500Y-107569000D03*
D17*
X-129161500Y-108575000D03*
D29*
X-129151500Y-96825000D03*
D14*
X-129151500Y-102235000D03*
D30*
X-128661500Y-97325000D03*
D16*
X-127961500Y-100975000D03*
D31*
X-127960000Y-99255025D03*
D22*
X-127741500Y-108975000D03*
%TD*%
D14*
%TO.P,SW15,1,1*%
%TO.N,/ROW 1*%
X-130739000Y-23495000D03*
D15*
X-129499000Y-23100000D03*
D16*
X-128199000Y-22675000D03*
D17*
X-128199000Y-35075000D03*
D18*
X-126999000Y-23100000D03*
D14*
X-125659000Y-23495000D03*
D19*
%TO.P,SW15,2,2*%
%TO.N,/COL 4*%
X-132009000Y-20625000D03*
D20*
X-130799000Y-20625000D03*
D21*
X-129849000Y-20625000D03*
D22*
%TO.P,SW15,3,3*%
%TO.N,unconnected-(SW15-Pad3)_12*%
X-133419000Y-32775000D03*
D16*
X-133199000Y-24775000D03*
D14*
X-132009000Y-26035000D03*
D17*
X-131999000Y-32375000D03*
D23*
X-131628000Y-27305000D03*
D24*
X-131628000Y-31369000D03*
D25*
X-131373999Y-29349445D03*
D26*
X-128199002Y-32385000D03*
D21*
X-126549000Y-20625000D03*
D20*
X-125699000Y-20625000D03*
D25*
X-125024001Y-29349445D03*
D27*
X-124770000Y-27305000D03*
D28*
X-124770000Y-31369000D03*
D17*
X-124399000Y-32375000D03*
D29*
X-124389000Y-20625000D03*
D14*
X-124389000Y-26035000D03*
D30*
X-123899000Y-21125000D03*
D16*
X-123199000Y-24775000D03*
D31*
X-123197500Y-23055025D03*
D22*
X-122979000Y-32775000D03*
%TD*%
D14*
%TO.P,SW26,1,1*%
%TO.N,/ROW 2*%
X-83114000Y-42545000D03*
D15*
X-81874000Y-42150000D03*
D16*
X-80574000Y-41725000D03*
D17*
X-80574000Y-54125000D03*
D18*
X-79374000Y-42150000D03*
D14*
X-78034000Y-42545000D03*
D19*
%TO.P,SW26,2,2*%
%TO.N,/COL 6*%
X-84384000Y-39675000D03*
D20*
X-83174000Y-39675000D03*
D21*
X-82224000Y-39675000D03*
D22*
%TO.P,SW26,3,3*%
%TO.N,unconnected-(SW26-Pad3)_21*%
X-85794000Y-51825000D03*
D16*
X-85574000Y-43825000D03*
D14*
X-84384000Y-45085000D03*
D17*
X-84374000Y-51425000D03*
D23*
X-84003000Y-46355000D03*
D24*
X-84003000Y-50419000D03*
D25*
X-83748999Y-48399445D03*
D26*
X-80574002Y-51435000D03*
D21*
X-78924000Y-39675000D03*
D20*
X-78074000Y-39675000D03*
D25*
X-77399001Y-48399445D03*
D27*
X-77145000Y-46355000D03*
D28*
X-77145000Y-50419000D03*
D17*
X-76774000Y-51425000D03*
D29*
X-76764000Y-39675000D03*
D14*
X-76764000Y-45085000D03*
D30*
X-76274000Y-40175000D03*
D16*
X-75574000Y-43825000D03*
D31*
X-75572500Y-42105025D03*
D22*
X-75354000Y-51825000D03*
%TD*%
D14*
%TO.P,SW24,1,1*%
%TO.N,/ROW 2*%
X-121214000Y-42545000D03*
D15*
X-119974000Y-42150000D03*
D16*
X-118674000Y-41725000D03*
D17*
X-118674000Y-54125000D03*
D18*
X-117474000Y-42150000D03*
D14*
X-116134000Y-42545000D03*
D19*
%TO.P,SW24,2,2*%
%TO.N,/COL 4*%
X-122484000Y-39675000D03*
D20*
X-121274000Y-39675000D03*
D21*
X-120324000Y-39675000D03*
D22*
%TO.P,SW24,3,3*%
%TO.N,unconnected-(SW24-Pad3)_19*%
X-123894000Y-51825000D03*
D16*
X-123674000Y-43825000D03*
D14*
X-122484000Y-45085000D03*
D17*
X-122474000Y-51425000D03*
D23*
X-122103000Y-46355000D03*
D24*
X-122103000Y-50419000D03*
D25*
X-121848999Y-48399445D03*
D26*
X-118674002Y-51435000D03*
D21*
X-117024000Y-39675000D03*
D20*
X-116174000Y-39675000D03*
D25*
X-115499001Y-48399445D03*
D27*
X-115245000Y-46355000D03*
D28*
X-115245000Y-50419000D03*
D17*
X-114874000Y-51425000D03*
D29*
X-114864000Y-39675000D03*
D14*
X-114864000Y-45085000D03*
D30*
X-114374000Y-40175000D03*
D16*
X-113674000Y-43825000D03*
D31*
X-113672500Y-42105025D03*
D22*
X-113454000Y-51825000D03*
%TD*%
D14*
%TO.P,SW46,1,1*%
%TO.N,/ROW 5*%
X-183126500Y-99695000D03*
D15*
X-181886500Y-99300000D03*
D16*
X-180586500Y-98875000D03*
D17*
X-180586500Y-111275000D03*
D18*
X-179386500Y-99300000D03*
D14*
X-178046500Y-99695000D03*
D19*
%TO.P,SW46,2,2*%
%TO.N,/COL 1*%
X-184396500Y-96825000D03*
D20*
X-183186500Y-96825000D03*
D21*
X-182236500Y-96825000D03*
D22*
%TO.P,SW46,3,3*%
%TO.N,unconnected-(SW46-Pad3)_4*%
X-185806500Y-108975000D03*
D16*
X-185586500Y-100975000D03*
D14*
X-184396500Y-102235000D03*
D17*
X-184386500Y-108575000D03*
D23*
X-184015500Y-103505000D03*
D24*
X-184015500Y-107569000D03*
D25*
X-183761499Y-105549445D03*
D26*
X-180586502Y-108585000D03*
D21*
X-178936500Y-96825000D03*
D20*
X-178086500Y-96825000D03*
D25*
X-177411501Y-105549445D03*
D27*
X-177157500Y-103505000D03*
D28*
X-177157500Y-107569000D03*
D17*
X-176786500Y-108575000D03*
D29*
X-176776500Y-96825000D03*
D14*
X-176776500Y-102235000D03*
D30*
X-176286500Y-97325000D03*
D16*
X-175586500Y-100975000D03*
D31*
X-175585000Y-99255025D03*
D22*
X-175366500Y-108975000D03*
%TD*%
D14*
%TO.P,SW45,1,1*%
%TO.N,/ROW 4*%
X-35489000Y-80645000D03*
D15*
X-34249000Y-80250000D03*
D16*
X-32949000Y-79825000D03*
D17*
X-32949000Y-92225000D03*
D18*
X-31749000Y-80250000D03*
D14*
X-30409000Y-80645000D03*
D19*
%TO.P,SW45,2,2*%
%TO.N,/COL 8*%
X-36759000Y-77775000D03*
D20*
X-35549000Y-77775000D03*
D21*
X-34599000Y-77775000D03*
D22*
%TO.P,SW45,3,3*%
%TO.N,unconnected-(SW45-Pad3)_4*%
X-38169000Y-89925000D03*
D16*
X-37949000Y-81925000D03*
D14*
X-36759000Y-83185000D03*
D17*
X-36749000Y-89525000D03*
D23*
X-36378000Y-84455000D03*
D24*
X-36378000Y-88519000D03*
D25*
X-36123999Y-86499445D03*
D26*
X-32949002Y-89535000D03*
D21*
X-31299000Y-77775000D03*
D20*
X-30449000Y-77775000D03*
D25*
X-29774001Y-86499445D03*
D27*
X-29520000Y-84455000D03*
D28*
X-29520000Y-88519000D03*
D17*
X-29149000Y-89525000D03*
D29*
X-29139000Y-77775000D03*
D14*
X-29139000Y-83185000D03*
D30*
X-28649000Y-78275000D03*
D16*
X-27949000Y-81925000D03*
D31*
X-27947500Y-80205025D03*
D22*
X-27729000Y-89925000D03*
%TD*%
D14*
%TO.P,SW9,1,1*%
%TO.N,/ROW 0*%
X-54539000Y-4445000D03*
D15*
X-53299000Y-4050000D03*
D16*
X-51999000Y-3625000D03*
D17*
X-51999000Y-16025000D03*
D18*
X-50799000Y-4050000D03*
D14*
X-49459000Y-4445000D03*
D19*
%TO.P,SW9,2,2*%
%TO.N,/COL 7*%
X-55809000Y-1575000D03*
D20*
X-54599000Y-1575000D03*
D21*
X-53649000Y-1575000D03*
D22*
%TO.P,SW9,3,3*%
%TO.N,unconnected-(SW9-Pad3)_10*%
X-57219000Y-13725000D03*
D16*
X-56999000Y-5725000D03*
D14*
X-55809000Y-6985000D03*
D17*
X-55799000Y-13325000D03*
D23*
X-55428000Y-8255000D03*
D24*
X-55428000Y-12319000D03*
D25*
X-55173999Y-10299445D03*
D26*
X-51999002Y-13335000D03*
D21*
X-50349000Y-1575000D03*
D20*
X-49499000Y-1575000D03*
D25*
X-48824001Y-10299445D03*
D27*
X-48570000Y-8255000D03*
D28*
X-48570000Y-12319000D03*
D17*
X-48199000Y-13325000D03*
D29*
X-48189000Y-1575000D03*
D14*
X-48189000Y-6985000D03*
D30*
X-47699000Y-2075000D03*
D16*
X-46999000Y-5725000D03*
D31*
X-46997500Y-4005025D03*
D22*
X-46779000Y-13725000D03*
%TD*%
D14*
%TO.P,SW44,1,1*%
%TO.N,/ROW 4*%
X-54539000Y-80645000D03*
D15*
X-53299000Y-80250000D03*
D16*
X-51999000Y-79825000D03*
D17*
X-51999000Y-92225000D03*
D18*
X-50799000Y-80250000D03*
D14*
X-49459000Y-80645000D03*
D19*
%TO.P,SW44,2,2*%
%TO.N,/COL 7*%
X-55809000Y-77775000D03*
D20*
X-54599000Y-77775000D03*
D21*
X-53649000Y-77775000D03*
D22*
%TO.P,SW44,3,3*%
%TO.N,unconnected-(SW44-Pad3)_20*%
X-57219000Y-89925000D03*
D16*
X-56999000Y-81925000D03*
D14*
X-55809000Y-83185000D03*
D17*
X-55799000Y-89525000D03*
D23*
X-55428000Y-84455000D03*
D24*
X-55428000Y-88519000D03*
D25*
X-55173999Y-86499445D03*
D26*
X-51999002Y-89535000D03*
D21*
X-50349000Y-77775000D03*
D20*
X-49499000Y-77775000D03*
D25*
X-48824001Y-86499445D03*
D27*
X-48570000Y-84455000D03*
D28*
X-48570000Y-88519000D03*
D17*
X-48199000Y-89525000D03*
D29*
X-48189000Y-77775000D03*
D14*
X-48189000Y-83185000D03*
D30*
X-47699000Y-78275000D03*
D16*
X-46999000Y-81925000D03*
D31*
X-46997500Y-80205025D03*
D22*
X-46779000Y-89925000D03*
%TD*%
D14*
%TO.P,SW28,1,1*%
%TO.N,/ROW 2*%
X-35489000Y-42545000D03*
D15*
X-34249000Y-42150000D03*
D16*
X-32949000Y-41725000D03*
D17*
X-32949000Y-54125000D03*
D18*
X-31749000Y-42150000D03*
D14*
X-30409000Y-42545000D03*
D19*
%TO.P,SW28,2,2*%
%TO.N,/COL 8*%
X-36759000Y-39675000D03*
D20*
X-35549000Y-39675000D03*
D21*
X-34599000Y-39675000D03*
D22*
%TO.P,SW28,3,3*%
%TO.N,unconnected-(SW28-Pad3)_2*%
X-38169000Y-51825000D03*
D16*
X-37949000Y-43825000D03*
D14*
X-36759000Y-45085000D03*
D17*
X-36749000Y-51425000D03*
D23*
X-36378000Y-46355000D03*
D24*
X-36378000Y-50419000D03*
D25*
X-36123999Y-48399445D03*
D26*
X-32949002Y-51435000D03*
D21*
X-31299000Y-39675000D03*
D20*
X-30449000Y-39675000D03*
D25*
X-29774001Y-48399445D03*
D27*
X-29520000Y-46355000D03*
D28*
X-29520000Y-50419000D03*
D17*
X-29149000Y-51425000D03*
D29*
X-29139000Y-39675000D03*
D14*
X-29139000Y-45085000D03*
D30*
X-28649000Y-40175000D03*
D16*
X-27949000Y-43825000D03*
D31*
X-27947500Y-42105025D03*
D22*
X-27729000Y-51825000D03*
%TD*%
D14*
%TO.P,SW47,1,1*%
%TO.N,/ROW 5*%
X-154551500Y-99695000D03*
D15*
X-153311500Y-99300000D03*
D16*
X-152011500Y-98875000D03*
D17*
X-152011500Y-111275000D03*
D18*
X-150811500Y-99300000D03*
D14*
X-149471500Y-99695000D03*
D19*
%TO.P,SW47,2,2*%
%TO.N,/COL 2*%
X-155821500Y-96825000D03*
D20*
X-154611500Y-96825000D03*
D21*
X-153661500Y-96825000D03*
D22*
%TO.P,SW47,3,3*%
%TO.N,unconnected-(SW47-Pad3)_8*%
X-157231500Y-108975000D03*
D16*
X-157011500Y-100975000D03*
D14*
X-155821500Y-102235000D03*
D17*
X-155811500Y-108575000D03*
D23*
X-155440500Y-103505000D03*
D24*
X-155440500Y-107569000D03*
D25*
X-155186499Y-105549445D03*
D26*
X-152011502Y-108585000D03*
D21*
X-150361500Y-96825000D03*
D20*
X-149511500Y-96825000D03*
D25*
X-148836501Y-105549445D03*
D27*
X-148582500Y-103505000D03*
D28*
X-148582500Y-107569000D03*
D17*
X-148211500Y-108575000D03*
D29*
X-148201500Y-96825000D03*
D14*
X-148201500Y-102235000D03*
D30*
X-147711500Y-97325000D03*
D16*
X-147011500Y-100975000D03*
D31*
X-147010000Y-99255025D03*
D22*
X-146791500Y-108975000D03*
%TD*%
D14*
%TO.P,SW32,1,1*%
%TO.N,/ROW 3*%
X-135501500Y-61595000D03*
D15*
X-134261500Y-61200000D03*
D16*
X-132961500Y-60775000D03*
D17*
X-132961500Y-73175000D03*
D18*
X-131761500Y-61200000D03*
D14*
X-130421500Y-61595000D03*
D19*
%TO.P,SW32,2,2*%
%TO.N,/COL 3*%
X-136771500Y-58725000D03*
D20*
X-135561500Y-58725000D03*
D21*
X-134611500Y-58725000D03*
D22*
%TO.P,SW32,3,3*%
%TO.N,unconnected-(SW32-Pad3)_14*%
X-138181500Y-70875000D03*
D16*
X-137961500Y-62875000D03*
D14*
X-136771500Y-64135000D03*
D17*
X-136761500Y-70475000D03*
D23*
X-136390500Y-65405000D03*
D24*
X-136390500Y-69469000D03*
D25*
X-136136499Y-67449445D03*
D26*
X-132961502Y-70485000D03*
D21*
X-131311500Y-58725000D03*
D20*
X-130461500Y-58725000D03*
D25*
X-129786501Y-67449445D03*
D27*
X-129532500Y-65405000D03*
D28*
X-129532500Y-69469000D03*
D17*
X-129161500Y-70475000D03*
D29*
X-129151500Y-58725000D03*
D14*
X-129151500Y-64135000D03*
D30*
X-128661500Y-59225000D03*
D16*
X-127961500Y-62875000D03*
D31*
X-127960000Y-61155025D03*
D22*
X-127741500Y-70875000D03*
%TD*%
D14*
%TO.P,SW18,1,1*%
%TO.N,/ROW 1*%
X-64064000Y-23495000D03*
D15*
X-62824000Y-23100000D03*
D16*
X-61524000Y-22675000D03*
D17*
X-61524000Y-35075000D03*
D18*
X-60324000Y-23100000D03*
D14*
X-58984000Y-23495000D03*
D19*
%TO.P,SW18,2,2*%
%TO.N,/COL 7*%
X-65334000Y-20625000D03*
D20*
X-64124000Y-20625000D03*
D21*
X-63174000Y-20625000D03*
D22*
%TO.P,SW18,3,3*%
%TO.N,unconnected-(SW18-Pad3)_9*%
X-66744000Y-32775000D03*
D16*
X-66524000Y-24775000D03*
D14*
X-65334000Y-26035000D03*
D17*
X-65324000Y-32375000D03*
D23*
X-64953000Y-27305000D03*
D24*
X-64953000Y-31369000D03*
D25*
X-64698999Y-29349445D03*
D26*
X-61524002Y-32385000D03*
D21*
X-59874000Y-20625000D03*
D20*
X-59024000Y-20625000D03*
D25*
X-58349001Y-29349445D03*
D27*
X-58095000Y-27305000D03*
D28*
X-58095000Y-31369000D03*
D17*
X-57724000Y-32375000D03*
D29*
X-57714000Y-20625000D03*
D14*
X-57714000Y-26035000D03*
D30*
X-57224000Y-21125000D03*
D16*
X-56524000Y-24775000D03*
D31*
X-56522500Y-23055025D03*
D22*
X-56304000Y-32775000D03*
%TD*%
D14*
%TO.P,SW51,1,1*%
%TO.N,/ROW 5*%
X-73589000Y-99695000D03*
D15*
X-72349000Y-99300000D03*
D16*
X-71049000Y-98875000D03*
D17*
X-71049000Y-111275000D03*
D18*
X-69849000Y-99300000D03*
D14*
X-68509000Y-99695000D03*
D19*
%TO.P,SW51,2,2*%
%TO.N,/COL 6*%
X-74859000Y-96825000D03*
D20*
X-73649000Y-96825000D03*
D21*
X-72699000Y-96825000D03*
D22*
%TO.P,SW51,3,3*%
%TO.N,unconnected-(SW51-Pad3)_11*%
X-76269000Y-108975000D03*
D16*
X-76049000Y-100975000D03*
D14*
X-74859000Y-102235000D03*
D17*
X-74849000Y-108575000D03*
D23*
X-74478000Y-103505000D03*
D24*
X-74478000Y-107569000D03*
D25*
X-74223999Y-105549445D03*
D26*
X-71049002Y-108585000D03*
D21*
X-69399000Y-96825000D03*
D20*
X-68549000Y-96825000D03*
D25*
X-67874001Y-105549445D03*
D27*
X-67620000Y-103505000D03*
D28*
X-67620000Y-107569000D03*
D17*
X-67249000Y-108575000D03*
D29*
X-67239000Y-96825000D03*
D14*
X-67239000Y-102235000D03*
D30*
X-66749000Y-97325000D03*
D16*
X-66049000Y-100975000D03*
D31*
X-66047500Y-99255025D03*
D22*
X-65829000Y-108975000D03*
%TD*%
D14*
%TO.P,SW49,1,1*%
%TO.N,/ROW 5*%
X-116451500Y-99695000D03*
D15*
X-115211500Y-99300000D03*
D16*
X-113911500Y-98875000D03*
D17*
X-113911500Y-111275000D03*
D18*
X-112711500Y-99300000D03*
D14*
X-111371500Y-99695000D03*
D19*
%TO.P,SW49,2,2*%
%TO.N,/COL 4*%
X-117721500Y-96825000D03*
D20*
X-116511500Y-96825000D03*
D21*
X-115561500Y-96825000D03*
D22*
%TO.P,SW49,3,3*%
%TO.N,unconnected-(SW49-Pad3)_7*%
X-119131500Y-108975000D03*
D16*
X-118911500Y-100975000D03*
D14*
X-117721500Y-102235000D03*
D17*
X-117711500Y-108575000D03*
D23*
X-117340500Y-103505000D03*
D24*
X-117340500Y-107569000D03*
D25*
X-117086499Y-105549445D03*
D26*
X-113911502Y-108585000D03*
D21*
X-112261500Y-96825000D03*
D20*
X-111411500Y-96825000D03*
D25*
X-110736501Y-105549445D03*
D27*
X-110482500Y-103505000D03*
D28*
X-110482500Y-107569000D03*
D17*
X-110111500Y-108575000D03*
D29*
X-110101500Y-96825000D03*
D14*
X-110101500Y-102235000D03*
D30*
X-109611500Y-97325000D03*
D16*
X-108911500Y-100975000D03*
D31*
X-108910000Y-99255025D03*
D22*
X-108691500Y-108975000D03*
%TD*%
D14*
%TO.P,SW14,1,1*%
%TO.N,/ROW 1*%
X-149789000Y-23495000D03*
D15*
X-148549000Y-23100000D03*
D16*
X-147249000Y-22675000D03*
D17*
X-147249000Y-35075000D03*
D18*
X-146049000Y-23100000D03*
D14*
X-144709000Y-23495000D03*
D19*
%TO.P,SW14,2,2*%
%TO.N,/COL 3*%
X-151059000Y-20625000D03*
D20*
X-149849000Y-20625000D03*
D21*
X-148899000Y-20625000D03*
D22*
%TO.P,SW14,3,3*%
%TO.N,unconnected-(SW14-Pad3)_5*%
X-152469000Y-32775000D03*
D16*
X-152249000Y-24775000D03*
D14*
X-151059000Y-26035000D03*
D17*
X-151049000Y-32375000D03*
D23*
X-150678000Y-27305000D03*
D24*
X-150678000Y-31369000D03*
D25*
X-150423999Y-29349445D03*
D26*
X-147249002Y-32385000D03*
D21*
X-145599000Y-20625000D03*
D20*
X-144749000Y-20625000D03*
D25*
X-144074001Y-29349445D03*
D27*
X-143820000Y-27305000D03*
D28*
X-143820000Y-31369000D03*
D17*
X-143449000Y-32375000D03*
D29*
X-143439000Y-20625000D03*
D14*
X-143439000Y-26035000D03*
D30*
X-142949000Y-21125000D03*
D16*
X-142249000Y-24775000D03*
D31*
X-142247500Y-23055025D03*
D22*
X-142029000Y-32775000D03*
%TD*%
D14*
%TO.P,SW3,1,1*%
%TO.N,/ROW 0*%
X-168839000Y-4445000D03*
D15*
X-167599000Y-4050000D03*
D16*
X-166299000Y-3625000D03*
D17*
X-166299000Y-16025000D03*
D18*
X-165099000Y-4050000D03*
D14*
X-163759000Y-4445000D03*
D19*
%TO.P,SW3,2,2*%
%TO.N,/COL 1*%
X-170109000Y-1575000D03*
D20*
X-168899000Y-1575000D03*
D21*
X-167949000Y-1575000D03*
D22*
%TO.P,SW3,3,3*%
%TO.N,unconnected-(SW3-Pad3)_15*%
X-171519000Y-13725000D03*
D16*
X-171299000Y-5725000D03*
D14*
X-170109000Y-6985000D03*
D17*
X-170099000Y-13325000D03*
D23*
X-169728000Y-8255000D03*
D24*
X-169728000Y-12319000D03*
D25*
X-169473999Y-10299445D03*
D26*
X-166299002Y-13335000D03*
D21*
X-164649000Y-1575000D03*
D20*
X-163799000Y-1575000D03*
D25*
X-163124001Y-10299445D03*
D27*
X-162870000Y-8255000D03*
D28*
X-162870000Y-12319000D03*
D17*
X-162499000Y-13325000D03*
D29*
X-162489000Y-1575000D03*
D14*
X-162489000Y-6985000D03*
D30*
X-161999000Y-2075000D03*
D16*
X-161299000Y-5725000D03*
D31*
X-161297500Y-4005025D03*
D22*
X-161079000Y-13725000D03*
%TD*%
D14*
%TO.P,SW31,1,1*%
%TO.N,/ROW 3*%
X-154551500Y-61595000D03*
D15*
X-153311500Y-61200000D03*
D16*
X-152011500Y-60775000D03*
D17*
X-152011500Y-73175000D03*
D18*
X-150811500Y-61200000D03*
D14*
X-149471500Y-61595000D03*
D19*
%TO.P,SW31,2,2*%
%TO.N,/COL 2*%
X-155821500Y-58725000D03*
D20*
X-154611500Y-58725000D03*
D21*
X-153661500Y-58725000D03*
D22*
%TO.P,SW31,3,3*%
%TO.N,unconnected-(SW31-Pad3)_14*%
X-157231500Y-70875000D03*
D16*
X-157011500Y-62875000D03*
D14*
X-155821500Y-64135000D03*
D17*
X-155811500Y-70475000D03*
D23*
X-155440500Y-65405000D03*
D24*
X-155440500Y-69469000D03*
D25*
X-155186499Y-67449445D03*
D26*
X-152011502Y-70485000D03*
D21*
X-150361500Y-58725000D03*
D20*
X-149511500Y-58725000D03*
D25*
X-148836501Y-67449445D03*
D27*
X-148582500Y-65405000D03*
D28*
X-148582500Y-69469000D03*
D17*
X-148211500Y-70475000D03*
D29*
X-148201500Y-58725000D03*
D14*
X-148201500Y-64135000D03*
D30*
X-147711500Y-59225000D03*
D16*
X-147011500Y-62875000D03*
D31*
X-147010000Y-61155025D03*
D22*
X-146791500Y-70875000D03*
%TD*%
D14*
%TO.P,SW1,1,1*%
%TO.N,/ROW 1*%
X-206939000Y-4445000D03*
D15*
X-205699000Y-4050000D03*
D16*
X-204399000Y-3625000D03*
D17*
X-204399000Y-16025000D03*
D18*
X-203199000Y-4050000D03*
D14*
X-201859000Y-4445000D03*
D19*
%TO.P,SW1,2,2*%
%TO.N,/COL 0*%
X-208209000Y-1575000D03*
D20*
X-206999000Y-1575000D03*
D21*
X-206049000Y-1575000D03*
D22*
%TO.P,SW1,3,3*%
%TO.N,unconnected-(SW1-Pad3)_21*%
X-209619000Y-13725000D03*
D16*
X-209399000Y-5725000D03*
D14*
X-208209000Y-6985000D03*
D17*
X-208199000Y-13325000D03*
D23*
X-207828000Y-8255000D03*
D24*
X-207828000Y-12319000D03*
D25*
X-207573999Y-10299445D03*
D26*
X-204399002Y-13335000D03*
D21*
X-202749000Y-1575000D03*
D20*
X-201899000Y-1575000D03*
D25*
X-201224001Y-10299445D03*
D27*
X-200970000Y-8255000D03*
D28*
X-200970000Y-12319000D03*
D17*
X-200599000Y-13325000D03*
D29*
X-200589000Y-1575000D03*
D14*
X-200589000Y-6985000D03*
D30*
X-200099000Y-2075000D03*
D16*
X-199399000Y-5725000D03*
D31*
X-199397500Y-4005025D03*
D22*
X-199179000Y-13725000D03*
%TD*%
D14*
%TO.P,SW25,1,1*%
%TO.N,/ROW 2*%
X-102164000Y-42545000D03*
D15*
X-100924000Y-42150000D03*
D16*
X-99624000Y-41725000D03*
D17*
X-99624000Y-54125000D03*
D18*
X-98424000Y-42150000D03*
D14*
X-97084000Y-42545000D03*
D19*
%TO.P,SW25,2,2*%
%TO.N,/COL 5*%
X-103434000Y-39675000D03*
D20*
X-102224000Y-39675000D03*
D21*
X-101274000Y-39675000D03*
D22*
%TO.P,SW25,3,3*%
%TO.N,unconnected-(SW25-Pad3)_18*%
X-104844000Y-51825000D03*
D16*
X-104624000Y-43825000D03*
D14*
X-103434000Y-45085000D03*
D17*
X-103424000Y-51425000D03*
D23*
X-103053000Y-46355000D03*
D24*
X-103053000Y-50419000D03*
D25*
X-102798999Y-48399445D03*
D26*
X-99624002Y-51435000D03*
D21*
X-97974000Y-39675000D03*
D20*
X-97124000Y-39675000D03*
D25*
X-96449001Y-48399445D03*
D27*
X-96195000Y-46355000D03*
D28*
X-96195000Y-50419000D03*
D17*
X-95824000Y-51425000D03*
D29*
X-95814000Y-39675000D03*
D14*
X-95814000Y-45085000D03*
D30*
X-95324000Y-40175000D03*
D16*
X-94624000Y-43825000D03*
D31*
X-94622500Y-42105025D03*
D22*
X-94404000Y-51825000D03*
%TD*%
D14*
%TO.P,SW19,1,1*%
%TO.N,/ROW 1*%
X-35489000Y-23495000D03*
D15*
X-34249000Y-23100000D03*
D16*
X-32949000Y-22675000D03*
D17*
X-32949000Y-35075000D03*
D18*
X-31749000Y-23100000D03*
D14*
X-30409000Y-23495000D03*
D19*
%TO.P,SW19,2,2*%
%TO.N,/COL 8*%
X-36759000Y-20625000D03*
D20*
X-35549000Y-20625000D03*
D21*
X-34599000Y-20625000D03*
D22*
%TO.P,SW19,3,3*%
%TO.N,unconnected-(SW19-Pad3)_8*%
X-38169000Y-32775000D03*
D16*
X-37949000Y-24775000D03*
D14*
X-36759000Y-26035000D03*
D17*
X-36749000Y-32375000D03*
D23*
X-36378000Y-27305000D03*
D24*
X-36378000Y-31369000D03*
D25*
X-36123999Y-29349445D03*
D26*
X-32949002Y-32385000D03*
D21*
X-31299000Y-20625000D03*
D20*
X-30449000Y-20625000D03*
D25*
X-29774001Y-29349445D03*
D27*
X-29520000Y-27305000D03*
D28*
X-29520000Y-31369000D03*
D17*
X-29149000Y-32375000D03*
D29*
X-29139000Y-20625000D03*
D14*
X-29139000Y-26035000D03*
D30*
X-28649000Y-21125000D03*
D16*
X-27949000Y-24775000D03*
D31*
X-27947500Y-23055025D03*
D22*
X-27729000Y-32775000D03*
%TD*%
D14*
%TO.P,SW34,1,1*%
%TO.N,/ROW 3*%
X-97401500Y-61595000D03*
D15*
X-96161500Y-61200000D03*
D16*
X-94861500Y-60775000D03*
D17*
X-94861500Y-73175000D03*
D18*
X-93661500Y-61200000D03*
D14*
X-92321500Y-61595000D03*
D19*
%TO.P,SW34,2,2*%
%TO.N,/COL 5*%
X-98671500Y-58725000D03*
D20*
X-97461500Y-58725000D03*
D21*
X-96511500Y-58725000D03*
D22*
%TO.P,SW34,3,3*%
%TO.N,unconnected-(SW34-Pad3)_19*%
X-100081500Y-70875000D03*
D16*
X-99861500Y-62875000D03*
D14*
X-98671500Y-64135000D03*
D17*
X-98661500Y-70475000D03*
D23*
X-98290500Y-65405000D03*
D24*
X-98290500Y-69469000D03*
D25*
X-98036499Y-67449445D03*
D26*
X-94861502Y-70485000D03*
D21*
X-93211500Y-58725000D03*
D20*
X-92361500Y-58725000D03*
D25*
X-91686501Y-67449445D03*
D27*
X-91432500Y-65405000D03*
D28*
X-91432500Y-69469000D03*
D17*
X-91061500Y-70475000D03*
D29*
X-91051500Y-58725000D03*
D14*
X-91051500Y-64135000D03*
D30*
X-90561500Y-59225000D03*
D16*
X-89861500Y-62875000D03*
D31*
X-89860000Y-61155025D03*
D22*
X-89641500Y-70875000D03*
%TD*%
D14*
%TO.P,SW33,1,1*%
%TO.N,/ROW 3*%
X-116451500Y-61595000D03*
D15*
X-115211500Y-61200000D03*
D16*
X-113911500Y-60775000D03*
D17*
X-113911500Y-73175000D03*
D18*
X-112711500Y-61200000D03*
D14*
X-111371500Y-61595000D03*
D19*
%TO.P,SW33,2,2*%
%TO.N,/COL 4*%
X-117721500Y-58725000D03*
D20*
X-116511500Y-58725000D03*
D21*
X-115561500Y-58725000D03*
D22*
%TO.P,SW33,3,3*%
%TO.N,unconnected-(SW33-Pad3)_15*%
X-119131500Y-70875000D03*
D16*
X-118911500Y-62875000D03*
D14*
X-117721500Y-64135000D03*
D17*
X-117711500Y-70475000D03*
D23*
X-117340500Y-65405000D03*
D24*
X-117340500Y-69469000D03*
D25*
X-117086499Y-67449445D03*
D26*
X-113911502Y-70485000D03*
D21*
X-112261500Y-58725000D03*
D20*
X-111411500Y-58725000D03*
D25*
X-110736501Y-67449445D03*
D27*
X-110482500Y-65405000D03*
D28*
X-110482500Y-69469000D03*
D17*
X-110111500Y-70475000D03*
D29*
X-110101500Y-58725000D03*
D14*
X-110101500Y-64135000D03*
D30*
X-109611500Y-59225000D03*
D16*
X-108911500Y-62875000D03*
D31*
X-108910000Y-61155025D03*
D22*
X-108691500Y-70875000D03*
%TD*%
D14*
%TO.P,SW12,1,1*%
%TO.N,/ROW 1*%
X-187889000Y-23495000D03*
D15*
X-186649000Y-23100000D03*
D16*
X-185349000Y-22675000D03*
D17*
X-185349000Y-35075000D03*
D18*
X-184149000Y-23100000D03*
D14*
X-182809000Y-23495000D03*
D19*
%TO.P,SW12,2,2*%
%TO.N,/COL 1*%
X-189159000Y-20625000D03*
D20*
X-187949000Y-20625000D03*
D21*
X-186999000Y-20625000D03*
D22*
%TO.P,SW12,3,3*%
%TO.N,unconnected-(SW12-Pad3)_10*%
X-190569000Y-32775000D03*
D16*
X-190349000Y-24775000D03*
D14*
X-189159000Y-26035000D03*
D17*
X-189149000Y-32375000D03*
D23*
X-188778000Y-27305000D03*
D24*
X-188778000Y-31369000D03*
D25*
X-188523999Y-29349445D03*
D26*
X-185349002Y-32385000D03*
D21*
X-183699000Y-20625000D03*
D20*
X-182849000Y-20625000D03*
D25*
X-182174001Y-29349445D03*
D27*
X-181920000Y-27305000D03*
D28*
X-181920000Y-31369000D03*
D17*
X-181549000Y-32375000D03*
D29*
X-181539000Y-20625000D03*
D14*
X-181539000Y-26035000D03*
D30*
X-181049000Y-21125000D03*
D16*
X-180349000Y-24775000D03*
D31*
X-180347500Y-23055025D03*
D22*
X-180129000Y-32775000D03*
%TD*%
D35*
%TO.P,J1,1,Pin_1*%
%TO.N,+BATT*%
X-8424000Y-41500000D03*
%TD*%
D14*
%TO.P,SW6,1,1*%
%TO.N,/ROW 0*%
X-111689000Y-4445000D03*
D15*
X-110449000Y-4050000D03*
D16*
X-109149000Y-3625000D03*
D17*
X-109149000Y-16025000D03*
D18*
X-107949000Y-4050000D03*
D14*
X-106609000Y-4445000D03*
D19*
%TO.P,SW6,2,2*%
%TO.N,/COL 4*%
X-112959000Y-1575000D03*
D20*
X-111749000Y-1575000D03*
D21*
X-110799000Y-1575000D03*
D22*
%TO.P,SW6,3,3*%
%TO.N,unconnected-(SW6-Pad3)_9*%
X-114369000Y-13725000D03*
D16*
X-114149000Y-5725000D03*
D14*
X-112959000Y-6985000D03*
D17*
X-112949000Y-13325000D03*
D23*
X-112578000Y-8255000D03*
D24*
X-112578000Y-12319000D03*
D25*
X-112323999Y-10299445D03*
D26*
X-109149002Y-13335000D03*
D21*
X-107499000Y-1575000D03*
D20*
X-106649000Y-1575000D03*
D25*
X-105974001Y-10299445D03*
D27*
X-105720000Y-8255000D03*
D28*
X-105720000Y-12319000D03*
D17*
X-105349000Y-13325000D03*
D29*
X-105339000Y-1575000D03*
D14*
X-105339000Y-6985000D03*
D30*
X-104849000Y-2075000D03*
D16*
X-104149000Y-5725000D03*
D31*
X-104147500Y-4005025D03*
D22*
X-103929000Y-13725000D03*
%TD*%
D14*
%TO.P,SW52,1,1*%
%TO.N,/ROW 5*%
X-54539000Y-99695000D03*
D15*
X-53299000Y-99300000D03*
D16*
X-51999000Y-98875000D03*
D17*
X-51999000Y-111275000D03*
D18*
X-50799000Y-99300000D03*
D14*
X-49459000Y-99695000D03*
D19*
%TO.P,SW52,2,2*%
%TO.N,/COL 7*%
X-55809000Y-96825000D03*
D20*
X-54599000Y-96825000D03*
D21*
X-53649000Y-96825000D03*
D22*
%TO.P,SW52,3,3*%
%TO.N,unconnected-(SW52-Pad3)_13*%
X-57219000Y-108975000D03*
D16*
X-56999000Y-100975000D03*
D14*
X-55809000Y-102235000D03*
D17*
X-55799000Y-108575000D03*
D23*
X-55428000Y-103505000D03*
D24*
X-55428000Y-107569000D03*
D25*
X-55173999Y-105549445D03*
D26*
X-51999002Y-108585000D03*
D21*
X-50349000Y-96825000D03*
D20*
X-49499000Y-96825000D03*
D25*
X-48824001Y-105549445D03*
D27*
X-48570000Y-103505000D03*
D28*
X-48570000Y-107569000D03*
D17*
X-48199000Y-108575000D03*
D29*
X-48189000Y-96825000D03*
D14*
X-48189000Y-102235000D03*
D30*
X-47699000Y-97325000D03*
D16*
X-46999000Y-100975000D03*
D31*
X-46997500Y-99255025D03*
D22*
X-46779000Y-108975000D03*
%TD*%
D14*
%TO.P,SW50,1,1*%
%TO.N,/ROW 5*%
X-95020250Y-99695000D03*
D15*
X-93780250Y-99300000D03*
D16*
X-92480250Y-98875000D03*
D17*
X-92480250Y-111275000D03*
D18*
X-91280250Y-99300000D03*
D14*
X-89940250Y-99695000D03*
D19*
%TO.P,SW50,2,2*%
%TO.N,/COL 5*%
X-96290250Y-96825000D03*
D20*
X-95080250Y-96825000D03*
D21*
X-94130250Y-96825000D03*
D22*
%TO.P,SW50,3,3*%
%TO.N,unconnected-(SW50-Pad3)_20*%
X-97700250Y-108975000D03*
D16*
X-97480250Y-100975000D03*
D14*
X-96290250Y-102235000D03*
D17*
X-96280250Y-108575000D03*
D23*
X-95909250Y-103505000D03*
D24*
X-95909250Y-107569000D03*
D25*
X-95655249Y-105549445D03*
D26*
X-92480252Y-108585000D03*
D21*
X-90830250Y-96825000D03*
D20*
X-89980250Y-96825000D03*
D25*
X-89305251Y-105549445D03*
D27*
X-89051250Y-103505000D03*
D28*
X-89051250Y-107569000D03*
D17*
X-88680250Y-108575000D03*
D29*
X-88670250Y-96825000D03*
D14*
X-88670250Y-102235000D03*
D30*
X-88180250Y-97325000D03*
D16*
X-87480250Y-100975000D03*
D31*
X-87478750Y-99255025D03*
D22*
X-87260250Y-108975000D03*
%TD*%
D14*
%TO.P,SW36,1,1*%
%TO.N,/ROW 3*%
X-35489000Y-61595000D03*
D15*
X-34249000Y-61200000D03*
D16*
X-32949000Y-60775000D03*
D17*
X-32949000Y-73175000D03*
D18*
X-31749000Y-61200000D03*
D14*
X-30409000Y-61595000D03*
D19*
%TO.P,SW36,2,2*%
%TO.N,/COL 7*%
X-36759000Y-58725000D03*
D20*
X-35549000Y-58725000D03*
D21*
X-34599000Y-58725000D03*
D22*
%TO.P,SW36,3,3*%
%TO.N,unconnected-(SW36-Pad3)_5*%
X-38169000Y-70875000D03*
D16*
X-37949000Y-62875000D03*
D14*
X-36759000Y-64135000D03*
D17*
X-36749000Y-70475000D03*
D23*
X-36378000Y-65405000D03*
D24*
X-36378000Y-69469000D03*
D25*
X-36123999Y-67449445D03*
D26*
X-32949002Y-70485000D03*
D21*
X-31299000Y-58725000D03*
D20*
X-30449000Y-58725000D03*
D25*
X-29774001Y-67449445D03*
D27*
X-29520000Y-65405000D03*
D28*
X-29520000Y-69469000D03*
D17*
X-29149000Y-70475000D03*
D29*
X-29139000Y-58725000D03*
D14*
X-29139000Y-64135000D03*
D30*
X-28649000Y-59225000D03*
D16*
X-27949000Y-62875000D03*
D31*
X-27947500Y-61155025D03*
D22*
X-27729000Y-70875000D03*
%TD*%
D14*
%TO.P,SW5,1,1*%
%TO.N,/ROW 0*%
X-130739000Y-4445000D03*
D15*
X-129499000Y-4050000D03*
D16*
X-128199000Y-3625000D03*
D17*
X-128199000Y-16025000D03*
D18*
X-126999000Y-4050000D03*
D14*
X-125659000Y-4445000D03*
D19*
%TO.P,SW5,2,2*%
%TO.N,/COL 3*%
X-132009000Y-1575000D03*
D20*
X-130799000Y-1575000D03*
D21*
X-129849000Y-1575000D03*
D22*
%TO.P,SW5,3,3*%
%TO.N,unconnected-(SW5-Pad3)_14*%
X-133419000Y-13725000D03*
D16*
X-133199000Y-5725000D03*
D14*
X-132009000Y-6985000D03*
D17*
X-131999000Y-13325000D03*
D23*
X-131628000Y-8255000D03*
D24*
X-131628000Y-12319000D03*
D25*
X-131373999Y-10299445D03*
D26*
X-128199002Y-13335000D03*
D21*
X-126549000Y-1575000D03*
D20*
X-125699000Y-1575000D03*
D25*
X-125024001Y-10299445D03*
D27*
X-124770000Y-8255000D03*
D28*
X-124770000Y-12319000D03*
D17*
X-124399000Y-13325000D03*
D29*
X-124389000Y-1575000D03*
D14*
X-124389000Y-6985000D03*
D30*
X-123899000Y-2075000D03*
D16*
X-123199000Y-5725000D03*
D31*
X-123197500Y-4005025D03*
D22*
X-122979000Y-13725000D03*
%TD*%
D14*
%TO.P,SW38,1,1*%
%TO.N,/ROW 4*%
X-183126500Y-80645000D03*
D15*
X-181886500Y-80250000D03*
D16*
X-180586500Y-79825000D03*
D17*
X-180586500Y-92225000D03*
D18*
X-179386500Y-80250000D03*
D14*
X-178046500Y-80645000D03*
D19*
%TO.P,SW38,2,2*%
%TO.N,/COL 1*%
X-184396500Y-77775000D03*
D20*
X-183186500Y-77775000D03*
D21*
X-182236500Y-77775000D03*
D22*
%TO.P,SW38,3,3*%
%TO.N,unconnected-(SW38-Pad3)*%
X-185806500Y-89925000D03*
D16*
X-185586500Y-81925000D03*
D14*
X-184396500Y-83185000D03*
D17*
X-184386500Y-89525000D03*
D23*
X-184015500Y-84455000D03*
D24*
X-184015500Y-88519000D03*
D25*
X-183761499Y-86499445D03*
D26*
X-180586502Y-89535000D03*
D21*
X-178936500Y-77775000D03*
D20*
X-178086500Y-77775000D03*
D25*
X-177411501Y-86499445D03*
D27*
X-177157500Y-84455000D03*
D28*
X-177157500Y-88519000D03*
D17*
X-176786500Y-89525000D03*
D29*
X-176776500Y-77775000D03*
D14*
X-176776500Y-83185000D03*
D30*
X-176286500Y-78275000D03*
D16*
X-175586500Y-81925000D03*
D31*
X-175585000Y-80205025D03*
D22*
X-175366500Y-89925000D03*
%TD*%
D14*
%TO.P,SW41,1,1*%
%TO.N,/ROW 4*%
X-125976500Y-80645000D03*
D15*
X-124736500Y-80250000D03*
D16*
X-123436500Y-79825000D03*
D17*
X-123436500Y-92225000D03*
D18*
X-122236500Y-80250000D03*
D14*
X-120896500Y-80645000D03*
D19*
%TO.P,SW41,2,2*%
%TO.N,/COL 4*%
X-127246500Y-77775000D03*
D20*
X-126036500Y-77775000D03*
D21*
X-125086500Y-77775000D03*
D22*
%TO.P,SW41,3,3*%
%TO.N,unconnected-(SW41-Pad3)*%
X-128656500Y-89925000D03*
D16*
X-128436500Y-81925000D03*
D14*
X-127246500Y-83185000D03*
D17*
X-127236500Y-89525000D03*
D23*
X-126865500Y-84455000D03*
D24*
X-126865500Y-88519000D03*
D25*
X-126611499Y-86499445D03*
D26*
X-123436502Y-89535000D03*
D21*
X-121786500Y-77775000D03*
D20*
X-120936500Y-77775000D03*
D25*
X-120261501Y-86499445D03*
D27*
X-120007500Y-84455000D03*
D28*
X-120007500Y-88519000D03*
D17*
X-119636500Y-89525000D03*
D29*
X-119626500Y-77775000D03*
D14*
X-119626500Y-83185000D03*
D30*
X-119136500Y-78275000D03*
D16*
X-118436500Y-81925000D03*
D31*
X-118435000Y-80205025D03*
D22*
X-118216500Y-89925000D03*
%TD*%
D14*
%TO.P,SW29,1,1*%
%TO.N,/ROW 4*%
X-192651500Y-61595000D03*
D15*
X-191411500Y-61200000D03*
D16*
X-190111500Y-60775000D03*
D17*
X-190111500Y-73175000D03*
D18*
X-188911500Y-61200000D03*
D14*
X-187571500Y-61595000D03*
D19*
%TO.P,SW29,2,2*%
%TO.N,/COL 0*%
X-193921500Y-58725000D03*
D20*
X-192711500Y-58725000D03*
D21*
X-191761500Y-58725000D03*
D22*
%TO.P,SW29,3,3*%
%TO.N,unconnected-(SW29-Pad3)_2*%
X-195331500Y-70875000D03*
D16*
X-195111500Y-62875000D03*
D14*
X-193921500Y-64135000D03*
D17*
X-193911500Y-70475000D03*
D23*
X-193540500Y-65405000D03*
D24*
X-193540500Y-69469000D03*
D25*
X-193286499Y-67449445D03*
D26*
X-190111502Y-70485000D03*
D21*
X-188461500Y-58725000D03*
D20*
X-187611500Y-58725000D03*
D25*
X-186936501Y-67449445D03*
D27*
X-186682500Y-65405000D03*
D28*
X-186682500Y-69469000D03*
D17*
X-186311500Y-70475000D03*
D29*
X-186301500Y-58725000D03*
D14*
X-186301500Y-64135000D03*
D30*
X-185811500Y-59225000D03*
D16*
X-185111500Y-62875000D03*
D31*
X-185110000Y-61155025D03*
D22*
X-184891500Y-70875000D03*
%TD*%
D14*
%TO.P,SW40,1,1*%
%TO.N,/ROW 4*%
X-145026500Y-80645000D03*
D15*
X-143786500Y-80250000D03*
D16*
X-142486500Y-79825000D03*
D17*
X-142486500Y-92225000D03*
D18*
X-141286500Y-80250000D03*
D14*
X-139946500Y-80645000D03*
D19*
%TO.P,SW40,2,2*%
%TO.N,/COL 3*%
X-146296500Y-77775000D03*
D20*
X-145086500Y-77775000D03*
D21*
X-144136500Y-77775000D03*
D22*
%TO.P,SW40,3,3*%
%TO.N,unconnected-(SW40-Pad3)_11*%
X-147706500Y-89925000D03*
D16*
X-147486500Y-81925000D03*
D14*
X-146296500Y-83185000D03*
D17*
X-146286500Y-89525000D03*
D23*
X-145915500Y-84455000D03*
D24*
X-145915500Y-88519000D03*
D25*
X-145661499Y-86499445D03*
D26*
X-142486502Y-89535000D03*
D21*
X-140836500Y-77775000D03*
D20*
X-139986500Y-77775000D03*
D25*
X-139311501Y-86499445D03*
D27*
X-139057500Y-84455000D03*
D28*
X-139057500Y-88519000D03*
D17*
X-138686500Y-89525000D03*
D29*
X-138676500Y-77775000D03*
D14*
X-138676500Y-83185000D03*
D30*
X-138186500Y-78275000D03*
D16*
X-137486500Y-81925000D03*
D31*
X-137485000Y-80205025D03*
D22*
X-137266500Y-89925000D03*
%TD*%
D14*
%TO.P,SW35,1,1*%
%TO.N,/ROW 3*%
X-66445250Y-61595000D03*
D15*
X-65205250Y-61200000D03*
D16*
X-63905250Y-60775000D03*
D17*
X-63905250Y-73175000D03*
D18*
X-62705250Y-61200000D03*
D14*
X-61365250Y-61595000D03*
D19*
%TO.P,SW35,2,2*%
%TO.N,/COL 6*%
X-67715250Y-58725000D03*
D20*
X-66505250Y-58725000D03*
D21*
X-65555250Y-58725000D03*
D22*
%TO.P,SW35,3,3*%
%TO.N,unconnected-(SW35-Pad3)_14*%
X-69125250Y-70875000D03*
D16*
X-68905250Y-62875000D03*
D14*
X-67715250Y-64135000D03*
D17*
X-67705250Y-70475000D03*
D23*
X-67334250Y-65405000D03*
D24*
X-67334250Y-69469000D03*
D25*
X-67080249Y-67449445D03*
D26*
X-63905252Y-70485000D03*
D21*
X-62255250Y-58725000D03*
D20*
X-61405250Y-58725000D03*
D25*
X-60730251Y-67449445D03*
D27*
X-60476250Y-65405000D03*
D28*
X-60476250Y-69469000D03*
D17*
X-60105250Y-70475000D03*
D29*
X-60095250Y-58725000D03*
D14*
X-60095250Y-64135000D03*
D30*
X-59605250Y-59225000D03*
D16*
X-58905250Y-62875000D03*
D31*
X-58903750Y-61155025D03*
D22*
X-58685250Y-70875000D03*
%TD*%
D36*
%TO.P,SW0,1,1*%
%TO.N,Net-(U1-RST)*%
X-13724000Y-38500000D03*
D37*
X-13724000Y-38500000D03*
D36*
%TO.P,SW0,2,2*%
%TO.N,GND*%
X-17124000Y-38500000D03*
D37*
X-17124000Y-38500000D03*
%TD*%
D38*
%TO.N,/COL 5*%
X-29456500Y-35465000D03*
X-115411500Y-34271000D03*
X-24677735Y-33560000D03*
%TO.N,/COL 4*%
X-28821500Y-38005000D03*
X-25646500Y-37370000D03*
%TO.N,/COL 3*%
X-135819000Y-57372500D03*
%TO.N,/COL 2*%
X-155636500Y-56200000D03*
%TO.N,/COL 1*%
X-179636500Y-37200000D03*
%TO.N,/COL 0*%
X-191636500Y-18200000D03*
%TO.N,/ROW 1*%
X-23741500Y-8160000D03*
%TO.N,/COL 6*%
X-25018500Y-29750000D03*
X-36441500Y-36100000D03*
X-93591500Y-36396000D03*
%TO.N,/COL 7*%
X-48111500Y-58725000D03*
%TO.N,/COL 8*%
X-41636500Y-17050000D03*
%TD*%
D39*
%TO.N,/COL 5*%
X-112930154Y-34271000D02*
X-115411500Y-34271000D01*
X-59734327Y-33721000D02*
X-63272500Y-33721000D01*
X-29456500Y-35465000D02*
X-31361500Y-33560000D01*
X-35497500Y-34521000D02*
X-58934327Y-34521000D01*
X-58934327Y-34521000D02*
X-59734327Y-33721000D01*
X-87715500Y-33721000D02*
X-92319500Y-33721000D01*
X-86915500Y-34521000D02*
X-87715500Y-33721000D01*
X-106291500Y-33721000D02*
X-112380154Y-33721000D01*
X-22867731Y-31749996D02*
X-24677735Y-33560000D01*
X-31361500Y-33560000D02*
X-34536500Y-33560000D01*
X-34536500Y-33560000D02*
X-35497500Y-34521000D01*
X-92319500Y-33721000D02*
X-92752327Y-34153827D01*
X-112380154Y-33721000D02*
X-112930154Y-34271000D01*
X-64072500Y-34521000D02*
X-86915500Y-34521000D01*
X-63272500Y-33721000D02*
X-64072500Y-34521000D01*
X-19360000Y-31749996D02*
X-22867731Y-31749996D01*
X-105858673Y-34153827D02*
X-106291500Y-33721000D01*
X-92752327Y-34153827D02*
X-105858673Y-34153827D01*
%TO.N,/COL 4*%
X-118403000Y-37754000D02*
X-120324000Y-39675000D01*
X-22566496Y-34289996D02*
X-19360000Y-34289996D01*
X-29072500Y-37754000D02*
X-118403000Y-37754000D01*
X-25646500Y-37370000D02*
X-22566496Y-34289996D01*
X-28821500Y-38005000D02*
X-29072500Y-37754000D01*
%TO.N,/COL 3*%
X-22640526Y-33020000D02*
X-20884000Y-33020000D01*
X-26997500Y-39033802D02*
X-26997500Y-37376974D01*
X-28407026Y-56754000D02*
X-25394100Y-53741074D01*
X-135819000Y-57372500D02*
X-135200500Y-56754000D01*
X-135200500Y-56754000D02*
X-28407026Y-56754000D01*
X-25394100Y-53741074D02*
X-25394100Y-40637202D01*
X-26997500Y-37376974D02*
X-22640526Y-33020000D01*
X-25394100Y-40637202D02*
X-26997500Y-39033802D01*
%TO.N,/COL 2*%
X-25727500Y-31596028D02*
X-24611472Y-30480000D01*
X-27551500Y-39263276D02*
X-27551500Y-37147500D01*
X-24611472Y-30480000D02*
X-20884000Y-30480000D01*
X-27551500Y-37147500D02*
X-25727500Y-35323500D01*
X-25948100Y-53511600D02*
X-25948100Y-40866676D01*
X-25727500Y-35323500D02*
X-25727500Y-31596028D01*
X-28636500Y-56200000D02*
X-25948100Y-53511600D01*
X-25948100Y-40866676D02*
X-27551500Y-39263276D01*
X-155636500Y-56200000D02*
X-28636500Y-56200000D01*
%TO.N,/COL 1*%
X-24471500Y-27940000D02*
X-20884000Y-27940000D01*
X-28388474Y-37201000D02*
X-26281500Y-35094026D01*
X-28990500Y-37201000D02*
X-28388474Y-37201000D01*
X-26281500Y-29750000D02*
X-24471500Y-27940000D01*
X-179636500Y-37200000D02*
X-28991500Y-37200000D01*
X-28991500Y-37200000D02*
X-28990500Y-37201000D01*
X-184396500Y-96825000D02*
X-183186500Y-96825000D01*
X-26281500Y-35094026D02*
X-26281500Y-29750000D01*
%TO.N,/COL 0*%
X-211399900Y-34436600D02*
X-211399900Y-23815900D01*
X-201874900Y-41438400D02*
X-200111500Y-39675000D01*
X-211399900Y-23815900D02*
X-208209000Y-20625000D01*
X-201874900Y-52961600D02*
X-201874900Y-41438400D01*
X-211399900Y-17434100D02*
X-211399900Y-4765900D01*
X-196111500Y-58725000D02*
X-201874900Y-52961600D01*
X-28941500Y-18200000D02*
X-21741500Y-25400000D01*
X-204587392Y-37200000D02*
X-208636500Y-37200000D01*
X-208636500Y-37200000D02*
X-211399900Y-34436600D01*
X-193921500Y-58725000D02*
X-196111500Y-58725000D01*
X-21741500Y-25400000D02*
X-20884000Y-25400000D01*
X-191636500Y-18200000D02*
X-28941500Y-18200000D01*
X-197636500Y-74125000D02*
X-197636500Y-60250000D01*
X-198684000Y-39675000D02*
X-202112392Y-39675000D01*
X-200111500Y-39675000D02*
X-198684000Y-39675000D01*
X-208209000Y-20625000D02*
X-211399900Y-17434100D01*
X-197636500Y-60250000D02*
X-196111500Y-58725000D01*
X-202112392Y-39675000D02*
X-204587392Y-37200000D01*
X-201286500Y-77775000D02*
X-197636500Y-74125000D01*
X-211399900Y-4765900D02*
X-208209000Y-1575000D01*
%TO.N,/ROW 0*%
X-32949000Y-16025000D02*
X-185349000Y-16025000D01*
%TO.N,/ROW 1*%
X-187889000Y-23495000D02*
X-189664657Y-23495000D01*
X-202975000Y-16025000D02*
X-204399000Y-16025000D01*
X-189664657Y-23495000D02*
X-189773657Y-23386000D01*
X-23741500Y-8160000D02*
X-23741500Y-7937500D01*
X-23741500Y-7937500D02*
X-20884000Y-5080000D01*
X-32949000Y-35075000D02*
X-185349000Y-35075000D01*
X-195614000Y-23386000D02*
X-202975000Y-16025000D01*
X-189773657Y-23386000D02*
X-195614000Y-23386000D01*
%TO.N,/ROW 2*%
X-178364000Y-42545000D02*
X-180139657Y-42545000D01*
X-180139657Y-42545000D02*
X-187609657Y-35075000D01*
X-187609657Y-35075000D02*
X-204399000Y-35075000D01*
X-32949000Y-54125000D02*
X-175824000Y-54125000D01*
%TO.N,/ROW 4*%
X-183126500Y-80645000D02*
X-184682134Y-80645000D01*
X-184682134Y-80645000D02*
X-190111500Y-75215634D01*
X-190111500Y-75215634D02*
X-190111500Y-73175000D01*
X-32949000Y-92225000D02*
X-180586500Y-92225000D01*
%TO.N,/ROW 5*%
X-183126500Y-99695000D02*
X-184682134Y-99695000D01*
X-192152134Y-92225000D02*
X-199636500Y-92225000D01*
X-32949000Y-111275000D02*
X-180586500Y-111275000D01*
X-184682134Y-99695000D02*
X-192152134Y-92225000D01*
%TO.N,GND*%
X-20884000Y-10160000D02*
X-20884000Y-12700000D01*
X-19360000Y-8889996D02*
X-19613996Y-8889996D01*
X-5644000Y-7620000D02*
X-3687290Y-7620000D01*
X-2786500Y-6719210D02*
X-2786500Y-5143500D01*
D40*
X-17124000Y-38500000D02*
X-17124000Y-39300000D01*
D39*
X-3687290Y-7620000D02*
X-2786500Y-6719210D01*
X-2786500Y-5143500D02*
X-4120000Y-3810000D01*
X-19613996Y-8889996D02*
X-20884000Y-10160000D01*
%TO.N,/ROW 3*%
X-182627134Y-54125000D02*
X-194874000Y-54125000D01*
X-175157134Y-61595000D02*
X-182627134Y-54125000D01*
X-32949000Y-73175000D02*
X-171061500Y-73175000D01*
X-173601500Y-61595000D02*
X-175157134Y-61595000D01*
%TO.N,/COL 6*%
X-36987500Y-36646000D02*
X-36441500Y-36100000D01*
X-93341500Y-36646000D02*
X-36987500Y-36646000D01*
X-25018500Y-29750000D02*
X-24478496Y-29209996D01*
X-93591500Y-36396000D02*
X-93341500Y-36646000D01*
X-24478496Y-29209996D02*
X-19360000Y-29209996D01*
%TO.N,/COL 7*%
X-28177552Y-57308000D02*
X-33182000Y-57308000D01*
X-7231500Y-39910000D02*
X-21040392Y-39910000D01*
X-21040392Y-39910000D02*
X-24840100Y-43709708D01*
X-2691500Y-25400000D02*
X-1924000Y-26167500D01*
X-5644000Y-25400000D02*
X-2691500Y-25400000D01*
X-33182000Y-57308000D02*
X-34599000Y-58725000D01*
X-48111500Y-58725000D02*
X-36759000Y-58725000D01*
X-24840100Y-43709708D02*
X-24840100Y-53970548D01*
X-1924000Y-26167500D02*
X-1924000Y-34602500D01*
X-1924000Y-34602500D02*
X-7231500Y-39910000D01*
X-24840100Y-53970548D02*
X-28177552Y-57308000D01*
%TO.N,/COL 8*%
X-22164111Y-24129996D02*
X-19360000Y-24129996D01*
X-28648107Y-17646000D02*
X-22164111Y-24129996D01*
X-41636500Y-17050000D02*
X-41040500Y-17646000D01*
X-41040500Y-17646000D02*
X-28648107Y-17646000D01*
%TD*%
M02*
